<svg width="600px" height="1435px"
 viewBox="0.00 0.00 871.92 2085.07" xmlns="http://www.w3.org/2000/svg" xmlns:xlink="http://www.w3.org/1999/xlink">
<g id="graph0" class="graph" transform="scale(1.0 1.0) rotate(0) translate(4 2081.07)">
<title>05_Gepäckabfertigung_Abflug</title>
<polygon fill="white" stroke="transparent" points="-4,4 -4,-2081.07 867.92,-2081.07 867.92,4 -4,4"/>
<!-- EndEvent_1\nj97r4c -->
<g id="node1" class="node">
<title>EndEvent_1\nj97r4c</title>
<ellipse fill="lightgrey" stroke="black" cx="519.5" cy="-38.35" rx="38.19" ry="38.19"/>
<text text-anchor="middle" x="519.5" y="-34.65" font-family="Times New Roman,serif" font-size="14.00">Ende_2</text>
</g>
<!-- Task_1wi9t\nhp -->
<g id="node2" class="node">
<title>Task_1wi9t\nhp</title>
<polygon fill="lightgrey" stroke="black" points="356,-1254.33 356,-1307.33 575,-1307.33 575,-1254.33 356,-1254.33"/>
<text text-anchor="middle" x="397" y="-1284.63" font-family="Times New Roman,serif" font-size="14.00">Task_1wi9t</text>
<text text-anchor="middle" x="397" y="-1269.63" font-family="Times New Roman,serif" font-size="14.00">hp</text>
<polyline fill="none" stroke="black" points="438,-1254.33 438,-1307.33 "/>
<text text-anchor="middle" x="478" y="-1292.13" font-family="Times New Roman,serif" font-size="14.00">Check&#45;In:L</text>
<text text-anchor="middle" x="478" y="-1277.13" font-family="Times New Roman,serif" font-size="14.00">ane_0qxfur</text>
<text text-anchor="middle" x="478" y="-1262.13" font-family="Times New Roman,serif" font-size="14.00">9</text>
<polyline fill="none" stroke="black" points="518,-1254.33 518,-1307.33 "/>
<text text-anchor="middle" x="546.5" y="-1277.13" font-family="Times New Roman,serif" font-size="14.00">Warten</text>
</g>
<!-- Task_0uhl6\n4y -->
<g id="node14" class="node">
<title>Task_0uhl6\n4y</title>
<polygon fill="lightgrey" stroke="black" points="326.5,-1152.99 326.5,-1205.99 604.5,-1205.99 604.5,-1152.99 326.5,-1152.99"/>
<text text-anchor="middle" x="367.5" y="-1183.29" font-family="Times New Roman,serif" font-size="14.00">Task_0uhl6</text>
<text text-anchor="middle" x="367.5" y="-1168.29" font-family="Times New Roman,serif" font-size="14.00">4y</text>
<polyline fill="none" stroke="black" points="408.5,-1152.99 408.5,-1205.99 "/>
<text text-anchor="middle" x="448.5" y="-1190.79" font-family="Times New Roman,serif" font-size="14.00">Check&#45;In:L</text>
<text text-anchor="middle" x="448.5" y="-1175.79" font-family="Times New Roman,serif" font-size="14.00">ane_0qxfur</text>
<text text-anchor="middle" x="448.5" y="-1160.79" font-family="Times New Roman,serif" font-size="14.00">9</text>
<polyline fill="none" stroke="black" points="488.5,-1152.99 488.5,-1205.99 "/>
<text text-anchor="middle" x="546.5" y="-1175.79" font-family="Times New Roman,serif" font-size="14.00">Gepäck_bewegen</text>
</g>
<!-- Task_1wi9t\nhp&#45;&gt;Task_0uhl6\n4y -->
<g id="edge1" class="edge">
<title>Task_1wi9t\nhp&#45;&gt;Task_0uhl6\n4y</title>
<path fill="none" stroke="black" d="M465.5,-1254.25C465.5,-1242.75 465.5,-1228.98 465.5,-1216.47"/>
<polygon fill="black" stroke="black" points="469,-1216.33 465.5,-1206.33 462,-1216.33 469,-1216.33"/>
</g>
<!-- StartEvent\n_5 -->
<g id="node3" class="node">
<title>StartEvent\n_5</title>
<ellipse fill="lightgrey" stroke="black" cx="311.5" cy="-2049.13" rx="27.9" ry="27.9"/>
<text text-anchor="middle" x="311.5" y="-2045.43" font-family="Times New Roman,serif" font-size="14.00">Start</text>
</g>
<!-- Task_0ln0s\nhf -->
<g id="node13" class="node">
<title>Task_0ln0s\nhf</title>
<polygon fill="lightgrey" stroke="black" points="173,-1931.68 173,-1984.68 450,-1984.68 450,-1931.68 173,-1931.68"/>
<text text-anchor="middle" x="213.5" y="-1961.98" font-family="Times New Roman,serif" font-size="14.00">Task_0ln0s</text>
<text text-anchor="middle" x="213.5" y="-1946.98" font-family="Times New Roman,serif" font-size="14.00">hf</text>
<polyline fill="none" stroke="black" points="254,-1931.68 254,-1984.68 "/>
<text text-anchor="middle" x="294" y="-1969.48" font-family="Times New Roman,serif" font-size="14.00">Check&#45;In:L</text>
<text text-anchor="middle" x="294" y="-1954.48" font-family="Times New Roman,serif" font-size="14.00">ane_0qxfur</text>
<text text-anchor="middle" x="294" y="-1939.48" font-family="Times New Roman,serif" font-size="14.00">9</text>
<polyline fill="none" stroke="black" points="334,-1931.68 334,-1984.68 "/>
<text text-anchor="middle" x="392" y="-1954.48" font-family="Times New Roman,serif" font-size="14.00">Gepäck_bewegen</text>
</g>
<!-- StartEvent\n_5&#45;&gt;Task_0ln0s\nhf -->
<g id="edge2" class="edge">
<title>StartEvent\n_5&#45;&gt;Task_0ln0s\nhf</title>
<path fill="none" stroke="black" d="M311.5,-2020.96C311.5,-2012.82 311.5,-2003.77 311.5,-1995.16"/>
<polygon fill="black" stroke="black" points="315,-1994.97 311.5,-1984.97 308,-1994.97 315,-1994.97"/>
</g>
<!-- ExclusiveG\nateway_1yd\nw5c6 -->
<g id="node4" class="node">
<title>ExclusiveG\nateway_1yd\nw5c6</title>
<polygon fill="lightgrey" stroke="black" points="566.5,-552.49 404.96,-534.49 566.5,-516.49 728.04,-534.49 566.5,-552.49"/>
<text text-anchor="middle" x="566.5" y="-530.79" font-family="Times New Roman,serif" font-size="14.00">Status_überprüfen_/_SPLIT</text>
</g>
<!-- EndEvent_0\nsokwfi -->
<g id="node19" class="node">
<title>EndEvent_0\nsokwfi</title>
<ellipse fill="lightgrey" stroke="black" cx="494.5" cy="-437.59" rx="42.79" ry="42.79"/>
<text text-anchor="middle" x="494.5" y="-433.89" font-family="Times New Roman,serif" font-size="14.00">Abbruch</text>
</g>
<!-- ExclusiveG\nateway_1yd\nw5c6&#45;&gt;EndEvent_0\nsokwfi -->
<g id="edge3" class="edge">
<title>ExclusiveG\nateway_1yd\nw5c6&#45;&gt;EndEvent_0\nsokwfi</title>
<path fill="none" stroke="black" d="M554.29,-517.39C546.58,-507.23 536.24,-493.6 526.32,-480.53"/>
<polygon fill="black" stroke="black" points="529.07,-478.36 520.23,-472.51 523.49,-482.59 529.07,-478.36"/>
</g>
<!-- ExclusiveG\nateway_0hg\nr87e -->
<g id="node27" class="node">
<title>ExclusiveG\nateway_0hg\nr87e</title>
<polygon fill="lightgrey" stroke="black" points="709.5,-455.59 555.16,-437.59 709.5,-419.59 863.84,-437.59 709.5,-455.59"/>
<text text-anchor="middle" x="709.5" y="-433.89" font-family="Times New Roman,serif" font-size="14.00">Status_überprüfen_/_JOIN</text>
</g>
<!-- ExclusiveG\nateway_1yd\nw5c6&#45;&gt;ExclusiveG\nateway_0hg\nr87e -->
<g id="edge4" class="edge">
<title>ExclusiveG\nateway_1yd\nw5c6&#45;&gt;ExclusiveG\nateway_0hg\nr87e</title>
<path fill="none" stroke="black" d="M588.53,-518.87C612.85,-502.73 652.14,-476.65 679.32,-458.62"/>
<polygon fill="black" stroke="black" points="681.28,-461.52 687.68,-453.07 677.41,-455.68 681.28,-461.52"/>
</g>
<!-- Task_03cc1\nrv -->
<g id="node5" class="node">
<title>Task_03cc1\nrv</title>
<polygon fill="lightgrey" stroke="black" points="0,-1769.68 0,-1822.68 303,-1822.68 303,-1769.68 0,-1769.68"/>
<text text-anchor="middle" x="43" y="-1799.98" font-family="Times New Roman,serif" font-size="14.00">Task_03cc1</text>
<text text-anchor="middle" x="43" y="-1784.98" font-family="Times New Roman,serif" font-size="14.00">rv</text>
<polyline fill="none" stroke="black" points="86,-1769.68 86,-1822.68 "/>
<text text-anchor="middle" x="126" y="-1807.48" font-family="Times New Roman,serif" font-size="14.00">Check&#45;In:L</text>
<text text-anchor="middle" x="126" y="-1792.48" font-family="Times New Roman,serif" font-size="14.00">ane_0qxfur</text>
<text text-anchor="middle" x="126" y="-1777.48" font-family="Times New Roman,serif" font-size="14.00">9</text>
<polyline fill="none" stroke="black" points="166,-1769.68 166,-1822.68 "/>
<text text-anchor="middle" x="234.5" y="-1792.48" font-family="Times New Roman,serif" font-size="14.00">Gepäck_kontrollieren</text>
</g>
<!-- ExclusiveG\nateway_0kp\nypkj -->
<g id="node16" class="node">
<title>ExclusiveG\nateway_0kp\nypkj</title>
<polygon fill="lightgrey" stroke="black" points="311.5,-1733.18 152.47,-1715.18 311.5,-1697.18 470.53,-1715.18 311.5,-1733.18"/>
<text text-anchor="middle" x="311.5" y="-1711.48" font-family="Times New Roman,serif" font-size="14.00">Paralleles_Gateway_/_JOIN</text>
</g>
<!-- Task_03cc1\nrv&#45;&gt;ExclusiveG\nateway_0kp\nypkj -->
<g id="edge5" class="edge">
<title>Task_03cc1\nrv&#45;&gt;ExclusiveG\nateway_0kp\nypkj</title>
<path fill="none" stroke="black" d="M203.45,-1769.53C226.39,-1758.2 252.87,-1745.13 273.87,-1734.76"/>
<polygon fill="black" stroke="black" points="275.68,-1737.77 283.1,-1730.2 272.58,-1731.49 275.68,-1737.77"/>
</g>
<!-- ExclusiveG\nateway_05a\nsm52 -->
<g id="node6" class="node">
<title>ExclusiveG\nateway_05a\nsm52</title>
<polygon fill="lightgrey" stroke="black" points="311.5,-1895.18 144.43,-1877.18 311.5,-1859.18 478.57,-1877.18 311.5,-1895.18"/>
<text text-anchor="middle" x="311.5" y="-1873.48" font-family="Times New Roman,serif" font-size="14.00">Paralleles_Gateway_/_SPLIT</text>
</g>
<!-- ExclusiveG\nateway_05a\nsm52&#45;&gt;Task_03cc1\nrv -->
<g id="edge7" class="edge">
<title>ExclusiveG\nateway_05a\nsm52&#45;&gt;Task_03cc1\nrv</title>
<path fill="none" stroke="black" d="M282.9,-1862.06C263.37,-1852.41 236.76,-1839.27 212.59,-1827.34"/>
<polygon fill="black" stroke="black" points="213.98,-1824.12 203.46,-1822.84 210.88,-1830.4 213.98,-1824.12"/>
</g>
<!-- Task_0dvu2\n6l -->
<g id="node8" class="node">
<title>Task_0dvu2\n6l</title>
<polygon fill="lightgrey" stroke="black" points="321,-1769.68 321,-1822.68 624,-1822.68 624,-1769.68 321,-1769.68"/>
<text text-anchor="middle" x="364" y="-1799.98" font-family="Times New Roman,serif" font-size="14.00">Task_0dvu2</text>
<text text-anchor="middle" x="364" y="-1784.98" font-family="Times New Roman,serif" font-size="14.00">6l</text>
<polyline fill="none" stroke="black" points="407,-1769.68 407,-1822.68 "/>
<text text-anchor="middle" x="447" y="-1807.48" font-family="Times New Roman,serif" font-size="14.00">Check&#45;In:L</text>
<text text-anchor="middle" x="447" y="-1792.48" font-family="Times New Roman,serif" font-size="14.00">ane_0qxfur</text>
<text text-anchor="middle" x="447" y="-1777.48" font-family="Times New Roman,serif" font-size="14.00">9</text>
<polyline fill="none" stroke="black" points="487,-1769.68 487,-1822.68 "/>
<text text-anchor="middle" x="555.5" y="-1792.48" font-family="Times New Roman,serif" font-size="14.00">Gepäck_kontrollieren</text>
</g>
<!-- ExclusiveG\nateway_05a\nsm52&#45;&gt;Task_0dvu2\n6l -->
<g id="edge6" class="edge">
<title>ExclusiveG\nateway_05a\nsm52&#45;&gt;Task_0dvu2\n6l</title>
<path fill="none" stroke="black" d="M339.91,-1862.24C359.6,-1852.57 386.58,-1839.34 411.07,-1827.32"/>
<polygon fill="black" stroke="black" points="412.87,-1830.34 420.31,-1822.79 409.79,-1824.05 412.87,-1830.34"/>
</g>
<!-- Task_0gx9b\njy -->
<g id="node7" class="node">
<title>Task_0gx9b\njy</title>
<polygon fill="lightgrey" stroke="black" points="5,-1355.68 5,-1408.68 310,-1408.68 310,-1355.68 5,-1355.68"/>
<text text-anchor="middle" x="48" y="-1385.98" font-family="Times New Roman,serif" font-size="14.00">Task_0gx9b</text>
<text text-anchor="middle" x="48" y="-1370.98" font-family="Times New Roman,serif" font-size="14.00">jy</text>
<polyline fill="none" stroke="black" points="91,-1355.68 91,-1408.68 "/>
<text text-anchor="middle" x="131" y="-1393.48" font-family="Times New Roman,serif" font-size="14.00">Check&#45;In:L</text>
<text text-anchor="middle" x="131" y="-1378.48" font-family="Times New Roman,serif" font-size="14.00">ane_0qxfur</text>
<text text-anchor="middle" x="131" y="-1363.48" font-family="Times New Roman,serif" font-size="14.00">9</text>
<polyline fill="none" stroke="black" points="171,-1355.68 171,-1408.68 "/>
<text text-anchor="middle" x="240.5" y="-1378.48" font-family="Times New Roman,serif" font-size="14.00">Gegenstand_bewegen</text>
</g>
<!-- EndEvent_0\nc944ct -->
<g id="node11" class="node">
<title>EndEvent_0\nc944ct</title>
<ellipse fill="lightgrey" stroke="black" cx="157.5" cy="-1280.83" rx="38.19" ry="38.19"/>
<text text-anchor="middle" x="157.5" y="-1277.13" font-family="Times New Roman,serif" font-size="14.00">Ende_1</text>
</g>
<!-- Task_0gx9b\njy&#45;&gt;EndEvent_0\nc944ct -->
<g id="edge8" class="edge">
<title>Task_0gx9b\njy&#45;&gt;EndEvent_0\nc944ct</title>
<path fill="none" stroke="black" d="M157.5,-1355.59C157.5,-1347.57 157.5,-1338.45 157.5,-1329.42"/>
<polygon fill="black" stroke="black" points="161,-1329.32 157.5,-1319.32 154,-1329.32 161,-1329.32"/>
</g>
<!-- Task_0dvu2\n6l&#45;&gt;ExclusiveG\nateway_0kp\nypkj -->
<g id="edge9" class="edge">
<title>Task_0dvu2\n6l&#45;&gt;ExclusiveG\nateway_0kp\nypkj</title>
<path fill="none" stroke="black" d="M420.23,-1769.53C397.03,-1758.15 370.26,-1745.01 349.08,-1734.62"/>
<polygon fill="black" stroke="black" points="350.6,-1731.47 340.08,-1730.2 347.51,-1737.75 350.6,-1731.47"/>
</g>
<!-- ExclusiveG\nateway_087\n4w9z -->
<g id="node9" class="node">
<title>ExclusiveG\nateway_087\n4w9z</title>
<polygon fill="lightgrey" stroke="black" points="566.5,-834.49 404.96,-816.49 566.5,-798.49 728.04,-816.49 566.5,-834.49"/>
<text text-anchor="middle" x="566.5" y="-812.79" font-family="Times New Roman,serif" font-size="14.00">Status_überprüfen_/_SPLIT</text>
</g>
<!-- Task_04mc7\nzf -->
<g id="node23" class="node">
<title>Task_04mc7\nzf</title>
<polygon fill="lightgrey" stroke="black" points="425.5,-693.99 425.5,-761.99 707.5,-761.99 707.5,-693.99 425.5,-693.99"/>
<text text-anchor="middle" x="470" y="-731.79" font-family="Times New Roman,serif" font-size="14.00">Task_04mc7</text>
<text text-anchor="middle" x="470" y="-716.79" font-family="Times New Roman,serif" font-size="14.00">zf</text>
<polyline fill="none" stroke="black" points="514.5,-693.99 514.5,-761.99 "/>
<text text-anchor="middle" x="558" y="-746.79" font-family="Times New Roman,serif" font-size="14.00">Gepäck_Sic</text>
<text text-anchor="middle" x="558" y="-731.79" font-family="Times New Roman,serif" font-size="14.00">herheitsko</text>
<text text-anchor="middle" x="558" y="-716.79" font-family="Times New Roman,serif" font-size="14.00">ntrolle:La</text>
<text text-anchor="middle" x="558" y="-701.79" font-family="Times New Roman,serif" font-size="14.00">ne_0dxw77z</text>
<polyline fill="none" stroke="black" points="601.5,-693.99 601.5,-761.99 "/>
<text text-anchor="middle" x="654.5" y="-724.29" font-family="Times New Roman,serif" font-size="14.00">Sonstige_Tasks</text>
</g>
<!-- ExclusiveG\nateway_087\n4w9z&#45;&gt;Task_04mc7\nzf -->
<g id="edge10" class="edge">
<title>ExclusiveG\nateway_087\n4w9z&#45;&gt;Task_04mc7\nzf</title>
<path fill="none" stroke="black" d="M566.5,-798.4C566.5,-790.8 566.5,-781.49 566.5,-772.17"/>
<polygon fill="black" stroke="black" points="570,-772.15 566.5,-762.15 563,-772.15 570,-772.15"/>
</g>
<!-- ExclusiveG\nateway_087\n4w9z&#45;&gt;ExclusiveG\nateway_0hg\nr87e -->
<g id="edge11" class="edge">
<title>ExclusiveG\nateway_087\n4w9z&#45;&gt;ExclusiveG\nateway_0hg\nr87e</title>
<path fill="none" stroke="black" d="M639.03,-806.44C667.37,-799.16 697.55,-786.06 716.5,-762.49 785.26,-676.97 756.34,-624.59 737.5,-516.49 734.37,-498.54 727.48,-479.27 721.31,-464.39"/>
<polygon fill="black" stroke="black" points="724.38,-462.66 717.22,-454.85 717.95,-465.42 724.38,-462.66"/>
</g>
<!-- ExclusiveG\nateway_11i\nxq87 -->
<g id="node10" class="node">
<title>ExclusiveG\nateway_11i\nxq87</title>
<polygon fill="lightgrey" stroke="black" points="465.5,-1011.49 295.41,-993.49 465.5,-975.49 635.59,-993.49 465.5,-1011.49"/>
<text text-anchor="middle" x="465.5" y="-989.79" font-family="Times New Roman,serif" font-size="14.00">Status_überprüfen_/_SPLITT</text>
</g>
<!-- ExclusiveG\nateway_1xg\n0r3u -->
<g id="node18" class="node">
<title>ExclusiveG\nateway_1xg\n0r3u</title>
<polygon fill="lightgrey" stroke="black" points="519.5,-358.69 365.16,-340.69 519.5,-322.69 673.84,-340.69 519.5,-358.69"/>
<text text-anchor="middle" x="519.5" y="-336.99" font-family="Times New Roman,serif" font-size="14.00">Status_überprüfen_/_JOIN</text>
</g>
<!-- ExclusiveG\nateway_11i\nxq87&#45;&gt;ExclusiveG\nateway_1xg\n0r3u -->
<g id="edge12" class="edge">
<title>ExclusiveG\nateway_11i\nxq87&#45;&gt;ExclusiveG\nateway_1xg\n0r3u</title>
<path fill="none" stroke="black" d="M440.19,-977.97C426.34,-968.72 410.09,-955.47 400.5,-939.49 372.06,-892.1 376.5,-872.75 376.5,-817.49 376.5,-817.49 376.5,-817.49 376.5,-533.49 376.5,-465.18 398.19,-446.67 442.5,-394.69 453.92,-381.3 469.49,-369.73 483.64,-360.86"/>
<polygon fill="black" stroke="black" points="485.46,-363.85 492.22,-355.69 481.85,-357.86 485.46,-363.85"/>
</g>
<!-- Task_1l67i\n8p -->
<g id="node25" class="node">
<title>Task_1l67i\n8p</title>
<polygon fill="lightgrey" stroke="black" points="409.5,-870.99 409.5,-938.99 711.5,-938.99 711.5,-870.99 409.5,-870.99"/>
<text text-anchor="middle" x="448.5" y="-908.79" font-family="Times New Roman,serif" font-size="14.00">Task_1l67i</text>
<text text-anchor="middle" x="448.5" y="-893.79" font-family="Times New Roman,serif" font-size="14.00">8p</text>
<polyline fill="none" stroke="black" points="487.5,-870.99 487.5,-938.99 "/>
<text text-anchor="middle" x="531" y="-923.79" font-family="Times New Roman,serif" font-size="14.00">Gepäck_Sic</text>
<text text-anchor="middle" x="531" y="-908.79" font-family="Times New Roman,serif" font-size="14.00">herheitsko</text>
<text text-anchor="middle" x="531" y="-893.79" font-family="Times New Roman,serif" font-size="14.00">ntrolle:La</text>
<text text-anchor="middle" x="531" y="-878.79" font-family="Times New Roman,serif" font-size="14.00">ne_0dxw77z</text>
<polyline fill="none" stroke="black" points="574.5,-870.99 574.5,-938.99 "/>
<text text-anchor="middle" x="643" y="-901.29" font-family="Times New Roman,serif" font-size="14.00">Gepäck_kontrollieren</text>
</g>
<!-- ExclusiveG\nateway_11i\nxq87&#45;&gt;Task_1l67i\n8p -->
<g id="edge13" class="edge">
<title>ExclusiveG\nateway_11i\nxq87&#45;&gt;Task_1l67i\n8p</title>
<path fill="none" stroke="black" d="M482.48,-977.02C492.03,-968.33 504.43,-957.04 516.52,-946.03"/>
<polygon fill="black" stroke="black" points="518.95,-948.56 523.98,-939.24 514.23,-943.38 518.95,-948.56"/>
</g>
<!-- Task_0t99p\nk6 -->
<g id="node12" class="node">
<title>Task_0t99p\nk6</title>
<polygon fill="lightgrey" stroke="black" points="160.5,-1517.68 160.5,-1570.68 462.5,-1570.68 462.5,-1517.68 160.5,-1517.68"/>
<text text-anchor="middle" x="202" y="-1547.98" font-family="Times New Roman,serif" font-size="14.00">Task_0t99p</text>
<text text-anchor="middle" x="202" y="-1532.98" font-family="Times New Roman,serif" font-size="14.00">k6</text>
<polyline fill="none" stroke="black" points="243.5,-1517.68 243.5,-1570.68 "/>
<text text-anchor="middle" x="283.5" y="-1555.48" font-family="Times New Roman,serif" font-size="14.00">Check&#45;In:L</text>
<text text-anchor="middle" x="283.5" y="-1540.48" font-family="Times New Roman,serif" font-size="14.00">ane_0qxfur</text>
<text text-anchor="middle" x="283.5" y="-1525.48" font-family="Times New Roman,serif" font-size="14.00">9</text>
<polyline fill="none" stroke="black" points="323.5,-1517.68 323.5,-1570.68 "/>
<text text-anchor="middle" x="393" y="-1540.48" font-family="Times New Roman,serif" font-size="14.00">Dokument_bearbeiten</text>
</g>
<!-- ExclusiveG\nateway_04z\n3jfd -->
<g id="node26" class="node">
<title>ExclusiveG\nateway_04z\n3jfd</title>
<polygon fill="lightgrey" stroke="black" points="311.5,-1481.18 173.75,-1463.18 311.5,-1445.18 449.25,-1463.18 311.5,-1481.18"/>
<text text-anchor="middle" x="311.5" y="-1459.48" font-family="Times New Roman,serif" font-size="14.00">Sperrgepäck?_/_SPLIT</text>
</g>
<!-- Task_0t99p\nk6&#45;&gt;ExclusiveG\nateway_04z\n3jfd -->
<g id="edge14" class="edge">
<title>Task_0t99p\nk6&#45;&gt;ExclusiveG\nateway_04z\n3jfd</title>
<path fill="none" stroke="black" d="M311.5,-1517.31C311.5,-1509.08 311.5,-1499.96 311.5,-1491.63"/>
<polygon fill="black" stroke="black" points="315,-1491.62 311.5,-1481.62 308,-1491.62 315,-1491.62"/>
</g>
<!-- Task_0ln0s\nhf&#45;&gt;ExclusiveG\nateway_05a\nsm52 -->
<g id="edge15" class="edge">
<title>Task_0ln0s\nhf&#45;&gt;ExclusiveG\nateway_05a\nsm52</title>
<path fill="none" stroke="black" d="M311.5,-1931.31C311.5,-1923.08 311.5,-1913.96 311.5,-1905.63"/>
<polygon fill="black" stroke="black" points="315,-1905.62 311.5,-1895.62 308,-1905.62 315,-1905.62"/>
</g>
<!-- Task_0at6c\n14 -->
<g id="node21" class="node">
<title>Task_0at6c\n14</title>
<polygon fill="lightgrey" stroke="black" points="312.5,-1047.99 312.5,-1115.99 618.5,-1115.99 618.5,-1047.99 312.5,-1047.99"/>
<text text-anchor="middle" x="353.5" y="-1085.79" font-family="Times New Roman,serif" font-size="14.00">Task_0at6c</text>
<text text-anchor="middle" x="353.5" y="-1070.79" font-family="Times New Roman,serif" font-size="14.00">14</text>
<polyline fill="none" stroke="black" points="394.5,-1047.99 394.5,-1115.99 "/>
<text text-anchor="middle" x="438" y="-1100.79" font-family="Times New Roman,serif" font-size="14.00">Gepäck_Sic</text>
<text text-anchor="middle" x="438" y="-1085.79" font-family="Times New Roman,serif" font-size="14.00">herheitsko</text>
<text text-anchor="middle" x="438" y="-1070.79" font-family="Times New Roman,serif" font-size="14.00">ntrolle:La</text>
<text text-anchor="middle" x="438" y="-1055.79" font-family="Times New Roman,serif" font-size="14.00">ne_0dxw77z</text>
<polyline fill="none" stroke="black" points="481.5,-1047.99 481.5,-1115.99 "/>
<text text-anchor="middle" x="550" y="-1078.29" font-family="Times New Roman,serif" font-size="14.00">Gepäck_kontrollieren</text>
</g>
<!-- Task_0uhl6\n4y&#45;&gt;Task_0at6c\n14 -->
<g id="edge16" class="edge">
<title>Task_0uhl6\n4y&#45;&gt;Task_0at6c\n14</title>
<path fill="none" stroke="black" d="M465.5,-1152.89C465.5,-1144.7 465.5,-1135.4 465.5,-1126.31"/>
<polygon fill="black" stroke="black" points="469,-1126.21 465.5,-1116.21 462,-1126.21 469,-1126.21"/>
</g>
<!-- Task_1l6jq\ndi -->
<g id="node15" class="node">
<title>Task_1l6jq\ndi</title>
<polygon fill="lightgrey" stroke="black" points="328,-1355.68 328,-1408.68 603,-1408.68 603,-1355.68 328,-1355.68"/>
<text text-anchor="middle" x="367.5" y="-1385.98" font-family="Times New Roman,serif" font-size="14.00">Task_1l6jq</text>
<text text-anchor="middle" x="367.5" y="-1370.98" font-family="Times New Roman,serif" font-size="14.00">di</text>
<polyline fill="none" stroke="black" points="407,-1355.68 407,-1408.68 "/>
<text text-anchor="middle" x="447" y="-1393.48" font-family="Times New Roman,serif" font-size="14.00">Check&#45;In:L</text>
<text text-anchor="middle" x="447" y="-1378.48" font-family="Times New Roman,serif" font-size="14.00">ane_0qxfur</text>
<text text-anchor="middle" x="447" y="-1363.48" font-family="Times New Roman,serif" font-size="14.00">9</text>
<polyline fill="none" stroke="black" points="487,-1355.68 487,-1408.68 "/>
<text text-anchor="middle" x="545" y="-1378.48" font-family="Times New Roman,serif" font-size="14.00">Gepäck_bewegen</text>
</g>
<!-- Task_1l6jq\ndi&#45;&gt;Task_1wi9t\nhp -->
<g id="edge17" class="edge">
<title>Task_1l6jq\ndi&#45;&gt;Task_1wi9t\nhp</title>
<path fill="none" stroke="black" d="M465.5,-1355.59C465.5,-1344.1 465.5,-1330.33 465.5,-1317.81"/>
<polygon fill="black" stroke="black" points="469,-1317.67 465.5,-1307.67 462,-1317.68 469,-1317.67"/>
</g>
<!-- Task_1r0bc\n0t -->
<g id="node20" class="node">
<title>Task_1r0bc\n0t</title>
<polygon fill="lightgrey" stroke="black" points="171.5,-1607.68 171.5,-1660.68 451.5,-1660.68 451.5,-1607.68 171.5,-1607.68"/>
<text text-anchor="middle" x="213.5" y="-1637.98" font-family="Times New Roman,serif" font-size="14.00">Task_1r0bc</text>
<text text-anchor="middle" x="213.5" y="-1622.98" font-family="Times New Roman,serif" font-size="14.00">0t</text>
<polyline fill="none" stroke="black" points="255.5,-1607.68 255.5,-1660.68 "/>
<text text-anchor="middle" x="295.5" y="-1645.48" font-family="Times New Roman,serif" font-size="14.00">Check&#45;In:L</text>
<text text-anchor="middle" x="295.5" y="-1630.48" font-family="Times New Roman,serif" font-size="14.00">ane_0qxfur</text>
<text text-anchor="middle" x="295.5" y="-1615.48" font-family="Times New Roman,serif" font-size="14.00">9</text>
<polyline fill="none" stroke="black" points="335.5,-1607.68 335.5,-1660.68 "/>
<text text-anchor="middle" x="393.5" y="-1630.48" font-family="Times New Roman,serif" font-size="14.00">Gepäck_bewegen</text>
</g>
<!-- ExclusiveG\nateway_0kp\nypkj&#45;&gt;Task_1r0bc\n0t -->
<g id="edge18" class="edge">
<title>ExclusiveG\nateway_0kp\nypkj&#45;&gt;Task_1r0bc\n0t</title>
<path fill="none" stroke="black" d="M311.5,-1697.04C311.5,-1689.32 311.5,-1679.91 311.5,-1670.78"/>
<polygon fill="black" stroke="black" points="315,-1670.69 311.5,-1660.69 308,-1670.69 315,-1670.69"/>
</g>
<!-- Task_0zc9b\njq -->
<g id="node17" class="node">
<title>Task_0zc9b\njq</title>
<polygon fill="lightgrey" stroke="black" points="363.5,-113.19 363.5,-181.19 675.5,-181.19 675.5,-113.19 363.5,-113.19"/>
<text text-anchor="middle" x="406.5" y="-150.99" font-family="Times New Roman,serif" font-size="14.00">Task_0zc9b</text>
<text text-anchor="middle" x="406.5" y="-135.99" font-family="Times New Roman,serif" font-size="14.00">jq</text>
<polyline fill="none" stroke="black" points="449.5,-113.19 449.5,-181.19 "/>
<text text-anchor="middle" x="493" y="-165.99" font-family="Times New Roman,serif" font-size="14.00">Gepäck_Sic</text>
<text text-anchor="middle" x="493" y="-150.99" font-family="Times New Roman,serif" font-size="14.00">herheitsko</text>
<text text-anchor="middle" x="493" y="-135.99" font-family="Times New Roman,serif" font-size="14.00">ntrolle:La</text>
<text text-anchor="middle" x="493" y="-120.99" font-family="Times New Roman,serif" font-size="14.00">ne_0dxw77z</text>
<polyline fill="none" stroke="black" points="536.5,-113.19 536.5,-181.19 "/>
<text text-anchor="middle" x="606" y="-143.49" font-family="Times New Roman,serif" font-size="14.00">Gegenstand_bewegen</text>
</g>
<!-- Task_0zc9b\njq&#45;&gt;EndEvent_1\nj97r4c -->
<g id="edge19" class="edge">
<title>Task_0zc9b\njq&#45;&gt;EndEvent_1\nj97r4c</title>
<path fill="none" stroke="black" d="M519.5,-112.97C519.5,-104.78 519.5,-95.85 519.5,-87.12"/>
<polygon fill="black" stroke="black" points="523,-87.02 519.5,-77.02 516,-87.02 523,-87.02"/>
</g>
<!-- Task_0ceab\nnc -->
<g id="node22" class="node">
<title>Task_0ceab\nnc</title>
<polygon fill="lightgrey" stroke="black" points="375.5,-218.19 375.5,-286.19 663.5,-286.19 663.5,-218.19 375.5,-218.19"/>
<text text-anchor="middle" x="418" y="-255.99" font-family="Times New Roman,serif" font-size="14.00">Task_0ceab</text>
<text text-anchor="middle" x="418" y="-240.99" font-family="Times New Roman,serif" font-size="14.00">nc</text>
<polyline fill="none" stroke="black" points="460.5,-218.19 460.5,-286.19 "/>
<text text-anchor="middle" x="504" y="-270.99" font-family="Times New Roman,serif" font-size="14.00">Gepäck_Sic</text>
<text text-anchor="middle" x="504" y="-255.99" font-family="Times New Roman,serif" font-size="14.00">herheitsko</text>
<text text-anchor="middle" x="504" y="-240.99" font-family="Times New Roman,serif" font-size="14.00">ntrolle:La</text>
<text text-anchor="middle" x="504" y="-225.99" font-family="Times New Roman,serif" font-size="14.00">ne_0dxw77z</text>
<polyline fill="none" stroke="black" points="547.5,-218.19 547.5,-286.19 "/>
<text text-anchor="middle" x="605.5" y="-248.49" font-family="Times New Roman,serif" font-size="14.00">Gepäck_bewegen</text>
</g>
<!-- ExclusiveG\nateway_1xg\n0r3u&#45;&gt;Task_0ceab\nnc -->
<g id="edge20" class="edge">
<title>ExclusiveG\nateway_1xg\n0r3u&#45;&gt;Task_0ceab\nnc</title>
<path fill="none" stroke="black" d="M519.5,-322.6C519.5,-315.01 519.5,-305.69 519.5,-296.38"/>
<polygon fill="black" stroke="black" points="523,-296.36 519.5,-286.36 516,-296.36 523,-296.36"/>
</g>
<!-- Task_1r0bc\n0t&#45;&gt;Task_0t99p\nk6 -->
<g id="edge21" class="edge">
<title>Task_1r0bc\n0t&#45;&gt;Task_0t99p\nk6</title>
<path fill="none" stroke="black" d="M311.5,-1607.25C311.5,-1599.02 311.5,-1589.76 311.5,-1580.96"/>
<polygon fill="black" stroke="black" points="315,-1580.92 311.5,-1570.92 308,-1580.92 315,-1580.92"/>
</g>
<!-- Task_0at6c\n14&#45;&gt;ExclusiveG\nateway_11i\nxq87 -->
<g id="edge22" class="edge">
<title>Task_0at6c\n14&#45;&gt;ExclusiveG\nateway_11i\nxq87</title>
<path fill="none" stroke="black" d="M465.5,-1047.79C465.5,-1039.18 465.5,-1030 465.5,-1021.73"/>
<polygon fill="black" stroke="black" points="469,-1021.51 465.5,-1011.51 462,-1021.51 469,-1021.51"/>
</g>
<!-- Task_0ceab\nnc&#45;&gt;Task_0zc9b\njq -->
<g id="edge23" class="edge">
<title>Task_0ceab\nnc&#45;&gt;Task_0zc9b\njq</title>
<path fill="none" stroke="black" d="M519.5,-218.04C519.5,-209.58 519.5,-200.37 519.5,-191.49"/>
<polygon fill="black" stroke="black" points="523,-191.29 519.5,-181.29 516,-191.29 523,-191.29"/>
</g>
<!-- Task_00aru\na4 -->
<g id="node24" class="node">
<title>Task_00aru\na4</title>
<polygon fill="lightgrey" stroke="black" points="413,-588.99 413,-656.99 720,-656.99 720,-588.99 413,-588.99"/>
<text text-anchor="middle" x="454.5" y="-626.79" font-family="Times New Roman,serif" font-size="14.00">Task_00aru</text>
<text text-anchor="middle" x="454.5" y="-611.79" font-family="Times New Roman,serif" font-size="14.00">a4</text>
<polyline fill="none" stroke="black" points="496,-588.99 496,-656.99 "/>
<text text-anchor="middle" x="539.5" y="-641.79" font-family="Times New Roman,serif" font-size="14.00">Gepäck_Sic</text>
<text text-anchor="middle" x="539.5" y="-626.79" font-family="Times New Roman,serif" font-size="14.00">herheitsko</text>
<text text-anchor="middle" x="539.5" y="-611.79" font-family="Times New Roman,serif" font-size="14.00">ntrolle:La</text>
<text text-anchor="middle" x="539.5" y="-596.79" font-family="Times New Roman,serif" font-size="14.00">ne_0dxw77z</text>
<polyline fill="none" stroke="black" points="583,-588.99 583,-656.99 "/>
<text text-anchor="middle" x="651.5" y="-619.29" font-family="Times New Roman,serif" font-size="14.00">Gepäck_kontrollieren</text>
</g>
<!-- Task_04mc7\nzf&#45;&gt;Task_00aru\na4 -->
<g id="edge24" class="edge">
<title>Task_04mc7\nzf&#45;&gt;Task_00aru\na4</title>
<path fill="none" stroke="black" d="M566.5,-693.83C566.5,-685.37 566.5,-676.16 566.5,-667.28"/>
<polygon fill="black" stroke="black" points="570,-667.08 566.5,-657.08 563,-667.08 570,-667.08"/>
</g>
<!-- Task_00aru\na4&#45;&gt;ExclusiveG\nateway_1yd\nw5c6 -->
<g id="edge25" class="edge">
<title>Task_00aru\na4&#45;&gt;ExclusiveG\nateway_1yd\nw5c6</title>
<path fill="none" stroke="black" d="M566.5,-588.79C566.5,-580.18 566.5,-571 566.5,-562.73"/>
<polygon fill="black" stroke="black" points="570,-562.51 566.5,-552.51 563,-562.51 570,-562.51"/>
</g>
<!-- Task_1l67i\n8p&#45;&gt;ExclusiveG\nateway_087\n4w9z -->
<g id="edge26" class="edge">
<title>Task_1l67i\n8p&#45;&gt;ExclusiveG\nateway_087\n4w9z</title>
<path fill="none" stroke="black" d="M562.8,-870.79C563.4,-862.18 564.04,-853 564.61,-844.73"/>
<polygon fill="black" stroke="black" points="568.12,-844.73 565.32,-834.51 561.14,-844.24 568.12,-844.73"/>
</g>
<!-- ExclusiveG\nateway_04z\n3jfd&#45;&gt;Task_0gx9b\njy -->
<g id="edge28" class="edge">
<title>ExclusiveG\nateway_04z\n3jfd&#45;&gt;Task_0gx9b\njy</title>
<path fill="none" stroke="black" d="M285.03,-1448.6C266.12,-1438.9 239.92,-1425.46 216.19,-1413.29"/>
<polygon fill="black" stroke="black" points="217.74,-1410.15 207.24,-1408.69 214.54,-1416.37 217.74,-1410.15"/>
</g>
<!-- ExclusiveG\nateway_04z\n3jfd&#45;&gt;Task_1l6jq\ndi -->
<g id="edge27" class="edge">
<title>ExclusiveG\nateway_04z\n3jfd&#45;&gt;Task_1l6jq\ndi</title>
<path fill="none" stroke="black" d="M337.97,-1448.6C356.88,-1438.9 383.08,-1425.46 406.81,-1413.29"/>
<polygon fill="black" stroke="black" points="408.46,-1416.37 415.76,-1408.69 405.26,-1410.15 408.46,-1416.37"/>
</g>
<!-- ExclusiveG\nateway_0hg\nr87e&#45;&gt;ExclusiveG\nateway_1xg\n0r3u -->
<g id="edge29" class="edge">
<title>ExclusiveG\nateway_0hg\nr87e&#45;&gt;ExclusiveG\nateway_1xg\n0r3u</title>
<path fill="none" stroke="black" d="M681.87,-422.79C648.8,-406.27 593.3,-378.55 556.54,-360.19"/>
<polygon fill="black" stroke="black" points="557.67,-356.85 547.16,-355.51 554.54,-363.11 557.67,-356.85"/>
</g>
</g>
</svg>
