<svg width="600px" height="638px"
 viewBox="0.00 0.00 835.50 889.18" xmlns="http://www.w3.org/2000/svg" xmlns:xlink="http://www.w3.org/1999/xlink">
<g id="graph0" class="graph" transform="scale(1.0 1.0) rotate(0) translate(4 885.18)">
<title>12_Abfertigung_Ankunftsgepäck</title>
<polygon fill="white" stroke="transparent" points="-4,4 -4,-885.18 831.5,-885.18 831.5,4 -4,4"/>
<!-- ExclusiveG\nateway_0hg\n4rss -->
<g id="node1" class="node">
<title>ExclusiveG\nateway_0hg\n4rss</title>
<polygon fill="lightgrey" stroke="black" points="377.5,-618.29 207.41,-600.29 377.5,-582.29 547.59,-600.29 377.5,-618.29"/>
<text text-anchor="middle" x="377.5" y="-596.59" font-family="Times New Roman,serif" font-size="14.00">Inclusives_Gateway_/_SPLIT</text>
</g>
<!-- Task_0725v\nho -->
<g id="node8" class="node">
<title>Task_0725v\nho</title>
<polygon fill="lightgrey" stroke="black" points="0.5,-467.89 0.5,-520.89 280.5,-520.89 280.5,-467.89 0.5,-467.89"/>
<text text-anchor="middle" x="43.5" y="-498.19" font-family="Times New Roman,serif" font-size="14.00">Task_0725v</text>
<text text-anchor="middle" x="43.5" y="-483.19" font-family="Times New Roman,serif" font-size="14.00">ho</text>
<polyline fill="none" stroke="black" points="86.5,-467.89 86.5,-520.89 "/>
<text text-anchor="middle" x="125.5" y="-505.69" font-family="Times New Roman,serif" font-size="14.00">Flugzeug:L</text>
<text text-anchor="middle" x="125.5" y="-490.69" font-family="Times New Roman,serif" font-size="14.00">ane_0ivbj2</text>
<text text-anchor="middle" x="125.5" y="-475.69" font-family="Times New Roman,serif" font-size="14.00">h</text>
<polyline fill="none" stroke="black" points="164.5,-467.89 164.5,-520.89 "/>
<text text-anchor="middle" x="222.5" y="-490.69" font-family="Times New Roman,serif" font-size="14.00">Gepäck_bewegen</text>
</g>
<!-- ExclusiveG\nateway_0hg\n4rss&#45;&gt;Task_0725v\nho -->
<g id="edge2" class="edge">
<title>ExclusiveG\nateway_0hg\n4rss&#45;&gt;Task_0725v\nho</title>
<path fill="none" stroke="black" d="M346.03,-585.49C311.04,-570.15 253.5,-544.93 208.18,-525.06"/>
<polygon fill="black" stroke="black" points="209.57,-521.85 199,-521.04 206.76,-528.26 209.57,-521.85"/>
</g>
<!-- Task_1i210\nlu -->
<g id="node10" class="node">
<title>Task_1i210\nlu</title>
<polygon fill="lightgrey" stroke="black" points="299.5,-467.89 299.5,-520.89 575.5,-520.89 575.5,-467.89 299.5,-467.89"/>
<text text-anchor="middle" x="340.5" y="-498.19" font-family="Times New Roman,serif" font-size="14.00">Task_1i210</text>
<text text-anchor="middle" x="340.5" y="-483.19" font-family="Times New Roman,serif" font-size="14.00">lu</text>
<polyline fill="none" stroke="black" points="381.5,-467.89 381.5,-520.89 "/>
<text text-anchor="middle" x="420.5" y="-505.69" font-family="Times New Roman,serif" font-size="14.00">Flugzeug:L</text>
<text text-anchor="middle" x="420.5" y="-490.69" font-family="Times New Roman,serif" font-size="14.00">ane_0ivbj2</text>
<text text-anchor="middle" x="420.5" y="-475.69" font-family="Times New Roman,serif" font-size="14.00">h</text>
<polyline fill="none" stroke="black" points="459.5,-467.89 459.5,-520.89 "/>
<text text-anchor="middle" x="517.5" y="-490.69" font-family="Times New Roman,serif" font-size="14.00">Gepäck_bewegen</text>
</g>
<!-- ExclusiveG\nateway_0hg\n4rss&#45;&gt;Task_1i210\nlu -->
<g id="edge1" class="edge">
<title>ExclusiveG\nateway_0hg\n4rss&#45;&gt;Task_1i210\nlu</title>
<path fill="none" stroke="black" d="M386.88,-583.05C395.01,-568.96 407.08,-548.07 417.39,-530.21"/>
<polygon fill="black" stroke="black" points="420.62,-531.62 422.59,-521.21 414.56,-528.12 420.62,-531.62"/>
</g>
<!-- ExclusiveG\nateway_1hu\n5b2b -->
<g id="node2" class="node">
<title>ExclusiveG\nateway_1hu\n5b2b</title>
<polygon fill="lightgrey" stroke="black" points="536.5,-699.29 391.05,-681.29 536.5,-663.29 681.95,-681.29 536.5,-699.29"/>
<text text-anchor="middle" x="536.5" y="-677.59" font-family="Times New Roman,serif" font-size="14.00">Transitgepäck?_/_SPLIT</text>
</g>
<!-- ExclusiveG\nateway_1hu\n5b2b&#45;&gt;ExclusiveG\nateway_0hg\n4rss -->
<g id="edge4" class="edge">
<title>ExclusiveG\nateway_1hu\n5b2b&#45;&gt;ExclusiveG\nateway_0hg\n4rss</title>
<path fill="none" stroke="black" d="M508.8,-666.53C482.9,-653.66 444.01,-634.33 415.27,-620.05"/>
<polygon fill="black" stroke="black" points="416.46,-616.74 405.95,-615.42 413.35,-623.01 416.46,-616.74"/>
</g>
<!-- Task_1sfel\nvj -->
<g id="node3" class="node">
<title>Task_1sfel\nvj</title>
<polygon fill="lightgrey" stroke="black" points="565.5,-573.79 565.5,-626.79 827.5,-626.79 827.5,-573.79 565.5,-573.79"/>
<text text-anchor="middle" x="604.5" y="-604.09" font-family="Times New Roman,serif" font-size="14.00">Task_1sfel</text>
<text text-anchor="middle" x="604.5" y="-589.09" font-family="Times New Roman,serif" font-size="14.00">vj</text>
<polyline fill="none" stroke="black" points="643.5,-573.79 643.5,-626.79 "/>
<text text-anchor="middle" x="682.5" y="-611.59" font-family="Times New Roman,serif" font-size="14.00">Flugzeug:L</text>
<text text-anchor="middle" x="682.5" y="-596.59" font-family="Times New Roman,serif" font-size="14.00">ane_0ivbj2</text>
<text text-anchor="middle" x="682.5" y="-581.59" font-family="Times New Roman,serif" font-size="14.00">h</text>
<polyline fill="none" stroke="black" points="721.5,-573.79 721.5,-626.79 "/>
<text text-anchor="middle" x="774.5" y="-596.59" font-family="Times New Roman,serif" font-size="14.00">Sonstige_Tasks</text>
</g>
<!-- ExclusiveG\nateway_1hu\n5b2b&#45;&gt;Task_1sfel\nvj -->
<g id="edge3" class="edge">
<title>ExclusiveG\nateway_1hu\n5b2b&#45;&gt;Task_1sfel\nvj</title>
<path fill="none" stroke="black" d="M564.37,-666.53C583.98,-656.84 610.99,-643.51 635.48,-631.41"/>
<polygon fill="black" stroke="black" points="637.31,-634.42 644.73,-626.85 634.21,-628.14 637.31,-634.42"/>
</g>
<!-- EndEvent_0\nnxtkp5 -->
<g id="node13" class="node">
<title>EndEvent_0\nnxtkp5</title>
<ellipse fill="lightgrey" stroke="black" cx="696.5" cy="-494.39" rx="42.79" ry="42.79"/>
<text text-anchor="middle" x="696.5" y="-490.69" font-family="Times New Roman,serif" font-size="14.00">Abbruch</text>
</g>
<!-- Task_1sfel\nvj&#45;&gt;EndEvent_0\nnxtkp5 -->
<g id="edge5" class="edge">
<title>Task_1sfel\nvj&#45;&gt;EndEvent_0\nnxtkp5</title>
<path fill="none" stroke="black" d="M696.5,-573.6C696.5,-565.66 696.5,-556.6 696.5,-547.53"/>
<polygon fill="black" stroke="black" points="700,-547.35 696.5,-537.35 693,-547.35 700,-547.35"/>
</g>
<!-- Task_01w0a\n5e -->
<g id="node4" class="node">
<title>Task_01w0a\n5e</title>
<polygon fill="lightgrey" stroke="black" points="297.5,-361.99 297.5,-414.99 579.5,-414.99 579.5,-361.99 297.5,-361.99"/>
<text text-anchor="middle" x="341.5" y="-392.29" font-family="Times New Roman,serif" font-size="14.00">Task_01w0a</text>
<text text-anchor="middle" x="341.5" y="-377.29" font-family="Times New Roman,serif" font-size="14.00">5e</text>
<polyline fill="none" stroke="black" points="385.5,-361.99 385.5,-414.99 "/>
<text text-anchor="middle" x="424.5" y="-399.79" font-family="Times New Roman,serif" font-size="14.00">Flugzeug:L</text>
<text text-anchor="middle" x="424.5" y="-384.79" font-family="Times New Roman,serif" font-size="14.00">ane_0ivbj2</text>
<text text-anchor="middle" x="424.5" y="-369.79" font-family="Times New Roman,serif" font-size="14.00">h</text>
<polyline fill="none" stroke="black" points="463.5,-361.99 463.5,-414.99 "/>
<text text-anchor="middle" x="521.5" y="-384.79" font-family="Times New Roman,serif" font-size="14.00">Gepäck_bewegen</text>
</g>
<!-- ExclusiveG\nateway_1lw\n95o2 -->
<g id="node6" class="node">
<title>ExclusiveG\nateway_1lw\n95o2</title>
<polygon fill="lightgrey" stroke="black" points="288.5,-325.49 125.62,-307.49 288.5,-289.49 451.38,-307.49 288.5,-325.49"/>
<text text-anchor="middle" x="288.5" y="-303.79" font-family="Times New Roman,serif" font-size="14.00">Inclusives_Gateway_/_JOIN</text>
</g>
<!-- Task_01w0a\n5e&#45;&gt;ExclusiveG\nateway_1lw\n95o2 -->
<g id="edge6" class="edge">
<title>Task_01w0a\n5e&#45;&gt;ExclusiveG\nateway_1lw\n95o2</title>
<path fill="none" stroke="black" d="M389.8,-361.85C368.53,-350.64 344.03,-337.74 324.45,-327.43"/>
<polygon fill="black" stroke="black" points="326.03,-324.31 315.56,-322.74 322.77,-330.5 326.03,-324.31"/>
</g>
<!-- Task_1eo6u\nx7 -->
<g id="node5" class="node">
<title>Task_1eo6u\nx7</title>
<polygon fill="lightgrey" stroke="black" points="145.5,-94.99 145.5,-162.99 431.5,-162.99 431.5,-94.99 145.5,-94.99"/>
<text text-anchor="middle" x="188.5" y="-132.79" font-family="Times New Roman,serif" font-size="14.00">Task_1eo6u</text>
<text text-anchor="middle" x="188.5" y="-117.79" font-family="Times New Roman,serif" font-size="14.00">x7</text>
<polyline fill="none" stroke="black" points="231.5,-94.99 231.5,-162.99 "/>
<text text-anchor="middle" x="273.5" y="-147.79" font-family="Times New Roman,serif" font-size="14.00">Gepäckabfe</text>
<text text-anchor="middle" x="273.5" y="-132.79" font-family="Times New Roman,serif" font-size="14.00">rtigungsha</text>
<text text-anchor="middle" x="273.5" y="-117.79" font-family="Times New Roman,serif" font-size="14.00">lle:Lane_0</text>
<text text-anchor="middle" x="273.5" y="-102.79" font-family="Times New Roman,serif" font-size="14.00">pcbte7</text>
<polyline fill="none" stroke="black" points="315.5,-94.99 315.5,-162.99 "/>
<text text-anchor="middle" x="373.5" y="-125.29" font-family="Times New Roman,serif" font-size="14.00">Gepäck_bewegen</text>
</g>
<!-- EndEvent_0\nxtdnk4 -->
<g id="node12" class="node">
<title>EndEvent_0\nxtdnk4</title>
<ellipse fill="lightgrey" stroke="black" cx="288.5" cy="-29.25" rx="29.5" ry="29.5"/>
<text text-anchor="middle" x="288.5" y="-25.55" font-family="Times New Roman,serif" font-size="14.00">Ende</text>
</g>
<!-- Task_1eo6u\nx7&#45;&gt;EndEvent_0\nxtdnk4 -->
<g id="edge7" class="edge">
<title>Task_1eo6u\nx7&#45;&gt;EndEvent_0\nxtdnk4</title>
<path fill="none" stroke="black" d="M288.5,-94.9C288.5,-86.55 288.5,-77.52 288.5,-68.92"/>
<polygon fill="black" stroke="black" points="292,-68.73 288.5,-58.73 285,-68.73 292,-68.73"/>
</g>
<!-- Task_14duu\nc8 -->
<g id="node7" class="node">
<title>Task_14duu\nc8</title>
<polygon fill="lightgrey" stroke="black" points="148.5,-199.99 148.5,-252.99 428.5,-252.99 428.5,-199.99 148.5,-199.99"/>
<text text-anchor="middle" x="191.5" y="-230.29" font-family="Times New Roman,serif" font-size="14.00">Task_14duu</text>
<text text-anchor="middle" x="191.5" y="-215.29" font-family="Times New Roman,serif" font-size="14.00">c8</text>
<polyline fill="none" stroke="black" points="234.5,-199.99 234.5,-252.99 "/>
<text text-anchor="middle" x="273.5" y="-237.79" font-family="Times New Roman,serif" font-size="14.00">Flugzeug:L</text>
<text text-anchor="middle" x="273.5" y="-222.79" font-family="Times New Roman,serif" font-size="14.00">ane_0ivbj2</text>
<text text-anchor="middle" x="273.5" y="-207.79" font-family="Times New Roman,serif" font-size="14.00">h</text>
<polyline fill="none" stroke="black" points="312.5,-199.99 312.5,-252.99 "/>
<text text-anchor="middle" x="370.5" y="-222.79" font-family="Times New Roman,serif" font-size="14.00">Gepäck_bewegen</text>
</g>
<!-- ExclusiveG\nateway_1lw\n95o2&#45;&gt;Task_14duu\nc8 -->
<g id="edge8" class="edge">
<title>ExclusiveG\nateway_1lw\n95o2&#45;&gt;Task_14duu\nc8</title>
<path fill="none" stroke="black" d="M288.5,-289.35C288.5,-281.64 288.5,-272.23 288.5,-263.09"/>
<polygon fill="black" stroke="black" points="292,-263.01 288.5,-253.01 285,-263.01 292,-263.01"/>
</g>
<!-- Task_14duu\nc8&#45;&gt;Task_1eo6u\nx7 -->
<g id="edge9" class="edge">
<title>Task_14duu\nc8&#45;&gt;Task_1eo6u\nx7</title>
<path fill="none" stroke="black" d="M288.5,-199.9C288.5,-191.71 288.5,-182.41 288.5,-173.32"/>
<polygon fill="black" stroke="black" points="292,-173.22 288.5,-163.22 285,-173.22 292,-173.22"/>
</g>
<!-- Task_0acy2\nki -->
<g id="node9" class="node">
<title>Task_0acy2\nki</title>
<polygon fill="lightgrey" stroke="black" points="0,-361.99 0,-414.99 279,-414.99 279,-361.99 0,-361.99"/>
<text text-anchor="middle" x="42.5" y="-392.29" font-family="Times New Roman,serif" font-size="14.00">Task_0acy2</text>
<text text-anchor="middle" x="42.5" y="-377.29" font-family="Times New Roman,serif" font-size="14.00">ki</text>
<polyline fill="none" stroke="black" points="85,-361.99 85,-414.99 "/>
<text text-anchor="middle" x="124" y="-399.79" font-family="Times New Roman,serif" font-size="14.00">Flugzeug:L</text>
<text text-anchor="middle" x="124" y="-384.79" font-family="Times New Roman,serif" font-size="14.00">ane_0ivbj2</text>
<text text-anchor="middle" x="124" y="-369.79" font-family="Times New Roman,serif" font-size="14.00">h</text>
<polyline fill="none" stroke="black" points="163,-361.99 163,-414.99 "/>
<text text-anchor="middle" x="221" y="-384.79" font-family="Times New Roman,serif" font-size="14.00">Gepäck_bewegen</text>
</g>
<!-- Task_0725v\nho&#45;&gt;Task_0acy2\nki -->
<g id="edge10" class="edge">
<title>Task_0725v\nho&#45;&gt;Task_0acy2\nki</title>
<path fill="none" stroke="black" d="M140.25,-467.71C140.13,-454.97 139.98,-439.37 139.85,-425.47"/>
<polygon fill="black" stroke="black" points="143.34,-425.21 139.75,-415.24 136.34,-425.27 143.34,-425.21"/>
</g>
<!-- Task_0acy2\nki&#45;&gt;ExclusiveG\nateway_1lw\n95o2 -->
<g id="edge11" class="edge">
<title>Task_0acy2\nki&#45;&gt;ExclusiveG\nateway_1lw\n95o2</title>
<path fill="none" stroke="black" d="M187.88,-361.85C209,-350.64 233.34,-337.74 252.79,-327.43"/>
<polygon fill="black" stroke="black" points="254.43,-330.52 261.63,-322.74 251.15,-324.34 254.43,-330.52"/>
</g>
<!-- Task_1i210\nlu&#45;&gt;Task_01w0a\n5e -->
<g id="edge12" class="edge">
<title>Task_1i210\nlu&#45;&gt;Task_01w0a\n5e</title>
<path fill="none" stroke="black" d="M437.75,-467.71C437.87,-454.97 438.02,-439.37 438.15,-425.47"/>
<polygon fill="black" stroke="black" points="441.66,-425.27 438.25,-415.24 434.66,-425.21 441.66,-425.27"/>
</g>
<!-- Task_0j5ov\np3 -->
<g id="node11" class="node">
<title>Task_0j5ov\np3</title>
<polygon fill="lightgrey" stroke="black" points="386.5,-735.79 386.5,-788.79 686.5,-788.79 686.5,-735.79 386.5,-735.79"/>
<text text-anchor="middle" x="428" y="-766.09" font-family="Times New Roman,serif" font-size="14.00">Task_0j5ov</text>
<text text-anchor="middle" x="428" y="-751.09" font-family="Times New Roman,serif" font-size="14.00">p3</text>
<polyline fill="none" stroke="black" points="469.5,-735.79 469.5,-788.79 "/>
<text text-anchor="middle" x="508.5" y="-773.59" font-family="Times New Roman,serif" font-size="14.00">Flugzeug:L</text>
<text text-anchor="middle" x="508.5" y="-758.59" font-family="Times New Roman,serif" font-size="14.00">ane_0ivbj2</text>
<text text-anchor="middle" x="508.5" y="-743.59" font-family="Times New Roman,serif" font-size="14.00">h</text>
<polyline fill="none" stroke="black" points="547.5,-735.79 547.5,-788.79 "/>
<text text-anchor="middle" x="617" y="-758.59" font-family="Times New Roman,serif" font-size="14.00">Gegenstand_bewegen</text>
</g>
<!-- Task_0j5ov\np3&#45;&gt;ExclusiveG\nateway_1hu\n5b2b -->
<g id="edge13" class="edge">
<title>Task_0j5ov\np3&#45;&gt;ExclusiveG\nateway_1hu\n5b2b</title>
<path fill="none" stroke="black" d="M536.5,-735.42C536.5,-727.19 536.5,-718.07 536.5,-709.73"/>
<polygon fill="black" stroke="black" points="540,-709.73 536.5,-699.73 533,-709.73 540,-709.73"/>
</g>
<!-- StartEvent\n_12 -->
<g id="node14" class="node">
<title>StartEvent\n_12</title>
<ellipse fill="lightgrey" stroke="black" cx="536.5" cy="-853.23" rx="27.9" ry="27.9"/>
<text text-anchor="middle" x="536.5" y="-849.53" font-family="Times New Roman,serif" font-size="14.00">Start</text>
</g>
<!-- StartEvent\n_12&#45;&gt;Task_0j5ov\np3 -->
<g id="edge14" class="edge">
<title>StartEvent\n_12&#45;&gt;Task_0j5ov\np3</title>
<path fill="none" stroke="black" d="M536.5,-825.06C536.5,-816.93 536.5,-807.88 536.5,-799.27"/>
<polygon fill="black" stroke="black" points="540,-799.07 536.5,-789.07 533,-799.07 540,-799.07"/>
</g>
</g>
</svg>
