<svg width="600px" height="553px"
 viewBox="0.00 0.00 1329.00 1226.39" xmlns="http://www.w3.org/2000/svg" xmlns:xlink="http://www.w3.org/1999/xlink">
<g id="graph0" class="graph" transform="scale(1.0 1.0) rotate(0) translate(4 1222.39)">
<title>13_Gepäck_zu_Eingabestellen_für_Transfergepäck_bringen</title>
<polygon fill="white" stroke="transparent" points="-4,4 -4,-1222.39 1325,-1222.39 1325,4 -4,4"/>
<!-- Task_1ckbp\nud -->
<g id="node1" class="node">
<title>Task_1ckbp\nud</title>
<polygon fill="lightgrey" stroke="black" points="152,-858.49 152,-926.49 437,-926.49 437,-858.49 152,-858.49"/>
<text text-anchor="middle" x="195.5" y="-896.29" font-family="Times New Roman,serif" font-size="14.00">Task_1ckbp</text>
<text text-anchor="middle" x="195.5" y="-881.29" font-family="Times New Roman,serif" font-size="14.00">ud</text>
<polyline fill="none" stroke="black" points="239,-858.49 239,-926.49 "/>
<text text-anchor="middle" x="280" y="-911.29" font-family="Times New Roman,serif" font-size="14.00">Eingabeste</text>
<text text-anchor="middle" x="280" y="-896.29" font-family="Times New Roman,serif" font-size="14.00">llen_Einze</text>
<text text-anchor="middle" x="280" y="-881.29" font-family="Times New Roman,serif" font-size="14.00">lgepäck:La</text>
<text text-anchor="middle" x="280" y="-866.29" font-family="Times New Roman,serif" font-size="14.00">ne_0r72c8u</text>
<polyline fill="none" stroke="black" points="321,-858.49 321,-926.49 "/>
<text text-anchor="middle" x="379" y="-888.79" font-family="Times New Roman,serif" font-size="14.00">Gepäck_bewegen</text>
</g>
<!-- ExclusiveG\nateway_1o8\nzrql -->
<g id="node16" class="node">
<title>ExclusiveG\nateway_1o8\nzrql</title>
<polygon fill="lightgrey" stroke="black" points="294.5,-797.99 77.66,-779.99 294.5,-761.99 511.34,-779.99 294.5,-797.99"/>
<text text-anchor="middle" x="294.5" y="-776.29" font-family="Times New Roman,serif" font-size="14.00">Sonder&#45;_oder_Sperrgepäck?_/_SPLIT</text>
</g>
<!-- Task_1ckbp\nud&#45;&gt;ExclusiveG\nateway_1o8\nzrql -->
<g id="edge1" class="edge">
<title>Task_1ckbp\nud&#45;&gt;ExclusiveG\nateway_1o8\nzrql</title>
<path fill="none" stroke="black" d="M294.5,-858.34C294.5,-842.38 294.5,-823.48 294.5,-808.35"/>
<polygon fill="black" stroke="black" points="298,-808.1 294.5,-798.1 291,-808.1 298,-808.1"/>
</g>
<!-- ExclusiveG\nateway_0y7\ny3jp -->
<g id="node2" class="node">
<title>ExclusiveG\nateway_0y7\ny3jp</title>
<polygon fill="lightgrey" stroke="black" points="737.5,-1030.49 567.41,-1012.49 737.5,-994.49 907.59,-1012.49 737.5,-1030.49"/>
<text text-anchor="middle" x="737.5" y="-1008.79" font-family="Times New Roman,serif" font-size="14.00">Inclusives_Gateway_/_SPLIT</text>
</g>
<!-- ExclusiveG\nateway_0y7\ny3jp&#45;&gt;Task_1ckbp\nud -->
<g id="edge3" class="edge">
<title>ExclusiveG\nateway_0y7\ny3jp&#45;&gt;Task_1ckbp\nud</title>
<path fill="none" stroke="black" d="M691.37,-999.36C633.97,-984.25 532.96,-957.59 446.5,-934.49 440.02,-932.76 433.39,-930.99 426.7,-929.19"/>
<polygon fill="black" stroke="black" points="427.42,-925.76 416.85,-926.55 425.61,-932.52 427.42,-925.76"/>
</g>
<!-- ExclusiveG\nateway_1wh\njhh1 -->
<g id="node5" class="node">
<title>ExclusiveG\nateway_1wh\njhh1</title>
<polygon fill="lightgrey" stroke="black" points="737.5,-910.49 455.14,-892.49 737.5,-874.49 1019.86,-892.49 737.5,-910.49"/>
<text text-anchor="middle" x="737.5" y="-888.79" font-family="Times New Roman,serif" font-size="14.00">Sonder&#45;_oder_Last&#45;Minute&#45;Sperrgepäck?_/_SPLIT</text>
</g>
<!-- ExclusiveG\nateway_0y7\ny3jp&#45;&gt;ExclusiveG\nateway_1wh\njhh1 -->
<g id="edge2" class="edge">
<title>ExclusiveG\nateway_0y7\ny3jp&#45;&gt;ExclusiveG\nateway_1wh\njhh1</title>
<path fill="none" stroke="black" d="M737.5,-994.34C737.5,-975.02 737.5,-943.39 737.5,-920.7"/>
<polygon fill="black" stroke="black" points="741,-920.67 737.5,-910.67 734,-920.67 741,-920.67"/>
</g>
<!-- ExclusiveG\nateway_0ft\n5nk1 -->
<g id="node3" class="node">
<title>ExclusiveG\nateway_0ft\n5nk1</title>
<polygon fill="lightgrey" stroke="black" points="971.5,-130.49 808.62,-112.49 971.5,-94.49 1134.38,-112.49 971.5,-130.49"/>
<text text-anchor="middle" x="971.5" y="-108.79" font-family="Times New Roman,serif" font-size="14.00">Inclusives_Gateway_/_JOIN</text>
</g>
<!-- EndEvent_1\nuzmltn -->
<g id="node8" class="node">
<title>EndEvent_1\nuzmltn</title>
<ellipse fill="lightgrey" stroke="black" cx="971.5" cy="-29.25" rx="29.5" ry="29.5"/>
<text text-anchor="middle" x="971.5" y="-25.55" font-family="Times New Roman,serif" font-size="14.00">Ende</text>
</g>
<!-- ExclusiveG\nateway_0ft\n5nk1&#45;&gt;EndEvent_1\nuzmltn -->
<g id="edge4" class="edge">
<title>ExclusiveG\nateway_0ft\n5nk1&#45;&gt;EndEvent_1\nuzmltn</title>
<path fill="none" stroke="black" d="M971.5,-94.26C971.5,-86.83 971.5,-77.81 971.5,-68.92"/>
<polygon fill="black" stroke="black" points="975,-68.64 971.5,-58.64 968,-68.64 975,-68.64"/>
</g>
<!-- ExclusiveG\nateway_0ld\n1eb8 -->
<g id="node4" class="node">
<title>ExclusiveG\nateway_0ld\n1eb8</title>
<polygon fill="lightgrey" stroke="black" points="876.5,-202.49 713.62,-184.49 876.5,-166.49 1039.38,-184.49 876.5,-202.49"/>
<text text-anchor="middle" x="876.5" y="-180.79" font-family="Times New Roman,serif" font-size="14.00">Inclusives_Gateway_/_JOIN</text>
</g>
<!-- ExclusiveG\nateway_0ld\n1eb8&#45;&gt;ExclusiveG\nateway_0ft\n5nk1 -->
<g id="edge5" class="edge">
<title>ExclusiveG\nateway_0ld\n1eb8&#45;&gt;ExclusiveG\nateway_0ft\n5nk1</title>
<path fill="none" stroke="black" d="M896.65,-168.65C910.12,-158.72 928.06,-145.51 942.99,-134.5"/>
<polygon fill="black" stroke="black" points="945.41,-137.07 951.38,-128.32 941.26,-131.43 945.41,-137.07"/>
</g>
<!-- Task_0x7v8\niu -->
<g id="node13" class="node">
<title>Task_0x7v8\niu</title>
<polygon fill="lightgrey" stroke="black" points="570.5,-745.99 570.5,-813.99 854.5,-813.99 854.5,-745.99 570.5,-745.99"/>
<text text-anchor="middle" x="613.5" y="-783.79" font-family="Times New Roman,serif" font-size="14.00">Task_0x7v8</text>
<text text-anchor="middle" x="613.5" y="-768.79" font-family="Times New Roman,serif" font-size="14.00">iu</text>
<polyline fill="none" stroke="black" points="656.5,-745.99 656.5,-813.99 "/>
<text text-anchor="middle" x="697.5" y="-798.79" font-family="Times New Roman,serif" font-size="14.00">Eingabeste</text>
<text text-anchor="middle" x="697.5" y="-783.79" font-family="Times New Roman,serif" font-size="14.00">llen_Einze</text>
<text text-anchor="middle" x="697.5" y="-768.79" font-family="Times New Roman,serif" font-size="14.00">lgepäck:La</text>
<text text-anchor="middle" x="697.5" y="-753.79" font-family="Times New Roman,serif" font-size="14.00">ne_0r72c8u</text>
<polyline fill="none" stroke="black" points="738.5,-745.99 738.5,-813.99 "/>
<text text-anchor="middle" x="796.5" y="-776.29" font-family="Times New Roman,serif" font-size="14.00">Gepäck_bewegen</text>
</g>
<!-- ExclusiveG\nateway_1wh\njhh1&#45;&gt;Task_0x7v8\niu -->
<g id="edge7" class="edge">
<title>ExclusiveG\nateway_1wh\njhh1&#45;&gt;Task_0x7v8\niu</title>
<path fill="none" stroke="black" d="M733.7,-874.71C730.69,-861.39 726.33,-842.14 722.35,-824.55"/>
<polygon fill="black" stroke="black" points="725.69,-823.42 720.07,-814.44 718.86,-824.96 725.69,-823.42"/>
</g>
<!-- Task_0xrer\nsr -->
<g id="node19" class="node">
<title>Task_0xrer\nsr</title>
<polygon fill="lightgrey" stroke="black" points="872.5,-745.99 872.5,-813.99 1150.5,-813.99 1150.5,-745.99 872.5,-745.99"/>
<text text-anchor="middle" x="912.5" y="-783.79" font-family="Times New Roman,serif" font-size="14.00">Task_0xrer</text>
<text text-anchor="middle" x="912.5" y="-768.79" font-family="Times New Roman,serif" font-size="14.00">sr</text>
<polyline fill="none" stroke="black" points="952.5,-745.99 952.5,-813.99 "/>
<text text-anchor="middle" x="993.5" y="-798.79" font-family="Times New Roman,serif" font-size="14.00">Eingabeste</text>
<text text-anchor="middle" x="993.5" y="-783.79" font-family="Times New Roman,serif" font-size="14.00">llen_Einze</text>
<text text-anchor="middle" x="993.5" y="-768.79" font-family="Times New Roman,serif" font-size="14.00">lgepäck:La</text>
<text text-anchor="middle" x="993.5" y="-753.79" font-family="Times New Roman,serif" font-size="14.00">ne_0r72c8u</text>
<polyline fill="none" stroke="black" points="1034.5,-745.99 1034.5,-813.99 "/>
<text text-anchor="middle" x="1092.5" y="-776.29" font-family="Times New Roman,serif" font-size="14.00">Gepäck_bewegen</text>
</g>
<!-- ExclusiveG\nateway_1wh\njhh1&#45;&gt;Task_0xrer\nsr -->
<g id="edge6" class="edge">
<title>ExclusiveG\nateway_1wh\njhh1&#45;&gt;Task_0xrer\nsr</title>
<path fill="none" stroke="black" d="M774.17,-876.71C811.29,-861.73 870.18,-837.99 920.01,-817.89"/>
<polygon fill="black" stroke="black" points="921.55,-821.04 929.52,-814.06 918.94,-814.55 921.55,-821.04"/>
</g>
<!-- Task_0cy50\n05 -->
<g id="node6" class="node">
<title>Task_0cy50\n05</title>
<polygon fill="lightgrey" stroke="black" points="981.5,-970.99 981.5,-1053.99 1265.5,-1053.99 1265.5,-970.99 981.5,-970.99"/>
<text text-anchor="middle" x="1024.5" y="-1016.29" font-family="Times New Roman,serif" font-size="14.00">Task_0cy50</text>
<text text-anchor="middle" x="1024.5" y="-1001.29" font-family="Times New Roman,serif" font-size="14.00">05</text>
<polyline fill="none" stroke="black" points="1067.5,-970.99 1067.5,-1053.99 "/>
<text text-anchor="middle" x="1108.5" y="-1038.79" font-family="Times New Roman,serif" font-size="14.00">Eingabeste</text>
<text text-anchor="middle" x="1108.5" y="-1023.79" font-family="Times New Roman,serif" font-size="14.00">llen_Conta</text>
<text text-anchor="middle" x="1108.5" y="-1008.79" font-family="Times New Roman,serif" font-size="14.00">inergepäck</text>
<text text-anchor="middle" x="1108.5" y="-993.79" font-family="Times New Roman,serif" font-size="14.00">:Lane_03dc</text>
<text text-anchor="middle" x="1108.5" y="-978.79" font-family="Times New Roman,serif" font-size="14.00">oe7</text>
<polyline fill="none" stroke="black" points="1149.5,-970.99 1149.5,-1053.99 "/>
<text text-anchor="middle" x="1207.5" y="-1008.79" font-family="Times New Roman,serif" font-size="14.00">Gepäck_bewegen</text>
</g>
<!-- Task_0sxkc\nnb -->
<g id="node10" class="node">
<title>Task_0sxkc\nnb</title>
<polygon fill="lightgrey" stroke="black" points="1038,-850.99 1038,-933.99 1321,-933.99 1321,-850.99 1038,-850.99"/>
<text text-anchor="middle" x="1080.5" y="-896.29" font-family="Times New Roman,serif" font-size="14.00">Task_0sxkc</text>
<text text-anchor="middle" x="1080.5" y="-881.29" font-family="Times New Roman,serif" font-size="14.00">nb</text>
<polyline fill="none" stroke="black" points="1123,-850.99 1123,-933.99 "/>
<text text-anchor="middle" x="1164" y="-918.79" font-family="Times New Roman,serif" font-size="14.00">Eingabeste</text>
<text text-anchor="middle" x="1164" y="-903.79" font-family="Times New Roman,serif" font-size="14.00">llen_Conta</text>
<text text-anchor="middle" x="1164" y="-888.79" font-family="Times New Roman,serif" font-size="14.00">inergepäck</text>
<text text-anchor="middle" x="1164" y="-873.79" font-family="Times New Roman,serif" font-size="14.00">:Lane_03dc</text>
<text text-anchor="middle" x="1164" y="-858.79" font-family="Times New Roman,serif" font-size="14.00">oe7</text>
<polyline fill="none" stroke="black" points="1205,-850.99 1205,-933.99 "/>
<text text-anchor="middle" x="1263" y="-888.79" font-family="Times New Roman,serif" font-size="14.00">Gepäck_bewegen</text>
</g>
<!-- Task_0cy50\n05&#45;&gt;Task_0sxkc\nnb -->
<g id="edge8" class="edge">
<title>Task_0cy50\n05&#45;&gt;Task_0sxkc\nnb</title>
<path fill="none" stroke="black" d="M1142.77,-970.89C1147,-961.99 1151.51,-952.47 1155.89,-943.25"/>
<polygon fill="black" stroke="black" points="1159.07,-944.71 1160.19,-934.18 1152.74,-941.71 1159.07,-944.71"/>
</g>
<!-- Task_05jdc\nlg -->
<g id="node7" class="node">
<title>Task_05jdc\nlg</title>
<polygon fill="lightgrey" stroke="black" points="303.5,-325.99 303.5,-378.99 611.5,-378.99 611.5,-325.99 303.5,-325.99"/>
<text text-anchor="middle" x="345" y="-356.29" font-family="Times New Roman,serif" font-size="14.00">Task_05jdc</text>
<text text-anchor="middle" x="345" y="-341.29" font-family="Times New Roman,serif" font-size="14.00">lg</text>
<polyline fill="none" stroke="black" points="386.5,-325.99 386.5,-378.99 "/>
<text text-anchor="middle" x="429.5" y="-363.79" font-family="Times New Roman,serif" font-size="14.00">Gepäckausg</text>
<text text-anchor="middle" x="429.5" y="-348.79" font-family="Times New Roman,serif" font-size="14.00">abe:Lane_0</text>
<text text-anchor="middle" x="429.5" y="-333.79" font-family="Times New Roman,serif" font-size="14.00">7yqt38</text>
<polyline fill="none" stroke="black" points="472.5,-325.99 472.5,-378.99 "/>
<text text-anchor="middle" x="542" y="-348.79" font-family="Times New Roman,serif" font-size="14.00">Gegenstand_bewegen</text>
</g>
<!-- ExclusiveG\nateway_1x8\n0y2a -->
<g id="node15" class="node">
<title>ExclusiveG\nateway_1x8\n0y2a</title>
<polygon fill="lightgrey" stroke="black" points="457.5,-274.49 248.7,-256.49 457.5,-238.49 666.3,-256.49 457.5,-274.49"/>
<text text-anchor="middle" x="457.5" y="-252.79" font-family="Times New Roman,serif" font-size="14.00">Sonder&#45;_oder_Sperrgepäck?_/_JOIN</text>
</g>
<!-- Task_05jdc\nlg&#45;&gt;ExclusiveG\nateway_1x8\n0y2a -->
<g id="edge9" class="edge">
<title>Task_05jdc\nlg&#45;&gt;ExclusiveG\nateway_1x8\n0y2a</title>
<path fill="none" stroke="black" d="M457.5,-325.81C457.5,-313.07 457.5,-297.68 457.5,-284.73"/>
<polygon fill="black" stroke="black" points="461,-284.54 457.5,-274.54 454,-284.54 461,-284.54"/>
</g>
<!-- ExclusiveG\nateway_0rs\nb2ak -->
<g id="node9" class="node">
<title>ExclusiveG\nateway_0rs\nb2ak</title>
<polygon fill="lightgrey" stroke="black" points="902.5,-1126.49 732.41,-1108.49 902.5,-1090.49 1072.59,-1108.49 902.5,-1126.49"/>
<text text-anchor="middle" x="902.5" y="-1104.79" font-family="Times New Roman,serif" font-size="14.00">Inclusives_Gateway_/_SPLIT</text>
</g>
<!-- ExclusiveG\nateway_0rs\nb2ak&#45;&gt;ExclusiveG\nateway_0y7\ny3jp -->
<g id="edge11" class="edge">
<title>ExclusiveG\nateway_0rs\nb2ak&#45;&gt;ExclusiveG\nateway_0y7\ny3jp</title>
<path fill="none" stroke="black" d="M877.08,-1093.01C848.78,-1076.89 802.89,-1050.75 771.52,-1032.87"/>
<polygon fill="black" stroke="black" points="773.1,-1029.75 762.68,-1027.84 769.63,-1035.83 773.1,-1029.75"/>
</g>
<!-- ExclusiveG\nateway_0rs\nb2ak&#45;&gt;Task_0cy50\n05 -->
<g id="edge10" class="edge">
<title>ExclusiveG\nateway_0rs\nb2ak&#45;&gt;Task_0cy50\n05</title>
<path fill="none" stroke="black" d="M934.64,-1093.83C956.98,-1084.32 988.15,-1071.07 1018.72,-1058.06"/>
<polygon fill="black" stroke="black" points="1020.35,-1061.17 1028.18,-1054.04 1017.61,-1054.73 1020.35,-1061.17"/>
</g>
<!-- Task_1jplv\n4o -->
<g id="node11" class="node">
<title>Task_1jplv\n4o</title>
<polygon fill="lightgrey" stroke="black" points="1013,-310.99 1013,-393.99 1290,-393.99 1290,-310.99 1013,-310.99"/>
<text text-anchor="middle" x="1052.5" y="-356.29" font-family="Times New Roman,serif" font-size="14.00">Task_1jplv</text>
<text text-anchor="middle" x="1052.5" y="-341.29" font-family="Times New Roman,serif" font-size="14.00">4o</text>
<polyline fill="none" stroke="black" points="1092,-310.99 1092,-393.99 "/>
<text text-anchor="middle" x="1133" y="-378.79" font-family="Times New Roman,serif" font-size="14.00">Eingabeste</text>
<text text-anchor="middle" x="1133" y="-363.79" font-family="Times New Roman,serif" font-size="14.00">llen_Conta</text>
<text text-anchor="middle" x="1133" y="-348.79" font-family="Times New Roman,serif" font-size="14.00">inergepäck</text>
<text text-anchor="middle" x="1133" y="-333.79" font-family="Times New Roman,serif" font-size="14.00">:Lane_03dc</text>
<text text-anchor="middle" x="1133" y="-318.79" font-family="Times New Roman,serif" font-size="14.00">oe7</text>
<polyline fill="none" stroke="black" points="1174,-310.99 1174,-393.99 "/>
<text text-anchor="middle" x="1232" y="-348.79" font-family="Times New Roman,serif" font-size="14.00">Gepäck_bewegen</text>
</g>
<!-- Task_0sxkc\nnb&#45;&gt;Task_1jplv\n4o -->
<g id="edge12" class="edge">
<title>Task_0sxkc\nnb&#45;&gt;Task_1jplv\n4o</title>
<path fill="none" stroke="black" d="M1179.5,-850.98C1179.5,-807.67 1179.5,-736.98 1179.5,-675.99 1179.5,-675.99 1179.5,-675.99 1179.5,-568.99 1179.5,-512.24 1169.83,-447.77 1161.86,-404.25"/>
<polygon fill="black" stroke="black" points="1165.26,-403.39 1159.98,-394.2 1158.38,-404.68 1165.26,-403.39"/>
</g>
<!-- Task_1jplv\n4o&#45;&gt;ExclusiveG\nateway_0ft\n5nk1 -->
<g id="edge13" class="edge">
<title>Task_1jplv\n4o&#45;&gt;ExclusiveG\nateway_0ft\n5nk1</title>
<path fill="none" stroke="black" d="M1135.44,-310.94C1118.22,-271.01 1087.95,-209.87 1048.5,-166.49 1036.56,-153.37 1020.78,-141.79 1006.62,-132.83"/>
<polygon fill="black" stroke="black" points="1008.41,-129.82 998.05,-127.6 1004.76,-135.8 1008.41,-129.82"/>
</g>
<!-- Task_1tqex\np7 -->
<g id="node12" class="node">
<title>Task_1tqex\np7</title>
<polygon fill="lightgrey" stroke="black" points="870,-640.99 870,-708.99 1151,-708.99 1151,-640.99 870,-640.99"/>
<text text-anchor="middle" x="911.5" y="-678.79" font-family="Times New Roman,serif" font-size="14.00">Task_1tqex</text>
<text text-anchor="middle" x="911.5" y="-663.79" font-family="Times New Roman,serif" font-size="14.00">p7</text>
<polyline fill="none" stroke="black" points="953,-640.99 953,-708.99 "/>
<text text-anchor="middle" x="994" y="-693.79" font-family="Times New Roman,serif" font-size="14.00">Eingabeste</text>
<text text-anchor="middle" x="994" y="-678.79" font-family="Times New Roman,serif" font-size="14.00">llen_Einze</text>
<text text-anchor="middle" x="994" y="-663.79" font-family="Times New Roman,serif" font-size="14.00">lgepäck:La</text>
<text text-anchor="middle" x="994" y="-648.79" font-family="Times New Roman,serif" font-size="14.00">ne_0r72c8u</text>
<polyline fill="none" stroke="black" points="1035,-640.99 1035,-708.99 "/>
<text text-anchor="middle" x="1093" y="-671.29" font-family="Times New Roman,serif" font-size="14.00">Gepäck_bewegen</text>
</g>
<!-- Task_0tad1\nxn -->
<g id="node18" class="node">
<title>Task_0tad1\nxn</title>
<polygon fill="lightgrey" stroke="black" points="838,-535.99 838,-603.99 1119,-603.99 1119,-535.99 838,-535.99"/>
<text text-anchor="middle" x="879.5" y="-573.79" font-family="Times New Roman,serif" font-size="14.00">Task_0tad1</text>
<text text-anchor="middle" x="879.5" y="-558.79" font-family="Times New Roman,serif" font-size="14.00">xn</text>
<polyline fill="none" stroke="black" points="921,-535.99 921,-603.99 "/>
<text text-anchor="middle" x="962" y="-588.79" font-family="Times New Roman,serif" font-size="14.00">Eingabeste</text>
<text text-anchor="middle" x="962" y="-573.79" font-family="Times New Roman,serif" font-size="14.00">llen_Einze</text>
<text text-anchor="middle" x="962" y="-558.79" font-family="Times New Roman,serif" font-size="14.00">lgepäck:La</text>
<text text-anchor="middle" x="962" y="-543.79" font-family="Times New Roman,serif" font-size="14.00">ne_0r72c8u</text>
<polyline fill="none" stroke="black" points="1003,-535.99 1003,-603.99 "/>
<text text-anchor="middle" x="1061" y="-566.29" font-family="Times New Roman,serif" font-size="14.00">Gepäck_bewegen</text>
</g>
<!-- Task_1tqex\np7&#45;&gt;Task_0tad1\nxn -->
<g id="edge14" class="edge">
<title>Task_1tqex\np7&#45;&gt;Task_0tad1\nxn</title>
<path fill="none" stroke="black" d="M1000.2,-640.84C997.52,-632.2 994.59,-622.77 991.77,-613.71"/>
<polygon fill="black" stroke="black" points="995.09,-612.6 988.78,-604.09 988.41,-614.68 995.09,-612.6"/>
</g>
<!-- ExclusiveG\nateway_04u\n7wje -->
<g id="node21" class="node">
<title>ExclusiveG\nateway_04u\n7wje</title>
<polygon fill="lightgrey" stroke="black" points="876.5,-482.99 601.84,-464.99 876.5,-446.99 1151.16,-464.99 876.5,-482.99"/>
<text text-anchor="middle" x="876.5" y="-461.29" font-family="Times New Roman,serif" font-size="14.00">Sonder&#45;_oder_Last&#45;Minute&#45;Sperrgepäck?_/_JOIN</text>
</g>
<!-- Task_0x7v8\niu&#45;&gt;ExclusiveG\nateway_04u\n7wje -->
<g id="edge15" class="edge">
<title>Task_0x7v8\niu&#45;&gt;ExclusiveG\nateway_04u\n7wje</title>
<path fill="none" stroke="black" d="M726.54,-745.92C747.15,-698.34 787.69,-608.3 829.5,-535.49 838.28,-520.2 849.27,-503.83 858.41,-490.82"/>
<polygon fill="black" stroke="black" points="861.45,-492.58 864.4,-482.41 855.75,-488.53 861.45,-492.58"/>
</g>
<!-- StartEvent\n_13 -->
<g id="node14" class="node">
<title>StartEvent\n_13</title>
<ellipse fill="lightgrey" stroke="black" cx="902.5" cy="-1190.44" rx="27.9" ry="27.9"/>
<text text-anchor="middle" x="902.5" y="-1186.74" font-family="Times New Roman,serif" font-size="14.00">Start</text>
</g>
<!-- StartEvent\n_13&#45;&gt;ExclusiveG\nateway_0rs\nb2ak -->
<g id="edge16" class="edge">
<title>StartEvent\n_13&#45;&gt;ExclusiveG\nateway_0rs\nb2ak</title>
<path fill="none" stroke="black" d="M902.5,-1162.38C902.5,-1154.19 902.5,-1145.19 902.5,-1136.97"/>
<polygon fill="black" stroke="black" points="906,-1136.76 902.5,-1126.76 899,-1136.76 906,-1136.76"/>
</g>
<!-- ExclusiveG\nateway_1x8\n0y2a&#45;&gt;ExclusiveG\nateway_0ld\n1eb8 -->
<g id="edge17" class="edge">
<title>ExclusiveG\nateway_1x8\n0y2a&#45;&gt;ExclusiveG\nateway_0ld\n1eb8</title>
<path fill="none" stroke="black" d="M524.82,-244.25C601.53,-231.43 726.4,-210.57 804.86,-197.46"/>
<polygon fill="black" stroke="black" points="805.86,-200.85 815.14,-195.75 804.7,-193.94 805.86,-200.85"/>
</g>
<!-- Task_1al79\n7x -->
<g id="node17" class="node">
<title>Task_1al79\n7x</title>
<polygon fill="lightgrey" stroke="black" points="3,-640.99 3,-708.99 282,-708.99 282,-640.99 3,-640.99"/>
<text text-anchor="middle" x="43.5" y="-678.79" font-family="Times New Roman,serif" font-size="14.00">Task_1al79</text>
<text text-anchor="middle" x="43.5" y="-663.79" font-family="Times New Roman,serif" font-size="14.00">7x</text>
<polyline fill="none" stroke="black" points="84,-640.99 84,-708.99 "/>
<text text-anchor="middle" x="125" y="-693.79" font-family="Times New Roman,serif" font-size="14.00">Eingabeste</text>
<text text-anchor="middle" x="125" y="-678.79" font-family="Times New Roman,serif" font-size="14.00">llen_Einze</text>
<text text-anchor="middle" x="125" y="-663.79" font-family="Times New Roman,serif" font-size="14.00">lgepäck:La</text>
<text text-anchor="middle" x="125" y="-648.79" font-family="Times New Roman,serif" font-size="14.00">ne_0r72c8u</text>
<polyline fill="none" stroke="black" points="166,-640.99 166,-708.99 "/>
<text text-anchor="middle" x="224" y="-671.29" font-family="Times New Roman,serif" font-size="14.00">Gepäck_bewegen</text>
</g>
<!-- ExclusiveG\nateway_1o8\nzrql&#45;&gt;Task_1al79\n7x -->
<g id="edge19" class="edge">
<title>ExclusiveG\nateway_1o8\nzrql&#45;&gt;Task_1al79\n7x</title>
<path fill="none" stroke="black" d="M272.07,-763.8C253.08,-750.93 225,-731.9 199.84,-714.85"/>
<polygon fill="black" stroke="black" points="201.67,-711.86 191.43,-709.15 197.75,-717.66 201.67,-711.86"/>
</g>
<!-- Task_1k2uq\nsn -->
<g id="node25" class="node">
<title>Task_1k2uq\nsn</title>
<polygon fill="lightgrey" stroke="black" points="300.5,-640.99 300.5,-708.99 584.5,-708.99 584.5,-640.99 300.5,-640.99"/>
<text text-anchor="middle" x="343.5" y="-678.79" font-family="Times New Roman,serif" font-size="14.00">Task_1k2uq</text>
<text text-anchor="middle" x="343.5" y="-663.79" font-family="Times New Roman,serif" font-size="14.00">sn</text>
<polyline fill="none" stroke="black" points="386.5,-640.99 386.5,-708.99 "/>
<text text-anchor="middle" x="427.5" y="-693.79" font-family="Times New Roman,serif" font-size="14.00">Eingabeste</text>
<text text-anchor="middle" x="427.5" y="-678.79" font-family="Times New Roman,serif" font-size="14.00">llen_Einze</text>
<text text-anchor="middle" x="427.5" y="-663.79" font-family="Times New Roman,serif" font-size="14.00">lgepäck:La</text>
<text text-anchor="middle" x="427.5" y="-648.79" font-family="Times New Roman,serif" font-size="14.00">ne_0r72c8u</text>
<polyline fill="none" stroke="black" points="468.5,-640.99 468.5,-708.99 "/>
<text text-anchor="middle" x="526.5" y="-671.29" font-family="Times New Roman,serif" font-size="14.00">Gepäck_bewegen</text>
</g>
<!-- ExclusiveG\nateway_1o8\nzrql&#45;&gt;Task_1k2uq\nsn -->
<g id="edge18" class="edge">
<title>ExclusiveG\nateway_1o8\nzrql&#45;&gt;Task_1k2uq\nsn</title>
<path fill="none" stroke="black" d="M316.34,-763.8C334.75,-750.98 361.93,-732.07 386.35,-715.07"/>
<polygon fill="black" stroke="black" points="388.65,-717.74 394.86,-709.15 384.65,-711.99 388.65,-717.74"/>
</g>
<!-- Task_0nrs2\nne -->
<g id="node23" class="node">
<title>Task_0nrs2\nne</title>
<polygon fill="lightgrey" stroke="black" points="2,-535.99 2,-603.99 283,-603.99 283,-535.99 2,-535.99"/>
<text text-anchor="middle" x="43.5" y="-573.79" font-family="Times New Roman,serif" font-size="14.00">Task_0nrs2</text>
<text text-anchor="middle" x="43.5" y="-558.79" font-family="Times New Roman,serif" font-size="14.00">ne</text>
<polyline fill="none" stroke="black" points="85,-535.99 85,-603.99 "/>
<text text-anchor="middle" x="126" y="-588.79" font-family="Times New Roman,serif" font-size="14.00">Eingabeste</text>
<text text-anchor="middle" x="126" y="-573.79" font-family="Times New Roman,serif" font-size="14.00">llen_Einze</text>
<text text-anchor="middle" x="126" y="-558.79" font-family="Times New Roman,serif" font-size="14.00">lgepäck:La</text>
<text text-anchor="middle" x="126" y="-543.79" font-family="Times New Roman,serif" font-size="14.00">ne_0r72c8u</text>
<polyline fill="none" stroke="black" points="167,-535.99 167,-603.99 "/>
<text text-anchor="middle" x="225" y="-566.29" font-family="Times New Roman,serif" font-size="14.00">Gepäck_bewegen</text>
</g>
<!-- Task_1al79\n7x&#45;&gt;Task_0nrs2\nne -->
<g id="edge20" class="edge">
<title>Task_1al79\n7x&#45;&gt;Task_0nrs2\nne</title>
<path fill="none" stroke="black" d="M142.5,-640.84C142.5,-632.38 142.5,-623.17 142.5,-614.29"/>
<polygon fill="black" stroke="black" points="146,-614.09 142.5,-604.09 139,-614.09 146,-614.09"/>
</g>
<!-- Task_0tad1\nxn&#45;&gt;ExclusiveG\nateway_04u\n7wje -->
<g id="edge21" class="edge">
<title>Task_0tad1\nxn&#45;&gt;ExclusiveG\nateway_04u\n7wje</title>
<path fill="none" stroke="black" d="M945.67,-535.84C930.63,-520.65 913.17,-503.02 899.55,-489.27"/>
<polygon fill="black" stroke="black" points="901.95,-486.72 892.43,-482.08 896.97,-491.64 901.95,-486.72"/>
</g>
<!-- Task_0xrer\nsr&#45;&gt;Task_1tqex\np7 -->
<g id="edge22" class="edge">
<title>Task_0xrer\nsr&#45;&gt;Task_1tqex\np7</title>
<path fill="none" stroke="black" d="M1011.18,-745.84C1011.1,-737.38 1011.01,-728.17 1010.92,-719.29"/>
<polygon fill="black" stroke="black" points="1014.42,-719.06 1010.82,-709.09 1007.42,-719.12 1014.42,-719.06"/>
</g>
<!-- Task_17gsk\n26 -->
<g id="node20" class="node">
<title>Task_17gsk\n26</title>
<polygon fill="lightgrey" stroke="black" points="301,-430.99 301,-498.99 584,-498.99 584,-430.99 301,-430.99"/>
<text text-anchor="middle" x="343.5" y="-468.79" font-family="Times New Roman,serif" font-size="14.00">Task_17gsk</text>
<text text-anchor="middle" x="343.5" y="-453.79" font-family="Times New Roman,serif" font-size="14.00">26</text>
<polyline fill="none" stroke="black" points="386,-430.99 386,-498.99 "/>
<text text-anchor="middle" x="427" y="-483.79" font-family="Times New Roman,serif" font-size="14.00">Eingabeste</text>
<text text-anchor="middle" x="427" y="-468.79" font-family="Times New Roman,serif" font-size="14.00">llen_Einze</text>
<text text-anchor="middle" x="427" y="-453.79" font-family="Times New Roman,serif" font-size="14.00">lgepäck:La</text>
<text text-anchor="middle" x="427" y="-438.79" font-family="Times New Roman,serif" font-size="14.00">ne_0r72c8u</text>
<polyline fill="none" stroke="black" points="468,-430.99 468,-498.99 "/>
<text text-anchor="middle" x="526" y="-461.29" font-family="Times New Roman,serif" font-size="14.00">Gepäck_bewegen</text>
</g>
<!-- Task_17gsk\n26&#45;&gt;Task_05jdc\nlg -->
<g id="edge23" class="edge">
<title>Task_17gsk\n26&#45;&gt;Task_05jdc\nlg</title>
<path fill="none" stroke="black" d="M447,-430.84C448.77,-417.8 450.81,-402.79 452.61,-389.48"/>
<polygon fill="black" stroke="black" points="456.13,-389.63 454,-379.25 449.19,-388.69 456.13,-389.63"/>
</g>
<!-- ExclusiveG\nateway_04u\n7wje&#45;&gt;ExclusiveG\nateway_0ld\n1eb8 -->
<g id="edge24" class="edge">
<title>ExclusiveG\nateway_04u\n7wje&#45;&gt;ExclusiveG\nateway_0ld\n1eb8</title>
<path fill="none" stroke="black" d="M876.5,-446.99C876.5,-400.28 876.5,-269.7 876.5,-212.69"/>
<polygon fill="black" stroke="black" points="880,-212.63 876.5,-202.63 873,-212.63 880,-212.63"/>
</g>
<!-- Task_1x8ss\n29 -->
<g id="node22" class="node">
<title>Task_1x8ss\n29</title>
<polygon fill="lightgrey" stroke="black" points="301.5,-535.99 301.5,-603.99 583.5,-603.99 583.5,-535.99 301.5,-535.99"/>
<text text-anchor="middle" x="343.5" y="-573.79" font-family="Times New Roman,serif" font-size="14.00">Task_1x8ss</text>
<text text-anchor="middle" x="343.5" y="-558.79" font-family="Times New Roman,serif" font-size="14.00">29</text>
<polyline fill="none" stroke="black" points="385.5,-535.99 385.5,-603.99 "/>
<text text-anchor="middle" x="426.5" y="-588.79" font-family="Times New Roman,serif" font-size="14.00">Eingabeste</text>
<text text-anchor="middle" x="426.5" y="-573.79" font-family="Times New Roman,serif" font-size="14.00">llen_Einze</text>
<text text-anchor="middle" x="426.5" y="-558.79" font-family="Times New Roman,serif" font-size="14.00">lgepäck:La</text>
<text text-anchor="middle" x="426.5" y="-543.79" font-family="Times New Roman,serif" font-size="14.00">ne_0r72c8u</text>
<polyline fill="none" stroke="black" points="467.5,-535.99 467.5,-603.99 "/>
<text text-anchor="middle" x="525.5" y="-566.29" font-family="Times New Roman,serif" font-size="14.00">Gepäck_bewegen</text>
</g>
<!-- Task_1x8ss\n29&#45;&gt;Task_17gsk\n26 -->
<g id="edge25" class="edge">
<title>Task_1x8ss\n29&#45;&gt;Task_17gsk\n26</title>
<path fill="none" stroke="black" d="M442.5,-535.84C442.5,-527.38 442.5,-518.17 442.5,-509.29"/>
<polygon fill="black" stroke="black" points="446,-509.09 442.5,-499.09 439,-509.09 446,-509.09"/>
</g>
<!-- Task_1sf48\no8 -->
<g id="node24" class="node">
<title>Task_1sf48\no8</title>
<polygon fill="lightgrey" stroke="black" points="0,-325.99 0,-378.99 285,-378.99 285,-325.99 0,-325.99"/>
<text text-anchor="middle" x="41.5" y="-356.29" font-family="Times New Roman,serif" font-size="14.00">Task_1sf48</text>
<text text-anchor="middle" x="41.5" y="-341.29" font-family="Times New Roman,serif" font-size="14.00">o8</text>
<polyline fill="none" stroke="black" points="83,-325.99 83,-378.99 "/>
<text text-anchor="middle" x="126" y="-363.79" font-family="Times New Roman,serif" font-size="14.00">Gepäckausg</text>
<text text-anchor="middle" x="126" y="-348.79" font-family="Times New Roman,serif" font-size="14.00">abe:Lane_0</text>
<text text-anchor="middle" x="126" y="-333.79" font-family="Times New Roman,serif" font-size="14.00">7yqt38</text>
<polyline fill="none" stroke="black" points="169,-325.99 169,-378.99 "/>
<text text-anchor="middle" x="227" y="-348.79" font-family="Times New Roman,serif" font-size="14.00">Gepäck_bewegen</text>
</g>
<!-- Task_0nrs2\nne&#45;&gt;Task_1sf48\no8 -->
<g id="edge26" class="edge">
<title>Task_0nrs2\nne&#45;&gt;Task_1sf48\no8</title>
<path fill="none" stroke="black" d="M142.5,-535.8C142.5,-496.15 142.5,-430.1 142.5,-389.33"/>
<polygon fill="black" stroke="black" points="146,-389.29 142.5,-379.29 139,-389.29 146,-389.29"/>
</g>
<!-- Task_1sf48\no8&#45;&gt;ExclusiveG\nateway_1x8\n0y2a -->
<g id="edge27" class="edge">
<title>Task_1sf48\no8&#45;&gt;ExclusiveG\nateway_1x8\n0y2a</title>
<path fill="none" stroke="black" d="M228.16,-325.93C284.06,-309.25 355.34,-287.98 403.48,-273.62"/>
<polygon fill="black" stroke="black" points="404.5,-276.96 413.08,-270.75 402.5,-270.26 404.5,-276.96"/>
</g>
<!-- Task_1k2uq\nsn&#45;&gt;Task_1x8ss\n29 -->
<g id="edge28" class="edge">
<title>Task_1k2uq\nsn&#45;&gt;Task_1x8ss\n29</title>
<path fill="none" stroke="black" d="M442.5,-640.84C442.5,-632.38 442.5,-623.17 442.5,-614.29"/>
<polygon fill="black" stroke="black" points="446,-614.09 442.5,-604.09 439,-614.09 446,-614.09"/>
</g>
</g>
</svg>
