<svg width="600px" height="1414px"
 viewBox="0.00 0.00 420.72 992.39" xmlns="http://www.w3.org/2000/svg" xmlns:xlink="http://www.w3.org/1999/xlink">
<g id="graph0" class="graph" transform="scale(1.0 1.0) rotate(0) translate(4 988.39)">
<title>23_Passagierabfertigung_Transfer&#45;Check&#45;In</title>
<polygon fill="white" stroke="transparent" points="-4,4 -4,-988.39 416.72,-988.39 416.72,4 -4,4"/>
<!-- Task_1np13\nyr -->
<g id="node1" class="node">
<title>Task_1np13\nyr</title>
<polygon fill="lightgrey" stroke="black" points="38.72,-538.99 38.72,-606.99 308.72,-606.99 308.72,-538.99 38.72,-538.99"/>
<text text-anchor="middle" x="81.72" y="-576.79" font-family="Times New Roman,serif" font-size="14.00">Task_1np13</text>
<text text-anchor="middle" x="81.72" y="-561.79" font-family="Times New Roman,serif" font-size="14.00">yr</text>
<polyline fill="none" stroke="black" points="124.72,-538.99 124.72,-606.99 "/>
<text text-anchor="middle" x="163.72" y="-591.79" font-family="Times New Roman,serif" font-size="14.00">Transfer&#45;C</text>
<text text-anchor="middle" x="163.72" y="-576.79" font-family="Times New Roman,serif" font-size="14.00">heck&#45;In&#45;Sc</text>
<text text-anchor="middle" x="163.72" y="-561.79" font-family="Times New Roman,serif" font-size="14.00">halter:Lan</text>
<text text-anchor="middle" x="163.72" y="-546.79" font-family="Times New Roman,serif" font-size="14.00">e_11ksowl</text>
<polyline fill="none" stroke="black" points="202.72,-538.99 202.72,-606.99 "/>
<text text-anchor="middle" x="255.72" y="-569.29" font-family="Times New Roman,serif" font-size="14.00">Sonstige_Tasks</text>
</g>
<!-- Task_14kqa\nq9 -->
<g id="node3" class="node">
<title>Task_14kqa\nq9</title>
<polygon fill="lightgrey" stroke="black" points="22.22,-433.99 22.22,-501.99 325.22,-501.99 325.22,-433.99 22.22,-433.99"/>
<text text-anchor="middle" x="65.22" y="-471.79" font-family="Times New Roman,serif" font-size="14.00">Task_14kqa</text>
<text text-anchor="middle" x="65.22" y="-456.79" font-family="Times New Roman,serif" font-size="14.00">q9</text>
<polyline fill="none" stroke="black" points="108.22,-433.99 108.22,-501.99 "/>
<text text-anchor="middle" x="147.22" y="-486.79" font-family="Times New Roman,serif" font-size="14.00">Transfer&#45;C</text>
<text text-anchor="middle" x="147.22" y="-471.79" font-family="Times New Roman,serif" font-size="14.00">heck&#45;In&#45;Sc</text>
<text text-anchor="middle" x="147.22" y="-456.79" font-family="Times New Roman,serif" font-size="14.00">halter:Lan</text>
<text text-anchor="middle" x="147.22" y="-441.79" font-family="Times New Roman,serif" font-size="14.00">e_11ksowl</text>
<polyline fill="none" stroke="black" points="186.22,-433.99 186.22,-501.99 "/>
<text text-anchor="middle" x="255.72" y="-464.29" font-family="Times New Roman,serif" font-size="14.00">Dokument_bearbeiten</text>
</g>
<!-- Task_1np13\nyr&#45;&gt;Task_14kqa\nq9 -->
<g id="edge1" class="edge">
<title>Task_1np13\nyr&#45;&gt;Task_14kqa\nq9</title>
<path fill="none" stroke="black" d="M173.72,-538.84C173.72,-530.38 173.72,-521.17 173.72,-512.29"/>
<polygon fill="black" stroke="black" points="177.22,-512.09 173.72,-502.09 170.22,-512.09 177.22,-512.09"/>
</g>
<!-- ExclusiveG\nateway_0fp\nk3dn -->
<g id="node2" class="node">
<title>ExclusiveG\nateway_0fp\nk3dn</title>
<polygon fill="lightgrey" stroke="black" points="173.72,-220.49 7.49,-202.49 173.72,-184.49 339.96,-202.49 173.72,-220.49"/>
<text text-anchor="middle" x="173.72" y="-198.79" font-family="Times New Roman,serif" font-size="14.00">Gepäck_vorhanden?_/_JOIN</text>
</g>
<!-- Task_0azc7\n5j -->
<g id="node5" class="node">
<title>Task_0azc7\n5j</title>
<polygon fill="lightgrey" stroke="black" points="33.22,-94.99 33.22,-147.99 314.22,-147.99 314.22,-94.99 33.22,-94.99"/>
<text text-anchor="middle" x="75.22" y="-125.29" font-family="Times New Roman,serif" font-size="14.00">Task_0azc7</text>
<text text-anchor="middle" x="75.22" y="-110.29" font-family="Times New Roman,serif" font-size="14.00">5j</text>
<polyline fill="none" stroke="black" points="117.22,-94.99 117.22,-147.99 "/>
<text text-anchor="middle" x="159.72" y="-132.79" font-family="Times New Roman,serif" font-size="14.00">Passagier:</text>
<text text-anchor="middle" x="159.72" y="-117.79" font-family="Times New Roman,serif" font-size="14.00">Lane_106yy</text>
<text text-anchor="middle" x="159.72" y="-102.79" font-family="Times New Roman,serif" font-size="14.00">q1</text>
<polyline fill="none" stroke="black" points="202.22,-94.99 202.22,-147.99 "/>
<text text-anchor="middle" x="258.22" y="-117.79" font-family="Times New Roman,serif" font-size="14.00">Person_bewegen</text>
</g>
<!-- ExclusiveG\nateway_0fp\nk3dn&#45;&gt;Task_0azc7\n5j -->
<g id="edge2" class="edge">
<title>ExclusiveG\nateway_0fp\nk3dn&#45;&gt;Task_0azc7\n5j</title>
<path fill="none" stroke="black" d="M173.72,-184.35C173.72,-176.64 173.72,-167.23 173.72,-158.09"/>
<polygon fill="black" stroke="black" points="177.22,-158.01 173.72,-148.01 170.22,-158.01 177.22,-158.01"/>
</g>
<!-- ExclusiveG\nateway_1t1\noj2k -->
<g id="node8" class="node">
<title>ExclusiveG\nateway_1t1\noj2k</title>
<polygon fill="lightgrey" stroke="black" points="173.72,-397.49 -0.22,-379.49 173.72,-361.49 347.66,-379.49 173.72,-397.49"/>
<text text-anchor="middle" x="173.72" y="-375.79" font-family="Times New Roman,serif" font-size="14.00">Gepäck_vorhanden?_/_SPLIT</text>
</g>
<!-- Task_14kqa\nq9&#45;&gt;ExclusiveG\nateway_1t1\noj2k -->
<g id="edge3" class="edge">
<title>Task_14kqa\nq9&#45;&gt;ExclusiveG\nateway_1t1\noj2k</title>
<path fill="none" stroke="black" d="M173.72,-433.8C173.72,-425.19 173.72,-416.01 173.72,-407.74"/>
<polygon fill="black" stroke="black" points="177.22,-407.52 173.72,-397.52 170.22,-407.52 177.22,-407.52"/>
</g>
<!-- Task_1kkj8\n4m -->
<g id="node4" class="node">
<title>Task_1kkj8\n4m</title>
<polygon fill="lightgrey" stroke="black" points="34.22,-838.99 34.22,-891.99 313.22,-891.99 313.22,-838.99 34.22,-838.99"/>
<text text-anchor="middle" x="75.22" y="-869.29" font-family="Times New Roman,serif" font-size="14.00">Task_1kkj8</text>
<text text-anchor="middle" x="75.22" y="-854.29" font-family="Times New Roman,serif" font-size="14.00">4m</text>
<polyline fill="none" stroke="black" points="116.22,-838.99 116.22,-891.99 "/>
<text text-anchor="middle" x="158.72" y="-876.79" font-family="Times New Roman,serif" font-size="14.00">Passagier:</text>
<text text-anchor="middle" x="158.72" y="-861.79" font-family="Times New Roman,serif" font-size="14.00">Lane_106yy</text>
<text text-anchor="middle" x="158.72" y="-846.79" font-family="Times New Roman,serif" font-size="14.00">q1</text>
<polyline fill="none" stroke="black" points="201.22,-838.99 201.22,-891.99 "/>
<text text-anchor="middle" x="257.22" y="-861.79" font-family="Times New Roman,serif" font-size="14.00">Person_bewegen</text>
</g>
<!-- Task_18cot\nkr -->
<g id="node9" class="node">
<title>Task_18cot\nkr</title>
<polygon fill="lightgrey" stroke="black" points="4.72,-748.99 4.72,-801.99 342.72,-801.99 342.72,-748.99 4.72,-748.99"/>
<text text-anchor="middle" x="46.22" y="-779.29" font-family="Times New Roman,serif" font-size="14.00">Task_18cot</text>
<text text-anchor="middle" x="46.22" y="-764.29" font-family="Times New Roman,serif" font-size="14.00">kr</text>
<polyline fill="none" stroke="black" points="87.72,-748.99 87.72,-801.99 "/>
<text text-anchor="middle" x="130.22" y="-786.79" font-family="Times New Roman,serif" font-size="14.00">Passagier:</text>
<text text-anchor="middle" x="130.22" y="-771.79" font-family="Times New Roman,serif" font-size="14.00">Lane_106yy</text>
<text text-anchor="middle" x="130.22" y="-756.79" font-family="Times New Roman,serif" font-size="14.00">q1</text>
<polyline fill="none" stroke="black" points="172.72,-748.99 172.72,-801.99 "/>
<text text-anchor="middle" x="257.72" y="-771.79" font-family="Times New Roman,serif" font-size="14.00">Flughafenbereich_erreichen</text>
</g>
<!-- Task_1kkj8\n4m&#45;&gt;Task_18cot\nkr -->
<g id="edge4" class="edge">
<title>Task_1kkj8\n4m&#45;&gt;Task_18cot\nkr</title>
<path fill="none" stroke="black" d="M173.72,-838.57C173.72,-830.33 173.72,-821.07 173.72,-812.27"/>
<polygon fill="black" stroke="black" points="177.22,-812.24 173.72,-802.24 170.22,-812.24 177.22,-812.24"/>
</g>
<!-- EndEvent_0\n2iafj4 -->
<g id="node7" class="node">
<title>EndEvent_0\n2iafj4</title>
<ellipse fill="lightgrey" stroke="black" cx="173.72" cy="-29.25" rx="29.5" ry="29.5"/>
<text text-anchor="middle" x="173.72" y="-25.55" font-family="Times New Roman,serif" font-size="14.00">Ende</text>
</g>
<!-- Task_0azc7\n5j&#45;&gt;EndEvent_0\n2iafj4 -->
<g id="edge5" class="edge">
<title>Task_0azc7\n5j&#45;&gt;EndEvent_0\n2iafj4</title>
<path fill="none" stroke="black" d="M173.72,-94.87C173.72,-86.78 173.72,-77.66 173.72,-68.87"/>
<polygon fill="black" stroke="black" points="177.22,-68.79 173.72,-58.79 170.22,-68.79 177.22,-68.79"/>
</g>
<!-- Task_05myg\nbw -->
<g id="node6" class="node">
<title>Task_05myg\nbw</title>
<polygon fill="lightgrey" stroke="black" points="45.72,-643.99 45.72,-711.99 301.72,-711.99 301.72,-643.99 45.72,-643.99"/>
<text text-anchor="middle" x="90.22" y="-681.79" font-family="Times New Roman,serif" font-size="14.00">Task_05myg</text>
<text text-anchor="middle" x="90.22" y="-666.79" font-family="Times New Roman,serif" font-size="14.00">bw</text>
<polyline fill="none" stroke="black" points="134.72,-643.99 134.72,-711.99 "/>
<text text-anchor="middle" x="173.72" y="-696.79" font-family="Times New Roman,serif" font-size="14.00">Transfer&#45;C</text>
<text text-anchor="middle" x="173.72" y="-681.79" font-family="Times New Roman,serif" font-size="14.00">heck&#45;In&#45;Sc</text>
<text text-anchor="middle" x="173.72" y="-666.79" font-family="Times New Roman,serif" font-size="14.00">halter:Lan</text>
<text text-anchor="middle" x="173.72" y="-651.79" font-family="Times New Roman,serif" font-size="14.00">e_11ksowl</text>
<polyline fill="none" stroke="black" points="212.72,-643.99 212.72,-711.99 "/>
<text text-anchor="middle" x="257.22" y="-674.29" font-family="Times New Roman,serif" font-size="14.00">Kontrollieren</text>
</g>
<!-- Task_05myg\nbw&#45;&gt;Task_1np13\nyr -->
<g id="edge6" class="edge">
<title>Task_05myg\nbw&#45;&gt;Task_1np13\nyr</title>
<path fill="none" stroke="black" d="M173.72,-643.84C173.72,-635.38 173.72,-626.17 173.72,-617.29"/>
<polygon fill="black" stroke="black" points="177.22,-617.09 173.72,-607.09 170.22,-617.09 177.22,-617.09"/>
</g>
<!-- ExclusiveG\nateway_1t1\noj2k&#45;&gt;ExclusiveG\nateway_0fp\nk3dn -->
<g id="edge8" class="edge">
<title>ExclusiveG\nateway_1t1\noj2k&#45;&gt;ExclusiveG\nateway_0fp\nk3dn</title>
<path fill="none" stroke="black" d="M144.15,-364.47C129.09,-355.59 112.2,-342.56 103.72,-325.49 90.07,-298.03 90.07,-283.96 103.72,-256.49 110.61,-242.63 123.05,-231.43 135.56,-222.95"/>
<polygon fill="black" stroke="black" points="137.57,-225.82 144.15,-217.52 133.83,-219.9 137.57,-225.82"/>
</g>
<!-- Task_0q17j\n2r -->
<g id="node10" class="node">
<title>Task_0q17j\n2r</title>
<polygon fill="lightgrey" stroke="black" points="112.72,-256.99 112.72,-324.99 412.72,-324.99 412.72,-256.99 112.72,-256.99"/>
<text text-anchor="middle" x="154.22" y="-294.79" font-family="Times New Roman,serif" font-size="14.00">Task_0q17j</text>
<text text-anchor="middle" x="154.22" y="-279.79" font-family="Times New Roman,serif" font-size="14.00">2r</text>
<polyline fill="none" stroke="black" points="195.72,-256.99 195.72,-324.99 "/>
<text text-anchor="middle" x="234.72" y="-309.79" font-family="Times New Roman,serif" font-size="14.00">Transfer&#45;C</text>
<text text-anchor="middle" x="234.72" y="-294.79" font-family="Times New Roman,serif" font-size="14.00">heck&#45;In&#45;Sc</text>
<text text-anchor="middle" x="234.72" y="-279.79" font-family="Times New Roman,serif" font-size="14.00">halter:Lan</text>
<text text-anchor="middle" x="234.72" y="-264.79" font-family="Times New Roman,serif" font-size="14.00">e_11ksowl</text>
<polyline fill="none" stroke="black" points="273.72,-256.99 273.72,-324.99 "/>
<text text-anchor="middle" x="343.22" y="-287.29" font-family="Times New Roman,serif" font-size="14.00">Gegenstand_bewegen</text>
</g>
<!-- ExclusiveG\nateway_1t1\noj2k&#45;&gt;Task_0q17j\n2r -->
<g id="edge7" class="edge">
<title>ExclusiveG\nateway_1t1\noj2k&#45;&gt;Task_0q17j\n2r</title>
<path fill="none" stroke="black" d="M189.63,-363.03C198.49,-354.42 209.97,-343.26 221.2,-332.35"/>
<polygon fill="black" stroke="black" points="223.78,-334.72 228.51,-325.24 218.9,-329.7 223.78,-334.72"/>
</g>
<!-- Task_18cot\nkr&#45;&gt;Task_05myg\nbw -->
<g id="edge9" class="edge">
<title>Task_18cot\nkr&#45;&gt;Task_05myg\nbw</title>
<path fill="none" stroke="black" d="M173.72,-748.9C173.72,-740.71 173.72,-731.41 173.72,-722.32"/>
<polygon fill="black" stroke="black" points="177.22,-722.22 173.72,-712.22 170.22,-722.22 177.22,-722.22"/>
</g>
<!-- Task_0q17j\n2r&#45;&gt;ExclusiveG\nateway_0fp\nk3dn -->
<g id="edge10" class="edge">
<title>Task_0q17j\n2r&#45;&gt;ExclusiveG\nateway_0fp\nk3dn</title>
<path fill="none" stroke="black" d="M228.57,-256.8C218.04,-246.57 206.71,-235.55 197.09,-226.2"/>
<polygon fill="black" stroke="black" points="199.4,-223.57 189.79,-219.11 194.52,-228.59 199.4,-223.57"/>
</g>
<!-- StartEvent\n_23 -->
<g id="node11" class="node">
<title>StartEvent\n_23</title>
<ellipse fill="lightgrey" stroke="black" cx="173.72" cy="-956.44" rx="27.9" ry="27.9"/>
<text text-anchor="middle" x="173.72" y="-952.74" font-family="Times New Roman,serif" font-size="14.00">Start</text>
</g>
<!-- StartEvent\n_23&#45;&gt;Task_1kkj8\n4m -->
<g id="edge11" class="edge">
<title>StartEvent\n_23&#45;&gt;Task_1kkj8\n4m</title>
<path fill="none" stroke="black" d="M173.72,-928.27C173.72,-920.14 173.72,-911.08 173.72,-902.47"/>
<polygon fill="black" stroke="black" points="177.22,-902.28 173.72,-892.28 170.22,-902.28 177.22,-902.28"/>
</g>
</g>
</svg>
