<svg width="600px" height="1708px"
 viewBox="0.00 0.00 377.00 1073.39" xmlns="http://www.w3.org/2000/svg" xmlns:xlink="http://www.w3.org/1999/xlink">
<g id="graph0" class="graph" transform="scale(1.0 1.0) rotate(0) translate(4 1069.39)">
<title>02_Passagierabfertigung_am_Check&#45;In&#45;Automaten</title>
<polygon fill="white" stroke="transparent" points="-4,4 -4,-1069.39 373,-1069.39 373,4 -4,4"/>
<!-- StartEvent\n_2 -->
<g id="node1" class="node">
<title>StartEvent\n_2</title>
<ellipse fill="lightgrey" stroke="black" cx="184.5" cy="-1037.44" rx="27.9" ry="27.9"/>
<text text-anchor="middle" x="184.5" y="-1033.74" font-family="Times New Roman,serif" font-size="14.00">Start</text>
</g>
<!-- Task_0dhs6\nwg -->
<g id="node4" class="node">
<title>Task_0dhs6\nwg</title>
<polygon fill="lightgrey" stroke="black" points="43.5,-919.99 43.5,-972.99 325.5,-972.99 325.5,-919.99 43.5,-919.99"/>
<text text-anchor="middle" x="86.5" y="-950.29" font-family="Times New Roman,serif" font-size="14.00">Task_0dhs6</text>
<text text-anchor="middle" x="86.5" y="-935.29" font-family="Times New Roman,serif" font-size="14.00">wg</text>
<polyline fill="none" stroke="black" points="129.5,-919.99 129.5,-972.99 "/>
<text text-anchor="middle" x="171.5" y="-957.79" font-family="Times New Roman,serif" font-size="14.00">Passagier:</text>
<text text-anchor="middle" x="171.5" y="-942.79" font-family="Times New Roman,serif" font-size="14.00">Lane_1gl9w</text>
<text text-anchor="middle" x="171.5" y="-927.79" font-family="Times New Roman,serif" font-size="14.00">5l</text>
<polyline fill="none" stroke="black" points="213.5,-919.99 213.5,-972.99 "/>
<text text-anchor="middle" x="269.5" y="-942.79" font-family="Times New Roman,serif" font-size="14.00">Person_bewegen</text>
</g>
<!-- StartEvent\n_2&#45;&gt;Task_0dhs6\nwg -->
<g id="edge1" class="edge">
<title>StartEvent\n_2&#45;&gt;Task_0dhs6\nwg</title>
<path fill="none" stroke="black" d="M184.5,-1009.27C184.5,-1001.14 184.5,-992.08 184.5,-983.47"/>
<polygon fill="black" stroke="black" points="188,-983.28 184.5,-973.28 181,-983.28 188,-983.28"/>
</g>
<!-- Task_18po4\n8l -->
<g id="node2" class="node">
<title>Task_18po4\n8l</title>
<polygon fill="lightgrey" stroke="black" points="46,-559.99 46,-612.99 323,-612.99 323,-559.99 46,-559.99"/>
<text text-anchor="middle" x="89.5" y="-590.29" font-family="Times New Roman,serif" font-size="14.00">Task_18po4</text>
<text text-anchor="middle" x="89.5" y="-575.29" font-family="Times New Roman,serif" font-size="14.00">8l</text>
<polyline fill="none" stroke="black" points="133,-559.99 133,-612.99 "/>
<text text-anchor="middle" x="175" y="-597.79" font-family="Times New Roman,serif" font-size="14.00">Passagier:</text>
<text text-anchor="middle" x="175" y="-582.79" font-family="Times New Roman,serif" font-size="14.00">Lane_1gl9w</text>
<text text-anchor="middle" x="175" y="-567.79" font-family="Times New Roman,serif" font-size="14.00">5l</text>
<polyline fill="none" stroke="black" points="217,-559.99 217,-612.99 "/>
<text text-anchor="middle" x="270" y="-582.79" font-family="Times New Roman,serif" font-size="14.00">Sonstige_Tasks</text>
</g>
<!-- Task_0xgty\nmq -->
<g id="node8" class="node">
<title>Task_0xgty\nmq</title>
<polygon fill="lightgrey" stroke="black" points="32,-469.99 32,-522.99 337,-522.99 337,-469.99 32,-469.99"/>
<text text-anchor="middle" x="73.5" y="-500.29" font-family="Times New Roman,serif" font-size="14.00">Task_0xgty</text>
<text text-anchor="middle" x="73.5" y="-485.29" font-family="Times New Roman,serif" font-size="14.00">mq</text>
<polyline fill="none" stroke="black" points="115,-469.99 115,-522.99 "/>
<text text-anchor="middle" x="156.5" y="-507.79" font-family="Times New Roman,serif" font-size="14.00">Check&#45;In&#45;A</text>
<text text-anchor="middle" x="156.5" y="-492.79" font-family="Times New Roman,serif" font-size="14.00">utomat:Lan</text>
<text text-anchor="middle" x="156.5" y="-477.79" font-family="Times New Roman,serif" font-size="14.00">e_140hr48</text>
<polyline fill="none" stroke="black" points="198,-469.99 198,-522.99 "/>
<text text-anchor="middle" x="267.5" y="-492.79" font-family="Times New Roman,serif" font-size="14.00">Dokument_bearbeiten</text>
</g>
<!-- Task_18po4\n8l&#45;&gt;Task_0xgty\nmq -->
<g id="edge2" class="edge">
<title>Task_18po4\n8l&#45;&gt;Task_0xgty\nmq</title>
<path fill="none" stroke="black" d="M184.5,-559.57C184.5,-551.33 184.5,-542.07 184.5,-533.27"/>
<polygon fill="black" stroke="black" points="188,-533.24 184.5,-523.24 181,-533.24 188,-533.24"/>
</g>
<!-- Task_1ydgj\n3r -->
<g id="node3" class="node">
<title>Task_1ydgj\n3r</title>
<polygon fill="lightgrey" stroke="black" points="45,-199.99 45,-252.99 324,-252.99 324,-199.99 45,-199.99"/>
<text text-anchor="middle" x="86.5" y="-230.29" font-family="Times New Roman,serif" font-size="14.00">Task_1ydgj</text>
<text text-anchor="middle" x="86.5" y="-215.29" font-family="Times New Roman,serif" font-size="14.00">3r</text>
<polyline fill="none" stroke="black" points="128,-199.99 128,-252.99 "/>
<text text-anchor="middle" x="170" y="-237.79" font-family="Times New Roman,serif" font-size="14.00">Passagier:</text>
<text text-anchor="middle" x="170" y="-222.79" font-family="Times New Roman,serif" font-size="14.00">Lane_1gl9w</text>
<text text-anchor="middle" x="170" y="-207.79" font-family="Times New Roman,serif" font-size="14.00">5l</text>
<polyline fill="none" stroke="black" points="212,-199.99 212,-252.99 "/>
<text text-anchor="middle" x="268" y="-222.79" font-family="Times New Roman,serif" font-size="14.00">Person_bewegen</text>
</g>
<!-- Task_166kh\nwz -->
<g id="node10" class="node">
<title>Task_166kh\nwz</title>
<polygon fill="lightgrey" stroke="black" points="45,-94.99 45,-162.99 324,-162.99 324,-94.99 45,-94.99"/>
<text text-anchor="middle" x="88" y="-132.79" font-family="Times New Roman,serif" font-size="14.00">Task_166kh</text>
<text text-anchor="middle" x="88" y="-117.79" font-family="Times New Roman,serif" font-size="14.00">wz</text>
<polyline fill="none" stroke="black" points="131,-94.99 131,-162.99 "/>
<text text-anchor="middle" x="171.5" y="-147.79" font-family="Times New Roman,serif" font-size="14.00">Sicherheit</text>
<text text-anchor="middle" x="171.5" y="-132.79" font-family="Times New Roman,serif" font-size="14.00">sbereich:L</text>
<text text-anchor="middle" x="171.5" y="-117.79" font-family="Times New Roman,serif" font-size="14.00">ane_1cnf58</text>
<text text-anchor="middle" x="171.5" y="-102.79" font-family="Times New Roman,serif" font-size="14.00">w</text>
<polyline fill="none" stroke="black" points="212,-94.99 212,-162.99 "/>
<text text-anchor="middle" x="268" y="-125.29" font-family="Times New Roman,serif" font-size="14.00">Person_bewegen</text>
</g>
<!-- Task_1ydgj\n3r&#45;&gt;Task_166kh\nwz -->
<g id="edge3" class="edge">
<title>Task_1ydgj\n3r&#45;&gt;Task_166kh\nwz</title>
<path fill="none" stroke="black" d="M184.5,-199.9C184.5,-191.71 184.5,-182.41 184.5,-173.32"/>
<polygon fill="black" stroke="black" points="188,-173.22 184.5,-163.22 181,-173.22 188,-173.22"/>
</g>
<!-- Task_0p6ov\npb -->
<g id="node11" class="node">
<title>Task_0p6ov\npb</title>
<polygon fill="lightgrey" stroke="black" points="14,-829.99 14,-882.99 355,-882.99 355,-829.99 14,-829.99"/>
<text text-anchor="middle" x="57.5" y="-860.29" font-family="Times New Roman,serif" font-size="14.00">Task_0p6ov</text>
<text text-anchor="middle" x="57.5" y="-845.29" font-family="Times New Roman,serif" font-size="14.00">pb</text>
<polyline fill="none" stroke="black" points="101,-829.99 101,-882.99 "/>
<text text-anchor="middle" x="143" y="-867.79" font-family="Times New Roman,serif" font-size="14.00">Passagier:</text>
<text text-anchor="middle" x="143" y="-852.79" font-family="Times New Roman,serif" font-size="14.00">Lane_1gl9w</text>
<text text-anchor="middle" x="143" y="-837.79" font-family="Times New Roman,serif" font-size="14.00">5l</text>
<polyline fill="none" stroke="black" points="185,-829.99 185,-882.99 "/>
<text text-anchor="middle" x="270" y="-852.79" font-family="Times New Roman,serif" font-size="14.00">Flughafenbereich_erreichen</text>
</g>
<!-- Task_0dhs6\nwg&#45;&gt;Task_0p6ov\npb -->
<g id="edge4" class="edge">
<title>Task_0dhs6\nwg&#45;&gt;Task_0p6ov\npb</title>
<path fill="none" stroke="black" d="M184.5,-919.57C184.5,-911.33 184.5,-902.07 184.5,-893.27"/>
<polygon fill="black" stroke="black" points="188,-893.24 184.5,-883.24 181,-893.24 188,-893.24"/>
</g>
<!-- Task_0qnug\nae -->
<g id="node5" class="node">
<title>Task_0qnug\nae</title>
<polygon fill="lightgrey" stroke="black" points="71,-739.99 71,-792.99 298,-792.99 298,-739.99 71,-739.99"/>
<text text-anchor="middle" x="114" y="-770.29" font-family="Times New Roman,serif" font-size="14.00">Task_0qnug</text>
<text text-anchor="middle" x="114" y="-755.29" font-family="Times New Roman,serif" font-size="14.00">ae</text>
<polyline fill="none" stroke="black" points="157,-739.99 157,-792.99 "/>
<text text-anchor="middle" x="199" y="-777.79" font-family="Times New Roman,serif" font-size="14.00">Passagier:</text>
<text text-anchor="middle" x="199" y="-762.79" font-family="Times New Roman,serif" font-size="14.00">Lane_1gl9w</text>
<text text-anchor="middle" x="199" y="-747.79" font-family="Times New Roman,serif" font-size="14.00">5l</text>
<polyline fill="none" stroke="black" points="241,-739.99 241,-792.99 "/>
<text text-anchor="middle" x="269.5" y="-762.79" font-family="Times New Roman,serif" font-size="14.00">Warten</text>
</g>
<!-- Task_16bnm\ncp -->
<g id="node6" class="node">
<title>Task_16bnm\ncp</title>
<polygon fill="lightgrey" stroke="black" points="53.5,-649.99 53.5,-702.99 315.5,-702.99 315.5,-649.99 53.5,-649.99"/>
<text text-anchor="middle" x="98.5" y="-680.29" font-family="Times New Roman,serif" font-size="14.00">Task_16bnm</text>
<text text-anchor="middle" x="98.5" y="-665.29" font-family="Times New Roman,serif" font-size="14.00">cp</text>
<polyline fill="none" stroke="black" points="143.5,-649.99 143.5,-702.99 "/>
<text text-anchor="middle" x="185" y="-687.79" font-family="Times New Roman,serif" font-size="14.00">Check&#45;In&#45;A</text>
<text text-anchor="middle" x="185" y="-672.79" font-family="Times New Roman,serif" font-size="14.00">utomat:Lan</text>
<text text-anchor="middle" x="185" y="-657.79" font-family="Times New Roman,serif" font-size="14.00">e_140hr48</text>
<polyline fill="none" stroke="black" points="226.5,-649.99 226.5,-702.99 "/>
<text text-anchor="middle" x="271" y="-672.79" font-family="Times New Roman,serif" font-size="14.00">Kontrollieren</text>
</g>
<!-- Task_0qnug\nae&#45;&gt;Task_16bnm\ncp -->
<g id="edge5" class="edge">
<title>Task_0qnug\nae&#45;&gt;Task_16bnm\ncp</title>
<path fill="none" stroke="black" d="M184.5,-739.57C184.5,-731.33 184.5,-722.07 184.5,-713.27"/>
<polygon fill="black" stroke="black" points="188,-713.24 184.5,-703.24 181,-713.24 188,-713.24"/>
</g>
<!-- Task_16bnm\ncp&#45;&gt;Task_18po4\n8l -->
<g id="edge6" class="edge">
<title>Task_16bnm\ncp&#45;&gt;Task_18po4\n8l</title>
<path fill="none" stroke="black" d="M184.5,-649.57C184.5,-641.33 184.5,-632.07 184.5,-623.27"/>
<polygon fill="black" stroke="black" points="188,-623.24 184.5,-613.24 181,-623.24 188,-623.24"/>
</g>
<!-- EndEvent_0\ncbepo9 -->
<g id="node7" class="node">
<title>EndEvent_0\ncbepo9</title>
<ellipse fill="lightgrey" stroke="black" cx="184.5" cy="-29.25" rx="29.5" ry="29.5"/>
<text text-anchor="middle" x="184.5" y="-25.55" font-family="Times New Roman,serif" font-size="14.00">Ende</text>
</g>
<!-- ExclusiveG\nateway_0w2\n89jq_Exclu\nsiveGatewa\ny_05tg0br -->
<g id="node9" class="node">
<title>ExclusiveG\nateway_0w2\n89jq_Exclu\nsiveGatewa\ny_05tg0br</title>
<polygon fill="none" stroke="black" stroke-dasharray="5,2" points="0,-289.99 0,-432.99 369,-432.99 369,-289.99 0,-289.99"/>
<text text-anchor="middle" x="43" y="-387.79" font-family="Times New Roman,serif" font-size="14.00">ExclusiveG</text>
<text text-anchor="middle" x="43" y="-372.79" font-family="Times New Roman,serif" font-size="14.00">ateway_0w2</text>
<text text-anchor="middle" x="43" y="-357.79" font-family="Times New Roman,serif" font-size="14.00">89jq_Exclu</text>
<text text-anchor="middle" x="43" y="-342.79" font-family="Times New Roman,serif" font-size="14.00">siveGatewa</text>
<text text-anchor="middle" x="43" y="-327.79" font-family="Times New Roman,serif" font-size="14.00">y_05tg0br</text>
<polyline fill="none" stroke="black" stroke-dasharray="5,2" points="86,-289.99 86,-432.99 "/>
<text text-anchor="middle" x="129.5" y="-417.79" font-family="Times New Roman,serif" font-size="14.00">Gep채ckanna</text>
<text text-anchor="middle" x="129.5" y="-402.79" font-family="Times New Roman,serif" font-size="14.00">hmeschalte</text>
<text text-anchor="middle" x="129.5" y="-387.79" font-family="Times New Roman,serif" font-size="14.00">r:Lane_1jc</text>
<text text-anchor="middle" x="129.5" y="-372.79" font-family="Times New Roman,serif" font-size="14.00">jnxr&amp;Passa</text>
<text text-anchor="middle" x="129.5" y="-357.79" font-family="Times New Roman,serif" font-size="14.00">gier:Lane_</text>
<text text-anchor="middle" x="129.5" y="-342.79" font-family="Times New Roman,serif" font-size="14.00">1gl9w5l&amp;Ch</text>
<text text-anchor="middle" x="129.5" y="-327.79" font-family="Times New Roman,serif" font-size="14.00">eck&#45;In&#45;Aut</text>
<text text-anchor="middle" x="129.5" y="-312.79" font-family="Times New Roman,serif" font-size="14.00">omat:Lane_</text>
<text text-anchor="middle" x="129.5" y="-297.79" font-family="Times New Roman,serif" font-size="14.00">140hr48</text>
<polyline fill="none" stroke="black" stroke-dasharray="5,2" points="173,-289.99 173,-432.99 "/>
<text text-anchor="middle" x="271" y="-417.79" font-family="Times New Roman,serif" font-size="14.00">Gep채ck_vorhanden?_/_SPLIT: </text>
<text text-anchor="middle" x="271" y="-402.79" font-family="Times New Roman,serif" font-size="14.00"> XOR </text>
<text text-anchor="middle" x="271" y="-387.79" font-family="Times New Roman,serif" font-size="14.00">(</text>
<text text-anchor="middle" x="271" y="-372.79" font-family="Times New Roman,serif" font-size="14.00">Flughafenbereich_erreichen</text>
<text text-anchor="middle" x="271" y="-357.79" font-family="Times New Roman,serif" font-size="14.00">Gegenstand_bewegen</text>
<text text-anchor="middle" x="271" y="-342.79" font-family="Times New Roman,serif" font-size="14.00">Gep채ck_vorhanden?_/_JOIN)</text>
<text text-anchor="middle" x="271" y="-327.79" font-family="Times New Roman,serif" font-size="14.00"> XOR </text>
<text text-anchor="middle" x="271" y="-312.79" font-family="Times New Roman,serif" font-size="14.00">(</text>
<text text-anchor="middle" x="271" y="-297.79" font-family="Times New Roman,serif" font-size="14.00">Gep채ck_vorhanden?_/_JOIN)</text>
</g>
<!-- Task_0xgty\nmq&#45;&gt;ExclusiveG\nateway_0w2\n89jq_Exclu\nsiveGatewa\ny_05tg0br -->
<g id="edge7" class="edge">
<title>Task_0xgty\nmq&#45;&gt;ExclusiveG\nateway_0w2\n89jq_Exclu\nsiveGatewa\ny_05tg0br</title>
<path fill="none" stroke="black" d="M184.5,-469.85C184.5,-461.95 184.5,-452.8 184.5,-443.23"/>
<polygon fill="black" stroke="black" points="188,-443.14 184.5,-433.14 181,-443.14 188,-443.14"/>
</g>
<!-- ExclusiveG\nateway_0w2\n89jq_Exclu\nsiveGatewa\ny_05tg0br&#45;&gt;Task_1ydgj\n3r -->
<g id="edge8" class="edge">
<title>ExclusiveG\nateway_0w2\n89jq_Exclu\nsiveGatewa\ny_05tg0br&#45;&gt;Task_1ydgj\n3r</title>
<path fill="none" stroke="black" d="M184.5,-289.71C184.5,-280.46 184.5,-271.33 184.5,-263.02"/>
<polygon fill="black" stroke="black" points="188,-263 184.5,-253 181,-263 188,-263"/>
</g>
<!-- Task_166kh\nwz&#45;&gt;EndEvent_0\ncbepo9 -->
<g id="edge9" class="edge">
<title>Task_166kh\nwz&#45;&gt;EndEvent_0\ncbepo9</title>
<path fill="none" stroke="black" d="M184.5,-94.9C184.5,-86.55 184.5,-77.52 184.5,-68.92"/>
<polygon fill="black" stroke="black" points="188,-68.73 184.5,-58.73 181,-68.73 188,-68.73"/>
</g>
<!-- Task_0p6ov\npb&#45;&gt;Task_0qnug\nae -->
<g id="edge10" class="edge">
<title>Task_0p6ov\npb&#45;&gt;Task_0qnug\nae</title>
<path fill="none" stroke="black" d="M184.5,-829.57C184.5,-821.33 184.5,-812.07 184.5,-803.27"/>
<polygon fill="black" stroke="black" points="188,-803.24 184.5,-793.24 181,-803.24 188,-803.24"/>
</g>
</g>
</svg>
