<svg width="600px" height="904px"
 viewBox="0.00 0.00 294.00 443.39" xmlns="http://www.w3.org/2000/svg" xmlns:xlink="http://www.w3.org/1999/xlink">
<g id="graph0" class="graph" transform="scale(1.0 1.0) rotate(0) translate(4 439.39)">
<title>04_Passagierabfertigung_Check&#45;In_am_Vorabend</title>
<polygon fill="white" stroke="transparent" points="-4,4 -4,-439.39 290,-439.39 290,4 -4,4"/>
<!-- Task_1maku\nr1 -->
<g id="node1" class="node">
<title>Task_1maku\nr1</title>
<polygon fill="lightgrey" stroke="black" points="0,-199.99 0,-252.99 286,-252.99 286,-199.99 0,-199.99"/>
<text text-anchor="middle" x="44.5" y="-230.29" font-family="Times New Roman,serif" font-size="14.00">Task_1maku</text>
<text text-anchor="middle" x="44.5" y="-215.29" font-family="Times New Roman,serif" font-size="14.00">r1</text>
<polyline fill="none" stroke="black" points="89,-199.99 89,-252.99 "/>
<text text-anchor="middle" x="131.5" y="-237.79" font-family="Times New Roman,serif" font-size="14.00">Passagier:</text>
<text text-anchor="middle" x="131.5" y="-222.79" font-family="Times New Roman,serif" font-size="14.00">Lane_0ylwo</text>
<text text-anchor="middle" x="131.5" y="-207.79" font-family="Times New Roman,serif" font-size="14.00">ow</text>
<polyline fill="none" stroke="black" points="174,-199.99 174,-252.99 "/>
<text text-anchor="middle" x="230" y="-222.79" font-family="Times New Roman,serif" font-size="14.00">Person_bewegen</text>
</g>
<!-- Task_0c1t4\n9t -->
<g id="node5" class="node">
<title>Task_0c1t4\n9t</title>
<polygon fill="lightgrey" stroke="black" points="4,-94.99 4,-162.99 282,-162.99 282,-94.99 4,-94.99"/>
<text text-anchor="middle" x="45.5" y="-132.79" font-family="Times New Roman,serif" font-size="14.00">Task_0c1t4</text>
<text text-anchor="middle" x="45.5" y="-117.79" font-family="Times New Roman,serif" font-size="14.00">9t</text>
<polyline fill="none" stroke="black" points="87,-94.99 87,-162.99 "/>
<text text-anchor="middle" x="128.5" y="-147.79" font-family="Times New Roman,serif" font-size="14.00">Sicherheit</text>
<text text-anchor="middle" x="128.5" y="-132.79" font-family="Times New Roman,serif" font-size="14.00">sbereich:L</text>
<text text-anchor="middle" x="128.5" y="-117.79" font-family="Times New Roman,serif" font-size="14.00">ane_02kbgs</text>
<text text-anchor="middle" x="128.5" y="-102.79" font-family="Times New Roman,serif" font-size="14.00">x</text>
<polyline fill="none" stroke="black" points="170,-94.99 170,-162.99 "/>
<text text-anchor="middle" x="226" y="-125.29" font-family="Times New Roman,serif" font-size="14.00">Person_bewegen</text>
</g>
<!-- Task_1maku\nr1&#45;&gt;Task_0c1t4\n9t -->
<g id="edge1" class="edge">
<title>Task_1maku\nr1&#45;&gt;Task_0c1t4\n9t</title>
<path fill="none" stroke="black" d="M143,-199.9C143,-191.71 143,-182.41 143,-173.32"/>
<polygon fill="black" stroke="black" points="146.5,-173.22 143,-163.22 139.5,-173.22 146.5,-173.22"/>
</g>
<!-- Task_1376l\n88 -->
<g id="node2" class="node">
<title>Task_1376l\n88</title>
<polygon fill="lightgrey" stroke="black" points="3.5,-289.99 3.5,-342.99 282.5,-342.99 282.5,-289.99 3.5,-289.99"/>
<text text-anchor="middle" x="44.5" y="-320.29" font-family="Times New Roman,serif" font-size="14.00">Task_1376l</text>
<text text-anchor="middle" x="44.5" y="-305.29" font-family="Times New Roman,serif" font-size="14.00">88</text>
<polyline fill="none" stroke="black" points="85.5,-289.99 85.5,-342.99 "/>
<text text-anchor="middle" x="128" y="-327.79" font-family="Times New Roman,serif" font-size="14.00">Passagier:</text>
<text text-anchor="middle" x="128" y="-312.79" font-family="Times New Roman,serif" font-size="14.00">Lane_0ylwo</text>
<text text-anchor="middle" x="128" y="-297.79" font-family="Times New Roman,serif" font-size="14.00">ow</text>
<polyline fill="none" stroke="black" points="170.5,-289.99 170.5,-342.99 "/>
<text text-anchor="middle" x="226.5" y="-312.79" font-family="Times New Roman,serif" font-size="14.00">Person_bewegen</text>
</g>
<!-- Task_1376l\n88&#45;&gt;Task_1maku\nr1 -->
<g id="edge2" class="edge">
<title>Task_1376l\n88&#45;&gt;Task_1maku\nr1</title>
<path fill="none" stroke="black" d="M143,-289.57C143,-281.33 143,-272.07 143,-263.27"/>
<polygon fill="black" stroke="black" points="146.5,-263.24 143,-253.24 139.5,-263.24 146.5,-263.24"/>
</g>
<!-- StartEvent\n_4 -->
<g id="node3" class="node">
<title>StartEvent\n_4</title>
<ellipse fill="lightgrey" stroke="black" cx="143" cy="-407.44" rx="27.9" ry="27.9"/>
<text text-anchor="middle" x="143" y="-403.74" font-family="Times New Roman,serif" font-size="14.00">Start</text>
</g>
<!-- StartEvent\n_4&#45;&gt;Task_1376l\n88 -->
<g id="edge3" class="edge">
<title>StartEvent\n_4&#45;&gt;Task_1376l\n88</title>
<path fill="none" stroke="black" d="M143,-379.27C143,-371.14 143,-362.08 143,-353.47"/>
<polygon fill="black" stroke="black" points="146.5,-353.28 143,-343.28 139.5,-353.28 146.5,-353.28"/>
</g>
<!-- EndEvent_1\nvwcw55 -->
<g id="node4" class="node">
<title>EndEvent_1\nvwcw55</title>
<ellipse fill="lightgrey" stroke="black" cx="143" cy="-29.25" rx="29.5" ry="29.5"/>
<text text-anchor="middle" x="143" y="-25.55" font-family="Times New Roman,serif" font-size="14.00">Ende</text>
</g>
<!-- Task_0c1t4\n9t&#45;&gt;EndEvent_1\nvwcw55 -->
<g id="edge4" class="edge">
<title>Task_0c1t4\n9t&#45;&gt;EndEvent_1\nvwcw55</title>
<path fill="none" stroke="black" d="M143,-94.9C143,-86.55 143,-77.52 143,-68.92"/>
<polygon fill="black" stroke="black" points="146.5,-68.73 143,-58.73 139.5,-68.73 146.5,-68.73"/>
</g>
</g>
</svg>
