<svg width="600px" height="707px"
 viewBox="0.00 0.00 641.50 757.18" xmlns="http://www.w3.org/2000/svg" xmlns:xlink="http://www.w3.org/1999/xlink">
<g id="graph0" class="graph" transform="scale(1.0 1.0) rotate(0) translate(4 753.18)">
<title>12_Abfertigung_Ankunftsgepäck</title>
<polygon fill="white" stroke="transparent" points="-4,4 -4,-753.18 637.5,-753.18 637.5,4 -4,4"/>
<!-- ExclusiveG\nateway_0hg\n4rss_Exclu\nsiveGatewa\ny_1lw95o2 -->
<g id="node1" class="node">
<title>ExclusiveG\nateway_0hg\n4rss_Exclu\nsiveGatewa\ny_1lw95o2</title>
<polygon fill="none" stroke="black" stroke-dasharray="5,2" points="0,-321.79 0,-494.79 353,-494.79 353,-321.79 0,-321.79"/>
<text text-anchor="middle" x="41.5" y="-434.59" font-family="Times New Roman,serif" font-size="14.00">ExclusiveG</text>
<text text-anchor="middle" x="41.5" y="-419.59" font-family="Times New Roman,serif" font-size="14.00">ateway_0hg</text>
<text text-anchor="middle" x="41.5" y="-404.59" font-family="Times New Roman,serif" font-size="14.00">4rss_Exclu</text>
<text text-anchor="middle" x="41.5" y="-389.59" font-family="Times New Roman,serif" font-size="14.00">siveGatewa</text>
<text text-anchor="middle" x="41.5" y="-374.59" font-family="Times New Roman,serif" font-size="14.00">y_1lw95o2</text>
<polyline fill="none" stroke="black" stroke-dasharray="5,2" points="83,-321.79 83,-494.79 "/>
<text text-anchor="middle" x="122" y="-419.59" font-family="Times New Roman,serif" font-size="14.00">Flugzeug:L</text>
<text text-anchor="middle" x="122" y="-404.59" font-family="Times New Roman,serif" font-size="14.00">ane_0ivbj2</text>
<text text-anchor="middle" x="122" y="-389.59" font-family="Times New Roman,serif" font-size="14.00">h</text>
<polyline fill="none" stroke="black" stroke-dasharray="5,2" points="161,-321.79 161,-494.79 "/>
<text text-anchor="middle" x="257" y="-479.59" font-family="Times New Roman,serif" font-size="14.00">Inclusives_Gateway_/_SPLIT: </text>
<text text-anchor="middle" x="257" y="-464.59" font-family="Times New Roman,serif" font-size="14.00"> AND </text>
<text text-anchor="middle" x="257" y="-449.59" font-family="Times New Roman,serif" font-size="14.00">(</text>
<text text-anchor="middle" x="257" y="-434.59" font-family="Times New Roman,serif" font-size="14.00">Gepäck_bewegen</text>
<text text-anchor="middle" x="257" y="-419.59" font-family="Times New Roman,serif" font-size="14.00">Gepäck_bewegen</text>
<text text-anchor="middle" x="257" y="-404.59" font-family="Times New Roman,serif" font-size="14.00">Inclusives_Gateway_/_JOIN)</text>
<text text-anchor="middle" x="257" y="-389.59" font-family="Times New Roman,serif" font-size="14.00"> AND </text>
<text text-anchor="middle" x="257" y="-374.59" font-family="Times New Roman,serif" font-size="14.00">(</text>
<text text-anchor="middle" x="257" y="-359.59" font-family="Times New Roman,serif" font-size="14.00">Gepäck_bewegen</text>
<text text-anchor="middle" x="257" y="-344.59" font-family="Times New Roman,serif" font-size="14.00">Gepäck_bewegen</text>
<text text-anchor="middle" x="257" y="-329.59" font-family="Times New Roman,serif" font-size="14.00">Inclusives_Gateway_/_JOIN)</text>
</g>
<!-- Task_14duu\nc8 -->
<g id="node5" class="node">
<title>Task_14duu\nc8</title>
<polygon fill="lightgrey" stroke="black" points="36.5,-215.89 36.5,-268.89 316.5,-268.89 316.5,-215.89 36.5,-215.89"/>
<text text-anchor="middle" x="79.5" y="-246.19" font-family="Times New Roman,serif" font-size="14.00">Task_14duu</text>
<text text-anchor="middle" x="79.5" y="-231.19" font-family="Times New Roman,serif" font-size="14.00">c8</text>
<polyline fill="none" stroke="black" points="122.5,-215.89 122.5,-268.89 "/>
<text text-anchor="middle" x="161.5" y="-253.69" font-family="Times New Roman,serif" font-size="14.00">Flugzeug:L</text>
<text text-anchor="middle" x="161.5" y="-238.69" font-family="Times New Roman,serif" font-size="14.00">ane_0ivbj2</text>
<text text-anchor="middle" x="161.5" y="-223.69" font-family="Times New Roman,serif" font-size="14.00">h</text>
<polyline fill="none" stroke="black" points="200.5,-215.89 200.5,-268.89 "/>
<text text-anchor="middle" x="258.5" y="-238.69" font-family="Times New Roman,serif" font-size="14.00">Gepäck_bewegen</text>
</g>
<!-- ExclusiveG\nateway_0hg\n4rss_Exclu\nsiveGatewa\ny_1lw95o2&#45;&gt;Task_14duu\nc8 -->
<g id="edge1" class="edge">
<title>ExclusiveG\nateway_0hg\n4rss_Exclu\nsiveGatewa\ny_1lw95o2&#45;&gt;Task_14duu\nc8</title>
<path fill="none" stroke="black" d="M176.5,-321.5C176.5,-306.49 176.5,-291.66 176.5,-279.02"/>
<polygon fill="black" stroke="black" points="180,-278.95 176.5,-268.95 173,-278.95 180,-278.95"/>
</g>
<!-- ExclusiveG\nateway_1hu\n5b2b -->
<g id="node2" class="node">
<title>ExclusiveG\nateway_1hu\n5b2b</title>
<polygon fill="lightgrey" stroke="black" points="339.5,-567.29 194.05,-549.29 339.5,-531.29 484.95,-549.29 339.5,-567.29"/>
<text text-anchor="middle" x="339.5" y="-545.59" font-family="Times New Roman,serif" font-size="14.00">Transitgepäck?_/_SPLIT</text>
</g>
<!-- ExclusiveG\nateway_1hu\n5b2b&#45;&gt;ExclusiveG\nateway_0hg\n4rss_Exclu\nsiveGatewa\ny_1lw95o2 -->
<g id="edge3" class="edge">
<title>ExclusiveG\nateway_1hu\n5b2b&#45;&gt;ExclusiveG\nateway_0hg\n4rss_Exclu\nsiveGatewa\ny_1lw95o2</title>
<path fill="none" stroke="black" d="M322.06,-533.41C312.2,-525 298.95,-513.71 284.46,-501.35"/>
<polygon fill="black" stroke="black" points="286.66,-498.63 276.78,-494.8 282.12,-503.95 286.66,-498.63"/>
</g>
<!-- Task_1sfel\nvj -->
<g id="node3" class="node">
<title>Task_1sfel\nvj</title>
<polygon fill="lightgrey" stroke="black" points="371.5,-381.79 371.5,-434.79 633.5,-434.79 633.5,-381.79 371.5,-381.79"/>
<text text-anchor="middle" x="410.5" y="-412.09" font-family="Times New Roman,serif" font-size="14.00">Task_1sfel</text>
<text text-anchor="middle" x="410.5" y="-397.09" font-family="Times New Roman,serif" font-size="14.00">vj</text>
<polyline fill="none" stroke="black" points="449.5,-381.79 449.5,-434.79 "/>
<text text-anchor="middle" x="488.5" y="-419.59" font-family="Times New Roman,serif" font-size="14.00">Flugzeug:L</text>
<text text-anchor="middle" x="488.5" y="-404.59" font-family="Times New Roman,serif" font-size="14.00">ane_0ivbj2</text>
<text text-anchor="middle" x="488.5" y="-389.59" font-family="Times New Roman,serif" font-size="14.00">h</text>
<polyline fill="none" stroke="black" points="527.5,-381.79 527.5,-434.79 "/>
<text text-anchor="middle" x="580.5" y="-404.59" font-family="Times New Roman,serif" font-size="14.00">Sonstige_Tasks</text>
</g>
<!-- ExclusiveG\nateway_1hu\n5b2b&#45;&gt;Task_1sfel\nvj -->
<g id="edge2" class="edge">
<title>ExclusiveG\nateway_1hu\n5b2b&#45;&gt;Task_1sfel\nvj</title>
<path fill="none" stroke="black" d="M356.94,-533.41C382.49,-511.63 430.72,-470.5 464.64,-441.57"/>
<polygon fill="black" stroke="black" points="467.17,-444.01 472.51,-434.86 462.63,-438.69 467.17,-444.01"/>
</g>
<!-- EndEvent_0\nnxtkp5 -->
<g id="node8" class="node">
<title>EndEvent_0\nnxtkp5</title>
<ellipse fill="lightgrey" stroke="black" cx="502.5" cy="-242.39" rx="42.79" ry="42.79"/>
<text text-anchor="middle" x="502.5" y="-238.69" font-family="Times New Roman,serif" font-size="14.00">Abbruch</text>
</g>
<!-- Task_1sfel\nvj&#45;&gt;EndEvent_0\nnxtkp5 -->
<g id="edge4" class="edge">
<title>Task_1sfel\nvj&#45;&gt;EndEvent_0\nnxtkp5</title>
<path fill="none" stroke="black" d="M502.5,-381.68C502.5,-358.75 502.5,-324.4 502.5,-295.68"/>
<polygon fill="black" stroke="black" points="506,-295.39 502.5,-285.39 499,-295.39 506,-295.39"/>
</g>
<!-- Task_1eo6u\nx7 -->
<g id="node4" class="node">
<title>Task_1eo6u\nx7</title>
<polygon fill="lightgrey" stroke="black" points="33.5,-94.99 33.5,-162.99 319.5,-162.99 319.5,-94.99 33.5,-94.99"/>
<text text-anchor="middle" x="76.5" y="-132.79" font-family="Times New Roman,serif" font-size="14.00">Task_1eo6u</text>
<text text-anchor="middle" x="76.5" y="-117.79" font-family="Times New Roman,serif" font-size="14.00">x7</text>
<polyline fill="none" stroke="black" points="119.5,-94.99 119.5,-162.99 "/>
<text text-anchor="middle" x="161.5" y="-147.79" font-family="Times New Roman,serif" font-size="14.00">Gepäckabfe</text>
<text text-anchor="middle" x="161.5" y="-132.79" font-family="Times New Roman,serif" font-size="14.00">rtigungsha</text>
<text text-anchor="middle" x="161.5" y="-117.79" font-family="Times New Roman,serif" font-size="14.00">lle:Lane_0</text>
<text text-anchor="middle" x="161.5" y="-102.79" font-family="Times New Roman,serif" font-size="14.00">pcbte7</text>
<polyline fill="none" stroke="black" points="203.5,-94.99 203.5,-162.99 "/>
<text text-anchor="middle" x="261.5" y="-125.29" font-family="Times New Roman,serif" font-size="14.00">Gepäck_bewegen</text>
</g>
<!-- EndEvent_0\nxtdnk4 -->
<g id="node7" class="node">
<title>EndEvent_0\nxtdnk4</title>
<ellipse fill="lightgrey" stroke="black" cx="176.5" cy="-29.25" rx="29.5" ry="29.5"/>
<text text-anchor="middle" x="176.5" y="-25.55" font-family="Times New Roman,serif" font-size="14.00">Ende</text>
</g>
<!-- Task_1eo6u\nx7&#45;&gt;EndEvent_0\nxtdnk4 -->
<g id="edge5" class="edge">
<title>Task_1eo6u\nx7&#45;&gt;EndEvent_0\nxtdnk4</title>
<path fill="none" stroke="black" d="M176.5,-94.9C176.5,-86.55 176.5,-77.52 176.5,-68.92"/>
<polygon fill="black" stroke="black" points="180,-68.73 176.5,-58.73 173,-68.73 180,-68.73"/>
</g>
<!-- Task_14duu\nc8&#45;&gt;Task_1eo6u\nx7 -->
<g id="edge6" class="edge">
<title>Task_14duu\nc8&#45;&gt;Task_1eo6u\nx7</title>
<path fill="none" stroke="black" d="M176.5,-215.83C176.5,-203.22 176.5,-187.66 176.5,-173.26"/>
<polygon fill="black" stroke="black" points="180,-173.05 176.5,-163.05 173,-173.05 180,-173.05"/>
</g>
<!-- Task_0j5ov\np3 -->
<g id="node6" class="node">
<title>Task_0j5ov\np3</title>
<polygon fill="lightgrey" stroke="black" points="189.5,-603.79 189.5,-656.79 489.5,-656.79 489.5,-603.79 189.5,-603.79"/>
<text text-anchor="middle" x="231" y="-634.09" font-family="Times New Roman,serif" font-size="14.00">Task_0j5ov</text>
<text text-anchor="middle" x="231" y="-619.09" font-family="Times New Roman,serif" font-size="14.00">p3</text>
<polyline fill="none" stroke="black" points="272.5,-603.79 272.5,-656.79 "/>
<text text-anchor="middle" x="311.5" y="-641.59" font-family="Times New Roman,serif" font-size="14.00">Flugzeug:L</text>
<text text-anchor="middle" x="311.5" y="-626.59" font-family="Times New Roman,serif" font-size="14.00">ane_0ivbj2</text>
<text text-anchor="middle" x="311.5" y="-611.59" font-family="Times New Roman,serif" font-size="14.00">h</text>
<polyline fill="none" stroke="black" points="350.5,-603.79 350.5,-656.79 "/>
<text text-anchor="middle" x="420" y="-626.59" font-family="Times New Roman,serif" font-size="14.00">Gegenstand_bewegen</text>
</g>
<!-- Task_0j5ov\np3&#45;&gt;ExclusiveG\nateway_1hu\n5b2b -->
<g id="edge7" class="edge">
<title>Task_0j5ov\np3&#45;&gt;ExclusiveG\nateway_1hu\n5b2b</title>
<path fill="none" stroke="black" d="M339.5,-603.42C339.5,-595.19 339.5,-586.07 339.5,-577.73"/>
<polygon fill="black" stroke="black" points="343,-577.73 339.5,-567.73 336,-577.73 343,-577.73"/>
</g>
<!-- StartEvent\n_12 -->
<g id="node9" class="node">
<title>StartEvent\n_12</title>
<ellipse fill="lightgrey" stroke="black" cx="339.5" cy="-721.23" rx="27.9" ry="27.9"/>
<text text-anchor="middle" x="339.5" y="-717.53" font-family="Times New Roman,serif" font-size="14.00">Start</text>
</g>
<!-- StartEvent\n_12&#45;&gt;Task_0j5ov\np3 -->
<g id="edge8" class="edge">
<title>StartEvent\n_12&#45;&gt;Task_0j5ov\np3</title>
<path fill="none" stroke="black" d="M339.5,-693.06C339.5,-684.93 339.5,-675.88 339.5,-667.27"/>
<polygon fill="black" stroke="black" points="343,-667.07 339.5,-657.07 336,-667.07 343,-667.07"/>
</g>
</g>
</svg>
