<svg width="600px" height="1593px"
 viewBox="0.00 0.00 376.00 998.39" xmlns="http://www.w3.org/2000/svg" xmlns:xlink="http://www.w3.org/1999/xlink">
<g id="graph0" class="graph" transform="scale(1.0 1.0) rotate(0) translate(4 994.39)">
<title>15_Passagierabfertigung_am_CheckIn&#45;Automaten_inklusive_Gepäckaufgabe</title>
<polygon fill="white" stroke="transparent" points="-4,4 -4,-994.39 372,-994.39 372,4 -4,4"/>
<!-- Task_1x558\nhw -->
<g id="node1" class="node">
<title>Task_1x558\nhw</title>
<polygon fill="lightgrey" stroke="black" points="43.5,-844.99 43.5,-897.99 324.5,-897.99 324.5,-844.99 43.5,-844.99"/>
<text text-anchor="middle" x="86.5" y="-875.29" font-family="Times New Roman,serif" font-size="14.00">Task_1x558</text>
<text text-anchor="middle" x="86.5" y="-860.29" font-family="Times New Roman,serif" font-size="14.00">hw</text>
<polyline fill="none" stroke="black" points="129.5,-844.99 129.5,-897.99 "/>
<text text-anchor="middle" x="171" y="-882.79" font-family="Times New Roman,serif" font-size="14.00">Passagier:</text>
<text text-anchor="middle" x="171" y="-867.79" font-family="Times New Roman,serif" font-size="14.00">Lane_1xv2r</text>
<text text-anchor="middle" x="171" y="-852.79" font-family="Times New Roman,serif" font-size="14.00">s5</text>
<polyline fill="none" stroke="black" points="212.5,-844.99 212.5,-897.99 "/>
<text text-anchor="middle" x="268.5" y="-867.79" font-family="Times New Roman,serif" font-size="14.00">Person_bewegen</text>
</g>
<!-- Task_0qju5\new -->
<g id="node6" class="node">
<title>Task_0qju5\new</title>
<polygon fill="lightgrey" stroke="black" points="16,-754.99 16,-807.99 352,-807.99 352,-754.99 16,-754.99"/>
<text text-anchor="middle" x="57.5" y="-785.29" font-family="Times New Roman,serif" font-size="14.00">Task_0qju5</text>
<text text-anchor="middle" x="57.5" y="-770.29" font-family="Times New Roman,serif" font-size="14.00">ew</text>
<polyline fill="none" stroke="black" points="99,-754.99 99,-807.99 "/>
<text text-anchor="middle" x="140.5" y="-792.79" font-family="Times New Roman,serif" font-size="14.00">Passagier:</text>
<text text-anchor="middle" x="140.5" y="-777.79" font-family="Times New Roman,serif" font-size="14.00">Lane_1xv2r</text>
<text text-anchor="middle" x="140.5" y="-762.79" font-family="Times New Roman,serif" font-size="14.00">s5</text>
<polyline fill="none" stroke="black" points="182,-754.99 182,-807.99 "/>
<text text-anchor="middle" x="267" y="-777.79" font-family="Times New Roman,serif" font-size="14.00">Flughafenbereich_erreichen</text>
</g>
<!-- Task_1x558\nhw&#45;&gt;Task_0qju5\new -->
<g id="edge1" class="edge">
<title>Task_1x558\nhw&#45;&gt;Task_0qju5\new</title>
<path fill="none" stroke="black" d="M184,-844.57C184,-836.33 184,-827.07 184,-818.27"/>
<polygon fill="black" stroke="black" points="187.5,-818.24 184,-808.24 180.5,-818.24 187.5,-818.24"/>
</g>
<!-- EndEvent_1\nbr9845 -->
<g id="node2" class="node">
<title>EndEvent_1\nbr9845</title>
<ellipse fill="lightgrey" stroke="black" cx="184" cy="-29.25" rx="29.5" ry="29.5"/>
<text text-anchor="middle" x="184" y="-25.55" font-family="Times New Roman,serif" font-size="14.00">Ende</text>
</g>
<!-- Task_11zxy\ndh -->
<g id="node3" class="node">
<title>Task_11zxy\ndh</title>
<polygon fill="lightgrey" stroke="black" points="47,-574.99 47,-627.99 321,-627.99 321,-574.99 47,-574.99"/>
<text text-anchor="middle" x="89.5" y="-605.29" font-family="Times New Roman,serif" font-size="14.00">Task_11zxy</text>
<text text-anchor="middle" x="89.5" y="-590.29" font-family="Times New Roman,serif" font-size="14.00">dh</text>
<polyline fill="none" stroke="black" points="132,-574.99 132,-627.99 "/>
<text text-anchor="middle" x="173.5" y="-612.79" font-family="Times New Roman,serif" font-size="14.00">Passagier:</text>
<text text-anchor="middle" x="173.5" y="-597.79" font-family="Times New Roman,serif" font-size="14.00">Lane_1xv2r</text>
<text text-anchor="middle" x="173.5" y="-582.79" font-family="Times New Roman,serif" font-size="14.00">s5</text>
<polyline fill="none" stroke="black" points="215,-574.99 215,-627.99 "/>
<text text-anchor="middle" x="268" y="-597.79" font-family="Times New Roman,serif" font-size="14.00">Sonstige_Tasks</text>
</g>
<!-- Task_1absj\nxn -->
<g id="node7" class="node">
<title>Task_1absj\nxn</title>
<polygon fill="lightgrey" stroke="black" points="32.5,-484.99 32.5,-537.99 335.5,-537.99 335.5,-484.99 32.5,-484.99"/>
<text text-anchor="middle" x="73" y="-515.29" font-family="Times New Roman,serif" font-size="14.00">Task_1absj</text>
<text text-anchor="middle" x="73" y="-500.29" font-family="Times New Roman,serif" font-size="14.00">xn</text>
<polyline fill="none" stroke="black" points="113.5,-484.99 113.5,-537.99 "/>
<text text-anchor="middle" x="155" y="-522.79" font-family="Times New Roman,serif" font-size="14.00">Check&#45;In&#45;A</text>
<text text-anchor="middle" x="155" y="-507.79" font-family="Times New Roman,serif" font-size="14.00">utomat:Lan</text>
<text text-anchor="middle" x="155" y="-492.79" font-family="Times New Roman,serif" font-size="14.00">e_06gwcht</text>
<polyline fill="none" stroke="black" points="196.5,-484.99 196.5,-537.99 "/>
<text text-anchor="middle" x="266" y="-507.79" font-family="Times New Roman,serif" font-size="14.00">Dokument_bearbeiten</text>
</g>
<!-- Task_11zxy\ndh&#45;&gt;Task_1absj\nxn -->
<g id="edge2" class="edge">
<title>Task_11zxy\ndh&#45;&gt;Task_1absj\nxn</title>
<path fill="none" stroke="black" d="M184,-574.57C184,-566.33 184,-557.07 184,-548.27"/>
<polygon fill="black" stroke="black" points="187.5,-548.24 184,-538.24 180.5,-548.24 187.5,-548.24"/>
</g>
<!-- Task_1qtdv\nq3 -->
<g id="node4" class="node">
<title>Task_1qtdv\nq3</title>
<polygon fill="lightgrey" stroke="black" points="44.5,-199.99 44.5,-252.99 323.5,-252.99 323.5,-199.99 44.5,-199.99"/>
<text text-anchor="middle" x="86.5" y="-230.29" font-family="Times New Roman,serif" font-size="14.00">Task_1qtdv</text>
<text text-anchor="middle" x="86.5" y="-215.29" font-family="Times New Roman,serif" font-size="14.00">q3</text>
<polyline fill="none" stroke="black" points="128.5,-199.99 128.5,-252.99 "/>
<text text-anchor="middle" x="170" y="-237.79" font-family="Times New Roman,serif" font-size="14.00">Passagier:</text>
<text text-anchor="middle" x="170" y="-222.79" font-family="Times New Roman,serif" font-size="14.00">Lane_1xv2r</text>
<text text-anchor="middle" x="170" y="-207.79" font-family="Times New Roman,serif" font-size="14.00">s5</text>
<polyline fill="none" stroke="black" points="211.5,-199.99 211.5,-252.99 "/>
<text text-anchor="middle" x="267.5" y="-222.79" font-family="Times New Roman,serif" font-size="14.00">Person_bewegen</text>
</g>
<!-- Task_07odh\n8j -->
<g id="node10" class="node">
<title>Task_07odh\n8j</title>
<polygon fill="lightgrey" stroke="black" points="43,-94.99 43,-162.99 325,-162.99 325,-94.99 43,-94.99"/>
<text text-anchor="middle" x="86.5" y="-132.79" font-family="Times New Roman,serif" font-size="14.00">Task_07odh</text>
<text text-anchor="middle" x="86.5" y="-117.79" font-family="Times New Roman,serif" font-size="14.00">8j</text>
<polyline fill="none" stroke="black" points="130,-94.99 130,-162.99 "/>
<text text-anchor="middle" x="171.5" y="-147.79" font-family="Times New Roman,serif" font-size="14.00">Sicherheit</text>
<text text-anchor="middle" x="171.5" y="-132.79" font-family="Times New Roman,serif" font-size="14.00">sbereich:L</text>
<text text-anchor="middle" x="171.5" y="-117.79" font-family="Times New Roman,serif" font-size="14.00">ane_14akxu</text>
<text text-anchor="middle" x="171.5" y="-102.79" font-family="Times New Roman,serif" font-size="14.00">8</text>
<polyline fill="none" stroke="black" points="213,-94.99 213,-162.99 "/>
<text text-anchor="middle" x="269" y="-125.29" font-family="Times New Roman,serif" font-size="14.00">Person_bewegen</text>
</g>
<!-- Task_1qtdv\nq3&#45;&gt;Task_07odh\n8j -->
<g id="edge3" class="edge">
<title>Task_1qtdv\nq3&#45;&gt;Task_07odh\n8j</title>
<path fill="none" stroke="black" d="M184,-199.9C184,-191.71 184,-182.41 184,-173.32"/>
<polygon fill="black" stroke="black" points="187.5,-173.22 184,-163.22 180.5,-173.22 187.5,-173.22"/>
</g>
<!-- ExclusiveG\nateway_0sq\nl7wk_Exclu\nsiveGatewa\ny_0xh26jt -->
<g id="node5" class="node">
<title>ExclusiveG\nateway_0sq\nl7wk_Exclu\nsiveGatewa\ny_0xh26jt</title>
<polygon fill="none" stroke="black" stroke-dasharray="5,2" points="0,-289.99 0,-447.99 368,-447.99 368,-289.99 0,-289.99"/>
<text text-anchor="middle" x="41.5" y="-395.29" font-family="Times New Roman,serif" font-size="14.00">ExclusiveG</text>
<text text-anchor="middle" x="41.5" y="-380.29" font-family="Times New Roman,serif" font-size="14.00">ateway_0sq</text>
<text text-anchor="middle" x="41.5" y="-365.29" font-family="Times New Roman,serif" font-size="14.00">l7wk_Exclu</text>
<text text-anchor="middle" x="41.5" y="-350.29" font-family="Times New Roman,serif" font-size="14.00">siveGatewa</text>
<text text-anchor="middle" x="41.5" y="-335.29" font-family="Times New Roman,serif" font-size="14.00">y_0xh26jt</text>
<polyline fill="none" stroke="black" stroke-dasharray="5,2" points="83,-289.99 83,-447.99 "/>
<text text-anchor="middle" x="127.5" y="-402.79" font-family="Times New Roman,serif" font-size="14.00">Check&#45;In&#45;A</text>
<text text-anchor="middle" x="127.5" y="-387.79" font-family="Times New Roman,serif" font-size="14.00">utomat:Lan</text>
<text text-anchor="middle" x="127.5" y="-372.79" font-family="Times New Roman,serif" font-size="14.00">e_06gwcht&amp;</text>
<text text-anchor="middle" x="127.5" y="-357.79" font-family="Times New Roman,serif" font-size="14.00">Passagier:</text>
<text text-anchor="middle" x="127.5" y="-342.79" font-family="Times New Roman,serif" font-size="14.00">Lane_1xv2r</text>
<text text-anchor="middle" x="127.5" y="-327.79" font-family="Times New Roman,serif" font-size="14.00">s5</text>
<polyline fill="none" stroke="black" stroke-dasharray="5,2" points="172,-289.99 172,-447.99 "/>
<text text-anchor="middle" x="270" y="-432.79" font-family="Times New Roman,serif" font-size="14.00">Gepäck_vorhanden?_/_SPLIT: </text>
<text text-anchor="middle" x="270" y="-417.79" font-family="Times New Roman,serif" font-size="14.00"> XOR </text>
<text text-anchor="middle" x="270" y="-402.79" font-family="Times New Roman,serif" font-size="14.00">(</text>
<text text-anchor="middle" x="270" y="-387.79" font-family="Times New Roman,serif" font-size="14.00">Gepäck_vorhanden?_/_JOIN)</text>
<text text-anchor="middle" x="270" y="-372.79" font-family="Times New Roman,serif" font-size="14.00"> XOR </text>
<text text-anchor="middle" x="270" y="-357.79" font-family="Times New Roman,serif" font-size="14.00">(</text>
<text text-anchor="middle" x="270" y="-342.79" font-family="Times New Roman,serif" font-size="14.00">Dokument_bearbeiten</text>
<text text-anchor="middle" x="270" y="-327.79" font-family="Times New Roman,serif" font-size="14.00">Dokument_bearbeiten</text>
<text text-anchor="middle" x="270" y="-312.79" font-family="Times New Roman,serif" font-size="14.00">Gepäck_bewegen</text>
<text text-anchor="middle" x="270" y="-297.79" font-family="Times New Roman,serif" font-size="14.00">Gepäck_vorhanden?_/_JOIN)</text>
</g>
<!-- ExclusiveG\nateway_0sq\nl7wk_Exclu\nsiveGatewa\ny_0xh26jt&#45;&gt;Task_1qtdv\nq3 -->
<g id="edge4" class="edge">
<title>ExclusiveG\nateway_0sq\nl7wk_Exclu\nsiveGatewa\ny_0xh26jt&#45;&gt;Task_1qtdv\nq3</title>
<path fill="none" stroke="black" d="M184,-289.94C184,-280.72 184,-271.67 184,-263.46"/>
<polygon fill="black" stroke="black" points="187.5,-263.2 184,-253.2 180.5,-263.2 187.5,-263.2"/>
</g>
<!-- Task_1b3fd\n4v -->
<g id="node9" class="node">
<title>Task_1b3fd\n4v</title>
<polygon fill="lightgrey" stroke="black" points="55.5,-664.99 55.5,-717.99 312.5,-717.99 312.5,-664.99 55.5,-664.99"/>
<text text-anchor="middle" x="98" y="-695.29" font-family="Times New Roman,serif" font-size="14.00">Task_1b3fd</text>
<text text-anchor="middle" x="98" y="-680.29" font-family="Times New Roman,serif" font-size="14.00">4v</text>
<polyline fill="none" stroke="black" points="140.5,-664.99 140.5,-717.99 "/>
<text text-anchor="middle" x="182" y="-702.79" font-family="Times New Roman,serif" font-size="14.00">Check&#45;In&#45;A</text>
<text text-anchor="middle" x="182" y="-687.79" font-family="Times New Roman,serif" font-size="14.00">utomat:Lan</text>
<text text-anchor="middle" x="182" y="-672.79" font-family="Times New Roman,serif" font-size="14.00">e_06gwcht</text>
<polyline fill="none" stroke="black" points="223.5,-664.99 223.5,-717.99 "/>
<text text-anchor="middle" x="268" y="-687.79" font-family="Times New Roman,serif" font-size="14.00">Kontrollieren</text>
</g>
<!-- Task_0qju5\new&#45;&gt;Task_1b3fd\n4v -->
<g id="edge5" class="edge">
<title>Task_0qju5\new&#45;&gt;Task_1b3fd\n4v</title>
<path fill="none" stroke="black" d="M184,-754.57C184,-746.33 184,-737.07 184,-728.27"/>
<polygon fill="black" stroke="black" points="187.5,-728.24 184,-718.24 180.5,-728.24 187.5,-728.24"/>
</g>
<!-- Task_1absj\nxn&#45;&gt;ExclusiveG\nateway_0sq\nl7wk_Exclu\nsiveGatewa\ny_0xh26jt -->
<g id="edge6" class="edge">
<title>Task_1absj\nxn&#45;&gt;ExclusiveG\nateway_0sq\nl7wk_Exclu\nsiveGatewa\ny_0xh26jt</title>
<path fill="none" stroke="black" d="M184,-484.72C184,-476.9 184,-467.84 184,-458.29"/>
<polygon fill="black" stroke="black" points="187.5,-458.2 184,-448.2 180.5,-458.2 187.5,-458.2"/>
</g>
<!-- StartEvent\n_15 -->
<g id="node8" class="node">
<title>StartEvent\n_15</title>
<ellipse fill="lightgrey" stroke="black" cx="184" cy="-962.44" rx="27.9" ry="27.9"/>
<text text-anchor="middle" x="184" y="-958.74" font-family="Times New Roman,serif" font-size="14.00">Start</text>
</g>
<!-- StartEvent\n_15&#45;&gt;Task_1x558\nhw -->
<g id="edge7" class="edge">
<title>StartEvent\n_15&#45;&gt;Task_1x558\nhw</title>
<path fill="none" stroke="black" d="M184,-934.27C184,-926.14 184,-917.08 184,-908.47"/>
<polygon fill="black" stroke="black" points="187.5,-908.28 184,-898.28 180.5,-908.28 187.5,-908.28"/>
</g>
<!-- Task_1b3fd\n4v&#45;&gt;Task_11zxy\ndh -->
<g id="edge8" class="edge">
<title>Task_1b3fd\n4v&#45;&gt;Task_11zxy\ndh</title>
<path fill="none" stroke="black" d="M184,-664.57C184,-656.33 184,-647.07 184,-638.27"/>
<polygon fill="black" stroke="black" points="187.5,-638.24 184,-628.24 180.5,-638.24 187.5,-638.24"/>
</g>
<!-- Task_07odh\n8j&#45;&gt;EndEvent_1\nbr9845 -->
<g id="edge9" class="edge">
<title>Task_07odh\n8j&#45;&gt;EndEvent_1\nbr9845</title>
<path fill="none" stroke="black" d="M184,-94.9C184,-86.55 184,-77.52 184,-68.92"/>
<polygon fill="black" stroke="black" points="187.5,-68.73 184,-58.73 180.5,-68.73 187.5,-68.73"/>
</g>
</g>
</svg>
