<svg width="600px" height="1517px"
 viewBox="0.00 0.00 371.00 938.39" xmlns="http://www.w3.org/2000/svg" xmlns:xlink="http://www.w3.org/1999/xlink">
<g id="graph0" class="graph" transform="scale(1.0 1.0) rotate(0) translate(4 934.39)">
<title>16_Passagierabfertigung_Bahnhof&#45;Check&#45;In</title>
<polygon fill="white" stroke="transparent" points="-4,4 -4,-934.39 367,-934.39 367,4 -4,4"/>
<!-- Task_0642w\ndt -->
<g id="node1" class="node">
<title>Task_0642w\ndt</title>
<polygon fill="lightgrey" stroke="black" points="41.5,-484.99 41.5,-552.99 321.5,-552.99 321.5,-484.99 41.5,-484.99"/>
<text text-anchor="middle" x="86" y="-522.79" font-family="Times New Roman,serif" font-size="14.00">Task_0642w</text>
<text text-anchor="middle" x="86" y="-507.79" font-family="Times New Roman,serif" font-size="14.00">dt</text>
<polyline fill="none" stroke="black" points="130.5,-484.99 130.5,-552.99 "/>
<text text-anchor="middle" x="173" y="-537.79" font-family="Times New Roman,serif" font-size="14.00">Bahnhof&#45;Ch</text>
<text text-anchor="middle" x="173" y="-522.79" font-family="Times New Roman,serif" font-size="14.00">eck&#45;In&#45;Sch</text>
<text text-anchor="middle" x="173" y="-507.79" font-family="Times New Roman,serif" font-size="14.00">alter:Lane</text>
<text text-anchor="middle" x="173" y="-492.79" font-family="Times New Roman,serif" font-size="14.00">_0x146yr</text>
<polyline fill="none" stroke="black" points="215.5,-484.99 215.5,-552.99 "/>
<text text-anchor="middle" x="268.5" y="-515.29" font-family="Times New Roman,serif" font-size="14.00">Sonstige_Tasks</text>
</g>
<!-- Task_02c25\nyd -->
<g id="node2" class="node">
<title>Task_02c25\nyd</title>
<polygon fill="lightgrey" stroke="black" points="26.5,-379.99 26.5,-447.99 336.5,-447.99 336.5,-379.99 26.5,-379.99"/>
<text text-anchor="middle" x="69.5" y="-417.79" font-family="Times New Roman,serif" font-size="14.00">Task_02c25</text>
<text text-anchor="middle" x="69.5" y="-402.79" font-family="Times New Roman,serif" font-size="14.00">yd</text>
<polyline fill="none" stroke="black" points="112.5,-379.99 112.5,-447.99 "/>
<text text-anchor="middle" x="155" y="-432.79" font-family="Times New Roman,serif" font-size="14.00">Bahnhof&#45;Ch</text>
<text text-anchor="middle" x="155" y="-417.79" font-family="Times New Roman,serif" font-size="14.00">eck&#45;In&#45;Sch</text>
<text text-anchor="middle" x="155" y="-402.79" font-family="Times New Roman,serif" font-size="14.00">alter:Lane</text>
<text text-anchor="middle" x="155" y="-387.79" font-family="Times New Roman,serif" font-size="14.00">_0x146yr</text>
<polyline fill="none" stroke="black" points="197.5,-379.99 197.5,-447.99 "/>
<text text-anchor="middle" x="267" y="-410.29" font-family="Times New Roman,serif" font-size="14.00">Dokument_bearbeiten</text>
</g>
<!-- Task_0642w\ndt&#45;&gt;Task_02c25\nyd -->
<g id="edge1" class="edge">
<title>Task_0642w\ndt&#45;&gt;Task_02c25\nyd</title>
<path fill="none" stroke="black" d="M181.5,-484.84C181.5,-476.38 181.5,-467.17 181.5,-458.29"/>
<polygon fill="black" stroke="black" points="185,-458.09 181.5,-448.09 178,-458.09 185,-458.09"/>
</g>
<!-- ExclusiveG\nateway_08z\nanng_Exclu\nsiveGatewa\ny_0mjm9z3 -->
<g id="node6" class="node">
<title>ExclusiveG\nateway_08z\nanng_Exclu\nsiveGatewa\ny_0mjm9z3</title>
<polygon fill="none" stroke="black" stroke-dasharray="5,2" points="0,-169.99 0,-342.99 363,-342.99 363,-169.99 0,-169.99"/>
<text text-anchor="middle" x="41" y="-282.79" font-family="Times New Roman,serif" font-size="14.00">ExclusiveG</text>
<text text-anchor="middle" x="41" y="-267.79" font-family="Times New Roman,serif" font-size="14.00">ateway_08z</text>
<text text-anchor="middle" x="41" y="-252.79" font-family="Times New Roman,serif" font-size="14.00">anng_Exclu</text>
<text text-anchor="middle" x="41" y="-237.79" font-family="Times New Roman,serif" font-size="14.00">siveGatewa</text>
<text text-anchor="middle" x="41" y="-222.79" font-family="Times New Roman,serif" font-size="14.00">y_0mjm9z3</text>
<polyline fill="none" stroke="black" stroke-dasharray="5,2" points="82,-169.99 82,-342.99 "/>
<text text-anchor="middle" x="124.5" y="-275.29" font-family="Times New Roman,serif" font-size="14.00">Bahnhof&#45;Ch</text>
<text text-anchor="middle" x="124.5" y="-260.29" font-family="Times New Roman,serif" font-size="14.00">eck&#45;In&#45;Sch</text>
<text text-anchor="middle" x="124.5" y="-245.29" font-family="Times New Roman,serif" font-size="14.00">alter:Lane</text>
<text text-anchor="middle" x="124.5" y="-230.29" font-family="Times New Roman,serif" font-size="14.00">_0x146yr</text>
<polyline fill="none" stroke="black" stroke-dasharray="5,2" points="167,-169.99 167,-342.99 "/>
<text text-anchor="middle" x="265" y="-327.79" font-family="Times New Roman,serif" font-size="14.00">Gep채ck_vorhanden?_/_SPLIT: </text>
<text text-anchor="middle" x="265" y="-312.79" font-family="Times New Roman,serif" font-size="14.00"> XOR </text>
<text text-anchor="middle" x="265" y="-297.79" font-family="Times New Roman,serif" font-size="14.00">(</text>
<text text-anchor="middle" x="265" y="-282.79" font-family="Times New Roman,serif" font-size="14.00">Person_bewegen</text>
<text text-anchor="middle" x="265" y="-267.79" font-family="Times New Roman,serif" font-size="14.00">Gep채ck_vorhanden?_/_JOIN)</text>
<text text-anchor="middle" x="265" y="-252.79" font-family="Times New Roman,serif" font-size="14.00"> XOR </text>
<text text-anchor="middle" x="265" y="-237.79" font-family="Times New Roman,serif" font-size="14.00">(</text>
<text text-anchor="middle" x="265" y="-222.79" font-family="Times New Roman,serif" font-size="14.00">Gegenstand_bewegen</text>
<text text-anchor="middle" x="265" y="-207.79" font-family="Times New Roman,serif" font-size="14.00">Gep채ck_bewegen</text>
<text text-anchor="middle" x="265" y="-192.79" font-family="Times New Roman,serif" font-size="14.00">Gegenstand_bewegen</text>
<text text-anchor="middle" x="265" y="-177.79" font-family="Times New Roman,serif" font-size="14.00">Gep채ck_vorhanden?_/_JOIN)</text>
</g>
<!-- Task_02c25\nyd&#45;&gt;ExclusiveG\nateway_08z\nanng_Exclu\nsiveGatewa\ny_0mjm9z3 -->
<g id="edge2" class="edge">
<title>Task_02c25\nyd&#45;&gt;ExclusiveG\nateway_08z\nanng_Exclu\nsiveGatewa\ny_0mjm9z3</title>
<path fill="none" stroke="black" d="M181.5,-379.64C181.5,-371.64 181.5,-362.7 181.5,-353.4"/>
<polygon fill="black" stroke="black" points="185,-353.19 181.5,-343.19 178,-353.19 185,-353.19"/>
</g>
<!-- EndEvent_0\nnb0gp3 -->
<g id="node3" class="node">
<title>EndEvent_0\nnb0gp3</title>
<ellipse fill="lightgrey" stroke="black" cx="181.5" cy="-29.25" rx="29.5" ry="29.5"/>
<text text-anchor="middle" x="181.5" y="-25.55" font-family="Times New Roman,serif" font-size="14.00">Ende</text>
</g>
<!-- Task_0mgig\ndr -->
<g id="node4" class="node">
<title>Task_0mgig\ndr</title>
<polygon fill="lightgrey" stroke="black" points="41,-94.99 41,-132.99 322,-132.99 322,-94.99 41,-94.99"/>
<text text-anchor="middle" x="84" y="-117.79" font-family="Times New Roman,serif" font-size="14.00">Task_0mgig</text>
<text text-anchor="middle" x="84" y="-102.79" font-family="Times New Roman,serif" font-size="14.00">dr</text>
<polyline fill="none" stroke="black" points="127,-94.99 127,-132.99 "/>
<text text-anchor="middle" x="168.5" y="-117.79" font-family="Times New Roman,serif" font-size="14.00">Zug:Lane_1</text>
<text text-anchor="middle" x="168.5" y="-102.79" font-family="Times New Roman,serif" font-size="14.00">rqrxcb</text>
<polyline fill="none" stroke="black" points="210,-94.99 210,-132.99 "/>
<text text-anchor="middle" x="266" y="-110.29" font-family="Times New Roman,serif" font-size="14.00">Person_bewegen</text>
</g>
<!-- Task_0mgig\ndr&#45;&gt;EndEvent_0\nnb0gp3 -->
<g id="edge3" class="edge">
<title>Task_0mgig\ndr&#45;&gt;EndEvent_0\nnb0gp3</title>
<path fill="none" stroke="black" d="M181.5,-94.63C181.5,-86.95 181.5,-77.72 181.5,-68.68"/>
<polygon fill="black" stroke="black" points="185,-68.64 181.5,-58.64 178,-68.64 185,-68.64"/>
</g>
<!-- Task_096od\nnu -->
<g id="node5" class="node">
<title>Task_096od\nnu</title>
<polygon fill="lightgrey" stroke="black" points="37.5,-784.99 37.5,-837.99 325.5,-837.99 325.5,-784.99 37.5,-784.99"/>
<text text-anchor="middle" x="81" y="-815.29" font-family="Times New Roman,serif" font-size="14.00">Task_096od</text>
<text text-anchor="middle" x="81" y="-800.29" font-family="Times New Roman,serif" font-size="14.00">nu</text>
<polyline fill="none" stroke="black" points="124.5,-784.99 124.5,-837.99 "/>
<text text-anchor="middle" x="169" y="-822.79" font-family="Times New Roman,serif" font-size="14.00">Passagier:</text>
<text text-anchor="middle" x="169" y="-807.79" font-family="Times New Roman,serif" font-size="14.00">Lane_0o9xm</text>
<text text-anchor="middle" x="169" y="-792.79" font-family="Times New Roman,serif" font-size="14.00">cy</text>
<polyline fill="none" stroke="black" points="213.5,-784.99 213.5,-837.99 "/>
<text text-anchor="middle" x="269.5" y="-807.79" font-family="Times New Roman,serif" font-size="14.00">Person_bewegen</text>
</g>
<!-- Task_0l8j5\ndg -->
<g id="node7" class="node">
<title>Task_0l8j5\ndg</title>
<polygon fill="lightgrey" stroke="black" points="13,-694.99 13,-747.99 350,-747.99 350,-694.99 13,-694.99"/>
<text text-anchor="middle" x="52" y="-725.29" font-family="Times New Roman,serif" font-size="14.00">Task_0l8j5</text>
<text text-anchor="middle" x="52" y="-710.29" font-family="Times New Roman,serif" font-size="14.00">dg</text>
<polyline fill="none" stroke="black" points="91,-694.99 91,-747.99 "/>
<text text-anchor="middle" x="135.5" y="-732.79" font-family="Times New Roman,serif" font-size="14.00">Passagier:</text>
<text text-anchor="middle" x="135.5" y="-717.79" font-family="Times New Roman,serif" font-size="14.00">Lane_0o9xm</text>
<text text-anchor="middle" x="135.5" y="-702.79" font-family="Times New Roman,serif" font-size="14.00">cy</text>
<polyline fill="none" stroke="black" points="180,-694.99 180,-747.99 "/>
<text text-anchor="middle" x="265" y="-717.79" font-family="Times New Roman,serif" font-size="14.00">Flughafenbereich_erreichen</text>
</g>
<!-- Task_096od\nnu&#45;&gt;Task_0l8j5\ndg -->
<g id="edge4" class="edge">
<title>Task_096od\nnu&#45;&gt;Task_0l8j5\ndg</title>
<path fill="none" stroke="black" d="M181.5,-784.57C181.5,-776.33 181.5,-767.07 181.5,-758.27"/>
<polygon fill="black" stroke="black" points="185,-758.24 181.5,-748.24 178,-758.24 185,-758.24"/>
</g>
<!-- ExclusiveG\nateway_08z\nanng_Exclu\nsiveGatewa\ny_0mjm9z3&#45;&gt;Task_0mgig\ndr -->
<g id="edge5" class="edge">
<title>ExclusiveG\nateway_08z\nanng_Exclu\nsiveGatewa\ny_0mjm9z3&#45;&gt;Task_0mgig\ndr</title>
<path fill="none" stroke="black" d="M181.5,-169.72C181.5,-160.29 181.5,-151.26 181.5,-143.34"/>
<polygon fill="black" stroke="black" points="185,-143.31 181.5,-133.31 178,-143.31 185,-143.31"/>
</g>
<!-- Task_1okp2\nd9 -->
<g id="node8" class="node">
<title>Task_1okp2\nd9</title>
<polygon fill="lightgrey" stroke="black" points="51,-589.99 51,-657.99 312,-657.99 312,-589.99 51,-589.99"/>
<text text-anchor="middle" x="94.5" y="-627.79" font-family="Times New Roman,serif" font-size="14.00">Task_1okp2</text>
<text text-anchor="middle" x="94.5" y="-612.79" font-family="Times New Roman,serif" font-size="14.00">d9</text>
<polyline fill="none" stroke="black" points="138,-589.99 138,-657.99 "/>
<text text-anchor="middle" x="180.5" y="-642.79" font-family="Times New Roman,serif" font-size="14.00">Bahnhof&#45;Ch</text>
<text text-anchor="middle" x="180.5" y="-627.79" font-family="Times New Roman,serif" font-size="14.00">eck&#45;In&#45;Sch</text>
<text text-anchor="middle" x="180.5" y="-612.79" font-family="Times New Roman,serif" font-size="14.00">alter:Lane</text>
<text text-anchor="middle" x="180.5" y="-597.79" font-family="Times New Roman,serif" font-size="14.00">_0x146yr</text>
<polyline fill="none" stroke="black" points="223,-589.99 223,-657.99 "/>
<text text-anchor="middle" x="267.5" y="-620.29" font-family="Times New Roman,serif" font-size="14.00">Kontrollieren</text>
</g>
<!-- Task_0l8j5\ndg&#45;&gt;Task_1okp2\nd9 -->
<g id="edge6" class="edge">
<title>Task_0l8j5\ndg&#45;&gt;Task_1okp2\nd9</title>
<path fill="none" stroke="black" d="M181.5,-694.9C181.5,-686.71 181.5,-677.41 181.5,-668.32"/>
<polygon fill="black" stroke="black" points="185,-668.22 181.5,-658.22 178,-668.22 185,-668.22"/>
</g>
<!-- Task_1okp2\nd9&#45;&gt;Task_0642w\ndt -->
<g id="edge7" class="edge">
<title>Task_1okp2\nd9&#45;&gt;Task_0642w\ndt</title>
<path fill="none" stroke="black" d="M181.5,-589.84C181.5,-581.38 181.5,-572.17 181.5,-563.29"/>
<polygon fill="black" stroke="black" points="185,-563.09 181.5,-553.09 178,-563.09 185,-563.09"/>
</g>
<!-- StartEvent\n_16 -->
<g id="node9" class="node">
<title>StartEvent\n_16</title>
<ellipse fill="lightgrey" stroke="black" cx="181.5" cy="-902.44" rx="27.9" ry="27.9"/>
<text text-anchor="middle" x="181.5" y="-898.74" font-family="Times New Roman,serif" font-size="14.00">Start</text>
</g>
<!-- StartEvent\n_16&#45;&gt;Task_096od\nnu -->
<g id="edge8" class="edge">
<title>StartEvent\n_16&#45;&gt;Task_096od\nnu</title>
<path fill="none" stroke="black" d="M181.5,-874.27C181.5,-866.14 181.5,-857.08 181.5,-848.47"/>
<polygon fill="black" stroke="black" points="185,-848.28 181.5,-838.28 178,-848.28 185,-848.28"/>
</g>
</g>
</svg>
