<svg width="600px" height="1505px"
 viewBox="0.00 0.00 362.00 908.39" xmlns="http://www.w3.org/2000/svg" xmlns:xlink="http://www.w3.org/1999/xlink">
<g id="graph0" class="graph" transform="scale(1.0 1.0) rotate(0) translate(4 904.39)">
<title>23_Passagierabfertigung_Transfer&#45;Check&#45;In</title>
<polygon fill="white" stroke="transparent" points="-4,4 -4,-904.39 358,-904.39 358,4 -4,4"/>
<!-- Task_1np13\nyr -->
<g id="node1" class="node">
<title>Task_1np13\nyr</title>
<polygon fill="lightgrey" stroke="black" points="42,-454.99 42,-522.99 312,-522.99 312,-454.99 42,-454.99"/>
<text text-anchor="middle" x="85" y="-492.79" font-family="Times New Roman,serif" font-size="14.00">Task_1np13</text>
<text text-anchor="middle" x="85" y="-477.79" font-family="Times New Roman,serif" font-size="14.00">yr</text>
<polyline fill="none" stroke="black" points="128,-454.99 128,-522.99 "/>
<text text-anchor="middle" x="167" y="-507.79" font-family="Times New Roman,serif" font-size="14.00">Transfer&#45;C</text>
<text text-anchor="middle" x="167" y="-492.79" font-family="Times New Roman,serif" font-size="14.00">heck&#45;In&#45;Sc</text>
<text text-anchor="middle" x="167" y="-477.79" font-family="Times New Roman,serif" font-size="14.00">halter:Lan</text>
<text text-anchor="middle" x="167" y="-462.79" font-family="Times New Roman,serif" font-size="14.00">e_11ksowl</text>
<polyline fill="none" stroke="black" points="206,-454.99 206,-522.99 "/>
<text text-anchor="middle" x="259" y="-485.29" font-family="Times New Roman,serif" font-size="14.00">Sonstige_Tasks</text>
</g>
<!-- Task_14kqa\nq9 -->
<g id="node3" class="node">
<title>Task_14kqa\nq9</title>
<polygon fill="lightgrey" stroke="black" points="25.5,-349.99 25.5,-417.99 328.5,-417.99 328.5,-349.99 25.5,-349.99"/>
<text text-anchor="middle" x="68.5" y="-387.79" font-family="Times New Roman,serif" font-size="14.00">Task_14kqa</text>
<text text-anchor="middle" x="68.5" y="-372.79" font-family="Times New Roman,serif" font-size="14.00">q9</text>
<polyline fill="none" stroke="black" points="111.5,-349.99 111.5,-417.99 "/>
<text text-anchor="middle" x="150.5" y="-402.79" font-family="Times New Roman,serif" font-size="14.00">Transfer&#45;C</text>
<text text-anchor="middle" x="150.5" y="-387.79" font-family="Times New Roman,serif" font-size="14.00">heck&#45;In&#45;Sc</text>
<text text-anchor="middle" x="150.5" y="-372.79" font-family="Times New Roman,serif" font-size="14.00">halter:Lan</text>
<text text-anchor="middle" x="150.5" y="-357.79" font-family="Times New Roman,serif" font-size="14.00">e_11ksowl</text>
<polyline fill="none" stroke="black" points="189.5,-349.99 189.5,-417.99 "/>
<text text-anchor="middle" x="259" y="-380.29" font-family="Times New Roman,serif" font-size="14.00">Dokument_bearbeiten</text>
</g>
<!-- Task_1np13\nyr&#45;&gt;Task_14kqa\nq9 -->
<g id="edge1" class="edge">
<title>Task_1np13\nyr&#45;&gt;Task_14kqa\nq9</title>
<path fill="none" stroke="black" d="M177,-454.84C177,-446.38 177,-437.17 177,-428.29"/>
<polygon fill="black" stroke="black" points="180.5,-428.09 177,-418.09 173.5,-428.09 180.5,-428.09"/>
</g>
<!-- ExclusiveG\nateway_1t1\noj2k_Exclu\nsiveGatewa\ny_0fpk3dn -->
<g id="node2" class="node">
<title>ExclusiveG\nateway_1t1\noj2k_Exclu\nsiveGatewa\ny_0fpk3dn</title>
<polygon fill="none" stroke="black" stroke-dasharray="5,2" points="0,-184.99 0,-312.99 354,-312.99 354,-184.99 0,-184.99"/>
<text text-anchor="middle" x="40" y="-275.29" font-family="Times New Roman,serif" font-size="14.00">ExclusiveG</text>
<text text-anchor="middle" x="40" y="-260.29" font-family="Times New Roman,serif" font-size="14.00">ateway_1t1</text>
<text text-anchor="middle" x="40" y="-245.29" font-family="Times New Roman,serif" font-size="14.00">oj2k_Exclu</text>
<text text-anchor="middle" x="40" y="-230.29" font-family="Times New Roman,serif" font-size="14.00">siveGatewa</text>
<text text-anchor="middle" x="40" y="-215.29" font-family="Times New Roman,serif" font-size="14.00">y_0fpk3dn</text>
<polyline fill="none" stroke="black" stroke-dasharray="5,2" points="80,-184.99 80,-312.99 "/>
<text text-anchor="middle" x="119" y="-267.79" font-family="Times New Roman,serif" font-size="14.00">Transfer&#45;C</text>
<text text-anchor="middle" x="119" y="-252.79" font-family="Times New Roman,serif" font-size="14.00">heck&#45;In&#45;Sc</text>
<text text-anchor="middle" x="119" y="-237.79" font-family="Times New Roman,serif" font-size="14.00">halter:Lan</text>
<text text-anchor="middle" x="119" y="-222.79" font-family="Times New Roman,serif" font-size="14.00">e_11ksowl</text>
<polyline fill="none" stroke="black" stroke-dasharray="5,2" points="158,-184.99 158,-312.99 "/>
<text text-anchor="middle" x="256" y="-297.79" font-family="Times New Roman,serif" font-size="14.00">Gepäck_vorhanden?_/_SPLIT: </text>
<text text-anchor="middle" x="256" y="-282.79" font-family="Times New Roman,serif" font-size="14.00"> XOR </text>
<text text-anchor="middle" x="256" y="-267.79" font-family="Times New Roman,serif" font-size="14.00">(</text>
<text text-anchor="middle" x="256" y="-252.79" font-family="Times New Roman,serif" font-size="14.00">Gepäck_vorhanden?_/_JOIN)</text>
<text text-anchor="middle" x="256" y="-237.79" font-family="Times New Roman,serif" font-size="14.00"> XOR </text>
<text text-anchor="middle" x="256" y="-222.79" font-family="Times New Roman,serif" font-size="14.00">(</text>
<text text-anchor="middle" x="256" y="-207.79" font-family="Times New Roman,serif" font-size="14.00">Gegenstand_bewegen</text>
<text text-anchor="middle" x="256" y="-192.79" font-family="Times New Roman,serif" font-size="14.00">Gepäck_vorhanden?_/_JOIN)</text>
</g>
<!-- Task_0azc7\n5j -->
<g id="node5" class="node">
<title>Task_0azc7\n5j</title>
<polygon fill="lightgrey" stroke="black" points="36.5,-94.99 36.5,-147.99 317.5,-147.99 317.5,-94.99 36.5,-94.99"/>
<text text-anchor="middle" x="78.5" y="-125.29" font-family="Times New Roman,serif" font-size="14.00">Task_0azc7</text>
<text text-anchor="middle" x="78.5" y="-110.29" font-family="Times New Roman,serif" font-size="14.00">5j</text>
<polyline fill="none" stroke="black" points="120.5,-94.99 120.5,-147.99 "/>
<text text-anchor="middle" x="163" y="-132.79" font-family="Times New Roman,serif" font-size="14.00">Passagier:</text>
<text text-anchor="middle" x="163" y="-117.79" font-family="Times New Roman,serif" font-size="14.00">Lane_106yy</text>
<text text-anchor="middle" x="163" y="-102.79" font-family="Times New Roman,serif" font-size="14.00">q1</text>
<polyline fill="none" stroke="black" points="205.5,-94.99 205.5,-147.99 "/>
<text text-anchor="middle" x="261.5" y="-117.79" font-family="Times New Roman,serif" font-size="14.00">Person_bewegen</text>
</g>
<!-- ExclusiveG\nateway_1t1\noj2k_Exclu\nsiveGatewa\ny_0fpk3dn&#45;&gt;Task_0azc7\n5j -->
<g id="edge2" class="edge">
<title>ExclusiveG\nateway_1t1\noj2k_Exclu\nsiveGatewa\ny_0fpk3dn&#45;&gt;Task_0azc7\n5j</title>
<path fill="none" stroke="black" d="M177,-184.88C177,-175.69 177,-166.52 177,-158.14"/>
<polygon fill="black" stroke="black" points="180.5,-158.02 177,-148.02 173.5,-158.02 180.5,-158.02"/>
</g>
<!-- Task_14kqa\nq9&#45;&gt;ExclusiveG\nateway_1t1\noj2k_Exclu\nsiveGatewa\ny_0fpk3dn -->
<g id="edge3" class="edge">
<title>Task_14kqa\nq9&#45;&gt;ExclusiveG\nateway_1t1\noj2k_Exclu\nsiveGatewa\ny_0fpk3dn</title>
<path fill="none" stroke="black" d="M177,-349.78C177,-341.58 177,-332.48 177,-323.21"/>
<polygon fill="black" stroke="black" points="180.5,-323.1 177,-313.1 173.5,-323.1 180.5,-323.1"/>
</g>
<!-- Task_1kkj8\n4m -->
<g id="node4" class="node">
<title>Task_1kkj8\n4m</title>
<polygon fill="lightgrey" stroke="black" points="37.5,-754.99 37.5,-807.99 316.5,-807.99 316.5,-754.99 37.5,-754.99"/>
<text text-anchor="middle" x="78.5" y="-785.29" font-family="Times New Roman,serif" font-size="14.00">Task_1kkj8</text>
<text text-anchor="middle" x="78.5" y="-770.29" font-family="Times New Roman,serif" font-size="14.00">4m</text>
<polyline fill="none" stroke="black" points="119.5,-754.99 119.5,-807.99 "/>
<text text-anchor="middle" x="162" y="-792.79" font-family="Times New Roman,serif" font-size="14.00">Passagier:</text>
<text text-anchor="middle" x="162" y="-777.79" font-family="Times New Roman,serif" font-size="14.00">Lane_106yy</text>
<text text-anchor="middle" x="162" y="-762.79" font-family="Times New Roman,serif" font-size="14.00">q1</text>
<polyline fill="none" stroke="black" points="204.5,-754.99 204.5,-807.99 "/>
<text text-anchor="middle" x="260.5" y="-777.79" font-family="Times New Roman,serif" font-size="14.00">Person_bewegen</text>
</g>
<!-- Task_18cot\nkr -->
<g id="node8" class="node">
<title>Task_18cot\nkr</title>
<polygon fill="lightgrey" stroke="black" points="8,-664.99 8,-717.99 346,-717.99 346,-664.99 8,-664.99"/>
<text text-anchor="middle" x="49.5" y="-695.29" font-family="Times New Roman,serif" font-size="14.00">Task_18cot</text>
<text text-anchor="middle" x="49.5" y="-680.29" font-family="Times New Roman,serif" font-size="14.00">kr</text>
<polyline fill="none" stroke="black" points="91,-664.99 91,-717.99 "/>
<text text-anchor="middle" x="133.5" y="-702.79" font-family="Times New Roman,serif" font-size="14.00">Passagier:</text>
<text text-anchor="middle" x="133.5" y="-687.79" font-family="Times New Roman,serif" font-size="14.00">Lane_106yy</text>
<text text-anchor="middle" x="133.5" y="-672.79" font-family="Times New Roman,serif" font-size="14.00">q1</text>
<polyline fill="none" stroke="black" points="176,-664.99 176,-717.99 "/>
<text text-anchor="middle" x="261" y="-687.79" font-family="Times New Roman,serif" font-size="14.00">Flughafenbereich_erreichen</text>
</g>
<!-- Task_1kkj8\n4m&#45;&gt;Task_18cot\nkr -->
<g id="edge4" class="edge">
<title>Task_1kkj8\n4m&#45;&gt;Task_18cot\nkr</title>
<path fill="none" stroke="black" d="M177,-754.57C177,-746.33 177,-737.07 177,-728.27"/>
<polygon fill="black" stroke="black" points="180.5,-728.24 177,-718.24 173.5,-728.24 180.5,-728.24"/>
</g>
<!-- EndEvent_0\n2iafj4 -->
<g id="node7" class="node">
<title>EndEvent_0\n2iafj4</title>
<ellipse fill="lightgrey" stroke="black" cx="177" cy="-29.25" rx="29.5" ry="29.5"/>
<text text-anchor="middle" x="177" y="-25.55" font-family="Times New Roman,serif" font-size="14.00">Ende</text>
</g>
<!-- Task_0azc7\n5j&#45;&gt;EndEvent_0\n2iafj4 -->
<g id="edge5" class="edge">
<title>Task_0azc7\n5j&#45;&gt;EndEvent_0\n2iafj4</title>
<path fill="none" stroke="black" d="M177,-94.87C177,-86.78 177,-77.66 177,-68.87"/>
<polygon fill="black" stroke="black" points="180.5,-68.79 177,-58.79 173.5,-68.79 180.5,-68.79"/>
</g>
<!-- Task_05myg\nbw -->
<g id="node6" class="node">
<title>Task_05myg\nbw</title>
<polygon fill="lightgrey" stroke="black" points="49,-559.99 49,-627.99 305,-627.99 305,-559.99 49,-559.99"/>
<text text-anchor="middle" x="93.5" y="-597.79" font-family="Times New Roman,serif" font-size="14.00">Task_05myg</text>
<text text-anchor="middle" x="93.5" y="-582.79" font-family="Times New Roman,serif" font-size="14.00">bw</text>
<polyline fill="none" stroke="black" points="138,-559.99 138,-627.99 "/>
<text text-anchor="middle" x="177" y="-612.79" font-family="Times New Roman,serif" font-size="14.00">Transfer&#45;C</text>
<text text-anchor="middle" x="177" y="-597.79" font-family="Times New Roman,serif" font-size="14.00">heck&#45;In&#45;Sc</text>
<text text-anchor="middle" x="177" y="-582.79" font-family="Times New Roman,serif" font-size="14.00">halter:Lan</text>
<text text-anchor="middle" x="177" y="-567.79" font-family="Times New Roman,serif" font-size="14.00">e_11ksowl</text>
<polyline fill="none" stroke="black" points="216,-559.99 216,-627.99 "/>
<text text-anchor="middle" x="260.5" y="-590.29" font-family="Times New Roman,serif" font-size="14.00">Kontrollieren</text>
</g>
<!-- Task_05myg\nbw&#45;&gt;Task_1np13\nyr -->
<g id="edge6" class="edge">
<title>Task_05myg\nbw&#45;&gt;Task_1np13\nyr</title>
<path fill="none" stroke="black" d="M177,-559.84C177,-551.38 177,-542.17 177,-533.29"/>
<polygon fill="black" stroke="black" points="180.5,-533.09 177,-523.09 173.5,-533.09 180.5,-533.09"/>
</g>
<!-- Task_18cot\nkr&#45;&gt;Task_05myg\nbw -->
<g id="edge7" class="edge">
<title>Task_18cot\nkr&#45;&gt;Task_05myg\nbw</title>
<path fill="none" stroke="black" d="M177,-664.9C177,-656.71 177,-647.41 177,-638.32"/>
<polygon fill="black" stroke="black" points="180.5,-638.22 177,-628.22 173.5,-638.22 180.5,-638.22"/>
</g>
<!-- StartEvent\n_23 -->
<g id="node9" class="node">
<title>StartEvent\n_23</title>
<ellipse fill="lightgrey" stroke="black" cx="177" cy="-872.44" rx="27.9" ry="27.9"/>
<text text-anchor="middle" x="177" y="-868.74" font-family="Times New Roman,serif" font-size="14.00">Start</text>
</g>
<!-- StartEvent\n_23&#45;&gt;Task_1kkj8\n4m -->
<g id="edge8" class="edge">
<title>StartEvent\n_23&#45;&gt;Task_1kkj8\n4m</title>
<path fill="none" stroke="black" d="M177,-844.27C177,-836.14 177,-827.08 177,-818.47"/>
<polygon fill="black" stroke="black" points="180.5,-818.28 177,-808.28 173.5,-818.28 180.5,-818.28"/>
</g>
</g>
</svg>
