<svg width="1413px" height="1000px"
 viewBox="0.00 0.00 647.00 458.39" xmlns="http://www.w3.org/2000/svg" xmlns:xlink="http://www.w3.org/1999/xlink">
<g id="graph0" class="graph" transform="scale(1.0 1.0) rotate(0) translate(4 454.39)">
<title>04_Passagierabfertigung_Check&#45;In_am_Vorabend</title>
<polygon fill="white" stroke="transparent" points="-4,4 -4,-454.39 643,-454.39 643,4 -4,4"/>
<!-- Task_1maku\nr1 -->
<g id="node1" class="node">
<title>Task_1maku\nr1</title>
<polygon fill="lightgrey" stroke="black" points="156.5,-199.99 156.5,-252.99 482.5,-252.99 482.5,-199.99 156.5,-199.99"/>
<text text-anchor="middle" x="201" y="-230.29" font-family="Times New Roman,serif" font-size="14.00">Task_1maku</text>
<text text-anchor="middle" x="201" y="-215.29" font-family="Times New Roman,serif" font-size="14.00">r1</text>
<polyline fill="none" stroke="black" points="245.5,-199.99 245.5,-252.99 "/>
<text text-anchor="middle" x="290" y="-237.79" font-family="Times New Roman,serif" font-size="14.00">Versandbür</text>
<text text-anchor="middle" x="290" y="-222.79" font-family="Times New Roman,serif" font-size="14.00">o:1CN__Lan</text>
<text text-anchor="middle" x="290" y="-207.79" font-family="Times New Roman,serif" font-size="14.00">e_1n6g0py</text>
<polyline fill="none" stroke="black" points="334.5,-199.99 334.5,-252.99 "/>
<text text-anchor="middle" x="408.5" y="-222.79" font-family="Times New Roman,serif" font-size="14.00">Versandeinheiten_laden</text>
</g>
<!-- Task_0c1t4\n9t -->
<g id="node5" class="node">
<title>Task_0c1t4\n9t</title>
<polygon fill="lightgrey" stroke="black" points="22.5,-94.99 22.5,-162.99 616.5,-162.99 616.5,-94.99 22.5,-94.99"/>
<text text-anchor="middle" x="64" y="-132.79" font-family="Times New Roman,serif" font-size="14.00">Task_0c1t4</text>
<text text-anchor="middle" x="64" y="-117.79" font-family="Times New Roman,serif" font-size="14.00">9t</text>
<polyline fill="none" stroke="black" points="105.5,-94.99 105.5,-162.99 "/>
<text text-anchor="middle" x="147.5" y="-147.79" font-family="Times New Roman,serif" font-size="14.00">Lagerfachk</text>
<text text-anchor="middle" x="147.5" y="-132.79" font-family="Times New Roman,serif" font-size="14.00">raft:1CX__</text>
<text text-anchor="middle" x="147.5" y="-117.79" font-family="Times New Roman,serif" font-size="14.00">Lane_12ge0</text>
<text text-anchor="middle" x="147.5" y="-102.79" font-family="Times New Roman,serif" font-size="14.00">89</text>
<polyline fill="none" stroke="black" points="189.5,-94.99 189.5,-162.99 "/>
<text text-anchor="middle" x="403" y="-125.29" font-family="Times New Roman,serif" font-size="14.00">Differenzen_der_physischen_Inventur_ins_SAP_S/4HANA_transferieren</text>
</g>
<!-- Task_1maku\nr1&#45;&gt;Task_0c1t4\n9t -->
<g id="edge1" class="edge">
<title>Task_1maku\nr1&#45;&gt;Task_0c1t4\n9t</title>
<path fill="none" stroke="black" d="M319.5,-199.9C319.5,-191.71 319.5,-182.41 319.5,-173.32"/>
<polygon fill="black" stroke="black" points="323,-173.22 319.5,-163.22 316,-173.22 323,-173.22"/>
</g>
<!-- Task_1376l\n88 -->
<g id="node2" class="node">
<title>Task_1376l\n88</title>
<polygon fill="lightgrey" stroke="black" points="0,-289.99 0,-357.99 639,-357.99 639,-289.99 0,-289.99"/>
<text text-anchor="middle" x="41" y="-327.79" font-family="Times New Roman,serif" font-size="14.00">Task_1376l</text>
<text text-anchor="middle" x="41" y="-312.79" font-family="Times New Roman,serif" font-size="14.00">88</text>
<polyline fill="none" stroke="black" points="82,-289.99 82,-357.99 "/>
<text text-anchor="middle" x="125" y="-342.79" font-family="Times New Roman,serif" font-size="14.00">Lagerfachk</text>
<text text-anchor="middle" x="125" y="-327.79" font-family="Times New Roman,serif" font-size="14.00">raft:1BQ__</text>
<text text-anchor="middle" x="125" y="-312.79" font-family="Times New Roman,serif" font-size="14.00">Lane_11q77</text>
<text text-anchor="middle" x="125" y="-297.79" font-family="Times New Roman,serif" font-size="14.00">qc</text>
<polyline fill="none" stroke="black" points="168,-289.99 168,-357.99 "/>
<text text-anchor="middle" x="403.5" y="-320.29" font-family="Times New Roman,serif" font-size="14.00">Produkte_vom_Übergabepunkt_in_den_Puffer_für_Hochregal&#45;paletten_einlagern</text>
</g>
<!-- Task_1376l\n88&#45;&gt;Task_1maku\nr1 -->
<g id="edge2" class="edge">
<title>Task_1376l\n88&#45;&gt;Task_1maku\nr1</title>
<path fill="none" stroke="black" d="M319.5,-289.86C319.5,-281.28 319.5,-272.01 319.5,-263.3"/>
<polygon fill="black" stroke="black" points="323,-263.04 319.5,-253.04 316,-263.04 323,-263.04"/>
</g>
<!-- StartEvent\n_4 -->
<g id="node3" class="node">
<title>StartEvent\n_4</title>
<ellipse fill="lightgrey" stroke="black" cx="319.5" cy="-422.44" rx="27.9" ry="27.9"/>
<text text-anchor="middle" x="319.5" y="-418.74" font-family="Times New Roman,serif" font-size="14.00">Start</text>
</g>
<!-- StartEvent\n_4&#45;&gt;Task_1376l\n88 -->
<g id="edge3" class="edge">
<title>StartEvent\n_4&#45;&gt;Task_1376l\n88</title>
<path fill="none" stroke="black" d="M319.5,-394.32C319.5,-386.23 319.5,-377.15 319.5,-368.3"/>
<polygon fill="black" stroke="black" points="323,-368.08 319.5,-358.08 316,-368.08 323,-368.08"/>
</g>
<!-- EndEvent_1\nvwcw55 -->
<g id="node4" class="node">
<title>EndEvent_1\nvwcw55</title>
<ellipse fill="lightgrey" stroke="black" cx="319.5" cy="-29.25" rx="29.5" ry="29.5"/>
<text text-anchor="middle" x="319.5" y="-25.55" font-family="Times New Roman,serif" font-size="14.00">Ende</text>
</g>
<!-- Task_0c1t4\n9t&#45;&gt;EndEvent_1\nvwcw55 -->
<g id="edge4" class="edge">
<title>Task_0c1t4\n9t&#45;&gt;EndEvent_1\nvwcw55</title>
<path fill="none" stroke="black" d="M319.5,-94.9C319.5,-86.55 319.5,-77.52 319.5,-68.92"/>
<polygon fill="black" stroke="black" points="323,-68.73 319.5,-58.73 316,-68.73 323,-68.73"/>
</g>
</g>
</svg>
