<svg width="551px" height="1000px"
 viewBox="0.00 0.00 870.38 1580.39" xmlns="http://www.w3.org/2000/svg" xmlns:xlink="http://www.w3.org/1999/xlink">
<g id="graph0" class="graph" transform="scale(1.0 1.0) rotate(0) translate(4 1576.39)">
<title>07_Passagierabfertigung_Ankunft</title>
<polygon fill="white" stroke="transparent" points="-4,4 -4,-1576.39 866.38,-1576.39 866.38,4 -4,4"/>
<!-- ExclusiveG\nateway_1cs\nd7ne -->
<g id="node1" class="node">
<title>ExclusiveG\nateway_1cs\nd7ne</title>
<polygon fill="lightgrey" stroke="black" points="385,-1375.49 209.38,-1357.49 385,-1339.49 560.62,-1357.49 385,-1375.49"/>
<text text-anchor="middle" x="385" y="-1353.79" font-family="Times New Roman,serif" font-size="14.00">Reiseziel_überprüfen_/_SPLIT</text>
</g>
<!-- Task_1oex6\n2j -->
<g id="node6" class="node">
<title>Task_1oex6\n2j</title>
<polygon fill="lightgrey" stroke="black" points="128.5,-1249.99 128.5,-1302.99 451.5,-1302.99 451.5,-1249.99 128.5,-1249.99"/>
<text text-anchor="middle" x="171.5" y="-1280.29" font-family="Times New Roman,serif" font-size="14.00">Task_1oex6</text>
<text text-anchor="middle" x="171.5" y="-1265.29" font-family="Times New Roman,serif" font-size="14.00">2j</text>
<polyline fill="none" stroke="black" points="214.5,-1249.99 214.5,-1302.99 "/>
<text text-anchor="middle" x="259" y="-1287.79" font-family="Times New Roman,serif" font-size="14.00">Versandbür</text>
<text text-anchor="middle" x="259" y="-1272.79" font-family="Times New Roman,serif" font-size="14.00">o:1CN__Lan</text>
<text text-anchor="middle" x="259" y="-1257.79" font-family="Times New Roman,serif" font-size="14.00">e_1n6g0py</text>
<polyline fill="none" stroke="black" points="303.5,-1249.99 303.5,-1302.99 "/>
<text text-anchor="middle" x="377.5" y="-1272.79" font-family="Times New Roman,serif" font-size="14.00">Versandeinheiten_laden</text>
</g>
<!-- ExclusiveG\nateway_1cs\nd7ne&#45;&gt;Task_1oex6\n2j -->
<g id="edge1" class="edge">
<title>ExclusiveG\nateway_1cs\nd7ne&#45;&gt;Task_1oex6\n2j</title>
<path fill="none" stroke="black" d="M366.68,-1341.26C355.97,-1332.35 342.02,-1320.75 328.95,-1309.89"/>
<polygon fill="black" stroke="black" points="330.9,-1306.96 320.98,-1303.25 326.43,-1312.34 330.9,-1306.96"/>
</g>
<!-- ExclusiveG\nateway_1a8\n5n3n -->
<g id="node7" class="node">
<title>ExclusiveG\nateway_1a8\n5n3n</title>
<polygon fill="lightgrey" stroke="black" points="366,-1018.49 198.93,-1000.49 366,-982.49 533.07,-1000.49 366,-1018.49"/>
<text text-anchor="middle" x="366" y="-996.79" font-family="Times New Roman,serif" font-size="14.00">Reiseziel_überprüfen_/_JOIN</text>
</g>
<!-- ExclusiveG\nateway_1cs\nd7ne&#45;&gt;ExclusiveG\nateway_1a8\n5n3n -->
<g id="edge2" class="edge">
<title>ExclusiveG\nateway_1cs\nd7ne&#45;&gt;ExclusiveG\nateway_1a8\n5n3n</title>
<path fill="none" stroke="black" d="M415.95,-1342.6C431.87,-1333.77 449.99,-1320.73 460,-1303.49 515.76,-1207.53 538.53,-1148.17 479,-1054.49 467.51,-1036.42 448.06,-1024.4 428.49,-1016.46"/>
<polygon fill="black" stroke="black" points="429.51,-1013.1 418.91,-1012.88 427.05,-1019.66 429.51,-1013.1"/>
</g>
<!-- Task_1k60o\ngk -->
<g id="node2" class="node">
<title>Task_1k60o\ngk</title>
<polygon fill="lightgrey" stroke="black" points="397.5,-553.99 397.5,-606.99 720.5,-606.99 720.5,-553.99 397.5,-553.99"/>
<text text-anchor="middle" x="440.5" y="-584.29" font-family="Times New Roman,serif" font-size="14.00">Task_1k60o</text>
<text text-anchor="middle" x="440.5" y="-569.29" font-family="Times New Roman,serif" font-size="14.00">gk</text>
<polyline fill="none" stroke="black" points="483.5,-553.99 483.5,-606.99 "/>
<text text-anchor="middle" x="528" y="-591.79" font-family="Times New Roman,serif" font-size="14.00">Versandbür</text>
<text text-anchor="middle" x="528" y="-576.79" font-family="Times New Roman,serif" font-size="14.00">o:1CN__Lan</text>
<text text-anchor="middle" x="528" y="-561.79" font-family="Times New Roman,serif" font-size="14.00">e_1n6g0py</text>
<polyline fill="none" stroke="black" points="572.5,-553.99 572.5,-606.99 "/>
<text text-anchor="middle" x="646.5" y="-576.79" font-family="Times New Roman,serif" font-size="14.00">Versandeinheiten_laden</text>
</g>
<!-- Task_0orkv\n0z -->
<g id="node15" class="node">
<title>Task_0orkv\n0z</title>
<polygon fill="lightgrey" stroke="black" points="403,-448.99 403,-516.99 715,-516.99 715,-448.99 403,-448.99"/>
<text text-anchor="middle" x="445" y="-486.79" font-family="Times New Roman,serif" font-size="14.00">Task_0orkv</text>
<text text-anchor="middle" x="445" y="-471.79" font-family="Times New Roman,serif" font-size="14.00">0z</text>
<polyline fill="none" stroke="black" points="487,-448.99 487,-516.99 "/>
<text text-anchor="middle" x="531" y="-501.79" font-family="Times New Roman,serif" font-size="14.00">Lagerfachk</text>
<text text-anchor="middle" x="531" y="-486.79" font-family="Times New Roman,serif" font-size="14.00">raft:1CL__</text>
<text text-anchor="middle" x="531" y="-471.79" font-family="Times New Roman,serif" font-size="14.00">Lane_1wg8v</text>
<text text-anchor="middle" x="531" y="-456.79" font-family="Times New Roman,serif" font-size="14.00">mc</text>
<polyline fill="none" stroke="black" points="575,-448.99 575,-516.99 "/>
<text text-anchor="middle" x="645" y="-479.29" font-family="Times New Roman,serif" font-size="14.00">Bestand_ist_aufgefüllt</text>
</g>
<!-- Task_1k60o\ngk&#45;&gt;Task_0orkv\n0z -->
<g id="edge3" class="edge">
<title>Task_1k60o\ngk&#45;&gt;Task_0orkv\n0z</title>
<path fill="none" stroke="black" d="M559,-553.9C559,-545.71 559,-536.41 559,-527.32"/>
<polygon fill="black" stroke="black" points="562.5,-527.22 559,-517.22 555.5,-527.22 562.5,-527.22"/>
</g>
<!-- ExclusiveG\nateway_1i9\n1wcb -->
<g id="node3" class="node">
<title>ExclusiveG\nateway_1i9\n1wcb</title>
<polygon fill="lightgrey" stroke="black" points="415,-220.49 248.76,-202.49 415,-184.49 581.24,-202.49 415,-220.49"/>
<text text-anchor="middle" x="415" y="-198.79" font-family="Times New Roman,serif" font-size="14.00">Gepäck_vorhanden?_/_JOIN</text>
</g>
<!-- Task_1jalc\nhy -->
<g id="node9" class="node">
<title>Task_1jalc\nhy</title>
<polygon fill="lightgrey" stroke="black" points="115,-94.99 115,-147.99 715,-147.99 715,-94.99 115,-94.99"/>
<text text-anchor="middle" x="153.5" y="-125.29" font-family="Times New Roman,serif" font-size="14.00">Task_1jalc</text>
<text text-anchor="middle" x="153.5" y="-110.29" font-family="Times New Roman,serif" font-size="14.00">hy</text>
<polyline fill="none" stroke="black" points="192,-94.99 192,-147.99 "/>
<text text-anchor="middle" x="236.5" y="-132.79" font-family="Times New Roman,serif" font-size="14.00">Versandbür</text>
<text text-anchor="middle" x="236.5" y="-117.79" font-family="Times New Roman,serif" font-size="14.00">o:1CN__Lan</text>
<text text-anchor="middle" x="236.5" y="-102.79" font-family="Times New Roman,serif" font-size="14.00">e_1n6g0py</text>
<polyline fill="none" stroke="black" points="281,-94.99 281,-147.99 "/>
<text text-anchor="middle" x="498" y="-117.79" font-family="Times New Roman,serif" font-size="14.00">Transporteinheit_bearbeiten_inklusiv._Check&#45;In_und_am_Tor_ankommen</text>
</g>
<!-- ExclusiveG\nateway_1i9\n1wcb&#45;&gt;Task_1jalc\nhy -->
<g id="edge4" class="edge">
<title>ExclusiveG\nateway_1i9\n1wcb&#45;&gt;Task_1jalc\nhy</title>
<path fill="none" stroke="black" d="M415,-184.35C415,-176.64 415,-167.23 415,-158.09"/>
<polygon fill="black" stroke="black" points="418.5,-158.01 415,-148.01 411.5,-158.01 418.5,-158.01"/>
</g>
<!-- EndEvent_0\n89l2e1 -->
<g id="node4" class="node">
<title>EndEvent_0\n89l2e1</title>
<ellipse fill="lightgrey" stroke="black" cx="415" cy="-29.25" rx="29.5" ry="29.5"/>
<text text-anchor="middle" x="415" y="-25.55" font-family="Times New Roman,serif" font-size="14.00">Ende</text>
</g>
<!-- Task_1ok31\nmh -->
<g id="node5" class="node">
<title>Task_1ok31\nmh</title>
<polygon fill="lightgrey" stroke="black" points="0,-1054.99 0,-1107.99 470,-1107.99 470,-1054.99 0,-1054.99"/>
<text text-anchor="middle" x="43" y="-1085.29" font-family="Times New Roman,serif" font-size="14.00">Task_1ok31</text>
<text text-anchor="middle" x="43" y="-1070.29" font-family="Times New Roman,serif" font-size="14.00">mh</text>
<polyline fill="none" stroke="black" points="86,-1054.99 86,-1107.99 "/>
<text text-anchor="middle" x="130.5" y="-1092.79" font-family="Times New Roman,serif" font-size="14.00">Versandbür</text>
<text text-anchor="middle" x="130.5" y="-1077.79" font-family="Times New Roman,serif" font-size="14.00">o:1CT__Lan</text>
<text text-anchor="middle" x="130.5" y="-1062.79" font-family="Times New Roman,serif" font-size="14.00">e_1n6g0py</text>
<polyline fill="none" stroke="black" points="175,-1054.99 175,-1107.99 "/>
<text text-anchor="middle" x="322.5" y="-1077.79" font-family="Times New Roman,serif" font-size="14.00">Übersicht_der_Batch&#45;Warenbestands_überprüfen</text>
</g>
<!-- Task_1ok31\nmh&#45;&gt;ExclusiveG\nateway_1a8\n5n3n -->
<g id="edge5" class="edge">
<title>Task_1ok31\nmh&#45;&gt;ExclusiveG\nateway_1a8\n5n3n</title>
<path fill="none" stroke="black" d="M277.53,-1054.85C295.56,-1043.97 316.25,-1031.5 333.08,-1021.35"/>
<polygon fill="black" stroke="black" points="335.24,-1024.13 342,-1015.97 331.62,-1018.14 335.24,-1024.13"/>
</g>
<!-- Task_01i82\nvr -->
<g id="node11" class="node">
<title>Task_01i82\nvr</title>
<polygon fill="lightgrey" stroke="black" points="116,-1144.99 116,-1212.99 426,-1212.99 426,-1144.99 116,-1144.99"/>
<text text-anchor="middle" x="157" y="-1182.79" font-family="Times New Roman,serif" font-size="14.00">Task_01i82</text>
<text text-anchor="middle" x="157" y="-1167.79" font-family="Times New Roman,serif" font-size="14.00">vr</text>
<polyline fill="none" stroke="black" points="198,-1144.99 198,-1212.99 "/>
<text text-anchor="middle" x="242" y="-1197.79" font-family="Times New Roman,serif" font-size="14.00">Lagerfachk</text>
<text text-anchor="middle" x="242" y="-1182.79" font-family="Times New Roman,serif" font-size="14.00">raft:1CL__</text>
<text text-anchor="middle" x="242" y="-1167.79" font-family="Times New Roman,serif" font-size="14.00">Lane_1wg8v</text>
<text text-anchor="middle" x="242" y="-1152.79" font-family="Times New Roman,serif" font-size="14.00">mc</text>
<polyline fill="none" stroke="black" points="286,-1144.99 286,-1212.99 "/>
<text text-anchor="middle" x="356" y="-1175.29" font-family="Times New Roman,serif" font-size="14.00">Bestand_ist_aufgefüllt</text>
</g>
<!-- Task_1oex6\n2j&#45;&gt;Task_01i82\nvr -->
<g id="edge6" class="edge">
<title>Task_1oex6\n2j&#45;&gt;Task_01i82\nvr</title>
<path fill="none" stroke="black" d="M284.91,-1249.9C283.28,-1241.71 281.43,-1232.41 279.62,-1223.32"/>
<polygon fill="black" stroke="black" points="282.99,-1222.34 277.61,-1213.22 276.13,-1223.71 282.99,-1222.34"/>
</g>
<!-- ExclusiveG\nateway_1ah\n46ej -->
<g id="node8" class="node">
<title>ExclusiveG\nateway_1ah\n46ej</title>
<polygon fill="lightgrey" stroke="black" points="366,-946.49 192.06,-928.49 366,-910.49 539.94,-928.49 366,-946.49"/>
<text text-anchor="middle" x="366" y="-924.79" font-family="Times New Roman,serif" font-size="14.00">Gepäck_vorhanden?_/_SPLIT</text>
</g>
<!-- ExclusiveG\nateway_1a8\n5n3n&#45;&gt;ExclusiveG\nateway_1ah\n46ej -->
<g id="edge7" class="edge">
<title>ExclusiveG\nateway_1a8\n5n3n&#45;&gt;ExclusiveG\nateway_1ah\n46ej</title>
<path fill="none" stroke="black" d="M366,-982.19C366,-974.48 366,-965.21 366,-956.61"/>
<polygon fill="black" stroke="black" points="369.5,-956.6 366,-946.6 362.5,-956.6 369.5,-956.6"/>
</g>
<!-- ExclusiveG\nateway_1ah\n46ej&#45;&gt;ExclusiveG\nateway_1i9\n1wcb -->
<g id="edge8" class="edge">
<title>ExclusiveG\nateway_1ah\n46ej&#45;&gt;ExclusiveG\nateway_1i9\n1wcb</title>
<path fill="none" stroke="black" d="M350.9,-911.96C324.33,-882.92 272,-817.3 272,-750.99 272,-750.99 272,-750.99 272,-369.49 272,-303.26 338.15,-250.34 380.47,-223.25"/>
<polygon fill="black" stroke="black" points="382.47,-226.13 389.1,-217.87 378.77,-220.19 382.47,-226.13"/>
</g>
<!-- Task_1f44a\nmh -->
<g id="node10" class="node">
<title>Task_1f44a\nmh</title>
<polygon fill="lightgrey" stroke="black" points="349,-820.99 349,-873.99 669,-873.99 669,-820.99 349,-820.99"/>
<text text-anchor="middle" x="390.5" y="-851.29" font-family="Times New Roman,serif" font-size="14.00">Task_1f44a</text>
<text text-anchor="middle" x="390.5" y="-836.29" font-family="Times New Roman,serif" font-size="14.00">mh</text>
<polyline fill="none" stroke="black" points="432,-820.99 432,-873.99 "/>
<text text-anchor="middle" x="476.5" y="-858.79" font-family="Times New Roman,serif" font-size="14.00">Versandbür</text>
<text text-anchor="middle" x="476.5" y="-843.79" font-family="Times New Roman,serif" font-size="14.00">o:1CN__Lan</text>
<text text-anchor="middle" x="476.5" y="-828.79" font-family="Times New Roman,serif" font-size="14.00">e_1n6g0py</text>
<polyline fill="none" stroke="black" points="521,-820.99 521,-873.99 "/>
<text text-anchor="middle" x="595" y="-843.79" font-family="Times New Roman,serif" font-size="14.00">Versandeinheiten_laden</text>
</g>
<!-- ExclusiveG\nateway_1ah\n46ej&#45;&gt;Task_1f44a\nmh -->
<g id="edge9" class="edge">
<title>ExclusiveG\nateway_1ah\n46ej&#45;&gt;Task_1f44a\nmh</title>
<path fill="none" stroke="black" d="M392.23,-913C409.44,-903.49 432.61,-890.7 453.76,-879.01"/>
<polygon fill="black" stroke="black" points="455.62,-881.98 462.68,-874.08 452.24,-875.85 455.62,-881.98"/>
</g>
<!-- Task_1jalc\nhy&#45;&gt;EndEvent_0\n89l2e1 -->
<g id="edge10" class="edge">
<title>Task_1jalc\nhy&#45;&gt;EndEvent_0\n89l2e1</title>
<path fill="none" stroke="black" d="M415,-94.87C415,-86.78 415,-77.66 415,-68.87"/>
<polygon fill="black" stroke="black" points="418.5,-68.79 415,-58.79 411.5,-68.79 418.5,-68.79"/>
</g>
<!-- Task_0kblk\n2z -->
<g id="node14" class="node">
<title>Task_0kblk\n2z</title>
<polygon fill="lightgrey" stroke="black" points="396,-715.99 396,-783.99 672,-783.99 672,-715.99 396,-715.99"/>
<text text-anchor="middle" x="437.5" y="-753.79" font-family="Times New Roman,serif" font-size="14.00">Task_0kblk</text>
<text text-anchor="middle" x="437.5" y="-738.79" font-family="Times New Roman,serif" font-size="14.00">2z</text>
<polyline fill="none" stroke="black" points="479,-715.99 479,-783.99 "/>
<text text-anchor="middle" x="523" y="-768.79" font-family="Times New Roman,serif" font-size="14.00">Lagerfachk</text>
<text text-anchor="middle" x="523" y="-753.79" font-family="Times New Roman,serif" font-size="14.00">raft:1CR__</text>
<text text-anchor="middle" x="523" y="-738.79" font-family="Times New Roman,serif" font-size="14.00">Lane_1v76w</text>
<text text-anchor="middle" x="523" y="-723.79" font-family="Times New Roman,serif" font-size="14.00">t5</text>
<polyline fill="none" stroke="black" points="567,-715.99 567,-783.99 "/>
<text text-anchor="middle" x="619.5" y="-746.29" font-family="Times New Roman,serif" font-size="14.00">Laden_beenden</text>
</g>
<!-- Task_1f44a\nmh&#45;&gt;Task_0kblk\n2z -->
<g id="edge11" class="edge">
<title>Task_1f44a\nmh&#45;&gt;Task_0kblk\n2z</title>
<path fill="none" stroke="black" d="M515.7,-820.9C517.87,-812.63 520.33,-803.21 522.74,-794.02"/>
<polygon fill="black" stroke="black" points="526.16,-794.78 525.3,-784.22 519.38,-793 526.16,-794.78"/>
</g>
<!-- Task_01i82\nvr&#45;&gt;Task_1ok31\nmh -->
<g id="edge12" class="edge">
<title>Task_01i82\nvr&#45;&gt;Task_1ok31\nmh</title>
<path fill="none" stroke="black" d="M258.51,-1144.86C255.17,-1136 251.55,-1126.39 248.17,-1117.44"/>
<polygon fill="black" stroke="black" points="251.43,-1116.16 244.63,-1108.04 244.88,-1118.63 251.43,-1116.16"/>
</g>
<!-- Task_0lne9\nu6 -->
<g id="node12" class="node">
<title>Task_0lne9\nu6</title>
<polygon fill="lightgrey" stroke="black" points="251.5,-1411.99 251.5,-1479.99 518.5,-1479.99 518.5,-1411.99 251.5,-1411.99"/>
<text text-anchor="middle" x="292" y="-1449.79" font-family="Times New Roman,serif" font-size="14.00">Task_0lne9</text>
<text text-anchor="middle" x="292" y="-1434.79" font-family="Times New Roman,serif" font-size="14.00">u6</text>
<polyline fill="none" stroke="black" points="332.5,-1411.99 332.5,-1479.99 "/>
<text text-anchor="middle" x="376.5" y="-1464.79" font-family="Times New Roman,serif" font-size="14.00">Lagerfachk</text>
<text text-anchor="middle" x="376.5" y="-1449.79" font-family="Times New Roman,serif" font-size="14.00">raft:1CR__</text>
<text text-anchor="middle" x="376.5" y="-1434.79" font-family="Times New Roman,serif" font-size="14.00">Lane_1v76w</text>
<text text-anchor="middle" x="376.5" y="-1419.79" font-family="Times New Roman,serif" font-size="14.00">t5</text>
<polyline fill="none" stroke="black" points="420.5,-1411.99 420.5,-1479.99 "/>
<text text-anchor="middle" x="469.5" y="-1442.29" font-family="Times New Roman,serif" font-size="14.00">LKW_beladen</text>
</g>
<!-- Task_0lne9\nu6&#45;&gt;ExclusiveG\nateway_1cs\nd7ne -->
<g id="edge13" class="edge">
<title>Task_0lne9\nu6&#45;&gt;ExclusiveG\nateway_1cs\nd7ne</title>
<path fill="none" stroke="black" d="M385,-1411.8C385,-1403.19 385,-1394.01 385,-1385.74"/>
<polygon fill="black" stroke="black" points="388.5,-1385.52 385,-1375.52 381.5,-1385.52 388.5,-1385.52"/>
</g>
<!-- ExclusiveG\nateway_0bm\n72da -->
<g id="node13" class="node">
<title>ExclusiveG\nateway_0bm\n72da</title>
<polygon fill="lightgrey" stroke="black" points="559,-679.49 404.66,-661.49 559,-643.49 713.34,-661.49 559,-679.49"/>
<text text-anchor="middle" x="559" y="-657.79" font-family="Times New Roman,serif" font-size="14.00">Gepäck_zollfrei?_/_SPLIT</text>
</g>
<!-- ExclusiveG\nateway_0bm\n72da&#45;&gt;Task_1k60o\ngk -->
<g id="edge15" class="edge">
<title>ExclusiveG\nateway_0bm\n72da&#45;&gt;Task_1k60o\ngk</title>
<path fill="none" stroke="black" d="M559,-643.35C559,-635.64 559,-626.23 559,-617.09"/>
<polygon fill="black" stroke="black" points="562.5,-617.01 559,-607.01 555.5,-617.01 562.5,-617.01"/>
</g>
<!-- ExclusiveG\nateway_0a5\nfrxf -->
<g id="node18" class="node">
<title>ExclusiveG\nateway_0a5\nfrxf</title>
<polygon fill="lightgrey" stroke="black" points="559,-292.49 411.87,-274.49 559,-256.49 706.13,-274.49 559,-292.49"/>
<text text-anchor="middle" x="559" y="-270.79" font-family="Times New Roman,serif" font-size="14.00">Gepäck_zollfrei?_/_JOIN</text>
</g>
<!-- ExclusiveG\nateway_0bm\n72da&#45;&gt;ExclusiveG\nateway_0a5\nfrxf -->
<g id="edge14" class="edge">
<title>ExclusiveG\nateway_0bm\n72da&#45;&gt;ExclusiveG\nateway_0a5\nfrxf</title>
<path fill="none" stroke="black" d="M629.72,-651.7C663.22,-644.49 701.95,-631.36 730,-607.49 830,-522.43 910.34,-429.93 827,-328.49 805.84,-302.74 727.15,-289.29 660.47,-282.4"/>
<polygon fill="black" stroke="black" points="660.6,-278.89 650.3,-281.39 659.91,-285.86 660.6,-278.89"/>
</g>
<!-- Task_0kblk\n2z&#45;&gt;ExclusiveG\nateway_0bm\n72da -->
<g id="edge16" class="edge">
<title>Task_0kblk\n2z&#45;&gt;ExclusiveG\nateway_0bm\n72da</title>
<path fill="none" stroke="black" d="M543.59,-715.8C546.18,-706.86 548.94,-697.31 551.4,-688.8"/>
<polygon fill="black" stroke="black" points="554.8,-689.62 554.22,-679.04 548.08,-687.68 554.8,-689.62"/>
</g>
<!-- Task_02r8k\nai -->
<g id="node16" class="node">
<title>Task_02r8k\nai</title>
<polygon fill="lightgrey" stroke="black" points="300.5,-328.99 300.5,-411.99 817.5,-411.99 817.5,-328.99 300.5,-328.99"/>
<text text-anchor="middle" x="342" y="-374.29" font-family="Times New Roman,serif" font-size="14.00">Task_02r8k</text>
<text text-anchor="middle" x="342" y="-359.29" font-family="Times New Roman,serif" font-size="14.00">ai</text>
<polyline fill="none" stroke="black" points="383.5,-328.99 383.5,-411.99 "/>
<text text-anchor="middle" x="427.5" y="-396.79" font-family="Times New Roman,serif" font-size="14.00">Lagerfachk</text>
<text text-anchor="middle" x="427.5" y="-381.79" font-family="Times New Roman,serif" font-size="14.00">rart/Quali</text>
<text text-anchor="middle" x="427.5" y="-366.79" font-family="Times New Roman,serif" font-size="14.00">tätsprüfer</text>
<text text-anchor="middle" x="427.5" y="-351.79" font-family="Times New Roman,serif" font-size="14.00">:1CV__Lane</text>
<text text-anchor="middle" x="427.5" y="-336.79" font-family="Times New Roman,serif" font-size="14.00">_1vddxyw</text>
<polyline fill="none" stroke="black" points="471.5,-328.99 471.5,-411.99 "/>
<text text-anchor="middle" x="644.5" y="-366.79" font-family="Times New Roman,serif" font-size="14.00">Produkte_in_&#39;Einlagern&#39;_oder_&#39;Verschrotten&#39;_klassifizieren</text>
</g>
<!-- Task_0orkv\n0z&#45;&gt;Task_02r8k\nai -->
<g id="edge17" class="edge">
<title>Task_0orkv\n0z&#45;&gt;Task_02r8k\nai</title>
<path fill="none" stroke="black" d="M559,-448.84C559,-440.43 559,-431.21 559,-422.15"/>
<polygon fill="black" stroke="black" points="562.5,-422.05 559,-412.05 555.5,-422.05 562.5,-422.05"/>
</g>
<!-- Task_02r8k\nai&#45;&gt;ExclusiveG\nateway_0a5\nfrxf -->
<g id="edge18" class="edge">
<title>Task_02r8k\nai&#45;&gt;ExclusiveG\nateway_0a5\nfrxf</title>
<path fill="none" stroke="black" d="M559,-328.81C559,-319.98 559,-310.84 559,-302.68"/>
<polygon fill="black" stroke="black" points="562.5,-302.63 559,-292.63 555.5,-302.63 562.5,-302.63"/>
</g>
<!-- StartEvent\n_7 -->
<g id="node17" class="node">
<title>StartEvent\n_7</title>
<ellipse fill="lightgrey" stroke="black" cx="385" cy="-1544.44" rx="27.9" ry="27.9"/>
<text text-anchor="middle" x="385" y="-1540.74" font-family="Times New Roman,serif" font-size="14.00">Start</text>
</g>
<!-- StartEvent\n_7&#45;&gt;Task_0lne9\nu6 -->
<g id="edge19" class="edge">
<title>StartEvent\n_7&#45;&gt;Task_0lne9\nu6</title>
<path fill="none" stroke="black" d="M385,-1516.32C385,-1508.23 385,-1499.15 385,-1490.3"/>
<polygon fill="black" stroke="black" points="388.5,-1490.08 385,-1480.08 381.5,-1490.08 388.5,-1490.08"/>
</g>
<!-- ExclusiveG\nateway_0a5\nfrxf&#45;&gt;ExclusiveG\nateway_1i9\n1wcb -->
<g id="edge20" class="edge">
<title>ExclusiveG\nateway_0a5\nfrxf&#45;&gt;ExclusiveG\nateway_1i9\n1wcb</title>
<path fill="none" stroke="black" d="M530.89,-259.83C508.68,-249.04 477.47,-233.86 453.03,-221.98"/>
<polygon fill="black" stroke="black" points="454.55,-218.83 444.02,-217.6 451.49,-225.12 454.55,-218.83"/>
</g>
</g>
</svg>
