<svg width="978px" height="1000px"
 viewBox="0.00 0.00 764.77 782.39" xmlns="http://www.w3.org/2000/svg" xmlns:xlink="http://www.w3.org/1999/xlink">
<g id="graph0" class="graph" transform="scale(1.0 1.0) rotate(0) translate(4 778.39)">
<title>20_Passagierabfertigung_Hotel&#45;Check&#45;In</title>
<polygon fill="white" stroke="transparent" points="-4,4 -4,-778.39 760.77,-778.39 760.77,4 -4,4"/>
<!-- StartEvent\n_20 -->
<g id="node1" class="node">
<title>StartEvent\n_20</title>
<ellipse fill="lightgrey" stroke="black" cx="224.27" cy="-746.44" rx="27.9" ry="27.9"/>
<text text-anchor="middle" x="224.27" y="-742.74" font-family="Times New Roman,serif" font-size="14.00">Start</text>
</g>
<!-- Task_0os64\nne -->
<g id="node7" class="node">
<title>Task_0os64\nne</title>
<polygon fill="lightgrey" stroke="black" points="62.77,-628.99 62.77,-681.99 385.77,-681.99 385.77,-628.99 62.77,-628.99"/>
<text text-anchor="middle" x="105.77" y="-659.29" font-family="Times New Roman,serif" font-size="14.00">Task_0os64</text>
<text text-anchor="middle" x="105.77" y="-644.29" font-family="Times New Roman,serif" font-size="14.00">ne</text>
<polyline fill="none" stroke="black" points="148.77,-628.99 148.77,-681.99 "/>
<text text-anchor="middle" x="193.27" y="-666.79" font-family="Times New Roman,serif" font-size="14.00">Versandbür</text>
<text text-anchor="middle" x="193.27" y="-651.79" font-family="Times New Roman,serif" font-size="14.00">o:1CN__Lan</text>
<text text-anchor="middle" x="193.27" y="-636.79" font-family="Times New Roman,serif" font-size="14.00">e_1n6g0py</text>
<polyline fill="none" stroke="black" points="237.77,-628.99 237.77,-681.99 "/>
<text text-anchor="middle" x="311.77" y="-651.79" font-family="Times New Roman,serif" font-size="14.00">Versandeinheiten_laden</text>
</g>
<!-- StartEvent\n_20&#45;&gt;Task_0os64\nne -->
<g id="edge1" class="edge">
<title>StartEvent\n_20&#45;&gt;Task_0os64\nne</title>
<path fill="none" stroke="black" d="M224.27,-718.27C224.27,-710.14 224.27,-701.08 224.27,-692.47"/>
<polygon fill="black" stroke="black" points="227.77,-692.28 224.27,-682.28 220.77,-692.28 227.77,-692.28"/>
</g>
<!-- Task_00msa\nba -->
<g id="node2" class="node">
<title>Task_00msa\nba</title>
<polygon fill="lightgrey" stroke="black" points="225.27,-271.99 225.27,-324.99 557.27,-324.99 557.27,-271.99 225.27,-271.99"/>
<text text-anchor="middle" x="269.27" y="-302.29" font-family="Times New Roman,serif" font-size="14.00">Task_00msa</text>
<text text-anchor="middle" x="269.27" y="-287.29" font-family="Times New Roman,serif" font-size="14.00">ba</text>
<polyline fill="none" stroke="black" points="313.27,-271.99 313.27,-324.99 "/>
<text text-anchor="middle" x="359.27" y="-309.79" font-family="Times New Roman,serif" font-size="14.00">Verkäufer:</text>
<text text-anchor="middle" x="359.27" y="-294.79" font-family="Times New Roman,serif" font-size="14.00">1CV__Lane_</text>
<text text-anchor="middle" x="359.27" y="-279.79" font-family="Times New Roman,serif" font-size="14.00">131x34o</text>
<polyline fill="none" stroke="black" points="405.27,-271.99 405.27,-324.99 "/>
<text text-anchor="middle" x="481.27" y="-294.79" font-family="Times New Roman,serif" font-size="14.00">Kundenretoure_erstellen</text>
</g>
<!-- ExclusiveG\nateway_0j2\nzelm -->
<g id="node5" class="node">
<title>ExclusiveG\nateway_0j2\nzelm</title>
<polygon fill="lightgrey" stroke="black" points="228.27,-235.49 11.43,-217.49 228.27,-199.49 445.12,-217.49 228.27,-235.49"/>
<text text-anchor="middle" x="228.27" y="-213.79" font-family="Times New Roman,serif" font-size="14.00">Nur_Handgepäck_vorhanden?_/_JOIN</text>
</g>
<!-- Task_00msa\nba&#45;&gt;ExclusiveG\nateway_0j2\nzelm -->
<g id="edge2" class="edge">
<title>Task_00msa\nba&#45;&gt;ExclusiveG\nateway_0j2\nzelm</title>
<path fill="none" stroke="black" d="M338.35,-271.85C315.36,-260.7 288.88,-247.87 267.66,-237.58"/>
<polygon fill="black" stroke="black" points="269.14,-234.41 258.61,-233.2 266.09,-240.71 269.14,-234.41"/>
</g>
<!-- EndEvent_0\n3w97vs -->
<g id="node3" class="node">
<title>EndEvent_0\n3w97vs</title>
<ellipse fill="lightgrey" stroke="black" cx="228.27" cy="-29.25" rx="29.5" ry="29.5"/>
<text text-anchor="middle" x="228.27" y="-25.55" font-family="Times New Roman,serif" font-size="14.00">Ende</text>
</g>
<!-- Task_07d38\n1f -->
<g id="node4" class="node">
<title>Task_07d38\n1f</title>
<polygon fill="lightgrey" stroke="black" points="159.77,-361.99 159.77,-429.99 756.77,-429.99 756.77,-361.99 159.77,-361.99"/>
<text text-anchor="middle" x="202.77" y="-399.79" font-family="Times New Roman,serif" font-size="14.00">Task_07d38</text>
<text text-anchor="middle" x="202.77" y="-384.79" font-family="Times New Roman,serif" font-size="14.00">1f</text>
<polyline fill="none" stroke="black" points="245.77,-361.99 245.77,-429.99 "/>
<text text-anchor="middle" x="290.27" y="-414.79" font-family="Times New Roman,serif" font-size="14.00">Produktion</text>
<text text-anchor="middle" x="290.27" y="-399.79" font-family="Times New Roman,serif" font-size="14.00">splanung:1</text>
<text text-anchor="middle" x="290.27" y="-384.79" font-family="Times New Roman,serif" font-size="14.00">D7b_Lane_0</text>
<text text-anchor="middle" x="290.27" y="-369.79" font-family="Times New Roman,serif" font-size="14.00">jl5f91</text>
<polyline fill="none" stroke="black" points="334.77,-361.99 334.77,-429.99 "/>
<text text-anchor="middle" x="545.77" y="-392.29" font-family="Times New Roman,serif" font-size="14.00">Warenbestand_von_Lagerplatz_&#39;ROD&#39;_in_Lagerplatz_&#39;AFS&#39;_umbuchen</text>
</g>
<!-- Task_07d38\n1f&#45;&gt;Task_00msa\nba -->
<g id="edge3" class="edge">
<title>Task_07d38\n1f&#45;&gt;Task_00msa\nba</title>
<path fill="none" stroke="black" d="M435.03,-361.86C428.55,-352.62 421.5,-342.58 414.99,-333.3"/>
<polygon fill="black" stroke="black" points="417.8,-331.22 409.2,-325.04 412.07,-335.24 417.8,-331.22"/>
</g>
<!-- Task_0vjty\ntw -->
<g id="node9" class="node">
<title>Task_0vjty\ntw</title>
<polygon fill="lightgrey" stroke="black" points="92.27,-94.99 92.27,-162.99 364.27,-162.99 364.27,-94.99 92.27,-94.99"/>
<text text-anchor="middle" x="131.77" y="-132.79" font-family="Times New Roman,serif" font-size="14.00">Task_0vjty</text>
<text text-anchor="middle" x="131.77" y="-117.79" font-family="Times New Roman,serif" font-size="14.00">tw</text>
<polyline fill="none" stroke="black" points="171.27,-94.99 171.27,-162.99 "/>
<text text-anchor="middle" x="215.27" y="-147.79" font-family="Times New Roman,serif" font-size="14.00">Lagerfachk</text>
<text text-anchor="middle" x="215.27" y="-132.79" font-family="Times New Roman,serif" font-size="14.00">raft:1CN__</text>
<text text-anchor="middle" x="215.27" y="-117.79" font-family="Times New Roman,serif" font-size="14.00">Lane_1v76w</text>
<text text-anchor="middle" x="215.27" y="-102.79" font-family="Times New Roman,serif" font-size="14.00">t5</text>
<polyline fill="none" stroke="black" points="259.27,-94.99 259.27,-162.99 "/>
<text text-anchor="middle" x="311.77" y="-125.29" font-family="Times New Roman,serif" font-size="14.00">LKW_fährt_los</text>
</g>
<!-- ExclusiveG\nateway_0j2\nzelm&#45;&gt;Task_0vjty\ntw -->
<g id="edge4" class="edge">
<title>ExclusiveG\nateway_0j2\nzelm&#45;&gt;Task_0vjty\ntw</title>
<path fill="none" stroke="black" d="M228.27,-199.41C228.27,-191.81 228.27,-182.5 228.27,-173.18"/>
<polygon fill="black" stroke="black" points="231.77,-173.16 228.27,-163.16 224.77,-173.16 231.77,-173.16"/>
</g>
<!-- ExclusiveG\nateway_18o\noe5c -->
<g id="node6" class="node">
<title>ExclusiveG\nateway_18o\noe5c</title>
<polygon fill="lightgrey" stroke="black" points="224.27,-592.49 0.23,-574.49 224.27,-556.49 448.32,-574.49 224.27,-592.49"/>
<text text-anchor="middle" x="224.27" y="-570.79" font-family="Times New Roman,serif" font-size="14.00">Nur_Handgepäck_vorhanden?_/_SPLIT</text>
</g>
<!-- ExclusiveG\nateway_18o\noe5c&#45;&gt;ExclusiveG\nateway_0j2\nzelm -->
<g id="edge6" class="edge">
<title>ExclusiveG\nateway_18o\noe5c&#45;&gt;ExclusiveG\nateway_0j2\nzelm</title>
<path fill="none" stroke="black" d="M212.61,-557.37C194.99,-531.91 162.37,-480.2 150.27,-430.49 143.02,-400.7 142.7,-391.21 150.27,-361.49 161.81,-316.25 190.92,-269.87 210.13,-242.65"/>
<polygon fill="black" stroke="black" points="212.99,-244.68 215.98,-234.51 207.3,-240.59 212.99,-244.68"/>
</g>
<!-- Task_1rgoi\ntk -->
<g id="node8" class="node">
<title>Task_1rgoi\ntk</title>
<polygon fill="lightgrey" stroke="black" points="229.77,-466.99 229.77,-519.99 546.77,-519.99 546.77,-466.99 229.77,-466.99"/>
<text text-anchor="middle" x="269.77" y="-497.29" font-family="Times New Roman,serif" font-size="14.00">Task_1rgoi</text>
<text text-anchor="middle" x="269.77" y="-482.29" font-family="Times New Roman,serif" font-size="14.00">tk</text>
<polyline fill="none" stroke="black" points="309.77,-466.99 309.77,-519.99 "/>
<text text-anchor="middle" x="354.27" y="-504.79" font-family="Times New Roman,serif" font-size="14.00">Versandbür</text>
<text text-anchor="middle" x="354.27" y="-489.79" font-family="Times New Roman,serif" font-size="14.00">o:1CN__Lan</text>
<text text-anchor="middle" x="354.27" y="-474.79" font-family="Times New Roman,serif" font-size="14.00">e_1n6g0py</text>
<polyline fill="none" stroke="black" points="398.77,-466.99 398.77,-519.99 "/>
<text text-anchor="middle" x="472.77" y="-489.79" font-family="Times New Roman,serif" font-size="14.00">Versandeinheiten_laden</text>
</g>
<!-- ExclusiveG\nateway_18o\noe5c&#45;&gt;Task_1rgoi\ntk -->
<g id="edge5" class="edge">
<title>ExclusiveG\nateway_18o\noe5c&#45;&gt;Task_1rgoi\ntk</title>
<path fill="none" stroke="black" d="M254.74,-558.82C274.7,-549.21 301.51,-536.29 325.87,-524.56"/>
<polygon fill="black" stroke="black" points="327.57,-527.62 335.06,-520.13 324.54,-521.31 327.57,-527.62"/>
</g>
<!-- Task_0os64\nne&#45;&gt;ExclusiveG\nateway_18o\noe5c -->
<g id="edge7" class="edge">
<title>Task_0os64\nne&#45;&gt;ExclusiveG\nateway_18o\noe5c</title>
<path fill="none" stroke="black" d="M224.27,-628.63C224.27,-620.4 224.27,-611.28 224.27,-602.94"/>
<polygon fill="black" stroke="black" points="227.77,-602.94 224.27,-592.94 220.77,-602.94 227.77,-602.94"/>
</g>
<!-- Task_1rgoi\ntk&#45;&gt;Task_07d38\n1f -->
<g id="edge8" class="edge">
<title>Task_1rgoi\ntk&#45;&gt;Task_07d38\n1f</title>
<path fill="none" stroke="black" d="M407.03,-466.9C413.42,-458.19 420.74,-448.2 427.81,-438.56"/>
<polygon fill="black" stroke="black" points="430.83,-440.35 433.92,-430.22 425.19,-436.21 430.83,-440.35"/>
</g>
<!-- Task_0vjty\ntw&#45;&gt;EndEvent_0\n3w97vs -->
<g id="edge9" class="edge">
<title>Task_0vjty\ntw&#45;&gt;EndEvent_0\n3w97vs</title>
<path fill="none" stroke="black" d="M228.27,-94.9C228.27,-86.55 228.27,-77.52 228.27,-68.92"/>
<polygon fill="black" stroke="black" points="231.77,-68.73 228.27,-58.73 224.77,-68.73 231.77,-68.73"/>
</g>
</g>
</svg>
