<svg width="788px" height="1000px"
 viewBox="0.00 0.00 805.00 1022.39" xmlns="http://www.w3.org/2000/svg" xmlns:xlink="http://www.w3.org/1999/xlink">
<g id="graph0" class="graph" transform="scale(1.0 1.0) rotate(0) translate(4 1018.39)">
<title>23_Passagierabfertigung_Transfer&#45;Check&#45;In</title>
<polygon fill="white" stroke="transparent" points="-4,4 -4,-1018.39 801,-1018.39 801,4 -4,4"/>
<!-- Task_1np13\nyr -->
<g id="node1" class="node">
<title>Task_1np13\nyr</title>
<polygon fill="lightgrey" stroke="black" points="4.5,-568.99 4.5,-636.99 601.5,-636.99 601.5,-568.99 4.5,-568.99"/>
<text text-anchor="middle" x="47.5" y="-606.79" font-family="Times New Roman,serif" font-size="14.00">Task_1np13</text>
<text text-anchor="middle" x="47.5" y="-591.79" font-family="Times New Roman,serif" font-size="14.00">yr</text>
<polyline fill="none" stroke="black" points="90.5,-568.99 90.5,-636.99 "/>
<text text-anchor="middle" x="135" y="-621.79" font-family="Times New Roman,serif" font-size="14.00">Produktion</text>
<text text-anchor="middle" x="135" y="-606.79" font-family="Times New Roman,serif" font-size="14.00">splanung:1</text>
<text text-anchor="middle" x="135" y="-591.79" font-family="Times New Roman,serif" font-size="14.00">D7b_Lane_0</text>
<text text-anchor="middle" x="135" y="-576.79" font-family="Times New Roman,serif" font-size="14.00">jl5f91</text>
<polyline fill="none" stroke="black" points="179.5,-568.99 179.5,-636.99 "/>
<text text-anchor="middle" x="390.5" y="-599.29" font-family="Times New Roman,serif" font-size="14.00">Warenbestand_von_Lagerplatz_&#39;ROD&#39;_in_Lagerplatz_&#39;AFS&#39;_umbuchen</text>
</g>
<!-- Task_14kqa\nq9 -->
<g id="node3" class="node">
<title>Task_14kqa\nq9</title>
<polygon fill="lightgrey" stroke="black" points="138,-478.99 138,-531.99 468,-531.99 468,-478.99 138,-478.99"/>
<text text-anchor="middle" x="181" y="-509.29" font-family="Times New Roman,serif" font-size="14.00">Task_14kqa</text>
<text text-anchor="middle" x="181" y="-494.29" font-family="Times New Roman,serif" font-size="14.00">q9</text>
<polyline fill="none" stroke="black" points="224,-478.99 224,-531.99 "/>
<text text-anchor="middle" x="270" y="-516.79" font-family="Times New Roman,serif" font-size="14.00">Verkäufer:</text>
<text text-anchor="middle" x="270" y="-501.79" font-family="Times New Roman,serif" font-size="14.00">1CV__Lane_</text>
<text text-anchor="middle" x="270" y="-486.79" font-family="Times New Roman,serif" font-size="14.00">131x34o</text>
<polyline fill="none" stroke="black" points="316,-478.99 316,-531.99 "/>
<text text-anchor="middle" x="392" y="-501.79" font-family="Times New Roman,serif" font-size="14.00">Kundenretoure_erstellen</text>
</g>
<!-- Task_1np13\nyr&#45;&gt;Task_14kqa\nq9 -->
<g id="edge1" class="edge">
<title>Task_1np13\nyr&#45;&gt;Task_14kqa\nq9</title>
<path fill="none" stroke="black" d="M303,-568.86C303,-560.28 303,-551.01 303,-542.3"/>
<polygon fill="black" stroke="black" points="306.5,-542.04 303,-532.04 299.5,-542.04 306.5,-542.04"/>
</g>
<!-- ExclusiveG\nateway_0fp\nk3dn -->
<g id="node2" class="node">
<title>ExclusiveG\nateway_0fp\nk3dn</title>
<polygon fill="lightgrey" stroke="black" points="303,-265.49 136.76,-247.49 303,-229.49 469.24,-247.49 303,-265.49"/>
<text text-anchor="middle" x="303" y="-243.79" font-family="Times New Roman,serif" font-size="14.00">Gepäck_vorhanden?_/_JOIN</text>
</g>
<!-- Task_0azc7\n5j -->
<g id="node5" class="node">
<title>Task_0azc7\n5j</title>
<polygon fill="lightgrey" stroke="black" points="103,-94.99 103,-192.99 503,-192.99 503,-94.99 103,-94.99"/>
<text text-anchor="middle" x="145" y="-147.79" font-family="Times New Roman,serif" font-size="14.00">Task_0azc7</text>
<text text-anchor="middle" x="145" y="-132.79" font-family="Times New Roman,serif" font-size="14.00">5j</text>
<polyline fill="none" stroke="black" points="187,-94.99 187,-192.99 "/>
<text text-anchor="middle" x="231.5" y="-177.79" font-family="Times New Roman,serif" font-size="14.00">Lagerfachk</text>
<text text-anchor="middle" x="231.5" y="-162.79" font-family="Times New Roman,serif" font-size="14.00">raft_/_Qua</text>
<text text-anchor="middle" x="231.5" y="-147.79" font-family="Times New Roman,serif" font-size="14.00">litätsinsp</text>
<text text-anchor="middle" x="231.5" y="-132.79" font-family="Times New Roman,serif" font-size="14.00">ektor:1D9_</text>
<text text-anchor="middle" x="231.5" y="-117.79" font-family="Times New Roman,serif" font-size="14.00">_Lane_05em</text>
<text text-anchor="middle" x="231.5" y="-102.79" font-family="Times New Roman,serif" font-size="14.00">2bm</text>
<polyline fill="none" stroke="black" points="276,-94.99 276,-192.99 "/>
<text text-anchor="middle" x="389.5" y="-140.29" font-family="Times New Roman,serif" font-size="14.00">Ware_zum_Übergabepunkt_bewegen</text>
</g>
<!-- ExclusiveG\nateway_0fp\nk3dn&#45;&gt;Task_0azc7\n5j -->
<g id="edge2" class="edge">
<title>ExclusiveG\nateway_0fp\nk3dn&#45;&gt;Task_0azc7\n5j</title>
<path fill="none" stroke="black" d="M303,-229.28C303,-221.97 303,-212.98 303,-203.62"/>
<polygon fill="black" stroke="black" points="306.5,-203.39 303,-193.39 299.5,-203.39 306.5,-203.39"/>
</g>
<!-- ExclusiveG\nateway_1t1\noj2k -->
<g id="node8" class="node">
<title>ExclusiveG\nateway_1t1\noj2k</title>
<polygon fill="lightgrey" stroke="black" points="303,-442.49 129.06,-424.49 303,-406.49 476.94,-424.49 303,-442.49"/>
<text text-anchor="middle" x="303" y="-420.79" font-family="Times New Roman,serif" font-size="14.00">Gepäck_vorhanden?_/_SPLIT</text>
</g>
<!-- Task_14kqa\nq9&#45;&gt;ExclusiveG\nateway_1t1\noj2k -->
<g id="edge3" class="edge">
<title>Task_14kqa\nq9&#45;&gt;ExclusiveG\nateway_1t1\noj2k</title>
<path fill="none" stroke="black" d="M303,-478.63C303,-470.4 303,-461.28 303,-452.94"/>
<polygon fill="black" stroke="black" points="306.5,-452.94 303,-442.94 299.5,-452.94 306.5,-452.94"/>
</g>
<!-- Task_1kkj8\n4m -->
<g id="node4" class="node">
<title>Task_1kkj8\n4m</title>
<polygon fill="lightgrey" stroke="black" points="169,-853.99 169,-921.99 437,-921.99 437,-853.99 169,-853.99"/>
<text text-anchor="middle" x="210" y="-891.79" font-family="Times New Roman,serif" font-size="14.00">Task_1kkj8</text>
<text text-anchor="middle" x="210" y="-876.79" font-family="Times New Roman,serif" font-size="14.00">4m</text>
<polyline fill="none" stroke="black" points="251,-853.99 251,-921.99 "/>
<text text-anchor="middle" x="295" y="-906.79" font-family="Times New Roman,serif" font-size="14.00">Lagerfachk</text>
<text text-anchor="middle" x="295" y="-891.79" font-family="Times New Roman,serif" font-size="14.00">raft:1CR__</text>
<text text-anchor="middle" x="295" y="-876.79" font-family="Times New Roman,serif" font-size="14.00">Lane_1v76w</text>
<text text-anchor="middle" x="295" y="-861.79" font-family="Times New Roman,serif" font-size="14.00">t5</text>
<polyline fill="none" stroke="black" points="339,-853.99 339,-921.99 "/>
<text text-anchor="middle" x="388" y="-884.29" font-family="Times New Roman,serif" font-size="14.00">LKW_beladen</text>
</g>
<!-- Task_18cot\nkr -->
<g id="node9" class="node">
<title>Task_18cot\nkr</title>
<polygon fill="lightgrey" stroke="black" points="0,-763.99 0,-816.99 606,-816.99 606,-763.99 0,-763.99"/>
<text text-anchor="middle" x="41.5" y="-794.29" font-family="Times New Roman,serif" font-size="14.00">Task_18cot</text>
<text text-anchor="middle" x="41.5" y="-779.29" font-family="Times New Roman,serif" font-size="14.00">kr</text>
<polyline fill="none" stroke="black" points="83,-763.99 83,-816.99 "/>
<text text-anchor="middle" x="127.5" y="-801.79" font-family="Times New Roman,serif" font-size="14.00">Versandbür</text>
<text text-anchor="middle" x="127.5" y="-786.79" font-family="Times New Roman,serif" font-size="14.00">o:1CN__Lan</text>
<text text-anchor="middle" x="127.5" y="-771.79" font-family="Times New Roman,serif" font-size="14.00">e_1n6g0py</text>
<polyline fill="none" stroke="black" points="172,-763.99 172,-816.99 "/>
<text text-anchor="middle" x="389" y="-786.79" font-family="Times New Roman,serif" font-size="14.00">Transporteinheit_bearbeiten_inklusiv._Check&#45;In_und_am_Tor_ankommen</text>
</g>
<!-- Task_1kkj8\n4m&#45;&gt;Task_18cot\nkr -->
<g id="edge4" class="edge">
<title>Task_1kkj8\n4m&#45;&gt;Task_18cot\nkr</title>
<path fill="none" stroke="black" d="M303,-853.86C303,-845.28 303,-836.01 303,-827.3"/>
<polygon fill="black" stroke="black" points="306.5,-827.04 303,-817.04 299.5,-827.04 306.5,-827.04"/>
</g>
<!-- EndEvent_0\n2iafj4 -->
<g id="node7" class="node">
<title>EndEvent_0\n2iafj4</title>
<ellipse fill="lightgrey" stroke="black" cx="303" cy="-29.25" rx="29.5" ry="29.5"/>
<text text-anchor="middle" x="303" y="-25.55" font-family="Times New Roman,serif" font-size="14.00">Ende</text>
</g>
<!-- Task_0azc7\n5j&#45;&gt;EndEvent_0\n2iafj4 -->
<g id="edge5" class="edge">
<title>Task_0azc7\n5j&#45;&gt;EndEvent_0\n2iafj4</title>
<path fill="none" stroke="black" d="M303,-94.85C303,-86.18 303,-77.25 303,-68.89"/>
<polygon fill="black" stroke="black" points="306.5,-68.68 303,-58.68 299.5,-68.68 306.5,-68.68"/>
</g>
<!-- Task_05myg\nbw -->
<g id="node6" class="node">
<title>Task_05myg\nbw</title>
<polygon fill="lightgrey" stroke="black" points="140,-673.99 140,-726.99 466,-726.99 466,-673.99 140,-673.99"/>
<text text-anchor="middle" x="184.5" y="-704.29" font-family="Times New Roman,serif" font-size="14.00">Task_05myg</text>
<text text-anchor="middle" x="184.5" y="-689.29" font-family="Times New Roman,serif" font-size="14.00">bw</text>
<polyline fill="none" stroke="black" points="229,-673.99 229,-726.99 "/>
<text text-anchor="middle" x="273.5" y="-711.79" font-family="Times New Roman,serif" font-size="14.00">Versandbür</text>
<text text-anchor="middle" x="273.5" y="-696.79" font-family="Times New Roman,serif" font-size="14.00">o:1CN__Lan</text>
<text text-anchor="middle" x="273.5" y="-681.79" font-family="Times New Roman,serif" font-size="14.00">e_1n6g0py</text>
<polyline fill="none" stroke="black" points="318,-673.99 318,-726.99 "/>
<text text-anchor="middle" x="392" y="-696.79" font-family="Times New Roman,serif" font-size="14.00">Versandeinheiten_laden</text>
</g>
<!-- Task_05myg\nbw&#45;&gt;Task_1np13\nyr -->
<g id="edge6" class="edge">
<title>Task_05myg\nbw&#45;&gt;Task_1np13\nyr</title>
<path fill="none" stroke="black" d="M303,-673.9C303,-665.71 303,-656.41 303,-647.32"/>
<polygon fill="black" stroke="black" points="306.5,-647.22 303,-637.22 299.5,-647.22 306.5,-647.22"/>
</g>
<!-- ExclusiveG\nateway_1t1\noj2k&#45;&gt;ExclusiveG\nateway_0fp\nk3dn -->
<g id="edge8" class="edge">
<title>ExclusiveG\nateway_1t1\noj2k&#45;&gt;ExclusiveG\nateway_0fp\nk3dn</title>
<path fill="none" stroke="black" d="M221.34,-414.86C193.45,-407.56 165.04,-394.32 148,-370.49 130.17,-345.55 130.17,-326.44 148,-301.49 163.26,-280.15 187.65,-267.31 212.61,-259.61"/>
<polygon fill="black" stroke="black" points="213.88,-262.89 222.56,-256.81 211.98,-256.15 213.88,-262.89"/>
</g>
<!-- Task_0q17j\n2r -->
<g id="node10" class="node">
<title>Task_0q17j\n2r</title>
<polygon fill="lightgrey" stroke="black" points="157,-301.99 157,-369.99 797,-369.99 797,-301.99 157,-301.99"/>
<text text-anchor="middle" x="198.5" y="-339.79" font-family="Times New Roman,serif" font-size="14.00">Task_0q17j</text>
<text text-anchor="middle" x="198.5" y="-324.79" font-family="Times New Roman,serif" font-size="14.00">2r</text>
<polyline fill="none" stroke="black" points="240,-301.99 240,-369.99 "/>
<text text-anchor="middle" x="283" y="-354.79" font-family="Times New Roman,serif" font-size="14.00">Lagerfachk</text>
<text text-anchor="middle" x="283" y="-339.79" font-family="Times New Roman,serif" font-size="14.00">raft:1BQ__</text>
<text text-anchor="middle" x="283" y="-324.79" font-family="Times New Roman,serif" font-size="14.00">Lane_11q77</text>
<text text-anchor="middle" x="283" y="-309.79" font-family="Times New Roman,serif" font-size="14.00">qc</text>
<polyline fill="none" stroke="black" points="326,-301.99 326,-369.99 "/>
<text text-anchor="middle" x="561.5" y="-332.29" font-family="Times New Roman,serif" font-size="14.00">Produkte_vom_Übergabepunkt_in_den_Puffer_für_Hochregal&#45;paletten_einlagern</text>
</g>
<!-- ExclusiveG\nateway_1t1\noj2k&#45;&gt;Task_0q17j\n2r -->
<g id="edge7" class="edge">
<title>ExclusiveG\nateway_1t1\noj2k&#45;&gt;Task_0q17j\n2r</title>
<path fill="none" stroke="black" d="M331.34,-409.4C350.38,-399.94 376.44,-386.99 401.25,-374.65"/>
<polygon fill="black" stroke="black" points="402.93,-377.73 410.32,-370.14 399.81,-371.46 402.93,-377.73"/>
</g>
<!-- Task_18cot\nkr&#45;&gt;Task_05myg\nbw -->
<g id="edge9" class="edge">
<title>Task_18cot\nkr&#45;&gt;Task_05myg\nbw</title>
<path fill="none" stroke="black" d="M303,-763.57C303,-755.33 303,-746.07 303,-737.27"/>
<polygon fill="black" stroke="black" points="306.5,-737.24 303,-727.24 299.5,-737.24 306.5,-737.24"/>
</g>
<!-- Task_0q17j\n2r&#45;&gt;ExclusiveG\nateway_0fp\nk3dn -->
<g id="edge10" class="edge">
<title>Task_0q17j\n2r&#45;&gt;ExclusiveG\nateway_0fp\nk3dn</title>
<path fill="none" stroke="black" d="M410.22,-301.8C386.56,-290.04 360.79,-277.22 340.44,-267.11"/>
<polygon fill="black" stroke="black" points="341.72,-263.84 331.21,-262.52 338.61,-270.1 341.72,-263.84"/>
</g>
<!-- StartEvent\n_23 -->
<g id="node11" class="node">
<title>StartEvent\n_23</title>
<ellipse fill="lightgrey" stroke="black" cx="303" cy="-986.44" rx="27.9" ry="27.9"/>
<text text-anchor="middle" x="303" y="-982.74" font-family="Times New Roman,serif" font-size="14.00">Start</text>
</g>
<!-- StartEvent\n_23&#45;&gt;Task_1kkj8\n4m -->
<g id="edge11" class="edge">
<title>StartEvent\n_23&#45;&gt;Task_1kkj8\n4m</title>
<path fill="none" stroke="black" d="M303,-958.32C303,-950.23 303,-941.15 303,-932.3"/>
<polygon fill="black" stroke="black" points="306.5,-932.08 303,-922.08 299.5,-932.08 306.5,-932.08"/>
</g>
</g>
</svg>
