<svg width="506px" height="1000px"
 viewBox="0.00 0.00 540.06 1067.39" xmlns="http://www.w3.org/2000/svg" xmlns:xlink="http://www.w3.org/1999/xlink">
<g id="graph0" class="graph" transform="scale(1.0 1.0) rotate(0) translate(4 1063.39)">
<title>30_Gepäckkontrolle_Normalgepäck</title>
<polygon fill="white" stroke="transparent" points="-4,4 -4,-1063.39 536.06,-1063.39 536.06,4 -4,4"/>
<!-- ExclusiveG\nateway_05z\nvn0c -->
<g id="node1" class="node">
<title>ExclusiveG\nateway_05z\nvn0c</title>
<polygon fill="lightgrey" stroke="black" points="356.5,-682.49 180.88,-664.49 356.5,-646.49 532.12,-664.49 356.5,-682.49"/>
<text text-anchor="middle" x="356.5" y="-660.79" font-family="Times New Roman,serif" font-size="14.00">Inhalt_unbedenklich?_/_SPLIT</text>
</g>
<!-- Task_19i1z\nnj -->
<g id="node4" class="node">
<title>Task_19i1z\nnj</title>
<polygon fill="lightgrey" stroke="black" points="104.5,-556.99 104.5,-609.99 422.5,-609.99 422.5,-556.99 104.5,-556.99"/>
<text text-anchor="middle" x="145" y="-587.29" font-family="Times New Roman,serif" font-size="14.00">Task_19i1z</text>
<text text-anchor="middle" x="145" y="-572.29" font-family="Times New Roman,serif" font-size="14.00">nj</text>
<polyline fill="none" stroke="black" points="185.5,-556.99 185.5,-609.99 "/>
<text text-anchor="middle" x="230" y="-594.79" font-family="Times New Roman,serif" font-size="14.00">Versandbür</text>
<text text-anchor="middle" x="230" y="-579.79" font-family="Times New Roman,serif" font-size="14.00">o:1CN__Lan</text>
<text text-anchor="middle" x="230" y="-564.79" font-family="Times New Roman,serif" font-size="14.00">e_1n6g0py</text>
<polyline fill="none" stroke="black" points="274.5,-556.99 274.5,-609.99 "/>
<text text-anchor="middle" x="348.5" y="-579.79" font-family="Times New Roman,serif" font-size="14.00">Versandeinheiten_laden</text>
</g>
<!-- ExclusiveG\nateway_05z\nvn0c&#45;&gt;Task_19i1z\nnj -->
<g id="edge2" class="edge">
<title>ExclusiveG\nateway_05z\nvn0c&#45;&gt;Task_19i1z\nnj</title>
<path fill="none" stroke="black" d="M338.57,-648.26C328.08,-639.35 314.42,-627.75 301.63,-616.89"/>
<polygon fill="black" stroke="black" points="303.71,-614.06 293.82,-610.25 299.18,-619.39 303.71,-614.06"/>
</g>
<!-- ExclusiveG\nateway_1wq\nw5a7 -->
<g id="node7" class="node">
<title>ExclusiveG\nateway_1wq\nw5a7</title>
<polygon fill="lightgrey" stroke="black" points="341.5,-310.49 173.09,-292.49 341.5,-274.49 509.91,-292.49 341.5,-310.49"/>
<text text-anchor="middle" x="341.5" y="-288.79" font-family="Times New Roman,serif" font-size="14.00">Inhalt_unbedenklich?_/_JOIN</text>
</g>
<!-- ExclusiveG\nateway_05z\nvn0c&#45;&gt;ExclusiveG\nateway_1wq\nw5a7 -->
<g id="edge1" class="edge">
<title>ExclusiveG\nateway_05z\nvn0c&#45;&gt;ExclusiveG\nateway_1wq\nw5a7</title>
<path fill="none" stroke="black" d="M388.01,-649.49C403.89,-640.69 421.79,-627.71 431.5,-610.49 489.23,-508.16 506.89,-446.68 445.5,-346.49 434.95,-329.28 416.86,-317.44 398.7,-309.39"/>
<polygon fill="black" stroke="black" points="399.81,-306.07 389.23,-305.52 397.16,-312.55 399.81,-306.07"/>
</g>
<!-- EndEvent_1\n927rr7 -->
<g id="node2" class="node">
<title>EndEvent_1\n927rr7</title>
<ellipse fill="lightgrey" stroke="black" cx="341.5" cy="-29.25" rx="29.5" ry="29.5"/>
<text text-anchor="middle" x="341.5" y="-25.55" font-family="Times New Roman,serif" font-size="14.00">Ende</text>
</g>
<!-- Task_130iv\no6 -->
<g id="node3" class="node">
<title>Task_130iv\no6</title>
<polygon fill="lightgrey" stroke="black" points="182,-184.99 182,-237.99 501,-237.99 501,-184.99 182,-184.99"/>
<text text-anchor="middle" x="223" y="-215.29" font-family="Times New Roman,serif" font-size="14.00">Task_130iv</text>
<text text-anchor="middle" x="223" y="-200.29" font-family="Times New Roman,serif" font-size="14.00">o6</text>
<polyline fill="none" stroke="black" points="264,-184.99 264,-237.99 "/>
<text text-anchor="middle" x="308.5" y="-222.79" font-family="Times New Roman,serif" font-size="14.00">Versandbür</text>
<text text-anchor="middle" x="308.5" y="-207.79" font-family="Times New Roman,serif" font-size="14.00">o:1CN__Lan</text>
<text text-anchor="middle" x="308.5" y="-192.79" font-family="Times New Roman,serif" font-size="14.00">e_1n6g0py</text>
<polyline fill="none" stroke="black" points="353,-184.99 353,-237.99 "/>
<text text-anchor="middle" x="427" y="-207.79" font-family="Times New Roman,serif" font-size="14.00">Versandeinheiten_laden</text>
</g>
<!-- Task_1f0ef\ngz -->
<g id="node8" class="node">
<title>Task_1f0ef\ngz</title>
<polygon fill="lightgrey" stroke="black" points="183,-94.99 183,-147.99 500,-147.99 500,-94.99 183,-94.99"/>
<text text-anchor="middle" x="223" y="-125.29" font-family="Times New Roman,serif" font-size="14.00">Task_1f0ef</text>
<text text-anchor="middle" x="223" y="-110.29" font-family="Times New Roman,serif" font-size="14.00">gz</text>
<polyline fill="none" stroke="black" points="263,-94.99 263,-147.99 "/>
<text text-anchor="middle" x="307.5" y="-132.79" font-family="Times New Roman,serif" font-size="14.00">Versandbür</text>
<text text-anchor="middle" x="307.5" y="-117.79" font-family="Times New Roman,serif" font-size="14.00">o:1CN__Lan</text>
<text text-anchor="middle" x="307.5" y="-102.79" font-family="Times New Roman,serif" font-size="14.00">e_1n6g0py</text>
<polyline fill="none" stroke="black" points="352,-94.99 352,-147.99 "/>
<text text-anchor="middle" x="426" y="-117.79" font-family="Times New Roman,serif" font-size="14.00">Versandeinheiten_laden</text>
</g>
<!-- Task_130iv\no6&#45;&gt;Task_1f0ef\ngz -->
<g id="edge3" class="edge">
<title>Task_130iv\no6&#45;&gt;Task_1f0ef\ngz</title>
<path fill="none" stroke="black" d="M341.5,-184.57C341.5,-176.33 341.5,-167.07 341.5,-158.27"/>
<polygon fill="black" stroke="black" points="345,-158.24 341.5,-148.24 338,-158.24 345,-158.24"/>
</g>
<!-- Task_109wj\nkx -->
<g id="node12" class="node">
<title>Task_109wj\nkx</title>
<polygon fill="lightgrey" stroke="black" points="113,-451.99 113,-519.99 384,-519.99 384,-451.99 113,-451.99"/>
<text text-anchor="middle" x="155.5" y="-489.79" font-family="Times New Roman,serif" font-size="14.00">Task_109wj</text>
<text text-anchor="middle" x="155.5" y="-474.79" font-family="Times New Roman,serif" font-size="14.00">kx</text>
<polyline fill="none" stroke="black" points="198,-451.99 198,-519.99 "/>
<text text-anchor="middle" x="242" y="-504.79" font-family="Times New Roman,serif" font-size="14.00">Lagerfachk</text>
<text text-anchor="middle" x="242" y="-489.79" font-family="Times New Roman,serif" font-size="14.00">raft:1CR__</text>
<text text-anchor="middle" x="242" y="-474.79" font-family="Times New Roman,serif" font-size="14.00">Lane_1v76w</text>
<text text-anchor="middle" x="242" y="-459.79" font-family="Times New Roman,serif" font-size="14.00">t5</text>
<polyline fill="none" stroke="black" points="286,-451.99 286,-519.99 "/>
<text text-anchor="middle" x="335" y="-482.29" font-family="Times New Roman,serif" font-size="14.00">LKW_beladen</text>
</g>
<!-- Task_19i1z\nnj&#45;&gt;Task_109wj\nkx -->
<g id="edge4" class="edge">
<title>Task_19i1z\nnj&#45;&gt;Task_109wj\nkx</title>
<path fill="none" stroke="black" d="M259.48,-556.9C258.19,-548.71 256.73,-539.41 255.3,-530.32"/>
<polygon fill="black" stroke="black" points="258.73,-529.55 253.72,-520.22 251.81,-530.64 258.73,-529.55"/>
</g>
<!-- StartEvent\n_30 -->
<g id="node5" class="node">
<title>StartEvent\n_30</title>
<ellipse fill="lightgrey" stroke="black" cx="356.5" cy="-1031.44" rx="27.9" ry="27.9"/>
<text text-anchor="middle" x="356.5" y="-1027.74" font-family="Times New Roman,serif" font-size="14.00">Start</text>
</g>
<!-- Task_0n2sc\n2s -->
<g id="node9" class="node">
<title>Task_0n2sc\n2s</title>
<polygon fill="lightgrey" stroke="black" points="195.5,-913.99 195.5,-966.99 517.5,-966.99 517.5,-913.99 195.5,-913.99"/>
<text text-anchor="middle" x="238" y="-944.29" font-family="Times New Roman,serif" font-size="14.00">Task_0n2sc</text>
<text text-anchor="middle" x="238" y="-929.29" font-family="Times New Roman,serif" font-size="14.00">2s</text>
<polyline fill="none" stroke="black" points="280.5,-913.99 280.5,-966.99 "/>
<text text-anchor="middle" x="325" y="-951.79" font-family="Times New Roman,serif" font-size="14.00">Versandbür</text>
<text text-anchor="middle" x="325" y="-936.79" font-family="Times New Roman,serif" font-size="14.00">o:1CN__Lan</text>
<text text-anchor="middle" x="325" y="-921.79" font-family="Times New Roman,serif" font-size="14.00">e_1n6g0py</text>
<polyline fill="none" stroke="black" points="369.5,-913.99 369.5,-966.99 "/>
<text text-anchor="middle" x="443.5" y="-936.79" font-family="Times New Roman,serif" font-size="14.00">Versandeinheiten_laden</text>
</g>
<!-- StartEvent\n_30&#45;&gt;Task_0n2sc\n2s -->
<g id="edge5" class="edge">
<title>StartEvent\n_30&#45;&gt;Task_0n2sc\n2s</title>
<path fill="none" stroke="black" d="M356.5,-1003.27C356.5,-995.14 356.5,-986.08 356.5,-977.47"/>
<polygon fill="black" stroke="black" points="360,-977.28 356.5,-967.28 353,-977.28 360,-977.28"/>
</g>
<!-- Task_005uo\nar -->
<g id="node6" class="node">
<title>Task_005uo\nar</title>
<polygon fill="lightgrey" stroke="black" points="217,-718.99 217,-786.99 496,-786.99 496,-718.99 217,-718.99"/>
<text text-anchor="middle" x="260" y="-756.79" font-family="Times New Roman,serif" font-size="14.00">Task_005uo</text>
<text text-anchor="middle" x="260" y="-741.79" font-family="Times New Roman,serif" font-size="14.00">ar</text>
<polyline fill="none" stroke="black" points="303,-718.99 303,-786.99 "/>
<text text-anchor="middle" x="347" y="-771.79" font-family="Times New Roman,serif" font-size="14.00">Lagerfachk</text>
<text text-anchor="middle" x="347" y="-756.79" font-family="Times New Roman,serif" font-size="14.00">raft:1CN__</text>
<text text-anchor="middle" x="347" y="-741.79" font-family="Times New Roman,serif" font-size="14.00">Lane_1v76w</text>
<text text-anchor="middle" x="347" y="-726.79" font-family="Times New Roman,serif" font-size="14.00">t5</text>
<polyline fill="none" stroke="black" points="391,-718.99 391,-786.99 "/>
<text text-anchor="middle" x="443.5" y="-749.29" font-family="Times New Roman,serif" font-size="14.00">LKW_fährt_los</text>
</g>
<!-- Task_005uo\nar&#45;&gt;ExclusiveG\nateway_05z\nvn0c -->
<g id="edge6" class="edge">
<title>Task_005uo\nar&#45;&gt;ExclusiveG\nateway_05z\nvn0c</title>
<path fill="none" stroke="black" d="M356.5,-718.8C356.5,-710.19 356.5,-701.01 356.5,-692.74"/>
<polygon fill="black" stroke="black" points="360,-692.52 356.5,-682.52 353,-692.52 360,-692.52"/>
</g>
<!-- ExclusiveG\nateway_1wq\nw5a7&#45;&gt;Task_130iv\no6 -->
<g id="edge7" class="edge">
<title>ExclusiveG\nateway_1wq\nw5a7&#45;&gt;Task_130iv\no6</title>
<path fill="none" stroke="black" d="M341.5,-274.35C341.5,-266.64 341.5,-257.23 341.5,-248.09"/>
<polygon fill="black" stroke="black" points="345,-248.01 341.5,-238.01 338,-248.01 345,-248.01"/>
</g>
<!-- Task_1f0ef\ngz&#45;&gt;EndEvent_1\n927rr7 -->
<g id="edge8" class="edge">
<title>Task_1f0ef\ngz&#45;&gt;EndEvent_1\n927rr7</title>
<path fill="none" stroke="black" d="M341.5,-94.87C341.5,-86.78 341.5,-77.66 341.5,-68.87"/>
<polygon fill="black" stroke="black" points="345,-68.79 341.5,-58.79 338,-68.79 345,-68.79"/>
</g>
<!-- Task_13ge2\nir -->
<g id="node11" class="node">
<title>Task_13ge2\nir</title>
<polygon fill="lightgrey" stroke="black" points="195.5,-823.99 195.5,-876.99 517.5,-876.99 517.5,-823.99 195.5,-823.99"/>
<text text-anchor="middle" x="238" y="-854.29" font-family="Times New Roman,serif" font-size="14.00">Task_13ge2</text>
<text text-anchor="middle" x="238" y="-839.29" font-family="Times New Roman,serif" font-size="14.00">ir</text>
<polyline fill="none" stroke="black" points="280.5,-823.99 280.5,-876.99 "/>
<text text-anchor="middle" x="325" y="-861.79" font-family="Times New Roman,serif" font-size="14.00">Versandbür</text>
<text text-anchor="middle" x="325" y="-846.79" font-family="Times New Roman,serif" font-size="14.00">o:1CN__Lan</text>
<text text-anchor="middle" x="325" y="-831.79" font-family="Times New Roman,serif" font-size="14.00">e_1n6g0py</text>
<polyline fill="none" stroke="black" points="369.5,-823.99 369.5,-876.99 "/>
<text text-anchor="middle" x="443.5" y="-846.79" font-family="Times New Roman,serif" font-size="14.00">Versandeinheiten_laden</text>
</g>
<!-- Task_0n2sc\n2s&#45;&gt;Task_13ge2\nir -->
<g id="edge9" class="edge">
<title>Task_0n2sc\n2s&#45;&gt;Task_13ge2\nir</title>
<path fill="none" stroke="black" d="M356.5,-913.57C356.5,-905.33 356.5,-896.07 356.5,-887.27"/>
<polygon fill="black" stroke="black" points="360,-887.24 356.5,-877.24 353,-887.24 360,-887.24"/>
</g>
<!-- Task_1jjvo\nru -->
<g id="node10" class="node">
<title>Task_1jjvo\nru</title>
<polygon fill="lightgrey" stroke="black" points="0,-346.99 0,-414.99 437,-414.99 437,-346.99 0,-346.99"/>
<text text-anchor="middle" x="39.5" y="-384.79" font-family="Times New Roman,serif" font-size="14.00">Task_1jjvo</text>
<text text-anchor="middle" x="39.5" y="-369.79" font-family="Times New Roman,serif" font-size="14.00">ru</text>
<polyline fill="none" stroke="black" points="79,-346.99 79,-414.99 "/>
<text text-anchor="middle" x="123" y="-399.79" font-family="Times New Roman,serif" font-size="14.00">Lagerfachk</text>
<text text-anchor="middle" x="123" y="-384.79" font-family="Times New Roman,serif" font-size="14.00">raft:1D5__</text>
<text text-anchor="middle" x="123" y="-369.79" font-family="Times New Roman,serif" font-size="14.00">Lane_1v76w</text>
<text text-anchor="middle" x="123" y="-354.79" font-family="Times New Roman,serif" font-size="14.00">t5</text>
<polyline fill="none" stroke="black" points="167,-346.99 167,-414.99 "/>
<text text-anchor="middle" x="302" y="-377.29" font-family="Times New Roman,serif" font-size="14.00">Einzelne_Kartons_aus_Großlager_entnehmen</text>
</g>
<!-- Task_1jjvo\nru&#45;&gt;ExclusiveG\nateway_1wq\nw5a7 -->
<g id="edge10" class="edge">
<title>Task_1jjvo\nru&#45;&gt;ExclusiveG\nateway_1wq\nw5a7</title>
<path fill="none" stroke="black" d="M265.7,-346.8C281.3,-335.83 298.2,-323.95 312.07,-314.19"/>
<polygon fill="black" stroke="black" points="314.11,-317.04 320.28,-308.42 310.08,-311.31 314.11,-317.04"/>
</g>
<!-- Task_13ge2\nir&#45;&gt;Task_005uo\nar -->
<g id="edge11" class="edge">
<title>Task_13ge2\nir&#45;&gt;Task_005uo\nar</title>
<path fill="none" stroke="black" d="M356.5,-823.9C356.5,-815.71 356.5,-806.41 356.5,-797.32"/>
<polygon fill="black" stroke="black" points="360,-797.22 356.5,-787.22 353,-797.22 360,-797.22"/>
</g>
<!-- Task_109wj\nkx&#45;&gt;Task_1jjvo\nru -->
<g id="edge12" class="edge">
<title>Task_109wj\nkx&#45;&gt;Task_1jjvo\nru</title>
<path fill="none" stroke="black" d="M238.84,-451.84C236.33,-443.2 233.58,-433.77 230.94,-424.71"/>
<polygon fill="black" stroke="black" points="234.3,-423.71 228.14,-415.09 227.58,-425.67 234.3,-423.71"/>
</g>
</g>
</svg>
