<svg width="600px" height="956px"
 viewBox="0.00 0.00 452.72 722.39" xmlns="http://www.w3.org/2000/svg" xmlns:xlink="http://www.w3.org/1999/xlink">
<g id="graph0" class="graph" transform="scale(1.0 1.0) rotate(0) translate(4 718.39)">
<title>02_Passagierabfertigung_am_Check&#45;In&#45;Automaten</title>
<polygon fill="white" stroke="transparent" points="-4,4 -4,-718.39 448.72,-718.39 448.72,4 -4,4"/>
<!-- StartEvent\n_2 -->
<g id="node1" class="node">
<title>StartEvent\n_2</title>
<ellipse fill="lightgrey" stroke="black" cx="173.72" cy="-686.44" rx="27.9" ry="27.9"/>
<text text-anchor="middle" x="173.72" y="-682.74" font-family="Times New Roman,serif" font-size="14.00">Start</text>
</g>
<!-- Task_0dhs6\nwg_Task_0x\ngtymq -->
<g id="node5" class="node">
<title>Task_0dhs6\nwg_Task_0x\ngtymq</title>
<polygon fill="none" stroke="black" stroke-dasharray="5,2" points="2.22,-508.99 2.22,-621.99 345.22,-621.99 345.22,-508.99 2.22,-508.99"/>
<text text-anchor="middle" x="46.72" y="-576.79" font-family="Times New Roman,serif" font-size="14.00">Task_0dhs6</text>
<text text-anchor="middle" x="46.72" y="-561.79" font-family="Times New Roman,serif" font-size="14.00">wg_Task_0x</text>
<text text-anchor="middle" x="46.72" y="-546.79" font-family="Times New Roman,serif" font-size="14.00">gtymq</text>
<polyline fill="none" stroke="black" stroke-dasharray="5,2" points="91.22,-508.99 91.22,-621.99 "/>
<text text-anchor="middle" x="133.22" y="-599.29" font-family="Times New Roman,serif" font-size="14.00">Passagier:</text>
<text text-anchor="middle" x="133.22" y="-584.29" font-family="Times New Roman,serif" font-size="14.00">Lane_1gl9w</text>
<text text-anchor="middle" x="133.22" y="-569.29" font-family="Times New Roman,serif" font-size="14.00">5l&amp;Check&#45;I</text>
<text text-anchor="middle" x="133.22" y="-554.29" font-family="Times New Roman,serif" font-size="14.00">n&#45;Automat:</text>
<text text-anchor="middle" x="133.22" y="-539.29" font-family="Times New Roman,serif" font-size="14.00">Lane_140hr</text>
<text text-anchor="middle" x="133.22" y="-524.29" font-family="Times New Roman,serif" font-size="14.00">48</text>
<polyline fill="none" stroke="black" stroke-dasharray="5,2" points="175.22,-508.99 175.22,-621.99 "/>
<text text-anchor="middle" x="260.22" y="-606.79" font-family="Times New Roman,serif" font-size="14.00">sequential execution:</text>
<text text-anchor="middle" x="260.22" y="-591.79" font-family="Times New Roman,serif" font-size="14.00">Person_bewegen</text>
<text text-anchor="middle" x="260.22" y="-576.79" font-family="Times New Roman,serif" font-size="14.00">Flughafenbereich_erreichen</text>
<text text-anchor="middle" x="260.22" y="-561.79" font-family="Times New Roman,serif" font-size="14.00">Warten</text>
<text text-anchor="middle" x="260.22" y="-546.79" font-family="Times New Roman,serif" font-size="14.00">Kontrollieren</text>
<text text-anchor="middle" x="260.22" y="-531.79" font-family="Times New Roman,serif" font-size="14.00">Sonstige_Tasks</text>
<text text-anchor="middle" x="260.22" y="-516.79" font-family="Times New Roman,serif" font-size="14.00">Dokument_bearbeiten</text>
</g>
<!-- StartEvent\n_2&#45;&gt;Task_0dhs6\nwg_Task_0x\ngtymq -->
<g id="edge1" class="edge">
<title>StartEvent\n_2&#45;&gt;Task_0dhs6\nwg_Task_0x\ngtymq</title>
<path fill="none" stroke="black" d="M173.72,-658.45C173.72,-650.5 173.72,-641.43 173.72,-632.15"/>
<polygon fill="black" stroke="black" points="177.22,-632.05 173.72,-622.05 170.22,-632.05 177.22,-632.05"/>
</g>
<!-- ExclusiveG\nateway_05t\ng0br -->
<g id="node2" class="node">
<title>ExclusiveG\nateway_05t\ng0br</title>
<polygon fill="lightgrey" stroke="black" points="173.72,-265.49 7.49,-247.49 173.72,-229.49 339.96,-247.49 173.72,-265.49"/>
<text text-anchor="middle" x="173.72" y="-243.79" font-family="Times New Roman,serif" font-size="14.00">Gepäck_vorhanden?_/_JOIN</text>
</g>
<!-- Task_1ydgj\n3r_Task_16\n6khwz -->
<g id="node4" class="node">
<title>Task_1ydgj\n3r_Task_16\n6khwz</title>
<polygon fill="none" stroke="black" stroke-dasharray="5,2" points="24.22,-94.99 24.22,-192.99 323.22,-192.99 323.22,-94.99 24.22,-94.99"/>
<text text-anchor="middle" x="66.22" y="-155.29" font-family="Times New Roman,serif" font-size="14.00">Task_1ydgj</text>
<text text-anchor="middle" x="66.22" y="-140.29" font-family="Times New Roman,serif" font-size="14.00">3r_Task_16</text>
<text text-anchor="middle" x="66.22" y="-125.29" font-family="Times New Roman,serif" font-size="14.00">6khwz</text>
<polyline fill="none" stroke="black" stroke-dasharray="5,2" points="108.22,-94.99 108.22,-192.99 "/>
<text text-anchor="middle" x="150.22" y="-177.79" font-family="Times New Roman,serif" font-size="14.00">Passagier:</text>
<text text-anchor="middle" x="150.22" y="-162.79" font-family="Times New Roman,serif" font-size="14.00">Lane_1gl9w</text>
<text text-anchor="middle" x="150.22" y="-147.79" font-family="Times New Roman,serif" font-size="14.00">5l&amp;Sicherh</text>
<text text-anchor="middle" x="150.22" y="-132.79" font-family="Times New Roman,serif" font-size="14.00">eitsbereic</text>
<text text-anchor="middle" x="150.22" y="-117.79" font-family="Times New Roman,serif" font-size="14.00">h:Lane_1cn</text>
<text text-anchor="middle" x="150.22" y="-102.79" font-family="Times New Roman,serif" font-size="14.00">f58w</text>
<polyline fill="none" stroke="black" stroke-dasharray="5,2" points="192.22,-94.99 192.22,-192.99 "/>
<text text-anchor="middle" x="257.72" y="-155.29" font-family="Times New Roman,serif" font-size="14.00">sequential execution:</text>
<text text-anchor="middle" x="257.72" y="-140.29" font-family="Times New Roman,serif" font-size="14.00">Person_bewegen</text>
<text text-anchor="middle" x="257.72" y="-125.29" font-family="Times New Roman,serif" font-size="14.00">Person_bewegen</text>
</g>
<!-- ExclusiveG\nateway_05t\ng0br&#45;&gt;Task_1ydgj\n3r_Task_16\n6khwz -->
<g id="edge2" class="edge">
<title>ExclusiveG\nateway_05t\ng0br&#45;&gt;Task_1ydgj\n3r_Task_16\n6khwz</title>
<path fill="none" stroke="black" d="M173.72,-229.28C173.72,-221.97 173.72,-212.98 173.72,-203.62"/>
<polygon fill="black" stroke="black" points="177.22,-203.39 173.72,-193.39 170.22,-203.39 177.22,-203.39"/>
</g>
<!-- EndEvent_0\ncbepo9 -->
<g id="node3" class="node">
<title>EndEvent_0\ncbepo9</title>
<ellipse fill="lightgrey" stroke="black" cx="173.72" cy="-29.25" rx="29.5" ry="29.5"/>
<text text-anchor="middle" x="173.72" y="-25.55" font-family="Times New Roman,serif" font-size="14.00">Ende</text>
</g>
<!-- Task_1ydgj\n3r_Task_16\n6khwz&#45;&gt;EndEvent_0\ncbepo9 -->
<g id="edge3" class="edge">
<title>Task_1ydgj\n3r_Task_16\n6khwz&#45;&gt;EndEvent_0\ncbepo9</title>
<path fill="none" stroke="black" d="M173.72,-94.85C173.72,-86.18 173.72,-77.25 173.72,-68.89"/>
<polygon fill="black" stroke="black" points="177.22,-68.68 173.72,-58.68 170.22,-68.68 177.22,-68.68"/>
</g>
<!-- ExclusiveG\nateway_0w2\n89jq -->
<g id="node7" class="node">
<title>ExclusiveG\nateway_0w2\n89jq</title>
<polygon fill="lightgrey" stroke="black" points="173.72,-472.49 -0.22,-454.49 173.72,-436.49 347.66,-454.49 173.72,-472.49"/>
<text text-anchor="middle" x="173.72" y="-450.79" font-family="Times New Roman,serif" font-size="14.00">Gepäck_vorhanden?_/_SPLIT</text>
</g>
<!-- Task_0dhs6\nwg_Task_0x\ngtymq&#45;&gt;ExclusiveG\nateway_0w2\n89jq -->
<g id="edge4" class="edge">
<title>Task_0dhs6\nwg_Task_0x\ngtymq&#45;&gt;ExclusiveG\nateway_0w2\n89jq</title>
<path fill="none" stroke="black" d="M173.72,-508.72C173.72,-499.64 173.72,-490.62 173.72,-482.64"/>
<polygon fill="black" stroke="black" points="177.22,-482.52 173.72,-472.52 170.22,-482.52 177.22,-482.52"/>
</g>
<!-- Task_1eqrd\n1u_Task_11\njq6xe -->
<g id="node6" class="node">
<title>Task_1eqrd\n1u_Task_11\njq6xe</title>
<polygon fill="none" stroke="black" stroke-dasharray="5,2" points="102.72,-301.99 102.72,-399.99 444.72,-399.99 444.72,-301.99 102.72,-301.99"/>
<text text-anchor="middle" x="145.72" y="-362.29" font-family="Times New Roman,serif" font-size="14.00">Task_1eqrd</text>
<text text-anchor="middle" x="145.72" y="-347.29" font-family="Times New Roman,serif" font-size="14.00">1u_Task_11</text>
<text text-anchor="middle" x="145.72" y="-332.29" font-family="Times New Roman,serif" font-size="14.00">jq6xe</text>
<polyline fill="none" stroke="black" stroke-dasharray="5,2" points="188.72,-301.99 188.72,-399.99 "/>
<text text-anchor="middle" x="231.72" y="-384.79" font-family="Times New Roman,serif" font-size="14.00">Gepäckanna</text>
<text text-anchor="middle" x="231.72" y="-369.79" font-family="Times New Roman,serif" font-size="14.00">hmeschalte</text>
<text text-anchor="middle" x="231.72" y="-354.79" font-family="Times New Roman,serif" font-size="14.00">r:Lane_1jc</text>
<text text-anchor="middle" x="231.72" y="-339.79" font-family="Times New Roman,serif" font-size="14.00">jnxr&amp;Passa</text>
<text text-anchor="middle" x="231.72" y="-324.79" font-family="Times New Roman,serif" font-size="14.00">gier:Lane_</text>
<text text-anchor="middle" x="231.72" y="-309.79" font-family="Times New Roman,serif" font-size="14.00">1gl9w5l</text>
<polyline fill="none" stroke="black" stroke-dasharray="5,2" points="274.72,-301.99 274.72,-399.99 "/>
<text text-anchor="middle" x="359.72" y="-362.29" font-family="Times New Roman,serif" font-size="14.00">sequential execution:</text>
<text text-anchor="middle" x="359.72" y="-347.29" font-family="Times New Roman,serif" font-size="14.00">Flughafenbereich_erreichen</text>
<text text-anchor="middle" x="359.72" y="-332.29" font-family="Times New Roman,serif" font-size="14.00">Gegenstand_bewegen</text>
</g>
<!-- Task_1eqrd\n1u_Task_11\njq6xe&#45;&gt;ExclusiveG\nateway_05t\ng0br -->
<g id="edge5" class="edge">
<title>Task_1eqrd\n1u_Task_11\njq6xe&#45;&gt;ExclusiveG\nateway_05t\ng0br</title>
<path fill="none" stroke="black" d="M226.36,-301.92C215.79,-291.19 205.06,-280.3 196.07,-271.18"/>
<polygon fill="black" stroke="black" points="198.48,-268.64 188.97,-263.97 193.5,-273.55 198.48,-268.64"/>
</g>
<!-- ExclusiveG\nateway_0w2\n89jq&#45;&gt;ExclusiveG\nateway_05t\ng0br -->
<g id="edge7" class="edge">
<title>ExclusiveG\nateway_0w2\n89jq&#45;&gt;ExclusiveG\nateway_05t\ng0br</title>
<path fill="none" stroke="black" d="M139.23,-440.06C122.26,-431.49 103.42,-418.55 93.72,-400.49 72.9,-361.73 72.9,-340.26 93.72,-301.49 101.75,-286.54 116.05,-275.1 130.37,-266.74"/>
<polygon fill="black" stroke="black" points="132.11,-269.78 139.23,-261.93 128.77,-263.63 132.11,-269.78"/>
</g>
<!-- ExclusiveG\nateway_0w2\n89jq&#45;&gt;Task_1eqrd\n1u_Task_11\njq6xe -->
<g id="edge6" class="edge">
<title>ExclusiveG\nateway_0w2\n89jq&#45;&gt;Task_1eqrd\n1u_Task_11\njq6xe</title>
<path fill="none" stroke="black" d="M189.35,-437.64C197.55,-429.31 208.14,-418.56 219.03,-407.5"/>
<polygon fill="black" stroke="black" points="221.69,-409.8 226.21,-400.22 216.7,-404.89 221.69,-409.8"/>
</g>
</g>
</svg>
