<svg width="600px" height="1076px"
 viewBox="0.00 0.00 879.92 1578.07" xmlns="http://www.w3.org/2000/svg" xmlns:xlink="http://www.w3.org/1999/xlink">
<g id="graph0" class="graph" transform="scale(1.0 1.0) rotate(0) translate(4 1574.07)">
<title>05_Gepäckabfertigung_Abflug</title>
<polygon fill="white" stroke="transparent" points="-4,4 -4,-1574.07 875.92,-1574.07 875.92,4 -4,4"/>
<!-- EndEvent_1\nj97r4c -->
<g id="node1" class="node">
<title>EndEvent_1\nj97r4c</title>
<ellipse fill="lightgrey" stroke="black" cx="527.5" cy="-38.35" rx="38.19" ry="38.19"/>
<text text-anchor="middle" x="527.5" y="-34.65" font-family="Times New Roman,serif" font-size="14.00">Ende_2</text>
</g>
<!-- StartEvent\n_5 -->
<g id="node2" class="node">
<title>StartEvent\n_5</title>
<ellipse fill="lightgrey" stroke="black" cx="314.5" cy="-1542.13" rx="27.9" ry="27.9"/>
<text text-anchor="middle" x="314.5" y="-1538.43" font-family="Times New Roman,serif" font-size="14.00">Start</text>
</g>
<!-- Task_0ln0s\nhf -->
<g id="node12" class="node">
<title>Task_0ln0s\nhf</title>
<polygon fill="lightgrey" stroke="black" points="176,-1424.68 176,-1477.68 453,-1477.68 453,-1424.68 176,-1424.68"/>
<text text-anchor="middle" x="216.5" y="-1454.98" font-family="Times New Roman,serif" font-size="14.00">Task_0ln0s</text>
<text text-anchor="middle" x="216.5" y="-1439.98" font-family="Times New Roman,serif" font-size="14.00">hf</text>
<polyline fill="none" stroke="black" points="257,-1424.68 257,-1477.68 "/>
<text text-anchor="middle" x="297" y="-1462.48" font-family="Times New Roman,serif" font-size="14.00">Check&#45;In:L</text>
<text text-anchor="middle" x="297" y="-1447.48" font-family="Times New Roman,serif" font-size="14.00">ane_0qxfur</text>
<text text-anchor="middle" x="297" y="-1432.48" font-family="Times New Roman,serif" font-size="14.00">9</text>
<polyline fill="none" stroke="black" points="337,-1424.68 337,-1477.68 "/>
<text text-anchor="middle" x="395" y="-1447.48" font-family="Times New Roman,serif" font-size="14.00">Gepäck_bewegen</text>
</g>
<!-- StartEvent\n_5&#45;&gt;Task_0ln0s\nhf -->
<g id="edge1" class="edge">
<title>StartEvent\n_5&#45;&gt;Task_0ln0s\nhf</title>
<path fill="none" stroke="black" d="M314.5,-1513.96C314.5,-1505.82 314.5,-1496.77 314.5,-1488.16"/>
<polygon fill="black" stroke="black" points="318,-1487.97 314.5,-1477.97 311,-1487.97 318,-1487.97"/>
</g>
<!-- ExclusiveG\nateway_1yd\nw5c6 -->
<g id="node3" class="node">
<title>ExclusiveG\nateway_1yd\nw5c6</title>
<polygon fill="lightgrey" stroke="black" points="574.5,-447.49 412.96,-429.49 574.5,-411.49 736.04,-429.49 574.5,-447.49"/>
<text text-anchor="middle" x="574.5" y="-425.79" font-family="Times New Roman,serif" font-size="14.00">Status_überprüfen_/_SPLIT</text>
</g>
<!-- EndEvent_0\nsokwfi -->
<g id="node16" class="node">
<title>EndEvent_0\nsokwfi</title>
<ellipse fill="lightgrey" stroke="black" cx="502.5" cy="-332.59" rx="42.79" ry="42.79"/>
<text text-anchor="middle" x="502.5" y="-328.89" font-family="Times New Roman,serif" font-size="14.00">Abbruch</text>
</g>
<!-- ExclusiveG\nateway_1yd\nw5c6&#45;&gt;EndEvent_0\nsokwfi -->
<g id="edge2" class="edge">
<title>ExclusiveG\nateway_1yd\nw5c6&#45;&gt;EndEvent_0\nsokwfi</title>
<path fill="none" stroke="black" d="M562.29,-412.39C554.58,-402.23 544.24,-388.6 534.32,-375.53"/>
<polygon fill="black" stroke="black" points="537.07,-373.36 528.23,-367.51 531.49,-377.59 537.07,-373.36"/>
</g>
<!-- ExclusiveG\nateway_0hg\nr87e -->
<g id="node20" class="node">
<title>ExclusiveG\nateway_0hg\nr87e</title>
<polygon fill="lightgrey" stroke="black" points="717.5,-350.59 563.16,-332.59 717.5,-314.59 871.84,-332.59 717.5,-350.59"/>
<text text-anchor="middle" x="717.5" y="-328.89" font-family="Times New Roman,serif" font-size="14.00">Status_überprüfen_/_JOIN</text>
</g>
<!-- ExclusiveG\nateway_1yd\nw5c6&#45;&gt;ExclusiveG\nateway_0hg\nr87e -->
<g id="edge3" class="edge">
<title>ExclusiveG\nateway_1yd\nw5c6&#45;&gt;ExclusiveG\nateway_0hg\nr87e</title>
<path fill="none" stroke="black" d="M596.53,-413.87C620.85,-397.73 660.14,-371.65 687.32,-353.62"/>
<polygon fill="black" stroke="black" points="689.28,-356.52 695.68,-348.07 685.41,-350.68 689.28,-356.52"/>
</g>
<!-- Task_03cc1\nrv -->
<g id="node4" class="node">
<title>Task_03cc1\nrv</title>
<polygon fill="lightgrey" stroke="black" points="3,-1262.68 3,-1315.68 306,-1315.68 306,-1262.68 3,-1262.68"/>
<text text-anchor="middle" x="46" y="-1292.98" font-family="Times New Roman,serif" font-size="14.00">Task_03cc1</text>
<text text-anchor="middle" x="46" y="-1277.98" font-family="Times New Roman,serif" font-size="14.00">rv</text>
<polyline fill="none" stroke="black" points="89,-1262.68 89,-1315.68 "/>
<text text-anchor="middle" x="129" y="-1300.48" font-family="Times New Roman,serif" font-size="14.00">Check&#45;In:L</text>
<text text-anchor="middle" x="129" y="-1285.48" font-family="Times New Roman,serif" font-size="14.00">ane_0qxfur</text>
<text text-anchor="middle" x="129" y="-1270.48" font-family="Times New Roman,serif" font-size="14.00">9</text>
<polyline fill="none" stroke="black" points="169,-1262.68 169,-1315.68 "/>
<text text-anchor="middle" x="237.5" y="-1285.48" font-family="Times New Roman,serif" font-size="14.00">Gepäck_kontrollieren</text>
</g>
<!-- ExclusiveG\nateway_0kp\nypkj -->
<g id="node14" class="node">
<title>ExclusiveG\nateway_0kp\nypkj</title>
<polygon fill="lightgrey" stroke="black" points="314.5,-1226.18 155.47,-1208.18 314.5,-1190.18 473.53,-1208.18 314.5,-1226.18"/>
<text text-anchor="middle" x="314.5" y="-1204.48" font-family="Times New Roman,serif" font-size="14.00">Paralleles_Gateway_/_JOIN</text>
</g>
<!-- Task_03cc1\nrv&#45;&gt;ExclusiveG\nateway_0kp\nypkj -->
<g id="edge4" class="edge">
<title>Task_03cc1\nrv&#45;&gt;ExclusiveG\nateway_0kp\nypkj</title>
<path fill="none" stroke="black" d="M206.45,-1262.53C229.39,-1251.2 255.87,-1238.13 276.87,-1227.76"/>
<polygon fill="black" stroke="black" points="278.68,-1230.77 286.1,-1223.2 275.58,-1224.49 278.68,-1230.77"/>
</g>
<!-- ExclusiveG\nateway_05a\nsm52 -->
<g id="node5" class="node">
<title>ExclusiveG\nateway_05a\nsm52</title>
<polygon fill="lightgrey" stroke="black" points="314.5,-1388.18 147.43,-1370.18 314.5,-1352.18 481.57,-1370.18 314.5,-1388.18"/>
<text text-anchor="middle" x="314.5" y="-1366.48" font-family="Times New Roman,serif" font-size="14.00">Paralleles_Gateway_/_SPLIT</text>
</g>
<!-- ExclusiveG\nateway_05a\nsm52&#45;&gt;Task_03cc1\nrv -->
<g id="edge6" class="edge">
<title>ExclusiveG\nateway_05a\nsm52&#45;&gt;Task_03cc1\nrv</title>
<path fill="none" stroke="black" d="M285.9,-1355.06C266.37,-1345.41 239.76,-1332.27 215.59,-1320.34"/>
<polygon fill="black" stroke="black" points="216.98,-1317.12 206.46,-1315.84 213.88,-1323.4 216.98,-1317.12"/>
</g>
<!-- Task_0dvu2\n6l -->
<g id="node8" class="node">
<title>Task_0dvu2\n6l</title>
<polygon fill="lightgrey" stroke="black" points="324,-1262.68 324,-1315.68 627,-1315.68 627,-1262.68 324,-1262.68"/>
<text text-anchor="middle" x="367" y="-1292.98" font-family="Times New Roman,serif" font-size="14.00">Task_0dvu2</text>
<text text-anchor="middle" x="367" y="-1277.98" font-family="Times New Roman,serif" font-size="14.00">6l</text>
<polyline fill="none" stroke="black" points="410,-1262.68 410,-1315.68 "/>
<text text-anchor="middle" x="450" y="-1300.48" font-family="Times New Roman,serif" font-size="14.00">Check&#45;In:L</text>
<text text-anchor="middle" x="450" y="-1285.48" font-family="Times New Roman,serif" font-size="14.00">ane_0qxfur</text>
<text text-anchor="middle" x="450" y="-1270.48" font-family="Times New Roman,serif" font-size="14.00">9</text>
<polyline fill="none" stroke="black" points="490,-1262.68 490,-1315.68 "/>
<text text-anchor="middle" x="558.5" y="-1285.48" font-family="Times New Roman,serif" font-size="14.00">Gepäck_kontrollieren</text>
</g>
<!-- ExclusiveG\nateway_05a\nsm52&#45;&gt;Task_0dvu2\n6l -->
<g id="edge5" class="edge">
<title>ExclusiveG\nateway_05a\nsm52&#45;&gt;Task_0dvu2\n6l</title>
<path fill="none" stroke="black" d="M342.91,-1355.24C362.6,-1345.57 389.58,-1332.34 414.07,-1320.32"/>
<polygon fill="black" stroke="black" points="415.87,-1323.34 423.31,-1315.79 412.79,-1317.05 415.87,-1323.34"/>
</g>
<!-- Task_0gx9b\njy -->
<g id="node6" class="node">
<title>Task_0gx9b\njy</title>
<polygon fill="lightgrey" stroke="black" points="0,-908.68 0,-961.68 305,-961.68 305,-908.68 0,-908.68"/>
<text text-anchor="middle" x="43" y="-938.98" font-family="Times New Roman,serif" font-size="14.00">Task_0gx9b</text>
<text text-anchor="middle" x="43" y="-923.98" font-family="Times New Roman,serif" font-size="14.00">jy</text>
<polyline fill="none" stroke="black" points="86,-908.68 86,-961.68 "/>
<text text-anchor="middle" x="126" y="-946.48" font-family="Times New Roman,serif" font-size="14.00">Check&#45;In:L</text>
<text text-anchor="middle" x="126" y="-931.48" font-family="Times New Roman,serif" font-size="14.00">ane_0qxfur</text>
<text text-anchor="middle" x="126" y="-916.48" font-family="Times New Roman,serif" font-size="14.00">9</text>
<polyline fill="none" stroke="black" points="166,-908.68 166,-961.68 "/>
<text text-anchor="middle" x="235.5" y="-931.48" font-family="Times New Roman,serif" font-size="14.00">Gegenstand_bewegen</text>
</g>
<!-- EndEvent_0\nc944ct -->
<g id="node11" class="node">
<title>EndEvent_0\nc944ct</title>
<ellipse fill="lightgrey" stroke="black" cx="152.5" cy="-803.83" rx="38.19" ry="38.19"/>
<text text-anchor="middle" x="152.5" y="-800.13" font-family="Times New Roman,serif" font-size="14.00">Ende_1</text>
</g>
<!-- Task_0gx9b\njy&#45;&gt;EndEvent_0\nc944ct -->
<g id="edge7" class="edge">
<title>Task_0gx9b\njy&#45;&gt;EndEvent_0\nc944ct</title>
<path fill="none" stroke="black" d="M152.5,-908.62C152.5,-892.72 152.5,-871.76 152.5,-852.85"/>
<polygon fill="black" stroke="black" points="156,-852.59 152.5,-842.59 149,-852.59 156,-852.59"/>
</g>
<!-- Task_1r0bc\n0t_Task_0t\n99pk6 -->
<g id="node7" class="node">
<title>Task_1r0bc\n0t_Task_0t\n99pk6</title>
<polygon fill="none" stroke="black" stroke-dasharray="5,2" points="163,-1100.68 163,-1153.68 466,-1153.68 466,-1100.68 163,-1100.68"/>
<text text-anchor="middle" x="205" y="-1138.48" font-family="Times New Roman,serif" font-size="14.00">Task_1r0bc</text>
<text text-anchor="middle" x="205" y="-1123.48" font-family="Times New Roman,serif" font-size="14.00">0t_Task_0t</text>
<text text-anchor="middle" x="205" y="-1108.48" font-family="Times New Roman,serif" font-size="14.00">99pk6</text>
<polyline fill="none" stroke="black" stroke-dasharray="5,2" points="247,-1100.68 247,-1153.68 "/>
<text text-anchor="middle" x="287" y="-1138.48" font-family="Times New Roman,serif" font-size="14.00">Check&#45;In:L</text>
<text text-anchor="middle" x="287" y="-1123.48" font-family="Times New Roman,serif" font-size="14.00">ane_0qxfur</text>
<text text-anchor="middle" x="287" y="-1108.48" font-family="Times New Roman,serif" font-size="14.00">9</text>
<polyline fill="none" stroke="black" stroke-dasharray="5,2" points="327,-1100.68 327,-1153.68 "/>
<text text-anchor="middle" x="396.5" y="-1138.48" font-family="Times New Roman,serif" font-size="14.00">sequential execution:</text>
<text text-anchor="middle" x="396.5" y="-1123.48" font-family="Times New Roman,serif" font-size="14.00">Gepäck_bewegen</text>
<text text-anchor="middle" x="396.5" y="-1108.48" font-family="Times New Roman,serif" font-size="14.00">Dokument_bearbeiten</text>
</g>
<!-- ExclusiveG\nateway_04z\n3jfd -->
<g id="node19" class="node">
<title>ExclusiveG\nateway_04z\n3jfd</title>
<polygon fill="lightgrey" stroke="black" points="314.5,-1064.18 176.75,-1046.18 314.5,-1028.18 452.25,-1046.18 314.5,-1064.18"/>
<text text-anchor="middle" x="314.5" y="-1042.48" font-family="Times New Roman,serif" font-size="14.00">Sperrgepäck?_/_SPLIT</text>
</g>
<!-- Task_1r0bc\n0t_Task_0t\n99pk6&#45;&gt;ExclusiveG\nateway_04z\n3jfd -->
<g id="edge8" class="edge">
<title>Task_1r0bc\n0t_Task_0t\n99pk6&#45;&gt;ExclusiveG\nateway_04z\n3jfd</title>
<path fill="none" stroke="black" d="M314.5,-1100.31C314.5,-1092.08 314.5,-1082.96 314.5,-1074.63"/>
<polygon fill="black" stroke="black" points="318,-1074.62 314.5,-1064.62 311,-1074.62 318,-1074.62"/>
</g>
<!-- Task_0dvu2\n6l&#45;&gt;ExclusiveG\nateway_0kp\nypkj -->
<g id="edge9" class="edge">
<title>Task_0dvu2\n6l&#45;&gt;ExclusiveG\nateway_0kp\nypkj</title>
<path fill="none" stroke="black" d="M423.23,-1262.53C400.03,-1251.15 373.26,-1238.01 352.08,-1227.62"/>
<polygon fill="black" stroke="black" points="353.6,-1224.47 343.08,-1223.2 350.51,-1230.75 353.6,-1224.47"/>
</g>
<!-- ExclusiveG\nateway_087\n4w9z -->
<g id="node9" class="node">
<title>ExclusiveG\nateway_087\n4w9z</title>
<polygon fill="lightgrey" stroke="black" points="574.5,-624.49 412.96,-606.49 574.5,-588.49 736.04,-606.49 574.5,-624.49"/>
<text text-anchor="middle" x="574.5" y="-602.79" font-family="Times New Roman,serif" font-size="14.00">Status_überprüfen_/_SPLIT</text>
</g>
<!-- Task_04mc7\nzf_Task_00\narua4 -->
<g id="node13" class="node">
<title>Task_04mc7\nzf_Task_00\narua4</title>
<polygon fill="none" stroke="black" stroke-dasharray="5,2" points="418,-483.99 418,-551.99 731,-551.99 731,-483.99 418,-483.99"/>
<text text-anchor="middle" x="462.5" y="-529.29" font-family="Times New Roman,serif" font-size="14.00">Task_04mc7</text>
<text text-anchor="middle" x="462.5" y="-514.29" font-family="Times New Roman,serif" font-size="14.00">zf_Task_00</text>
<text text-anchor="middle" x="462.5" y="-499.29" font-family="Times New Roman,serif" font-size="14.00">arua4</text>
<polyline fill="none" stroke="black" stroke-dasharray="5,2" points="507,-483.99 507,-551.99 "/>
<text text-anchor="middle" x="550.5" y="-536.79" font-family="Times New Roman,serif" font-size="14.00">Gepäck_Sic</text>
<text text-anchor="middle" x="550.5" y="-521.79" font-family="Times New Roman,serif" font-size="14.00">herheitsko</text>
<text text-anchor="middle" x="550.5" y="-506.79" font-family="Times New Roman,serif" font-size="14.00">ntrolle:La</text>
<text text-anchor="middle" x="550.5" y="-491.79" font-family="Times New Roman,serif" font-size="14.00">ne_0dxw77z</text>
<polyline fill="none" stroke="black" stroke-dasharray="5,2" points="594,-483.99 594,-551.99 "/>
<text text-anchor="middle" x="662.5" y="-529.29" font-family="Times New Roman,serif" font-size="14.00">sequential execution:</text>
<text text-anchor="middle" x="662.5" y="-514.29" font-family="Times New Roman,serif" font-size="14.00">Sonstige_Tasks</text>
<text text-anchor="middle" x="662.5" y="-499.29" font-family="Times New Roman,serif" font-size="14.00">Gepäck_kontrollieren</text>
</g>
<!-- ExclusiveG\nateway_087\n4w9z&#45;&gt;Task_04mc7\nzf_Task_00\narua4 -->
<g id="edge10" class="edge">
<title>ExclusiveG\nateway_087\n4w9z&#45;&gt;Task_04mc7\nzf_Task_00\narua4</title>
<path fill="none" stroke="black" d="M574.5,-588.4C574.5,-580.8 574.5,-571.49 574.5,-562.17"/>
<polygon fill="black" stroke="black" points="578,-562.15 574.5,-552.15 571,-562.15 578,-562.15"/>
</g>
<!-- ExclusiveG\nateway_087\n4w9z&#45;&gt;ExclusiveG\nateway_0hg\nr87e -->
<g id="edge11" class="edge">
<title>ExclusiveG\nateway_087\n4w9z&#45;&gt;ExclusiveG\nateway_0hg\nr87e</title>
<path fill="none" stroke="black" d="M660.31,-598.02C690.35,-590.87 721.34,-577.44 740.5,-552.49 784.52,-495.14 750.91,-403 730.38,-358.82"/>
<polygon fill="black" stroke="black" points="733.46,-357.15 725.98,-349.65 727.15,-360.18 733.46,-357.15"/>
</g>
<!-- ExclusiveG\nateway_11i\nxq87 -->
<g id="node10" class="node">
<title>ExclusiveG\nateway_11i\nxq87</title>
<polygon fill="lightgrey" stroke="black" points="476.5,-821.83 306.41,-803.83 476.5,-785.83 646.59,-803.83 476.5,-821.83"/>
<text text-anchor="middle" x="476.5" y="-800.13" font-family="Times New Roman,serif" font-size="14.00">Status_überprüfen_/_SPLITT</text>
</g>
<!-- ExclusiveG\nateway_1xg\n0r3u -->
<g id="node15" class="node">
<title>ExclusiveG\nateway_1xg\n0r3u</title>
<polygon fill="lightgrey" stroke="black" points="527.5,-253.69 373.16,-235.69 527.5,-217.69 681.84,-235.69 527.5,-253.69"/>
<text text-anchor="middle" x="527.5" y="-231.99" font-family="Times New Roman,serif" font-size="14.00">Status_überprüfen_/_JOIN</text>
</g>
<!-- ExclusiveG\nateway_11i\nxq87&#45;&gt;ExclusiveG\nateway_1xg\n0r3u -->
<g id="edge12" class="edge">
<title>ExclusiveG\nateway_11i\nxq87&#45;&gt;ExclusiveG\nateway_1xg\n0r3u</title>
<path fill="none" stroke="black" d="M457.57,-787.73C441.92,-774.17 420.4,-752.85 408.5,-729.49 383.43,-680.24 384.5,-662.75 384.5,-607.49 384.5,-607.49 384.5,-607.49 384.5,-428.49 384.5,-360.18 406.19,-341.67 450.5,-289.69 461.92,-276.3 477.49,-264.73 491.64,-255.86"/>
<polygon fill="black" stroke="black" points="493.46,-258.85 500.22,-250.69 489.85,-252.86 493.46,-258.85"/>
</g>
<!-- Task_1l67i\n8p -->
<g id="node18" class="node">
<title>Task_1l67i\n8p</title>
<polygon fill="lightgrey" stroke="black" points="417.5,-660.99 417.5,-728.99 719.5,-728.99 719.5,-660.99 417.5,-660.99"/>
<text text-anchor="middle" x="456.5" y="-698.79" font-family="Times New Roman,serif" font-size="14.00">Task_1l67i</text>
<text text-anchor="middle" x="456.5" y="-683.79" font-family="Times New Roman,serif" font-size="14.00">8p</text>
<polyline fill="none" stroke="black" points="495.5,-660.99 495.5,-728.99 "/>
<text text-anchor="middle" x="539" y="-713.79" font-family="Times New Roman,serif" font-size="14.00">Gepäck_Sic</text>
<text text-anchor="middle" x="539" y="-698.79" font-family="Times New Roman,serif" font-size="14.00">herheitsko</text>
<text text-anchor="middle" x="539" y="-683.79" font-family="Times New Roman,serif" font-size="14.00">ntrolle:La</text>
<text text-anchor="middle" x="539" y="-668.79" font-family="Times New Roman,serif" font-size="14.00">ne_0dxw77z</text>
<polyline fill="none" stroke="black" points="582.5,-660.99 582.5,-728.99 "/>
<text text-anchor="middle" x="651" y="-691.29" font-family="Times New Roman,serif" font-size="14.00">Gepäck_kontrollieren</text>
</g>
<!-- ExclusiveG\nateway_11i\nxq87&#45;&gt;Task_1l67i\n8p -->
<g id="edge13" class="edge">
<title>ExclusiveG\nateway_11i\nxq87&#45;&gt;Task_1l67i\n8p</title>
<path fill="none" stroke="black" d="M490.07,-787.07C501.43,-773.88 518.15,-754.46 533.24,-736.94"/>
<polygon fill="black" stroke="black" points="536.16,-738.91 540.03,-729.05 530.86,-734.34 536.16,-738.91"/>
</g>
<!-- Task_0ln0s\nhf&#45;&gt;ExclusiveG\nateway_05a\nsm52 -->
<g id="edge14" class="edge">
<title>Task_0ln0s\nhf&#45;&gt;ExclusiveG\nateway_05a\nsm52</title>
<path fill="none" stroke="black" d="M314.5,-1424.31C314.5,-1416.08 314.5,-1406.96 314.5,-1398.63"/>
<polygon fill="black" stroke="black" points="318,-1398.62 314.5,-1388.62 311,-1398.62 318,-1398.62"/>
</g>
<!-- Task_04mc7\nzf_Task_00\narua4&#45;&gt;ExclusiveG\nateway_1yd\nw5c6 -->
<g id="edge15" class="edge">
<title>Task_04mc7\nzf_Task_00\narua4&#45;&gt;ExclusiveG\nateway_1yd\nw5c6</title>
<path fill="none" stroke="black" d="M574.5,-483.79C574.5,-475.18 574.5,-466 574.5,-457.73"/>
<polygon fill="black" stroke="black" points="578,-457.51 574.5,-447.51 571,-457.51 578,-457.51"/>
</g>
<!-- ExclusiveG\nateway_0kp\nypkj&#45;&gt;Task_1r0bc\n0t_Task_0t\n99pk6 -->
<g id="edge16" class="edge">
<title>ExclusiveG\nateway_0kp\nypkj&#45;&gt;Task_1r0bc\n0t_Task_0t\n99pk6</title>
<path fill="none" stroke="black" d="M314.5,-1190.04C314.5,-1182.32 314.5,-1172.91 314.5,-1163.78"/>
<polygon fill="black" stroke="black" points="318,-1163.69 314.5,-1153.69 311,-1163.69 318,-1163.69"/>
</g>
<!-- Task_0ceab\nnc_Task_0z\nc9bjq -->
<g id="node21" class="node">
<title>Task_0ceab\nnc_Task_0z\nc9bjq</title>
<polygon fill="none" stroke="black" stroke-dasharray="5,2" points="371.5,-113.19 371.5,-181.19 683.5,-181.19 683.5,-113.19 371.5,-113.19"/>
<text text-anchor="middle" x="414.5" y="-158.49" font-family="Times New Roman,serif" font-size="14.00">Task_0ceab</text>
<text text-anchor="middle" x="414.5" y="-143.49" font-family="Times New Roman,serif" font-size="14.00">nc_Task_0z</text>
<text text-anchor="middle" x="414.5" y="-128.49" font-family="Times New Roman,serif" font-size="14.00">c9bjq</text>
<polyline fill="none" stroke="black" stroke-dasharray="5,2" points="457.5,-113.19 457.5,-181.19 "/>
<text text-anchor="middle" x="501" y="-165.99" font-family="Times New Roman,serif" font-size="14.00">Gepäck_Sic</text>
<text text-anchor="middle" x="501" y="-150.99" font-family="Times New Roman,serif" font-size="14.00">herheitsko</text>
<text text-anchor="middle" x="501" y="-135.99" font-family="Times New Roman,serif" font-size="14.00">ntrolle:La</text>
<text text-anchor="middle" x="501" y="-120.99" font-family="Times New Roman,serif" font-size="14.00">ne_0dxw77z</text>
<polyline fill="none" stroke="black" stroke-dasharray="5,2" points="544.5,-113.19 544.5,-181.19 "/>
<text text-anchor="middle" x="614" y="-158.49" font-family="Times New Roman,serif" font-size="14.00">sequential execution:</text>
<text text-anchor="middle" x="614" y="-143.49" font-family="Times New Roman,serif" font-size="14.00">Gepäck_bewegen</text>
<text text-anchor="middle" x="614" y="-128.49" font-family="Times New Roman,serif" font-size="14.00">Gegenstand_bewegen</text>
</g>
<!-- ExclusiveG\nateway_1xg\n0r3u&#45;&gt;Task_0ceab\nnc_Task_0z\nc9bjq -->
<g id="edge17" class="edge">
<title>ExclusiveG\nateway_1xg\n0r3u&#45;&gt;Task_0ceab\nnc_Task_0z\nc9bjq</title>
<path fill="none" stroke="black" d="M527.5,-217.6C527.5,-210.01 527.5,-200.69 527.5,-191.38"/>
<polygon fill="black" stroke="black" points="531,-191.36 527.5,-181.36 524,-191.36 531,-191.36"/>
</g>
<!-- Task_1l6jq\ndi_Task_0a\nt6c14 -->
<g id="node17" class="node">
<title>Task_1l6jq\ndi_Task_0a\nt6c14</title>
<polygon fill="none" stroke="black" stroke-dasharray="5,2" points="323,-878.68 323,-991.68 630,-991.68 630,-878.68 323,-878.68"/>
<text text-anchor="middle" x="364.5" y="-946.48" font-family="Times New Roman,serif" font-size="14.00">Task_1l6jq</text>
<text text-anchor="middle" x="364.5" y="-931.48" font-family="Times New Roman,serif" font-size="14.00">di_Task_0a</text>
<text text-anchor="middle" x="364.5" y="-916.48" font-family="Times New Roman,serif" font-size="14.00">t6c14</text>
<polyline fill="none" stroke="black" stroke-dasharray="5,2" points="406,-878.68 406,-991.68 "/>
<text text-anchor="middle" x="449.5" y="-976.48" font-family="Times New Roman,serif" font-size="14.00">Gepäck_Sic</text>
<text text-anchor="middle" x="449.5" y="-961.48" font-family="Times New Roman,serif" font-size="14.00">herheitsko</text>
<text text-anchor="middle" x="449.5" y="-946.48" font-family="Times New Roman,serif" font-size="14.00">ntrolle:La</text>
<text text-anchor="middle" x="449.5" y="-931.48" font-family="Times New Roman,serif" font-size="14.00">ne_0dxw77z</text>
<text text-anchor="middle" x="449.5" y="-916.48" font-family="Times New Roman,serif" font-size="14.00">&amp;Check&#45;In:</text>
<text text-anchor="middle" x="449.5" y="-901.48" font-family="Times New Roman,serif" font-size="14.00">Lane_0qxfu</text>
<text text-anchor="middle" x="449.5" y="-886.48" font-family="Times New Roman,serif" font-size="14.00">r9</text>
<polyline fill="none" stroke="black" stroke-dasharray="5,2" points="493,-878.68 493,-991.68 "/>
<text text-anchor="middle" x="561.5" y="-961.48" font-family="Times New Roman,serif" font-size="14.00">sequential execution:</text>
<text text-anchor="middle" x="561.5" y="-946.48" font-family="Times New Roman,serif" font-size="14.00">Gepäck_bewegen</text>
<text text-anchor="middle" x="561.5" y="-931.48" font-family="Times New Roman,serif" font-size="14.00">Warten</text>
<text text-anchor="middle" x="561.5" y="-916.48" font-family="Times New Roman,serif" font-size="14.00">Gepäck_bewegen</text>
<text text-anchor="middle" x="561.5" y="-901.48" font-family="Times New Roman,serif" font-size="14.00">Gepäck_kontrollieren</text>
</g>
<!-- Task_1l6jq\ndi_Task_0a\nt6c14&#45;&gt;ExclusiveG\nateway_11i\nxq87 -->
<g id="edge18" class="edge">
<title>Task_1l6jq\ndi_Task_0a\nt6c14&#45;&gt;ExclusiveG\nateway_11i\nxq87</title>
<path fill="none" stroke="black" d="M476.5,-878.57C476.5,-862.47 476.5,-845.61 476.5,-832.08"/>
<polygon fill="black" stroke="black" points="480,-832.02 476.5,-822.02 473,-832.02 480,-832.02"/>
</g>
<!-- Task_1l67i\n8p&#45;&gt;ExclusiveG\nateway_087\n4w9z -->
<g id="edge19" class="edge">
<title>Task_1l67i\n8p&#45;&gt;ExclusiveG\nateway_087\n4w9z</title>
<path fill="none" stroke="black" d="M570.8,-660.79C571.4,-652.18 572.04,-643 572.61,-634.73"/>
<polygon fill="black" stroke="black" points="576.12,-634.73 573.32,-624.51 569.14,-634.24 576.12,-634.73"/>
</g>
<!-- ExclusiveG\nateway_04z\n3jfd&#45;&gt;Task_0gx9b\njy -->
<g id="edge21" class="edge">
<title>ExclusiveG\nateway_04z\n3jfd&#45;&gt;Task_0gx9b\njy</title>
<path fill="none" stroke="black" d="M293.32,-1030.93C269.49,-1014.89 230.05,-988.36 198.96,-967.44"/>
<polygon fill="black" stroke="black" points="200.68,-964.38 190.43,-961.7 196.77,-970.19 200.68,-964.38"/>
</g>
<!-- ExclusiveG\nateway_04z\n3jfd&#45;&gt;Task_1l6jq\ndi_Task_0a\nt6c14 -->
<g id="edge20" class="edge">
<title>ExclusiveG\nateway_04z\n3jfd&#45;&gt;Task_1l6jq\ndi_Task_0a\nt6c14</title>
<path fill="none" stroke="black" d="M335.68,-1030.93C348.83,-1022.08 366.73,-1010.04 385.36,-997.5"/>
<polygon fill="black" stroke="black" points="387.32,-1000.4 393.66,-991.92 383.41,-994.59 387.32,-1000.4"/>
</g>
<!-- ExclusiveG\nateway_0hg\nr87e&#45;&gt;ExclusiveG\nateway_1xg\n0r3u -->
<g id="edge22" class="edge">
<title>ExclusiveG\nateway_0hg\nr87e&#45;&gt;ExclusiveG\nateway_1xg\n0r3u</title>
<path fill="none" stroke="black" d="M689.87,-317.79C656.8,-301.27 601.3,-273.55 564.54,-255.19"/>
<polygon fill="black" stroke="black" points="565.67,-251.85 555.16,-250.51 562.54,-258.11 565.67,-251.85"/>
</g>
<!-- Task_0ceab\nnc_Task_0z\nc9bjq&#45;&gt;EndEvent_1\nj97r4c -->
<g id="edge23" class="edge">
<title>Task_0ceab\nnc_Task_0z\nc9bjq&#45;&gt;EndEvent_1\nj97r4c</title>
<path fill="none" stroke="black" d="M527.5,-112.97C527.5,-104.78 527.5,-95.85 527.5,-87.12"/>
<polygon fill="black" stroke="black" points="531,-87.02 527.5,-77.02 524,-87.02 531,-87.02"/>
</g>
</g>
</svg>
