<svg width="600px" height="1243px"
 viewBox="0.00 0.00 531.06 1100.39" xmlns="http://www.w3.org/2000/svg" xmlns:xlink="http://www.w3.org/1999/xlink">
<g id="graph0" class="graph" transform="scale(1.0 1.0) rotate(0) translate(4 1096.39)">
<title>07_Passagierabfertigung_Ankunft</title>
<polygon fill="white" stroke="transparent" points="-4,4 -4,-1096.39 527.06,-1096.39 527.06,4 -4,4"/>
<!-- ExclusiveG\nateway_1cs\nd7ne -->
<g id="node1" class="node">
<title>ExclusiveG\nateway_1cs\nd7ne</title>
<polygon fill="lightgrey" stroke="black" points="175.56,-910.49 -0.06,-892.49 175.56,-874.49 351.18,-892.49 175.56,-910.49"/>
<text text-anchor="middle" x="175.56" y="-888.79" font-family="Times New Roman,serif" font-size="14.00">Reiseziel_überprüfen_/_SPLIT</text>
</g>
<!-- ExclusiveG\nateway_1a8\n5n3n -->
<g id="node5" class="node">
<title>ExclusiveG\nateway_1a8\n5n3n</title>
<polygon fill="lightgrey" stroke="black" points="175.56,-718.49 8.49,-700.49 175.56,-682.49 342.63,-700.49 175.56,-718.49"/>
<text text-anchor="middle" x="175.56" y="-696.79" font-family="Times New Roman,serif" font-size="14.00">Reiseziel_überprüfen_/_JOIN</text>
</g>
<!-- ExclusiveG\nateway_1cs\nd7ne&#45;&gt;ExclusiveG\nateway_1a8\n5n3n -->
<g id="edge2" class="edge">
<title>ExclusiveG\nateway_1cs\nd7ne&#45;&gt;ExclusiveG\nateway_1a8\n5n3n</title>
<path fill="none" stroke="black" d="M145.99,-877.47C130.93,-868.59 114.04,-855.56 105.56,-838.49 88.94,-805.06 88.94,-787.92 105.56,-754.49 112.45,-740.63 124.89,-729.43 137.39,-720.95"/>
<polygon fill="black" stroke="black" points="139.41,-723.82 145.99,-715.52 135.67,-717.9 139.41,-723.82"/>
</g>
<!-- Task_1oex6\n2j_Task_1o\nk31mh -->
<g id="node10" class="node">
<title>Task_1oex6\n2j_Task_1o\nk31mh</title>
<polygon fill="none" stroke="black" stroke-dasharray="5,2" points="114.56,-754.99 114.56,-837.99 416.56,-837.99 416.56,-754.99 114.56,-754.99"/>
<text text-anchor="middle" x="157.56" y="-807.79" font-family="Times New Roman,serif" font-size="14.00">Task_1oex6</text>
<text text-anchor="middle" x="157.56" y="-792.79" font-family="Times New Roman,serif" font-size="14.00">2j_Task_1o</text>
<text text-anchor="middle" x="157.56" y="-777.79" font-family="Times New Roman,serif" font-size="14.00">k31mh</text>
<polyline fill="none" stroke="black" stroke-dasharray="5,2" points="200.56,-754.99 200.56,-837.99 "/>
<text text-anchor="middle" x="243.06" y="-822.79" font-family="Times New Roman,serif" font-size="14.00">Passkontro</text>
<text text-anchor="middle" x="243.06" y="-807.79" font-family="Times New Roman,serif" font-size="14.00">lle:Lane_0</text>
<text text-anchor="middle" x="243.06" y="-792.79" font-family="Times New Roman,serif" font-size="14.00">z1gpi4&amp;Pas</text>
<text text-anchor="middle" x="243.06" y="-777.79" font-family="Times New Roman,serif" font-size="14.00">sagier:Lan</text>
<text text-anchor="middle" x="243.06" y="-762.79" font-family="Times New Roman,serif" font-size="14.00">e_1ivhi49</text>
<polyline fill="none" stroke="black" stroke-dasharray="5,2" points="285.56,-754.99 285.56,-837.99 "/>
<text text-anchor="middle" x="351.06" y="-815.29" font-family="Times New Roman,serif" font-size="14.00">sequential execution:</text>
<text text-anchor="middle" x="351.06" y="-800.29" font-family="Times New Roman,serif" font-size="14.00">Person_bewegen</text>
<text text-anchor="middle" x="351.06" y="-785.29" font-family="Times New Roman,serif" font-size="14.00">Warten</text>
<text text-anchor="middle" x="351.06" y="-770.29" font-family="Times New Roman,serif" font-size="14.00">Kontrollieren</text>
</g>
<!-- ExclusiveG\nateway_1cs\nd7ne&#45;&gt;Task_1oex6\n2j_Task_1o\nk31mh -->
<g id="edge1" class="edge">
<title>ExclusiveG\nateway_1cs\nd7ne&#45;&gt;Task_1oex6\n2j_Task_1o\nk31mh</title>
<path fill="none" stroke="black" d="M190.42,-875.97C198.53,-867.5 209.06,-856.51 219.65,-845.45"/>
<polygon fill="black" stroke="black" points="222.21,-847.83 226.59,-838.19 217.15,-842.99 222.21,-847.83"/>
</g>
<!-- ExclusiveG\nateway_1i9\n1wcb -->
<g id="node2" class="node">
<title>ExclusiveG\nateway_1i9\n1wcb</title>
<polygon fill="lightgrey" stroke="black" points="174.56,-220.49 8.32,-202.49 174.56,-184.49 340.79,-202.49 174.56,-220.49"/>
<text text-anchor="middle" x="174.56" y="-198.79" font-family="Times New Roman,serif" font-size="14.00">Gepäck_vorhanden?_/_JOIN</text>
</g>
<!-- Task_1jalc\nhy -->
<g id="node7" class="node">
<title>Task_1jalc\nhy</title>
<polygon fill="lightgrey" stroke="black" points="41.56,-94.99 41.56,-147.99 307.56,-147.99 307.56,-94.99 41.56,-94.99"/>
<text text-anchor="middle" x="80.06" y="-125.29" font-family="Times New Roman,serif" font-size="14.00">Task_1jalc</text>
<text text-anchor="middle" x="80.06" y="-110.29" font-family="Times New Roman,serif" font-size="14.00">hy</text>
<polyline fill="none" stroke="black" points="118.56,-94.99 118.56,-147.99 "/>
<text text-anchor="middle" x="157.06" y="-132.79" font-family="Times New Roman,serif" font-size="14.00">Passagier:</text>
<text text-anchor="middle" x="157.06" y="-117.79" font-family="Times New Roman,serif" font-size="14.00">Lane_1ivhi</text>
<text text-anchor="middle" x="157.06" y="-102.79" font-family="Times New Roman,serif" font-size="14.00">49</text>
<polyline fill="none" stroke="black" points="195.56,-94.99 195.56,-147.99 "/>
<text text-anchor="middle" x="251.56" y="-117.79" font-family="Times New Roman,serif" font-size="14.00">Person_bewegen</text>
</g>
<!-- ExclusiveG\nateway_1i9\n1wcb&#45;&gt;Task_1jalc\nhy -->
<g id="edge3" class="edge">
<title>ExclusiveG\nateway_1i9\n1wcb&#45;&gt;Task_1jalc\nhy</title>
<path fill="none" stroke="black" d="M174.56,-184.35C174.56,-176.64 174.56,-167.23 174.56,-158.09"/>
<polygon fill="black" stroke="black" points="178.06,-158.01 174.56,-148.01 171.06,-158.01 178.06,-158.01"/>
</g>
<!-- Task_1f44a\nmh_Task_0k\nblk2z -->
<g id="node3" class="node">
<title>Task_1f44a\nmh_Task_0k\nblk2z</title>
<polygon fill="none" stroke="black" stroke-dasharray="5,2" points="117.56,-520.99 117.56,-573.99 415.56,-573.99 415.56,-520.99 117.56,-520.99"/>
<text text-anchor="middle" x="162.56" y="-558.79" font-family="Times New Roman,serif" font-size="14.00">Task_1f44a</text>
<text text-anchor="middle" x="162.56" y="-543.79" font-family="Times New Roman,serif" font-size="14.00">mh_Task_0k</text>
<text text-anchor="middle" x="162.56" y="-528.79" font-family="Times New Roman,serif" font-size="14.00">blk2z</text>
<polyline fill="none" stroke="black" stroke-dasharray="5,2" points="207.56,-520.99 207.56,-573.99 "/>
<text text-anchor="middle" x="246.06" y="-558.79" font-family="Times New Roman,serif" font-size="14.00">Passagier:</text>
<text text-anchor="middle" x="246.06" y="-543.79" font-family="Times New Roman,serif" font-size="14.00">Lane_1ivhi</text>
<text text-anchor="middle" x="246.06" y="-528.79" font-family="Times New Roman,serif" font-size="14.00">49</text>
<polyline fill="none" stroke="black" stroke-dasharray="5,2" points="284.56,-520.99 284.56,-573.99 "/>
<text text-anchor="middle" x="350.06" y="-558.79" font-family="Times New Roman,serif" font-size="14.00">sequential execution:</text>
<text text-anchor="middle" x="350.06" y="-543.79" font-family="Times New Roman,serif" font-size="14.00">Person_bewegen</text>
<text text-anchor="middle" x="350.06" y="-528.79" font-family="Times New Roman,serif" font-size="14.00">Warten</text>
</g>
<!-- ExclusiveG\nateway_0bm\n72da -->
<g id="node9" class="node">
<title>ExclusiveG\nateway_0bm\n72da</title>
<polygon fill="lightgrey" stroke="black" points="269.56,-484.49 115.22,-466.49 269.56,-448.49 423.9,-466.49 269.56,-484.49"/>
<text text-anchor="middle" x="269.56" y="-462.79" font-family="Times New Roman,serif" font-size="14.00">Gepäck_zollfrei?_/_SPLIT</text>
</g>
<!-- Task_1f44a\nmh_Task_0k\nblk2z&#45;&gt;ExclusiveG\nateway_0bm\n72da -->
<g id="edge4" class="edge">
<title>Task_1f44a\nmh_Task_0k\nblk2z&#45;&gt;ExclusiveG\nateway_0bm\n72da</title>
<path fill="none" stroke="black" d="M267.54,-520.63C267.86,-512.27 268.21,-502.99 268.53,-494.56"/>
<polygon fill="black" stroke="black" points="272.03,-494.58 268.92,-484.45 265.04,-494.31 272.03,-494.58"/>
</g>
<!-- EndEvent_0\n89l2e1 -->
<g id="node4" class="node">
<title>EndEvent_0\n89l2e1</title>
<ellipse fill="lightgrey" stroke="black" cx="174.56" cy="-29.25" rx="29.5" ry="29.5"/>
<text text-anchor="middle" x="174.56" y="-25.55" font-family="Times New Roman,serif" font-size="14.00">Ende</text>
</g>
<!-- ExclusiveG\nateway_1ah\n46ej -->
<g id="node6" class="node">
<title>ExclusiveG\nateway_1ah\n46ej</title>
<polygon fill="lightgrey" stroke="black" points="175.56,-646.49 1.62,-628.49 175.56,-610.49 349.5,-628.49 175.56,-646.49"/>
<text text-anchor="middle" x="175.56" y="-624.79" font-family="Times New Roman,serif" font-size="14.00">Gepäck_vorhanden?_/_SPLIT</text>
</g>
<!-- ExclusiveG\nateway_1a8\n5n3n&#45;&gt;ExclusiveG\nateway_1ah\n46ej -->
<g id="edge5" class="edge">
<title>ExclusiveG\nateway_1a8\n5n3n&#45;&gt;ExclusiveG\nateway_1ah\n46ej</title>
<path fill="none" stroke="black" d="M175.56,-682.19C175.56,-674.48 175.56,-665.21 175.56,-656.61"/>
<polygon fill="black" stroke="black" points="179.06,-656.6 175.56,-646.6 172.06,-656.6 179.06,-656.6"/>
</g>
<!-- ExclusiveG\nateway_1ah\n46ej&#45;&gt;ExclusiveG\nateway_1i9\n1wcb -->
<g id="edge7" class="edge">
<title>ExclusiveG\nateway_1ah\n46ej&#45;&gt;ExclusiveG\nateway_1i9\n1wcb</title>
<path fill="none" stroke="black" d="M149.47,-613.15C135.19,-603.95 118.44,-590.7 108.56,-574.49 83.32,-533.12 87.56,-515.96 87.56,-467.49 87.56,-467.49 87.56,-467.49 87.56,-369.49 87.56,-318.57 80.48,-300.24 106.56,-256.49 114.53,-243.12 127.25,-231.87 139.54,-223.22"/>
<polygon fill="black" stroke="black" points="141.53,-226.1 147.92,-217.65 137.65,-220.27 141.53,-226.1"/>
</g>
<!-- ExclusiveG\nateway_1ah\n46ej&#45;&gt;Task_1f44a\nmh_Task_0k\nblk2z -->
<g id="edge6" class="edge">
<title>ExclusiveG\nateway_1ah\n46ej&#45;&gt;Task_1f44a\nmh_Task_0k\nblk2z</title>
<path fill="none" stroke="black" d="M193.1,-612.26C203.37,-603.35 216.73,-591.75 229.24,-580.89"/>
<polygon fill="black" stroke="black" points="231.63,-583.45 236.89,-574.25 227.04,-578.17 231.63,-583.45"/>
</g>
<!-- Task_1jalc\nhy&#45;&gt;EndEvent_0\n89l2e1 -->
<g id="edge8" class="edge">
<title>Task_1jalc\nhy&#45;&gt;EndEvent_0\n89l2e1</title>
<path fill="none" stroke="black" d="M174.56,-94.87C174.56,-86.78 174.56,-77.66 174.56,-68.87"/>
<polygon fill="black" stroke="black" points="178.06,-68.79 174.56,-58.79 171.06,-68.79 178.06,-68.79"/>
</g>
<!-- Task_0lne9\nu6 -->
<g id="node8" class="node">
<title>Task_0lne9\nu6</title>
<polygon fill="lightgrey" stroke="black" points="40.56,-946.99 40.56,-999.99 310.56,-999.99 310.56,-946.99 40.56,-946.99"/>
<text text-anchor="middle" x="81.06" y="-977.29" font-family="Times New Roman,serif" font-size="14.00">Task_0lne9</text>
<text text-anchor="middle" x="81.06" y="-962.29" font-family="Times New Roman,serif" font-size="14.00">u6</text>
<polyline fill="none" stroke="black" points="121.56,-946.99 121.56,-999.99 "/>
<text text-anchor="middle" x="160.06" y="-984.79" font-family="Times New Roman,serif" font-size="14.00">Passagier:</text>
<text text-anchor="middle" x="160.06" y="-969.79" font-family="Times New Roman,serif" font-size="14.00">Lane_1ivhi</text>
<text text-anchor="middle" x="160.06" y="-954.79" font-family="Times New Roman,serif" font-size="14.00">49</text>
<polyline fill="none" stroke="black" points="198.56,-946.99 198.56,-999.99 "/>
<text text-anchor="middle" x="254.56" y="-969.79" font-family="Times New Roman,serif" font-size="14.00">Person_bewegen</text>
</g>
<!-- Task_0lne9\nu6&#45;&gt;ExclusiveG\nateway_1cs\nd7ne -->
<g id="edge9" class="edge">
<title>Task_0lne9\nu6&#45;&gt;ExclusiveG\nateway_1cs\nd7ne</title>
<path fill="none" stroke="black" d="M175.56,-946.63C175.56,-938.4 175.56,-929.28 175.56,-920.94"/>
<polygon fill="black" stroke="black" points="179.06,-920.94 175.56,-910.94 172.06,-920.94 179.06,-920.94"/>
</g>
<!-- ExclusiveG\nateway_0a5\nfrxf -->
<g id="node12" class="node">
<title>ExclusiveG\nateway_0a5\nfrxf</title>
<polygon fill="lightgrey" stroke="black" points="262.56,-292.49 115.43,-274.49 262.56,-256.49 409.69,-274.49 262.56,-292.49"/>
<text text-anchor="middle" x="262.56" y="-270.79" font-family="Times New Roman,serif" font-size="14.00">Gepäck_zollfrei?_/_JOIN</text>
</g>
<!-- ExclusiveG\nateway_0bm\n72da&#45;&gt;ExclusiveG\nateway_0a5\nfrxf -->
<g id="edge11" class="edge">
<title>ExclusiveG\nateway_0bm\n72da&#45;&gt;ExclusiveG\nateway_0a5\nfrxf</title>
<path fill="none" stroke="black" d="M246.53,-451.1C233.94,-441.81 219.52,-428.48 212.56,-412.49 197.65,-378.27 198.78,-363.19 212.56,-328.49 217.3,-316.55 226.15,-305.75 235.1,-297.05"/>
<polygon fill="black" stroke="black" points="237.52,-299.59 242.56,-290.27 232.81,-294.41 237.52,-299.59"/>
</g>
<!-- Task_1k60o\ngk_Task_02\nr8kai -->
<g id="node13" class="node">
<title>Task_1k60o\ngk_Task_02\nr8kai</title>
<polygon fill="none" stroke="black" stroke-dasharray="5,2" points="222.06,-328.99 222.06,-411.99 523.06,-411.99 523.06,-328.99 222.06,-328.99"/>
<text text-anchor="middle" x="265.06" y="-381.79" font-family="Times New Roman,serif" font-size="14.00">Task_1k60o</text>
<text text-anchor="middle" x="265.06" y="-366.79" font-family="Times New Roman,serif" font-size="14.00">gk_Task_02</text>
<text text-anchor="middle" x="265.06" y="-351.79" font-family="Times New Roman,serif" font-size="14.00">r8kai</text>
<polyline fill="none" stroke="black" stroke-dasharray="5,2" points="308.06,-328.99 308.06,-411.99 "/>
<text text-anchor="middle" x="350.06" y="-396.79" font-family="Times New Roman,serif" font-size="14.00">Zollstatio</text>
<text text-anchor="middle" x="350.06" y="-381.79" font-family="Times New Roman,serif" font-size="14.00">n:Lane_1nf</text>
<text text-anchor="middle" x="350.06" y="-366.79" font-family="Times New Roman,serif" font-size="14.00">xlo5&amp;Passa</text>
<text text-anchor="middle" x="350.06" y="-351.79" font-family="Times New Roman,serif" font-size="14.00">gier:Lane_</text>
<text text-anchor="middle" x="350.06" y="-336.79" font-family="Times New Roman,serif" font-size="14.00">1ivhi49</text>
<polyline fill="none" stroke="black" stroke-dasharray="5,2" points="392.06,-328.99 392.06,-411.99 "/>
<text text-anchor="middle" x="457.56" y="-389.29" font-family="Times New Roman,serif" font-size="14.00">sequential execution:</text>
<text text-anchor="middle" x="457.56" y="-374.29" font-family="Times New Roman,serif" font-size="14.00">Person_bewegen</text>
<text text-anchor="middle" x="457.56" y="-359.29" font-family="Times New Roman,serif" font-size="14.00">Warten</text>
<text text-anchor="middle" x="457.56" y="-344.29" font-family="Times New Roman,serif" font-size="14.00">Sonstige_Tasks</text>
</g>
<!-- ExclusiveG\nateway_0bm\n72da&#45;&gt;Task_1k60o\ngk_Task_02\nr8kai -->
<g id="edge10" class="edge">
<title>ExclusiveG\nateway_0bm\n72da&#45;&gt;Task_1k60o\ngk_Task_02\nr8kai</title>
<path fill="none" stroke="black" d="M286.11,-450.39C295.53,-441.8 307.9,-430.51 320.33,-419.16"/>
<polygon fill="black" stroke="black" points="323.02,-421.44 328.05,-412.12 318.3,-416.27 323.02,-421.44"/>
</g>
<!-- Task_1oex6\n2j_Task_1o\nk31mh&#45;&gt;ExclusiveG\nateway_1a8\n5n3n -->
<g id="edge12" class="edge">
<title>Task_1oex6\n2j_Task_1o\nk31mh&#45;&gt;ExclusiveG\nateway_1a8\n5n3n</title>
<path fill="none" stroke="black" d="M226.61,-754.81C216.66,-744.42 206.31,-733.61 197.55,-724.47"/>
<polygon fill="black" stroke="black" points="200.06,-722.02 190.62,-717.22 195,-726.86 200.06,-722.02"/>
</g>
<!-- StartEvent\n_7 -->
<g id="node11" class="node">
<title>StartEvent\n_7</title>
<ellipse fill="lightgrey" stroke="black" cx="175.56" cy="-1064.44" rx="27.9" ry="27.9"/>
<text text-anchor="middle" x="175.56" y="-1060.74" font-family="Times New Roman,serif" font-size="14.00">Start</text>
</g>
<!-- StartEvent\n_7&#45;&gt;Task_0lne9\nu6 -->
<g id="edge13" class="edge">
<title>StartEvent\n_7&#45;&gt;Task_0lne9\nu6</title>
<path fill="none" stroke="black" d="M175.56,-1036.27C175.56,-1028.14 175.56,-1019.08 175.56,-1010.47"/>
<polygon fill="black" stroke="black" points="179.06,-1010.28 175.56,-1000.28 172.06,-1010.28 179.06,-1010.28"/>
</g>
<!-- ExclusiveG\nateway_0a5\nfrxf&#45;&gt;ExclusiveG\nateway_1i9\n1wcb -->
<g id="edge14" class="edge">
<title>ExclusiveG\nateway_0a5\nfrxf&#45;&gt;ExclusiveG\nateway_1i9\n1wcb</title>
<path fill="none" stroke="black" d="M243.9,-258.65C231.61,-248.88 215.33,-235.93 201.63,-225.03"/>
<polygon fill="black" stroke="black" points="203.5,-222.05 193.5,-218.56 199.15,-227.52 203.5,-222.05"/>
</g>
<!-- Task_1k60o\ngk_Task_02\nr8kai&#45;&gt;ExclusiveG\nateway_0a5\nfrxf -->
<g id="edge15" class="edge">
<title>Task_1k60o\ngk_Task_02\nr8kai&#45;&gt;ExclusiveG\nateway_0a5\nfrxf</title>
<path fill="none" stroke="black" d="M324.95,-328.81C312.27,-317.98 299.06,-306.69 288.08,-297.3"/>
<polygon fill="black" stroke="black" points="290.03,-294.37 280.16,-290.53 285.49,-299.69 290.03,-294.37"/>
</g>
</g>
</svg>
