<svg width="600px" height="488px"
 viewBox="0.00 0.00 305.00 248.39" xmlns="http://www.w3.org/2000/svg" xmlns:xlink="http://www.w3.org/1999/xlink">
<g id="graph0" class="graph" transform="scale(1.0 1.0) rotate(0) translate(4 244.39)">
<title>08_Gepäckabfertigung_Ankunft</title>
<polygon fill="white" stroke="transparent" points="-4,4 -4,-244.39 301,-244.39 301,4 -4,4"/>
<!-- Task_1libs\ndz_Task_1h\ncrl8q -->
<g id="node1" class="node">
<title>Task_1libs\ndz_Task_1h\ncrl8q</title>
<polygon fill="none" stroke="black" stroke-dasharray="5,2" points="0,-94.99 0,-147.99 297,-147.99 297,-94.99 0,-94.99"/>
<text text-anchor="middle" x="43" y="-132.79" font-family="Times New Roman,serif" font-size="14.00">Task_1libs</text>
<text text-anchor="middle" x="43" y="-117.79" font-family="Times New Roman,serif" font-size="14.00">dz_Task_1h</text>
<text text-anchor="middle" x="43" y="-102.79" font-family="Times New Roman,serif" font-size="14.00">crl8q</text>
<polyline fill="none" stroke="black" stroke-dasharray="5,2" points="86,-94.99 86,-147.99 "/>
<text text-anchor="middle" x="126" y="-132.79" font-family="Times New Roman,serif" font-size="14.00">Flughafenp</text>
<text text-anchor="middle" x="126" y="-117.79" font-family="Times New Roman,serif" font-size="14.00">ersonal:La</text>
<text text-anchor="middle" x="126" y="-102.79" font-family="Times New Roman,serif" font-size="14.00">ne_1nej1h4</text>
<polyline fill="none" stroke="black" stroke-dasharray="5,2" points="166,-94.99 166,-147.99 "/>
<text text-anchor="middle" x="231.5" y="-132.79" font-family="Times New Roman,serif" font-size="14.00">sequential execution:</text>
<text text-anchor="middle" x="231.5" y="-117.79" font-family="Times New Roman,serif" font-size="14.00">Gepäck_bewegen</text>
<text text-anchor="middle" x="231.5" y="-102.79" font-family="Times New Roman,serif" font-size="14.00">Bewegen</text>
</g>
<!-- EndEvent_0\nrcq1yq -->
<g id="node2" class="node">
<title>EndEvent_0\nrcq1yq</title>
<ellipse fill="lightgrey" stroke="black" cx="148.5" cy="-29.25" rx="29.5" ry="29.5"/>
<text text-anchor="middle" x="148.5" y="-25.55" font-family="Times New Roman,serif" font-size="14.00">Ende</text>
</g>
<!-- Task_1libs\ndz_Task_1h\ncrl8q&#45;&gt;EndEvent_0\nrcq1yq -->
<g id="edge1" class="edge">
<title>Task_1libs\ndz_Task_1h\ncrl8q&#45;&gt;EndEvent_0\nrcq1yq</title>
<path fill="none" stroke="black" d="M148.5,-94.87C148.5,-86.78 148.5,-77.66 148.5,-68.87"/>
<polygon fill="black" stroke="black" points="152,-68.79 148.5,-58.79 145,-68.79 152,-68.79"/>
</g>
<!-- StartEvent\n_8 -->
<g id="node3" class="node">
<title>StartEvent\n_8</title>
<ellipse fill="lightgrey" stroke="black" cx="148.5" cy="-212.44" rx="27.9" ry="27.9"/>
<text text-anchor="middle" x="148.5" y="-208.74" font-family="Times New Roman,serif" font-size="14.00">Start</text>
</g>
<!-- StartEvent\n_8&#45;&gt;Task_1libs\ndz_Task_1h\ncrl8q -->
<g id="edge2" class="edge">
<title>StartEvent\n_8&#45;&gt;Task_1libs\ndz_Task_1h\ncrl8q</title>
<path fill="none" stroke="black" d="M148.5,-184.27C148.5,-176.14 148.5,-167.08 148.5,-158.47"/>
<polygon fill="black" stroke="black" points="152,-158.28 148.5,-148.28 145,-158.28 152,-158.28"/>
</g>
</g>
</svg>
