<svg width="600px" height="658px"
 viewBox="0.00 0.00 308.00 338.39" xmlns="http://www.w3.org/2000/svg" xmlns:xlink="http://www.w3.org/1999/xlink">
<g id="graph0" class="graph" transform="scale(1.0 1.0) rotate(0) translate(4 334.39)">
<title>09_Abfertigung_fehlgeleitetes_Transfergepäck</title>
<polygon fill="white" stroke="transparent" points="-4,4 -4,-334.39 304,-334.39 304,4 -4,4"/>
<!-- Task_0ekil\nqz_Task_0r\nzkvrd -->
<g id="node1" class="node">
<title>Task_0ekil\nqz_Task_0r\nzkvrd</title>
<polygon fill="none" stroke="black" stroke-dasharray="5,2" points="0,-94.99 0,-237.99 300,-237.99 300,-94.99 0,-94.99"/>
<text text-anchor="middle" x="42" y="-177.79" font-family="Times New Roman,serif" font-size="14.00">Task_0ekil</text>
<text text-anchor="middle" x="42" y="-162.79" font-family="Times New Roman,serif" font-size="14.00">qz_Task_0r</text>
<text text-anchor="middle" x="42" y="-147.79" font-family="Times New Roman,serif" font-size="14.00">zkvrd</text>
<polyline fill="none" stroke="black" stroke-dasharray="5,2" points="84,-94.99 84,-237.99 "/>
<text text-anchor="middle" x="126.5" y="-222.79" font-family="Times New Roman,serif" font-size="14.00">Eingabeste</text>
<text text-anchor="middle" x="126.5" y="-207.79" font-family="Times New Roman,serif" font-size="14.00">llen_Trans</text>
<text text-anchor="middle" x="126.5" y="-192.79" font-family="Times New Roman,serif" font-size="14.00">fergepäck:</text>
<text text-anchor="middle" x="126.5" y="-177.79" font-family="Times New Roman,serif" font-size="14.00">Lane_1g8c7</text>
<text text-anchor="middle" x="126.5" y="-162.79" font-family="Times New Roman,serif" font-size="14.00">wl&amp;Mitarbe</text>
<text text-anchor="middle" x="126.5" y="-147.79" font-family="Times New Roman,serif" font-size="14.00">iter_Gepäc</text>
<text text-anchor="middle" x="126.5" y="-132.79" font-family="Times New Roman,serif" font-size="14.00">kabfertigu</text>
<text text-anchor="middle" x="126.5" y="-117.79" font-family="Times New Roman,serif" font-size="14.00">ng:Lane_01</text>
<text text-anchor="middle" x="126.5" y="-102.79" font-family="Times New Roman,serif" font-size="14.00">ilmzw</text>
<polyline fill="none" stroke="black" stroke-dasharray="5,2" points="169,-94.99 169,-237.99 "/>
<text text-anchor="middle" x="234.5" y="-192.79" font-family="Times New Roman,serif" font-size="14.00">sequential execution:</text>
<text text-anchor="middle" x="234.5" y="-177.79" font-family="Times New Roman,serif" font-size="14.00">Gepäck_bewegen</text>
<text text-anchor="middle" x="234.5" y="-162.79" font-family="Times New Roman,serif" font-size="14.00">Gepäck_bewegen</text>
<text text-anchor="middle" x="234.5" y="-147.79" font-family="Times New Roman,serif" font-size="14.00">Gepäck_bewegen</text>
<text text-anchor="middle" x="234.5" y="-132.79" font-family="Times New Roman,serif" font-size="14.00">Gepäck_bewegen</text>
</g>
<!-- EndEvent_0\nrx13h1 -->
<g id="node2" class="node">
<title>EndEvent_0\nrx13h1</title>
<ellipse fill="lightgrey" stroke="black" cx="150" cy="-29.25" rx="29.5" ry="29.5"/>
<text text-anchor="middle" x="150" y="-25.55" font-family="Times New Roman,serif" font-size="14.00">Ende</text>
</g>
<!-- Task_0ekil\nqz_Task_0r\nzkvrd&#45;&gt;EndEvent_0\nrx13h1 -->
<g id="edge1" class="edge">
<title>Task_0ekil\nqz_Task_0r\nzkvrd&#45;&gt;EndEvent_0\nrx13h1</title>
<path fill="none" stroke="black" d="M150,-94.7C150,-85.81 150,-77 150,-68.87"/>
<polygon fill="black" stroke="black" points="153.5,-68.64 150,-58.64 146.5,-68.64 153.5,-68.64"/>
</g>
<!-- StartEvent\n_9 -->
<g id="node3" class="node">
<title>StartEvent\n_9</title>
<ellipse fill="lightgrey" stroke="black" cx="150" cy="-302.44" rx="27.9" ry="27.9"/>
<text text-anchor="middle" x="150" y="-298.74" font-family="Times New Roman,serif" font-size="14.00">Start</text>
</g>
<!-- StartEvent\n_9&#45;&gt;Task_0ekil\nqz_Task_0r\nzkvrd -->
<g id="edge2" class="edge">
<title>StartEvent\n_9&#45;&gt;Task_0ekil\nqz_Task_0r\nzkvrd</title>
<path fill="none" stroke="black" d="M150,-274.34C150,-266.53 150,-257.59 150,-248.28"/>
<polygon fill="black" stroke="black" points="153.5,-248.07 150,-238.07 146.5,-248.07 153.5,-248.07"/>
</g>
</g>
</svg>
