<svg width="600px" height="606px"
 viewBox="0.00 0.00 961.00 971.39" xmlns="http://www.w3.org/2000/svg" xmlns:xlink="http://www.w3.org/1999/xlink">
<g id="graph0" class="graph" transform="scale(1.0 1.0) rotate(0) translate(4 967.39)">
<title>10_Abfertigung_Abflug_Zusteigergepäck</title>
<polygon fill="white" stroke="transparent" points="-4,4 -4,-967.39 957,-967.39 957,4 -4,4"/>
<!-- ExclusiveG\nateway_1ks\nx86y -->
<g id="node1" class="node">
<title>ExclusiveG\nateway_1ks\nx86y</title>
<polygon fill="lightgrey" stroke="black" points="479.5,-547.49 353.65,-529.49 479.5,-511.49 605.35,-529.49 479.5,-547.49"/>
<text text-anchor="middle" x="479.5" y="-525.79" font-family="Times New Roman,serif" font-size="14.00">Gepäckart?_/_SPLIT</text>
</g>
<!-- Task_0ydcw\njt_Task_0n\nf4oe5 -->
<g id="node3" class="node">
<title>Task_0ydcw\njt_Task_0n\nf4oe5</title>
<polygon fill="none" stroke="black" stroke-dasharray="5,2" points="0,-339.49 0,-452.49 311,-452.49 311,-339.49 0,-339.49"/>
<text text-anchor="middle" x="44.5" y="-407.29" font-family="Times New Roman,serif" font-size="14.00">Task_0ydcw</text>
<text text-anchor="middle" x="44.5" y="-392.29" font-family="Times New Roman,serif" font-size="14.00">jt_Task_0n</text>
<text text-anchor="middle" x="44.5" y="-377.29" font-family="Times New Roman,serif" font-size="14.00">f4oe5</text>
<polyline fill="none" stroke="black" stroke-dasharray="5,2" points="89,-339.49 89,-452.49 "/>
<text text-anchor="middle" x="134.5" y="-437.29" font-family="Times New Roman,serif" font-size="14.00">Check&#45;In_S</text>
<text text-anchor="middle" x="134.5" y="-422.29" font-family="Times New Roman,serif" font-size="14.00">chalter:La</text>
<text text-anchor="middle" x="134.5" y="-407.29" font-family="Times New Roman,serif" font-size="14.00">ne_0p66ssc</text>
<text text-anchor="middle" x="134.5" y="-392.29" font-family="Times New Roman,serif" font-size="14.00">&amp;Verladest</text>
<text text-anchor="middle" x="134.5" y="-377.29" font-family="Times New Roman,serif" font-size="14.00">elle_Sonde</text>
<text text-anchor="middle" x="134.5" y="-362.29" font-family="Times New Roman,serif" font-size="14.00">rgepäck:La</text>
<text text-anchor="middle" x="134.5" y="-347.29" font-family="Times New Roman,serif" font-size="14.00">ne_1w5sm2d</text>
<polyline fill="none" stroke="black" stroke-dasharray="5,2" points="180,-339.49 180,-452.49 "/>
<text text-anchor="middle" x="245.5" y="-414.79" font-family="Times New Roman,serif" font-size="14.00">sequential execution:</text>
<text text-anchor="middle" x="245.5" y="-399.79" font-family="Times New Roman,serif" font-size="14.00">Gepäck_bewegen</text>
<text text-anchor="middle" x="245.5" y="-384.79" font-family="Times New Roman,serif" font-size="14.00">Gepäck_bewegen</text>
<text text-anchor="middle" x="245.5" y="-369.79" font-family="Times New Roman,serif" font-size="14.00">Gepäck_bewegen</text>
</g>
<!-- ExclusiveG\nateway_1ks\nx86y&#45;&gt;Task_0ydcw\njt_Task_0n\nf4oe5 -->
<g id="edge3" class="edge">
<title>ExclusiveG\nateway_1ks\nx86y&#45;&gt;Task_0ydcw\njt_Task_0n\nf4oe5</title>
<path fill="none" stroke="black" d="M440.2,-517C407.51,-507.07 359.94,-491.79 319.5,-475.49 305.33,-469.78 290.66,-463.43 276.18,-456.87"/>
<polygon fill="black" stroke="black" points="277.25,-453.51 266.7,-452.54 274.34,-459.88 277.25,-453.51"/>
</g>
<!-- Task_0yftz\nl4_Task_0n\nf4oe5 -->
<g id="node6" class="node">
<title>Task_0yftz\nl4_Task_0n\nf4oe5</title>
<polygon fill="none" stroke="black" stroke-dasharray="5,2" points="329,-316.99 329,-474.99 630,-474.99 630,-316.99 329,-316.99"/>
<text text-anchor="middle" x="370.5" y="-407.29" font-family="Times New Roman,serif" font-size="14.00">Task_0yftz</text>
<text text-anchor="middle" x="370.5" y="-392.29" font-family="Times New Roman,serif" font-size="14.00">l4_Task_0n</text>
<text text-anchor="middle" x="370.5" y="-377.29" font-family="Times New Roman,serif" font-size="14.00">f4oe5</text>
<polyline fill="none" stroke="black" stroke-dasharray="5,2" points="412,-316.99 412,-474.99 "/>
<text text-anchor="middle" x="455.5" y="-459.79" font-family="Times New Roman,serif" font-size="14.00">Gepäckförd</text>
<text text-anchor="middle" x="455.5" y="-444.79" font-family="Times New Roman,serif" font-size="14.00">eranlage:L</text>
<text text-anchor="middle" x="455.5" y="-429.79" font-family="Times New Roman,serif" font-size="14.00">ane_1qgbka</text>
<text text-anchor="middle" x="455.5" y="-414.79" font-family="Times New Roman,serif" font-size="14.00">p&amp;Check&#45;In</text>
<text text-anchor="middle" x="455.5" y="-399.79" font-family="Times New Roman,serif" font-size="14.00">_Schalter:</text>
<text text-anchor="middle" x="455.5" y="-384.79" font-family="Times New Roman,serif" font-size="14.00">Lane_0p66s</text>
<text text-anchor="middle" x="455.5" y="-369.79" font-family="Times New Roman,serif" font-size="14.00">sc&amp;Sperrge</text>
<text text-anchor="middle" x="455.5" y="-354.79" font-family="Times New Roman,serif" font-size="14.00">päckschalt</text>
<text text-anchor="middle" x="455.5" y="-339.79" font-family="Times New Roman,serif" font-size="14.00">er:Lane_1g</text>
<text text-anchor="middle" x="455.5" y="-324.79" font-family="Times New Roman,serif" font-size="14.00">so79o</text>
<polyline fill="none" stroke="black" stroke-dasharray="5,2" points="499,-316.99 499,-474.99 "/>
<text text-anchor="middle" x="564.5" y="-422.29" font-family="Times New Roman,serif" font-size="14.00">sequential execution:</text>
<text text-anchor="middle" x="564.5" y="-407.29" font-family="Times New Roman,serif" font-size="14.00">Gepäck_bewegen</text>
<text text-anchor="middle" x="564.5" y="-392.29" font-family="Times New Roman,serif" font-size="14.00">Gepäck_bewegen</text>
<text text-anchor="middle" x="564.5" y="-377.29" font-family="Times New Roman,serif" font-size="14.00">Sonstige_Tasks</text>
<text text-anchor="middle" x="564.5" y="-362.29" font-family="Times New Roman,serif" font-size="14.00">Gepäck_bewegen</text>
</g>
<!-- ExclusiveG\nateway_1ks\nx86y&#45;&gt;Task_0yftz\nl4_Task_0n\nf4oe5 -->
<g id="edge2" class="edge">
<title>ExclusiveG\nateway_1ks\nx86y&#45;&gt;Task_0yftz\nl4_Task_0n\nf4oe5</title>
<path fill="none" stroke="black" d="M479.5,-511.3C479.5,-504.05 479.5,-495 479.5,-485.21"/>
<polygon fill="black" stroke="black" points="483,-485.2 479.5,-475.2 476,-485.2 483,-485.2"/>
</g>
<!-- Task_0vo92\nnb_Task_0n\nf4oe5 -->
<g id="node13" class="node">
<title>Task_0vo92\nnb_Task_0n\nf4oe5</title>
<polygon fill="none" stroke="black" stroke-dasharray="5,2" points="648,-339.49 648,-452.49 953,-452.49 953,-339.49 648,-339.49"/>
<text text-anchor="middle" x="691.5" y="-407.29" font-family="Times New Roman,serif" font-size="14.00">Task_0vo92</text>
<text text-anchor="middle" x="691.5" y="-392.29" font-family="Times New Roman,serif" font-size="14.00">nb_Task_0n</text>
<text text-anchor="middle" x="691.5" y="-377.29" font-family="Times New Roman,serif" font-size="14.00">f4oe5</text>
<polyline fill="none" stroke="black" stroke-dasharray="5,2" points="735,-339.49 735,-452.49 "/>
<text text-anchor="middle" x="778.5" y="-437.29" font-family="Times New Roman,serif" font-size="14.00">Gepäckförd</text>
<text text-anchor="middle" x="778.5" y="-422.29" font-family="Times New Roman,serif" font-size="14.00">eranlage:L</text>
<text text-anchor="middle" x="778.5" y="-407.29" font-family="Times New Roman,serif" font-size="14.00">ane_1qgbka</text>
<text text-anchor="middle" x="778.5" y="-392.29" font-family="Times New Roman,serif" font-size="14.00">p&amp;Check&#45;In</text>
<text text-anchor="middle" x="778.5" y="-377.29" font-family="Times New Roman,serif" font-size="14.00">_Schalter:</text>
<text text-anchor="middle" x="778.5" y="-362.29" font-family="Times New Roman,serif" font-size="14.00">Lane_0p66s</text>
<text text-anchor="middle" x="778.5" y="-347.29" font-family="Times New Roman,serif" font-size="14.00">sc</text>
<polyline fill="none" stroke="black" stroke-dasharray="5,2" points="822,-339.49 822,-452.49 "/>
<text text-anchor="middle" x="887.5" y="-407.29" font-family="Times New Roman,serif" font-size="14.00">sequential execution:</text>
<text text-anchor="middle" x="887.5" y="-392.29" font-family="Times New Roman,serif" font-size="14.00">Sonstige_Tasks</text>
<text text-anchor="middle" x="887.5" y="-377.29" font-family="Times New Roman,serif" font-size="14.00">Gepäck_bewegen</text>
</g>
<!-- ExclusiveG\nateway_1ks\nx86y&#45;&gt;Task_0vo92\nnb_Task_0n\nf4oe5 -->
<g id="edge1" class="edge">
<title>ExclusiveG\nateway_1ks\nx86y&#45;&gt;Task_0vo92\nnb_Task_0n\nf4oe5</title>
<path fill="none" stroke="black" d="M518.83,-517.08C551.54,-507.2 599.12,-491.94 639.5,-475.49 653.44,-469.82 667.86,-463.48 682.09,-456.94"/>
<polygon fill="black" stroke="black" points="683.8,-460 691.4,-452.61 680.86,-453.65 683.8,-460"/>
</g>
<!-- EndEvent_0\nfhwvkf -->
<g id="node2" class="node">
<title>EndEvent_0\nfhwvkf</title>
<ellipse fill="lightgrey" stroke="black" cx="479.5" cy="-29.25" rx="29.5" ry="29.5"/>
<text text-anchor="middle" x="479.5" y="-25.55" font-family="Times New Roman,serif" font-size="14.00">Ende</text>
</g>
<!-- ExclusiveG\nateway_0iz\nox4h -->
<g id="node9" class="node">
<title>ExclusiveG\nateway_0iz\nox4h</title>
<polygon fill="lightgrey" stroke="black" points="479.5,-280.49 360.86,-262.49 479.5,-244.49 598.14,-262.49 479.5,-280.49"/>
<text text-anchor="middle" x="479.5" y="-258.79" font-family="Times New Roman,serif" font-size="14.00">Gepäckart?_/_JOIN</text>
</g>
<!-- Task_0ydcw\njt_Task_0n\nf4oe5&#45;&gt;ExclusiveG\nateway_0iz\nox4h -->
<g id="edge4" class="edge">
<title>Task_0ydcw\njt_Task_0n\nf4oe5&#45;&gt;ExclusiveG\nateway_0iz\nox4h</title>
<path fill="none" stroke="black" d="M266.7,-339.45C284.2,-331.38 302.23,-323.46 319.5,-316.49 356.52,-301.57 399.51,-287.51 431.6,-277.62"/>
<polygon fill="black" stroke="black" points="432.65,-280.96 441.19,-274.69 430.6,-274.27 432.65,-280.96"/>
</g>
<!-- StartEvent\n_10 -->
<g id="node4" class="node">
<title>StartEvent\n_10</title>
<ellipse fill="lightgrey" stroke="black" cx="479.5" cy="-935.44" rx="27.9" ry="27.9"/>
<text text-anchor="middle" x="479.5" y="-931.74" font-family="Times New Roman,serif" font-size="14.00">Start</text>
</g>
<!-- Task_0mupd\nh5 -->
<g id="node12" class="node">
<title>Task_0mupd\nh5</title>
<polygon fill="lightgrey" stroke="black" points="334,-817.99 334,-870.99 625,-870.99 625,-817.99 334,-817.99"/>
<text text-anchor="middle" x="379.5" y="-848.29" font-family="Times New Roman,serif" font-size="14.00">Task_0mupd</text>
<text text-anchor="middle" x="379.5" y="-833.29" font-family="Times New Roman,serif" font-size="14.00">h5</text>
<polyline fill="none" stroke="black" points="425,-817.99 425,-870.99 "/>
<text text-anchor="middle" x="467" y="-855.79" font-family="Times New Roman,serif" font-size="14.00">Check&#45;In_S</text>
<text text-anchor="middle" x="467" y="-840.79" font-family="Times New Roman,serif" font-size="14.00">chalter:La</text>
<text text-anchor="middle" x="467" y="-825.79" font-family="Times New Roman,serif" font-size="14.00">ne_0p66ssc</text>
<polyline fill="none" stroke="black" points="509,-817.99 509,-870.99 "/>
<text text-anchor="middle" x="567" y="-840.79" font-family="Times New Roman,serif" font-size="14.00">Gepäck_bewegen</text>
</g>
<!-- StartEvent\n_10&#45;&gt;Task_0mupd\nh5 -->
<g id="edge5" class="edge">
<title>StartEvent\n_10&#45;&gt;Task_0mupd\nh5</title>
<path fill="none" stroke="black" d="M479.5,-907.27C479.5,-899.14 479.5,-890.08 479.5,-881.47"/>
<polygon fill="black" stroke="black" points="483,-881.28 479.5,-871.28 476,-881.28 483,-881.28"/>
</g>
<!-- ExclusiveG\nateway_081\ndp2p -->
<g id="node5" class="node">
<title>ExclusiveG\nateway_081\ndp2p</title>
<polygon fill="lightgrey" stroke="black" points="479.5,-619.49 320.47,-601.49 479.5,-583.49 638.53,-601.49 479.5,-619.49"/>
<text text-anchor="middle" x="479.5" y="-597.79" font-family="Times New Roman,serif" font-size="14.00">Paralleles_Gateway_/_JOIN</text>
</g>
<!-- ExclusiveG\nateway_081\ndp2p&#45;&gt;ExclusiveG\nateway_1ks\nx86y -->
<g id="edge6" class="edge">
<title>ExclusiveG\nateway_081\ndp2p&#45;&gt;ExclusiveG\nateway_1ks\nx86y</title>
<path fill="none" stroke="black" d="M479.5,-583.19C479.5,-575.48 479.5,-566.21 479.5,-557.61"/>
<polygon fill="black" stroke="black" points="483,-557.6 479.5,-547.6 476,-557.6 483,-557.6"/>
</g>
<!-- Task_0yftz\nl4_Task_0n\nf4oe5&#45;&gt;ExclusiveG\nateway_0iz\nox4h -->
<g id="edge7" class="edge">
<title>Task_0yftz\nl4_Task_0n\nf4oe5&#45;&gt;ExclusiveG\nateway_0iz\nox4h</title>
<path fill="none" stroke="black" d="M479.5,-316.98C479.5,-307.55 479.5,-298.47 479.5,-290.55"/>
<polygon fill="black" stroke="black" points="483,-290.55 479.5,-280.55 476,-290.55 483,-290.55"/>
</g>
<!-- Task_1jvl6\n1v_Task_1y\na566i -->
<g id="node7" class="node">
<title>Task_1jvl6\n1v_Task_1y\na566i</title>
<polygon fill="none" stroke="black" stroke-dasharray="5,2" points="326.5,-94.99 326.5,-207.99 632.5,-207.99 632.5,-94.99 326.5,-94.99"/>
<text text-anchor="middle" x="369.5" y="-162.79" font-family="Times New Roman,serif" font-size="14.00">Task_1jvl6</text>
<text text-anchor="middle" x="369.5" y="-147.79" font-family="Times New Roman,serif" font-size="14.00">1v_Task_1y</text>
<text text-anchor="middle" x="369.5" y="-132.79" font-family="Times New Roman,serif" font-size="14.00">a566i</text>
<polyline fill="none" stroke="black" stroke-dasharray="5,2" points="412.5,-94.99 412.5,-207.99 "/>
<text text-anchor="middle" x="457" y="-192.79" font-family="Times New Roman,serif" font-size="14.00">Flugzeug:L</text>
<text text-anchor="middle" x="457" y="-177.79" font-family="Times New Roman,serif" font-size="14.00">ane_09c9h4</text>
<text text-anchor="middle" x="457" y="-162.79" font-family="Times New Roman,serif" font-size="14.00">u&amp;Verlades</text>
<text text-anchor="middle" x="457" y="-147.79" font-family="Times New Roman,serif" font-size="14.00">telle_Sond</text>
<text text-anchor="middle" x="457" y="-132.79" font-family="Times New Roman,serif" font-size="14.00">ergepäck:L</text>
<text text-anchor="middle" x="457" y="-117.79" font-family="Times New Roman,serif" font-size="14.00">ane_1w5sm2</text>
<text text-anchor="middle" x="457" y="-102.79" font-family="Times New Roman,serif" font-size="14.00">d</text>
<polyline fill="none" stroke="black" stroke-dasharray="5,2" points="501.5,-94.99 501.5,-207.99 "/>
<text text-anchor="middle" x="567" y="-162.79" font-family="Times New Roman,serif" font-size="14.00">sequential execution:</text>
<text text-anchor="middle" x="567" y="-147.79" font-family="Times New Roman,serif" font-size="14.00">Gepäck_bewegen</text>
<text text-anchor="middle" x="567" y="-132.79" font-family="Times New Roman,serif" font-size="14.00">Gepäck_bewegen</text>
</g>
<!-- Task_1jvl6\n1v_Task_1y\na566i&#45;&gt;EndEvent_0\nfhwvkf -->
<g id="edge8" class="edge">
<title>Task_1jvl6\n1v_Task_1y\na566i&#45;&gt;EndEvent_0\nfhwvkf</title>
<path fill="none" stroke="black" d="M479.5,-94.95C479.5,-86.12 479.5,-77.16 479.5,-68.84"/>
<polygon fill="black" stroke="black" points="483,-68.69 479.5,-58.69 476,-68.69 483,-68.69"/>
</g>
<!-- Task_04yfi\n41 -->
<g id="node8" class="node">
<title>Task_04yfi\n41</title>
<polygon fill="lightgrey" stroke="black" points="170,-655.99 170,-708.99 471,-708.99 471,-655.99 170,-655.99"/>
<text text-anchor="middle" x="210" y="-686.29" font-family="Times New Roman,serif" font-size="14.00">Task_04yfi</text>
<text text-anchor="middle" x="210" y="-671.29" font-family="Times New Roman,serif" font-size="14.00">41</text>
<polyline fill="none" stroke="black" points="250,-655.99 250,-708.99 "/>
<text text-anchor="middle" x="292" y="-693.79" font-family="Times New Roman,serif" font-size="14.00">Check&#45;In_S</text>
<text text-anchor="middle" x="292" y="-678.79" font-family="Times New Roman,serif" font-size="14.00">chalter:La</text>
<text text-anchor="middle" x="292" y="-663.79" font-family="Times New Roman,serif" font-size="14.00">ne_0p66ssc</text>
<polyline fill="none" stroke="black" points="334,-655.99 334,-708.99 "/>
<text text-anchor="middle" x="402.5" y="-678.79" font-family="Times New Roman,serif" font-size="14.00">Gepäck_kontrollieren</text>
</g>
<!-- Task_04yfi\n41&#45;&gt;ExclusiveG\nateway_081\ndp2p -->
<g id="edge9" class="edge">
<title>Task_04yfi\n41&#45;&gt;ExclusiveG\nateway_081\ndp2p</title>
<path fill="none" stroke="black" d="M372.12,-655.85C394.93,-644.52 421.23,-631.44 442.1,-621.08"/>
<polygon fill="black" stroke="black" points="443.88,-624.1 451.28,-616.52 440.76,-617.83 443.88,-624.1"/>
</g>
<!-- ExclusiveG\nateway_0iz\nox4h&#45;&gt;Task_1jvl6\n1v_Task_1y\na566i -->
<g id="edge10" class="edge">
<title>ExclusiveG\nateway_0iz\nox4h&#45;&gt;Task_1jvl6\n1v_Task_1y\na566i</title>
<path fill="none" stroke="black" d="M479.5,-244.46C479.5,-237.09 479.5,-227.93 479.5,-218.29"/>
<polygon fill="black" stroke="black" points="483,-218.11 479.5,-208.11 476,-218.11 483,-218.11"/>
</g>
<!-- ExclusiveG\nateway_09l\nvku4 -->
<g id="node10" class="node">
<title>ExclusiveG\nateway_09l\nvku4</title>
<polygon fill="lightgrey" stroke="black" points="479.5,-781.49 312.43,-763.49 479.5,-745.49 646.57,-763.49 479.5,-781.49"/>
<text text-anchor="middle" x="479.5" y="-759.79" font-family="Times New Roman,serif" font-size="14.00">Paralleles_Gateway_/_SPLIT</text>
</g>
<!-- ExclusiveG\nateway_09l\nvku4&#45;&gt;Task_04yfi\n41 -->
<g id="edge12" class="edge">
<title>ExclusiveG\nateway_09l\nvku4&#45;&gt;Task_04yfi\n41</title>
<path fill="none" stroke="black" d="M451.07,-748.37C431.67,-738.73 405.22,-725.59 381.2,-713.66"/>
<polygon fill="black" stroke="black" points="382.65,-710.47 372.14,-709.15 379.54,-716.74 382.65,-710.47"/>
</g>
<!-- Task_0johr\n9l -->
<g id="node11" class="node">
<title>Task_0johr\n9l</title>
<polygon fill="lightgrey" stroke="black" points="489,-655.99 489,-708.99 790,-708.99 790,-655.99 489,-655.99"/>
<text text-anchor="middle" x="529" y="-686.29" font-family="Times New Roman,serif" font-size="14.00">Task_0johr</text>
<text text-anchor="middle" x="529" y="-671.29" font-family="Times New Roman,serif" font-size="14.00">9l</text>
<polyline fill="none" stroke="black" points="569,-655.99 569,-708.99 "/>
<text text-anchor="middle" x="611" y="-693.79" font-family="Times New Roman,serif" font-size="14.00">Check&#45;In_S</text>
<text text-anchor="middle" x="611" y="-678.79" font-family="Times New Roman,serif" font-size="14.00">chalter:La</text>
<text text-anchor="middle" x="611" y="-663.79" font-family="Times New Roman,serif" font-size="14.00">ne_0p66ssc</text>
<polyline fill="none" stroke="black" points="653,-655.99 653,-708.99 "/>
<text text-anchor="middle" x="721.5" y="-678.79" font-family="Times New Roman,serif" font-size="14.00">Gepäck_kontrollieren</text>
</g>
<!-- ExclusiveG\nateway_09l\nvku4&#45;&gt;Task_0johr\n9l -->
<g id="edge11" class="edge">
<title>ExclusiveG\nateway_09l\nvku4&#45;&gt;Task_0johr\n9l</title>
<path fill="none" stroke="black" d="M508.1,-748.37C527.63,-738.73 554.24,-725.59 578.41,-713.66"/>
<polygon fill="black" stroke="black" points="580.12,-716.72 587.54,-709.15 577.02,-710.44 580.12,-716.72"/>
</g>
<!-- Task_0johr\n9l&#45;&gt;ExclusiveG\nateway_081\ndp2p -->
<g id="edge13" class="edge">
<title>Task_0johr\n9l&#45;&gt;ExclusiveG\nateway_081\ndp2p</title>
<path fill="none" stroke="black" d="M587.55,-655.85C564.61,-644.52 538.13,-631.44 517.13,-621.08"/>
<polygon fill="black" stroke="black" points="518.42,-617.81 507.9,-616.52 515.32,-624.08 518.42,-617.81"/>
</g>
<!-- Task_0mupd\nh5&#45;&gt;ExclusiveG\nateway_09l\nvku4 -->
<g id="edge14" class="edge">
<title>Task_0mupd\nh5&#45;&gt;ExclusiveG\nateway_09l\nvku4</title>
<path fill="none" stroke="black" d="M479.5,-817.63C479.5,-809.4 479.5,-800.28 479.5,-791.94"/>
<polygon fill="black" stroke="black" points="483,-791.94 479.5,-781.94 476,-791.94 483,-791.94"/>
</g>
<!-- Task_0vo92\nnb_Task_0n\nf4oe5&#45;&gt;ExclusiveG\nateway_0iz\nox4h -->
<g id="edge15" class="edge">
<title>Task_0vo92\nnb_Task_0n\nf4oe5&#45;&gt;ExclusiveG\nateway_0iz\nox4h</title>
<path fill="none" stroke="black" d="M691.4,-339.38C674.2,-331.32 656.49,-323.42 639.5,-316.49 602.66,-301.49 559.83,-287.48 527.76,-277.63"/>
<polygon fill="black" stroke="black" points="528.76,-274.28 518.17,-274.71 526.72,-280.97 528.76,-274.28"/>
</g>
</g>
</svg>
