<svg width="600px" height="407px"
 viewBox="0.00 0.00 1365.00 926.39" xmlns="http://www.w3.org/2000/svg" xmlns:xlink="http://www.w3.org/1999/xlink">
<g id="graph0" class="graph" transform="scale(1.0 1.0) rotate(0) translate(4 922.39)">
<title>13_Gepäck_zu_Eingabestellen_für_Transfergepäck_bringen</title>
<polygon fill="white" stroke="transparent" points="-4,4 -4,-922.39 1361,-922.39 1361,4 -4,4"/>
<!-- Task_1ckbp\nud -->
<g id="node1" class="node">
<title>Task_1ckbp\nud</title>
<polygon fill="lightgrey" stroke="black" points="261,-613.99 261,-681.99 546,-681.99 546,-613.99 261,-613.99"/>
<text text-anchor="middle" x="304.5" y="-651.79" font-family="Times New Roman,serif" font-size="14.00">Task_1ckbp</text>
<text text-anchor="middle" x="304.5" y="-636.79" font-family="Times New Roman,serif" font-size="14.00">ud</text>
<polyline fill="none" stroke="black" points="348,-613.99 348,-681.99 "/>
<text text-anchor="middle" x="389" y="-666.79" font-family="Times New Roman,serif" font-size="14.00">Eingabeste</text>
<text text-anchor="middle" x="389" y="-651.79" font-family="Times New Roman,serif" font-size="14.00">llen_Einze</text>
<text text-anchor="middle" x="389" y="-636.79" font-family="Times New Roman,serif" font-size="14.00">lgepäck:La</text>
<text text-anchor="middle" x="389" y="-621.79" font-family="Times New Roman,serif" font-size="14.00">ne_0r72c8u</text>
<polyline fill="none" stroke="black" points="430,-613.99 430,-681.99 "/>
<text text-anchor="middle" x="488" y="-644.29" font-family="Times New Roman,serif" font-size="14.00">Gepäck_bewegen</text>
</g>
<!-- ExclusiveG\nateway_1o8\nzrql -->
<g id="node14" class="node">
<title>ExclusiveG\nateway_1o8\nzrql</title>
<polygon fill="lightgrey" stroke="black" points="376.5,-560.99 159.66,-542.99 376.5,-524.99 593.34,-542.99 376.5,-560.99"/>
<text text-anchor="middle" x="376.5" y="-539.29" font-family="Times New Roman,serif" font-size="14.00">Sonder&#45;_oder_Sperrgepäck?_/_SPLIT</text>
</g>
<!-- Task_1ckbp\nud&#45;&gt;ExclusiveG\nateway_1o8\nzrql -->
<g id="edge1" class="edge">
<title>Task_1ckbp\nud&#45;&gt;ExclusiveG\nateway_1o8\nzrql</title>
<path fill="none" stroke="black" d="M394.81,-613.84C391.13,-599.82 386.91,-583.73 383.45,-570.52"/>
<polygon fill="black" stroke="black" points="386.79,-569.43 380.86,-560.64 380.01,-571.2 386.79,-569.43"/>
</g>
<!-- ExclusiveG\nateway_0y7\ny3jp -->
<g id="node2" class="node">
<title>ExclusiveG\nateway_0y7\ny3jp</title>
<polygon fill="lightgrey" stroke="black" points="899.5,-754.49 729.41,-736.49 899.5,-718.49 1069.59,-736.49 899.5,-754.49"/>
<text text-anchor="middle" x="899.5" y="-732.79" font-family="Times New Roman,serif" font-size="14.00">Inclusives_Gateway_/_SPLIT</text>
</g>
<!-- ExclusiveG\nateway_0y7\ny3jp&#45;&gt;Task_1ckbp\nud -->
<g id="edge3" class="edge">
<title>ExclusiveG\nateway_0y7\ny3jp&#45;&gt;Task_1ckbp\nud</title>
<path fill="none" stroke="black" d="M838.68,-724.89C768.79,-712.7 651.47,-692.24 556.25,-675.63"/>
<polygon fill="black" stroke="black" points="556.68,-672.16 546.23,-673.89 555.48,-679.05 556.68,-672.16"/>
</g>
<!-- ExclusiveG\nateway_1wh\njhh1 -->
<g id="node5" class="node">
<title>ExclusiveG\nateway_1wh\njhh1</title>
<polygon fill="lightgrey" stroke="black" points="899.5,-665.99 617.14,-647.99 899.5,-629.99 1181.86,-647.99 899.5,-665.99"/>
<text text-anchor="middle" x="899.5" y="-644.29" font-family="Times New Roman,serif" font-size="14.00">Sonder&#45;_oder_Last&#45;Minute&#45;Sperrgepäck?_/_SPLIT</text>
</g>
<!-- ExclusiveG\nateway_0y7\ny3jp&#45;&gt;ExclusiveG\nateway_1wh\njhh1 -->
<g id="edge2" class="edge">
<title>ExclusiveG\nateway_0y7\ny3jp&#45;&gt;ExclusiveG\nateway_1wh\njhh1</title>
<path fill="none" stroke="black" d="M899.5,-718.41C899.5,-706.44 899.5,-690.19 899.5,-676.43"/>
<polygon fill="black" stroke="black" points="903,-676.05 899.5,-666.05 896,-676.05 903,-676.05"/>
</g>
<!-- ExclusiveG\nateway_0ft\n5nk1 -->
<g id="node3" class="node">
<title>ExclusiveG\nateway_0ft\n5nk1</title>
<polygon fill="lightgrey" stroke="black" points="1027.5,-130.49 864.62,-112.49 1027.5,-94.49 1190.38,-112.49 1027.5,-130.49"/>
<text text-anchor="middle" x="1027.5" y="-108.79" font-family="Times New Roman,serif" font-size="14.00">Inclusives_Gateway_/_JOIN</text>
</g>
<!-- EndEvent_1\nuzmltn -->
<g id="node7" class="node">
<title>EndEvent_1\nuzmltn</title>
<ellipse fill="lightgrey" stroke="black" cx="1027.5" cy="-29.25" rx="29.5" ry="29.5"/>
<text text-anchor="middle" x="1027.5" y="-25.55" font-family="Times New Roman,serif" font-size="14.00">Ende</text>
</g>
<!-- ExclusiveG\nateway_0ft\n5nk1&#45;&gt;EndEvent_1\nuzmltn -->
<g id="edge4" class="edge">
<title>ExclusiveG\nateway_0ft\n5nk1&#45;&gt;EndEvent_1\nuzmltn</title>
<path fill="none" stroke="black" d="M1027.5,-94.26C1027.5,-86.83 1027.5,-77.81 1027.5,-68.92"/>
<polygon fill="black" stroke="black" points="1031,-68.64 1027.5,-58.64 1024,-68.64 1031,-68.64"/>
</g>
<!-- ExclusiveG\nateway_0ld\n1eb8 -->
<g id="node4" class="node">
<title>ExclusiveG\nateway_0ld\n1eb8</title>
<polygon fill="lightgrey" stroke="black" points="932.5,-202.49 769.62,-184.49 932.5,-166.49 1095.38,-184.49 932.5,-202.49"/>
<text text-anchor="middle" x="932.5" y="-180.79" font-family="Times New Roman,serif" font-size="14.00">Inclusives_Gateway_/_JOIN</text>
</g>
<!-- ExclusiveG\nateway_0ld\n1eb8&#45;&gt;ExclusiveG\nateway_0ft\n5nk1 -->
<g id="edge5" class="edge">
<title>ExclusiveG\nateway_0ld\n1eb8&#45;&gt;ExclusiveG\nateway_0ft\n5nk1</title>
<path fill="none" stroke="black" d="M952.65,-168.65C966.12,-158.72 984.06,-145.51 998.99,-134.5"/>
<polygon fill="black" stroke="black" points="1001.41,-137.07 1007.38,-128.32 997.26,-131.43 1001.41,-137.07"/>
</g>
<!-- Task_0x7v8\niu -->
<g id="node11" class="node">
<title>Task_0x7v8\niu</title>
<polygon fill="lightgrey" stroke="black" points="611.5,-508.99 611.5,-576.99 895.5,-576.99 895.5,-508.99 611.5,-508.99"/>
<text text-anchor="middle" x="654.5" y="-546.79" font-family="Times New Roman,serif" font-size="14.00">Task_0x7v8</text>
<text text-anchor="middle" x="654.5" y="-531.79" font-family="Times New Roman,serif" font-size="14.00">iu</text>
<polyline fill="none" stroke="black" points="697.5,-508.99 697.5,-576.99 "/>
<text text-anchor="middle" x="738.5" y="-561.79" font-family="Times New Roman,serif" font-size="14.00">Eingabeste</text>
<text text-anchor="middle" x="738.5" y="-546.79" font-family="Times New Roman,serif" font-size="14.00">llen_Einze</text>
<text text-anchor="middle" x="738.5" y="-531.79" font-family="Times New Roman,serif" font-size="14.00">lgepäck:La</text>
<text text-anchor="middle" x="738.5" y="-516.79" font-family="Times New Roman,serif" font-size="14.00">ne_0r72c8u</text>
<polyline fill="none" stroke="black" points="779.5,-508.99 779.5,-576.99 "/>
<text text-anchor="middle" x="837.5" y="-539.29" font-family="Times New Roman,serif" font-size="14.00">Gepäck_bewegen</text>
</g>
<!-- ExclusiveG\nateway_1wh\njhh1&#45;&gt;Task_0x7v8\niu -->
<g id="edge7" class="edge">
<title>ExclusiveG\nateway_1wh\njhh1&#45;&gt;Task_0x7v8\niu</title>
<path fill="none" stroke="black" d="M877.33,-631.35C859.13,-618.51 832.57,-599.78 808.71,-582.94"/>
<polygon fill="black" stroke="black" points="810.59,-579.99 800.4,-577.08 806.55,-585.71 810.59,-579.99"/>
</g>
<!-- Task_0xrer\nsr_Task_0t\nad1xn -->
<g id="node15" class="node">
<title>Task_0xrer\nsr_Task_0t\nad1xn</title>
<polygon fill="none" stroke="black" stroke-dasharray="5,2" points="914,-508.99 914,-576.99 1207,-576.99 1207,-508.99 914,-508.99"/>
<text text-anchor="middle" x="954" y="-554.29" font-family="Times New Roman,serif" font-size="14.00">Task_0xrer</text>
<text text-anchor="middle" x="954" y="-539.29" font-family="Times New Roman,serif" font-size="14.00">sr_Task_0t</text>
<text text-anchor="middle" x="954" y="-524.29" font-family="Times New Roman,serif" font-size="14.00">ad1xn</text>
<polyline fill="none" stroke="black" stroke-dasharray="5,2" points="994,-508.99 994,-576.99 "/>
<text text-anchor="middle" x="1035" y="-561.79" font-family="Times New Roman,serif" font-size="14.00">Eingabeste</text>
<text text-anchor="middle" x="1035" y="-546.79" font-family="Times New Roman,serif" font-size="14.00">llen_Einze</text>
<text text-anchor="middle" x="1035" y="-531.79" font-family="Times New Roman,serif" font-size="14.00">lgepäck:La</text>
<text text-anchor="middle" x="1035" y="-516.79" font-family="Times New Roman,serif" font-size="14.00">ne_0r72c8u</text>
<polyline fill="none" stroke="black" stroke-dasharray="5,2" points="1076,-508.99 1076,-576.99 "/>
<text text-anchor="middle" x="1141.5" y="-561.79" font-family="Times New Roman,serif" font-size="14.00">sequential execution:</text>
<text text-anchor="middle" x="1141.5" y="-546.79" font-family="Times New Roman,serif" font-size="14.00">Gepäck_bewegen</text>
<text text-anchor="middle" x="1141.5" y="-531.79" font-family="Times New Roman,serif" font-size="14.00">Gepäck_bewegen</text>
<text text-anchor="middle" x="1141.5" y="-516.79" font-family="Times New Roman,serif" font-size="14.00">Gepäck_bewegen</text>
</g>
<!-- ExclusiveG\nateway_1wh\njhh1&#45;&gt;Task_0xrer\nsr_Task_0t\nad1xn -->
<g id="edge6" class="edge">
<title>ExclusiveG\nateway_1wh\njhh1&#45;&gt;Task_0xrer\nsr_Task_0t\nad1xn</title>
<path fill="none" stroke="black" d="M923.95,-631.35C944.19,-618.4 973.82,-599.45 1000.31,-582.5"/>
<polygon fill="black" stroke="black" points="1002.24,-585.42 1008.78,-577.08 998.47,-579.52 1002.24,-585.42"/>
</g>
<!-- Task_0cy50\n05_Task_1j\nplv4o -->
<g id="node6" class="node">
<title>Task_0cy50\n05_Task_1j\nplv4o</title>
<polygon fill="none" stroke="black" stroke-dasharray="5,2" points="1058,-238.99 1058,-321.99 1357,-321.99 1357,-238.99 1058,-238.99"/>
<text text-anchor="middle" x="1101" y="-291.79" font-family="Times New Roman,serif" font-size="14.00">Task_0cy50</text>
<text text-anchor="middle" x="1101" y="-276.79" font-family="Times New Roman,serif" font-size="14.00">05_Task_1j</text>
<text text-anchor="middle" x="1101" y="-261.79" font-family="Times New Roman,serif" font-size="14.00">plv4o</text>
<polyline fill="none" stroke="black" stroke-dasharray="5,2" points="1144,-238.99 1144,-321.99 "/>
<text text-anchor="middle" x="1185" y="-306.79" font-family="Times New Roman,serif" font-size="14.00">Eingabeste</text>
<text text-anchor="middle" x="1185" y="-291.79" font-family="Times New Roman,serif" font-size="14.00">llen_Conta</text>
<text text-anchor="middle" x="1185" y="-276.79" font-family="Times New Roman,serif" font-size="14.00">inergepäck</text>
<text text-anchor="middle" x="1185" y="-261.79" font-family="Times New Roman,serif" font-size="14.00">:Lane_03dc</text>
<text text-anchor="middle" x="1185" y="-246.79" font-family="Times New Roman,serif" font-size="14.00">oe7</text>
<polyline fill="none" stroke="black" stroke-dasharray="5,2" points="1226,-238.99 1226,-321.99 "/>
<text text-anchor="middle" x="1291.5" y="-299.29" font-family="Times New Roman,serif" font-size="14.00">sequential execution:</text>
<text text-anchor="middle" x="1291.5" y="-284.29" font-family="Times New Roman,serif" font-size="14.00">Gepäck_bewegen</text>
<text text-anchor="middle" x="1291.5" y="-269.29" font-family="Times New Roman,serif" font-size="14.00">Gepäck_bewegen</text>
<text text-anchor="middle" x="1291.5" y="-254.29" font-family="Times New Roman,serif" font-size="14.00">Gepäck_bewegen</text>
</g>
<!-- Task_0cy50\n05_Task_1j\nplv4o&#45;&gt;ExclusiveG\nateway_0ft\n5nk1 -->
<g id="edge8" class="edge">
<title>Task_0cy50\n05_Task_1j\nplv4o&#45;&gt;ExclusiveG\nateway_0ft\n5nk1</title>
<path fill="none" stroke="black" d="M1174.52,-238.95C1155.25,-216.42 1129.81,-188.57 1104.5,-166.49 1090.73,-154.48 1074.17,-142.78 1059.94,-133.44"/>
<polygon fill="black" stroke="black" points="1061.73,-130.43 1051.43,-127.95 1057.94,-136.31 1061.73,-130.43"/>
</g>
<!-- Task_1k2uq\nsn_Task_05\njdclg -->
<g id="node8" class="node">
<title>Task_1k2uq\nsn_Task_05\njdclg</title>
<polygon fill="none" stroke="black" stroke-dasharray="5,2" points="0,-358.99 0,-471.99 315,-471.99 315,-358.99 0,-358.99"/>
<text text-anchor="middle" x="43" y="-426.79" font-family="Times New Roman,serif" font-size="14.00">Task_1k2uq</text>
<text text-anchor="middle" x="43" y="-411.79" font-family="Times New Roman,serif" font-size="14.00">sn_Task_05</text>
<text text-anchor="middle" x="43" y="-396.79" font-family="Times New Roman,serif" font-size="14.00">jdclg</text>
<polyline fill="none" stroke="black" stroke-dasharray="5,2" points="86,-358.99 86,-471.99 "/>
<text text-anchor="middle" x="131" y="-456.79" font-family="Times New Roman,serif" font-size="14.00">Eingabeste</text>
<text text-anchor="middle" x="131" y="-441.79" font-family="Times New Roman,serif" font-size="14.00">llen_Einze</text>
<text text-anchor="middle" x="131" y="-426.79" font-family="Times New Roman,serif" font-size="14.00">lgepäck:La</text>
<text text-anchor="middle" x="131" y="-411.79" font-family="Times New Roman,serif" font-size="14.00">ne_0r72c8u</text>
<text text-anchor="middle" x="131" y="-396.79" font-family="Times New Roman,serif" font-size="14.00">&amp;Gepäckaus</text>
<text text-anchor="middle" x="131" y="-381.79" font-family="Times New Roman,serif" font-size="14.00">gabe:Lane_</text>
<text text-anchor="middle" x="131" y="-366.79" font-family="Times New Roman,serif" font-size="14.00">07yqt38</text>
<polyline fill="none" stroke="black" stroke-dasharray="5,2" points="176,-358.99 176,-471.99 "/>
<text text-anchor="middle" x="245.5" y="-441.79" font-family="Times New Roman,serif" font-size="14.00">sequential execution:</text>
<text text-anchor="middle" x="245.5" y="-426.79" font-family="Times New Roman,serif" font-size="14.00">Gepäck_bewegen</text>
<text text-anchor="middle" x="245.5" y="-411.79" font-family="Times New Roman,serif" font-size="14.00">Gepäck_bewegen</text>
<text text-anchor="middle" x="245.5" y="-396.79" font-family="Times New Roman,serif" font-size="14.00">Gepäck_bewegen</text>
<text text-anchor="middle" x="245.5" y="-381.79" font-family="Times New Roman,serif" font-size="14.00">Gegenstand_bewegen</text>
</g>
<!-- ExclusiveG\nateway_1x8\n0y2a -->
<g id="node13" class="node">
<title>ExclusiveG\nateway_1x8\n0y2a</title>
<polygon fill="lightgrey" stroke="black" points="486.5,-298.49 277.7,-280.49 486.5,-262.49 695.3,-280.49 486.5,-298.49"/>
<text text-anchor="middle" x="486.5" y="-276.79" font-family="Times New Roman,serif" font-size="14.00">Sonder&#45;_oder_Sperrgepäck?_/_JOIN</text>
</g>
<!-- Task_1k2uq\nsn_Task_05\njdclg&#45;&gt;ExclusiveG\nateway_1x8\n0y2a -->
<g id="edge9" class="edge">
<title>Task_1k2uq\nsn_Task_05\njdclg&#45;&gt;ExclusiveG\nateway_1x8\n0y2a</title>
<path fill="none" stroke="black" d="M295.12,-358.86C347.81,-337.56 404.29,-314.73 442.13,-299.43"/>
<polygon fill="black" stroke="black" points="443.85,-302.51 451.81,-295.52 441.22,-296.02 443.85,-302.51"/>
</g>
<!-- ExclusiveG\nateway_0rs\nb2ak -->
<g id="node9" class="node">
<title>ExclusiveG\nateway_0rs\nb2ak</title>
<polygon fill="lightgrey" stroke="black" points="1054.5,-826.49 884.41,-808.49 1054.5,-790.49 1224.59,-808.49 1054.5,-826.49"/>
<text text-anchor="middle" x="1054.5" y="-804.79" font-family="Times New Roman,serif" font-size="14.00">Inclusives_Gateway_/_SPLIT</text>
</g>
<!-- ExclusiveG\nateway_0rs\nb2ak&#45;&gt;ExclusiveG\nateway_0y7\ny3jp -->
<g id="edge11" class="edge">
<title>ExclusiveG\nateway_0rs\nb2ak&#45;&gt;ExclusiveG\nateway_0y7\ny3jp</title>
<path fill="none" stroke="black" d="M1023.88,-793.67C999.68,-782.74 965.7,-767.39 939.38,-755.51"/>
<polygon fill="black" stroke="black" points="940.61,-752.22 930.06,-751.3 937.73,-758.6 940.61,-752.22"/>
</g>
<!-- ExclusiveG\nateway_0rs\nb2ak&#45;&gt;Task_0cy50\n05_Task_1j\nplv4o -->
<g id="edge10" class="edge">
<title>ExclusiveG\nateway_0rs\nb2ak&#45;&gt;Task_0cy50\n05_Task_1j\nplv4o</title>
<path fill="none" stroke="black" d="M1091.56,-794.3C1144.52,-772.79 1235.5,-724.81 1235.5,-648.99 1235.5,-648.99 1235.5,-648.99 1235.5,-541.99 1235.5,-468.86 1224.46,-384.84 1216.24,-332.45"/>
<polygon fill="black" stroke="black" points="1219.67,-331.73 1214.64,-322.41 1212.76,-332.83 1219.67,-331.73"/>
</g>
<!-- Task_1al79\n7x_Task_05\njdclg -->
<g id="node10" class="node">
<title>Task_1al79\n7x_Task_05\njdclg</title>
<polygon fill="none" stroke="black" stroke-dasharray="5,2" points="333,-358.99 333,-471.99 640,-471.99 640,-358.99 333,-358.99"/>
<text text-anchor="middle" x="376" y="-426.79" font-family="Times New Roman,serif" font-size="14.00">Task_1al79</text>
<text text-anchor="middle" x="376" y="-411.79" font-family="Times New Roman,serif" font-size="14.00">7x_Task_05</text>
<text text-anchor="middle" x="376" y="-396.79" font-family="Times New Roman,serif" font-size="14.00">jdclg</text>
<polyline fill="none" stroke="black" stroke-dasharray="5,2" points="419,-358.99 419,-471.99 "/>
<text text-anchor="middle" x="464" y="-456.79" font-family="Times New Roman,serif" font-size="14.00">Eingabeste</text>
<text text-anchor="middle" x="464" y="-441.79" font-family="Times New Roman,serif" font-size="14.00">llen_Einze</text>
<text text-anchor="middle" x="464" y="-426.79" font-family="Times New Roman,serif" font-size="14.00">lgepäck:La</text>
<text text-anchor="middle" x="464" y="-411.79" font-family="Times New Roman,serif" font-size="14.00">ne_0r72c8u</text>
<text text-anchor="middle" x="464" y="-396.79" font-family="Times New Roman,serif" font-size="14.00">&amp;Gepäckaus</text>
<text text-anchor="middle" x="464" y="-381.79" font-family="Times New Roman,serif" font-size="14.00">gabe:Lane_</text>
<text text-anchor="middle" x="464" y="-366.79" font-family="Times New Roman,serif" font-size="14.00">07yqt38</text>
<polyline fill="none" stroke="black" stroke-dasharray="5,2" points="509,-358.99 509,-471.99 "/>
<text text-anchor="middle" x="574.5" y="-434.29" font-family="Times New Roman,serif" font-size="14.00">sequential execution:</text>
<text text-anchor="middle" x="574.5" y="-419.29" font-family="Times New Roman,serif" font-size="14.00">Gepäck_bewegen</text>
<text text-anchor="middle" x="574.5" y="-404.29" font-family="Times New Roman,serif" font-size="14.00">Gepäck_bewegen</text>
<text text-anchor="middle" x="574.5" y="-389.29" font-family="Times New Roman,serif" font-size="14.00">Gepäck_bewegen</text>
</g>
<!-- Task_1al79\n7x_Task_05\njdclg&#45;&gt;ExclusiveG\nateway_1x8\n0y2a -->
<g id="edge12" class="edge">
<title>Task_1al79\n7x_Task_05\njdclg&#45;&gt;ExclusiveG\nateway_1x8\n0y2a</title>
<path fill="none" stroke="black" d="M486.5,-358.86C486.5,-341.62 486.5,-323.37 486.5,-308.93"/>
<polygon fill="black" stroke="black" points="490,-308.71 486.5,-298.71 483,-308.71 490,-308.71"/>
</g>
<!-- ExclusiveG\nateway_04u\n7wje -->
<g id="node16" class="node">
<title>ExclusiveG\nateway_04u\n7wje</title>
<polygon fill="lightgrey" stroke="black" points="932.5,-433.49 657.84,-415.49 932.5,-397.49 1207.16,-415.49 932.5,-433.49"/>
<text text-anchor="middle" x="932.5" y="-411.79" font-family="Times New Roman,serif" font-size="14.00">Sonder&#45;_oder_Last&#45;Minute&#45;Sperrgepäck?_/_JOIN</text>
</g>
<!-- Task_0x7v8\niu&#45;&gt;ExclusiveG\nateway_04u\n7wje -->
<g id="edge13" class="edge">
<title>Task_0x7v8\niu&#45;&gt;ExclusiveG\nateway_04u\n7wje</title>
<path fill="none" stroke="black" d="M801,-508.69C832.77,-486.41 873.69,-457.73 901.38,-438.32"/>
<polygon fill="black" stroke="black" points="903.69,-440.97 909.87,-432.36 899.67,-435.23 903.69,-440.97"/>
</g>
<!-- StartEvent\n_13 -->
<g id="node12" class="node">
<title>StartEvent\n_13</title>
<ellipse fill="lightgrey" stroke="black" cx="1054.5" cy="-890.44" rx="27.9" ry="27.9"/>
<text text-anchor="middle" x="1054.5" y="-886.74" font-family="Times New Roman,serif" font-size="14.00">Start</text>
</g>
<!-- StartEvent\n_13&#45;&gt;ExclusiveG\nateway_0rs\nb2ak -->
<g id="edge14" class="edge">
<title>StartEvent\n_13&#45;&gt;ExclusiveG\nateway_0rs\nb2ak</title>
<path fill="none" stroke="black" d="M1054.5,-862.38C1054.5,-854.19 1054.5,-845.19 1054.5,-836.97"/>
<polygon fill="black" stroke="black" points="1058,-836.76 1054.5,-826.76 1051,-836.76 1058,-836.76"/>
</g>
<!-- ExclusiveG\nateway_1x8\n0y2a&#45;&gt;ExclusiveG\nateway_0ld\n1eb8 -->
<g id="edge15" class="edge">
<title>ExclusiveG\nateway_1x8\n0y2a&#45;&gt;ExclusiveG\nateway_0ld\n1eb8</title>
<path fill="none" stroke="black" d="M543.89,-267.4C627.63,-249.75 782.73,-217.06 869.51,-198.77"/>
<polygon fill="black" stroke="black" points="870.43,-202.15 879.49,-196.67 868.99,-195.3 870.43,-202.15"/>
</g>
<!-- ExclusiveG\nateway_1o8\nzrql&#45;&gt;Task_1k2uq\nsn_Task_05\njdclg -->
<g id="edge17" class="edge">
<title>ExclusiveG\nateway_1o8\nzrql&#45;&gt;Task_1k2uq\nsn_Task_05\njdclg</title>
<path fill="none" stroke="black" d="M350.52,-527.11C328.57,-514.53 295.61,-495.64 263.1,-477.01"/>
<polygon fill="black" stroke="black" points="264.82,-473.96 254.41,-472.03 261.34,-480.04 264.82,-473.96"/>
</g>
<!-- ExclusiveG\nateway_1o8\nzrql&#45;&gt;Task_1al79\n7x_Task_05\njdclg -->
<g id="edge16" class="edge">
<title>ExclusiveG\nateway_1o8\nzrql&#45;&gt;Task_1al79\n7x_Task_05\njdclg</title>
<path fill="none" stroke="black" d="M390.43,-526.1C400.86,-514.2 415.86,-497.09 430.92,-479.9"/>
<polygon fill="black" stroke="black" points="433.87,-481.85 437.83,-472.02 428.61,-477.23 433.87,-481.85"/>
</g>
<!-- Task_0xrer\nsr_Task_0t\nad1xn&#45;&gt;ExclusiveG\nateway_04u\n7wje -->
<g id="edge18" class="edge">
<title>Task_0xrer\nsr_Task_0t\nad1xn&#45;&gt;ExclusiveG\nateway_04u\n7wje</title>
<path fill="none" stroke="black" d="M1026.53,-508.69C1004.43,-487.02 976.16,-459.3 956.41,-439.93"/>
<polygon fill="black" stroke="black" points="958.62,-437.2 949.03,-432.7 953.72,-442.2 958.62,-437.2"/>
</g>
<!-- ExclusiveG\nateway_04u\n7wje&#45;&gt;ExclusiveG\nateway_0ld\n1eb8 -->
<g id="edge19" class="edge">
<title>ExclusiveG\nateway_04u\n7wje&#45;&gt;ExclusiveG\nateway_0ld\n1eb8</title>
<path fill="none" stroke="black" d="M932.5,-397.28C932.5,-357.81 932.5,-260.53 932.5,-212.8"/>
<polygon fill="black" stroke="black" points="936,-212.59 932.5,-202.59 929,-212.59 936,-212.59"/>
</g>
</g>
</svg>
