<svg width="600px" height="980px"
 viewBox="0.00 0.00 432.50 707.39" xmlns="http://www.w3.org/2000/svg" xmlns:xlink="http://www.w3.org/1999/xlink">
<g id="graph0" class="graph" transform="scale(1.0 1.0) rotate(0) translate(4 703.39)">
<title>15_Passagierabfertigung_am_CheckIn&#45;Automaten_inklusive_Gep채ckaufgabe</title>
<polygon fill="white" stroke="transparent" points="-4,4 -4,-703.39 428.5,-703.39 428.5,4 -4,4"/>
<!-- EndEvent_1\nbr9845 -->
<g id="node1" class="node">
<title>EndEvent_1\nbr9845</title>
<ellipse fill="lightgrey" stroke="black" cx="250.5" cy="-29.25" rx="29.5" ry="29.5"/>
<text text-anchor="middle" x="250.5" y="-25.55" font-family="Times New Roman,serif" font-size="14.00">Ende</text>
</g>
<!-- Task_1x558\nhw_Task_1a\nbsjxn -->
<g id="node2" class="node">
<title>Task_1x558\nhw_Task_1a\nbsjxn</title>
<polygon fill="none" stroke="black" stroke-dasharray="5,2" points="76.5,-508.99 76.5,-606.99 424.5,-606.99 424.5,-508.99 76.5,-508.99"/>
<text text-anchor="middle" x="121" y="-569.29" font-family="Times New Roman,serif" font-size="14.00">Task_1x558</text>
<text text-anchor="middle" x="121" y="-554.29" font-family="Times New Roman,serif" font-size="14.00">hw_Task_1a</text>
<text text-anchor="middle" x="121" y="-539.29" font-family="Times New Roman,serif" font-size="14.00">bsjxn</text>
<polyline fill="none" stroke="black" stroke-dasharray="5,2" points="165.5,-508.99 165.5,-606.99 "/>
<text text-anchor="middle" x="210" y="-591.79" font-family="Times New Roman,serif" font-size="14.00">Check&#45;In&#45;A</text>
<text text-anchor="middle" x="210" y="-576.79" font-family="Times New Roman,serif" font-size="14.00">utomat:Lan</text>
<text text-anchor="middle" x="210" y="-561.79" font-family="Times New Roman,serif" font-size="14.00">e_06gwcht&amp;</text>
<text text-anchor="middle" x="210" y="-546.79" font-family="Times New Roman,serif" font-size="14.00">Passagier:</text>
<text text-anchor="middle" x="210" y="-531.79" font-family="Times New Roman,serif" font-size="14.00">Lane_1xv2r</text>
<text text-anchor="middle" x="210" y="-516.79" font-family="Times New Roman,serif" font-size="14.00">s5</text>
<polyline fill="none" stroke="black" stroke-dasharray="5,2" points="254.5,-508.99 254.5,-606.99 "/>
<text text-anchor="middle" x="339.5" y="-591.79" font-family="Times New Roman,serif" font-size="14.00">sequential execution:</text>
<text text-anchor="middle" x="339.5" y="-576.79" font-family="Times New Roman,serif" font-size="14.00">Person_bewegen</text>
<text text-anchor="middle" x="339.5" y="-561.79" font-family="Times New Roman,serif" font-size="14.00">Flughafenbereich_erreichen</text>
<text text-anchor="middle" x="339.5" y="-546.79" font-family="Times New Roman,serif" font-size="14.00">Kontrollieren</text>
<text text-anchor="middle" x="339.5" y="-531.79" font-family="Times New Roman,serif" font-size="14.00">Sonstige_Tasks</text>
<text text-anchor="middle" x="339.5" y="-516.79" font-family="Times New Roman,serif" font-size="14.00">Dokument_bearbeiten</text>
</g>
<!-- ExclusiveG\nateway_0sq\nl7wk -->
<g id="node4" class="node">
<title>ExclusiveG\nateway_0sq\nl7wk</title>
<polygon fill="lightgrey" stroke="black" points="250.5,-472.49 76.56,-454.49 250.5,-436.49 424.44,-454.49 250.5,-472.49"/>
<text text-anchor="middle" x="250.5" y="-450.79" font-family="Times New Roman,serif" font-size="14.00">Gep채ck_vorhanden?_/_SPLIT</text>
</g>
<!-- Task_1x558\nhw_Task_1a\nbsjxn&#45;&gt;ExclusiveG\nateway_0sq\nl7wk -->
<g id="edge1" class="edge">
<title>Task_1x558\nhw_Task_1a\nbsjxn&#45;&gt;ExclusiveG\nateway_0sq\nl7wk</title>
<path fill="none" stroke="black" d="M250.5,-508.92C250.5,-500.04 250.5,-491.06 250.5,-483.05"/>
<polygon fill="black" stroke="black" points="254,-482.84 250.5,-472.84 247,-482.84 254,-482.84"/>
</g>
<!-- Task_1qtdv\nq3_Task_07\nodh8j -->
<g id="node3" class="node">
<title>Task_1qtdv\nq3_Task_07\nodh8j</title>
<polygon fill="none" stroke="black" stroke-dasharray="5,2" points="100,-94.99 100,-192.99 401,-192.99 401,-94.99 100,-94.99"/>
<text text-anchor="middle" x="143.5" y="-155.29" font-family="Times New Roman,serif" font-size="14.00">Task_1qtdv</text>
<text text-anchor="middle" x="143.5" y="-140.29" font-family="Times New Roman,serif" font-size="14.00">q3_Task_07</text>
<text text-anchor="middle" x="143.5" y="-125.29" font-family="Times New Roman,serif" font-size="14.00">odh8j</text>
<polyline fill="none" stroke="black" stroke-dasharray="5,2" points="187,-94.99 187,-192.99 "/>
<text text-anchor="middle" x="228.5" y="-177.79" font-family="Times New Roman,serif" font-size="14.00">Sicherheit</text>
<text text-anchor="middle" x="228.5" y="-162.79" font-family="Times New Roman,serif" font-size="14.00">sbereich:L</text>
<text text-anchor="middle" x="228.5" y="-147.79" font-family="Times New Roman,serif" font-size="14.00">ane_14akxu</text>
<text text-anchor="middle" x="228.5" y="-132.79" font-family="Times New Roman,serif" font-size="14.00">8&amp;Passagie</text>
<text text-anchor="middle" x="228.5" y="-117.79" font-family="Times New Roman,serif" font-size="14.00">r:Lane_1xv</text>
<text text-anchor="middle" x="228.5" y="-102.79" font-family="Times New Roman,serif" font-size="14.00">2rs5</text>
<polyline fill="none" stroke="black" stroke-dasharray="5,2" points="270,-94.99 270,-192.99 "/>
<text text-anchor="middle" x="335.5" y="-155.29" font-family="Times New Roman,serif" font-size="14.00">sequential execution:</text>
<text text-anchor="middle" x="335.5" y="-140.29" font-family="Times New Roman,serif" font-size="14.00">Person_bewegen</text>
<text text-anchor="middle" x="335.5" y="-125.29" font-family="Times New Roman,serif" font-size="14.00">Person_bewegen</text>
</g>
<!-- Task_1qtdv\nq3_Task_07\nodh8j&#45;&gt;EndEvent_1\nbr9845 -->
<g id="edge2" class="edge">
<title>Task_1qtdv\nq3_Task_07\nodh8j&#45;&gt;EndEvent_1\nbr9845</title>
<path fill="none" stroke="black" d="M250.5,-94.85C250.5,-86.18 250.5,-77.25 250.5,-68.89"/>
<polygon fill="black" stroke="black" points="254,-68.68 250.5,-58.68 247,-68.68 254,-68.68"/>
</g>
<!-- Task_1s4pl\nxv_Task_0b\n5g30w -->
<g id="node5" class="node">
<title>Task_1s4pl\nxv_Task_0b\n5g30w</title>
<polygon fill="none" stroke="black" stroke-dasharray="5,2" points="0,-301.99 0,-399.99 315,-399.99 315,-301.99 0,-301.99"/>
<text text-anchor="middle" x="43.5" y="-362.29" font-family="Times New Roman,serif" font-size="14.00">Task_1s4pl</text>
<text text-anchor="middle" x="43.5" y="-347.29" font-family="Times New Roman,serif" font-size="14.00">xv_Task_0b</text>
<text text-anchor="middle" x="43.5" y="-332.29" font-family="Times New Roman,serif" font-size="14.00">5g30w</text>
<polyline fill="none" stroke="black" stroke-dasharray="5,2" points="87,-301.99 87,-399.99 "/>
<text text-anchor="middle" x="131.5" y="-384.79" font-family="Times New Roman,serif" font-size="14.00">Check&#45;In&#45;A</text>
<text text-anchor="middle" x="131.5" y="-369.79" font-family="Times New Roman,serif" font-size="14.00">utomat:Lan</text>
<text text-anchor="middle" x="131.5" y="-354.79" font-family="Times New Roman,serif" font-size="14.00">e_06gwcht&amp;</text>
<text text-anchor="middle" x="131.5" y="-339.79" font-family="Times New Roman,serif" font-size="14.00">Passagier:</text>
<text text-anchor="middle" x="131.5" y="-324.79" font-family="Times New Roman,serif" font-size="14.00">Lane_1xv2r</text>
<text text-anchor="middle" x="131.5" y="-309.79" font-family="Times New Roman,serif" font-size="14.00">s5</text>
<polyline fill="none" stroke="black" stroke-dasharray="5,2" points="176,-301.99 176,-399.99 "/>
<text text-anchor="middle" x="245.5" y="-369.79" font-family="Times New Roman,serif" font-size="14.00">sequential execution:</text>
<text text-anchor="middle" x="245.5" y="-354.79" font-family="Times New Roman,serif" font-size="14.00">Dokument_bearbeiten</text>
<text text-anchor="middle" x="245.5" y="-339.79" font-family="Times New Roman,serif" font-size="14.00">Dokument_bearbeiten</text>
<text text-anchor="middle" x="245.5" y="-324.79" font-family="Times New Roman,serif" font-size="14.00">Gep채ck_bewegen</text>
</g>
<!-- ExclusiveG\nateway_0sq\nl7wk&#45;&gt;Task_1s4pl\nxv_Task_0b\n5g30w -->
<g id="edge3" class="edge">
<title>ExclusiveG\nateway_0sq\nl7wk&#45;&gt;Task_1s4pl\nxv_Task_0b\n5g30w</title>
<path fill="none" stroke="black" d="M235.97,-437.64C228.41,-429.39 218.68,-418.76 208.65,-407.82"/>
<polygon fill="black" stroke="black" points="211.02,-405.23 201.68,-400.22 205.86,-409.96 211.02,-405.23"/>
</g>
<!-- ExclusiveG\nateway_0xh\n26jt -->
<g id="node6" class="node">
<title>ExclusiveG\nateway_0xh\n26jt</title>
<polygon fill="lightgrey" stroke="black" points="250.5,-265.49 84.26,-247.49 250.5,-229.49 416.74,-247.49 250.5,-265.49"/>
<text text-anchor="middle" x="250.5" y="-243.79" font-family="Times New Roman,serif" font-size="14.00">Gep채ck_vorhanden?_/_JOIN</text>
</g>
<!-- ExclusiveG\nateway_0sq\nl7wk&#45;&gt;ExclusiveG\nateway_0xh\n26jt -->
<g id="edge4" class="edge">
<title>ExclusiveG\nateway_0sq\nl7wk&#45;&gt;ExclusiveG\nateway_0xh\n26jt</title>
<path fill="none" stroke="black" d="M282.09,-439.65C297.9,-430.9 315.54,-417.92 324.5,-400.49 344.61,-361.36 344.61,-340.63 324.5,-301.49 317.09,-287.08 303.75,-275.71 290.41,-267.26"/>
<polygon fill="black" stroke="black" points="292.1,-264.19 281.71,-262.12 288.54,-270.22 292.1,-264.19"/>
</g>
<!-- Task_1s4pl\nxv_Task_0b\n5g30w&#45;&gt;ExclusiveG\nateway_0xh\n26jt -->
<g id="edge5" class="edge">
<title>Task_1s4pl\nxv_Task_0b\n5g30w&#45;&gt;ExclusiveG\nateway_0xh\n26jt</title>
<path fill="none" stroke="black" d="M201.55,-301.92C211.28,-291.3 221.16,-280.52 229.46,-271.45"/>
<polygon fill="black" stroke="black" points="232.14,-273.71 236.32,-263.97 226.98,-268.98 232.14,-273.71"/>
</g>
<!-- ExclusiveG\nateway_0xh\n26jt&#45;&gt;Task_1qtdv\nq3_Task_07\nodh8j -->
<g id="edge6" class="edge">
<title>ExclusiveG\nateway_0xh\n26jt&#45;&gt;Task_1qtdv\nq3_Task_07\nodh8j</title>
<path fill="none" stroke="black" d="M250.5,-229.28C250.5,-221.97 250.5,-212.98 250.5,-203.62"/>
<polygon fill="black" stroke="black" points="254,-203.39 250.5,-193.39 247,-203.39 254,-203.39"/>
</g>
<!-- StartEvent\n_15 -->
<g id="node7" class="node">
<title>StartEvent\n_15</title>
<ellipse fill="lightgrey" stroke="black" cx="250.5" cy="-671.44" rx="27.9" ry="27.9"/>
<text text-anchor="middle" x="250.5" y="-667.74" font-family="Times New Roman,serif" font-size="14.00">Start</text>
</g>
<!-- StartEvent\n_15&#45;&gt;Task_1x558\nhw_Task_1a\nbsjxn -->
<g id="edge7" class="edge">
<title>StartEvent\n_15&#45;&gt;Task_1x558\nhw_Task_1a\nbsjxn</title>
<path fill="none" stroke="black" d="M250.5,-643.46C250.5,-635.51 250.5,-626.47 250.5,-617.35"/>
<polygon fill="black" stroke="black" points="254,-617.05 250.5,-607.05 247,-617.05 254,-617.05"/>
</g>
</g>
</svg>
