<svg width="600px" height="881px"
 viewBox="0.00 0.00 420.22 617.39" xmlns="http://www.w3.org/2000/svg" xmlns:xlink="http://www.w3.org/1999/xlink">
<g id="graph0" class="graph" transform="scale(1.0 1.0) rotate(0) translate(4 613.39)">
<title>18_Passagierabfertigung_Check&#45;In_am_Gate</title>
<polygon fill="white" stroke="transparent" points="-4,4 -4,-613.39 416.22,-613.39 416.22,4 -4,4"/>
<!-- EndEvent_0\n9ps9w4 -->
<g id="node1" class="node">
<title>EndEvent_0\n9ps9w4</title>
<ellipse fill="lightgrey" stroke="black" cx="238.5" cy="-29.25" rx="29.5" ry="29.5"/>
<text text-anchor="middle" x="238.5" y="-25.55" font-family="Times New Roman,serif" font-size="14.00">Ende</text>
</g>
<!-- Task_1k7ul\niy -->
<g id="node2" class="node">
<title>Task_1k7ul\niy</title>
<polygon fill="lightgrey" stroke="black" points="0,-256.99 0,-309.99 299,-309.99 299,-256.99 0,-256.99"/>
<text text-anchor="middle" x="41" y="-287.29" font-family="Times New Roman,serif" font-size="14.00">Task_1k7ul</text>
<text text-anchor="middle" x="41" y="-272.29" font-family="Times New Roman,serif" font-size="14.00">iy</text>
<polyline fill="none" stroke="black" points="82,-256.99 82,-309.99 "/>
<text text-anchor="middle" x="121" y="-294.79" font-family="Times New Roman,serif" font-size="14.00">Gate&#45;Schal</text>
<text text-anchor="middle" x="121" y="-279.79" font-family="Times New Roman,serif" font-size="14.00">ter:Lane_0</text>
<text text-anchor="middle" x="121" y="-264.79" font-family="Times New Roman,serif" font-size="14.00">hrm4ci</text>
<polyline fill="none" stroke="black" points="160,-256.99 160,-309.99 "/>
<text text-anchor="middle" x="229.5" y="-279.79" font-family="Times New Roman,serif" font-size="14.00">Gegenstand_bewegen</text>
</g>
<!-- ExclusiveG\nateway_0n7\n34tu -->
<g id="node7" class="node">
<title>ExclusiveG\nateway_0n7\n34tu</title>
<polygon fill="lightgrey" stroke="black" points="238.5,-220.49 72.26,-202.49 238.5,-184.49 404.74,-202.49 238.5,-220.49"/>
<text text-anchor="middle" x="238.5" y="-198.79" font-family="Times New Roman,serif" font-size="14.00">Gepäck_vorhanden?_/_JOIN</text>
</g>
<!-- Task_1k7ul\niy&#45;&gt;ExclusiveG\nateway_0n7\n34tu -->
<g id="edge1" class="edge">
<title>Task_1k7ul\niy&#45;&gt;ExclusiveG\nateway_0n7\n34tu</title>
<path fill="none" stroke="black" d="M178.64,-256.63C189.98,-246.56 202.84,-235.15 213.72,-225.49"/>
<polygon fill="black" stroke="black" points="216.1,-228.06 221.25,-218.81 211.45,-222.83 216.1,-228.06"/>
</g>
<!-- Task_1orkp\ncx -->
<g id="node3" class="node">
<title>Task_1orkp\ncx</title>
<polygon fill="lightgrey" stroke="black" points="101,-94.99 101,-147.99 376,-147.99 376,-94.99 101,-94.99"/>
<text text-anchor="middle" x="143.5" y="-125.29" font-family="Times New Roman,serif" font-size="14.00">Task_1orkp</text>
<text text-anchor="middle" x="143.5" y="-110.29" font-family="Times New Roman,serif" font-size="14.00">cx</text>
<polyline fill="none" stroke="black" points="186,-94.99 186,-147.99 "/>
<text text-anchor="middle" x="225" y="-132.79" font-family="Times New Roman,serif" font-size="14.00">Gate&#45;Schal</text>
<text text-anchor="middle" x="225" y="-117.79" font-family="Times New Roman,serif" font-size="14.00">ter:Lane_0</text>
<text text-anchor="middle" x="225" y="-102.79" font-family="Times New Roman,serif" font-size="14.00">hrm4ci</text>
<polyline fill="none" stroke="black" points="264,-94.99 264,-147.99 "/>
<text text-anchor="middle" x="320" y="-117.79" font-family="Times New Roman,serif" font-size="14.00">Person_bewegen</text>
</g>
<!-- Task_1orkp\ncx&#45;&gt;EndEvent_0\n9ps9w4 -->
<g id="edge2" class="edge">
<title>Task_1orkp\ncx&#45;&gt;EndEvent_0\n9ps9w4</title>
<path fill="none" stroke="black" d="M238.5,-94.87C238.5,-86.78 238.5,-77.66 238.5,-68.87"/>
<polygon fill="black" stroke="black" points="242,-68.79 238.5,-58.79 235,-68.79 242,-68.79"/>
</g>
<!-- StartEvent\n_18 -->
<g id="node4" class="node">
<title>StartEvent\n_18</title>
<ellipse fill="lightgrey" stroke="black" cx="238.5" cy="-581.44" rx="27.9" ry="27.9"/>
<text text-anchor="middle" x="238.5" y="-577.74" font-family="Times New Roman,serif" font-size="14.00">Start</text>
</g>
<!-- Task_17fw5\nj1_Task_1s\n7mx8m -->
<g id="node6" class="node">
<title>Task_17fw5\nj1_Task_1s\n7mx8m</title>
<polygon fill="none" stroke="black" stroke-dasharray="5,2" points="83,-418.99 83,-516.99 394,-516.99 394,-418.99 83,-418.99"/>
<text text-anchor="middle" x="126" y="-479.29" font-family="Times New Roman,serif" font-size="14.00">Task_17fw5</text>
<text text-anchor="middle" x="126" y="-464.29" font-family="Times New Roman,serif" font-size="14.00">j1_Task_1s</text>
<text text-anchor="middle" x="126" y="-449.29" font-family="Times New Roman,serif" font-size="14.00">7mx8m</text>
<polyline fill="none" stroke="black" stroke-dasharray="5,2" points="169,-418.99 169,-516.99 "/>
<text text-anchor="middle" x="212" y="-494.29" font-family="Times New Roman,serif" font-size="14.00">Gate&#45;Schal</text>
<text text-anchor="middle" x="212" y="-479.29" font-family="Times New Roman,serif" font-size="14.00">ter:Lane_0</text>
<text text-anchor="middle" x="212" y="-464.29" font-family="Times New Roman,serif" font-size="14.00">hrm4ci&amp;Pas</text>
<text text-anchor="middle" x="212" y="-449.29" font-family="Times New Roman,serif" font-size="14.00">sagier:Lan</text>
<text text-anchor="middle" x="212" y="-434.29" font-family="Times New Roman,serif" font-size="14.00">e_0qcj7a4</text>
<polyline fill="none" stroke="black" stroke-dasharray="5,2" points="255,-418.99 255,-516.99 "/>
<text text-anchor="middle" x="324.5" y="-501.79" font-family="Times New Roman,serif" font-size="14.00">sequential execution:</text>
<text text-anchor="middle" x="324.5" y="-486.79" font-family="Times New Roman,serif" font-size="14.00">Person_bewegen</text>
<text text-anchor="middle" x="324.5" y="-471.79" font-family="Times New Roman,serif" font-size="14.00">Person_bewegen</text>
<text text-anchor="middle" x="324.5" y="-456.79" font-family="Times New Roman,serif" font-size="14.00">Kontrollieren</text>
<text text-anchor="middle" x="324.5" y="-441.79" font-family="Times New Roman,serif" font-size="14.00">Sonstige_Tasks</text>
<text text-anchor="middle" x="324.5" y="-426.79" font-family="Times New Roman,serif" font-size="14.00">Dokument_bearbeiten</text>
</g>
<!-- StartEvent\n_18&#45;&gt;Task_17fw5\nj1_Task_1s\n7mx8m -->
<g id="edge3" class="edge">
<title>StartEvent\n_18&#45;&gt;Task_17fw5\nj1_Task_1s\n7mx8m</title>
<path fill="none" stroke="black" d="M238.5,-553.46C238.5,-545.51 238.5,-536.47 238.5,-527.35"/>
<polygon fill="black" stroke="black" points="242,-527.05 238.5,-517.05 235,-527.05 242,-527.05"/>
</g>
<!-- ExclusiveG\nateway_0z7\nfsoo -->
<g id="node5" class="node">
<title>ExclusiveG\nateway_0z7\nfsoo</title>
<polygon fill="lightgrey" stroke="black" points="238.5,-382.49 64.56,-364.49 238.5,-346.49 412.44,-364.49 238.5,-382.49"/>
<text text-anchor="middle" x="238.5" y="-360.79" font-family="Times New Roman,serif" font-size="14.00">Gepäck_vorhanden?_/_SPLIT</text>
</g>
<!-- ExclusiveG\nateway_0z7\nfsoo&#45;&gt;Task_1k7ul\niy -->
<g id="edge5" class="edge">
<title>ExclusiveG\nateway_0z7\nfsoo&#45;&gt;Task_1k7ul\niy</title>
<path fill="none" stroke="black" d="M221.34,-348.26C211.4,-339.44 198.48,-327.97 186.34,-317.2"/>
<polygon fill="black" stroke="black" points="188.32,-314.27 178.52,-310.25 183.67,-319.51 188.32,-314.27"/>
</g>
<!-- ExclusiveG\nateway_0z7\nfsoo&#45;&gt;ExclusiveG\nateway_0n7\n34tu -->
<g id="edge4" class="edge">
<title>ExclusiveG\nateway_0z7\nfsoo&#45;&gt;ExclusiveG\nateway_0n7\n34tu</title>
<path fill="none" stroke="black" d="M268.07,-349.47C283.13,-340.59 300.02,-327.56 308.5,-310.49 319.18,-289 319.18,-277.99 308.5,-256.49 301.61,-242.63 289.17,-231.43 276.66,-222.95"/>
<polygon fill="black" stroke="black" points="278.39,-219.9 268.07,-217.52 274.65,-225.82 278.39,-219.9"/>
</g>
<!-- Task_17fw5\nj1_Task_1s\n7mx8m&#45;&gt;ExclusiveG\nateway_0z7\nfsoo -->
<g id="edge6" class="edge">
<title>Task_17fw5\nj1_Task_1s\n7mx8m&#45;&gt;ExclusiveG\nateway_0z7\nfsoo</title>
<path fill="none" stroke="black" d="M238.5,-418.92C238.5,-410.04 238.5,-401.06 238.5,-393.05"/>
<polygon fill="black" stroke="black" points="242,-392.84 238.5,-382.84 235,-392.84 242,-392.84"/>
</g>
<!-- ExclusiveG\nateway_0n7\n34tu&#45;&gt;Task_1orkp\ncx -->
<g id="edge7" class="edge">
<title>ExclusiveG\nateway_0n7\n34tu&#45;&gt;Task_1orkp\ncx</title>
<path fill="none" stroke="black" d="M238.5,-184.35C238.5,-176.64 238.5,-167.23 238.5,-158.09"/>
<polygon fill="black" stroke="black" points="242,-158.01 238.5,-148.01 235,-158.01 242,-158.01"/>
</g>
</g>
</svg>
