<svg width="600px" height="922px"
 viewBox="0.00 0.00 421.00 647.39" xmlns="http://www.w3.org/2000/svg" xmlns:xlink="http://www.w3.org/1999/xlink">
<g id="graph0" class="graph" transform="scale(1.0 1.0) rotate(0) translate(4 643.39)">
<title>23_Passagierabfertigung_Transfer&#45;Check&#45;In</title>
<polygon fill="white" stroke="transparent" points="-4,4 -4,-643.39 417,-643.39 417,4 -4,4"/>
<!-- Task_1kkj8\n4m_Task_14\nkqaq9 -->
<g id="node1" class="node">
<title>Task_1kkj8\n4m_Task_14\nkqaq9</title>
<polygon fill="none" stroke="black" stroke-dasharray="5,2" points="0,-433.99 0,-546.99 348,-546.99 348,-433.99 0,-433.99"/>
<text text-anchor="middle" x="45" y="-501.79" font-family="Times New Roman,serif" font-size="14.00">Task_1kkj8</text>
<text text-anchor="middle" x="45" y="-486.79" font-family="Times New Roman,serif" font-size="14.00">4m_Task_14</text>
<text text-anchor="middle" x="45" y="-471.79" font-family="Times New Roman,serif" font-size="14.00">kqaq9</text>
<polyline fill="none" stroke="black" stroke-dasharray="5,2" points="90,-433.99 90,-546.99 "/>
<text text-anchor="middle" x="134" y="-531.79" font-family="Times New Roman,serif" font-size="14.00">Transfer&#45;C</text>
<text text-anchor="middle" x="134" y="-516.79" font-family="Times New Roman,serif" font-size="14.00">heck&#45;In&#45;Sc</text>
<text text-anchor="middle" x="134" y="-501.79" font-family="Times New Roman,serif" font-size="14.00">halter:Lan</text>
<text text-anchor="middle" x="134" y="-486.79" font-family="Times New Roman,serif" font-size="14.00">e_11ksowl&amp;</text>
<text text-anchor="middle" x="134" y="-471.79" font-family="Times New Roman,serif" font-size="14.00">Passagier:</text>
<text text-anchor="middle" x="134" y="-456.79" font-family="Times New Roman,serif" font-size="14.00">Lane_106yy</text>
<text text-anchor="middle" x="134" y="-441.79" font-family="Times New Roman,serif" font-size="14.00">q1</text>
<polyline fill="none" stroke="black" stroke-dasharray="5,2" points="178,-433.99 178,-546.99 "/>
<text text-anchor="middle" x="263" y="-524.29" font-family="Times New Roman,serif" font-size="14.00">sequential execution:</text>
<text text-anchor="middle" x="263" y="-509.29" font-family="Times New Roman,serif" font-size="14.00">Person_bewegen</text>
<text text-anchor="middle" x="263" y="-494.29" font-family="Times New Roman,serif" font-size="14.00">Flughafenbereich_erreichen</text>
<text text-anchor="middle" x="263" y="-479.29" font-family="Times New Roman,serif" font-size="14.00">Kontrollieren</text>
<text text-anchor="middle" x="263" y="-464.29" font-family="Times New Roman,serif" font-size="14.00">Sonstige_Tasks</text>
<text text-anchor="middle" x="263" y="-449.29" font-family="Times New Roman,serif" font-size="14.00">Dokument_bearbeiten</text>
</g>
<!-- ExclusiveG\nateway_1t1\noj2k -->
<g id="node5" class="node">
<title>ExclusiveG\nateway_1t1\noj2k</title>
<polygon fill="lightgrey" stroke="black" points="174,-397.49 0.06,-379.49 174,-361.49 347.94,-379.49 174,-397.49"/>
<text text-anchor="middle" x="174" y="-375.79" font-family="Times New Roman,serif" font-size="14.00">Gepäck_vorhanden?_/_SPLIT</text>
</g>
<!-- Task_1kkj8\n4m_Task_14\nkqaq9&#45;&gt;ExclusiveG\nateway_1t1\noj2k -->
<g id="edge1" class="edge">
<title>Task_1kkj8\n4m_Task_14\nkqaq9&#45;&gt;ExclusiveG\nateway_1t1\noj2k</title>
<path fill="none" stroke="black" d="M174,-433.72C174,-424.64 174,-415.62 174,-407.64"/>
<polygon fill="black" stroke="black" points="177.5,-407.52 174,-397.52 170.5,-407.52 177.5,-407.52"/>
</g>
<!-- ExclusiveG\nateway_0fp\nk3dn -->
<g id="node2" class="node">
<title>ExclusiveG\nateway_0fp\nk3dn</title>
<polygon fill="lightgrey" stroke="black" points="174,-220.49 7.76,-202.49 174,-184.49 340.24,-202.49 174,-220.49"/>
<text text-anchor="middle" x="174" y="-198.79" font-family="Times New Roman,serif" font-size="14.00">Gepäck_vorhanden?_/_JOIN</text>
</g>
<!-- Task_0azc7\n5j -->
<g id="node3" class="node">
<title>Task_0azc7\n5j</title>
<polygon fill="lightgrey" stroke="black" points="33.5,-94.99 33.5,-147.99 314.5,-147.99 314.5,-94.99 33.5,-94.99"/>
<text text-anchor="middle" x="75.5" y="-125.29" font-family="Times New Roman,serif" font-size="14.00">Task_0azc7</text>
<text text-anchor="middle" x="75.5" y="-110.29" font-family="Times New Roman,serif" font-size="14.00">5j</text>
<polyline fill="none" stroke="black" points="117.5,-94.99 117.5,-147.99 "/>
<text text-anchor="middle" x="160" y="-132.79" font-family="Times New Roman,serif" font-size="14.00">Passagier:</text>
<text text-anchor="middle" x="160" y="-117.79" font-family="Times New Roman,serif" font-size="14.00">Lane_106yy</text>
<text text-anchor="middle" x="160" y="-102.79" font-family="Times New Roman,serif" font-size="14.00">q1</text>
<polyline fill="none" stroke="black" points="202.5,-94.99 202.5,-147.99 "/>
<text text-anchor="middle" x="258.5" y="-117.79" font-family="Times New Roman,serif" font-size="14.00">Person_bewegen</text>
</g>
<!-- ExclusiveG\nateway_0fp\nk3dn&#45;&gt;Task_0azc7\n5j -->
<g id="edge2" class="edge">
<title>ExclusiveG\nateway_0fp\nk3dn&#45;&gt;Task_0azc7\n5j</title>
<path fill="none" stroke="black" d="M174,-184.35C174,-176.64 174,-167.23 174,-158.09"/>
<polygon fill="black" stroke="black" points="177.5,-158.01 174,-148.01 170.5,-158.01 177.5,-158.01"/>
</g>
<!-- EndEvent_0\n2iafj4 -->
<g id="node4" class="node">
<title>EndEvent_0\n2iafj4</title>
<ellipse fill="lightgrey" stroke="black" cx="174" cy="-29.25" rx="29.5" ry="29.5"/>
<text text-anchor="middle" x="174" y="-25.55" font-family="Times New Roman,serif" font-size="14.00">Ende</text>
</g>
<!-- Task_0azc7\n5j&#45;&gt;EndEvent_0\n2iafj4 -->
<g id="edge3" class="edge">
<title>Task_0azc7\n5j&#45;&gt;EndEvent_0\n2iafj4</title>
<path fill="none" stroke="black" d="M174,-94.87C174,-86.78 174,-77.66 174,-68.87"/>
<polygon fill="black" stroke="black" points="177.5,-68.79 174,-58.79 170.5,-68.79 177.5,-68.79"/>
</g>
<!-- ExclusiveG\nateway_1t1\noj2k&#45;&gt;ExclusiveG\nateway_0fp\nk3dn -->
<g id="edge5" class="edge">
<title>ExclusiveG\nateway_1t1\noj2k&#45;&gt;ExclusiveG\nateway_0fp\nk3dn</title>
<path fill="none" stroke="black" d="M144.43,-364.47C129.37,-355.59 112.48,-342.56 104,-325.49 90.35,-298.03 90.35,-283.96 104,-256.49 110.89,-242.63 123.33,-231.43 135.84,-222.95"/>
<polygon fill="black" stroke="black" points="137.85,-225.82 144.43,-217.52 134.11,-219.9 137.85,-225.82"/>
</g>
<!-- Task_0q17j\n2r -->
<g id="node6" class="node">
<title>Task_0q17j\n2r</title>
<polygon fill="lightgrey" stroke="black" points="113,-256.99 113,-324.99 413,-324.99 413,-256.99 113,-256.99"/>
<text text-anchor="middle" x="154.5" y="-294.79" font-family="Times New Roman,serif" font-size="14.00">Task_0q17j</text>
<text text-anchor="middle" x="154.5" y="-279.79" font-family="Times New Roman,serif" font-size="14.00">2r</text>
<polyline fill="none" stroke="black" points="196,-256.99 196,-324.99 "/>
<text text-anchor="middle" x="235" y="-309.79" font-family="Times New Roman,serif" font-size="14.00">Transfer&#45;C</text>
<text text-anchor="middle" x="235" y="-294.79" font-family="Times New Roman,serif" font-size="14.00">heck&#45;In&#45;Sc</text>
<text text-anchor="middle" x="235" y="-279.79" font-family="Times New Roman,serif" font-size="14.00">halter:Lan</text>
<text text-anchor="middle" x="235" y="-264.79" font-family="Times New Roman,serif" font-size="14.00">e_11ksowl</text>
<polyline fill="none" stroke="black" points="274,-256.99 274,-324.99 "/>
<text text-anchor="middle" x="343.5" y="-287.29" font-family="Times New Roman,serif" font-size="14.00">Gegenstand_bewegen</text>
</g>
<!-- ExclusiveG\nateway_1t1\noj2k&#45;&gt;Task_0q17j\n2r -->
<g id="edge4" class="edge">
<title>ExclusiveG\nateway_1t1\noj2k&#45;&gt;Task_0q17j\n2r</title>
<path fill="none" stroke="black" d="M189.91,-363.03C198.77,-354.42 210.25,-343.26 221.48,-332.35"/>
<polygon fill="black" stroke="black" points="224.06,-334.72 228.79,-325.24 219.18,-329.7 224.06,-334.72"/>
</g>
<!-- Task_0q17j\n2r&#45;&gt;ExclusiveG\nateway_0fp\nk3dn -->
<g id="edge6" class="edge">
<title>Task_0q17j\n2r&#45;&gt;ExclusiveG\nateway_0fp\nk3dn</title>
<path fill="none" stroke="black" d="M228.84,-256.8C218.32,-246.57 206.99,-235.55 197.37,-226.2"/>
<polygon fill="black" stroke="black" points="199.68,-223.57 190.07,-219.11 194.8,-228.59 199.68,-223.57"/>
</g>
<!-- StartEvent\n_23 -->
<g id="node7" class="node">
<title>StartEvent\n_23</title>
<ellipse fill="lightgrey" stroke="black" cx="174" cy="-611.44" rx="27.9" ry="27.9"/>
<text text-anchor="middle" x="174" y="-607.74" font-family="Times New Roman,serif" font-size="14.00">Start</text>
</g>
<!-- StartEvent\n_23&#45;&gt;Task_1kkj8\n4m_Task_14\nkqaq9 -->
<g id="edge7" class="edge">
<title>StartEvent\n_23&#45;&gt;Task_1kkj8\n4m_Task_14\nkqaq9</title>
<path fill="none" stroke="black" d="M174,-583.45C174,-575.5 174,-566.43 174,-557.15"/>
<polygon fill="black" stroke="black" points="177.5,-557.05 174,-547.05 170.5,-557.05 177.5,-557.05"/>
</g>
</g>
</svg>
