<svg width="600px" height="926px"
 viewBox="0.00 0.00 429.22 662.39" xmlns="http://www.w3.org/2000/svg" xmlns:xlink="http://www.w3.org/1999/xlink">
<g id="graph0" class="graph" transform="scale(1.0 1.0) rotate(0) translate(4 658.39)">
<title>28_Passagierabfertigung_Vorfahrt&#45;Check&#45;In</title>
<polygon fill="white" stroke="transparent" points="-4,4 -4,-658.39 425.22,-658.39 425.22,4 -4,4"/>
<!-- ExclusiveG\nateway_1mv\n1czk -->
<g id="node1" class="node">
<title>ExclusiveG\nateway_1mv\n1czk</title>
<polygon fill="lightgrey" stroke="black" points="247.5,-412.49 73.56,-394.49 247.5,-376.49 421.44,-394.49 247.5,-412.49"/>
<text text-anchor="middle" x="247.5" y="-390.79" font-family="Times New Roman,serif" font-size="14.00">Gep채ck_vorhanden?_/_SPLIT</text>
</g>
<!-- Task_1o58n\nbi_Task_05\nvn3q3 -->
<g id="node2" class="node">
<title>Task_1o58n\nbi_Task_05\nvn3q3</title>
<polygon fill="none" stroke="black" stroke-dasharray="5,2" points="0,-256.99 0,-339.99 311,-339.99 311,-256.99 0,-256.99"/>
<text text-anchor="middle" x="43" y="-309.79" font-family="Times New Roman,serif" font-size="14.00">Task_1o58n</text>
<text text-anchor="middle" x="43" y="-294.79" font-family="Times New Roman,serif" font-size="14.00">bi_Task_05</text>
<text text-anchor="middle" x="43" y="-279.79" font-family="Times New Roman,serif" font-size="14.00">vn3q3</text>
<polyline fill="none" stroke="black" stroke-dasharray="5,2" points="86,-256.99 86,-339.99 "/>
<text text-anchor="middle" x="129" y="-324.79" font-family="Times New Roman,serif" font-size="14.00">Fahrzeug_d</text>
<text text-anchor="middle" x="129" y="-309.79" font-family="Times New Roman,serif" font-size="14.00">er_Flugges</text>
<text text-anchor="middle" x="129" y="-294.79" font-family="Times New Roman,serif" font-size="14.00">ellschaft:</text>
<text text-anchor="middle" x="129" y="-279.79" font-family="Times New Roman,serif" font-size="14.00">Lane_1pnp1</text>
<text text-anchor="middle" x="129" y="-264.79" font-family="Times New Roman,serif" font-size="14.00">95</text>
<polyline fill="none" stroke="black" stroke-dasharray="5,2" points="172,-256.99 172,-339.99 "/>
<text text-anchor="middle" x="241.5" y="-317.29" font-family="Times New Roman,serif" font-size="14.00">sequential execution:</text>
<text text-anchor="middle" x="241.5" y="-302.29" font-family="Times New Roman,serif" font-size="14.00">Gegenstand_bewegen</text>
<text text-anchor="middle" x="241.5" y="-287.29" font-family="Times New Roman,serif" font-size="14.00">Gep채ck_bewegen</text>
<text text-anchor="middle" x="241.5" y="-272.29" font-family="Times New Roman,serif" font-size="14.00">Gep채ck_bewegen</text>
</g>
<!-- ExclusiveG\nateway_1mv\n1czk&#45;&gt;Task_1o58n\nbi_Task_05\nvn3q3 -->
<g id="edge1" class="edge">
<title>ExclusiveG\nateway_1mv\n1czk&#45;&gt;Task_1o58n\nbi_Task_05\nvn3q3</title>
<path fill="none" stroke="black" d="M232.31,-377.97C224.02,-369.5 213.26,-358.51 202.43,-347.45"/>
<polygon fill="black" stroke="black" points="204.83,-344.89 195.33,-340.19 199.82,-349.79 204.83,-344.89"/>
</g>
<!-- ExclusiveG\nateway_190\ng6r4 -->
<g id="node3" class="node">
<title>ExclusiveG\nateway_190\ng6r4</title>
<polygon fill="lightgrey" stroke="black" points="247.5,-220.49 81.26,-202.49 247.5,-184.49 413.74,-202.49 247.5,-220.49"/>
<text text-anchor="middle" x="247.5" y="-198.79" font-family="Times New Roman,serif" font-size="14.00">Gep채ck_vorhanden?_/_JOIN</text>
</g>
<!-- ExclusiveG\nateway_1mv\n1czk&#45;&gt;ExclusiveG\nateway_190\ng6r4 -->
<g id="edge2" class="edge">
<title>ExclusiveG\nateway_1mv\n1czk&#45;&gt;ExclusiveG\nateway_190\ng6r4</title>
<path fill="none" stroke="black" d="M278.68,-379.55C294.28,-370.77 311.68,-357.8 320.5,-340.49 337.45,-307.23 337.45,-289.76 320.5,-256.49 313.21,-242.19 300.04,-230.84 286.88,-222.37"/>
<polygon fill="black" stroke="black" points="288.67,-219.37 278.3,-217.22 285.08,-225.37 288.67,-219.37"/>
</g>
<!-- Task_1o58n\nbi_Task_05\nvn3q3&#45;&gt;ExclusiveG\nateway_190\ng6r4 -->
<g id="edge3" class="edge">
<title>Task_1o58n\nbi_Task_05\nvn3q3&#45;&gt;ExclusiveG\nateway_190\ng6r4</title>
<path fill="none" stroke="black" d="M195.32,-256.81C205.49,-246.42 216.06,-235.61 225.02,-226.47"/>
<polygon fill="black" stroke="black" points="227.62,-228.81 232.11,-219.22 222.61,-223.92 227.62,-228.81"/>
</g>
<!-- Task_0irqb\ncr -->
<g id="node7" class="node">
<title>Task_0irqb\ncr</title>
<polygon fill="lightgrey" stroke="black" points="112,-94.99 112,-147.99 383,-147.99 383,-94.99 112,-94.99"/>
<text text-anchor="middle" x="152.5" y="-125.29" font-family="Times New Roman,serif" font-size="14.00">Task_0irqb</text>
<text text-anchor="middle" x="152.5" y="-110.29" font-family="Times New Roman,serif" font-size="14.00">cr</text>
<polyline fill="none" stroke="black" points="193,-94.99 193,-147.99 "/>
<text text-anchor="middle" x="232" y="-132.79" font-family="Times New Roman,serif" font-size="14.00">Passagier:</text>
<text text-anchor="middle" x="232" y="-117.79" font-family="Times New Roman,serif" font-size="14.00">Lane_1i9di</text>
<text text-anchor="middle" x="232" y="-102.79" font-family="Times New Roman,serif" font-size="14.00">el</text>
<polyline fill="none" stroke="black" points="271,-94.99 271,-147.99 "/>
<text text-anchor="middle" x="327" y="-117.79" font-family="Times New Roman,serif" font-size="14.00">Person_bewegen</text>
</g>
<!-- ExclusiveG\nateway_190\ng6r4&#45;&gt;Task_0irqb\ncr -->
<g id="edge4" class="edge">
<title>ExclusiveG\nateway_190\ng6r4&#45;&gt;Task_0irqb\ncr</title>
<path fill="none" stroke="black" d="M247.5,-184.35C247.5,-176.64 247.5,-167.23 247.5,-158.09"/>
<polygon fill="black" stroke="black" points="251,-158.01 247.5,-148.01 244,-158.01 251,-158.01"/>
</g>
<!-- StartEvent\n_28 -->
<g id="node4" class="node">
<title>StartEvent\n_28</title>
<ellipse fill="lightgrey" stroke="black" cx="247.5" cy="-626.44" rx="27.9" ry="27.9"/>
<text text-anchor="middle" x="247.5" y="-622.74" font-family="Times New Roman,serif" font-size="14.00">Start</text>
</g>
<!-- Task_0dw24\n18_Task_19\nknt6m -->
<g id="node6" class="node">
<title>Task_0dw24\n18_Task_19\nknt6m</title>
<polygon fill="none" stroke="black" stroke-dasharray="5,2" points="93,-448.99 93,-561.99 402,-561.99 402,-448.99 93,-448.99"/>
<text text-anchor="middle" x="137.5" y="-516.79" font-family="Times New Roman,serif" font-size="14.00">Task_0dw24</text>
<text text-anchor="middle" x="137.5" y="-501.79" font-family="Times New Roman,serif" font-size="14.00">18_Task_19</text>
<text text-anchor="middle" x="137.5" y="-486.79" font-family="Times New Roman,serif" font-size="14.00">knt6m</text>
<polyline fill="none" stroke="black" stroke-dasharray="5,2" points="182,-448.99 182,-561.99 "/>
<text text-anchor="middle" x="222.5" y="-546.79" font-family="Times New Roman,serif" font-size="14.00">Passagier:</text>
<text text-anchor="middle" x="222.5" y="-531.79" font-family="Times New Roman,serif" font-size="14.00">Lane_1i9di</text>
<text text-anchor="middle" x="222.5" y="-516.79" font-family="Times New Roman,serif" font-size="14.00">el&amp;Fahrzeu</text>
<text text-anchor="middle" x="222.5" y="-501.79" font-family="Times New Roman,serif" font-size="14.00">g_der_Flug</text>
<text text-anchor="middle" x="222.5" y="-486.79" font-family="Times New Roman,serif" font-size="14.00">gesellscha</text>
<text text-anchor="middle" x="222.5" y="-471.79" font-family="Times New Roman,serif" font-size="14.00">ft:Lane_1p</text>
<text text-anchor="middle" x="222.5" y="-456.79" font-family="Times New Roman,serif" font-size="14.00">np195</text>
<polyline fill="none" stroke="black" stroke-dasharray="5,2" points="263,-448.99 263,-561.99 "/>
<text text-anchor="middle" x="332.5" y="-531.79" font-family="Times New Roman,serif" font-size="14.00">sequential execution:</text>
<text text-anchor="middle" x="332.5" y="-516.79" font-family="Times New Roman,serif" font-size="14.00">Person_bewegen</text>
<text text-anchor="middle" x="332.5" y="-501.79" font-family="Times New Roman,serif" font-size="14.00">Kontrollieren</text>
<text text-anchor="middle" x="332.5" y="-486.79" font-family="Times New Roman,serif" font-size="14.00">Sonstige_Tasks</text>
<text text-anchor="middle" x="332.5" y="-471.79" font-family="Times New Roman,serif" font-size="14.00">Dokument_bearbeiten</text>
</g>
<!-- StartEvent\n_28&#45;&gt;Task_0dw24\n18_Task_19\nknt6m -->
<g id="edge5" class="edge">
<title>StartEvent\n_28&#45;&gt;Task_0dw24\n18_Task_19\nknt6m</title>
<path fill="none" stroke="black" d="M247.5,-598.45C247.5,-590.5 247.5,-581.43 247.5,-572.15"/>
<polygon fill="black" stroke="black" points="251,-572.05 247.5,-562.05 244,-572.05 251,-572.05"/>
</g>
<!-- EndEvent_1\n2qf28i -->
<g id="node5" class="node">
<title>EndEvent_1\n2qf28i</title>
<ellipse fill="lightgrey" stroke="black" cx="247.5" cy="-29.25" rx="29.5" ry="29.5"/>
<text text-anchor="middle" x="247.5" y="-25.55" font-family="Times New Roman,serif" font-size="14.00">Ende</text>
</g>
<!-- Task_0dw24\n18_Task_19\nknt6m&#45;&gt;ExclusiveG\nateway_1mv\n1czk -->
<g id="edge6" class="edge">
<title>Task_0dw24\n18_Task_19\nknt6m&#45;&gt;ExclusiveG\nateway_1mv\n1czk</title>
<path fill="none" stroke="black" d="M247.5,-448.72C247.5,-439.64 247.5,-430.62 247.5,-422.64"/>
<polygon fill="black" stroke="black" points="251,-422.52 247.5,-412.52 244,-422.52 251,-422.52"/>
</g>
<!-- Task_0irqb\ncr&#45;&gt;EndEvent_1\n2qf28i -->
<g id="edge7" class="edge">
<title>Task_0irqb\ncr&#45;&gt;EndEvent_1\n2qf28i</title>
<path fill="none" stroke="black" d="M247.5,-94.87C247.5,-86.78 247.5,-77.66 247.5,-68.87"/>
<polygon fill="black" stroke="black" points="251,-68.79 247.5,-58.79 244,-68.79 251,-68.79"/>
</g>
</g>
</svg>
