<svg width="600px" height="1012px"
 viewBox="0.00 0.00 539.56 911.39" xmlns="http://www.w3.org/2000/svg" xmlns:xlink="http://www.w3.org/1999/xlink">
<g id="graph0" class="graph" transform="scale(1.0 1.0) rotate(0) translate(4 907.39)">
<title>29_3&#45;stufige_Gepäckkontrolle_Normalgepäck</title>
<polygon fill="white" stroke="transparent" points="-4,4 -4,-907.39 535.56,-907.39 535.56,4 -4,4"/>
<!-- Task_0frp8\n8d -->
<g id="node1" class="node">
<title>Task_0frp8\n8d</title>
<polygon fill="lightgrey" stroke="black" points="40.06,-94.99 40.06,-147.99 321.06,-147.99 321.06,-94.99 40.06,-94.99"/>
<text text-anchor="middle" x="81.06" y="-125.29" font-family="Times New Roman,serif" font-size="14.00">Task_0frp8</text>
<text text-anchor="middle" x="81.06" y="-110.29" font-family="Times New Roman,serif" font-size="14.00">8d</text>
<polyline fill="none" stroke="black" points="122.06,-94.99 122.06,-147.99 "/>
<text text-anchor="middle" x="163.56" y="-132.79" font-family="Times New Roman,serif" font-size="14.00">Röntgenprü</text>
<text text-anchor="middle" x="163.56" y="-117.79" font-family="Times New Roman,serif" font-size="14.00">fanlage:La</text>
<text text-anchor="middle" x="163.56" y="-102.79" font-family="Times New Roman,serif" font-size="14.00">ne_16r7fph</text>
<polyline fill="none" stroke="black" points="205.06,-94.99 205.06,-147.99 "/>
<text text-anchor="middle" x="263.06" y="-117.79" font-family="Times New Roman,serif" font-size="14.00">Gepäck_bewegen</text>
</g>
<!-- EndEvent_1\n2avxw3 -->
<g id="node3" class="node">
<title>EndEvent_1\n2avxw3</title>
<ellipse fill="lightgrey" stroke="black" cx="180.56" cy="-29.25" rx="29.5" ry="29.5"/>
<text text-anchor="middle" x="180.56" y="-25.55" font-family="Times New Roman,serif" font-size="14.00">Ende</text>
</g>
<!-- Task_0frp8\n8d&#45;&gt;EndEvent_1\n2avxw3 -->
<g id="edge1" class="edge">
<title>Task_0frp8\n8d&#45;&gt;EndEvent_1\n2avxw3</title>
<path fill="none" stroke="black" d="M180.56,-94.87C180.56,-86.78 180.56,-77.66 180.56,-68.87"/>
<polygon fill="black" stroke="black" points="184.06,-68.79 180.56,-58.79 177.06,-68.79 184.06,-68.79"/>
</g>
<!-- Task_104ly\nyl_Task_0m\nauhy4 -->
<g id="node2" class="node">
<title>Task_104ly\nyl_Task_0m\nauhy4</title>
<polygon fill="none" stroke="black" stroke-dasharray="5,2" points="22.06,-712.99 22.06,-810.99 329.06,-810.99 329.06,-712.99 22.06,-712.99"/>
<text text-anchor="middle" x="65.06" y="-773.29" font-family="Times New Roman,serif" font-size="14.00">Task_104ly</text>
<text text-anchor="middle" x="65.06" y="-758.29" font-family="Times New Roman,serif" font-size="14.00">yl_Task_0m</text>
<text text-anchor="middle" x="65.06" y="-743.29" font-family="Times New Roman,serif" font-size="14.00">auhy4</text>
<polyline fill="none" stroke="black" stroke-dasharray="5,2" points="108.06,-712.99 108.06,-810.99 "/>
<text text-anchor="middle" x="150.06" y="-795.79" font-family="Times New Roman,serif" font-size="14.00">Röntgenprü</text>
<text text-anchor="middle" x="150.06" y="-780.79" font-family="Times New Roman,serif" font-size="14.00">fanlage:La</text>
<text text-anchor="middle" x="150.06" y="-765.79" font-family="Times New Roman,serif" font-size="14.00">ne_16r7fph</text>
<text text-anchor="middle" x="150.06" y="-750.79" font-family="Times New Roman,serif" font-size="14.00">&amp;Check&#45;In:</text>
<text text-anchor="middle" x="150.06" y="-735.79" font-family="Times New Roman,serif" font-size="14.00">Lane_0e8xc</text>
<text text-anchor="middle" x="150.06" y="-720.79" font-family="Times New Roman,serif" font-size="14.00">rh</text>
<polyline fill="none" stroke="black" stroke-dasharray="5,2" points="192.06,-712.99 192.06,-810.99 "/>
<text text-anchor="middle" x="260.56" y="-780.79" font-family="Times New Roman,serif" font-size="14.00">sequential execution:</text>
<text text-anchor="middle" x="260.56" y="-765.79" font-family="Times New Roman,serif" font-size="14.00">Gepäck_bewegen</text>
<text text-anchor="middle" x="260.56" y="-750.79" font-family="Times New Roman,serif" font-size="14.00">Gepäck_bewegen</text>
<text text-anchor="middle" x="260.56" y="-735.79" font-family="Times New Roman,serif" font-size="14.00">Gepäck_kontrollieren</text>
</g>
<!-- ExclusiveG\nateway_1ag\nipxg -->
<g id="node5" class="node">
<title>ExclusiveG\nateway_1ag\nipxg</title>
<polygon fill="lightgrey" stroke="black" points="175.56,-676.49 -0.06,-658.49 175.56,-640.49 351.18,-658.49 175.56,-676.49"/>
<text text-anchor="middle" x="175.56" y="-654.79" font-family="Times New Roman,serif" font-size="14.00">Inhalt_unbedenklich?_/_SPLIT</text>
</g>
<!-- Task_104ly\nyl_Task_0m\nauhy4&#45;&gt;ExclusiveG\nateway_1ag\nipxg -->
<g id="edge2" class="edge">
<title>Task_104ly\nyl_Task_0m\nauhy4&#45;&gt;ExclusiveG\nateway_1ag\nipxg</title>
<path fill="none" stroke="black" d="M175.56,-712.92C175.56,-704.04 175.56,-695.06 175.56,-687.05"/>
<polygon fill="black" stroke="black" points="179.06,-686.84 175.56,-676.84 172.06,-686.84 179.06,-686.84"/>
</g>
<!-- ExclusiveG\nateway_1wa\nh59l -->
<g id="node4" class="node">
<title>ExclusiveG\nateway_1wa\nh59l</title>
<polygon fill="lightgrey" stroke="black" points="278.56,-292.49 110.15,-274.49 278.56,-256.49 446.97,-274.49 278.56,-292.49"/>
<text text-anchor="middle" x="278.56" y="-270.79" font-family="Times New Roman,serif" font-size="14.00">Inhalt_unbedenklich?_/_JOIN</text>
</g>
<!-- ExclusiveG\nateway_04m\n7ez2 -->
<g id="node7" class="node">
<title>ExclusiveG\nateway_04m\n7ez2</title>
<polygon fill="lightgrey" stroke="black" points="180.56,-220.49 12.15,-202.49 180.56,-184.49 348.97,-202.49 180.56,-220.49"/>
<text text-anchor="middle" x="180.56" y="-198.79" font-family="Times New Roman,serif" font-size="14.00">Inhalt_unbedenklich?_/_JOIN</text>
</g>
<!-- ExclusiveG\nateway_1wa\nh59l&#45;&gt;ExclusiveG\nateway_04m\n7ez2 -->
<g id="edge3" class="edge">
<title>ExclusiveG\nateway_1wa\nh59l&#45;&gt;ExclusiveG\nateway_04m\n7ez2</title>
<path fill="none" stroke="black" d="M257.78,-258.65C243.74,-248.63 225.03,-235.26 209.54,-224.19"/>
<polygon fill="black" stroke="black" points="211.48,-221.28 201.31,-218.32 207.42,-226.98 211.48,-221.28"/>
</g>
<!-- ExclusiveG\nateway_1ag\nipxg&#45;&gt;ExclusiveG\nateway_04m\n7ez2 -->
<g id="edge5" class="edge">
<title>ExclusiveG\nateway_1ag\nipxg&#45;&gt;ExclusiveG\nateway_04m\n7ez2</title>
<path fill="none" stroke="black" d="M150.08,-643.08C136.17,-633.86 119.92,-620.61 110.56,-604.49 72.75,-539.43 82.56,-512.75 82.56,-437.49 82.56,-437.49 82.56,-437.49 82.56,-354.49 82.56,-310.13 77.03,-293.47 101.56,-256.49 111.09,-242.13 125.97,-230.67 140.26,-222.14"/>
<polygon fill="black" stroke="black" points="142.04,-225.16 149.03,-217.2 138.6,-219.06 142.04,-225.16"/>
</g>
<!-- Task_12w5c\noa_Task_0s\nevfth -->
<g id="node9" class="node">
<title>Task_12w5c\noa_Task_0s\nevfth</title>
<polygon fill="none" stroke="black" stroke-dasharray="5,2" points="120.06,-490.99 120.06,-603.99 435.06,-603.99 435.06,-490.99 120.06,-490.99"/>
<text text-anchor="middle" x="164.56" y="-558.79" font-family="Times New Roman,serif" font-size="14.00">Task_12w5c</text>
<text text-anchor="middle" x="164.56" y="-543.79" font-family="Times New Roman,serif" font-size="14.00">oa_Task_0s</text>
<text text-anchor="middle" x="164.56" y="-528.79" font-family="Times New Roman,serif" font-size="14.00">evfth</text>
<polyline fill="none" stroke="black" stroke-dasharray="5,2" points="209.06,-490.99 209.06,-603.99 "/>
<text text-anchor="middle" x="253.56" y="-588.79" font-family="Times New Roman,serif" font-size="14.00">Röntgenprü</text>
<text text-anchor="middle" x="253.56" y="-573.79" font-family="Times New Roman,serif" font-size="14.00">fanlage:La</text>
<text text-anchor="middle" x="253.56" y="-558.79" font-family="Times New Roman,serif" font-size="14.00">ne_16r7fph</text>
<text text-anchor="middle" x="253.56" y="-543.79" font-family="Times New Roman,serif" font-size="14.00">&amp;Röntgenbe</text>
<text text-anchor="middle" x="253.56" y="-528.79" font-family="Times New Roman,serif" font-size="14.00">ugungsanla</text>
<text text-anchor="middle" x="253.56" y="-513.79" font-family="Times New Roman,serif" font-size="14.00">ge:Lane_1g</text>
<text text-anchor="middle" x="253.56" y="-498.79" font-family="Times New Roman,serif" font-size="14.00">bxsm0</text>
<polyline fill="none" stroke="black" stroke-dasharray="5,2" points="298.06,-490.99 298.06,-603.99 "/>
<text text-anchor="middle" x="366.56" y="-558.79" font-family="Times New Roman,serif" font-size="14.00">sequential execution:</text>
<text text-anchor="middle" x="366.56" y="-543.79" font-family="Times New Roman,serif" font-size="14.00">Gepäck_bewegen</text>
<text text-anchor="middle" x="366.56" y="-528.79" font-family="Times New Roman,serif" font-size="14.00">Gepäck_kontrollieren</text>
</g>
<!-- ExclusiveG\nateway_1ag\nipxg&#45;&gt;Task_12w5c\noa_Task_0s\nevfth -->
<g id="edge4" class="edge">
<title>ExclusiveG\nateway_1ag\nipxg&#45;&gt;Task_12w5c\noa_Task_0s\nevfth</title>
<path fill="none" stroke="black" d="M190.17,-641.88C197.86,-633.67 207.84,-623 218.29,-611.83"/>
<polygon fill="black" stroke="black" points="220.93,-614.13 225.21,-604.43 215.82,-609.34 220.93,-614.13"/>
</g>
<!-- ExclusiveG\nateway_054\njz3l -->
<g id="node6" class="node">
<title>ExclusiveG\nateway_054\njz3l</title>
<polygon fill="lightgrey" stroke="black" points="286.56,-454.49 110.94,-436.49 286.56,-418.49 462.18,-436.49 286.56,-454.49"/>
<text text-anchor="middle" x="286.56" y="-432.79" font-family="Times New Roman,serif" font-size="14.00">Inhalt_unbedenklich?_/_SPLIT</text>
</g>
<!-- ExclusiveG\nateway_054\njz3l&#45;&gt;ExclusiveG\nateway_1wa\nh59l -->
<g id="edge7" class="edge">
<title>ExclusiveG\nateway_054\njz3l&#45;&gt;ExclusiveG\nateway_1wa\nh59l</title>
<path fill="none" stroke="black" d="M257.81,-421.27C243.18,-412.34 226.77,-399.31 218.56,-382.49 208.03,-360.93 208.69,-350.37 218.56,-328.49 224.34,-315.67 234.93,-304.71 245.62,-296.13"/>
<polygon fill="black" stroke="black" points="247.83,-298.85 253.73,-290.05 243.63,-293.24 247.83,-298.85"/>
</g>
<!-- Task_1r6qf\nrv_Task_19\nd8q6g -->
<g id="node10" class="node">
<title>Task_1r6qf\nrv_Task_19\nd8q6g</title>
<polygon fill="none" stroke="black" stroke-dasharray="5,2" points="227.56,-328.99 227.56,-381.99 531.56,-381.99 531.56,-328.99 227.56,-328.99"/>
<text text-anchor="middle" x="269.56" y="-366.79" font-family="Times New Roman,serif" font-size="14.00">Task_1r6qf</text>
<text text-anchor="middle" x="269.56" y="-351.79" font-family="Times New Roman,serif" font-size="14.00">rv_Task_19</text>
<text text-anchor="middle" x="269.56" y="-336.79" font-family="Times New Roman,serif" font-size="14.00">d8q6g</text>
<polyline fill="none" stroke="black" stroke-dasharray="5,2" points="311.56,-328.99 311.56,-381.99 "/>
<text text-anchor="middle" x="353.06" y="-366.79" font-family="Times New Roman,serif" font-size="14.00">Nachkontro</text>
<text text-anchor="middle" x="353.06" y="-351.79" font-family="Times New Roman,serif" font-size="14.00">lle:Lane_0</text>
<text text-anchor="middle" x="353.06" y="-336.79" font-family="Times New Roman,serif" font-size="14.00">clyel9</text>
<polyline fill="none" stroke="black" stroke-dasharray="5,2" points="394.56,-328.99 394.56,-381.99 "/>
<text text-anchor="middle" x="463.06" y="-366.79" font-family="Times New Roman,serif" font-size="14.00">sequential execution:</text>
<text text-anchor="middle" x="463.06" y="-351.79" font-family="Times New Roman,serif" font-size="14.00">Sonstige_Tasks</text>
<text text-anchor="middle" x="463.06" y="-336.79" font-family="Times New Roman,serif" font-size="14.00">Gepäck_kontrollieren</text>
</g>
<!-- ExclusiveG\nateway_054\njz3l&#45;&gt;Task_1r6qf\nrv_Task_19\nd8q6g -->
<g id="edge6" class="edge">
<title>ExclusiveG\nateway_054\njz3l&#45;&gt;Task_1r6qf\nrv_Task_19\nd8q6g</title>
<path fill="none" stroke="black" d="M304.49,-420.26C314.98,-411.35 328.64,-399.75 341.42,-388.89"/>
<polygon fill="black" stroke="black" points="343.88,-391.39 349.24,-382.25 339.35,-386.06 343.88,-391.39"/>
</g>
<!-- ExclusiveG\nateway_04m\n7ez2&#45;&gt;Task_0frp8\n8d -->
<g id="edge8" class="edge">
<title>ExclusiveG\nateway_04m\n7ez2&#45;&gt;Task_0frp8\n8d</title>
<path fill="none" stroke="black" d="M180.56,-184.35C180.56,-176.64 180.56,-167.23 180.56,-158.09"/>
<polygon fill="black" stroke="black" points="184.06,-158.01 180.56,-148.01 177.06,-158.01 184.06,-158.01"/>
</g>
<!-- StartEvent\n_29 -->
<g id="node8" class="node">
<title>StartEvent\n_29</title>
<ellipse fill="lightgrey" stroke="black" cx="175.56" cy="-875.44" rx="27.9" ry="27.9"/>
<text text-anchor="middle" x="175.56" y="-871.74" font-family="Times New Roman,serif" font-size="14.00">Start</text>
</g>
<!-- StartEvent\n_29&#45;&gt;Task_104ly\nyl_Task_0m\nauhy4 -->
<g id="edge9" class="edge">
<title>StartEvent\n_29&#45;&gt;Task_104ly\nyl_Task_0m\nauhy4</title>
<path fill="none" stroke="black" d="M175.56,-847.46C175.56,-839.51 175.56,-830.47 175.56,-821.35"/>
<polygon fill="black" stroke="black" points="179.06,-821.05 175.56,-811.05 172.06,-821.05 179.06,-821.05"/>
</g>
<!-- Task_12w5c\noa_Task_0s\nevfth&#45;&gt;ExclusiveG\nateway_054\njz3l -->
<g id="edge10" class="edge">
<title>Task_12w5c\noa_Task_0s\nevfth&#45;&gt;ExclusiveG\nateway_054\njz3l</title>
<path fill="none" stroke="black" d="M282.16,-490.72C282.91,-481.64 283.66,-472.62 284.32,-464.64"/>
<polygon fill="black" stroke="black" points="287.82,-464.77 285.15,-454.52 280.84,-464.2 287.82,-464.77"/>
</g>
<!-- Task_1r6qf\nrv_Task_19\nd8q6g&#45;&gt;ExclusiveG\nateway_1wa\nh59l -->
<g id="edge11" class="edge">
<title>Task_1r6qf\nrv_Task_19\nd8q6g&#45;&gt;ExclusiveG\nateway_1wa\nh59l</title>
<path fill="none" stroke="black" d="M346.77,-328.85C333.54,-318.5 318.45,-306.7 305.84,-296.83"/>
<polygon fill="black" stroke="black" points="307.98,-294.06 297.95,-290.66 303.67,-299.58 307.98,-294.06"/>
</g>
</g>
</svg>
