<svg width="600px" height="1293px"
 viewBox="0.00 0.00 296.00 638.39" xmlns="http://www.w3.org/2000/svg" xmlns:xlink="http://www.w3.org/1999/xlink">
<g id="graph0" class="graph" transform="scale(1.0 1.0) rotate(0) translate(4 634.39)">
<title>09_Abfertigung_fehlgeleitetes_Transfergepäck</title>
<polygon fill="white" stroke="transparent" points="-4,4 -4,-634.39 292,-634.39 292,4 -4,4"/>
<!-- Task_1yw1t\ng7 -->
<g id="node1" class="node">
<title>Task_1yw1t\ng7</title>
<polygon fill="lightgrey" stroke="black" points="0,-334.99 0,-417.99 288,-417.99 288,-334.99 0,-334.99"/>
<text text-anchor="middle" x="43" y="-380.29" font-family="Times New Roman,serif" font-size="14.00">Task_1yw1t</text>
<text text-anchor="middle" x="43" y="-365.29" font-family="Times New Roman,serif" font-size="14.00">g7</text>
<polyline fill="none" stroke="black" points="86,-334.99 86,-417.99 "/>
<text text-anchor="middle" x="129" y="-402.79" font-family="Times New Roman,serif" font-size="14.00">Mitarbeite</text>
<text text-anchor="middle" x="129" y="-387.79" font-family="Times New Roman,serif" font-size="14.00">r_Gepäckab</text>
<text text-anchor="middle" x="129" y="-372.79" font-family="Times New Roman,serif" font-size="14.00">fertigung:</text>
<text text-anchor="middle" x="129" y="-357.79" font-family="Times New Roman,serif" font-size="14.00">Lane_01ilm</text>
<text text-anchor="middle" x="129" y="-342.79" font-family="Times New Roman,serif" font-size="14.00">zw</text>
<polyline fill="none" stroke="black" points="172,-334.99 172,-417.99 "/>
<text text-anchor="middle" x="230" y="-372.79" font-family="Times New Roman,serif" font-size="14.00">Gepäck_bewegen</text>
</g>
<!-- Task_0p8zs\nen -->
<g id="node2" class="node">
<title>Task_0p8zs\nen</title>
<polygon fill="lightgrey" stroke="black" points="1,-214.99 1,-297.99 287,-297.99 287,-214.99 1,-214.99"/>
<text text-anchor="middle" x="43.5" y="-260.29" font-family="Times New Roman,serif" font-size="14.00">Task_0p8zs</text>
<text text-anchor="middle" x="43.5" y="-245.29" font-family="Times New Roman,serif" font-size="14.00">en</text>
<polyline fill="none" stroke="black" points="86,-214.99 86,-297.99 "/>
<text text-anchor="middle" x="128.5" y="-282.79" font-family="Times New Roman,serif" font-size="14.00">Eingabeste</text>
<text text-anchor="middle" x="128.5" y="-267.79" font-family="Times New Roman,serif" font-size="14.00">llen_Trans</text>
<text text-anchor="middle" x="128.5" y="-252.79" font-family="Times New Roman,serif" font-size="14.00">fergepäck:</text>
<text text-anchor="middle" x="128.5" y="-237.79" font-family="Times New Roman,serif" font-size="14.00">Lane_1g8c7</text>
<text text-anchor="middle" x="128.5" y="-222.79" font-family="Times New Roman,serif" font-size="14.00">wl</text>
<polyline fill="none" stroke="black" points="171,-214.99 171,-297.99 "/>
<text text-anchor="middle" x="229" y="-252.79" font-family="Times New Roman,serif" font-size="14.00">Gepäck_bewegen</text>
</g>
<!-- Task_1yw1t\ng7&#45;&gt;Task_0p8zs\nen -->
<g id="edge1" class="edge">
<title>Task_1yw1t\ng7&#45;&gt;Task_0p8zs\nen</title>
<path fill="none" stroke="black" d="M144,-334.89C144,-326.36 144,-317.26 144,-308.41"/>
<polygon fill="black" stroke="black" points="147.5,-308.18 144,-298.18 140.5,-308.18 147.5,-308.18"/>
</g>
<!-- Task_0rzkv\nrd -->
<g id="node4" class="node">
<title>Task_0rzkv\nrd</title>
<polygon fill="lightgrey" stroke="black" points="2,-94.99 2,-177.99 286,-177.99 286,-94.99 2,-94.99"/>
<text text-anchor="middle" x="43.5" y="-140.29" font-family="Times New Roman,serif" font-size="14.00">Task_0rzkv</text>
<text text-anchor="middle" x="43.5" y="-125.29" font-family="Times New Roman,serif" font-size="14.00">rd</text>
<polyline fill="none" stroke="black" points="85,-94.99 85,-177.99 "/>
<text text-anchor="middle" x="127.5" y="-162.79" font-family="Times New Roman,serif" font-size="14.00">Eingabeste</text>
<text text-anchor="middle" x="127.5" y="-147.79" font-family="Times New Roman,serif" font-size="14.00">llen_Trans</text>
<text text-anchor="middle" x="127.5" y="-132.79" font-family="Times New Roman,serif" font-size="14.00">fergepäck:</text>
<text text-anchor="middle" x="127.5" y="-117.79" font-family="Times New Roman,serif" font-size="14.00">Lane_1g8c7</text>
<text text-anchor="middle" x="127.5" y="-102.79" font-family="Times New Roman,serif" font-size="14.00">wl</text>
<polyline fill="none" stroke="black" points="170,-94.99 170,-177.99 "/>
<text text-anchor="middle" x="228" y="-132.79" font-family="Times New Roman,serif" font-size="14.00">Gepäck_bewegen</text>
</g>
<!-- Task_0p8zs\nen&#45;&gt;Task_0rzkv\nrd -->
<g id="edge2" class="edge">
<title>Task_0p8zs\nen&#45;&gt;Task_0rzkv\nrd</title>
<path fill="none" stroke="black" d="M144,-214.89C144,-206.36 144,-197.26 144,-188.41"/>
<polygon fill="black" stroke="black" points="147.5,-188.18 144,-178.18 140.5,-188.18 147.5,-188.18"/>
</g>
<!-- Task_0ekil\nqz -->
<g id="node3" class="node">
<title>Task_0ekil\nqz</title>
<polygon fill="lightgrey" stroke="black" points="4.5,-454.99 4.5,-537.99 283.5,-537.99 283.5,-454.99 4.5,-454.99"/>
<text text-anchor="middle" x="43" y="-500.29" font-family="Times New Roman,serif" font-size="14.00">Task_0ekil</text>
<text text-anchor="middle" x="43" y="-485.29" font-family="Times New Roman,serif" font-size="14.00">qz</text>
<polyline fill="none" stroke="black" points="81.5,-454.99 81.5,-537.99 "/>
<text text-anchor="middle" x="124.5" y="-522.79" font-family="Times New Roman,serif" font-size="14.00">Mitarbeite</text>
<text text-anchor="middle" x="124.5" y="-507.79" font-family="Times New Roman,serif" font-size="14.00">r_Gepäckab</text>
<text text-anchor="middle" x="124.5" y="-492.79" font-family="Times New Roman,serif" font-size="14.00">fertigung:</text>
<text text-anchor="middle" x="124.5" y="-477.79" font-family="Times New Roman,serif" font-size="14.00">Lane_01ilm</text>
<text text-anchor="middle" x="124.5" y="-462.79" font-family="Times New Roman,serif" font-size="14.00">zw</text>
<polyline fill="none" stroke="black" points="167.5,-454.99 167.5,-537.99 "/>
<text text-anchor="middle" x="225.5" y="-492.79" font-family="Times New Roman,serif" font-size="14.00">Gepäck_bewegen</text>
</g>
<!-- Task_0ekil\nqz&#45;&gt;Task_1yw1t\ng7 -->
<g id="edge3" class="edge">
<title>Task_0ekil\nqz&#45;&gt;Task_1yw1t\ng7</title>
<path fill="none" stroke="black" d="M144,-454.89C144,-446.36 144,-437.26 144,-428.41"/>
<polygon fill="black" stroke="black" points="147.5,-428.18 144,-418.18 140.5,-428.18 147.5,-428.18"/>
</g>
<!-- EndEvent_0\nrx13h1 -->
<g id="node5" class="node">
<title>EndEvent_0\nrx13h1</title>
<ellipse fill="lightgrey" stroke="black" cx="144" cy="-29.25" rx="29.5" ry="29.5"/>
<text text-anchor="middle" x="144" y="-25.55" font-family="Times New Roman,serif" font-size="14.00">Ende</text>
</g>
<!-- Task_0rzkv\nrd&#45;&gt;EndEvent_0\nrx13h1 -->
<g id="edge4" class="edge">
<title>Task_0rzkv\nrd&#45;&gt;EndEvent_0\nrx13h1</title>
<path fill="none" stroke="black" d="M144,-94.8C144,-86.25 144,-77.25 144,-68.78"/>
<polygon fill="black" stroke="black" points="147.5,-68.77 144,-58.77 140.5,-68.77 147.5,-68.77"/>
</g>
<!-- StartEvent\n_9 -->
<g id="node6" class="node">
<title>StartEvent\n_9</title>
<ellipse fill="lightgrey" stroke="black" cx="144" cy="-602.44" rx="27.9" ry="27.9"/>
<text text-anchor="middle" x="144" y="-598.74" font-family="Times New Roman,serif" font-size="14.00">Start</text>
</g>
<!-- StartEvent\n_9&#45;&gt;Task_0ekil\nqz -->
<g id="edge5" class="edge">
<title>StartEvent\n_9&#45;&gt;Task_0ekil\nqz</title>
<path fill="none" stroke="black" d="M144,-574.4C144,-566.36 144,-557.28 144,-548.24"/>
<polygon fill="black" stroke="black" points="147.5,-548.12 144,-538.12 140.5,-548.12 147.5,-548.12"/>
</g>
</g>
</svg>
