<svg width="600px" height="905px"
 viewBox="0.00 0.00 587.50 887.39" xmlns="http://www.w3.org/2000/svg" xmlns:xlink="http://www.w3.org/1999/xlink">
<g id="graph0" class="graph" transform="scale(1.0 1.0) rotate(0) translate(4 883.39)">
<title>12_Abfertigung_Ankunftsgepäck</title>
<polygon fill="white" stroke="transparent" points="-4,4 -4,-883.39 583.5,-883.39 583.5,4 -4,4"/>
<!-- ExclusiveG\nateway_0hg\n4rss -->
<g id="node1" class="node">
<title>ExclusiveG\nateway_0hg\n4rss</title>
<polygon fill="lightgrey" stroke="black" points="288.5,-577.49 118.41,-559.49 288.5,-541.49 458.59,-559.49 288.5,-577.49"/>
<text text-anchor="middle" x="288.5" y="-555.79" font-family="Times New Roman,serif" font-size="14.00">Inclusives_Gateway_/_SPLIT</text>
</g>
<!-- Task_0725v\nho -->
<g id="node6" class="node">
<title>Task_0725v\nho</title>
<polygon fill="lightgrey" stroke="black" points="0.5,-451.99 0.5,-504.99 280.5,-504.99 280.5,-451.99 0.5,-451.99"/>
<text text-anchor="middle" x="43.5" y="-482.29" font-family="Times New Roman,serif" font-size="14.00">Task_0725v</text>
<text text-anchor="middle" x="43.5" y="-467.29" font-family="Times New Roman,serif" font-size="14.00">ho</text>
<polyline fill="none" stroke="black" points="86.5,-451.99 86.5,-504.99 "/>
<text text-anchor="middle" x="125.5" y="-489.79" font-family="Times New Roman,serif" font-size="14.00">Flugzeug:L</text>
<text text-anchor="middle" x="125.5" y="-474.79" font-family="Times New Roman,serif" font-size="14.00">ane_0ivbj2</text>
<text text-anchor="middle" x="125.5" y="-459.79" font-family="Times New Roman,serif" font-size="14.00">h</text>
<polyline fill="none" stroke="black" points="164.5,-451.99 164.5,-504.99 "/>
<text text-anchor="middle" x="222.5" y="-474.79" font-family="Times New Roman,serif" font-size="14.00">Gepäck_bewegen</text>
</g>
<!-- ExclusiveG\nateway_0hg\n4rss&#45;&gt;Task_0725v\nho -->
<g id="edge2" class="edge">
<title>ExclusiveG\nateway_0hg\n4rss&#45;&gt;Task_0725v\nho</title>
<path fill="none" stroke="black" d="M261.7,-544.19C243.76,-534.61 219.47,-521.65 197.35,-509.84"/>
<polygon fill="black" stroke="black" points="198.82,-506.66 188.35,-505.04 195.53,-512.83 198.82,-506.66"/>
</g>
<!-- Task_1i210\nlu -->
<g id="node8" class="node">
<title>Task_1i210\nlu</title>
<polygon fill="lightgrey" stroke="black" points="299.5,-451.99 299.5,-504.99 575.5,-504.99 575.5,-451.99 299.5,-451.99"/>
<text text-anchor="middle" x="340.5" y="-482.29" font-family="Times New Roman,serif" font-size="14.00">Task_1i210</text>
<text text-anchor="middle" x="340.5" y="-467.29" font-family="Times New Roman,serif" font-size="14.00">lu</text>
<polyline fill="none" stroke="black" points="381.5,-451.99 381.5,-504.99 "/>
<text text-anchor="middle" x="420.5" y="-489.79" font-family="Times New Roman,serif" font-size="14.00">Flugzeug:L</text>
<text text-anchor="middle" x="420.5" y="-474.79" font-family="Times New Roman,serif" font-size="14.00">ane_0ivbj2</text>
<text text-anchor="middle" x="420.5" y="-459.79" font-family="Times New Roman,serif" font-size="14.00">h</text>
<polyline fill="none" stroke="black" points="459.5,-451.99 459.5,-504.99 "/>
<text text-anchor="middle" x="517.5" y="-474.79" font-family="Times New Roman,serif" font-size="14.00">Gepäck_bewegen</text>
</g>
<!-- ExclusiveG\nateway_0hg\n4rss&#45;&gt;Task_1i210\nlu -->
<g id="edge1" class="edge">
<title>ExclusiveG\nateway_0hg\n4rss&#45;&gt;Task_1i210\nlu</title>
<path fill="none" stroke="black" d="M315.48,-544.19C333.54,-534.61 357.99,-521.65 380.26,-509.84"/>
<polygon fill="black" stroke="black" points="382.13,-512.81 389.32,-505.04 378.85,-506.63 382.13,-512.81"/>
</g>
<!-- Task_01w0a\n5e -->
<g id="node2" class="node">
<title>Task_01w0a\n5e</title>
<polygon fill="lightgrey" stroke="black" points="297.5,-361.99 297.5,-414.99 579.5,-414.99 579.5,-361.99 297.5,-361.99"/>
<text text-anchor="middle" x="341.5" y="-392.29" font-family="Times New Roman,serif" font-size="14.00">Task_01w0a</text>
<text text-anchor="middle" x="341.5" y="-377.29" font-family="Times New Roman,serif" font-size="14.00">5e</text>
<polyline fill="none" stroke="black" points="385.5,-361.99 385.5,-414.99 "/>
<text text-anchor="middle" x="424.5" y="-399.79" font-family="Times New Roman,serif" font-size="14.00">Flugzeug:L</text>
<text text-anchor="middle" x="424.5" y="-384.79" font-family="Times New Roman,serif" font-size="14.00">ane_0ivbj2</text>
<text text-anchor="middle" x="424.5" y="-369.79" font-family="Times New Roman,serif" font-size="14.00">h</text>
<polyline fill="none" stroke="black" points="463.5,-361.99 463.5,-414.99 "/>
<text text-anchor="middle" x="521.5" y="-384.79" font-family="Times New Roman,serif" font-size="14.00">Gepäck_bewegen</text>
</g>
<!-- ExclusiveG\nateway_1lw\n95o2 -->
<g id="node4" class="node">
<title>ExclusiveG\nateway_1lw\n95o2</title>
<polygon fill="lightgrey" stroke="black" points="288.5,-325.49 125.62,-307.49 288.5,-289.49 451.38,-307.49 288.5,-325.49"/>
<text text-anchor="middle" x="288.5" y="-303.79" font-family="Times New Roman,serif" font-size="14.00">Inclusives_Gateway_/_JOIN</text>
</g>
<!-- Task_01w0a\n5e&#45;&gt;ExclusiveG\nateway_1lw\n95o2 -->
<g id="edge3" class="edge">
<title>Task_01w0a\n5e&#45;&gt;ExclusiveG\nateway_1lw\n95o2</title>
<path fill="none" stroke="black" d="M389.8,-361.85C368.53,-350.64 344.03,-337.74 324.45,-327.43"/>
<polygon fill="black" stroke="black" points="326.03,-324.31 315.56,-322.74 322.77,-330.5 326.03,-324.31"/>
</g>
<!-- Task_1eo6u\nx7 -->
<g id="node3" class="node">
<title>Task_1eo6u\nx7</title>
<polygon fill="lightgrey" stroke="black" points="145.5,-94.99 145.5,-162.99 431.5,-162.99 431.5,-94.99 145.5,-94.99"/>
<text text-anchor="middle" x="188.5" y="-132.79" font-family="Times New Roman,serif" font-size="14.00">Task_1eo6u</text>
<text text-anchor="middle" x="188.5" y="-117.79" font-family="Times New Roman,serif" font-size="14.00">x7</text>
<polyline fill="none" stroke="black" points="231.5,-94.99 231.5,-162.99 "/>
<text text-anchor="middle" x="273.5" y="-147.79" font-family="Times New Roman,serif" font-size="14.00">Gepäckabfe</text>
<text text-anchor="middle" x="273.5" y="-132.79" font-family="Times New Roman,serif" font-size="14.00">rtigungsha</text>
<text text-anchor="middle" x="273.5" y="-117.79" font-family="Times New Roman,serif" font-size="14.00">lle:Lane_0</text>
<text text-anchor="middle" x="273.5" y="-102.79" font-family="Times New Roman,serif" font-size="14.00">pcbte7</text>
<polyline fill="none" stroke="black" points="315.5,-94.99 315.5,-162.99 "/>
<text text-anchor="middle" x="373.5" y="-125.29" font-family="Times New Roman,serif" font-size="14.00">Gepäck_bewegen</text>
</g>
<!-- EndEvent_0\nxtdnk4 -->
<g id="node10" class="node">
<title>EndEvent_0\nxtdnk4</title>
<ellipse fill="lightgrey" stroke="black" cx="288.5" cy="-29.25" rx="29.5" ry="29.5"/>
<text text-anchor="middle" x="288.5" y="-25.55" font-family="Times New Roman,serif" font-size="14.00">Ende</text>
</g>
<!-- Task_1eo6u\nx7&#45;&gt;EndEvent_0\nxtdnk4 -->
<g id="edge4" class="edge">
<title>Task_1eo6u\nx7&#45;&gt;EndEvent_0\nxtdnk4</title>
<path fill="none" stroke="black" d="M288.5,-94.9C288.5,-86.55 288.5,-77.52 288.5,-68.92"/>
<polygon fill="black" stroke="black" points="292,-68.73 288.5,-58.73 285,-68.73 292,-68.73"/>
</g>
<!-- Task_14duu\nc8 -->
<g id="node5" class="node">
<title>Task_14duu\nc8</title>
<polygon fill="lightgrey" stroke="black" points="148.5,-199.99 148.5,-252.99 428.5,-252.99 428.5,-199.99 148.5,-199.99"/>
<text text-anchor="middle" x="191.5" y="-230.29" font-family="Times New Roman,serif" font-size="14.00">Task_14duu</text>
<text text-anchor="middle" x="191.5" y="-215.29" font-family="Times New Roman,serif" font-size="14.00">c8</text>
<polyline fill="none" stroke="black" points="234.5,-199.99 234.5,-252.99 "/>
<text text-anchor="middle" x="273.5" y="-237.79" font-family="Times New Roman,serif" font-size="14.00">Flugzeug:L</text>
<text text-anchor="middle" x="273.5" y="-222.79" font-family="Times New Roman,serif" font-size="14.00">ane_0ivbj2</text>
<text text-anchor="middle" x="273.5" y="-207.79" font-family="Times New Roman,serif" font-size="14.00">h</text>
<polyline fill="none" stroke="black" points="312.5,-199.99 312.5,-252.99 "/>
<text text-anchor="middle" x="370.5" y="-222.79" font-family="Times New Roman,serif" font-size="14.00">Gepäck_bewegen</text>
</g>
<!-- ExclusiveG\nateway_1lw\n95o2&#45;&gt;Task_14duu\nc8 -->
<g id="edge5" class="edge">
<title>ExclusiveG\nateway_1lw\n95o2&#45;&gt;Task_14duu\nc8</title>
<path fill="none" stroke="black" d="M288.5,-289.35C288.5,-281.64 288.5,-272.23 288.5,-263.09"/>
<polygon fill="black" stroke="black" points="292,-263.01 288.5,-253.01 285,-263.01 292,-263.01"/>
</g>
<!-- Task_14duu\nc8&#45;&gt;Task_1eo6u\nx7 -->
<g id="edge6" class="edge">
<title>Task_14duu\nc8&#45;&gt;Task_1eo6u\nx7</title>
<path fill="none" stroke="black" d="M288.5,-199.9C288.5,-191.71 288.5,-182.41 288.5,-173.32"/>
<polygon fill="black" stroke="black" points="292,-173.22 288.5,-163.22 285,-173.22 292,-173.22"/>
</g>
<!-- Task_0acy2\nki -->
<g id="node7" class="node">
<title>Task_0acy2\nki</title>
<polygon fill="lightgrey" stroke="black" points="0,-361.99 0,-414.99 279,-414.99 279,-361.99 0,-361.99"/>
<text text-anchor="middle" x="42.5" y="-392.29" font-family="Times New Roman,serif" font-size="14.00">Task_0acy2</text>
<text text-anchor="middle" x="42.5" y="-377.29" font-family="Times New Roman,serif" font-size="14.00">ki</text>
<polyline fill="none" stroke="black" points="85,-361.99 85,-414.99 "/>
<text text-anchor="middle" x="124" y="-399.79" font-family="Times New Roman,serif" font-size="14.00">Flugzeug:L</text>
<text text-anchor="middle" x="124" y="-384.79" font-family="Times New Roman,serif" font-size="14.00">ane_0ivbj2</text>
<text text-anchor="middle" x="124" y="-369.79" font-family="Times New Roman,serif" font-size="14.00">h</text>
<polyline fill="none" stroke="black" points="163,-361.99 163,-414.99 "/>
<text text-anchor="middle" x="221" y="-384.79" font-family="Times New Roman,serif" font-size="14.00">Gepäck_bewegen</text>
</g>
<!-- Task_0725v\nho&#45;&gt;Task_0acy2\nki -->
<g id="edge7" class="edge">
<title>Task_0725v\nho&#45;&gt;Task_0acy2\nki</title>
<path fill="none" stroke="black" d="M140.21,-451.57C140.11,-443.33 140.01,-434.07 139.91,-425.27"/>
<polygon fill="black" stroke="black" points="143.41,-425.2 139.79,-415.24 136.41,-425.28 143.41,-425.2"/>
</g>
<!-- Task_0acy2\nki&#45;&gt;ExclusiveG\nateway_1lw\n95o2 -->
<g id="edge8" class="edge">
<title>Task_0acy2\nki&#45;&gt;ExclusiveG\nateway_1lw\n95o2</title>
<path fill="none" stroke="black" d="M187.88,-361.85C209,-350.64 233.34,-337.74 252.79,-327.43"/>
<polygon fill="black" stroke="black" points="254.43,-330.52 261.63,-322.74 251.15,-324.34 254.43,-330.52"/>
</g>
<!-- Task_1i210\nlu&#45;&gt;Task_01w0a\n5e -->
<g id="edge9" class="edge">
<title>Task_1i210\nlu&#45;&gt;Task_01w0a\n5e</title>
<path fill="none" stroke="black" d="M437.79,-451.57C437.89,-443.33 437.99,-434.07 438.09,-425.27"/>
<polygon fill="black" stroke="black" points="441.59,-425.28 438.21,-415.24 434.59,-425.2 441.59,-425.28"/>
</g>
<!-- Task_0j5ov\np3 -->
<g id="node9" class="node">
<title>Task_0j5ov\np3</title>
<polygon fill="lightgrey" stroke="black" points="138.5,-733.99 138.5,-786.99 438.5,-786.99 438.5,-733.99 138.5,-733.99"/>
<text text-anchor="middle" x="180" y="-764.29" font-family="Times New Roman,serif" font-size="14.00">Task_0j5ov</text>
<text text-anchor="middle" x="180" y="-749.29" font-family="Times New Roman,serif" font-size="14.00">p3</text>
<polyline fill="none" stroke="black" points="221.5,-733.99 221.5,-786.99 "/>
<text text-anchor="middle" x="260.5" y="-771.79" font-family="Times New Roman,serif" font-size="14.00">Flugzeug:L</text>
<text text-anchor="middle" x="260.5" y="-756.79" font-family="Times New Roman,serif" font-size="14.00">ane_0ivbj2</text>
<text text-anchor="middle" x="260.5" y="-741.79" font-family="Times New Roman,serif" font-size="14.00">h</text>
<polyline fill="none" stroke="black" points="299.5,-733.99 299.5,-786.99 "/>
<text text-anchor="middle" x="369" y="-756.79" font-family="Times New Roman,serif" font-size="14.00">Gegenstand_bewegen</text>
</g>
<!-- ExclusiveG\nateway_1hu\n5b2b_Exclu\nsiveGatewa\ny_1hu5b2b -->
<g id="node11" class="node">
<title>ExclusiveG\nateway_1hu\n5b2b_Exclu\nsiveGatewa\ny_1hu5b2b</title>
<polygon fill="none" stroke="black" stroke-dasharray="5,2" points="91.5,-613.99 91.5,-696.99 485.5,-696.99 485.5,-613.99 91.5,-613.99"/>
<text text-anchor="middle" x="133.5" y="-681.79" font-family="Times New Roman,serif" font-size="14.00">ExclusiveG</text>
<text text-anchor="middle" x="133.5" y="-666.79" font-family="Times New Roman,serif" font-size="14.00">ateway_1hu</text>
<text text-anchor="middle" x="133.5" y="-651.79" font-family="Times New Roman,serif" font-size="14.00">5b2b_Exclu</text>
<text text-anchor="middle" x="133.5" y="-636.79" font-family="Times New Roman,serif" font-size="14.00">siveGatewa</text>
<text text-anchor="middle" x="133.5" y="-621.79" font-family="Times New Roman,serif" font-size="14.00">y_1hu5b2b</text>
<polyline fill="none" stroke="black" stroke-dasharray="5,2" points="175.5,-613.99 175.5,-696.99 "/>
<text text-anchor="middle" x="214.5" y="-666.79" font-family="Times New Roman,serif" font-size="14.00">Flugzeug:L</text>
<text text-anchor="middle" x="214.5" y="-651.79" font-family="Times New Roman,serif" font-size="14.00">ane_0ivbj2</text>
<text text-anchor="middle" x="214.5" y="-636.79" font-family="Times New Roman,serif" font-size="14.00">h</text>
<polyline fill="none" stroke="black" stroke-dasharray="5,2" points="253.5,-613.99 253.5,-696.99 "/>
<text text-anchor="middle" x="369.5" y="-666.79" font-family="Times New Roman,serif" font-size="14.00">Transitgepäck?_/_SPLIT: </text>
<text text-anchor="middle" x="369.5" y="-651.79" font-family="Times New Roman,serif" font-size="14.00"> XOR (Inclusives_Gateway_/_SPLIT)</text>
<text text-anchor="middle" x="369.5" y="-636.79" font-family="Times New Roman,serif" font-size="14.00"> XOR (Sonstige_Tasks)with dead end</text>
</g>
<!-- Task_0j5ov\np3&#45;&gt;ExclusiveG\nateway_1hu\n5b2b_Exclu\nsiveGatewa\ny_1hu5b2b -->
<g id="edge10" class="edge">
<title>Task_0j5ov\np3&#45;&gt;ExclusiveG\nateway_1hu\n5b2b_Exclu\nsiveGatewa\ny_1hu5b2b</title>
<path fill="none" stroke="black" d="M288.5,-733.77C288.5,-725.72 288.5,-716.53 288.5,-707.37"/>
<polygon fill="black" stroke="black" points="292,-707.1 288.5,-697.1 285,-707.1 292,-707.1"/>
</g>
<!-- ExclusiveG\nateway_1hu\n5b2b_Exclu\nsiveGatewa\ny_1hu5b2b&#45;&gt;ExclusiveG\nateway_0hg\n4rss -->
<g id="edge11" class="edge">
<title>ExclusiveG\nateway_1hu\n5b2b_Exclu\nsiveGatewa\ny_1hu5b2b&#45;&gt;ExclusiveG\nateway_0hg\n4rss</title>
<path fill="none" stroke="black" d="M288.5,-613.81C288.5,-604.98 288.5,-595.84 288.5,-587.68"/>
<polygon fill="black" stroke="black" points="292,-587.63 288.5,-577.63 285,-587.63 292,-587.63"/>
</g>
<!-- StartEvent\n_12 -->
<g id="node12" class="node">
<title>StartEvent\n_12</title>
<ellipse fill="lightgrey" stroke="black" cx="288.5" cy="-851.44" rx="27.9" ry="27.9"/>
<text text-anchor="middle" x="288.5" y="-847.74" font-family="Times New Roman,serif" font-size="14.00">Start</text>
</g>
<!-- StartEvent\n_12&#45;&gt;Task_0j5ov\np3 -->
<g id="edge12" class="edge">
<title>StartEvent\n_12&#45;&gt;Task_0j5ov\np3</title>
<path fill="none" stroke="black" d="M288.5,-823.27C288.5,-815.14 288.5,-806.08 288.5,-797.47"/>
<polygon fill="black" stroke="black" points="292,-797.28 288.5,-787.28 285,-797.28 292,-797.28"/>
</g>
</g>
</svg>
