<svg width="600px" height="1530px"
 viewBox="0.00 0.00 568.69 1451.39" xmlns="http://www.w3.org/2000/svg" xmlns:xlink="http://www.w3.org/1999/xlink">
<g id="graph0" class="graph" transform="scale(1.0 1.0) rotate(0) translate(4 1447.39)">
<title>24_Passagierabfertigung_Weiterflug&#45;Check&#45;In</title>
<polygon fill="white" stroke="transparent" points="-4,4 -4,-1447.39 564.69,-1447.39 564.69,4 -4,4"/>
<!-- Task_0ntjn\nz5 -->
<g id="node1" class="node">
<title>Task_0ntjn\nz5</title>
<polygon fill="lightgrey" stroke="black" points="169.34,-1117.99 169.34,-1170.99 391.34,-1170.99 391.34,-1117.99 169.34,-1117.99"/>
<text text-anchor="middle" x="208.84" y="-1148.29" font-family="Times New Roman,serif" font-size="14.00">Task_0ntjn</text>
<text text-anchor="middle" x="208.84" y="-1133.29" font-family="Times New Roman,serif" font-size="14.00">z5</text>
<polyline fill="none" stroke="black" points="248.34,-1117.99 248.34,-1170.99 "/>
<text text-anchor="middle" x="291.34" y="-1155.79" font-family="Times New Roman,serif" font-size="14.00">Passagier:</text>
<text text-anchor="middle" x="291.34" y="-1140.79" font-family="Times New Roman,serif" font-size="14.00">Lane_0dokk</text>
<text text-anchor="middle" x="291.34" y="-1125.79" font-family="Times New Roman,serif" font-size="14.00">30</text>
<polyline fill="none" stroke="black" points="334.34,-1117.99 334.34,-1170.99 "/>
<text text-anchor="middle" x="362.84" y="-1140.79" font-family="Times New Roman,serif" font-size="14.00">Warten</text>
</g>
<!-- Task_1x729\n7s -->
<g id="node3" class="node">
<title>Task_1x729\n7s</title>
<polygon fill="lightgrey" stroke="black" points="150.34,-1027.99 150.34,-1080.99 410.34,-1080.99 410.34,-1027.99 150.34,-1027.99"/>
<text text-anchor="middle" x="193.34" y="-1058.29" font-family="Times New Roman,serif" font-size="14.00">Task_1x729</text>
<text text-anchor="middle" x="193.34" y="-1043.29" font-family="Times New Roman,serif" font-size="14.00">7s</text>
<polyline fill="none" stroke="black" points="236.34,-1027.99 236.34,-1080.99 "/>
<text text-anchor="middle" x="278.84" y="-1065.79" font-family="Times New Roman,serif" font-size="14.00">Check&#45;In&#45;S</text>
<text text-anchor="middle" x="278.84" y="-1050.79" font-family="Times New Roman,serif" font-size="14.00">chalter:La</text>
<text text-anchor="middle" x="278.84" y="-1035.79" font-family="Times New Roman,serif" font-size="14.00">ne_0k6bnu5</text>
<polyline fill="none" stroke="black" points="321.34,-1027.99 321.34,-1080.99 "/>
<text text-anchor="middle" x="365.84" y="-1050.79" font-family="Times New Roman,serif" font-size="14.00">Kontrollieren</text>
</g>
<!-- Task_0ntjn\nz5&#45;&gt;Task_1x729\n7s -->
<g id="edge1" class="edge">
<title>Task_0ntjn\nz5&#45;&gt;Task_1x729\n7s</title>
<path fill="none" stroke="black" d="M280.34,-1117.57C280.34,-1109.33 280.34,-1100.07 280.34,-1091.27"/>
<polygon fill="black" stroke="black" points="283.84,-1091.24 280.34,-1081.24 276.84,-1091.24 283.84,-1091.24"/>
</g>
<!-- ExclusiveG\nateway_08l\nmd27 -->
<g id="node2" class="node">
<title>ExclusiveG\nateway_08l\nmd27</title>
<polygon fill="lightgrey" stroke="black" points="280.34,-325.49 114.11,-307.49 280.34,-289.49 446.58,-307.49 280.34,-325.49"/>
<text text-anchor="middle" x="280.34" y="-303.79" font-family="Times New Roman,serif" font-size="14.00">Gepäck_vorhanden?_/_JOIN</text>
</g>
<!-- Task_1xz00\n7z -->
<g id="node8" class="node">
<title>Task_1xz00\n7z</title>
<polygon fill="lightgrey" stroke="black" points="138.84,-199.99 138.84,-252.99 421.84,-252.99 421.84,-199.99 138.84,-199.99"/>
<text text-anchor="middle" x="181.34" y="-230.29" font-family="Times New Roman,serif" font-size="14.00">Task_1xz00</text>
<text text-anchor="middle" x="181.34" y="-215.29" font-family="Times New Roman,serif" font-size="14.00">7z</text>
<polyline fill="none" stroke="black" points="223.84,-199.99 223.84,-252.99 "/>
<text text-anchor="middle" x="266.84" y="-237.79" font-family="Times New Roman,serif" font-size="14.00">Passagier:</text>
<text text-anchor="middle" x="266.84" y="-222.79" font-family="Times New Roman,serif" font-size="14.00">Lane_0dokk</text>
<text text-anchor="middle" x="266.84" y="-207.79" font-family="Times New Roman,serif" font-size="14.00">30</text>
<polyline fill="none" stroke="black" points="309.84,-199.99 309.84,-252.99 "/>
<text text-anchor="middle" x="365.84" y="-222.79" font-family="Times New Roman,serif" font-size="14.00">Person_bewegen</text>
</g>
<!-- ExclusiveG\nateway_08l\nmd27&#45;&gt;Task_1xz00\n7z -->
<g id="edge2" class="edge">
<title>ExclusiveG\nateway_08l\nmd27&#45;&gt;Task_1xz00\n7z</title>
<path fill="none" stroke="black" d="M280.34,-289.35C280.34,-281.64 280.34,-272.23 280.34,-263.09"/>
<polygon fill="black" stroke="black" points="283.84,-263.01 280.34,-253.01 276.84,-263.01 283.84,-263.01"/>
</g>
<!-- Task_0kzw4\nfn -->
<g id="node7" class="node">
<title>Task_0kzw4\nfn</title>
<polygon fill="lightgrey" stroke="black" points="140.84,-937.99 140.84,-990.99 419.84,-990.99 419.84,-937.99 140.84,-937.99"/>
<text text-anchor="middle" x="184.84" y="-968.29" font-family="Times New Roman,serif" font-size="14.00">Task_0kzw4</text>
<text text-anchor="middle" x="184.84" y="-953.29" font-family="Times New Roman,serif" font-size="14.00">fn</text>
<polyline fill="none" stroke="black" points="228.84,-937.99 228.84,-990.99 "/>
<text text-anchor="middle" x="271.34" y="-975.79" font-family="Times New Roman,serif" font-size="14.00">Check&#45;In&#45;S</text>
<text text-anchor="middle" x="271.34" y="-960.79" font-family="Times New Roman,serif" font-size="14.00">chalter:La</text>
<text text-anchor="middle" x="271.34" y="-945.79" font-family="Times New Roman,serif" font-size="14.00">ne_0k6bnu5</text>
<polyline fill="none" stroke="black" points="313.84,-937.99 313.84,-990.99 "/>
<text text-anchor="middle" x="366.84" y="-960.79" font-family="Times New Roman,serif" font-size="14.00">Sonstige_Tasks</text>
</g>
<!-- Task_1x729\n7s&#45;&gt;Task_0kzw4\nfn -->
<g id="edge3" class="edge">
<title>Task_1x729\n7s&#45;&gt;Task_0kzw4\nfn</title>
<path fill="none" stroke="black" d="M280.34,-1027.57C280.34,-1019.33 280.34,-1010.07 280.34,-1001.27"/>
<polygon fill="black" stroke="black" points="283.84,-1001.24 280.34,-991.24 276.84,-1001.24 283.84,-1001.24"/>
</g>
<!-- Task_1bb9n\nar -->
<g id="node4" class="node">
<title>Task_1bb9n\nar</title>
<polygon fill="lightgrey" stroke="black" points="216.84,-361.99 216.84,-414.99 527.84,-414.99 527.84,-361.99 216.84,-361.99"/>
<text text-anchor="middle" x="260.34" y="-392.29" font-family="Times New Roman,serif" font-size="14.00">Task_1bb9n</text>
<text text-anchor="middle" x="260.34" y="-377.29" font-family="Times New Roman,serif" font-size="14.00">ar</text>
<polyline fill="none" stroke="black" points="303.84,-361.99 303.84,-414.99 "/>
<text text-anchor="middle" x="346.34" y="-399.79" font-family="Times New Roman,serif" font-size="14.00">Check&#45;In&#45;S</text>
<text text-anchor="middle" x="346.34" y="-384.79" font-family="Times New Roman,serif" font-size="14.00">chalter:La</text>
<text text-anchor="middle" x="346.34" y="-369.79" font-family="Times New Roman,serif" font-size="14.00">ne_0k6bnu5</text>
<polyline fill="none" stroke="black" points="388.84,-361.99 388.84,-414.99 "/>
<text text-anchor="middle" x="458.34" y="-384.79" font-family="Times New Roman,serif" font-size="14.00">Gegenstand_bewegen</text>
</g>
<!-- Task_1bb9n\nar&#45;&gt;ExclusiveG\nateway_08l\nmd27 -->
<g id="edge4" class="edge">
<title>Task_1bb9n\nar&#45;&gt;ExclusiveG\nateway_08l\nmd27</title>
<path fill="none" stroke="black" d="M342.47,-361.85C330.65,-351.69 317.2,-340.15 305.85,-330.4"/>
<polygon fill="black" stroke="black" points="307.87,-327.52 298,-323.66 303.31,-332.83 307.87,-327.52"/>
</g>
<!-- ExclusiveG\nateway_0ok\n3ewc -->
<g id="node5" class="node">
<title>ExclusiveG\nateway_0ok\n3ewc</title>
<polygon fill="lightgrey" stroke="black" points="280.34,-487.49 106.4,-469.49 280.34,-451.49 454.28,-469.49 280.34,-487.49"/>
<text text-anchor="middle" x="280.34" y="-465.79" font-family="Times New Roman,serif" font-size="14.00">Gepäck_vorhanden?_/_SPLIT</text>
</g>
<!-- ExclusiveG\nateway_0ok\n3ewc&#45;&gt;ExclusiveG\nateway_08l\nmd27 -->
<g id="edge6" class="edge">
<title>ExclusiveG\nateway_0ok\n3ewc&#45;&gt;ExclusiveG\nateway_08l\nmd27</title>
<path fill="none" stroke="black" d="M249.17,-454.55C233.57,-445.77 216.16,-432.8 207.34,-415.49 196.44,-394.11 196.44,-382.88 207.34,-361.49 214.64,-347.19 227.8,-335.84 240.96,-327.37"/>
<polygon fill="black" stroke="black" points="242.77,-330.37 249.54,-322.22 239.17,-324.37 242.77,-330.37"/>
</g>
<!-- ExclusiveG\nateway_0ok\n3ewc&#45;&gt;Task_1bb9n\nar -->
<g id="edge5" class="edge">
<title>ExclusiveG\nateway_0ok\n3ewc&#45;&gt;Task_1bb9n\nar</title>
<path fill="none" stroke="black" d="M298.08,-453.26C308.46,-444.35 321.97,-432.75 334.62,-421.89"/>
<polygon fill="black" stroke="black" points="337.04,-424.42 342.35,-415.25 332.48,-419.11 337.04,-424.42"/>
</g>
<!-- Task_07b8e\nar -->
<g id="node6" class="node">
<title>Task_07b8e\nar</title>
<polygon fill="lightgrey" stroke="black" points="34.34,-595.99 34.34,-648.99 344.34,-648.99 344.34,-595.99 34.34,-595.99"/>
<text text-anchor="middle" x="77.34" y="-626.29" font-family="Times New Roman,serif" font-size="14.00">Task_07b8e</text>
<text text-anchor="middle" x="77.34" y="-611.29" font-family="Times New Roman,serif" font-size="14.00">ar</text>
<polyline fill="none" stroke="black" points="120.34,-595.99 120.34,-648.99 "/>
<text text-anchor="middle" x="162.84" y="-633.79" font-family="Times New Roman,serif" font-size="14.00">Check&#45;In&#45;S</text>
<text text-anchor="middle" x="162.84" y="-618.79" font-family="Times New Roman,serif" font-size="14.00">chalter:La</text>
<text text-anchor="middle" x="162.84" y="-603.79" font-family="Times New Roman,serif" font-size="14.00">ne_0k6bnu5</text>
<polyline fill="none" stroke="black" points="205.34,-595.99 205.34,-648.99 "/>
<text text-anchor="middle" x="274.84" y="-618.79" font-family="Times New Roman,serif" font-size="14.00">Dokument_bearbeiten</text>
</g>
<!-- ExclusiveG\nateway_18d\n4jv0 -->
<g id="node17" class="node">
<title>ExclusiveG\nateway_18d\n4jv0</title>
<polygon fill="lightgrey" stroke="black" points="280.34,-559.49 7.36,-541.49 280.34,-523.49 553.32,-541.49 280.34,-559.49"/>
<text text-anchor="middle" x="280.34" y="-537.79" font-family="Times New Roman,serif" font-size="14.00">Check&#45;In_für_Anschlussflug_erwünscht?_/_JOIN</text>
</g>
<!-- Task_07b8e\nar&#45;&gt;ExclusiveG\nateway_18d\n4jv0 -->
<g id="edge7" class="edge">
<title>Task_07b8e\nar&#45;&gt;ExclusiveG\nateway_18d\n4jv0</title>
<path fill="none" stroke="black" d="M218.89,-595.85C230.33,-585.91 243.31,-574.64 254.39,-565.03"/>
<polygon fill="black" stroke="black" points="256.81,-567.56 262.07,-558.36 252.22,-562.27 256.81,-567.56"/>
</g>
<!-- Task_0loff\nof -->
<g id="node16" class="node">
<title>Task_0loff\nof</title>
<polygon fill="lightgrey" stroke="black" points="129.34,-847.99 129.34,-900.99 431.34,-900.99 431.34,-847.99 129.34,-847.99"/>
<text text-anchor="middle" x="168.34" y="-878.29" font-family="Times New Roman,serif" font-size="14.00">Task_0loff</text>
<text text-anchor="middle" x="168.34" y="-863.29" font-family="Times New Roman,serif" font-size="14.00">of</text>
<polyline fill="none" stroke="black" points="207.34,-847.99 207.34,-900.99 "/>
<text text-anchor="middle" x="249.84" y="-885.79" font-family="Times New Roman,serif" font-size="14.00">Check&#45;In&#45;S</text>
<text text-anchor="middle" x="249.84" y="-870.79" font-family="Times New Roman,serif" font-size="14.00">chalter:La</text>
<text text-anchor="middle" x="249.84" y="-855.79" font-family="Times New Roman,serif" font-size="14.00">ne_0k6bnu5</text>
<polyline fill="none" stroke="black" points="292.34,-847.99 292.34,-900.99 "/>
<text text-anchor="middle" x="361.84" y="-870.79" font-family="Times New Roman,serif" font-size="14.00">Dokument_bearbeiten</text>
</g>
<!-- Task_0kzw4\nfn&#45;&gt;Task_0loff\nof -->
<g id="edge8" class="edge">
<title>Task_0kzw4\nfn&#45;&gt;Task_0loff\nof</title>
<path fill="none" stroke="black" d="M280.34,-937.57C280.34,-929.33 280.34,-920.07 280.34,-911.27"/>
<polygon fill="black" stroke="black" points="283.84,-911.24 280.34,-901.24 276.84,-911.24 283.84,-911.24"/>
</g>
<!-- Task_099mm\nhh -->
<g id="node11" class="node">
<title>Task_099mm\nhh</title>
<polygon fill="lightgrey" stroke="black" points="137.84,-94.99 137.84,-162.99 422.84,-162.99 422.84,-94.99 137.84,-94.99"/>
<text text-anchor="middle" x="184.34" y="-132.79" font-family="Times New Roman,serif" font-size="14.00">Task_099mm</text>
<text text-anchor="middle" x="184.34" y="-117.79" font-family="Times New Roman,serif" font-size="14.00">hh</text>
<polyline fill="none" stroke="black" points="230.84,-94.99 230.84,-162.99 "/>
<text text-anchor="middle" x="270.84" y="-147.79" font-family="Times New Roman,serif" font-size="14.00">Sicherheit</text>
<text text-anchor="middle" x="270.84" y="-132.79" font-family="Times New Roman,serif" font-size="14.00">sbereich:L</text>
<text text-anchor="middle" x="270.84" y="-117.79" font-family="Times New Roman,serif" font-size="14.00">ane_1tgz42</text>
<text text-anchor="middle" x="270.84" y="-102.79" font-family="Times New Roman,serif" font-size="14.00">h</text>
<polyline fill="none" stroke="black" points="310.84,-94.99 310.84,-162.99 "/>
<text text-anchor="middle" x="366.84" y="-125.29" font-family="Times New Roman,serif" font-size="14.00">Person_bewegen</text>
</g>
<!-- Task_1xz00\n7z&#45;&gt;Task_099mm\nhh -->
<g id="edge9" class="edge">
<title>Task_1xz00\n7z&#45;&gt;Task_099mm\nhh</title>
<path fill="none" stroke="black" d="M280.34,-199.9C280.34,-191.71 280.34,-182.41 280.34,-173.32"/>
<polygon fill="black" stroke="black" points="283.84,-173.22 280.34,-163.22 276.84,-173.22 283.84,-173.22"/>
</g>
<!-- EndEvent_1\n3i2cdm -->
<g id="node9" class="node">
<title>EndEvent_1\n3i2cdm</title>
<ellipse fill="lightgrey" stroke="black" cx="280.34" cy="-29.25" rx="29.5" ry="29.5"/>
<text text-anchor="middle" x="280.34" y="-25.55" font-family="Times New Roman,serif" font-size="14.00">Ende</text>
</g>
<!-- Task_1xlid\nyg -->
<g id="node10" class="node">
<title>Task_1xlid\nyg</title>
<polygon fill="lightgrey" stroke="black" points="64.34,-685.99 64.34,-738.99 334.34,-738.99 334.34,-685.99 64.34,-685.99"/>
<text text-anchor="middle" x="103.84" y="-716.29" font-family="Times New Roman,serif" font-size="14.00">Task_1xlid</text>
<text text-anchor="middle" x="103.84" y="-701.29" font-family="Times New Roman,serif" font-size="14.00">yg</text>
<polyline fill="none" stroke="black" points="143.34,-685.99 143.34,-738.99 "/>
<text text-anchor="middle" x="185.84" y="-723.79" font-family="Times New Roman,serif" font-size="14.00">Check&#45;In&#45;S</text>
<text text-anchor="middle" x="185.84" y="-708.79" font-family="Times New Roman,serif" font-size="14.00">chalter:La</text>
<text text-anchor="middle" x="185.84" y="-693.79" font-family="Times New Roman,serif" font-size="14.00">ne_0k6bnu5</text>
<polyline fill="none" stroke="black" points="228.34,-685.99 228.34,-738.99 "/>
<text text-anchor="middle" x="281.34" y="-708.79" font-family="Times New Roman,serif" font-size="14.00">Sonstige_Tasks</text>
</g>
<!-- Task_1xlid\nyg&#45;&gt;Task_07b8e\nar -->
<g id="edge10" class="edge">
<title>Task_1xlid\nyg&#45;&gt;Task_07b8e\nar</title>
<path fill="none" stroke="black" d="M196.4,-685.57C195.46,-677.33 194.41,-668.07 193.41,-659.27"/>
<polygon fill="black" stroke="black" points="196.87,-658.78 192.27,-649.24 189.92,-659.57 196.87,-658.78"/>
</g>
<!-- Task_099mm\nhh&#45;&gt;EndEvent_1\n3i2cdm -->
<g id="edge11" class="edge">
<title>Task_099mm\nhh&#45;&gt;EndEvent_1\n3i2cdm</title>
<path fill="none" stroke="black" d="M280.34,-94.9C280.34,-86.55 280.34,-77.52 280.34,-68.92"/>
<polygon fill="black" stroke="black" points="283.84,-68.73 280.34,-58.73 276.84,-68.73 283.84,-68.73"/>
</g>
<!-- Task_09qg0\nm0 -->
<g id="node12" class="node">
<title>Task_09qg0\nm0</title>
<polygon fill="lightgrey" stroke="black" points="138.34,-1297.99 138.34,-1350.99 422.34,-1350.99 422.34,-1297.99 138.34,-1297.99"/>
<text text-anchor="middle" x="181.34" y="-1328.29" font-family="Times New Roman,serif" font-size="14.00">Task_09qg0</text>
<text text-anchor="middle" x="181.34" y="-1313.29" font-family="Times New Roman,serif" font-size="14.00">m0</text>
<polyline fill="none" stroke="black" points="224.34,-1297.99 224.34,-1350.99 "/>
<text text-anchor="middle" x="267.34" y="-1335.79" font-family="Times New Roman,serif" font-size="14.00">Passagier:</text>
<text text-anchor="middle" x="267.34" y="-1320.79" font-family="Times New Roman,serif" font-size="14.00">Lane_0dokk</text>
<text text-anchor="middle" x="267.34" y="-1305.79" font-family="Times New Roman,serif" font-size="14.00">30</text>
<polyline fill="none" stroke="black" points="310.34,-1297.99 310.34,-1350.99 "/>
<text text-anchor="middle" x="366.34" y="-1320.79" font-family="Times New Roman,serif" font-size="14.00">Person_bewegen</text>
</g>
<!-- Task_1dn72\nwv -->
<g id="node14" class="node">
<title>Task_1dn72\nwv</title>
<polygon fill="lightgrey" stroke="black" points="109.34,-1207.99 109.34,-1260.99 451.34,-1260.99 451.34,-1207.99 109.34,-1207.99"/>
<text text-anchor="middle" x="152.34" y="-1238.29" font-family="Times New Roman,serif" font-size="14.00">Task_1dn72</text>
<text text-anchor="middle" x="152.34" y="-1223.29" font-family="Times New Roman,serif" font-size="14.00">wv</text>
<polyline fill="none" stroke="black" points="195.34,-1207.99 195.34,-1260.99 "/>
<text text-anchor="middle" x="238.34" y="-1245.79" font-family="Times New Roman,serif" font-size="14.00">Passagier:</text>
<text text-anchor="middle" x="238.34" y="-1230.79" font-family="Times New Roman,serif" font-size="14.00">Lane_0dokk</text>
<text text-anchor="middle" x="238.34" y="-1215.79" font-family="Times New Roman,serif" font-size="14.00">30</text>
<polyline fill="none" stroke="black" points="281.34,-1207.99 281.34,-1260.99 "/>
<text text-anchor="middle" x="366.34" y="-1230.79" font-family="Times New Roman,serif" font-size="14.00">Flughafenbereich_erreichen</text>
</g>
<!-- Task_09qg0\nm0&#45;&gt;Task_1dn72\nwv -->
<g id="edge12" class="edge">
<title>Task_09qg0\nm0&#45;&gt;Task_1dn72\nwv</title>
<path fill="none" stroke="black" d="M280.34,-1297.57C280.34,-1289.33 280.34,-1280.07 280.34,-1271.27"/>
<polygon fill="black" stroke="black" points="283.84,-1271.24 280.34,-1261.24 276.84,-1271.24 283.84,-1271.24"/>
</g>
<!-- ExclusiveG\nateway_0ex\nfn2e -->
<g id="node13" class="node">
<title>ExclusiveG\nateway_0ex\nfn2e</title>
<polygon fill="lightgrey" stroke="black" points="280.34,-811.49 0.16,-793.49 280.34,-775.49 560.53,-793.49 280.34,-811.49"/>
<text text-anchor="middle" x="280.34" y="-789.79" font-family="Times New Roman,serif" font-size="14.00">Check&#45;In_für_Anschlussflug_erwünscht?_/_SPLIT</text>
</g>
<!-- ExclusiveG\nateway_0ex\nfn2e&#45;&gt;Task_1xlid\nyg -->
<g id="edge14" class="edge">
<title>ExclusiveG\nateway_0ex\nfn2e&#45;&gt;Task_1xlid\nyg</title>
<path fill="none" stroke="black" d="M263.95,-776.51C255.01,-767.79 243.61,-756.67 232.88,-746.2"/>
<polygon fill="black" stroke="black" points="235.2,-743.58 225.6,-739.1 230.31,-748.59 235.2,-743.58"/>
</g>
<!-- ExclusiveG\nateway_0ex\nfn2e&#45;&gt;ExclusiveG\nateway_18d\n4jv0 -->
<g id="edge13" class="edge">
<title>ExclusiveG\nateway_0ex\nfn2e&#45;&gt;ExclusiveG\nateway_18d\n4jv0</title>
<path fill="none" stroke="black" d="M306.98,-777C320.19,-767.84 335.05,-755 343.34,-739.49 373.59,-682.92 382.48,-652.65 353.34,-595.49 346.47,-582 334.37,-571.14 321.98,-562.85"/>
<polygon fill="black" stroke="black" points="323.75,-559.83 313.41,-557.52 320.05,-565.77 323.75,-559.83"/>
</g>
<!-- Task_1dn72\nwv&#45;&gt;Task_0ntjn\nz5 -->
<g id="edge15" class="edge">
<title>Task_1dn72\nwv&#45;&gt;Task_0ntjn\nz5</title>
<path fill="none" stroke="black" d="M280.34,-1207.57C280.34,-1199.33 280.34,-1190.07 280.34,-1181.27"/>
<polygon fill="black" stroke="black" points="283.84,-1181.24 280.34,-1171.24 276.84,-1181.24 283.84,-1181.24"/>
</g>
<!-- StartEvent\n_24 -->
<g id="node15" class="node">
<title>StartEvent\n_24</title>
<ellipse fill="lightgrey" stroke="black" cx="280.34" cy="-1415.44" rx="27.9" ry="27.9"/>
<text text-anchor="middle" x="280.34" y="-1411.74" font-family="Times New Roman,serif" font-size="14.00">Start</text>
</g>
<!-- StartEvent\n_24&#45;&gt;Task_09qg0\nm0 -->
<g id="edge16" class="edge">
<title>StartEvent\n_24&#45;&gt;Task_09qg0\nm0</title>
<path fill="none" stroke="black" d="M280.34,-1387.27C280.34,-1379.14 280.34,-1370.08 280.34,-1361.47"/>
<polygon fill="black" stroke="black" points="283.84,-1361.28 280.34,-1351.28 276.84,-1361.28 283.84,-1361.28"/>
</g>
<!-- Task_0loff\nof&#45;&gt;ExclusiveG\nateway_0ex\nfn2e -->
<g id="edge17" class="edge">
<title>Task_0loff\nof&#45;&gt;ExclusiveG\nateway_0ex\nfn2e</title>
<path fill="none" stroke="black" d="M280.34,-847.63C280.34,-839.4 280.34,-830.28 280.34,-821.94"/>
<polygon fill="black" stroke="black" points="283.84,-821.94 280.34,-811.94 276.84,-821.94 283.84,-821.94"/>
</g>
<!-- ExclusiveG\nateway_18d\n4jv0&#45;&gt;ExclusiveG\nateway_0ok\n3ewc -->
<g id="edge18" class="edge">
<title>ExclusiveG\nateway_18d\n4jv0&#45;&gt;ExclusiveG\nateway_0ok\n3ewc</title>
<path fill="none" stroke="black" d="M280.34,-523.19C280.34,-515.48 280.34,-506.21 280.34,-497.61"/>
<polygon fill="black" stroke="black" points="283.84,-497.6 280.34,-487.6 276.84,-497.6 283.84,-497.6"/>
</g>
</g>
</svg>
