<svg width="568px" height="1000px"
 viewBox="0.00 0.00 444.22 782.39" xmlns="http://www.w3.org/2000/svg" xmlns:xlink="http://www.w3.org/1999/xlink">
<g id="graph0" class="graph" transform="scale(1.0 1.0) rotate(0) translate(4 778.39)">
<title>03_Passagierabfertigung_andere_Medien_und_Gep채ckschalter</title>
<polygon fill="white" stroke="transparent" points="-4,4 -4,-778.39 440.22,-778.39 440.22,4 -4,4"/>
<!-- Task_05c0i\nwj -->
<g id="node1" class="node">
<title>Task_05c0i\nwj</title>
<polygon fill="lightgrey" stroke="black" points="111.22,-361.99 111.22,-429.99 418.22,-429.99 418.22,-361.99 111.22,-361.99"/>
<text text-anchor="middle" x="152.22" y="-399.79" font-family="Times New Roman,serif" font-size="14.00">Task_05c0i</text>
<text text-anchor="middle" x="152.22" y="-384.79" font-family="Times New Roman,serif" font-size="14.00">wj</text>
<polyline fill="none" stroke="black" points="193.22,-361.99 193.22,-429.99 "/>
<text text-anchor="middle" x="236.22" y="-414.79" font-family="Times New Roman,serif" font-size="14.00">Gep채ckanna</text>
<text text-anchor="middle" x="236.22" y="-399.79" font-family="Times New Roman,serif" font-size="14.00">hmeschalte</text>
<text text-anchor="middle" x="236.22" y="-384.79" font-family="Times New Roman,serif" font-size="14.00">r:Lane_0ol</text>
<text text-anchor="middle" x="236.22" y="-369.79" font-family="Times New Roman,serif" font-size="14.00">som3</text>
<polyline fill="none" stroke="black" points="279.22,-361.99 279.22,-429.99 "/>
<text text-anchor="middle" x="348.72" y="-392.29" font-family="Times New Roman,serif" font-size="14.00">Gegenstand_bewegen</text>
</g>
<!-- ExclusiveG\nateway_0eu\njdct -->
<g id="node6" class="node">
<title>ExclusiveG\nateway_0eu\njdct</title>
<polygon fill="lightgrey" stroke="black" points="167.72,-325.49 1.49,-307.49 167.72,-289.49 333.96,-307.49 167.72,-325.49"/>
<text text-anchor="middle" x="167.72" y="-303.79" font-family="Times New Roman,serif" font-size="14.00">Gep채ck_vorhanden?_/_JOIN</text>
</g>
<!-- Task_05c0i\nwj&#45;&gt;ExclusiveG\nateway_0eu\njdct -->
<g id="edge1" class="edge">
<title>Task_05c0i\nwj&#45;&gt;ExclusiveG\nateway_0eu\njdct</title>
<path fill="none" stroke="black" d="M227.5,-361.8C215.83,-351.4 203.24,-340.17 192.64,-330.72"/>
<polygon fill="black" stroke="black" points="194.76,-327.92 184.97,-323.88 190.11,-333.15 194.76,-327.92"/>
</g>
<!-- StartEvent\n_3 -->
<g id="node2" class="node">
<title>StartEvent\n_3</title>
<ellipse fill="lightgrey" stroke="black" cx="173.72" cy="-746.44" rx="27.9" ry="27.9"/>
<text text-anchor="middle" x="173.72" y="-742.74" font-family="Times New Roman,serif" font-size="14.00">Start</text>
</g>
<!-- Task_1ofny\npx -->
<g id="node4" class="node">
<title>Task_1ofny\npx</title>
<polygon fill="lightgrey" stroke="black" points="35.22,-628.99 35.22,-681.99 312.22,-681.99 312.22,-628.99 35.22,-628.99"/>
<text text-anchor="middle" x="77.22" y="-659.29" font-family="Times New Roman,serif" font-size="14.00">Task_1ofny</text>
<text text-anchor="middle" x="77.22" y="-644.29" font-family="Times New Roman,serif" font-size="14.00">px</text>
<polyline fill="none" stroke="black" points="119.22,-628.99 119.22,-681.99 "/>
<text text-anchor="middle" x="159.72" y="-666.79" font-family="Times New Roman,serif" font-size="14.00">Passagier:</text>
<text text-anchor="middle" x="159.72" y="-651.79" font-family="Times New Roman,serif" font-size="14.00">Lane_0clky</text>
<text text-anchor="middle" x="159.72" y="-636.79" font-family="Times New Roman,serif" font-size="14.00">wt</text>
<polyline fill="none" stroke="black" points="200.22,-628.99 200.22,-681.99 "/>
<text text-anchor="middle" x="256.22" y="-651.79" font-family="Times New Roman,serif" font-size="14.00">Person_bewegen</text>
</g>
<!-- StartEvent\n_3&#45;&gt;Task_1ofny\npx -->
<g id="edge2" class="edge">
<title>StartEvent\n_3&#45;&gt;Task_1ofny\npx</title>
<path fill="none" stroke="black" d="M173.72,-718.27C173.72,-710.14 173.72,-701.08 173.72,-692.47"/>
<polygon fill="black" stroke="black" points="177.22,-692.28 173.72,-682.28 170.22,-692.28 177.22,-692.28"/>
</g>
<!-- Task_1krxb\nmu -->
<g id="node3" class="node">
<title>Task_1krxb\nmu</title>
<polygon fill="lightgrey" stroke="black" points="29.22,-199.99 29.22,-252.99 306.22,-252.99 306.22,-199.99 29.22,-199.99"/>
<text text-anchor="middle" x="71.22" y="-230.29" font-family="Times New Roman,serif" font-size="14.00">Task_1krxb</text>
<text text-anchor="middle" x="71.22" y="-215.29" font-family="Times New Roman,serif" font-size="14.00">mu</text>
<polyline fill="none" stroke="black" points="113.22,-199.99 113.22,-252.99 "/>
<text text-anchor="middle" x="153.72" y="-237.79" font-family="Times New Roman,serif" font-size="14.00">Passagier:</text>
<text text-anchor="middle" x="153.72" y="-222.79" font-family="Times New Roman,serif" font-size="14.00">Lane_0clky</text>
<text text-anchor="middle" x="153.72" y="-207.79" font-family="Times New Roman,serif" font-size="14.00">wt</text>
<polyline fill="none" stroke="black" points="194.22,-199.99 194.22,-252.99 "/>
<text text-anchor="middle" x="250.22" y="-222.79" font-family="Times New Roman,serif" font-size="14.00">Person_bewegen</text>
</g>
<!-- Task_03gi8\ndg -->
<g id="node5" class="node">
<title>Task_03gi8\ndg</title>
<polygon fill="lightgrey" stroke="black" points="29.22,-94.99 29.22,-162.99 306.22,-162.99 306.22,-94.99 29.22,-94.99"/>
<text text-anchor="middle" x="70.22" y="-132.79" font-family="Times New Roman,serif" font-size="14.00">Task_03gi8</text>
<text text-anchor="middle" x="70.22" y="-117.79" font-family="Times New Roman,serif" font-size="14.00">dg</text>
<polyline fill="none" stroke="black" points="111.22,-94.99 111.22,-162.99 "/>
<text text-anchor="middle" x="152.72" y="-147.79" font-family="Times New Roman,serif" font-size="14.00">Sicherheit</text>
<text text-anchor="middle" x="152.72" y="-132.79" font-family="Times New Roman,serif" font-size="14.00">sbereich:L</text>
<text text-anchor="middle" x="152.72" y="-117.79" font-family="Times New Roman,serif" font-size="14.00">ane_0oz6ey</text>
<text text-anchor="middle" x="152.72" y="-102.79" font-family="Times New Roman,serif" font-size="14.00">4</text>
<polyline fill="none" stroke="black" points="194.22,-94.99 194.22,-162.99 "/>
<text text-anchor="middle" x="250.22" y="-125.29" font-family="Times New Roman,serif" font-size="14.00">Person_bewegen</text>
</g>
<!-- Task_1krxb\nmu&#45;&gt;Task_03gi8\ndg -->
<g id="edge3" class="edge">
<title>Task_1krxb\nmu&#45;&gt;Task_03gi8\ndg</title>
<path fill="none" stroke="black" d="M167.72,-199.9C167.72,-191.71 167.72,-182.41 167.72,-173.32"/>
<polygon fill="black" stroke="black" points="171.22,-173.22 167.72,-163.22 164.22,-173.22 171.22,-173.22"/>
</g>
<!-- ExclusiveG\nateway_1v4\nimvq -->
<g id="node9" class="node">
<title>ExclusiveG\nateway_1v4\nimvq</title>
<polygon fill="lightgrey" stroke="black" points="173.72,-592.49 -0.22,-574.49 173.72,-556.49 347.66,-574.49 173.72,-592.49"/>
<text text-anchor="middle" x="173.72" y="-570.79" font-family="Times New Roman,serif" font-size="14.00">Gep채ck_vorhanden?_/_SPLIT</text>
</g>
<!-- Task_1ofny\npx&#45;&gt;ExclusiveG\nateway_1v4\nimvq -->
<g id="edge4" class="edge">
<title>Task_1ofny\npx&#45;&gt;ExclusiveG\nateway_1v4\nimvq</title>
<path fill="none" stroke="black" d="M173.72,-628.63C173.72,-620.4 173.72,-611.28 173.72,-602.94"/>
<polygon fill="black" stroke="black" points="177.22,-602.94 173.72,-592.94 170.22,-602.94 177.22,-602.94"/>
</g>
<!-- EndEvent_1\ngaacf3 -->
<g id="node7" class="node">
<title>EndEvent_1\ngaacf3</title>
<ellipse fill="lightgrey" stroke="black" cx="167.72" cy="-29.25" rx="29.5" ry="29.5"/>
<text text-anchor="middle" x="167.72" y="-25.55" font-family="Times New Roman,serif" font-size="14.00">Ende</text>
</g>
<!-- Task_03gi8\ndg&#45;&gt;EndEvent_1\ngaacf3 -->
<g id="edge5" class="edge">
<title>Task_03gi8\ndg&#45;&gt;EndEvent_1\ngaacf3</title>
<path fill="none" stroke="black" d="M167.72,-94.9C167.72,-86.55 167.72,-77.52 167.72,-68.92"/>
<polygon fill="black" stroke="black" points="171.22,-68.73 167.72,-58.73 164.22,-68.73 171.22,-68.73"/>
</g>
<!-- ExclusiveG\nateway_0eu\njdct&#45;&gt;Task_1krxb\nmu -->
<g id="edge6" class="edge">
<title>ExclusiveG\nateway_0eu\njdct&#45;&gt;Task_1krxb\nmu</title>
<path fill="none" stroke="black" d="M167.72,-289.35C167.72,-281.64 167.72,-272.23 167.72,-263.09"/>
<polygon fill="black" stroke="black" points="171.22,-263.01 167.72,-253.01 164.22,-263.01 171.22,-263.01"/>
</g>
<!-- Task_02r1i\nrr -->
<g id="node8" class="node">
<title>Task_02r1i\nrr</title>
<polygon fill="lightgrey" stroke="black" points="105.22,-466.99 105.22,-519.99 436.22,-519.99 436.22,-466.99 105.22,-466.99"/>
<text text-anchor="middle" x="145.22" y="-497.29" font-family="Times New Roman,serif" font-size="14.00">Task_02r1i</text>
<text text-anchor="middle" x="145.22" y="-482.29" font-family="Times New Roman,serif" font-size="14.00">rr</text>
<polyline fill="none" stroke="black" points="185.22,-466.99 185.22,-519.99 "/>
<text text-anchor="middle" x="225.72" y="-504.79" font-family="Times New Roman,serif" font-size="14.00">Passagier:</text>
<text text-anchor="middle" x="225.72" y="-489.79" font-family="Times New Roman,serif" font-size="14.00">Lane_0clky</text>
<text text-anchor="middle" x="225.72" y="-474.79" font-family="Times New Roman,serif" font-size="14.00">wt</text>
<polyline fill="none" stroke="black" points="266.22,-466.99 266.22,-519.99 "/>
<text text-anchor="middle" x="351.22" y="-489.79" font-family="Times New Roman,serif" font-size="14.00">Flughafenbereich_erreichen</text>
</g>
<!-- Task_02r1i\nrr&#45;&gt;Task_05c0i\nwj -->
<g id="edge7" class="edge">
<title>Task_02r1i\nrr&#45;&gt;Task_05c0i\nwj</title>
<path fill="none" stroke="black" d="M269.11,-466.9C268.6,-458.71 268.01,-449.41 267.44,-440.32"/>
<polygon fill="black" stroke="black" points="270.93,-439.98 266.81,-430.22 263.94,-440.42 270.93,-439.98"/>
</g>
<!-- ExclusiveG\nateway_1v4\nimvq&#45;&gt;ExclusiveG\nateway_0eu\njdct -->
<g id="edge9" class="edge">
<title>ExclusiveG\nateway_1v4\nimvq&#45;&gt;ExclusiveG\nateway_0eu\njdct</title>
<path fill="none" stroke="black" d="M140.07,-559.85C123.52,-551.22 105.14,-538.29 95.72,-520.49 84.26,-498.85 88.77,-386.64 101.72,-361.49 108.6,-348.14 120.5,-337.01 132.32,-328.44"/>
<polygon fill="black" stroke="black" points="134.53,-331.17 140.84,-322.67 130.6,-325.38 134.53,-331.17"/>
</g>
<!-- ExclusiveG\nateway_1v4\nimvq&#45;&gt;Task_02r1i\nrr -->
<g id="edge8" class="edge">
<title>ExclusiveG\nateway_1v4\nimvq&#45;&gt;Task_02r1i\nrr</title>
<path fill="none" stroke="black" d="M192.42,-558.26C203.47,-549.27 217.88,-537.53 231.32,-526.58"/>
<polygon fill="black" stroke="black" points="233.55,-529.28 239.09,-520.25 229.13,-523.85 233.55,-529.28"/>
</g>
</g>
</svg>
