<svg width="737px" height="1000px"
 viewBox="0.00 0.00 891.50 1211.39" xmlns="http://www.w3.org/2000/svg" xmlns:xlink="http://www.w3.org/1999/xlink">
<g id="graph0" class="graph" transform="scale(1.0 1.0) rotate(0) translate(4 1207.39)">
<title>10_Abfertigung_Abflug_Zusteigergepäck</title>
<polygon fill="white" stroke="transparent" points="-4,4 -4,-1207.39 887.5,-1207.39 887.5,4 -4,4"/>
<!-- ExclusiveG\nateway_1ks\nx86y -->
<g id="node1" class="node">
<title>ExclusiveG\nateway_1ks\nx86y</title>
<polygon fill="lightgrey" stroke="black" points="438,-787.49 312.15,-769.49 438,-751.49 563.85,-769.49 438,-787.49"/>
<text text-anchor="middle" x="438" y="-765.79" font-family="Times New Roman,serif" font-size="14.00">Gepäckart?_/_SPLIT</text>
</g>
<!-- Task_0yftz\nl4 -->
<g id="node4" class="node">
<title>Task_0yftz\nl4</title>
<polygon fill="lightgrey" stroke="black" points="2,-661.99 2,-714.99 282,-714.99 282,-661.99 2,-661.99"/>
<text text-anchor="middle" x="42" y="-692.29" font-family="Times New Roman,serif" font-size="14.00">Task_0yftz</text>
<text text-anchor="middle" x="42" y="-677.29" font-family="Times New Roman,serif" font-size="14.00">l4</text>
<polyline fill="none" stroke="black" points="82,-661.99 82,-714.99 "/>
<text text-anchor="middle" x="124" y="-699.79" font-family="Times New Roman,serif" font-size="14.00">Check&#45;In_S</text>
<text text-anchor="middle" x="124" y="-684.79" font-family="Times New Roman,serif" font-size="14.00">chalter:La</text>
<text text-anchor="middle" x="124" y="-669.79" font-family="Times New Roman,serif" font-size="14.00">ne_0p66ssc</text>
<polyline fill="none" stroke="black" points="166,-661.99 166,-714.99 "/>
<text text-anchor="middle" x="224" y="-684.79" font-family="Times New Roman,serif" font-size="14.00">Gepäck_bewegen</text>
</g>
<!-- ExclusiveG\nateway_1ks\nx86y&#45;&gt;Task_0yftz\nl4 -->
<g id="edge3" class="edge">
<title>ExclusiveG\nateway_1ks\nx86y&#45;&gt;Task_0yftz\nl4</title>
<path fill="none" stroke="black" d="M396.22,-757.34C357.67,-747.05 298.79,-731.34 247.41,-717.63"/>
<polygon fill="black" stroke="black" points="248.14,-714.2 237.58,-715 246.33,-720.96 248.14,-714.2"/>
</g>
<!-- Task_0vo92\nnb -->
<g id="node15" class="node">
<title>Task_0vo92\nnb</title>
<polygon fill="lightgrey" stroke="black" points="300,-661.99 300,-714.99 576,-714.99 576,-661.99 300,-661.99"/>
<text text-anchor="middle" x="343" y="-692.29" font-family="Times New Roman,serif" font-size="14.00">Task_0vo92</text>
<text text-anchor="middle" x="343" y="-677.29" font-family="Times New Roman,serif" font-size="14.00">nb</text>
<polyline fill="none" stroke="black" points="386,-661.99 386,-714.99 "/>
<text text-anchor="middle" x="428" y="-699.79" font-family="Times New Roman,serif" font-size="14.00">Check&#45;In_S</text>
<text text-anchor="middle" x="428" y="-684.79" font-family="Times New Roman,serif" font-size="14.00">chalter:La</text>
<text text-anchor="middle" x="428" y="-669.79" font-family="Times New Roman,serif" font-size="14.00">ne_0p66ssc</text>
<polyline fill="none" stroke="black" points="470,-661.99 470,-714.99 "/>
<text text-anchor="middle" x="523" y="-684.79" font-family="Times New Roman,serif" font-size="14.00">Sonstige_Tasks</text>
</g>
<!-- ExclusiveG\nateway_1ks\nx86y&#45;&gt;Task_0vo92\nnb -->
<g id="edge2" class="edge">
<title>ExclusiveG\nateway_1ks\nx86y&#45;&gt;Task_0vo92\nnb</title>
<path fill="none" stroke="black" d="M438,-751.35C438,-743.64 438,-734.23 438,-725.09"/>
<polygon fill="black" stroke="black" points="441.5,-725.01 438,-715.01 434.5,-725.01 441.5,-725.01"/>
</g>
<!-- Task_0ydcw\njt -->
<g id="node20" class="node">
<title>Task_0ydcw\njt</title>
<polygon fill="lightgrey" stroke="black" points="594.5,-661.99 594.5,-714.99 883.5,-714.99 883.5,-661.99 594.5,-661.99"/>
<text text-anchor="middle" x="639" y="-692.29" font-family="Times New Roman,serif" font-size="14.00">Task_0ydcw</text>
<text text-anchor="middle" x="639" y="-677.29" font-family="Times New Roman,serif" font-size="14.00">jt</text>
<polyline fill="none" stroke="black" points="683.5,-661.99 683.5,-714.99 "/>
<text text-anchor="middle" x="725.5" y="-699.79" font-family="Times New Roman,serif" font-size="14.00">Check&#45;In_S</text>
<text text-anchor="middle" x="725.5" y="-684.79" font-family="Times New Roman,serif" font-size="14.00">chalter:La</text>
<text text-anchor="middle" x="725.5" y="-669.79" font-family="Times New Roman,serif" font-size="14.00">ne_0p66ssc</text>
<polyline fill="none" stroke="black" points="767.5,-661.99 767.5,-714.99 "/>
<text text-anchor="middle" x="825.5" y="-684.79" font-family="Times New Roman,serif" font-size="14.00">Gepäck_bewegen</text>
</g>
<!-- ExclusiveG\nateway_1ks\nx86y&#45;&gt;Task_0ydcw\njt -->
<g id="edge1" class="edge">
<title>ExclusiveG\nateway_1ks\nx86y&#45;&gt;Task_0ydcw\njt</title>
<path fill="none" stroke="black" d="M480.17,-757.43C519.39,-747.13 579.49,-731.36 631.91,-717.6"/>
<polygon fill="black" stroke="black" points="632.82,-720.98 641.6,-715.06 631.04,-714.21 632.82,-720.98"/>
</g>
<!-- Task_1i4hq\nrb -->
<g id="node2" class="node">
<title>Task_1i4hq\nrb</title>
<polygon fill="lightgrey" stroke="black" points="0.5,-361.99 0.5,-429.99 283.5,-429.99 283.5,-361.99 0.5,-361.99"/>
<text text-anchor="middle" x="42" y="-399.79" font-family="Times New Roman,serif" font-size="14.00">Task_1i4hq</text>
<text text-anchor="middle" x="42" y="-384.79" font-family="Times New Roman,serif" font-size="14.00">rb</text>
<polyline fill="none" stroke="black" points="83.5,-361.99 83.5,-429.99 "/>
<text text-anchor="middle" x="125.5" y="-414.79" font-family="Times New Roman,serif" font-size="14.00">Gepäckförd</text>
<text text-anchor="middle" x="125.5" y="-399.79" font-family="Times New Roman,serif" font-size="14.00">eranlage:L</text>
<text text-anchor="middle" x="125.5" y="-384.79" font-family="Times New Roman,serif" font-size="14.00">ane_1qgbka</text>
<text text-anchor="middle" x="125.5" y="-369.79" font-family="Times New Roman,serif" font-size="14.00">p</text>
<polyline fill="none" stroke="black" points="167.5,-361.99 167.5,-429.99 "/>
<text text-anchor="middle" x="225.5" y="-392.29" font-family="Times New Roman,serif" font-size="14.00">Gepäck_bewegen</text>
</g>
<!-- ExclusiveG\nateway_0iz\nox4h -->
<g id="node11" class="node">
<title>ExclusiveG\nateway_0iz\nox4h</title>
<polygon fill="lightgrey" stroke="black" points="448,-325.49 329.36,-307.49 448,-289.49 566.64,-307.49 448,-325.49"/>
<text text-anchor="middle" x="448" y="-303.79" font-family="Times New Roman,serif" font-size="14.00">Gepäckart?_/_JOIN</text>
</g>
<!-- Task_1i4hq\nrb&#45;&gt;ExclusiveG\nateway_0iz\nox4h -->
<g id="edge4" class="edge">
<title>Task_1i4hq\nrb&#45;&gt;ExclusiveG\nateway_0iz\nox4h</title>
<path fill="none" stroke="black" d="M259,-361.92C307.63,-348.18 361.41,-332.97 399.12,-322.31"/>
<polygon fill="black" stroke="black" points="400.16,-325.65 408.83,-319.57 398.26,-318.92 400.16,-325.65"/>
</g>
<!-- EndEvent_0\nfhwvkf -->
<g id="node3" class="node">
<title>EndEvent_0\nfhwvkf</title>
<ellipse fill="lightgrey" stroke="black" cx="448" cy="-29.25" rx="29.5" ry="29.5"/>
<text text-anchor="middle" x="448" y="-25.55" font-family="Times New Roman,serif" font-size="14.00">Ende</text>
</g>
<!-- Task_14aa2\n8m -->
<g id="node6" class="node">
<title>Task_14aa2\n8m</title>
<polygon fill="lightgrey" stroke="black" points="0,-571.99 0,-624.99 284,-624.99 284,-571.99 0,-571.99"/>
<text text-anchor="middle" x="42" y="-602.29" font-family="Times New Roman,serif" font-size="14.00">Task_14aa2</text>
<text text-anchor="middle" x="42" y="-587.29" font-family="Times New Roman,serif" font-size="14.00">8m</text>
<polyline fill="none" stroke="black" points="84,-571.99 84,-624.99 "/>
<text text-anchor="middle" x="126" y="-609.79" font-family="Times New Roman,serif" font-size="14.00">Check&#45;In_S</text>
<text text-anchor="middle" x="126" y="-594.79" font-family="Times New Roman,serif" font-size="14.00">chalter:La</text>
<text text-anchor="middle" x="126" y="-579.79" font-family="Times New Roman,serif" font-size="14.00">ne_0p66ssc</text>
<polyline fill="none" stroke="black" points="168,-571.99 168,-624.99 "/>
<text text-anchor="middle" x="226" y="-594.79" font-family="Times New Roman,serif" font-size="14.00">Gepäck_bewegen</text>
</g>
<!-- Task_0yftz\nl4&#45;&gt;Task_14aa2\n8m -->
<g id="edge5" class="edge">
<title>Task_0yftz\nl4&#45;&gt;Task_14aa2\n8m</title>
<path fill="none" stroke="black" d="M142,-661.57C142,-653.33 142,-644.07 142,-635.27"/>
<polygon fill="black" stroke="black" points="145.5,-635.24 142,-625.24 138.5,-635.24 145.5,-635.24"/>
</g>
<!-- Task_1ya56\n6i -->
<g id="node5" class="node">
<title>Task_1ya56\n6i</title>
<polygon fill="lightgrey" stroke="black" points="306,-94.99 306,-147.99 590,-147.99 590,-94.99 306,-94.99"/>
<text text-anchor="middle" x="348.5" y="-125.29" font-family="Times New Roman,serif" font-size="14.00">Task_1ya56</text>
<text text-anchor="middle" x="348.5" y="-110.29" font-family="Times New Roman,serif" font-size="14.00">6i</text>
<polyline fill="none" stroke="black" points="391,-94.99 391,-147.99 "/>
<text text-anchor="middle" x="432.5" y="-132.79" font-family="Times New Roman,serif" font-size="14.00">Flugzeug:L</text>
<text text-anchor="middle" x="432.5" y="-117.79" font-family="Times New Roman,serif" font-size="14.00">ane_09c9h4</text>
<text text-anchor="middle" x="432.5" y="-102.79" font-family="Times New Roman,serif" font-size="14.00">u</text>
<polyline fill="none" stroke="black" points="474,-94.99 474,-147.99 "/>
<text text-anchor="middle" x="532" y="-117.79" font-family="Times New Roman,serif" font-size="14.00">Gepäck_bewegen</text>
</g>
<!-- Task_1ya56\n6i&#45;&gt;EndEvent_0\nfhwvkf -->
<g id="edge6" class="edge">
<title>Task_1ya56\n6i&#45;&gt;EndEvent_0\nfhwvkf</title>
<path fill="none" stroke="black" d="M448,-94.87C448,-86.78 448,-77.66 448,-68.87"/>
<polygon fill="black" stroke="black" points="451.5,-68.79 448,-58.79 444.5,-68.79 451.5,-68.79"/>
</g>
<!-- Task_0f4vy\n4q -->
<g id="node9" class="node">
<title>Task_0f4vy\n4q</title>
<polygon fill="lightgrey" stroke="black" points="5,-466.99 5,-534.99 279,-534.99 279,-466.99 5,-466.99"/>
<text text-anchor="middle" x="46.5" y="-504.79" font-family="Times New Roman,serif" font-size="14.00">Task_0f4vy</text>
<text text-anchor="middle" x="46.5" y="-489.79" font-family="Times New Roman,serif" font-size="14.00">4q</text>
<polyline fill="none" stroke="black" points="88,-466.99 88,-534.99 "/>
<text text-anchor="middle" x="130.5" y="-519.79" font-family="Times New Roman,serif" font-size="14.00">Sperrgepäc</text>
<text text-anchor="middle" x="130.5" y="-504.79" font-family="Times New Roman,serif" font-size="14.00">kschalter:</text>
<text text-anchor="middle" x="130.5" y="-489.79" font-family="Times New Roman,serif" font-size="14.00">Lane_1gso7</text>
<text text-anchor="middle" x="130.5" y="-474.79" font-family="Times New Roman,serif" font-size="14.00">9o</text>
<polyline fill="none" stroke="black" points="173,-466.99 173,-534.99 "/>
<text text-anchor="middle" x="226" y="-497.29" font-family="Times New Roman,serif" font-size="14.00">Sonstige_Tasks</text>
</g>
<!-- Task_14aa2\n8m&#45;&gt;Task_0f4vy\n4q -->
<g id="edge7" class="edge">
<title>Task_14aa2\n8m&#45;&gt;Task_0f4vy\n4q</title>
<path fill="none" stroke="black" d="M142,-571.9C142,-563.71 142,-554.41 142,-545.32"/>
<polygon fill="black" stroke="black" points="145.5,-545.22 142,-535.22 138.5,-545.22 145.5,-545.22"/>
</g>
<!-- StartEvent\n_10 -->
<g id="node7" class="node">
<title>StartEvent\n_10</title>
<ellipse fill="lightgrey" stroke="black" cx="438" cy="-1175.44" rx="27.9" ry="27.9"/>
<text text-anchor="middle" x="438" y="-1171.74" font-family="Times New Roman,serif" font-size="14.00">Start</text>
</g>
<!-- Task_0mupd\nh5 -->
<g id="node16" class="node">
<title>Task_0mupd\nh5</title>
<polygon fill="lightgrey" stroke="black" points="292.5,-1057.99 292.5,-1110.99 583.5,-1110.99 583.5,-1057.99 292.5,-1057.99"/>
<text text-anchor="middle" x="338" y="-1088.29" font-family="Times New Roman,serif" font-size="14.00">Task_0mupd</text>
<text text-anchor="middle" x="338" y="-1073.29" font-family="Times New Roman,serif" font-size="14.00">h5</text>
<polyline fill="none" stroke="black" points="383.5,-1057.99 383.5,-1110.99 "/>
<text text-anchor="middle" x="425.5" y="-1095.79" font-family="Times New Roman,serif" font-size="14.00">Check&#45;In_S</text>
<text text-anchor="middle" x="425.5" y="-1080.79" font-family="Times New Roman,serif" font-size="14.00">chalter:La</text>
<text text-anchor="middle" x="425.5" y="-1065.79" font-family="Times New Roman,serif" font-size="14.00">ne_0p66ssc</text>
<polyline fill="none" stroke="black" points="467.5,-1057.99 467.5,-1110.99 "/>
<text text-anchor="middle" x="525.5" y="-1080.79" font-family="Times New Roman,serif" font-size="14.00">Gepäck_bewegen</text>
</g>
<!-- StartEvent\n_10&#45;&gt;Task_0mupd\nh5 -->
<g id="edge8" class="edge">
<title>StartEvent\n_10&#45;&gt;Task_0mupd\nh5</title>
<path fill="none" stroke="black" d="M438,-1147.27C438,-1139.14 438,-1130.08 438,-1121.47"/>
<polygon fill="black" stroke="black" points="441.5,-1121.28 438,-1111.28 434.5,-1121.28 441.5,-1121.28"/>
</g>
<!-- ExclusiveG\nateway_081\ndp2p -->
<g id="node8" class="node">
<title>ExclusiveG\nateway_081\ndp2p</title>
<polygon fill="lightgrey" stroke="black" points="438,-859.49 278.97,-841.49 438,-823.49 597.03,-841.49 438,-859.49"/>
<text text-anchor="middle" x="438" y="-837.79" font-family="Times New Roman,serif" font-size="14.00">Paralleles_Gateway_/_JOIN</text>
</g>
<!-- ExclusiveG\nateway_081\ndp2p&#45;&gt;ExclusiveG\nateway_1ks\nx86y -->
<g id="edge9" class="edge">
<title>ExclusiveG\nateway_081\ndp2p&#45;&gt;ExclusiveG\nateway_1ks\nx86y</title>
<path fill="none" stroke="black" d="M438,-823.19C438,-815.48 438,-806.21 438,-797.61"/>
<polygon fill="black" stroke="black" points="441.5,-797.6 438,-787.6 434.5,-797.6 441.5,-797.6"/>
</g>
<!-- Task_0f4vy\n4q&#45;&gt;Task_1i4hq\nrb -->
<g id="edge10" class="edge">
<title>Task_0f4vy\n4q&#45;&gt;Task_1i4hq\nrb</title>
<path fill="none" stroke="black" d="M142,-466.84C142,-458.38 142,-449.17 142,-440.29"/>
<polygon fill="black" stroke="black" points="145.5,-440.09 142,-430.09 138.5,-440.09 145.5,-440.09"/>
</g>
<!-- Task_04yfi\n41 -->
<g id="node10" class="node">
<title>Task_04yfi\n41</title>
<polygon fill="lightgrey" stroke="black" points="128.5,-895.99 128.5,-948.99 429.5,-948.99 429.5,-895.99 128.5,-895.99"/>
<text text-anchor="middle" x="168.5" y="-926.29" font-family="Times New Roman,serif" font-size="14.00">Task_04yfi</text>
<text text-anchor="middle" x="168.5" y="-911.29" font-family="Times New Roman,serif" font-size="14.00">41</text>
<polyline fill="none" stroke="black" points="208.5,-895.99 208.5,-948.99 "/>
<text text-anchor="middle" x="250.5" y="-933.79" font-family="Times New Roman,serif" font-size="14.00">Check&#45;In_S</text>
<text text-anchor="middle" x="250.5" y="-918.79" font-family="Times New Roman,serif" font-size="14.00">chalter:La</text>
<text text-anchor="middle" x="250.5" y="-903.79" font-family="Times New Roman,serif" font-size="14.00">ne_0p66ssc</text>
<polyline fill="none" stroke="black" points="292.5,-895.99 292.5,-948.99 "/>
<text text-anchor="middle" x="361" y="-918.79" font-family="Times New Roman,serif" font-size="14.00">Gepäck_kontrollieren</text>
</g>
<!-- Task_04yfi\n41&#45;&gt;ExclusiveG\nateway_081\ndp2p -->
<g id="edge11" class="edge">
<title>Task_04yfi\n41&#45;&gt;ExclusiveG\nateway_081\ndp2p</title>
<path fill="none" stroke="black" d="M330.62,-895.85C353.43,-884.52 379.73,-871.44 400.6,-861.08"/>
<polygon fill="black" stroke="black" points="402.38,-864.1 409.78,-856.52 399.26,-857.83 402.38,-864.1"/>
</g>
<!-- Task_1jvl6\n1v -->
<g id="node19" class="node">
<title>Task_1jvl6\n1v</title>
<polygon fill="lightgrey" stroke="black" points="309,-184.99 309,-252.99 587,-252.99 587,-184.99 309,-184.99"/>
<text text-anchor="middle" x="348" y="-222.79" font-family="Times New Roman,serif" font-size="14.00">Task_1jvl6</text>
<text text-anchor="middle" x="348" y="-207.79" font-family="Times New Roman,serif" font-size="14.00">1v</text>
<polyline fill="none" stroke="black" points="387,-184.99 387,-252.99 "/>
<text text-anchor="middle" x="429" y="-237.79" font-family="Times New Roman,serif" font-size="14.00">Verladeste</text>
<text text-anchor="middle" x="429" y="-222.79" font-family="Times New Roman,serif" font-size="14.00">lle_Sonder</text>
<text text-anchor="middle" x="429" y="-207.79" font-family="Times New Roman,serif" font-size="14.00">gepäck:Lan</text>
<text text-anchor="middle" x="429" y="-192.79" font-family="Times New Roman,serif" font-size="14.00">e_1w5sm2d</text>
<polyline fill="none" stroke="black" points="471,-184.99 471,-252.99 "/>
<text text-anchor="middle" x="529" y="-215.29" font-family="Times New Roman,serif" font-size="14.00">Gepäck_bewegen</text>
</g>
<!-- ExclusiveG\nateway_0iz\nox4h&#45;&gt;Task_1jvl6\n1v -->
<g id="edge12" class="edge">
<title>ExclusiveG\nateway_0iz\nox4h&#45;&gt;Task_1jvl6\n1v</title>
<path fill="none" stroke="black" d="M448,-289.41C448,-281.81 448,-272.5 448,-263.18"/>
<polygon fill="black" stroke="black" points="451.5,-263.16 448,-253.16 444.5,-263.16 451.5,-263.16"/>
</g>
<!-- Task_0om6w\nqi -->
<g id="node12" class="node">
<title>Task_0om6w\nqi</title>
<polygon fill="lightgrey" stroke="black" points="301.5,-361.99 301.5,-429.99 594.5,-429.99 594.5,-361.99 301.5,-361.99"/>
<text text-anchor="middle" x="348" y="-399.79" font-family="Times New Roman,serif" font-size="14.00">Task_0om6w</text>
<text text-anchor="middle" x="348" y="-384.79" font-family="Times New Roman,serif" font-size="14.00">qi</text>
<polyline fill="none" stroke="black" points="394.5,-361.99 394.5,-429.99 "/>
<text text-anchor="middle" x="436.5" y="-414.79" font-family="Times New Roman,serif" font-size="14.00">Gepäckförd</text>
<text text-anchor="middle" x="436.5" y="-399.79" font-family="Times New Roman,serif" font-size="14.00">eranlage:L</text>
<text text-anchor="middle" x="436.5" y="-384.79" font-family="Times New Roman,serif" font-size="14.00">ane_1qgbka</text>
<text text-anchor="middle" x="436.5" y="-369.79" font-family="Times New Roman,serif" font-size="14.00">p</text>
<polyline fill="none" stroke="black" points="478.5,-361.99 478.5,-429.99 "/>
<text text-anchor="middle" x="536.5" y="-392.29" font-family="Times New Roman,serif" font-size="14.00">Gepäck_bewegen</text>
</g>
<!-- Task_0om6w\nqi&#45;&gt;ExclusiveG\nateway_0iz\nox4h -->
<g id="edge13" class="edge">
<title>Task_0om6w\nqi&#45;&gt;ExclusiveG\nateway_0iz\nox4h</title>
<path fill="none" stroke="black" d="M448,-361.8C448,-353.19 448,-344.01 448,-335.74"/>
<polygon fill="black" stroke="black" points="451.5,-335.52 448,-325.52 444.5,-335.52 451.5,-335.52"/>
</g>
<!-- ExclusiveG\nateway_09l\nvku4 -->
<g id="node13" class="node">
<title>ExclusiveG\nateway_09l\nvku4</title>
<polygon fill="lightgrey" stroke="black" points="438,-1021.49 270.93,-1003.49 438,-985.49 605.07,-1003.49 438,-1021.49"/>
<text text-anchor="middle" x="438" y="-999.79" font-family="Times New Roman,serif" font-size="14.00">Paralleles_Gateway_/_SPLIT</text>
</g>
<!-- ExclusiveG\nateway_09l\nvku4&#45;&gt;Task_04yfi\n41 -->
<g id="edge15" class="edge">
<title>ExclusiveG\nateway_09l\nvku4&#45;&gt;Task_04yfi\n41</title>
<path fill="none" stroke="black" d="M409.57,-988.37C390.17,-978.73 363.72,-965.59 339.7,-953.66"/>
<polygon fill="black" stroke="black" points="341.15,-950.47 330.64,-949.15 338.04,-956.74 341.15,-950.47"/>
</g>
<!-- Task_0johr\n9l -->
<g id="node14" class="node">
<title>Task_0johr\n9l</title>
<polygon fill="lightgrey" stroke="black" points="447.5,-895.99 447.5,-948.99 748.5,-948.99 748.5,-895.99 447.5,-895.99"/>
<text text-anchor="middle" x="487.5" y="-926.29" font-family="Times New Roman,serif" font-size="14.00">Task_0johr</text>
<text text-anchor="middle" x="487.5" y="-911.29" font-family="Times New Roman,serif" font-size="14.00">9l</text>
<polyline fill="none" stroke="black" points="527.5,-895.99 527.5,-948.99 "/>
<text text-anchor="middle" x="569.5" y="-933.79" font-family="Times New Roman,serif" font-size="14.00">Check&#45;In_S</text>
<text text-anchor="middle" x="569.5" y="-918.79" font-family="Times New Roman,serif" font-size="14.00">chalter:La</text>
<text text-anchor="middle" x="569.5" y="-903.79" font-family="Times New Roman,serif" font-size="14.00">ne_0p66ssc</text>
<polyline fill="none" stroke="black" points="611.5,-895.99 611.5,-948.99 "/>
<text text-anchor="middle" x="680" y="-918.79" font-family="Times New Roman,serif" font-size="14.00">Gepäck_kontrollieren</text>
</g>
<!-- ExclusiveG\nateway_09l\nvku4&#45;&gt;Task_0johr\n9l -->
<g id="edge14" class="edge">
<title>ExclusiveG\nateway_09l\nvku4&#45;&gt;Task_0johr\n9l</title>
<path fill="none" stroke="black" d="M466.6,-988.37C486.13,-978.73 512.74,-965.59 536.91,-953.66"/>
<polygon fill="black" stroke="black" points="538.62,-956.72 546.04,-949.15 535.52,-950.44 538.62,-956.72"/>
</g>
<!-- Task_0johr\n9l&#45;&gt;ExclusiveG\nateway_081\ndp2p -->
<g id="edge16" class="edge">
<title>Task_0johr\n9l&#45;&gt;ExclusiveG\nateway_081\ndp2p</title>
<path fill="none" stroke="black" d="M546.05,-895.85C523.11,-884.52 496.63,-871.44 475.63,-861.08"/>
<polygon fill="black" stroke="black" points="476.92,-857.81 466.4,-856.52 473.82,-864.08 476.92,-857.81"/>
</g>
<!-- Task_0vo92\nnb&#45;&gt;Task_0om6w\nqi -->
<g id="edge17" class="edge">
<title>Task_0vo92\nnb&#45;&gt;Task_0om6w\nqi</title>
<path fill="none" stroke="black" d="M438.88,-661.97C440.59,-612.23 444.39,-501.86 446.51,-440.41"/>
<polygon fill="black" stroke="black" points="450.01,-440.37 446.85,-430.26 443.01,-440.13 450.01,-440.37"/>
</g>
<!-- Task_0mupd\nh5&#45;&gt;ExclusiveG\nateway_09l\nvku4 -->
<g id="edge18" class="edge">
<title>Task_0mupd\nh5&#45;&gt;ExclusiveG\nateway_09l\nvku4</title>
<path fill="none" stroke="black" d="M438,-1057.63C438,-1049.4 438,-1040.28 438,-1031.94"/>
<polygon fill="black" stroke="black" points="441.5,-1031.94 438,-1021.94 434.5,-1031.94 441.5,-1031.94"/>
</g>
<!-- Task_0nf4o\ne5 -->
<g id="node17" class="node">
<title>Task_0nf4o\ne5</title>
<polygon fill="lightgrey" stroke="black" points="553,-466.99 553,-534.99 837,-534.99 837,-466.99 553,-466.99"/>
<text text-anchor="middle" x="595" y="-504.79" font-family="Times New Roman,serif" font-size="14.00">Task_0nf4o</text>
<text text-anchor="middle" x="595" y="-489.79" font-family="Times New Roman,serif" font-size="14.00">e5</text>
<polyline fill="none" stroke="black" points="637,-466.99 637,-534.99 "/>
<text text-anchor="middle" x="679" y="-519.79" font-family="Times New Roman,serif" font-size="14.00">Verladeste</text>
<text text-anchor="middle" x="679" y="-504.79" font-family="Times New Roman,serif" font-size="14.00">lle_Sonder</text>
<text text-anchor="middle" x="679" y="-489.79" font-family="Times New Roman,serif" font-size="14.00">gepäck:Lan</text>
<text text-anchor="middle" x="679" y="-474.79" font-family="Times New Roman,serif" font-size="14.00">e_1w5sm2d</text>
<polyline fill="none" stroke="black" points="721,-466.99 721,-534.99 "/>
<text text-anchor="middle" x="779" y="-497.29" font-family="Times New Roman,serif" font-size="14.00">Gepäck_bewegen</text>
</g>
<!-- Task_0nf4o\ne5&#45;&gt;ExclusiveG\nateway_0iz\nox4h -->
<g id="edge19" class="edge">
<title>Task_0nf4o\ne5&#45;&gt;ExclusiveG\nateway_0iz\nox4h</title>
<path fill="none" stroke="black" d="M680.75,-466.89C665.7,-435.58 639.12,-389.35 603,-361.49 576.19,-340.82 540.8,-327.91 510.6,-320.02"/>
<polygon fill="black" stroke="black" points="511.13,-316.54 500.58,-317.53 509.44,-323.34 511.13,-316.54"/>
</g>
<!-- Task_0iev4\ncl -->
<g id="node18" class="node">
<title>Task_0iev4\ncl</title>
<polygon fill="lightgrey" stroke="black" points="583.5,-571.99 583.5,-624.99 864.5,-624.99 864.5,-571.99 583.5,-571.99"/>
<text text-anchor="middle" x="624" y="-602.29" font-family="Times New Roman,serif" font-size="14.00">Task_0iev4</text>
<text text-anchor="middle" x="624" y="-587.29" font-family="Times New Roman,serif" font-size="14.00">cl</text>
<polyline fill="none" stroke="black" points="664.5,-571.99 664.5,-624.99 "/>
<text text-anchor="middle" x="706.5" y="-609.79" font-family="Times New Roman,serif" font-size="14.00">Check&#45;In_S</text>
<text text-anchor="middle" x="706.5" y="-594.79" font-family="Times New Roman,serif" font-size="14.00">chalter:La</text>
<text text-anchor="middle" x="706.5" y="-579.79" font-family="Times New Roman,serif" font-size="14.00">ne_0p66ssc</text>
<polyline fill="none" stroke="black" points="748.5,-571.99 748.5,-624.99 "/>
<text text-anchor="middle" x="806.5" y="-594.79" font-family="Times New Roman,serif" font-size="14.00">Gepäck_bewegen</text>
</g>
<!-- Task_0iev4\ncl&#45;&gt;Task_0nf4o\ne5 -->
<g id="edge20" class="edge">
<title>Task_0iev4\ncl&#45;&gt;Task_0nf4o\ne5</title>
<path fill="none" stroke="black" d="M716.23,-571.9C713.72,-563.63 710.85,-554.21 708.07,-545.02"/>
<polygon fill="black" stroke="black" points="711.34,-543.77 705.09,-535.22 704.64,-545.8 711.34,-543.77"/>
</g>
<!-- Task_1jvl6\n1v&#45;&gt;Task_1ya56\n6i -->
<g id="edge21" class="edge">
<title>Task_1jvl6\n1v&#45;&gt;Task_1ya56\n6i</title>
<path fill="none" stroke="black" d="M448,-184.86C448,-176.28 448,-167.01 448,-158.3"/>
<polygon fill="black" stroke="black" points="451.5,-158.04 448,-148.04 444.5,-158.04 451.5,-158.04"/>
</g>
<!-- Task_0ydcw\njt&#45;&gt;Task_0iev4\ncl -->
<g id="edge22" class="edge">
<title>Task_0ydcw\njt&#45;&gt;Task_0iev4\ncl</title>
<path fill="none" stroke="black" d="M734.58,-661.57C733.18,-653.33 731.6,-644.07 730.1,-635.27"/>
<polygon fill="black" stroke="black" points="733.52,-634.51 728.39,-625.24 726.62,-635.68 733.52,-634.51"/>
</g>
</g>
</svg>
