<svg width="544px" height="1000px"
 viewBox="0.00 0.00 474.18 872.39" xmlns="http://www.w3.org/2000/svg" xmlns:xlink="http://www.w3.org/1999/xlink">
<g id="graph0" class="graph" transform="scale(1.0 1.0) rotate(0) translate(4 868.39)">
<title>14_Gepäckabfertigung_Fast&#45;Bag&#45;Drop</title>
<polygon fill="white" stroke="transparent" points="-4,4 -4,-868.39 470.18,-868.39 470.18,4 -4,4"/>
<!-- Task_0k5vt\nh2 -->
<g id="node1" class="node">
<title>Task_0k5vt\nh2</title>
<polygon fill="lightgrey" stroke="black" points="75.68,-199.99 75.68,-267.99 359.68,-267.99 359.68,-199.99 75.68,-199.99"/>
<text text-anchor="middle" x="117.18" y="-237.79" font-family="Times New Roman,serif" font-size="14.00">Task_0k5vt</text>
<text text-anchor="middle" x="117.18" y="-222.79" font-family="Times New Roman,serif" font-size="14.00">h2</text>
<polyline fill="none" stroke="black" points="158.68,-199.99 158.68,-267.99 "/>
<text text-anchor="middle" x="201.18" y="-252.79" font-family="Times New Roman,serif" font-size="14.00">Fast&#45;Bag&#45;D</text>
<text text-anchor="middle" x="201.18" y="-237.79" font-family="Times New Roman,serif" font-size="14.00">rop&#45;Automa</text>
<text text-anchor="middle" x="201.18" y="-222.79" font-family="Times New Roman,serif" font-size="14.00">t:Lane_10w</text>
<text text-anchor="middle" x="201.18" y="-207.79" font-family="Times New Roman,serif" font-size="14.00">e8ej</text>
<polyline fill="none" stroke="black" points="243.68,-199.99 243.68,-267.99 "/>
<text text-anchor="middle" x="301.68" y="-230.29" font-family="Times New Roman,serif" font-size="14.00">Gepäck_bewegen</text>
</g>
<!-- Task_0a5lw\n4s -->
<g id="node7" class="node">
<title>Task_0a5lw\n4s</title>
<polygon fill="lightgrey" stroke="black" points="75.18,-94.99 75.18,-162.99 360.18,-162.99 360.18,-94.99 75.18,-94.99"/>
<text text-anchor="middle" x="117.18" y="-132.79" font-family="Times New Roman,serif" font-size="14.00">Task_0a5lw</text>
<text text-anchor="middle" x="117.18" y="-117.79" font-family="Times New Roman,serif" font-size="14.00">4s</text>
<polyline fill="none" stroke="black" points="159.18,-94.99 159.18,-162.99 "/>
<text text-anchor="middle" x="201.68" y="-147.79" font-family="Times New Roman,serif" font-size="14.00">Fast&#45;Bag&#45;D</text>
<text text-anchor="middle" x="201.68" y="-132.79" font-family="Times New Roman,serif" font-size="14.00">rop&#45;Automa</text>
<text text-anchor="middle" x="201.68" y="-117.79" font-family="Times New Roman,serif" font-size="14.00">t:Lane_10w</text>
<text text-anchor="middle" x="201.68" y="-102.79" font-family="Times New Roman,serif" font-size="14.00">e8ej</text>
<polyline fill="none" stroke="black" points="244.18,-94.99 244.18,-162.99 "/>
<text text-anchor="middle" x="302.18" y="-125.29" font-family="Times New Roman,serif" font-size="14.00">Gepäck_bewegen</text>
</g>
<!-- Task_0k5vt\nh2&#45;&gt;Task_0a5lw\n4s -->
<g id="edge1" class="edge">
<title>Task_0k5vt\nh2&#45;&gt;Task_0a5lw\n4s</title>
<path fill="none" stroke="black" d="M217.68,-199.84C217.68,-191.38 217.68,-182.17 217.68,-173.29"/>
<polygon fill="black" stroke="black" points="221.18,-173.09 217.68,-163.09 214.18,-173.09 221.18,-173.09"/>
</g>
<!-- ExclusiveG\nateway_1sw\nern1 -->
<g id="node2" class="node">
<title>ExclusiveG\nateway_1sw\nern1</title>
<polygon fill="lightgrey" stroke="black" points="217.68,-430.49 6.37,-412.49 217.68,-394.49 428.99,-412.49 217.68,-430.49"/>
<text text-anchor="middle" x="217.68" y="-408.79" font-family="Times New Roman,serif" font-size="14.00">Gepäckanhänger_vorhanden?_/_JOIN</text>
</g>
<!-- Task_1q755\nj5 -->
<g id="node3" class="node">
<title>Task_1q755\nj5</title>
<polygon fill="lightgrey" stroke="black" points="47.18,-304.99 47.18,-357.99 388.18,-357.99 388.18,-304.99 47.18,-304.99"/>
<text text-anchor="middle" x="90.18" y="-335.29" font-family="Times New Roman,serif" font-size="14.00">Task_1q755</text>
<text text-anchor="middle" x="90.18" y="-320.29" font-family="Times New Roman,serif" font-size="14.00">j5</text>
<polyline fill="none" stroke="black" points="133.18,-304.99 133.18,-357.99 "/>
<text text-anchor="middle" x="175.68" y="-342.79" font-family="Times New Roman,serif" font-size="14.00">Passagier:</text>
<text text-anchor="middle" x="175.68" y="-327.79" font-family="Times New Roman,serif" font-size="14.00">Lane_1j54m</text>
<text text-anchor="middle" x="175.68" y="-312.79" font-family="Times New Roman,serif" font-size="14.00">2x</text>
<polyline fill="none" stroke="black" points="218.18,-304.99 218.18,-357.99 "/>
<text text-anchor="middle" x="303.18" y="-327.79" font-family="Times New Roman,serif" font-size="14.00">Flughafenbereich_erreichen</text>
</g>
<!-- ExclusiveG\nateway_1sw\nern1&#45;&gt;Task_1q755\nj5 -->
<g id="edge2" class="edge">
<title>ExclusiveG\nateway_1sw\nern1&#45;&gt;Task_1q755\nj5</title>
<path fill="none" stroke="black" d="M217.68,-394.35C217.68,-386.64 217.68,-377.23 217.68,-368.09"/>
<polygon fill="black" stroke="black" points="221.18,-368.01 217.68,-358.01 214.18,-368.01 221.18,-368.01"/>
</g>
<!-- Task_1q755\nj5&#45;&gt;Task_0k5vt\nh2 -->
<g id="edge3" class="edge">
<title>Task_1q755\nj5&#45;&gt;Task_0k5vt\nh2</title>
<path fill="none" stroke="black" d="M217.68,-304.9C217.68,-296.71 217.68,-287.41 217.68,-278.32"/>
<polygon fill="black" stroke="black" points="221.18,-278.22 217.68,-268.22 214.18,-278.22 221.18,-278.22"/>
</g>
<!-- Task_1u740\na4 -->
<g id="node4" class="node">
<title>Task_1u740\na4</title>
<polygon fill="lightgrey" stroke="black" points="78.18,-718.99 78.18,-771.99 361.18,-771.99 361.18,-718.99 78.18,-718.99"/>
<text text-anchor="middle" x="121.18" y="-749.29" font-family="Times New Roman,serif" font-size="14.00">Task_1u740</text>
<text text-anchor="middle" x="121.18" y="-734.29" font-family="Times New Roman,serif" font-size="14.00">a4</text>
<polyline fill="none" stroke="black" points="164.18,-718.99 164.18,-771.99 "/>
<text text-anchor="middle" x="206.68" y="-756.79" font-family="Times New Roman,serif" font-size="14.00">Passagier:</text>
<text text-anchor="middle" x="206.68" y="-741.79" font-family="Times New Roman,serif" font-size="14.00">Lane_1j54m</text>
<text text-anchor="middle" x="206.68" y="-726.79" font-family="Times New Roman,serif" font-size="14.00">2x</text>
<polyline fill="none" stroke="black" points="249.18,-718.99 249.18,-771.99 "/>
<text text-anchor="middle" x="305.18" y="-741.79" font-family="Times New Roman,serif" font-size="14.00">Person_bewegen</text>
</g>
<!-- ExclusiveG\nateway_0ww\nlbnt -->
<g id="node9" class="node">
<title>ExclusiveG\nateway_0ww\nlbnt</title>
<polygon fill="lightgrey" stroke="black" points="219.68,-682.49 -0.18,-664.49 219.68,-646.49 439.54,-664.49 219.68,-682.49"/>
<text text-anchor="middle" x="219.68" y="-660.79" font-family="Times New Roman,serif" font-size="14.00">Gepäckanhänger_vorhanden?_/_SPLIT</text>
</g>
<!-- Task_1u740\na4&#45;&gt;ExclusiveG\nateway_0ww\nlbnt -->
<g id="edge4" class="edge">
<title>Task_1u740\na4&#45;&gt;ExclusiveG\nateway_0ww\nlbnt</title>
<path fill="none" stroke="black" d="M219.68,-718.63C219.68,-710.4 219.68,-701.28 219.68,-692.94"/>
<polygon fill="black" stroke="black" points="223.18,-692.94 219.68,-682.94 216.18,-692.94 223.18,-692.94"/>
</g>
<!-- EndEvent_0\nct2jox -->
<g id="node5" class="node">
<title>EndEvent_0\nct2jox</title>
<ellipse fill="lightgrey" stroke="black" cx="217.68" cy="-29.25" rx="29.5" ry="29.5"/>
<text text-anchor="middle" x="217.68" y="-25.55" font-family="Times New Roman,serif" font-size="14.00">Ende</text>
</g>
<!-- Task_00mf8\n50 -->
<g id="node6" class="node">
<title>Task_00mf8\n50</title>
<polygon fill="lightgrey" stroke="black" points="157.18,-556.99 157.18,-609.99 466.18,-609.99 466.18,-556.99 157.18,-556.99"/>
<text text-anchor="middle" x="200.68" y="-587.29" font-family="Times New Roman,serif" font-size="14.00">Task_00mf8</text>
<text text-anchor="middle" x="200.68" y="-572.29" font-family="Times New Roman,serif" font-size="14.00">50</text>
<polyline fill="none" stroke="black" points="244.18,-556.99 244.18,-609.99 "/>
<text text-anchor="middle" x="285.68" y="-594.79" font-family="Times New Roman,serif" font-size="14.00">Bag&#45;Tag&#45;Dr</text>
<text text-anchor="middle" x="285.68" y="-579.79" font-family="Times New Roman,serif" font-size="14.00">ucker:Lane</text>
<text text-anchor="middle" x="285.68" y="-564.79" font-family="Times New Roman,serif" font-size="14.00">_07atj0y</text>
<polyline fill="none" stroke="black" points="327.18,-556.99 327.18,-609.99 "/>
<text text-anchor="middle" x="396.68" y="-579.79" font-family="Times New Roman,serif" font-size="14.00">Dokument_bearbeiten</text>
</g>
<!-- Task_0djrf\nk5 -->
<g id="node10" class="node">
<title>Task_0djrf\nk5</title>
<polygon fill="lightgrey" stroke="black" points="158.68,-466.99 158.68,-519.99 460.68,-519.99 460.68,-466.99 158.68,-466.99"/>
<text text-anchor="middle" x="197.68" y="-497.29" font-family="Times New Roman,serif" font-size="14.00">Task_0djrf</text>
<text text-anchor="middle" x="197.68" y="-482.29" font-family="Times New Roman,serif" font-size="14.00">k5</text>
<polyline fill="none" stroke="black" points="236.68,-466.99 236.68,-519.99 "/>
<text text-anchor="middle" x="279.18" y="-504.79" font-family="Times New Roman,serif" font-size="14.00">Passagier:</text>
<text text-anchor="middle" x="279.18" y="-489.79" font-family="Times New Roman,serif" font-size="14.00">Lane_1j54m</text>
<text text-anchor="middle" x="279.18" y="-474.79" font-family="Times New Roman,serif" font-size="14.00">2x</text>
<polyline fill="none" stroke="black" points="321.68,-466.99 321.68,-519.99 "/>
<text text-anchor="middle" x="391.18" y="-489.79" font-family="Times New Roman,serif" font-size="14.00">Dokument_bearbeiten</text>
</g>
<!-- Task_00mf8\n50&#45;&gt;Task_0djrf\nk5 -->
<g id="edge5" class="edge">
<title>Task_00mf8\n50&#45;&gt;Task_0djrf\nk5</title>
<path fill="none" stroke="black" d="M311.09,-556.57C310.9,-548.33 310.69,-539.07 310.49,-530.27"/>
<polygon fill="black" stroke="black" points="313.99,-530.15 310.26,-520.24 306.99,-530.31 313.99,-530.15"/>
</g>
<!-- Task_0a5lw\n4s&#45;&gt;EndEvent_0\nct2jox -->
<g id="edge6" class="edge">
<title>Task_0a5lw\n4s&#45;&gt;EndEvent_0\nct2jox</title>
<path fill="none" stroke="black" d="M217.68,-94.9C217.68,-86.55 217.68,-77.52 217.68,-68.92"/>
<polygon fill="black" stroke="black" points="221.18,-68.73 217.68,-58.73 214.18,-68.73 221.18,-68.73"/>
</g>
<!-- StartEvent\n_14 -->
<g id="node8" class="node">
<title>StartEvent\n_14</title>
<ellipse fill="lightgrey" stroke="black" cx="219.68" cy="-836.44" rx="27.9" ry="27.9"/>
<text text-anchor="middle" x="219.68" y="-832.74" font-family="Times New Roman,serif" font-size="14.00">Start</text>
</g>
<!-- StartEvent\n_14&#45;&gt;Task_1u740\na4 -->
<g id="edge7" class="edge">
<title>StartEvent\n_14&#45;&gt;Task_1u740\na4</title>
<path fill="none" stroke="black" d="M219.68,-808.27C219.68,-800.14 219.68,-791.08 219.68,-782.47"/>
<polygon fill="black" stroke="black" points="223.18,-782.28 219.68,-772.28 216.18,-782.28 223.18,-782.28"/>
</g>
<!-- ExclusiveG\nateway_0ww\nlbnt&#45;&gt;ExclusiveG\nateway_1sw\nern1 -->
<g id="edge9" class="edge">
<title>ExclusiveG\nateway_0ww\nlbnt&#45;&gt;ExclusiveG\nateway_1sw\nern1</title>
<path fill="none" stroke="black" d="M188.17,-649.02C172.98,-640.22 156.22,-627.39 147.68,-610.49 140.26,-595.82 140.51,-484.76 149.68,-466.49 156.33,-453.26 168,-442.33 179.82,-433.91"/>
<polygon fill="black" stroke="black" points="181.99,-436.67 188.38,-428.23 178.11,-430.84 181.99,-436.67"/>
</g>
<!-- ExclusiveG\nateway_0ww\nlbnt&#45;&gt;Task_00mf8\n50 -->
<g id="edge8" class="edge">
<title>ExclusiveG\nateway_0ww\nlbnt&#45;&gt;Task_00mf8\n50</title>
<path fill="none" stroke="black" d="M237.85,-647.89C248.26,-638.95 261.71,-627.4 274.28,-616.61"/>
<polygon fill="black" stroke="black" points="276.65,-619.19 281.95,-610.02 272.08,-613.88 276.65,-619.19"/>
</g>
<!-- Task_0djrf\nk5&#45;&gt;ExclusiveG\nateway_1sw\nern1 -->
<g id="edge10" class="edge">
<title>Task_0djrf\nk5&#45;&gt;ExclusiveG\nateway_1sw\nern1</title>
<path fill="none" stroke="black" d="M279.81,-466.85C268.16,-456.84 254.92,-445.48 243.67,-435.81"/>
<polygon fill="black" stroke="black" points="245.75,-432.98 235.88,-429.12 241.19,-438.29 245.75,-432.98"/>
</g>
</g>
</svg>
