<svg width="692px" height="1000px"
 viewBox="0.00 0.00 317.00 458.39" xmlns="http://www.w3.org/2000/svg" xmlns:xlink="http://www.w3.org/1999/xlink">
<g id="graph0" class="graph" transform="scale(1.0 1.0) rotate(0) translate(4 454.39)">
<title>25_Transport_zum_Flugzeug_Containergep채ck_Abflug</title>
<polygon fill="white" stroke="transparent" points="-4,4 -4,-454.39 313,-454.39 313,4 -4,4"/>
<!-- Task_0n2ie\nbf -->
<g id="node1" class="node">
<title>Task_0n2ie\nbf</title>
<polygon fill="lightgrey" stroke="black" points="3,-289.99 3,-357.99 306,-357.99 306,-289.99 3,-289.99"/>
<text text-anchor="middle" x="43.5" y="-327.79" font-family="Times New Roman,serif" font-size="14.00">Task_0n2ie</text>
<text text-anchor="middle" x="43.5" y="-312.79" font-family="Times New Roman,serif" font-size="14.00">bf</text>
<polyline fill="none" stroke="black" points="84,-289.99 84,-357.99 "/>
<text text-anchor="middle" x="125.5" y="-342.79" font-family="Times New Roman,serif" font-size="14.00">Gep채ckentn</text>
<text text-anchor="middle" x="125.5" y="-327.79" font-family="Times New Roman,serif" font-size="14.00">ahmestelle</text>
<text text-anchor="middle" x="125.5" y="-312.79" font-family="Times New Roman,serif" font-size="14.00">:Lane_0u4f</text>
<text text-anchor="middle" x="125.5" y="-297.79" font-family="Times New Roman,serif" font-size="14.00">x9w</text>
<polyline fill="none" stroke="black" points="167,-289.99 167,-357.99 "/>
<text text-anchor="middle" x="236.5" y="-320.29" font-family="Times New Roman,serif" font-size="14.00">Gegenstand_bewegen</text>
</g>
<!-- Task_1qbk8\n08 -->
<g id="node4" class="node">
<title>Task_1qbk8\n08</title>
<polygon fill="lightgrey" stroke="black" points="0,-184.99 0,-252.99 309,-252.99 309,-184.99 0,-184.99"/>
<text text-anchor="middle" x="43.5" y="-222.79" font-family="Times New Roman,serif" font-size="14.00">Task_1qbk8</text>
<text text-anchor="middle" x="43.5" y="-207.79" font-family="Times New Roman,serif" font-size="14.00">08</text>
<polyline fill="none" stroke="black" points="87,-184.99 87,-252.99 "/>
<text text-anchor="middle" x="128.5" y="-237.79" font-family="Times New Roman,serif" font-size="14.00">Gep채ckentn</text>
<text text-anchor="middle" x="128.5" y="-222.79" font-family="Times New Roman,serif" font-size="14.00">ahmestelle</text>
<text text-anchor="middle" x="128.5" y="-207.79" font-family="Times New Roman,serif" font-size="14.00">:Lane_0u4f</text>
<text text-anchor="middle" x="128.5" y="-192.79" font-family="Times New Roman,serif" font-size="14.00">x9w</text>
<polyline fill="none" stroke="black" points="170,-184.99 170,-252.99 "/>
<text text-anchor="middle" x="239.5" y="-215.29" font-family="Times New Roman,serif" font-size="14.00">Gegenstand_bewegen</text>
</g>
<!-- Task_0n2ie\nbf&#45;&gt;Task_1qbk8\n08 -->
<g id="edge1" class="edge">
<title>Task_0n2ie\nbf&#45;&gt;Task_1qbk8\n08</title>
<path fill="none" stroke="black" d="M154.5,-289.84C154.5,-281.38 154.5,-272.17 154.5,-263.29"/>
<polygon fill="black" stroke="black" points="158,-263.09 154.5,-253.09 151,-263.09 158,-263.09"/>
</g>
<!-- Task_0abe6\nn3 -->
<g id="node2" class="node">
<title>Task_0abe6\nn3</title>
<polygon fill="lightgrey" stroke="black" points="12,-94.99 12,-147.99 297,-147.99 297,-94.99 12,-94.99"/>
<text text-anchor="middle" x="54.5" y="-125.29" font-family="Times New Roman,serif" font-size="14.00">Task_0abe6</text>
<text text-anchor="middle" x="54.5" y="-110.29" font-family="Times New Roman,serif" font-size="14.00">n3</text>
<polyline fill="none" stroke="black" points="97,-94.99 97,-147.99 "/>
<text text-anchor="middle" x="139" y="-132.79" font-family="Times New Roman,serif" font-size="14.00">Flugzeug:L</text>
<text text-anchor="middle" x="139" y="-117.79" font-family="Times New Roman,serif" font-size="14.00">ane_05p124</text>
<text text-anchor="middle" x="139" y="-102.79" font-family="Times New Roman,serif" font-size="14.00">a</text>
<polyline fill="none" stroke="black" points="181,-94.99 181,-147.99 "/>
<text text-anchor="middle" x="239" y="-117.79" font-family="Times New Roman,serif" font-size="14.00">Gep채ck_bewegen</text>
</g>
<!-- EndEvent_1\njm1yyo -->
<g id="node3" class="node">
<title>EndEvent_1\njm1yyo</title>
<ellipse fill="lightgrey" stroke="black" cx="154.5" cy="-29.25" rx="29.5" ry="29.5"/>
<text text-anchor="middle" x="154.5" y="-25.55" font-family="Times New Roman,serif" font-size="14.00">Ende</text>
</g>
<!-- Task_0abe6\nn3&#45;&gt;EndEvent_1\njm1yyo -->
<g id="edge2" class="edge">
<title>Task_0abe6\nn3&#45;&gt;EndEvent_1\njm1yyo</title>
<path fill="none" stroke="black" d="M154.5,-94.87C154.5,-86.78 154.5,-77.66 154.5,-68.87"/>
<polygon fill="black" stroke="black" points="158,-68.79 154.5,-58.79 151,-68.79 158,-68.79"/>
</g>
<!-- Task_1qbk8\n08&#45;&gt;Task_0abe6\nn3 -->
<g id="edge3" class="edge">
<title>Task_1qbk8\n08&#45;&gt;Task_0abe6\nn3</title>
<path fill="none" stroke="black" d="M154.5,-184.86C154.5,-176.28 154.5,-167.01 154.5,-158.3"/>
<polygon fill="black" stroke="black" points="158,-158.04 154.5,-148.04 151,-158.04 158,-158.04"/>
</g>
<!-- StartEvent\n_25 -->
<g id="node5" class="node">
<title>StartEvent\n_25</title>
<ellipse fill="lightgrey" stroke="black" cx="154.5" cy="-422.44" rx="27.9" ry="27.9"/>
<text text-anchor="middle" x="154.5" y="-418.74" font-family="Times New Roman,serif" font-size="14.00">Start</text>
</g>
<!-- StartEvent\n_25&#45;&gt;Task_0n2ie\nbf -->
<g id="edge4" class="edge">
<title>StartEvent\n_25&#45;&gt;Task_0n2ie\nbf</title>
<path fill="none" stroke="black" d="M154.5,-394.32C154.5,-386.23 154.5,-377.15 154.5,-368.3"/>
<polygon fill="black" stroke="black" points="158,-368.08 154.5,-358.08 151,-368.08 158,-368.08"/>
</g>
</g>
</svg>
