<svg width="814px" height="1000px"
 viewBox="0.00 0.00 649.00 797.39" xmlns="http://www.w3.org/2000/svg" xmlns:xlink="http://www.w3.org/1999/xlink">
<g id="graph0" class="graph" transform="scale(1.0 1.0) rotate(0) translate(4 793.39)">
<title>03_Passagierabfertigung_andere_Medien_und_Gepäckschalter</title>
<polygon fill="white" stroke="transparent" points="-4,4 -4,-793.39 645,-793.39 645,4 -4,4"/>
<!-- Task_05c0i\nwj -->
<g id="node1" class="node">
<title>Task_05c0i\nwj</title>
<polygon fill="lightgrey" stroke="black" points="270,-361.99 270,-429.99 567,-429.99 567,-361.99 270,-361.99"/>
<text text-anchor="middle" x="311" y="-399.79" font-family="Times New Roman,serif" font-size="14.00">Task_05c0i</text>
<text text-anchor="middle" x="311" y="-384.79" font-family="Times New Roman,serif" font-size="14.00">wj</text>
<polyline fill="none" stroke="black" points="352,-361.99 352,-429.99 "/>
<text text-anchor="middle" x="395" y="-414.79" font-family="Times New Roman,serif" font-size="14.00">Gepäckanna</text>
<text text-anchor="middle" x="395" y="-399.79" font-family="Times New Roman,serif" font-size="14.00">hmeschalte</text>
<text text-anchor="middle" x="395" y="-384.79" font-family="Times New Roman,serif" font-size="14.00">r:Lane_0ol</text>
<text text-anchor="middle" x="395" y="-369.79" font-family="Times New Roman,serif" font-size="14.00">som3</text>
<polyline fill="none" stroke="black" points="438,-361.99 438,-429.99 "/>
<text text-anchor="middle" x="502.5" y="-392.29" font-family="Times New Roman,serif" font-size="14.00">Ware herausnehmen</text>
</g>
<!-- ExclusiveG\nateway_0eu\njdct -->
<g id="node6" class="node">
<title>ExclusiveG\nateway_0eu\njdct</title>
<polygon fill="lightgrey" stroke="black" points="329.5,-325.49 163.26,-307.49 329.5,-289.49 495.74,-307.49 329.5,-325.49"/>
<text text-anchor="middle" x="329.5" y="-303.79" font-family="Times New Roman,serif" font-size="14.00">Gepäck_vorhanden?_/_JOIN</text>
</g>
<!-- Task_05c0i\nwj&#45;&gt;ExclusiveG\nateway_0eu\njdct -->
<g id="edge1" class="edge">
<title>Task_05c0i\nwj&#45;&gt;ExclusiveG\nateway_0eu\njdct</title>
<path fill="none" stroke="black" d="M384.34,-361.8C373.82,-351.57 362.49,-340.55 352.87,-331.2"/>
<polygon fill="black" stroke="black" points="355.18,-328.57 345.57,-324.11 350.3,-333.59 355.18,-328.57"/>
</g>
<!-- StartEvent\n_3 -->
<g id="node2" class="node">
<title>StartEvent\n_3</title>
<ellipse fill="lightgrey" stroke="black" cx="320.5" cy="-761.44" rx="27.9" ry="27.9"/>
<text text-anchor="middle" x="320.5" y="-757.74" font-family="Times New Roman,serif" font-size="14.00">Start</text>
</g>
<!-- Task_1ofny\npx -->
<g id="node4" class="node">
<title>Task_1ofny\npx</title>
<polygon fill="lightgrey" stroke="black" points="0,-628.99 0,-696.99 641,-696.99 641,-628.99 0,-628.99"/>
<text text-anchor="middle" x="42" y="-666.79" font-family="Times New Roman,serif" font-size="14.00">Task_1ofny</text>
<text text-anchor="middle" x="42" y="-651.79" font-family="Times New Roman,serif" font-size="14.00">px</text>
<polyline fill="none" stroke="black" points="84,-628.99 84,-696.99 "/>
<text text-anchor="middle" x="127" y="-681.79" font-family="Times New Roman,serif" font-size="14.00">Lagerfachk</text>
<text text-anchor="middle" x="127" y="-666.79" font-family="Times New Roman,serif" font-size="14.00">raft:1BQ__</text>
<text text-anchor="middle" x="127" y="-651.79" font-family="Times New Roman,serif" font-size="14.00">Lane_11q77</text>
<text text-anchor="middle" x="127" y="-636.79" font-family="Times New Roman,serif" font-size="14.00">qc</text>
<polyline fill="none" stroke="black" points="170,-628.99 170,-696.99 "/>
<text text-anchor="middle" x="405.5" y="-659.29" font-family="Times New Roman,serif" font-size="14.00">Produkte_vom_Übergabepunkt_in_den_Puffer_für_Hochregal&#45;paletten_einlagern</text>
</g>
<!-- StartEvent\n_3&#45;&gt;Task_1ofny\npx -->
<g id="edge2" class="edge">
<title>StartEvent\n_3&#45;&gt;Task_1ofny\npx</title>
<path fill="none" stroke="black" d="M320.5,-733.32C320.5,-725.23 320.5,-716.15 320.5,-707.3"/>
<polygon fill="black" stroke="black" points="324,-707.08 320.5,-697.08 317,-707.08 324,-707.08"/>
</g>
<!-- Task_1krxb\nmu -->
<g id="node3" class="node">
<title>Task_1krxb\nmu</title>
<polygon fill="lightgrey" stroke="black" points="169,-199.99 169,-252.99 490,-252.99 490,-199.99 169,-199.99"/>
<text text-anchor="middle" x="211" y="-230.29" font-family="Times New Roman,serif" font-size="14.00">Task_1krxb</text>
<text text-anchor="middle" x="211" y="-215.29" font-family="Times New Roman,serif" font-size="14.00">mu</text>
<polyline fill="none" stroke="black" points="253,-199.99 253,-252.99 "/>
<text text-anchor="middle" x="297.5" y="-237.79" font-family="Times New Roman,serif" font-size="14.00">Versandbür</text>
<text text-anchor="middle" x="297.5" y="-222.79" font-family="Times New Roman,serif" font-size="14.00">o:1CN__Lan</text>
<text text-anchor="middle" x="297.5" y="-207.79" font-family="Times New Roman,serif" font-size="14.00">e_1n6g0py</text>
<polyline fill="none" stroke="black" points="342,-199.99 342,-252.99 "/>
<text text-anchor="middle" x="416" y="-222.79" font-family="Times New Roman,serif" font-size="14.00">Versandeinheiten_laden</text>
</g>
<!-- Task_03gi8\ndg -->
<g id="node5" class="node">
<title>Task_03gi8\ndg</title>
<polygon fill="lightgrey" stroke="black" points="33,-94.99 33,-162.99 626,-162.99 626,-94.99 33,-94.99"/>
<text text-anchor="middle" x="74" y="-132.79" font-family="Times New Roman,serif" font-size="14.00">Task_03gi8</text>
<text text-anchor="middle" x="74" y="-117.79" font-family="Times New Roman,serif" font-size="14.00">dg</text>
<polyline fill="none" stroke="black" points="115,-94.99 115,-162.99 "/>
<text text-anchor="middle" x="157" y="-147.79" font-family="Times New Roman,serif" font-size="14.00">Lagerfachk</text>
<text text-anchor="middle" x="157" y="-132.79" font-family="Times New Roman,serif" font-size="14.00">raft:1CX__</text>
<text text-anchor="middle" x="157" y="-117.79" font-family="Times New Roman,serif" font-size="14.00">Lane_12ge0</text>
<text text-anchor="middle" x="157" y="-102.79" font-family="Times New Roman,serif" font-size="14.00">89</text>
<polyline fill="none" stroke="black" points="199,-94.99 199,-162.99 "/>
<text text-anchor="middle" x="412.5" y="-125.29" font-family="Times New Roman,serif" font-size="14.00">Differenzen_der_physischen_Inventur_ins_SAP_S/4HANA_transferieren</text>
</g>
<!-- Task_1krxb\nmu&#45;&gt;Task_03gi8\ndg -->
<g id="edge3" class="edge">
<title>Task_1krxb\nmu&#45;&gt;Task_03gi8\ndg</title>
<path fill="none" stroke="black" d="M329.5,-199.9C329.5,-191.71 329.5,-182.41 329.5,-173.32"/>
<polygon fill="black" stroke="black" points="333,-173.22 329.5,-163.22 326,-173.22 333,-173.22"/>
</g>
<!-- ExclusiveG\nateway_1v4\nimvq -->
<g id="node9" class="node">
<title>ExclusiveG\nateway_1v4\nimvq</title>
<polygon fill="lightgrey" stroke="black" points="320.5,-592.49 146.56,-574.49 320.5,-556.49 494.44,-574.49 320.5,-592.49"/>
<text text-anchor="middle" x="320.5" y="-570.79" font-family="Times New Roman,serif" font-size="14.00">Gepäck_vorhanden?_/_SPLIT</text>
</g>
<!-- Task_1ofny\npx&#45;&gt;ExclusiveG\nateway_1v4\nimvq -->
<g id="edge4" class="edge">
<title>Task_1ofny\npx&#45;&gt;ExclusiveG\nateway_1v4\nimvq</title>
<path fill="none" stroke="black" d="M320.5,-628.8C320.5,-620.19 320.5,-611.01 320.5,-602.74"/>
<polygon fill="black" stroke="black" points="324,-602.52 320.5,-592.52 317,-602.52 324,-602.52"/>
</g>
<!-- EndEvent_1\ngaacf3 -->
<g id="node7" class="node">
<title>EndEvent_1\ngaacf3</title>
<ellipse fill="lightgrey" stroke="black" cx="329.5" cy="-29.25" rx="29.5" ry="29.5"/>
<text text-anchor="middle" x="329.5" y="-25.55" font-family="Times New Roman,serif" font-size="14.00">Ende</text>
</g>
<!-- Task_03gi8\ndg&#45;&gt;EndEvent_1\ngaacf3 -->
<g id="edge5" class="edge">
<title>Task_03gi8\ndg&#45;&gt;EndEvent_1\ngaacf3</title>
<path fill="none" stroke="black" d="M329.5,-94.9C329.5,-86.55 329.5,-77.52 329.5,-68.92"/>
<polygon fill="black" stroke="black" points="333,-68.73 329.5,-58.73 326,-68.73 333,-68.73"/>
</g>
<!-- ExclusiveG\nateway_0eu\njdct&#45;&gt;Task_1krxb\nmu -->
<g id="edge6" class="edge">
<title>ExclusiveG\nateway_0eu\njdct&#45;&gt;Task_1krxb\nmu</title>
<path fill="none" stroke="black" d="M329.5,-289.35C329.5,-281.64 329.5,-272.23 329.5,-263.09"/>
<polygon fill="black" stroke="black" points="333,-263.01 329.5,-253.01 326,-263.01 333,-263.01"/>
</g>
<!-- Task_02r1i\nrr -->
<g id="node8" class="node">
<title>Task_02r1i\nrr</title>
<polygon fill="lightgrey" stroke="black" points="278.5,-466.99 278.5,-519.99 538.5,-519.99 538.5,-466.99 278.5,-466.99"/>
<text text-anchor="middle" x="318.5" y="-497.29" font-family="Times New Roman,serif" font-size="14.00">Task_02r1i</text>
<text text-anchor="middle" x="318.5" y="-482.29" font-family="Times New Roman,serif" font-size="14.00">rr</text>
<polyline fill="none" stroke="black" points="358.5,-466.99 358.5,-519.99 "/>
<text text-anchor="middle" x="399" y="-504.79" font-family="Times New Roman,serif" font-size="14.00">Passagier:</text>
<text text-anchor="middle" x="399" y="-489.79" font-family="Times New Roman,serif" font-size="14.00">Lane_0clky</text>
<text text-anchor="middle" x="399" y="-474.79" font-family="Times New Roman,serif" font-size="14.00">wt</text>
<polyline fill="none" stroke="black" points="439.5,-466.99 439.5,-519.99 "/>
<text text-anchor="middle" x="489" y="-489.79" font-family="Times New Roman,serif" font-size="14.00">Ware einlagern</text>
</g>
<!-- Task_02r1i\nrr&#45;&gt;Task_05c0i\nwj -->
<g id="edge7" class="edge">
<title>Task_02r1i\nrr&#45;&gt;Task_05c0i\nwj</title>
<path fill="none" stroke="black" d="M411.18,-466.9C412.04,-458.71 413.01,-449.41 413.96,-440.32"/>
<polygon fill="black" stroke="black" points="417.46,-440.53 415.02,-430.22 410.5,-439.8 417.46,-440.53"/>
</g>
<!-- ExclusiveG\nateway_1v4\nimvq&#45;&gt;ExclusiveG\nateway_0eu\njdct -->
<g id="edge9" class="edge">
<title>ExclusiveG\nateway_1v4\nimvq&#45;&gt;ExclusiveG\nateway_0eu\njdct</title>
<path fill="none" stroke="black" d="M300.4,-558.35C289.31,-548.79 276.41,-535.45 269.5,-520.49 239.81,-456.24 229.21,-424.98 260.5,-361.49 267.34,-347.62 279.74,-336.37 292.16,-327.86"/>
<polygon fill="black" stroke="black" points="294.16,-330.74 300.7,-322.41 290.39,-324.84 294.16,-330.74"/>
</g>
<!-- ExclusiveG\nateway_1v4\nimvq&#45;&gt;Task_02r1i\nrr -->
<g id="edge8" class="edge">
<title>ExclusiveG\nateway_1v4\nimvq&#45;&gt;Task_02r1i\nrr</title>
<path fill="none" stroke="black" d="M337.89,-557.89C347.75,-549.03 360.47,-537.62 372.39,-526.92"/>
<polygon fill="black" stroke="black" points="374.96,-529.31 380.07,-520.02 370.29,-524.1 374.96,-529.31"/>
</g>
</g>
</svg>
