<svg width="523px" height="1000px"
 viewBox="0.00 0.00 1121.54 2145.07" xmlns="http://www.w3.org/2000/svg" xmlns:xlink="http://www.w3.org/1999/xlink">
<g id="graph0" class="graph" transform="scale(1.0 1.0) rotate(0) translate(4 2141.07)">
<title>05_Gepäckabfertigung_Abflug</title>
<polygon fill="white" stroke="transparent" points="-4,4 -4,-2141.07 1117.54,-2141.07 1117.54,4 -4,4"/>
<!-- EndEvent_1\nj97r4c -->
<g id="node1" class="node">
<title>EndEvent_1\nj97r4c</title>
<ellipse fill="lightgrey" stroke="black" cx="582" cy="-38.35" rx="38.19" ry="38.19"/>
<text text-anchor="middle" x="582" y="-34.65" font-family="Times New Roman,serif" font-size="14.00">Ende_2</text>
</g>
<!-- Task_1wi9t\nhp -->
<g id="node2" class="node">
<title>Task_1wi9t\nhp</title>
<polygon fill="lightgrey" stroke="black" points="427,-1246.83 427,-1314.83 737,-1314.83 737,-1246.83 427,-1246.83"/>
<text text-anchor="middle" x="468" y="-1284.63" font-family="Times New Roman,serif" font-size="14.00">Task_1wi9t</text>
<text text-anchor="middle" x="468" y="-1269.63" font-family="Times New Roman,serif" font-size="14.00">hp</text>
<polyline fill="none" stroke="black" points="509,-1246.83 509,-1314.83 "/>
<text text-anchor="middle" x="553" y="-1299.63" font-family="Times New Roman,serif" font-size="14.00">Lagerfachk</text>
<text text-anchor="middle" x="553" y="-1284.63" font-family="Times New Roman,serif" font-size="14.00">raft:1CL__</text>
<text text-anchor="middle" x="553" y="-1269.63" font-family="Times New Roman,serif" font-size="14.00">Lane_1wg8v</text>
<text text-anchor="middle" x="553" y="-1254.63" font-family="Times New Roman,serif" font-size="14.00">mc</text>
<polyline fill="none" stroke="black" points="597,-1246.83 597,-1314.83 "/>
<text text-anchor="middle" x="667" y="-1277.13" font-family="Times New Roman,serif" font-size="14.00">Bestand_ist_aufgefüllt</text>
</g>
<!-- Task_0uhl6\n4y -->
<g id="node14" class="node">
<title>Task_0uhl6\n4y</title>
<polygon fill="lightgrey" stroke="black" points="327,-1137.99 327,-1205.99 837,-1205.99 837,-1137.99 327,-1137.99"/>
<text text-anchor="middle" x="368" y="-1175.79" font-family="Times New Roman,serif" font-size="14.00">Task_0uhl6</text>
<text text-anchor="middle" x="368" y="-1160.79" font-family="Times New Roman,serif" font-size="14.00">4y</text>
<polyline fill="none" stroke="black" points="409,-1137.99 409,-1205.99 "/>
<text text-anchor="middle" x="451" y="-1190.79" font-family="Times New Roman,serif" font-size="14.00">Lagerfachk</text>
<text text-anchor="middle" x="451" y="-1175.79" font-family="Times New Roman,serif" font-size="14.00">raft:1CX__</text>
<text text-anchor="middle" x="451" y="-1160.79" font-family="Times New Roman,serif" font-size="14.00">Lane_12ge0</text>
<text text-anchor="middle" x="451" y="-1145.79" font-family="Times New Roman,serif" font-size="14.00">89</text>
<polyline fill="none" stroke="black" points="493,-1137.99 493,-1205.99 "/>
<text text-anchor="middle" x="665" y="-1168.29" font-family="Times New Roman,serif" font-size="14.00">Artikel_zählen_und_Ergebnisse_auf_Ausdrucken_notieren</text>
</g>
<!-- Task_1wi9t\nhp&#45;&gt;Task_0uhl6\n4y -->
<g id="edge1" class="edge">
<title>Task_1wi9t\nhp&#45;&gt;Task_0uhl6\n4y</title>
<path fill="none" stroke="black" d="M582,-1246.61C582,-1237.06 582,-1226.51 582,-1216.44"/>
<polygon fill="black" stroke="black" points="585.5,-1216.19 582,-1206.19 578.5,-1216.19 585.5,-1216.19"/>
</g>
<!-- StartEvent\n_5 -->
<g id="node3" class="node">
<title>StartEvent\n_5</title>
<ellipse fill="lightgrey" stroke="black" cx="372" cy="-2109.13" rx="27.9" ry="27.9"/>
<text text-anchor="middle" x="372" y="-2105.43" font-family="Times New Roman,serif" font-size="14.00">Start</text>
</g>
<!-- Task_0ln0s\nhf -->
<g id="node13" class="node">
<title>Task_0ln0s\nhf</title>
<polygon fill="lightgrey" stroke="black" points="117.5,-1976.68 117.5,-2044.68 626.5,-2044.68 626.5,-1976.68 117.5,-1976.68"/>
<text text-anchor="middle" x="158" y="-2014.48" font-family="Times New Roman,serif" font-size="14.00">Task_0ln0s</text>
<text text-anchor="middle" x="158" y="-1999.48" font-family="Times New Roman,serif" font-size="14.00">hf</text>
<polyline fill="none" stroke="black" points="198.5,-1976.68 198.5,-2044.68 "/>
<text text-anchor="middle" x="240.5" y="-2029.48" font-family="Times New Roman,serif" font-size="14.00">Lagerfachk</text>
<text text-anchor="middle" x="240.5" y="-2014.48" font-family="Times New Roman,serif" font-size="14.00">raft:1CX__</text>
<text text-anchor="middle" x="240.5" y="-1999.48" font-family="Times New Roman,serif" font-size="14.00">Lane_12ge0</text>
<text text-anchor="middle" x="240.5" y="-1984.48" font-family="Times New Roman,serif" font-size="14.00">89</text>
<polyline fill="none" stroke="black" points="282.5,-1976.68 282.5,-2044.68 "/>
<text text-anchor="middle" x="454.5" y="-2006.98" font-family="Times New Roman,serif" font-size="14.00">Artikel_zählen_und_Ergebnisse_auf_Ausdrucken_notieren</text>
</g>
<!-- StartEvent\n_5&#45;&gt;Task_0ln0s\nhf -->
<g id="edge2" class="edge">
<title>StartEvent\n_5&#45;&gt;Task_0ln0s\nhf</title>
<path fill="none" stroke="black" d="M372,-2081C372,-2072.91 372,-2063.84 372,-2054.99"/>
<polygon fill="black" stroke="black" points="375.5,-2054.77 372,-2044.77 368.5,-2054.77 375.5,-2054.77"/>
</g>
<!-- ExclusiveG\nateway_1yd\nw5c6 -->
<g id="node4" class="node">
<title>ExclusiveG\nateway_1yd\nw5c6</title>
<polygon fill="lightgrey" stroke="black" points="758,-552.49 596.46,-534.49 758,-516.49 919.54,-534.49 758,-552.49"/>
<text text-anchor="middle" x="758" y="-530.79" font-family="Times New Roman,serif" font-size="14.00">Status_überprüfen_/_SPLIT</text>
</g>
<!-- EndEvent_0\nsokwfi -->
<g id="node19" class="node">
<title>EndEvent_0\nsokwfi</title>
<ellipse fill="lightgrey" stroke="black" cx="650" cy="-437.59" rx="42.79" ry="42.79"/>
<text text-anchor="middle" x="650" y="-433.89" font-family="Times New Roman,serif" font-size="14.00">Abbruch</text>
</g>
<!-- ExclusiveG\nateway_1yd\nw5c6&#45;&gt;EndEvent_0\nsokwfi -->
<g id="edge3" class="edge">
<title>ExclusiveG\nateway_1yd\nw5c6&#45;&gt;EndEvent_0\nsokwfi</title>
<path fill="none" stroke="black" d="M740.65,-518.24C727,-506.24 707.43,-489.05 689.97,-473.71"/>
<polygon fill="black" stroke="black" points="691.94,-470.78 682.12,-466.81 687.32,-476.04 691.94,-470.78"/>
</g>
<!-- ExclusiveG\nateway_0hg\nr87e -->
<g id="node27" class="node">
<title>ExclusiveG\nateway_0hg\nr87e</title>
<polygon fill="lightgrey" stroke="black" points="865,-455.59 710.66,-437.59 865,-419.59 1019.34,-437.59 865,-455.59"/>
<text text-anchor="middle" x="865" y="-433.89" font-family="Times New Roman,serif" font-size="14.00">Status_überprüfen_/_JOIN</text>
</g>
<!-- ExclusiveG\nateway_1yd\nw5c6&#45;&gt;ExclusiveG\nateway_0hg\nr87e -->
<g id="edge4" class="edge">
<title>ExclusiveG\nateway_1yd\nw5c6&#45;&gt;ExclusiveG\nateway_0hg\nr87e</title>
<path fill="none" stroke="black" d="M775.19,-518.24C792.82,-502.61 820.4,-478.14 840.35,-460.45"/>
<polygon fill="black" stroke="black" points="842.69,-463.05 847.85,-453.8 838.05,-457.81 842.69,-463.05"/>
</g>
<!-- Task_03cc1\nrv -->
<g id="node5" class="node">
<title>Task_03cc1\nrv</title>
<polygon fill="lightgrey" stroke="black" points="0,-1814.68 0,-1867.68 356,-1867.68 356,-1814.68 0,-1814.68"/>
<text text-anchor="middle" x="43" y="-1844.98" font-family="Times New Roman,serif" font-size="14.00">Task_03cc1</text>
<text text-anchor="middle" x="43" y="-1829.98" font-family="Times New Roman,serif" font-size="14.00">rv</text>
<polyline fill="none" stroke="black" points="86,-1814.68 86,-1867.68 "/>
<text text-anchor="middle" x="135" y="-1852.48" font-family="Times New Roman,serif" font-size="14.00">SAP_S/4HAN</text>
<text text-anchor="middle" x="135" y="-1837.48" font-family="Times New Roman,serif" font-size="14.00">A:1D1__Lan</text>
<text text-anchor="middle" x="135" y="-1822.48" font-family="Times New Roman,serif" font-size="14.00">e_0b39f8a</text>
<polyline fill="none" stroke="black" points="184,-1814.68 184,-1867.68 "/>
<text text-anchor="middle" x="270" y="-1837.48" font-family="Times New Roman,serif" font-size="14.00">Warenbestand_aktualisieren</text>
</g>
<!-- ExclusiveG\nateway_0kp\nypkj -->
<g id="node16" class="node">
<title>ExclusiveG\nateway_0kp\nypkj</title>
<polygon fill="lightgrey" stroke="black" points="372,-1778.18 212.97,-1760.18 372,-1742.18 531.03,-1760.18 372,-1778.18"/>
<text text-anchor="middle" x="372" y="-1756.48" font-family="Times New Roman,serif" font-size="14.00">Paralleles_Gateway_/_JOIN</text>
</g>
<!-- Task_03cc1\nrv&#45;&gt;ExclusiveG\nateway_0kp\nypkj -->
<g id="edge5" class="edge">
<title>Task_03cc1\nrv&#45;&gt;ExclusiveG\nateway_0kp\nypkj</title>
<path fill="none" stroke="black" d="M240.72,-1814.64C269.77,-1802.81 303.54,-1789.06 329.55,-1778.46"/>
<polygon fill="black" stroke="black" points="331.17,-1781.58 339.11,-1774.57 328.53,-1775.1 331.17,-1781.58"/>
</g>
<!-- ExclusiveG\nateway_05a\nsm52 -->
<g id="node6" class="node">
<title>ExclusiveG\nateway_05a\nsm52</title>
<polygon fill="lightgrey" stroke="black" points="372,-1940.18 204.93,-1922.18 372,-1904.18 539.07,-1922.18 372,-1940.18"/>
<text text-anchor="middle" x="372" y="-1918.48" font-family="Times New Roman,serif" font-size="14.00">Paralleles_Gateway_/_SPLIT</text>
</g>
<!-- ExclusiveG\nateway_05a\nsm52&#45;&gt;Task_03cc1\nrv -->
<g id="edge6" class="edge">
<title>ExclusiveG\nateway_05a\nsm52&#45;&gt;Task_03cc1\nrv</title>
<path fill="none" stroke="black" d="M338.65,-1907.6C314.3,-1897.68 280.37,-1883.87 249.97,-1871.49"/>
<polygon fill="black" stroke="black" points="251.24,-1868.22 240.66,-1867.69 248.6,-1874.71 251.24,-1868.22"/>
</g>
<!-- Task_0dvu2\n6l -->
<g id="node8" class="node">
<title>Task_0dvu2\n6l</title>
<polygon fill="lightgrey" stroke="black" points="374,-1814.68 374,-1867.68 758,-1867.68 758,-1814.68 374,-1814.68"/>
<text text-anchor="middle" x="417" y="-1844.98" font-family="Times New Roman,serif" font-size="14.00">Task_0dvu2</text>
<text text-anchor="middle" x="417" y="-1829.98" font-family="Times New Roman,serif" font-size="14.00">6l</text>
<polyline fill="none" stroke="black" points="460,-1814.68 460,-1867.68 "/>
<text text-anchor="middle" x="500" y="-1852.48" font-family="Times New Roman,serif" font-size="14.00">Check&#45;In:L</text>
<text text-anchor="middle" x="500" y="-1837.48" font-family="Times New Roman,serif" font-size="14.00">ane_0qxfur</text>
<text text-anchor="middle" x="500" y="-1822.48" font-family="Times New Roman,serif" font-size="14.00">9</text>
<polyline fill="none" stroke="black" points="540,-1814.68 540,-1867.68 "/>
<text text-anchor="middle" x="649" y="-1837.48" font-family="Times New Roman,serif" font-size="14.00">Materialdokument im System prüfen</text>
</g>
<!-- ExclusiveG\nateway_05a\nsm52&#45;&gt;Task_0dvu2\n6l -->
<g id="edge7" class="edge">
<title>ExclusiveG\nateway_05a\nsm52&#45;&gt;Task_0dvu2\n6l</title>
<path fill="none" stroke="black" d="M405.35,-1907.6C429.7,-1897.68 463.63,-1883.87 494.03,-1871.49"/>
<polygon fill="black" stroke="black" points="495.4,-1874.71 503.34,-1867.69 492.76,-1868.22 495.4,-1874.71"/>
</g>
<!-- Task_0gx9b\njy -->
<g id="node7" class="node">
<title>Task_0gx9b\njy</title>
<polygon fill="lightgrey" stroke="black" points="15.5,-1363.18 15.5,-1416.18 310.5,-1416.18 310.5,-1363.18 15.5,-1363.18"/>
<text text-anchor="middle" x="58.5" y="-1393.48" font-family="Times New Roman,serif" font-size="14.00">Task_0gx9b</text>
<text text-anchor="middle" x="58.5" y="-1378.48" font-family="Times New Roman,serif" font-size="14.00">jy</text>
<polyline fill="none" stroke="black" points="101.5,-1363.18 101.5,-1416.18 "/>
<text text-anchor="middle" x="141.5" y="-1400.98" font-family="Times New Roman,serif" font-size="14.00">Check&#45;In:L</text>
<text text-anchor="middle" x="141.5" y="-1385.98" font-family="Times New Roman,serif" font-size="14.00">ane_0qxfur</text>
<text text-anchor="middle" x="141.5" y="-1370.98" font-family="Times New Roman,serif" font-size="14.00">9</text>
<polyline fill="none" stroke="black" points="181.5,-1363.18 181.5,-1416.18 "/>
<text text-anchor="middle" x="246" y="-1385.98" font-family="Times New Roman,serif" font-size="14.00">Ware herausnehmen</text>
</g>
<!-- EndEvent_0\nc944ct -->
<g id="node11" class="node">
<title>EndEvent_0\nc944ct</title>
<ellipse fill="lightgrey" stroke="black" cx="163" cy="-1280.83" rx="38.19" ry="38.19"/>
<text text-anchor="middle" x="163" y="-1277.13" font-family="Times New Roman,serif" font-size="14.00">Ende_1</text>
</g>
<!-- Task_0gx9b\njy&#45;&gt;EndEvent_0\nc944ct -->
<g id="edge8" class="edge">
<title>Task_0gx9b\njy&#45;&gt;EndEvent_0\nc944ct</title>
<path fill="none" stroke="black" d="M163,-1363.09C163,-1352.96 163,-1340.99 163,-1329.39"/>
<polygon fill="black" stroke="black" points="166.5,-1329.35 163,-1319.35 159.5,-1329.35 166.5,-1329.35"/>
</g>
<!-- Task_0dvu2\n6l&#45;&gt;ExclusiveG\nateway_0kp\nypkj -->
<g id="edge9" class="edge">
<title>Task_0dvu2\n6l&#45;&gt;ExclusiveG\nateway_0kp\nypkj</title>
<path fill="none" stroke="black" d="M503.28,-1814.64C474.23,-1802.81 440.46,-1789.06 414.45,-1778.46"/>
<polygon fill="black" stroke="black" points="415.47,-1775.1 404.89,-1774.57 412.83,-1781.58 415.47,-1775.1"/>
</g>
<!-- ExclusiveG\nateway_087\n4w9z -->
<g id="node9" class="node">
<title>ExclusiveG\nateway_087\n4w9z</title>
<polygon fill="lightgrey" stroke="black" points="758,-834.49 596.46,-816.49 758,-798.49 919.54,-816.49 758,-834.49"/>
<text text-anchor="middle" x="758" y="-812.79" font-family="Times New Roman,serif" font-size="14.00">Status_überprüfen_/_SPLIT</text>
</g>
<!-- Task_04mc7\nzf -->
<g id="node23" class="node">
<title>Task_04mc7\nzf</title>
<polygon fill="lightgrey" stroke="black" points="435,-693.99 435,-761.99 1081,-761.99 1081,-693.99 435,-693.99"/>
<text text-anchor="middle" x="479.5" y="-731.79" font-family="Times New Roman,serif" font-size="14.00">Task_04mc7</text>
<text text-anchor="middle" x="479.5" y="-716.79" font-family="Times New Roman,serif" font-size="14.00">zf</text>
<polyline fill="none" stroke="black" points="524,-693.99 524,-761.99 "/>
<text text-anchor="middle" x="567" y="-746.79" font-family="Times New Roman,serif" font-size="14.00">Lagerfachk</text>
<text text-anchor="middle" x="567" y="-731.79" font-family="Times New Roman,serif" font-size="14.00">raft:1BQ__</text>
<text text-anchor="middle" x="567" y="-716.79" font-family="Times New Roman,serif" font-size="14.00">Lane_11q77</text>
<text text-anchor="middle" x="567" y="-701.79" font-family="Times New Roman,serif" font-size="14.00">qc</text>
<polyline fill="none" stroke="black" points="610,-693.99 610,-761.99 "/>
<text text-anchor="middle" x="845.5" y="-724.29" font-family="Times New Roman,serif" font-size="14.00">Produkte_vom_Übergabepunkt_in_den_Puffer_für_Hochregal&#45;paletten_einlagern</text>
</g>
<!-- ExclusiveG\nateway_087\n4w9z&#45;&gt;Task_04mc7\nzf -->
<g id="edge10" class="edge">
<title>ExclusiveG\nateway_087\n4w9z&#45;&gt;Task_04mc7\nzf</title>
<path fill="none" stroke="black" d="M758,-798.4C758,-790.8 758,-781.49 758,-772.17"/>
<polygon fill="black" stroke="black" points="761.5,-772.15 758,-762.15 754.5,-772.15 761.5,-772.15"/>
</g>
<!-- ExclusiveG\nateway_087\n4w9z&#45;&gt;ExclusiveG\nateway_0hg\nr87e -->
<g id="edge11" class="edge">
<title>ExclusiveG\nateway_087\n4w9z&#45;&gt;ExclusiveG\nateway_0hg\nr87e</title>
<path fill="none" stroke="black" d="M880.44,-812.1C963.55,-806.92 1063.06,-794.07 1090,-762.49 1181.56,-655.15 979.95,-510.76 897.8,-458.5"/>
<polygon fill="black" stroke="black" points="899.19,-455.24 888.86,-452.88 895.46,-461.17 899.19,-455.24"/>
</g>
<!-- ExclusiveG\nateway_11i\nxq87 -->
<g id="node10" class="node">
<title>ExclusiveG\nateway_11i\nxq87</title>
<polygon fill="lightgrey" stroke="black" points="582,-996.49 411.91,-978.49 582,-960.49 752.09,-978.49 582,-996.49"/>
<text text-anchor="middle" x="582" y="-974.79" font-family="Times New Roman,serif" font-size="14.00">Status_überprüfen_/_SPLITT</text>
</g>
<!-- ExclusiveG\nateway_1xg\n0r3u -->
<g id="node18" class="node">
<title>ExclusiveG\nateway_1xg\n0r3u</title>
<polygon fill="lightgrey" stroke="black" points="582,-358.69 427.66,-340.69 582,-322.69 736.34,-340.69 582,-358.69"/>
<text text-anchor="middle" x="582" y="-336.99" font-family="Times New Roman,serif" font-size="14.00">Status_überprüfen_/_JOIN</text>
</g>
<!-- ExclusiveG\nateway_11i\nxq87&#45;&gt;ExclusiveG\nateway_1xg\n0r3u -->
<g id="edge12" class="edge">
<title>ExclusiveG\nateway_11i\nxq87&#45;&gt;ExclusiveG\nateway_1xg\n0r3u</title>
<path fill="none" stroke="black" d="M542.07,-964.66C519.59,-955.97 492.09,-942.72 472,-924.49 430.8,-887.09 407,-873.13 407,-817.49 407,-817.49 407,-817.49 407,-533.49 407,-452.06 494.15,-390.04 545.44,-360.59"/>
<polygon fill="black" stroke="black" points="547.26,-363.59 554.27,-355.64 543.84,-357.48 547.26,-363.59"/>
</g>
<!-- Task_1l67i\n8p -->
<g id="node25" class="node">
<title>Task_1l67i\n8p</title>
<polygon fill="lightgrey" stroke="black" points="481,-870.99 481,-923.99 943,-923.99 943,-870.99 481,-870.99"/>
<text text-anchor="middle" x="520" y="-901.29" font-family="Times New Roman,serif" font-size="14.00">Task_1l67i</text>
<text text-anchor="middle" x="520" y="-886.29" font-family="Times New Roman,serif" font-size="14.00">8p</text>
<polyline fill="none" stroke="black" points="559,-870.99 559,-923.99 "/>
<text text-anchor="middle" x="603.5" y="-908.79" font-family="Times New Roman,serif" font-size="14.00">Versandbür</text>
<text text-anchor="middle" x="603.5" y="-893.79" font-family="Times New Roman,serif" font-size="14.00">o:1CT__Lan</text>
<text text-anchor="middle" x="603.5" y="-878.79" font-family="Times New Roman,serif" font-size="14.00">e_1n6g0py</text>
<polyline fill="none" stroke="black" points="648,-870.99 648,-923.99 "/>
<text text-anchor="middle" x="795.5" y="-893.79" font-family="Times New Roman,serif" font-size="14.00">Übersicht_der_Batch&#45;Warenbestands_überprüfen</text>
</g>
<!-- ExclusiveG\nateway_11i\nxq87&#45;&gt;Task_1l67i\n8p -->
<g id="edge13" class="edge">
<title>ExclusiveG\nateway_11i\nxq87&#45;&gt;Task_1l67i\n8p</title>
<path fill="none" stroke="black" d="M605.84,-963C621.35,-953.57 642.17,-940.92 661.27,-929.32"/>
<polygon fill="black" stroke="black" points="663.17,-932.26 669.89,-924.07 659.53,-926.28 663.17,-932.26"/>
</g>
<!-- Task_0t99p\nk6 -->
<g id="node12" class="node">
<title>Task_0t99p\nk6</title>
<polygon fill="lightgrey" stroke="black" points="83.5,-1532.68 83.5,-1600.68 660.5,-1600.68 660.5,-1532.68 83.5,-1532.68"/>
<text text-anchor="middle" x="125" y="-1570.48" font-family="Times New Roman,serif" font-size="14.00">Task_0t99p</text>
<text text-anchor="middle" x="125" y="-1555.48" font-family="Times New Roman,serif" font-size="14.00">k6</text>
<polyline fill="none" stroke="black" points="166.5,-1532.68 166.5,-1600.68 "/>
<text text-anchor="middle" x="209.5" y="-1585.48" font-family="Times New Roman,serif" font-size="14.00">Lagerfachk</text>
<text text-anchor="middle" x="209.5" y="-1570.48" font-family="Times New Roman,serif" font-size="14.00">raft:1BQ__</text>
<text text-anchor="middle" x="209.5" y="-1555.48" font-family="Times New Roman,serif" font-size="14.00">Lane_11q77</text>
<text text-anchor="middle" x="209.5" y="-1540.48" font-family="Times New Roman,serif" font-size="14.00">qc</text>
<polyline fill="none" stroke="black" points="252.5,-1532.68 252.5,-1600.68 "/>
<text text-anchor="middle" x="456.5" y="-1562.98" font-family="Times New Roman,serif" font-size="14.00">Paletten_von_der_Bereitstellungszone_zum_Übergabepunkt_bewegen</text>
</g>
<!-- ExclusiveG\nateway_04z\n3jfd -->
<g id="node26" class="node">
<title>ExclusiveG\nateway_04z\n3jfd</title>
<polygon fill="lightgrey" stroke="black" points="372,-1496.18 234.25,-1478.18 372,-1460.18 509.75,-1478.18 372,-1496.18"/>
<text text-anchor="middle" x="372" y="-1474.48" font-family="Times New Roman,serif" font-size="14.00">Sperrgepäck?_/_SPLIT</text>
</g>
<!-- Task_0t99p\nk6&#45;&gt;ExclusiveG\nateway_04z\n3jfd -->
<g id="edge14" class="edge">
<title>Task_0t99p\nk6&#45;&gt;ExclusiveG\nateway_04z\n3jfd</title>
<path fill="none" stroke="black" d="M372,-1532.48C372,-1523.87 372,-1514.69 372,-1506.43"/>
<polygon fill="black" stroke="black" points="375.5,-1506.2 372,-1496.2 368.5,-1506.2 375.5,-1506.2"/>
</g>
<!-- Task_0ln0s\nhf&#45;&gt;ExclusiveG\nateway_05a\nsm52 -->
<g id="edge15" class="edge">
<title>Task_0ln0s\nhf&#45;&gt;ExclusiveG\nateway_05a\nsm52</title>
<path fill="none" stroke="black" d="M372,-1976.48C372,-1967.87 372,-1958.69 372,-1950.43"/>
<polygon fill="black" stroke="black" points="375.5,-1950.2 372,-1940.2 368.5,-1950.2 375.5,-1950.2"/>
</g>
<!-- Task_0at6c\n14 -->
<g id="node21" class="node">
<title>Task_0at6c\n14</title>
<polygon fill="lightgrey" stroke="black" points="429,-1032.99 429,-1100.99 735,-1100.99 735,-1032.99 429,-1032.99"/>
<text text-anchor="middle" x="470" y="-1070.79" font-family="Times New Roman,serif" font-size="14.00">Task_0at6c</text>
<text text-anchor="middle" x="470" y="-1055.79" font-family="Times New Roman,serif" font-size="14.00">14</text>
<polyline fill="none" stroke="black" points="511,-1032.99 511,-1100.99 "/>
<text text-anchor="middle" x="554.5" y="-1085.79" font-family="Times New Roman,serif" font-size="14.00">Gepäck_Sic</text>
<text text-anchor="middle" x="554.5" y="-1070.79" font-family="Times New Roman,serif" font-size="14.00">herheitsko</text>
<text text-anchor="middle" x="554.5" y="-1055.79" font-family="Times New Roman,serif" font-size="14.00">ntrolle:La</text>
<text text-anchor="middle" x="554.5" y="-1040.79" font-family="Times New Roman,serif" font-size="14.00">ne_0dxw77z</text>
<polyline fill="none" stroke="black" points="598,-1032.99 598,-1100.99 "/>
<text text-anchor="middle" x="666.5" y="-1063.29" font-family="Times New Roman,serif" font-size="14.00">Warenbestand prüfen</text>
</g>
<!-- Task_0uhl6\n4y&#45;&gt;Task_0at6c\n14 -->
<g id="edge16" class="edge">
<title>Task_0uhl6\n4y&#45;&gt;Task_0at6c\n14</title>
<path fill="none" stroke="black" d="M582,-1137.83C582,-1129.37 582,-1120.16 582,-1111.28"/>
<polygon fill="black" stroke="black" points="585.5,-1111.08 582,-1101.08 578.5,-1111.08 585.5,-1111.08"/>
</g>
<!-- Task_1l6jq\ndi -->
<g id="node15" class="node">
<title>Task_1l6jq\ndi</title>
<polygon fill="lightgrey" stroke="black" points="328.5,-1355.68 328.5,-1423.68 835.5,-1423.68 835.5,-1355.68 328.5,-1355.68"/>
<text text-anchor="middle" x="368" y="-1393.48" font-family="Times New Roman,serif" font-size="14.00">Task_1l6jq</text>
<text text-anchor="middle" x="368" y="-1378.48" font-family="Times New Roman,serif" font-size="14.00">di</text>
<polyline fill="none" stroke="black" points="407.5,-1355.68 407.5,-1423.68 "/>
<text text-anchor="middle" x="449.5" y="-1408.48" font-family="Times New Roman,serif" font-size="14.00">Lagerfachk</text>
<text text-anchor="middle" x="449.5" y="-1393.48" font-family="Times New Roman,serif" font-size="14.00">raft:1CX__</text>
<text text-anchor="middle" x="449.5" y="-1378.48" font-family="Times New Roman,serif" font-size="14.00">Lane_12ge0</text>
<text text-anchor="middle" x="449.5" y="-1363.48" font-family="Times New Roman,serif" font-size="14.00">89</text>
<polyline fill="none" stroke="black" points="491.5,-1355.68 491.5,-1423.68 "/>
<text text-anchor="middle" x="663.5" y="-1385.98" font-family="Times New Roman,serif" font-size="14.00">Artikel_zählen_und_Ergebnisse_auf_Ausdrucken_notieren</text>
</g>
<!-- Task_1l6jq\ndi&#45;&gt;Task_1wi9t\nhp -->
<g id="edge17" class="edge">
<title>Task_1l6jq\ndi&#45;&gt;Task_1wi9t\nhp</title>
<path fill="none" stroke="black" d="M582,-1355.46C582,-1345.91 582,-1335.35 582,-1325.28"/>
<polygon fill="black" stroke="black" points="585.5,-1325.03 582,-1315.03 578.5,-1325.03 585.5,-1325.03"/>
</g>
<!-- Task_1r0bc\n0t -->
<g id="node20" class="node">
<title>Task_1r0bc\n0t</title>
<polygon fill="lightgrey" stroke="black" points="116,-1637.68 116,-1705.68 628,-1705.68 628,-1637.68 116,-1637.68"/>
<text text-anchor="middle" x="158" y="-1675.48" font-family="Times New Roman,serif" font-size="14.00">Task_1r0bc</text>
<text text-anchor="middle" x="158" y="-1660.48" font-family="Times New Roman,serif" font-size="14.00">0t</text>
<polyline fill="none" stroke="black" points="200,-1637.68 200,-1705.68 "/>
<text text-anchor="middle" x="242" y="-1690.48" font-family="Times New Roman,serif" font-size="14.00">Lagerfachk</text>
<text text-anchor="middle" x="242" y="-1675.48" font-family="Times New Roman,serif" font-size="14.00">raft:1CX__</text>
<text text-anchor="middle" x="242" y="-1660.48" font-family="Times New Roman,serif" font-size="14.00">Lane_12ge0</text>
<text text-anchor="middle" x="242" y="-1645.48" font-family="Times New Roman,serif" font-size="14.00">89</text>
<polyline fill="none" stroke="black" points="284,-1637.68 284,-1705.68 "/>
<text text-anchor="middle" x="456" y="-1667.98" font-family="Times New Roman,serif" font-size="14.00">Artikel_zählen_und_Ergebnisse_auf_Ausdrucken_notieren</text>
</g>
<!-- ExclusiveG\nateway_0kp\nypkj&#45;&gt;Task_1r0bc\n0t -->
<g id="edge18" class="edge">
<title>ExclusiveG\nateway_0kp\nypkj&#45;&gt;Task_1r0bc\n0t</title>
<path fill="none" stroke="black" d="M372,-1742.09C372,-1734.5 372,-1725.18 372,-1715.87"/>
<polygon fill="black" stroke="black" points="375.5,-1715.85 372,-1705.85 368.5,-1715.85 375.5,-1715.85"/>
</g>
<!-- Task_0zc9b\njq -->
<g id="node17" class="node">
<title>Task_0zc9b\njq</title>
<polygon fill="lightgrey" stroke="black" points="431,-113.19 431,-181.19 733,-181.19 733,-113.19 431,-113.19"/>
<text text-anchor="middle" x="474" y="-150.99" font-family="Times New Roman,serif" font-size="14.00">Task_0zc9b</text>
<text text-anchor="middle" x="474" y="-135.99" font-family="Times New Roman,serif" font-size="14.00">jq</text>
<polyline fill="none" stroke="black" points="517,-113.19 517,-181.19 "/>
<text text-anchor="middle" x="560.5" y="-165.99" font-family="Times New Roman,serif" font-size="14.00">Gepäck_Sic</text>
<text text-anchor="middle" x="560.5" y="-150.99" font-family="Times New Roman,serif" font-size="14.00">herheitsko</text>
<text text-anchor="middle" x="560.5" y="-135.99" font-family="Times New Roman,serif" font-size="14.00">ntrolle:La</text>
<text text-anchor="middle" x="560.5" y="-120.99" font-family="Times New Roman,serif" font-size="14.00">ne_0dxw77z</text>
<polyline fill="none" stroke="black" points="604,-113.19 604,-181.19 "/>
<text text-anchor="middle" x="668.5" y="-143.49" font-family="Times New Roman,serif" font-size="14.00">Ware herausnehmen</text>
</g>
<!-- Task_0zc9b\njq&#45;&gt;EndEvent_1\nj97r4c -->
<g id="edge19" class="edge">
<title>Task_0zc9b\njq&#45;&gt;EndEvent_1\nj97r4c</title>
<path fill="none" stroke="black" d="M582,-112.97C582,-104.78 582,-95.85 582,-87.12"/>
<polygon fill="black" stroke="black" points="585.5,-87.02 582,-77.02 578.5,-87.02 585.5,-87.02"/>
</g>
<!-- Task_0ceab\nnc -->
<g id="node22" class="node">
<title>Task_0ceab\nnc</title>
<polygon fill="lightgrey" stroke="black" points="380,-218.19 380,-286.19 784,-286.19 784,-218.19 380,-218.19"/>
<text text-anchor="middle" x="422.5" y="-255.99" font-family="Times New Roman,serif" font-size="14.00">Task_0ceab</text>
<text text-anchor="middle" x="422.5" y="-240.99" font-family="Times New Roman,serif" font-size="14.00">nc</text>
<polyline fill="none" stroke="black" points="465,-218.19 465,-286.19 "/>
<text text-anchor="middle" x="509" y="-270.99" font-family="Times New Roman,serif" font-size="14.00">Lagerfachk</text>
<text text-anchor="middle" x="509" y="-255.99" font-family="Times New Roman,serif" font-size="14.00">raft:1CR__</text>
<text text-anchor="middle" x="509" y="-240.99" font-family="Times New Roman,serif" font-size="14.00">Lane_1v76w</text>
<text text-anchor="middle" x="509" y="-225.99" font-family="Times New Roman,serif" font-size="14.00">t5</text>
<polyline fill="none" stroke="black" points="553,-218.19 553,-286.19 "/>
<text text-anchor="middle" x="668.5" y="-248.49" font-family="Times New Roman,serif" font-size="14.00">Ware_am_Entnahmepunkt_entnehmen</text>
</g>
<!-- ExclusiveG\nateway_1xg\n0r3u&#45;&gt;Task_0ceab\nnc -->
<g id="edge20" class="edge">
<title>ExclusiveG\nateway_1xg\n0r3u&#45;&gt;Task_0ceab\nnc</title>
<path fill="none" stroke="black" d="M582,-322.6C582,-315.01 582,-305.69 582,-296.38"/>
<polygon fill="black" stroke="black" points="585.5,-296.36 582,-286.36 578.5,-296.36 585.5,-296.36"/>
</g>
<!-- Task_1r0bc\n0t&#45;&gt;Task_0t99p\nk6 -->
<g id="edge21" class="edge">
<title>Task_1r0bc\n0t&#45;&gt;Task_0t99p\nk6</title>
<path fill="none" stroke="black" d="M372,-1637.52C372,-1629.07 372,-1619.86 372,-1610.98"/>
<polygon fill="black" stroke="black" points="375.5,-1610.77 372,-1600.77 368.5,-1610.77 375.5,-1610.77"/>
</g>
<!-- Task_0at6c\n14&#45;&gt;ExclusiveG\nateway_11i\nxq87 -->
<g id="edge22" class="edge">
<title>Task_0at6c\n14&#45;&gt;ExclusiveG\nateway_11i\nxq87</title>
<path fill="none" stroke="black" d="M582,-1032.79C582,-1024.18 582,-1015 582,-1006.73"/>
<polygon fill="black" stroke="black" points="585.5,-1006.51 582,-996.51 578.5,-1006.51 585.5,-1006.51"/>
</g>
<!-- Task_0ceab\nnc&#45;&gt;Task_0zc9b\njq -->
<g id="edge23" class="edge">
<title>Task_0ceab\nnc&#45;&gt;Task_0zc9b\njq</title>
<path fill="none" stroke="black" d="M582,-218.04C582,-209.58 582,-200.37 582,-191.49"/>
<polygon fill="black" stroke="black" points="585.5,-191.29 582,-181.29 578.5,-191.29 585.5,-191.29"/>
</g>
<!-- Task_00aru\na4 -->
<g id="node24" class="node">
<title>Task_00aru\na4</title>
<polygon fill="lightgrey" stroke="black" points="596.5,-588.99 596.5,-656.99 919.5,-656.99 919.5,-588.99 596.5,-588.99"/>
<text text-anchor="middle" x="638" y="-626.79" font-family="Times New Roman,serif" font-size="14.00">Task_00aru</text>
<text text-anchor="middle" x="638" y="-611.79" font-family="Times New Roman,serif" font-size="14.00">a4</text>
<polyline fill="none" stroke="black" points="679.5,-588.99 679.5,-656.99 "/>
<text text-anchor="middle" x="722" y="-641.79" font-family="Times New Roman,serif" font-size="14.00">Lagerfachk</text>
<text text-anchor="middle" x="722" y="-626.79" font-family="Times New Roman,serif" font-size="14.00">raft:1D7__</text>
<text text-anchor="middle" x="722" y="-611.79" font-family="Times New Roman,serif" font-size="14.00">Lane_04zp9</text>
<text text-anchor="middle" x="722" y="-596.79" font-family="Times New Roman,serif" font-size="14.00">h0</text>
<polyline fill="none" stroke="black" points="764.5,-588.99 764.5,-656.99 "/>
<text text-anchor="middle" x="842" y="-619.29" font-family="Times New Roman,serif" font-size="14.00">Lagerauftrag_überprüfen</text>
</g>
<!-- Task_04mc7\nzf&#45;&gt;Task_00aru\na4 -->
<g id="edge24" class="edge">
<title>Task_04mc7\nzf&#45;&gt;Task_00aru\na4</title>
<path fill="none" stroke="black" d="M758,-693.83C758,-685.37 758,-676.16 758,-667.28"/>
<polygon fill="black" stroke="black" points="761.5,-667.08 758,-657.08 754.5,-667.08 761.5,-667.08"/>
</g>
<!-- Task_00aru\na4&#45;&gt;ExclusiveG\nateway_1yd\nw5c6 -->
<g id="edge25" class="edge">
<title>Task_00aru\na4&#45;&gt;ExclusiveG\nateway_1yd\nw5c6</title>
<path fill="none" stroke="black" d="M758,-588.79C758,-580.18 758,-571 758,-562.73"/>
<polygon fill="black" stroke="black" points="761.5,-562.51 758,-552.51 754.5,-562.51 761.5,-562.51"/>
</g>
<!-- Task_1l67i\n8p&#45;&gt;ExclusiveG\nateway_087\n4w9z -->
<g id="edge26" class="edge">
<title>Task_1l67i\n8p&#45;&gt;ExclusiveG\nateway_087\n4w9z</title>
<path fill="none" stroke="black" d="M727.06,-870.62C732.35,-861.53 738.28,-851.35 743.52,-842.35"/>
<polygon fill="black" stroke="black" points="746.67,-843.9 748.68,-833.5 740.62,-840.38 746.67,-843.9"/>
</g>
<!-- ExclusiveG\nateway_04z\n3jfd&#45;&gt;Task_0gx9b\njy -->
<g id="edge28" class="edge">
<title>ExclusiveG\nateway_04z\n3jfd&#45;&gt;Task_0gx9b\njy</title>
<path fill="none" stroke="black" d="M340.71,-1464.23C312.7,-1452.63 270.57,-1435.2 234.37,-1420.22"/>
<polygon fill="black" stroke="black" points="235.4,-1416.85 224.82,-1416.26 232.72,-1423.32 235.4,-1416.85"/>
</g>
<!-- ExclusiveG\nateway_04z\n3jfd&#45;&gt;Task_1l6jq\ndi -->
<g id="edge27" class="edge">
<title>ExclusiveG\nateway_04z\n3jfd&#45;&gt;Task_1l6jq\ndi</title>
<path fill="none" stroke="black" d="M403.44,-1464.23C427.08,-1454.49 460.72,-1440.64 492.43,-1427.57"/>
<polygon fill="black" stroke="black" points="493.84,-1430.78 501.76,-1423.73 491.18,-1424.3 493.84,-1430.78"/>
</g>
<!-- ExclusiveG\nateway_0hg\nr87e&#45;&gt;ExclusiveG\nateway_1xg\n0r3u -->
<g id="edge29" class="edge">
<title>ExclusiveG\nateway_0hg\nr87e&#45;&gt;ExclusiveG\nateway_1xg\n0r3u</title>
<path fill="none" stroke="black" d="M827.13,-423.89C775.98,-406.74 684.83,-376.18 629.26,-357.54"/>
<polygon fill="black" stroke="black" points="630.24,-354.18 619.65,-354.32 628.02,-360.82 630.24,-354.18"/>
</g>
</g>
</svg>
