<svg width="1302px" height="1000px"
 viewBox="0.00 0.00 479.00 368.39" xmlns="http://www.w3.org/2000/svg" xmlns:xlink="http://www.w3.org/1999/xlink">
<g id="graph0" class="graph" transform="scale(1.0 1.0) rotate(0) translate(4 364.39)">
<title>08_Gepäckabfertigung_Ankunft</title>
<polygon fill="white" stroke="transparent" points="-4,4 -4,-364.39 475,-364.39 475,4 -4,4"/>
<!-- Task_1libs\ndz -->
<g id="node1" class="node">
<title>Task_1libs\ndz</title>
<polygon fill="lightgrey" stroke="black" points="103.5,-199.99 103.5,-267.99 367.5,-267.99 367.5,-199.99 103.5,-199.99"/>
<text text-anchor="middle" x="142.5" y="-237.79" font-family="Times New Roman,serif" font-size="14.00">Task_1libs</text>
<text text-anchor="middle" x="142.5" y="-222.79" font-family="Times New Roman,serif" font-size="14.00">dz</text>
<polyline fill="none" stroke="black" points="181.5,-199.99 181.5,-267.99 "/>
<text text-anchor="middle" x="225.5" y="-252.79" font-family="Times New Roman,serif" font-size="14.00">Lagerfachk</text>
<text text-anchor="middle" x="225.5" y="-237.79" font-family="Times New Roman,serif" font-size="14.00">raft:1CR__</text>
<text text-anchor="middle" x="225.5" y="-222.79" font-family="Times New Roman,serif" font-size="14.00">Lane_1v76w</text>
<text text-anchor="middle" x="225.5" y="-207.79" font-family="Times New Roman,serif" font-size="14.00">t5</text>
<polyline fill="none" stroke="black" points="269.5,-199.99 269.5,-267.99 "/>
<text text-anchor="middle" x="318.5" y="-230.29" font-family="Times New Roman,serif" font-size="14.00">LKW_beladen</text>
</g>
<!-- Task_1hcrl\n8q -->
<g id="node2" class="node">
<title>Task_1hcrl\n8q</title>
<polygon fill="lightgrey" stroke="black" points="0,-94.99 0,-162.99 471,-162.99 471,-94.99 0,-94.99"/>
<text text-anchor="middle" x="40" y="-132.79" font-family="Times New Roman,serif" font-size="14.00">Task_1hcrl</text>
<text text-anchor="middle" x="40" y="-117.79" font-family="Times New Roman,serif" font-size="14.00">8q</text>
<polyline fill="none" stroke="black" points="80,-94.99 80,-162.99 "/>
<text text-anchor="middle" x="123" y="-147.79" font-family="Times New Roman,serif" font-size="14.00">Lagerfachk</text>
<text text-anchor="middle" x="123" y="-132.79" font-family="Times New Roman,serif" font-size="14.00">raft:1CP__</text>
<text text-anchor="middle" x="123" y="-117.79" font-family="Times New Roman,serif" font-size="14.00">Lane_11q77</text>
<text text-anchor="middle" x="123" y="-102.79" font-family="Times New Roman,serif" font-size="14.00">qc</text>
<polyline fill="none" stroke="black" points="166,-94.99 166,-162.99 "/>
<text text-anchor="middle" x="318.5" y="-125.29" font-family="Times New Roman,serif" font-size="14.00">Produkte_in_Hochregal_einlagern_(tiefere_Ebenen)</text>
</g>
<!-- Task_1libs\ndz&#45;&gt;Task_1hcrl\n8q -->
<g id="edge1" class="edge">
<title>Task_1libs\ndz&#45;&gt;Task_1hcrl\n8q</title>
<path fill="none" stroke="black" d="M235.5,-199.84C235.5,-191.38 235.5,-182.17 235.5,-173.29"/>
<polygon fill="black" stroke="black" points="239,-173.09 235.5,-163.09 232,-173.09 239,-173.09"/>
</g>
<!-- EndEvent_0\nrcq1yq -->
<g id="node3" class="node">
<title>EndEvent_0\nrcq1yq</title>
<ellipse fill="lightgrey" stroke="black" cx="235.5" cy="-29.25" rx="29.5" ry="29.5"/>
<text text-anchor="middle" x="235.5" y="-25.55" font-family="Times New Roman,serif" font-size="14.00">Ende</text>
</g>
<!-- Task_1hcrl\n8q&#45;&gt;EndEvent_0\nrcq1yq -->
<g id="edge2" class="edge">
<title>Task_1hcrl\n8q&#45;&gt;EndEvent_0\nrcq1yq</title>
<path fill="none" stroke="black" d="M235.5,-94.9C235.5,-86.55 235.5,-77.52 235.5,-68.92"/>
<polygon fill="black" stroke="black" points="239,-68.73 235.5,-58.73 232,-68.73 239,-68.73"/>
</g>
<!-- StartEvent\n_8 -->
<g id="node4" class="node">
<title>StartEvent\n_8</title>
<ellipse fill="lightgrey" stroke="black" cx="235.5" cy="-332.44" rx="27.9" ry="27.9"/>
<text text-anchor="middle" x="235.5" y="-328.74" font-family="Times New Roman,serif" font-size="14.00">Start</text>
</g>
<!-- StartEvent\n_8&#45;&gt;Task_1libs\ndz -->
<g id="edge3" class="edge">
<title>StartEvent\n_8&#45;&gt;Task_1libs\ndz</title>
<path fill="none" stroke="black" d="M235.5,-304.32C235.5,-296.23 235.5,-287.15 235.5,-278.3"/>
<polygon fill="black" stroke="black" points="239,-278.08 235.5,-268.08 232,-278.08 239,-278.08"/>
</g>
</g>
</svg>
