<svg width="1151px" height="1000px"
 viewBox="0.00 0.00 648.00 563.39" xmlns="http://www.w3.org/2000/svg" xmlns:xlink="http://www.w3.org/1999/xlink">
<g id="graph0" class="graph" transform="scale(1.0 1.0) rotate(0) translate(4 559.39)">
<title>09_Abfertigung_fehlgeleitetes_Transfergepäck</title>
<polygon fill="white" stroke="transparent" points="-4,4 -4,-559.39 644,-559.39 644,4 -4,4"/>
<!-- Task_1yw1t\ng7 -->
<g id="node1" class="node">
<title>Task_1yw1t\ng7</title>
<polygon fill="lightgrey" stroke="black" points="158.5,-289.99 158.5,-342.99 481.5,-342.99 481.5,-289.99 158.5,-289.99"/>
<text text-anchor="middle" x="201.5" y="-320.29" font-family="Times New Roman,serif" font-size="14.00">Task_1yw1t</text>
<text text-anchor="middle" x="201.5" y="-305.29" font-family="Times New Roman,serif" font-size="14.00">g7</text>
<polyline fill="none" stroke="black" points="244.5,-289.99 244.5,-342.99 "/>
<text text-anchor="middle" x="289" y="-327.79" font-family="Times New Roman,serif" font-size="14.00">Versandbür</text>
<text text-anchor="middle" x="289" y="-312.79" font-family="Times New Roman,serif" font-size="14.00">o:1CN__Lan</text>
<text text-anchor="middle" x="289" y="-297.79" font-family="Times New Roman,serif" font-size="14.00">e_1n6g0py</text>
<polyline fill="none" stroke="black" points="333.5,-289.99 333.5,-342.99 "/>
<text text-anchor="middle" x="407.5" y="-312.79" font-family="Times New Roman,serif" font-size="14.00">Versandeinheiten_laden</text>
</g>
<!-- Task_0p8zs\nen -->
<g id="node2" class="node">
<title>Task_0p8zs\nen</title>
<polygon fill="lightgrey" stroke="black" points="159,-199.99 159,-252.99 481,-252.99 481,-199.99 159,-199.99"/>
<text text-anchor="middle" x="201.5" y="-230.29" font-family="Times New Roman,serif" font-size="14.00">Task_0p8zs</text>
<text text-anchor="middle" x="201.5" y="-215.29" font-family="Times New Roman,serif" font-size="14.00">en</text>
<polyline fill="none" stroke="black" points="244,-199.99 244,-252.99 "/>
<text text-anchor="middle" x="288.5" y="-237.79" font-family="Times New Roman,serif" font-size="14.00">Versandbür</text>
<text text-anchor="middle" x="288.5" y="-222.79" font-family="Times New Roman,serif" font-size="14.00">o:1CN__Lan</text>
<text text-anchor="middle" x="288.5" y="-207.79" font-family="Times New Roman,serif" font-size="14.00">e_1n6g0py</text>
<polyline fill="none" stroke="black" points="333,-199.99 333,-252.99 "/>
<text text-anchor="middle" x="407" y="-222.79" font-family="Times New Roman,serif" font-size="14.00">Versandeinheiten_laden</text>
</g>
<!-- Task_1yw1t\ng7&#45;&gt;Task_0p8zs\nen -->
<g id="edge1" class="edge">
<title>Task_1yw1t\ng7&#45;&gt;Task_0p8zs\nen</title>
<path fill="none" stroke="black" d="M320,-289.57C320,-281.33 320,-272.07 320,-263.27"/>
<polygon fill="black" stroke="black" points="323.5,-263.24 320,-253.24 316.5,-263.24 323.5,-263.24"/>
</g>
<!-- Task_0rzkv\nrd -->
<g id="node4" class="node">
<title>Task_0rzkv\nrd</title>
<polygon fill="lightgrey" stroke="black" points="0,-94.99 0,-162.99 640,-162.99 640,-94.99 0,-94.99"/>
<text text-anchor="middle" x="41.5" y="-132.79" font-family="Times New Roman,serif" font-size="14.00">Task_0rzkv</text>
<text text-anchor="middle" x="41.5" y="-117.79" font-family="Times New Roman,serif" font-size="14.00">rd</text>
<polyline fill="none" stroke="black" points="83,-94.99 83,-162.99 "/>
<text text-anchor="middle" x="126" y="-147.79" font-family="Times New Roman,serif" font-size="14.00">Lagerfachk</text>
<text text-anchor="middle" x="126" y="-132.79" font-family="Times New Roman,serif" font-size="14.00">raft:1BQ__</text>
<text text-anchor="middle" x="126" y="-117.79" font-family="Times New Roman,serif" font-size="14.00">Lane_11q77</text>
<text text-anchor="middle" x="126" y="-102.79" font-family="Times New Roman,serif" font-size="14.00">qc</text>
<polyline fill="none" stroke="black" points="169,-94.99 169,-162.99 "/>
<text text-anchor="middle" x="404.5" y="-125.29" font-family="Times New Roman,serif" font-size="14.00">Produkte_vom_Übergabepunkt_in_den_Puffer_für_Hochregal&#45;paletten_einlagern</text>
</g>
<!-- Task_0p8zs\nen&#45;&gt;Task_0rzkv\nrd -->
<g id="edge2" class="edge">
<title>Task_0p8zs\nen&#45;&gt;Task_0rzkv\nrd</title>
<path fill="none" stroke="black" d="M320,-199.9C320,-191.71 320,-182.41 320,-173.32"/>
<polygon fill="black" stroke="black" points="323.5,-173.22 320,-163.22 316.5,-173.22 323.5,-173.22"/>
</g>
<!-- Task_0ekil\nqz -->
<g id="node3" class="node">
<title>Task_0ekil\nqz</title>
<polygon fill="lightgrey" stroke="black" points="174,-379.99 174,-462.99 466,-462.99 466,-379.99 174,-379.99"/>
<text text-anchor="middle" x="212.5" y="-425.29" font-family="Times New Roman,serif" font-size="14.00">Task_0ekil</text>
<text text-anchor="middle" x="212.5" y="-410.29" font-family="Times New Roman,serif" font-size="14.00">qz</text>
<polyline fill="none" stroke="black" points="251,-379.99 251,-462.99 "/>
<text text-anchor="middle" x="294" y="-447.79" font-family="Times New Roman,serif" font-size="14.00">Mitarbeite</text>
<text text-anchor="middle" x="294" y="-432.79" font-family="Times New Roman,serif" font-size="14.00">r_Gepäckab</text>
<text text-anchor="middle" x="294" y="-417.79" font-family="Times New Roman,serif" font-size="14.00">fertigung:</text>
<text text-anchor="middle" x="294" y="-402.79" font-family="Times New Roman,serif" font-size="14.00">Lane_01ilm</text>
<text text-anchor="middle" x="294" y="-387.79" font-family="Times New Roman,serif" font-size="14.00">zw</text>
<polyline fill="none" stroke="black" points="337,-379.99 337,-462.99 "/>
<text text-anchor="middle" x="401.5" y="-417.79" font-family="Times New Roman,serif" font-size="14.00">Ware herausnehmen</text>
</g>
<!-- Task_0ekil\nqz&#45;&gt;Task_1yw1t\ng7 -->
<g id="edge3" class="edge">
<title>Task_0ekil\nqz&#45;&gt;Task_1yw1t\ng7</title>
<path fill="none" stroke="black" d="M320,-379.79C320,-370.99 320,-361.76 320,-353.17"/>
<polygon fill="black" stroke="black" points="323.5,-353.1 320,-343.1 316.5,-353.1 323.5,-353.1"/>
</g>
<!-- EndEvent_0\nrx13h1 -->
<g id="node5" class="node">
<title>EndEvent_0\nrx13h1</title>
<ellipse fill="lightgrey" stroke="black" cx="320" cy="-29.25" rx="29.5" ry="29.5"/>
<text text-anchor="middle" x="320" y="-25.55" font-family="Times New Roman,serif" font-size="14.00">Ende</text>
</g>
<!-- Task_0rzkv\nrd&#45;&gt;EndEvent_0\nrx13h1 -->
<g id="edge4" class="edge">
<title>Task_0rzkv\nrd&#45;&gt;EndEvent_0\nrx13h1</title>
<path fill="none" stroke="black" d="M320,-94.9C320,-86.55 320,-77.52 320,-68.92"/>
<polygon fill="black" stroke="black" points="323.5,-68.73 320,-58.73 316.5,-68.73 323.5,-68.73"/>
</g>
<!-- StartEvent\n_9 -->
<g id="node6" class="node">
<title>StartEvent\n_9</title>
<ellipse fill="lightgrey" stroke="black" cx="320" cy="-527.44" rx="27.9" ry="27.9"/>
<text text-anchor="middle" x="320" y="-523.74" font-family="Times New Roman,serif" font-size="14.00">Start</text>
</g>
<!-- StartEvent\n_9&#45;&gt;Task_0ekil\nqz -->
<g id="edge5" class="edge">
<title>StartEvent\n_9&#45;&gt;Task_0ekil\nqz</title>
<path fill="none" stroke="black" d="M320,-499.4C320,-491.36 320,-482.28 320,-473.24"/>
<polygon fill="black" stroke="black" points="323.5,-473.12 320,-463.12 316.5,-473.12 323.5,-473.12"/>
</g>
</g>
</svg>
