<svg width="939px" height="1000px"
 viewBox="0.00 0.00 967.50 1031.39" xmlns="http://www.w3.org/2000/svg" xmlns:xlink="http://www.w3.org/1999/xlink">
<g id="graph0" class="graph" transform="scale(1.0 1.0) rotate(0) translate(4 1027.39)">
<title>11_Abfertigung_Sperrgepäck</title>
<polygon fill="white" stroke="transparent" points="-4,4 -4,-1027.39 963.5,-1027.39 963.5,4 -4,4"/>
<!-- Task_02qnn\njf -->
<g id="node1" class="node">
<title>Task_02qnn\njf</title>
<polygon fill="lightgrey" stroke="black" points="398.5,-271.99 398.5,-324.99 959.5,-324.99 959.5,-271.99 398.5,-271.99"/>
<text text-anchor="middle" x="441.5" y="-302.29" font-family="Times New Roman,serif" font-size="14.00">Task_02qnn</text>
<text text-anchor="middle" x="441.5" y="-287.29" font-family="Times New Roman,serif" font-size="14.00">jf</text>
<polyline fill="none" stroke="black" points="484.5,-271.99 484.5,-324.99 "/>
<text text-anchor="middle" x="527.5" y="-309.79" font-family="Times New Roman,serif" font-size="14.00">Käufer:1CP</text>
<text text-anchor="middle" x="527.5" y="-294.79" font-family="Times New Roman,serif" font-size="14.00">__Lane_1a6</text>
<text text-anchor="middle" x="527.5" y="-279.79" font-family="Times New Roman,serif" font-size="14.00">bz8p</text>
<polyline fill="none" stroke="black" points="570.5,-271.99 570.5,-324.99 "/>
<text text-anchor="middle" x="765" y="-294.79" font-family="Times New Roman,serif" font-size="14.00">Bestand_vom_Lagerplatz_ROD_in_den_Lagerplatz_AFS_buchen</text>
</g>
<!-- ExclusiveG\nateway_1br\n64kh -->
<g id="node11" class="node">
<title>ExclusiveG\nateway_1br\n64kh</title>
<polygon fill="lightgrey" stroke="black" points="447,-235.49 166.81,-217.49 447,-199.49 727.19,-217.49 447,-235.49"/>
<text text-anchor="middle" x="447" y="-213.79" font-family="Times New Roman,serif" font-size="14.00">Förderband_für_Sperrgepäck_vorhanden?_/_JOIN</text>
</g>
<!-- Task_02qnn\njf&#45;&gt;ExclusiveG\nateway_1br\n64kh -->
<g id="edge1" class="edge">
<title>Task_02qnn\njf&#45;&gt;ExclusiveG\nateway_1br\n64kh</title>
<path fill="none" stroke="black" d="M604,-271.95C569.71,-260.28 529.94,-246.74 499.01,-236.21"/>
<polygon fill="black" stroke="black" points="499.89,-232.81 489.3,-232.9 497.63,-239.43 499.89,-232.81"/>
</g>
<!-- EndEvent_0\nhbd04d -->
<g id="node2" class="node">
<title>EndEvent_0\nhbd04d</title>
<ellipse fill="lightgrey" stroke="black" cx="447" cy="-29.25" rx="29.5" ry="29.5"/>
<text text-anchor="middle" x="447" y="-25.55" font-family="Times New Roman,serif" font-size="14.00">Ende</text>
</g>
<!-- Task_1rykt\npx -->
<g id="node3" class="node">
<title>Task_1rykt\npx</title>
<polygon fill="lightgrey" stroke="black" points="104.5,-715.99 104.5,-768.99 543.5,-768.99 543.5,-715.99 104.5,-715.99"/>
<text text-anchor="middle" x="144.5" y="-746.29" font-family="Times New Roman,serif" font-size="14.00">Task_1rykt</text>
<text text-anchor="middle" x="144.5" y="-731.29" font-family="Times New Roman,serif" font-size="14.00">px</text>
<polyline fill="none" stroke="black" points="184.5,-715.99 184.5,-768.99 "/>
<text text-anchor="middle" x="228" y="-753.79" font-family="Times New Roman,serif" font-size="14.00">Lagerleitu</text>
<text text-anchor="middle" x="228" y="-738.79" font-family="Times New Roman,serif" font-size="14.00">ng:1CZ__La</text>
<text text-anchor="middle" x="228" y="-723.79" font-family="Times New Roman,serif" font-size="14.00">ne_1tzanw4</text>
<polyline fill="none" stroke="black" points="271.5,-715.99 271.5,-768.99 "/>
<text text-anchor="middle" x="407.5" y="-738.79" font-family="Times New Roman,serif" font-size="14.00">Dokumente_für_physische_Inventur_drucken</text>
</g>
<!-- Task_0rq62\ni2 -->
<g id="node6" class="node">
<title>Task_0rq62\ni2</title>
<polygon fill="lightgrey" stroke="black" points="0,-610.99 0,-678.99 578,-678.99 578,-610.99 0,-610.99"/>
<text text-anchor="middle" x="42" y="-648.79" font-family="Times New Roman,serif" font-size="14.00">Task_0rq62</text>
<text text-anchor="middle" x="42" y="-633.79" font-family="Times New Roman,serif" font-size="14.00">i2</text>
<polyline fill="none" stroke="black" points="84,-610.99 84,-678.99 "/>
<text text-anchor="middle" x="127" y="-663.79" font-family="Times New Roman,serif" font-size="14.00">Lagerfachk</text>
<text text-anchor="middle" x="127" y="-648.79" font-family="Times New Roman,serif" font-size="14.00">raft:1BQ__</text>
<text text-anchor="middle" x="127" y="-633.79" font-family="Times New Roman,serif" font-size="14.00">Lane_11q77</text>
<text text-anchor="middle" x="127" y="-618.79" font-family="Times New Roman,serif" font-size="14.00">qc</text>
<polyline fill="none" stroke="black" points="170,-610.99 170,-678.99 "/>
<text text-anchor="middle" x="374" y="-641.29" font-family="Times New Roman,serif" font-size="14.00">Paletten_von_der_Bereitstellungszone_zum_Übergabepunkt_bewegen</text>
</g>
<!-- Task_1rykt\npx&#45;&gt;Task_0rq62\ni2 -->
<g id="edge2" class="edge">
<title>Task_1rykt\npx&#45;&gt;Task_0rq62\ni2</title>
<path fill="none" stroke="black" d="M314.62,-715.9C311.55,-707.54 308.06,-698.01 304.66,-688.73"/>
<polygon fill="black" stroke="black" points="307.9,-687.4 301.18,-679.22 301.33,-689.81 307.9,-687.4"/>
</g>
<!-- StartEvent\n_111 -->
<g id="node4" class="node">
<title>StartEvent\n_111</title>
<ellipse fill="lightgrey" stroke="black" cx="448" cy="-995.44" rx="27.9" ry="27.9"/>
<text text-anchor="middle" x="448" y="-991.74" font-family="Times New Roman,serif" font-size="14.00">Start</text>
</g>
<!-- Task_0maf9\nlr -->
<g id="node13" class="node">
<title>Task_0maf9\nlr</title>
<polygon fill="lightgrey" stroke="black" points="311.5,-877.99 311.5,-930.99 584.5,-930.99 584.5,-877.99 311.5,-877.99"/>
<text text-anchor="middle" x="354.5" y="-908.29" font-family="Times New Roman,serif" font-size="14.00">Task_0maf9</text>
<text text-anchor="middle" x="354.5" y="-893.29" font-family="Times New Roman,serif" font-size="14.00">lr</text>
<polyline fill="none" stroke="black" points="397.5,-877.99 397.5,-930.99 "/>
<text text-anchor="middle" x="441.5" y="-915.79" font-family="Times New Roman,serif" font-size="14.00">Passagier:</text>
<text text-anchor="middle" x="441.5" y="-900.79" font-family="Times New Roman,serif" font-size="14.00">Lane_0nwwt</text>
<text text-anchor="middle" x="441.5" y="-885.79" font-family="Times New Roman,serif" font-size="14.00">sy</text>
<polyline fill="none" stroke="black" points="485.5,-877.99 485.5,-930.99 "/>
<text text-anchor="middle" x="535" y="-900.79" font-family="Times New Roman,serif" font-size="14.00">Ware einlagern</text>
</g>
<!-- StartEvent\n_111&#45;&gt;Task_0maf9\nlr -->
<g id="edge3" class="edge">
<title>StartEvent\n_111&#45;&gt;Task_0maf9\nlr</title>
<path fill="none" stroke="black" d="M448,-967.27C448,-959.14 448,-950.08 448,-941.47"/>
<polygon fill="black" stroke="black" points="451.5,-941.28 448,-931.28 444.5,-941.28 451.5,-941.28"/>
</g>
<!-- Task_1qwpq\n3v -->
<g id="node5" class="node">
<title>Task_1qwpq\n3v</title>
<polygon fill="lightgrey" stroke="black" points="52,-271.99 52,-324.99 380,-324.99 380,-271.99 52,-271.99"/>
<text text-anchor="middle" x="97.5" y="-302.29" font-family="Times New Roman,serif" font-size="14.00">Task_1qwpq</text>
<text text-anchor="middle" x="97.5" y="-287.29" font-family="Times New Roman,serif" font-size="14.00">3v</text>
<polyline fill="none" stroke="black" points="143,-271.99 143,-324.99 "/>
<text text-anchor="middle" x="187.5" y="-309.79" font-family="Times New Roman,serif" font-size="14.00">Versandbür</text>
<text text-anchor="middle" x="187.5" y="-294.79" font-family="Times New Roman,serif" font-size="14.00">o:1CN__Lan</text>
<text text-anchor="middle" x="187.5" y="-279.79" font-family="Times New Roman,serif" font-size="14.00">e_1n6g0py</text>
<polyline fill="none" stroke="black" points="232,-271.99 232,-324.99 "/>
<text text-anchor="middle" x="306" y="-294.79" font-family="Times New Roman,serif" font-size="14.00">Versandeinheiten_laden</text>
</g>
<!-- Task_1qwpq\n3v&#45;&gt;ExclusiveG\nateway_1br\n64kh -->
<g id="edge4" class="edge">
<title>Task_1qwpq\n3v&#45;&gt;ExclusiveG\nateway_1br\n64kh</title>
<path fill="none" stroke="black" d="M290.68,-271.95C324.82,-260.28 364.41,-246.74 395.21,-236.21"/>
<polygon fill="black" stroke="black" points="396.56,-239.45 404.89,-232.9 394.29,-232.82 396.56,-239.45"/>
</g>
<!-- ExclusiveG\nateway_047\n9owq -->
<g id="node10" class="node">
<title>ExclusiveG\nateway_047\n9owq</title>
<polygon fill="lightgrey" stroke="black" points="447,-574.49 235.69,-556.49 447,-538.49 658.31,-556.49 447,-574.49"/>
<text text-anchor="middle" x="447" y="-552.79" font-family="Times New Roman,serif" font-size="14.00">Gepäckanhänger_vorhanden?_/_JOIN</text>
</g>
<!-- Task_0rq62\ni2&#45;&gt;ExclusiveG\nateway_047\n9owq -->
<g id="edge5" class="edge">
<title>Task_0rq62\ni2&#45;&gt;ExclusiveG\nateway_047\n9owq</title>
<path fill="none" stroke="black" d="M349.64,-610.8C370.24,-599.52 392.6,-587.28 410.7,-577.37"/>
<polygon fill="black" stroke="black" points="412.65,-580.29 419.74,-572.42 409.29,-574.15 412.65,-580.29"/>
</g>
<!-- ExclusiveG\nateway_0kk\nos1g -->
<g id="node7" class="node">
<title>ExclusiveG\nateway_0kk\nos1g</title>
<polygon fill="lightgrey" stroke="black" points="448,-841.49 228.14,-823.49 448,-805.49 667.86,-823.49 448,-841.49"/>
<text text-anchor="middle" x="448" y="-819.79" font-family="Times New Roman,serif" font-size="14.00">Gepäckanhänger_vorhanden?_/_SPLIT</text>
</g>
<!-- ExclusiveG\nateway_0kk\nos1g&#45;&gt;Task_1rykt\npx -->
<g id="edge6" class="edge">
<title>ExclusiveG\nateway_0kk\nos1g&#45;&gt;Task_1rykt\npx</title>
<path fill="none" stroke="black" d="M424.09,-807.26C409.58,-798.02 390.51,-785.87 372.92,-774.66"/>
<polygon fill="black" stroke="black" points="374.75,-771.67 364.43,-769.25 370.98,-777.58 374.75,-771.67"/>
</g>
<!-- ExclusiveG\nateway_0kk\nos1g&#45;&gt;ExclusiveG\nateway_047\n9owq -->
<g id="edge7" class="edge">
<title>ExclusiveG\nateway_0kk\nos1g&#45;&gt;ExclusiveG\nateway_047\n9owq</title>
<path fill="none" stroke="black" d="M490.8,-808.89C511.62,-800.41 535.62,-787.61 552,-769.49 600.53,-715.83 628.12,-670.03 587,-610.49 573.81,-591.4 552.79,-579.18 531.01,-571.36"/>
<polygon fill="black" stroke="black" points="531.91,-567.97 521.31,-568.17 529.72,-574.62 531.91,-567.97"/>
</g>
<!-- ExclusiveG\nateway_1v5\ntary -->
<g id="node8" class="node">
<title>ExclusiveG\nateway_1v5\ntary</title>
<polygon fill="lightgrey" stroke="black" points="447,-502.49 159.11,-484.49 447,-466.49 734.89,-484.49 447,-502.49"/>
<text text-anchor="middle" x="447" y="-480.79" font-family="Times New Roman,serif" font-size="14.00">Förderband_für_Sperrgepäck_vorhanden?_/_SPLIT</text>
</g>
<!-- ExclusiveG\nateway_1v5\ntary&#45;&gt;Task_1qwpq\n3v -->
<g id="edge9" class="edge">
<title>ExclusiveG\nateway_1v5\ntary&#45;&gt;Task_1qwpq\n3v</title>
<path fill="none" stroke="black" d="M426.9,-467.49C388.95,-437.26 306.08,-371.25 256.26,-331.57"/>
<polygon fill="black" stroke="black" points="258.27,-328.69 248.26,-325.19 253.91,-334.16 258.27,-328.69"/>
</g>
<!-- Task_17dc3\nnr -->
<g id="node12" class="node">
<title>Task_17dc3\nnr</title>
<polygon fill="lightgrey" stroke="black" points="450.5,-361.99 450.5,-429.99 769.5,-429.99 769.5,-361.99 450.5,-361.99"/>
<text text-anchor="middle" x="493.5" y="-399.79" font-family="Times New Roman,serif" font-size="14.00">Task_17dc3</text>
<text text-anchor="middle" x="493.5" y="-384.79" font-family="Times New Roman,serif" font-size="14.00">nr</text>
<polyline fill="none" stroke="black" points="536.5,-361.99 536.5,-429.99 "/>
<text text-anchor="middle" x="578.5" y="-414.79" font-family="Times New Roman,serif" font-size="14.00">Check&#45;In_S</text>
<text text-anchor="middle" x="578.5" y="-399.79" font-family="Times New Roman,serif" font-size="14.00">perrgepäck</text>
<text text-anchor="middle" x="578.5" y="-384.79" font-family="Times New Roman,serif" font-size="14.00">:Lane_08ap</text>
<text text-anchor="middle" x="578.5" y="-369.79" font-family="Times New Roman,serif" font-size="14.00">8ns</text>
<polyline fill="none" stroke="black" points="620.5,-361.99 620.5,-429.99 "/>
<text text-anchor="middle" x="695" y="-392.29" font-family="Times New Roman,serif" font-size="14.00">Transportmittel beladen</text>
</g>
<!-- ExclusiveG\nateway_1v5\ntary&#45;&gt;Task_17dc3\nnr -->
<g id="edge8" class="edge">
<title>ExclusiveG\nateway_1v5\ntary&#45;&gt;Task_17dc3\nnr</title>
<path fill="none" stroke="black" d="M475.77,-468.23C493.28,-458.94 516.48,-446.62 538.66,-434.85"/>
<polygon fill="black" stroke="black" points="540.56,-437.8 547.76,-430.03 537.28,-431.62 540.56,-437.8"/>
</g>
<!-- Task_1ei7t\ni0 -->
<g id="node9" class="node">
<title>Task_1ei7t\ni0</title>
<polygon fill="lightgrey" stroke="black" points="315,-94.99 315,-162.99 579,-162.99 579,-94.99 315,-94.99"/>
<text text-anchor="middle" x="354" y="-132.79" font-family="Times New Roman,serif" font-size="14.00">Task_1ei7t</text>
<text text-anchor="middle" x="354" y="-117.79" font-family="Times New Roman,serif" font-size="14.00">i0</text>
<polyline fill="none" stroke="black" points="393,-94.99 393,-162.99 "/>
<text text-anchor="middle" x="437" y="-147.79" font-family="Times New Roman,serif" font-size="14.00">Lagerfachk</text>
<text text-anchor="middle" x="437" y="-132.79" font-family="Times New Roman,serif" font-size="14.00">raft:1CR__</text>
<text text-anchor="middle" x="437" y="-117.79" font-family="Times New Roman,serif" font-size="14.00">Lane_1v76w</text>
<text text-anchor="middle" x="437" y="-102.79" font-family="Times New Roman,serif" font-size="14.00">t5</text>
<polyline fill="none" stroke="black" points="481,-94.99 481,-162.99 "/>
<text text-anchor="middle" x="530" y="-125.29" font-family="Times New Roman,serif" font-size="14.00">LKW_beladen</text>
</g>
<!-- Task_1ei7t\ni0&#45;&gt;EndEvent_0\nhbd04d -->
<g id="edge10" class="edge">
<title>Task_1ei7t\ni0&#45;&gt;EndEvent_0\nhbd04d</title>
<path fill="none" stroke="black" d="M447,-94.9C447,-86.55 447,-77.52 447,-68.92"/>
<polygon fill="black" stroke="black" points="450.5,-68.73 447,-58.73 443.5,-68.73 450.5,-68.73"/>
</g>
<!-- ExclusiveG\nateway_047\n9owq&#45;&gt;ExclusiveG\nateway_1v5\ntary -->
<g id="edge11" class="edge">
<title>ExclusiveG\nateway_047\n9owq&#45;&gt;ExclusiveG\nateway_1v5\ntary</title>
<path fill="none" stroke="black" d="M447,-538.19C447,-530.48 447,-521.21 447,-512.61"/>
<polygon fill="black" stroke="black" points="450.5,-512.6 447,-502.6 443.5,-512.6 450.5,-512.6"/>
</g>
<!-- ExclusiveG\nateway_1br\n64kh&#45;&gt;Task_1ei7t\ni0 -->
<g id="edge12" class="edge">
<title>ExclusiveG\nateway_1br\n64kh&#45;&gt;Task_1ei7t\ni0</title>
<path fill="none" stroke="black" d="M447,-199.41C447,-191.81 447,-182.5 447,-173.18"/>
<polygon fill="black" stroke="black" points="450.5,-173.16 447,-163.16 443.5,-173.16 450.5,-173.16"/>
</g>
<!-- Task_17dc3\nnr&#45;&gt;Task_02qnn\njf -->
<g id="edge13" class="edge">
<title>Task_17dc3\nnr&#45;&gt;Task_02qnn\njf</title>
<path fill="none" stroke="black" d="M633.94,-361.86C640.61,-352.62 647.87,-342.58 654.58,-333.3"/>
<polygon fill="black" stroke="black" points="657.52,-335.2 660.54,-325.04 651.85,-331.1 657.52,-335.2"/>
</g>
<!-- Task_0maf9\nlr&#45;&gt;ExclusiveG\nateway_0kk\nos1g -->
<g id="edge14" class="edge">
<title>Task_0maf9\nlr&#45;&gt;ExclusiveG\nateway_0kk\nos1g</title>
<path fill="none" stroke="black" d="M448,-877.63C448,-869.4 448,-860.28 448,-851.94"/>
<polygon fill="black" stroke="black" points="451.5,-851.94 448,-841.94 444.5,-851.94 451.5,-851.94"/>
</g>
</g>
</svg>
