<svg width="869px" height="1000px"
 viewBox="0.00 0.00 411.00 473.39" xmlns="http://www.w3.org/2000/svg" xmlns:xlink="http://www.w3.org/1999/xlink">
<g id="graph0" class="graph" transform="scale(1.0 1.0) rotate(0) translate(4 469.39)">
<title>25_Transport_zum_Flugzeug_Containergepäck_Abflug</title>
<polygon fill="white" stroke="transparent" points="-4,4 -4,-469.39 407,-469.39 407,4 -4,4"/>
<!-- Task_0n2ie\nbf -->
<g id="node1" class="node">
<title>Task_0n2ie\nbf</title>
<polygon fill="lightgrey" stroke="black" points="42.5,-319.99 42.5,-372.99 360.5,-372.99 360.5,-319.99 42.5,-319.99"/>
<text text-anchor="middle" x="83" y="-350.29" font-family="Times New Roman,serif" font-size="14.00">Task_0n2ie</text>
<text text-anchor="middle" x="83" y="-335.29" font-family="Times New Roman,serif" font-size="14.00">bf</text>
<polyline fill="none" stroke="black" points="123.5,-319.99 123.5,-372.99 "/>
<text text-anchor="middle" x="168" y="-357.79" font-family="Times New Roman,serif" font-size="14.00">Versandbür</text>
<text text-anchor="middle" x="168" y="-342.79" font-family="Times New Roman,serif" font-size="14.00">o:1CN__Lan</text>
<text text-anchor="middle" x="168" y="-327.79" font-family="Times New Roman,serif" font-size="14.00">e_1n6g0py</text>
<polyline fill="none" stroke="black" points="212.5,-319.99 212.5,-372.99 "/>
<text text-anchor="middle" x="286.5" y="-342.79" font-family="Times New Roman,serif" font-size="14.00">Versandeinheiten_laden</text>
</g>
<!-- Task_1qbk8\n08 -->
<g id="node4" class="node">
<title>Task_1qbk8\n08</title>
<polygon fill="lightgrey" stroke="black" points="0,-184.99 0,-282.99 403,-282.99 403,-184.99 0,-184.99"/>
<text text-anchor="middle" x="43.5" y="-237.79" font-family="Times New Roman,serif" font-size="14.00">Task_1qbk8</text>
<text text-anchor="middle" x="43.5" y="-222.79" font-family="Times New Roman,serif" font-size="14.00">08</text>
<polyline fill="none" stroke="black" points="87,-184.99 87,-282.99 "/>
<text text-anchor="middle" x="131.5" y="-267.79" font-family="Times New Roman,serif" font-size="14.00">Lagerfachk</text>
<text text-anchor="middle" x="131.5" y="-252.79" font-family="Times New Roman,serif" font-size="14.00">raft_/_Qua</text>
<text text-anchor="middle" x="131.5" y="-237.79" font-family="Times New Roman,serif" font-size="14.00">litätsinsp</text>
<text text-anchor="middle" x="131.5" y="-222.79" font-family="Times New Roman,serif" font-size="14.00">ektor:1D9_</text>
<text text-anchor="middle" x="131.5" y="-207.79" font-family="Times New Roman,serif" font-size="14.00">_Lane_05em</text>
<text text-anchor="middle" x="131.5" y="-192.79" font-family="Times New Roman,serif" font-size="14.00">2bm</text>
<polyline fill="none" stroke="black" points="176,-184.99 176,-282.99 "/>
<text text-anchor="middle" x="289.5" y="-230.29" font-family="Times New Roman,serif" font-size="14.00">Ware_zum_Übergabepunkt_bewegen</text>
</g>
<!-- Task_0n2ie\nbf&#45;&gt;Task_1qbk8\n08 -->
<g id="edge1" class="edge">
<title>Task_0n2ie\nbf&#45;&gt;Task_1qbk8\n08</title>
<path fill="none" stroke="black" d="M201.5,-319.87C201.5,-311.81 201.5,-302.57 201.5,-293.21"/>
<polygon fill="black" stroke="black" points="205,-293.06 201.5,-283.06 198,-293.06 205,-293.06"/>
</g>
<!-- Task_0abe6\nn3 -->
<g id="node2" class="node">
<title>Task_0abe6\nn3</title>
<polygon fill="lightgrey" stroke="black" points="42.5,-94.99 42.5,-147.99 360.5,-147.99 360.5,-94.99 42.5,-94.99"/>
<text text-anchor="middle" x="85" y="-125.29" font-family="Times New Roman,serif" font-size="14.00">Task_0abe6</text>
<text text-anchor="middle" x="85" y="-110.29" font-family="Times New Roman,serif" font-size="14.00">n3</text>
<polyline fill="none" stroke="black" points="127.5,-94.99 127.5,-147.99 "/>
<text text-anchor="middle" x="169.5" y="-132.79" font-family="Times New Roman,serif" font-size="14.00">Flugzeug:L</text>
<text text-anchor="middle" x="169.5" y="-117.79" font-family="Times New Roman,serif" font-size="14.00">ane_05p124</text>
<text text-anchor="middle" x="169.5" y="-102.79" font-family="Times New Roman,serif" font-size="14.00">a</text>
<polyline fill="none" stroke="black" points="211.5,-94.99 211.5,-147.99 "/>
<text text-anchor="middle" x="286" y="-117.79" font-family="Times New Roman,serif" font-size="14.00">Transportmittel beladen</text>
</g>
<!-- EndEvent_1\njm1yyo -->
<g id="node3" class="node">
<title>EndEvent_1\njm1yyo</title>
<ellipse fill="lightgrey" stroke="black" cx="201.5" cy="-29.25" rx="29.5" ry="29.5"/>
<text text-anchor="middle" x="201.5" y="-25.55" font-family="Times New Roman,serif" font-size="14.00">Ende</text>
</g>
<!-- Task_0abe6\nn3&#45;&gt;EndEvent_1\njm1yyo -->
<g id="edge2" class="edge">
<title>Task_0abe6\nn3&#45;&gt;EndEvent_1\njm1yyo</title>
<path fill="none" stroke="black" d="M201.5,-94.87C201.5,-86.78 201.5,-77.66 201.5,-68.87"/>
<polygon fill="black" stroke="black" points="205,-68.79 201.5,-58.79 198,-68.79 205,-68.79"/>
</g>
<!-- Task_1qbk8\n08&#45;&gt;Task_0abe6\nn3 -->
<g id="edge3" class="edge">
<title>Task_1qbk8\n08&#45;&gt;Task_0abe6\nn3</title>
<path fill="none" stroke="black" d="M201.5,-184.85C201.5,-175.93 201.5,-166.77 201.5,-158.3"/>
<polygon fill="black" stroke="black" points="205,-158.02 201.5,-148.02 198,-158.02 205,-158.02"/>
</g>
<!-- StartEvent\n_25 -->
<g id="node5" class="node">
<title>StartEvent\n_25</title>
<ellipse fill="lightgrey" stroke="black" cx="201.5" cy="-437.44" rx="27.9" ry="27.9"/>
<text text-anchor="middle" x="201.5" y="-433.74" font-family="Times New Roman,serif" font-size="14.00">Start</text>
</g>
<!-- StartEvent\n_25&#45;&gt;Task_0n2ie\nbf -->
<g id="edge4" class="edge">
<title>StartEvent\n_25&#45;&gt;Task_0n2ie\nbf</title>
<path fill="none" stroke="black" d="M201.5,-409.27C201.5,-401.14 201.5,-392.08 201.5,-383.47"/>
<polygon fill="black" stroke="black" points="205,-383.28 201.5,-373.28 198,-383.28 205,-383.28"/>
</g>
</g>
</svg>
