<svg width="601px" height="1000px"
 viewBox="0.00 0.00 650.00 1082.39" xmlns="http://www.w3.org/2000/svg" xmlns:xlink="http://www.w3.org/1999/xlink">
<g id="graph0" class="graph" transform="scale(1.0 1.0) rotate(0) translate(4 1078.39)">
<title>27_Vorabend&#45;Check&#45;In</title>
<polygon fill="white" stroke="transparent" points="-4,4 -4,-1078.39 646,-1078.39 646,4 -4,4"/>
<!-- Task_1895c\n2a -->
<g id="node1" class="node">
<title>Task_1895c\n2a</title>
<polygon fill="lightgrey" stroke="black" points="104,-166.99 104,-234.99 376,-234.99 376,-166.99 104,-166.99"/>
<text text-anchor="middle" x="147" y="-204.79" font-family="Times New Roman,serif" font-size="14.00">Task_1895c</text>
<text text-anchor="middle" x="147" y="-189.79" font-family="Times New Roman,serif" font-size="14.00">2a</text>
<polyline fill="none" stroke="black" points="190,-166.99 190,-234.99 "/>
<text text-anchor="middle" x="234" y="-219.79" font-family="Times New Roman,serif" font-size="14.00">Lagerfachk</text>
<text text-anchor="middle" x="234" y="-204.79" font-family="Times New Roman,serif" font-size="14.00">raft:1CR__</text>
<text text-anchor="middle" x="234" y="-189.79" font-family="Times New Roman,serif" font-size="14.00">Lane_1v76w</text>
<text text-anchor="middle" x="234" y="-174.79" font-family="Times New Roman,serif" font-size="14.00">t5</text>
<polyline fill="none" stroke="black" points="278,-166.99 278,-234.99 "/>
<text text-anchor="middle" x="327" y="-197.29" font-family="Times New Roman,serif" font-size="14.00">LKW_beladen</text>
</g>
<!-- ExclusiveG\nateway_0us\n06k6 -->
<g id="node10" class="node">
<title>ExclusiveG\nateway_0us\n06k6</title>
<polygon fill="lightgrey" stroke="black" points="322,-130.49 155.76,-112.49 322,-94.49 488.24,-112.49 322,-130.49"/>
<text text-anchor="middle" x="322" y="-108.79" font-family="Times New Roman,serif" font-size="14.00">Gepäck_vorhanden?_/_JOIN</text>
</g>
<!-- Task_1895c\n2a&#45;&gt;ExclusiveG\nateway_0us\n06k6 -->
<g id="edge1" class="edge">
<title>Task_1895c\n2a&#45;&gt;ExclusiveG\nateway_0us\n06k6</title>
<path fill="none" stroke="black" d="M271.47,-166.8C281.07,-156.67 291.4,-145.77 300.21,-136.48"/>
<polygon fill="black" stroke="black" points="302.86,-138.77 307.2,-129.11 297.78,-133.96 302.86,-138.77"/>
</g>
<!-- Task_0gjmu\n1b -->
<g id="node2" class="node">
<title>Task_0gjmu\n1b</title>
<polygon fill="lightgrey" stroke="black" points="159.5,-628.99 159.5,-681.99 482.5,-681.99 482.5,-628.99 159.5,-628.99"/>
<text text-anchor="middle" x="202.5" y="-659.29" font-family="Times New Roman,serif" font-size="14.00">Task_0gjmu</text>
<text text-anchor="middle" x="202.5" y="-644.29" font-family="Times New Roman,serif" font-size="14.00">1b</text>
<polyline fill="none" stroke="black" points="245.5,-628.99 245.5,-681.99 "/>
<text text-anchor="middle" x="290" y="-666.79" font-family="Times New Roman,serif" font-size="14.00">Versandbür</text>
<text text-anchor="middle" x="290" y="-651.79" font-family="Times New Roman,serif" font-size="14.00">o:1CN__Lan</text>
<text text-anchor="middle" x="290" y="-636.79" font-family="Times New Roman,serif" font-size="14.00">e_1n6g0py</text>
<polyline fill="none" stroke="black" points="334.5,-628.99 334.5,-681.99 "/>
<text text-anchor="middle" x="408.5" y="-651.79" font-family="Times New Roman,serif" font-size="14.00">Versandeinheiten_laden</text>
</g>
<!-- Task_0m52f\n74 -->
<g id="node7" class="node">
<title>Task_0m52f\n74</title>
<polygon fill="lightgrey" stroke="black" points="22,-523.99 22,-591.99 620,-591.99 620,-523.99 22,-523.99"/>
<text text-anchor="middle" x="65.5" y="-561.79" font-family="Times New Roman,serif" font-size="14.00">Task_0m52f</text>
<text text-anchor="middle" x="65.5" y="-546.79" font-family="Times New Roman,serif" font-size="14.00">74</text>
<polyline fill="none" stroke="black" points="109,-523.99 109,-591.99 "/>
<text text-anchor="middle" x="153.5" y="-576.79" font-family="Times New Roman,serif" font-size="14.00">Produktion</text>
<text text-anchor="middle" x="153.5" y="-561.79" font-family="Times New Roman,serif" font-size="14.00">splanung:1</text>
<text text-anchor="middle" x="153.5" y="-546.79" font-family="Times New Roman,serif" font-size="14.00">D7b_Lane_0</text>
<text text-anchor="middle" x="153.5" y="-531.79" font-family="Times New Roman,serif" font-size="14.00">jl5f91</text>
<polyline fill="none" stroke="black" points="198,-523.99 198,-591.99 "/>
<text text-anchor="middle" x="409" y="-554.29" font-family="Times New Roman,serif" font-size="14.00">Warenbestand_von_Lagerplatz_&#39;ROD&#39;_in_Lagerplatz_&#39;AFS&#39;_umbuchen</text>
</g>
<!-- Task_0gjmu\n1b&#45;&gt;Task_0m52f\n74 -->
<g id="edge2" class="edge">
<title>Task_0gjmu\n1b&#45;&gt;Task_0m52f\n74</title>
<path fill="none" stroke="black" d="M321,-628.9C321,-620.71 321,-611.41 321,-602.32"/>
<polygon fill="black" stroke="black" points="324.5,-602.22 321,-592.22 317.5,-602.22 324.5,-602.22"/>
</g>
<!-- Task_18uib\n6w -->
<g id="node3" class="node">
<title>Task_18uib\n6w</title>
<polygon fill="lightgrey" stroke="black" points="100,-433.99 100,-486.99 542,-486.99 542,-433.99 100,-433.99"/>
<text text-anchor="middle" x="141.5" y="-464.29" font-family="Times New Roman,serif" font-size="14.00">Task_18uib</text>
<text text-anchor="middle" x="141.5" y="-449.29" font-family="Times New Roman,serif" font-size="14.00">6w</text>
<polyline fill="none" stroke="black" points="183,-433.99 183,-486.99 "/>
<text text-anchor="middle" x="226.5" y="-471.79" font-family="Times New Roman,serif" font-size="14.00">Lagerleitu</text>
<text text-anchor="middle" x="226.5" y="-456.79" font-family="Times New Roman,serif" font-size="14.00">ng:1CZ__La</text>
<text text-anchor="middle" x="226.5" y="-441.79" font-family="Times New Roman,serif" font-size="14.00">ne_1tzanw4</text>
<polyline fill="none" stroke="black" points="270,-433.99 270,-486.99 "/>
<text text-anchor="middle" x="406" y="-456.79" font-family="Times New Roman,serif" font-size="14.00">Dokumente_für_physische_Inventur_drucken</text>
</g>
<!-- ExclusiveG\nateway_0ps\n1oy1 -->
<g id="node4" class="node">
<title>ExclusiveG\nateway_0ps\n1oy1</title>
<polygon fill="lightgrey" stroke="black" points="321,-397.49 147.06,-379.49 321,-361.49 494.94,-379.49 321,-397.49"/>
<text text-anchor="middle" x="321" y="-375.79" font-family="Times New Roman,serif" font-size="14.00">Gepäck_vorhanden?_/_SPLIT</text>
</g>
<!-- Task_18uib\n6w&#45;&gt;ExclusiveG\nateway_0ps\n1oy1 -->
<g id="edge3" class="edge">
<title>Task_18uib\n6w&#45;&gt;ExclusiveG\nateway_0ps\n1oy1</title>
<path fill="none" stroke="black" d="M321,-433.63C321,-425.4 321,-416.28 321,-407.94"/>
<polygon fill="black" stroke="black" points="324.5,-407.94 321,-397.94 317.5,-407.94 324.5,-407.94"/>
</g>
<!-- Task_1633h\n8l -->
<g id="node5" class="node">
<title>Task_1633h\n8l</title>
<polygon fill="lightgrey" stroke="black" points="84.5,-271.99 84.5,-324.99 381.5,-324.99 381.5,-271.99 84.5,-271.99"/>
<text text-anchor="middle" x="127.5" y="-302.29" font-family="Times New Roman,serif" font-size="14.00">Task_1633h</text>
<text text-anchor="middle" x="127.5" y="-287.29" font-family="Times New Roman,serif" font-size="14.00">8l</text>
<polyline fill="none" stroke="black" points="170.5,-271.99 170.5,-324.99 "/>
<text text-anchor="middle" x="211.5" y="-309.79" font-family="Times New Roman,serif" font-size="14.00">Check&#45;In&#45;S</text>
<text text-anchor="middle" x="211.5" y="-294.79" font-family="Times New Roman,serif" font-size="14.00">chalter:La</text>
<text text-anchor="middle" x="211.5" y="-279.79" font-family="Times New Roman,serif" font-size="14.00">ne_10utog2</text>
<polyline fill="none" stroke="black" points="252.5,-271.99 252.5,-324.99 "/>
<text text-anchor="middle" x="317" y="-294.79" font-family="Times New Roman,serif" font-size="14.00">Ware herausnehmen</text>
</g>
<!-- ExclusiveG\nateway_0ps\n1oy1&#45;&gt;Task_1633h\n8l -->
<g id="edge5" class="edge">
<title>ExclusiveG\nateway_0ps\n1oy1&#45;&gt;Task_1633h\n8l</title>
<path fill="none" stroke="black" d="M303.61,-362.89C293.75,-354.03 281.03,-342.62 269.11,-331.92"/>
<polygon fill="black" stroke="black" points="271.21,-329.1 261.43,-325.02 266.54,-334.31 271.21,-329.1"/>
</g>
<!-- ExclusiveG\nateway_0ps\n1oy1&#45;&gt;ExclusiveG\nateway_0us\n06k6 -->
<g id="edge4" class="edge">
<title>ExclusiveG\nateway_0ps\n1oy1&#45;&gt;ExclusiveG\nateway_0us\n06k6</title>
<path fill="none" stroke="black" d="M350.16,-364.37C365.01,-355.46 381.65,-342.43 390,-325.49 400.52,-304.16 397.66,-192.09 385,-166.49 378.52,-153.4 367.18,-142.32 355.88,-133.72"/>
<polygon fill="black" stroke="black" points="357.91,-130.87 347.74,-127.91 353.84,-136.57 357.91,-130.87"/>
</g>
<!-- Task_1633h\n8l&#45;&gt;Task_1895c\n2a -->
<g id="edge6" class="edge">
<title>Task_1633h\n8l&#45;&gt;Task_1895c\n2a</title>
<path fill="none" stroke="black" d="M234.88,-271.9C235.48,-263.71 236.16,-254.41 236.82,-245.32"/>
<polygon fill="black" stroke="black" points="240.32,-245.45 237.56,-235.22 233.34,-244.93 240.32,-245.45"/>
</g>
<!-- Task_1goq0\nmv -->
<g id="node6" class="node">
<title>Task_1goq0\nmv</title>
<polygon fill="lightgrey" stroke="black" points="169.5,-823.99 169.5,-876.99 472.5,-876.99 472.5,-823.99 169.5,-823.99"/>
<text text-anchor="middle" x="213" y="-854.29" font-family="Times New Roman,serif" font-size="14.00">Task_1goq0</text>
<text text-anchor="middle" x="213" y="-839.29" font-family="Times New Roman,serif" font-size="14.00">mv</text>
<polyline fill="none" stroke="black" points="256.5,-823.99 256.5,-876.99 "/>
<text text-anchor="middle" x="302.5" y="-861.79" font-family="Times New Roman,serif" font-size="14.00">Verkäufer:</text>
<text text-anchor="middle" x="302.5" y="-846.79" font-family="Times New Roman,serif" font-size="14.00">1DB__Lane_</text>
<text text-anchor="middle" x="302.5" y="-831.79" font-family="Times New Roman,serif" font-size="14.00">1rtfhv2</text>
<polyline fill="none" stroke="black" points="348.5,-823.99 348.5,-876.99 "/>
<text text-anchor="middle" x="410.5" y="-846.79" font-family="Times New Roman,serif" font-size="14.00">Bestellung_erhalten</text>
</g>
<!-- Task_0vqyy\nsy -->
<g id="node8" class="node">
<title>Task_0vqyy\nsy</title>
<polygon fill="lightgrey" stroke="black" points="164,-718.99 164,-786.99 478,-786.99 478,-718.99 164,-718.99"/>
<text text-anchor="middle" x="207" y="-756.79" font-family="Times New Roman,serif" font-size="14.00">Task_0vqyy</text>
<text text-anchor="middle" x="207" y="-741.79" font-family="Times New Roman,serif" font-size="14.00">sy</text>
<polyline fill="none" stroke="black" points="250,-718.99 250,-786.99 "/>
<text text-anchor="middle" x="294" y="-771.79" font-family="Times New Roman,serif" font-size="14.00">Lagerfachk</text>
<text text-anchor="middle" x="294" y="-756.79" font-family="Times New Roman,serif" font-size="14.00">raft:1CL__</text>
<text text-anchor="middle" x="294" y="-741.79" font-family="Times New Roman,serif" font-size="14.00">Lane_1wg8v</text>
<text text-anchor="middle" x="294" y="-726.79" font-family="Times New Roman,serif" font-size="14.00">mc</text>
<polyline fill="none" stroke="black" points="338,-718.99 338,-786.99 "/>
<text text-anchor="middle" x="408" y="-749.29" font-family="Times New Roman,serif" font-size="14.00">Bestand_ist_aufgefüllt</text>
</g>
<!-- Task_1goq0\nmv&#45;&gt;Task_0vqyy\nsy -->
<g id="edge7" class="edge">
<title>Task_1goq0\nmv&#45;&gt;Task_0vqyy\nsy</title>
<path fill="none" stroke="black" d="M321,-823.9C321,-815.71 321,-806.41 321,-797.32"/>
<polygon fill="black" stroke="black" points="324.5,-797.22 321,-787.22 317.5,-797.22 324.5,-797.22"/>
</g>
<!-- Task_0m52f\n74&#45;&gt;Task_18uib\n6w -->
<g id="edge8" class="edge">
<title>Task_0m52f\n74&#45;&gt;Task_18uib\n6w</title>
<path fill="none" stroke="black" d="M321,-523.86C321,-515.28 321,-506.01 321,-497.3"/>
<polygon fill="black" stroke="black" points="324.5,-497.04 321,-487.04 317.5,-497.04 324.5,-497.04"/>
</g>
<!-- Task_0vqyy\nsy&#45;&gt;Task_0gjmu\n1b -->
<g id="edge9" class="edge">
<title>Task_0vqyy\nsy&#45;&gt;Task_0gjmu\n1b</title>
<path fill="none" stroke="black" d="M321,-718.86C321,-710.28 321,-701.01 321,-692.3"/>
<polygon fill="black" stroke="black" points="324.5,-692.04 321,-682.04 317.5,-692.04 324.5,-692.04"/>
</g>
<!-- StartEvent\n_27 -->
<g id="node9" class="node">
<title>StartEvent\n_27</title>
<ellipse fill="lightgrey" stroke="black" cx="321" cy="-1046.44" rx="27.9" ry="27.9"/>
<text text-anchor="middle" x="321" y="-1042.74" font-family="Times New Roman,serif" font-size="14.00">Start</text>
</g>
<!-- Task_16opf\nmb -->
<g id="node12" class="node">
<title>Task_16opf\nmb</title>
<polygon fill="lightgrey" stroke="black" points="0,-913.99 0,-981.99 642,-981.99 642,-913.99 0,-913.99"/>
<text text-anchor="middle" x="42.5" y="-951.79" font-family="Times New Roman,serif" font-size="14.00">Task_16opf</text>
<text text-anchor="middle" x="42.5" y="-936.79" font-family="Times New Roman,serif" font-size="14.00">mb</text>
<polyline fill="none" stroke="black" points="85,-913.99 85,-981.99 "/>
<text text-anchor="middle" x="128" y="-966.79" font-family="Times New Roman,serif" font-size="14.00">Lagerfachk</text>
<text text-anchor="middle" x="128" y="-951.79" font-family="Times New Roman,serif" font-size="14.00">raft:1BQ__</text>
<text text-anchor="middle" x="128" y="-936.79" font-family="Times New Roman,serif" font-size="14.00">Lane_11q77</text>
<text text-anchor="middle" x="128" y="-921.79" font-family="Times New Roman,serif" font-size="14.00">qc</text>
<polyline fill="none" stroke="black" points="171,-913.99 171,-981.99 "/>
<text text-anchor="middle" x="406.5" y="-944.29" font-family="Times New Roman,serif" font-size="14.00">Produkte_vom_Übergabepunkt_in_den_Puffer_für_Hochregal&#45;paletten_einlagern</text>
</g>
<!-- StartEvent\n_27&#45;&gt;Task_16opf\nmb -->
<g id="edge10" class="edge">
<title>StartEvent\n_27&#45;&gt;Task_16opf\nmb</title>
<path fill="none" stroke="black" d="M321,-1018.32C321,-1010.23 321,-1001.15 321,-992.3"/>
<polygon fill="black" stroke="black" points="324.5,-992.08 321,-982.08 317.5,-992.08 324.5,-992.08"/>
</g>
<!-- EndEvent_0\n2faebv -->
<g id="node11" class="node">
<title>EndEvent_0\n2faebv</title>
<ellipse fill="lightgrey" stroke="black" cx="322" cy="-29.25" rx="29.5" ry="29.5"/>
<text text-anchor="middle" x="322" y="-25.55" font-family="Times New Roman,serif" font-size="14.00">Ende</text>
</g>
<!-- ExclusiveG\nateway_0us\n06k6&#45;&gt;EndEvent_0\n2faebv -->
<g id="edge11" class="edge">
<title>ExclusiveG\nateway_0us\n06k6&#45;&gt;EndEvent_0\n2faebv</title>
<path fill="none" stroke="black" d="M322,-94.26C322,-86.83 322,-77.81 322,-68.92"/>
<polygon fill="black" stroke="black" points="325.5,-68.64 322,-58.64 318.5,-68.64 325.5,-68.64"/>
</g>
<!-- Task_16opf\nmb&#45;&gt;Task_1goq0\nmv -->
<g id="edge12" class="edge">
<title>Task_16opf\nmb&#45;&gt;Task_1goq0\nmv</title>
<path fill="none" stroke="black" d="M321,-913.86C321,-905.28 321,-896.01 321,-887.3"/>
<polygon fill="black" stroke="black" points="324.5,-887.04 321,-877.04 317.5,-887.04 324.5,-887.04"/>
</g>
</g>
</svg>
