<svg width="412px" height="1000px"
 viewBox="0.00 0.00 507.00 1232.39" xmlns="http://www.w3.org/2000/svg" xmlns:xlink="http://www.w3.org/1999/xlink">
<g id="graph0" class="graph" transform="scale(1.0 1.0) rotate(0) translate(4 1228.39)">
<title>02_Passagierabfertigung_am_Check&#45;In&#45;Automaten</title>
<polygon fill="white" stroke="transparent" points="-4,4 -4,-1228.39 503,-1228.39 503,4 -4,4"/>
<!-- StartEvent\n_2 -->
<g id="node1" class="node">
<title>StartEvent\n_2</title>
<ellipse fill="lightgrey" stroke="black" cx="191" cy="-1196.44" rx="27.9" ry="27.9"/>
<text text-anchor="middle" x="191" y="-1192.74" font-family="Times New Roman,serif" font-size="14.00">Start</text>
</g>
<!-- Task_0dhs6\nwg -->
<g id="node5" class="node">
<title>Task_0dhs6\nwg</title>
<polygon fill="lightgrey" stroke="black" points="47.5,-1078.99 47.5,-1131.99 334.5,-1131.99 334.5,-1078.99 47.5,-1078.99"/>
<text text-anchor="middle" x="90.5" y="-1109.29" font-family="Times New Roman,serif" font-size="14.00">Task_0dhs6</text>
<text text-anchor="middle" x="90.5" y="-1094.29" font-family="Times New Roman,serif" font-size="14.00">wg</text>
<polyline fill="none" stroke="black" points="133.5,-1078.99 133.5,-1131.99 "/>
<text text-anchor="middle" x="175.5" y="-1116.79" font-family="Times New Roman,serif" font-size="14.00">Passagier:</text>
<text text-anchor="middle" x="175.5" y="-1101.79" font-family="Times New Roman,serif" font-size="14.00">Lane_1gl9w</text>
<text text-anchor="middle" x="175.5" y="-1086.79" font-family="Times New Roman,serif" font-size="14.00">5l</text>
<polyline fill="none" stroke="black" points="217.5,-1078.99 217.5,-1131.99 "/>
<text text-anchor="middle" x="276" y="-1101.79" font-family="Times New Roman,serif" font-size="14.00">Terminal_betreten</text>
</g>
<!-- StartEvent\n_2&#45;&gt;Task_0dhs6\nwg -->
<g id="edge1" class="edge">
<title>StartEvent\n_2&#45;&gt;Task_0dhs6\nwg</title>
<path fill="none" stroke="black" d="M191,-1168.27C191,-1160.14 191,-1151.08 191,-1142.47"/>
<polygon fill="black" stroke="black" points="194.5,-1142.28 191,-1132.28 187.5,-1142.28 194.5,-1142.28"/>
</g>
<!-- Task_11jq6\nxe -->
<g id="node2" class="node">
<title>Task_11jq6\nxe</title>
<polygon fill="lightgrey" stroke="black" points="119.5,-361.99 119.5,-429.99 462.5,-429.99 462.5,-361.99 119.5,-361.99"/>
<text text-anchor="middle" x="161" y="-399.79" font-family="Times New Roman,serif" font-size="14.00">Task_11jq6</text>
<text text-anchor="middle" x="161" y="-384.79" font-family="Times New Roman,serif" font-size="14.00">xe</text>
<polyline fill="none" stroke="black" points="202.5,-361.99 202.5,-429.99 "/>
<text text-anchor="middle" x="245.5" y="-414.79" font-family="Times New Roman,serif" font-size="14.00">Gepäckanna</text>
<text text-anchor="middle" x="245.5" y="-399.79" font-family="Times New Roman,serif" font-size="14.00">hmeschalte</text>
<text text-anchor="middle" x="245.5" y="-384.79" font-family="Times New Roman,serif" font-size="14.00">r:Lane_1jc</text>
<text text-anchor="middle" x="245.5" y="-369.79" font-family="Times New Roman,serif" font-size="14.00">jnxr</text>
<polyline fill="none" stroke="black" points="288.5,-361.99 288.5,-429.99 "/>
<text text-anchor="middle" x="375.5" y="-392.29" font-family="Times New Roman,serif" font-size="14.00">Prozess_Gepäckabfertigung</text>
</g>
<!-- ExclusiveG\nateway_05t\ng0br -->
<g id="node8" class="node">
<title>ExclusiveG\nateway_05t\ng0br</title>
<polygon fill="lightgrey" stroke="black" points="179,-325.49 12.76,-307.49 179,-289.49 345.24,-307.49 179,-325.49"/>
<text text-anchor="middle" x="179" y="-303.79" font-family="Times New Roman,serif" font-size="14.00">Gepäck_vorhanden?_/_JOIN</text>
</g>
<!-- Task_11jq6\nxe&#45;&gt;ExclusiveG\nateway_05t\ng0br -->
<g id="edge2" class="edge">
<title>Task_11jq6\nxe&#45;&gt;ExclusiveG\nateway_05t\ng0br</title>
<path fill="none" stroke="black" d="M248.02,-361.8C234.08,-351.04 219.01,-339.4 206.52,-329.75"/>
<polygon fill="black" stroke="black" points="208.38,-326.76 198.33,-323.42 204.1,-332.3 208.38,-326.76"/>
</g>
<!-- Task_18po4\n8l -->
<g id="node3" class="node">
<title>Task_18po4\n8l</title>
<polygon fill="lightgrey" stroke="black" points="41.5,-718.99 41.5,-771.99 340.5,-771.99 340.5,-718.99 41.5,-718.99"/>
<text text-anchor="middle" x="85" y="-749.29" font-family="Times New Roman,serif" font-size="14.00">Task_18po4</text>
<text text-anchor="middle" x="85" y="-734.29" font-family="Times New Roman,serif" font-size="14.00">8l</text>
<polyline fill="none" stroke="black" points="128.5,-718.99 128.5,-771.99 "/>
<text text-anchor="middle" x="170.5" y="-756.79" font-family="Times New Roman,serif" font-size="14.00">Passagier:</text>
<text text-anchor="middle" x="170.5" y="-741.79" font-family="Times New Roman,serif" font-size="14.00">Lane_1gl9w</text>
<text text-anchor="middle" x="170.5" y="-726.79" font-family="Times New Roman,serif" font-size="14.00">5l</text>
<polyline fill="none" stroke="black" points="212.5,-718.99 212.5,-771.99 "/>
<text text-anchor="middle" x="276.5" y="-741.79" font-family="Times New Roman,serif" font-size="14.00">Sitzplatz_auswählen</text>
</g>
<!-- Task_0xgty\nmq -->
<g id="node10" class="node">
<title>Task_0xgty\nmq</title>
<polygon fill="lightgrey" stroke="black" points="45.5,-628.99 45.5,-681.99 336.5,-681.99 336.5,-628.99 45.5,-628.99"/>
<text text-anchor="middle" x="87" y="-659.29" font-family="Times New Roman,serif" font-size="14.00">Task_0xgty</text>
<text text-anchor="middle" x="87" y="-644.29" font-family="Times New Roman,serif" font-size="14.00">mq</text>
<polyline fill="none" stroke="black" points="128.5,-628.99 128.5,-681.99 "/>
<text text-anchor="middle" x="170" y="-666.79" font-family="Times New Roman,serif" font-size="14.00">Check&#45;In&#45;A</text>
<text text-anchor="middle" x="170" y="-651.79" font-family="Times New Roman,serif" font-size="14.00">utomat:Lan</text>
<text text-anchor="middle" x="170" y="-636.79" font-family="Times New Roman,serif" font-size="14.00">e_140hr48</text>
<polyline fill="none" stroke="black" points="211.5,-628.99 211.5,-681.99 "/>
<text text-anchor="middle" x="274" y="-651.79" font-family="Times New Roman,serif" font-size="14.00">Bordkarte_erstellen</text>
</g>
<!-- Task_18po4\n8l&#45;&gt;Task_0xgty\nmq -->
<g id="edge3" class="edge">
<title>Task_18po4\n8l&#45;&gt;Task_0xgty\nmq</title>
<path fill="none" stroke="black" d="M191,-718.57C191,-710.33 191,-701.07 191,-692.27"/>
<polygon fill="black" stroke="black" points="194.5,-692.24 191,-682.24 187.5,-692.24 194.5,-692.24"/>
</g>
<!-- Task_1ydgj\n3r -->
<g id="node4" class="node">
<title>Task_1ydgj\n3r</title>
<polygon fill="lightgrey" stroke="black" points="0,-199.99 0,-252.99 358,-252.99 358,-199.99 0,-199.99"/>
<text text-anchor="middle" x="41.5" y="-230.29" font-family="Times New Roman,serif" font-size="14.00">Task_1ydgj</text>
<text text-anchor="middle" x="41.5" y="-215.29" font-family="Times New Roman,serif" font-size="14.00">3r</text>
<polyline fill="none" stroke="black" points="83,-199.99 83,-252.99 "/>
<text text-anchor="middle" x="125" y="-237.79" font-family="Times New Roman,serif" font-size="14.00">Passagier:</text>
<text text-anchor="middle" x="125" y="-222.79" font-family="Times New Roman,serif" font-size="14.00">Lane_1gl9w</text>
<text text-anchor="middle" x="125" y="-207.79" font-family="Times New Roman,serif" font-size="14.00">5l</text>
<polyline fill="none" stroke="black" points="167,-199.99 167,-252.99 "/>
<text text-anchor="middle" x="262.5" y="-222.79" font-family="Times New Roman,serif" font-size="14.00">Zum_Sicherheitsbereich_gehen</text>
</g>
<!-- Task_166kh\nwz -->
<g id="node11" class="node">
<title>Task_166kh\nwz</title>
<polygon fill="lightgrey" stroke="black" points="10.5,-94.99 10.5,-162.99 347.5,-162.99 347.5,-94.99 10.5,-94.99"/>
<text text-anchor="middle" x="53.5" y="-132.79" font-family="Times New Roman,serif" font-size="14.00">Task_166kh</text>
<text text-anchor="middle" x="53.5" y="-117.79" font-family="Times New Roman,serif" font-size="14.00">wz</text>
<polyline fill="none" stroke="black" points="96.5,-94.99 96.5,-162.99 "/>
<text text-anchor="middle" x="137" y="-147.79" font-family="Times New Roman,serif" font-size="14.00">Sicherheit</text>
<text text-anchor="middle" x="137" y="-132.79" font-family="Times New Roman,serif" font-size="14.00">sbereich:L</text>
<text text-anchor="middle" x="137" y="-117.79" font-family="Times New Roman,serif" font-size="14.00">ane_1cnf58</text>
<text text-anchor="middle" x="137" y="-102.79" font-family="Times New Roman,serif" font-size="14.00">w</text>
<polyline fill="none" stroke="black" points="177.5,-94.99 177.5,-162.99 "/>
<text text-anchor="middle" x="262.5" y="-125.29" font-family="Times New Roman,serif" font-size="14.00">Prozess_Sicherheitsbereich</text>
</g>
<!-- Task_1ydgj\n3r&#45;&gt;Task_166kh\nwz -->
<g id="edge4" class="edge">
<title>Task_1ydgj\n3r&#45;&gt;Task_166kh\nwz</title>
<path fill="none" stroke="black" d="M179,-199.9C179,-191.71 179,-182.41 179,-173.32"/>
<polygon fill="black" stroke="black" points="182.5,-173.22 179,-163.22 175.5,-173.22 182.5,-173.22"/>
</g>
<!-- Task_0p6ov\npb -->
<g id="node12" class="node">
<title>Task_0p6ov\npb</title>
<polygon fill="lightgrey" stroke="black" points="30.5,-988.99 30.5,-1041.99 351.5,-1041.99 351.5,-988.99 30.5,-988.99"/>
<text text-anchor="middle" x="74" y="-1019.29" font-family="Times New Roman,serif" font-size="14.00">Task_0p6ov</text>
<text text-anchor="middle" x="74" y="-1004.29" font-family="Times New Roman,serif" font-size="14.00">pb</text>
<polyline fill="none" stroke="black" points="117.5,-988.99 117.5,-1041.99 "/>
<text text-anchor="middle" x="159.5" y="-1026.79" font-family="Times New Roman,serif" font-size="14.00">Passagier:</text>
<text text-anchor="middle" x="159.5" y="-1011.79" font-family="Times New Roman,serif" font-size="14.00">Lane_1gl9w</text>
<text text-anchor="middle" x="159.5" y="-996.79" font-family="Times New Roman,serif" font-size="14.00">5l</text>
<polyline fill="none" stroke="black" points="201.5,-988.99 201.5,-1041.99 "/>
<text text-anchor="middle" x="276.5" y="-1011.79" font-family="Times New Roman,serif" font-size="14.00">Zum_Automaten_gehen</text>
</g>
<!-- Task_0dhs6\nwg&#45;&gt;Task_0p6ov\npb -->
<g id="edge5" class="edge">
<title>Task_0dhs6\nwg&#45;&gt;Task_0p6ov\npb</title>
<path fill="none" stroke="black" d="M191,-1078.57C191,-1070.33 191,-1061.07 191,-1052.27"/>
<polygon fill="black" stroke="black" points="194.5,-1052.24 191,-1042.24 187.5,-1052.24 194.5,-1052.24"/>
</g>
<!-- Task_0qnug\nae -->
<g id="node6" class="node">
<title>Task_0qnug\nae</title>
<polygon fill="lightgrey" stroke="black" points="15,-898.99 15,-951.99 367,-951.99 367,-898.99 15,-898.99"/>
<text text-anchor="middle" x="58" y="-929.29" font-family="Times New Roman,serif" font-size="14.00">Task_0qnug</text>
<text text-anchor="middle" x="58" y="-914.29" font-family="Times New Roman,serif" font-size="14.00">ae</text>
<polyline fill="none" stroke="black" points="101,-898.99 101,-951.99 "/>
<text text-anchor="middle" x="143" y="-936.79" font-family="Times New Roman,serif" font-size="14.00">Passagier:</text>
<text text-anchor="middle" x="143" y="-921.79" font-family="Times New Roman,serif" font-size="14.00">Lane_1gl9w</text>
<text text-anchor="middle" x="143" y="-906.79" font-family="Times New Roman,serif" font-size="14.00">5l</text>
<polyline fill="none" stroke="black" points="185,-898.99 185,-951.99 "/>
<text text-anchor="middle" x="276" y="-921.79" font-family="Times New Roman,serif" font-size="14.00">Warten_bis_Automat_frei_ist</text>
</g>
<!-- Task_16bnm\ncp -->
<g id="node7" class="node">
<title>Task_16bnm\ncp</title>
<polygon fill="lightgrey" stroke="black" points="34.5,-808.99 34.5,-861.99 347.5,-861.99 347.5,-808.99 34.5,-808.99"/>
<text text-anchor="middle" x="79.5" y="-839.29" font-family="Times New Roman,serif" font-size="14.00">Task_16bnm</text>
<text text-anchor="middle" x="79.5" y="-824.29" font-family="Times New Roman,serif" font-size="14.00">cp</text>
<polyline fill="none" stroke="black" points="124.5,-808.99 124.5,-861.99 "/>
<text text-anchor="middle" x="166" y="-846.79" font-family="Times New Roman,serif" font-size="14.00">Check&#45;In&#45;A</text>
<text text-anchor="middle" x="166" y="-831.79" font-family="Times New Roman,serif" font-size="14.00">utomat:Lan</text>
<text text-anchor="middle" x="166" y="-816.79" font-family="Times New Roman,serif" font-size="14.00">e_140hr48</text>
<polyline fill="none" stroke="black" points="207.5,-808.99 207.5,-861.99 "/>
<text text-anchor="middle" x="277.5" y="-831.79" font-family="Times New Roman,serif" font-size="14.00">Ausweis_kontrollieren</text>
</g>
<!-- Task_0qnug\nae&#45;&gt;Task_16bnm\ncp -->
<g id="edge6" class="edge">
<title>Task_0qnug\nae&#45;&gt;Task_16bnm\ncp</title>
<path fill="none" stroke="black" d="M191,-898.57C191,-890.33 191,-881.07 191,-872.27"/>
<polygon fill="black" stroke="black" points="194.5,-872.24 191,-862.24 187.5,-872.24 194.5,-872.24"/>
</g>
<!-- Task_16bnm\ncp&#45;&gt;Task_18po4\n8l -->
<g id="edge7" class="edge">
<title>Task_16bnm\ncp&#45;&gt;Task_18po4\n8l</title>
<path fill="none" stroke="black" d="M191,-808.57C191,-800.33 191,-791.07 191,-782.27"/>
<polygon fill="black" stroke="black" points="194.5,-782.24 191,-772.24 187.5,-782.24 194.5,-782.24"/>
</g>
<!-- ExclusiveG\nateway_05t\ng0br&#45;&gt;Task_1ydgj\n3r -->
<g id="edge8" class="edge">
<title>ExclusiveG\nateway_05t\ng0br&#45;&gt;Task_1ydgj\n3r</title>
<path fill="none" stroke="black" d="M179,-289.35C179,-281.64 179,-272.23 179,-263.09"/>
<polygon fill="black" stroke="black" points="182.5,-263.01 179,-253.01 175.5,-263.01 182.5,-263.01"/>
</g>
<!-- EndEvent_0\ncbepo9 -->
<g id="node9" class="node">
<title>EndEvent_0\ncbepo9</title>
<ellipse fill="lightgrey" stroke="black" cx="179" cy="-29.25" rx="29.5" ry="29.5"/>
<text text-anchor="middle" x="179" y="-25.55" font-family="Times New Roman,serif" font-size="14.00">Ende</text>
</g>
<!-- ExclusiveG\nateway_0w2\n89jq -->
<g id="node14" class="node">
<title>ExclusiveG\nateway_0w2\n89jq</title>
<polygon fill="lightgrey" stroke="black" points="191,-592.49 17.06,-574.49 191,-556.49 364.94,-574.49 191,-592.49"/>
<text text-anchor="middle" x="191" y="-570.79" font-family="Times New Roman,serif" font-size="14.00">Gepäck_vorhanden?_/_SPLIT</text>
</g>
<!-- Task_0xgty\nmq&#45;&gt;ExclusiveG\nateway_0w2\n89jq -->
<g id="edge9" class="edge">
<title>Task_0xgty\nmq&#45;&gt;ExclusiveG\nateway_0w2\n89jq</title>
<path fill="none" stroke="black" d="M191,-628.63C191,-620.4 191,-611.28 191,-602.94"/>
<polygon fill="black" stroke="black" points="194.5,-602.94 191,-592.94 187.5,-602.94 194.5,-602.94"/>
</g>
<!-- Task_166kh\nwz&#45;&gt;EndEvent_0\ncbepo9 -->
<g id="edge10" class="edge">
<title>Task_166kh\nwz&#45;&gt;EndEvent_0\ncbepo9</title>
<path fill="none" stroke="black" d="M179,-94.9C179,-86.55 179,-77.52 179,-68.92"/>
<polygon fill="black" stroke="black" points="182.5,-68.73 179,-58.73 175.5,-68.73 182.5,-68.73"/>
</g>
<!-- Task_0p6ov\npb&#45;&gt;Task_0qnug\nae -->
<g id="edge11" class="edge">
<title>Task_0p6ov\npb&#45;&gt;Task_0qnug\nae</title>
<path fill="none" stroke="black" d="M191,-988.57C191,-980.33 191,-971.07 191,-962.27"/>
<polygon fill="black" stroke="black" points="194.5,-962.24 191,-952.24 187.5,-962.24 194.5,-962.24"/>
</g>
<!-- Task_1eqrd\n1u -->
<g id="node13" class="node">
<title>Task_1eqrd\n1u</title>
<polygon fill="lightgrey" stroke="black" points="107,-466.99 107,-519.99 499,-519.99 499,-466.99 107,-466.99"/>
<text text-anchor="middle" x="149" y="-497.29" font-family="Times New Roman,serif" font-size="14.00">Task_1eqrd</text>
<text text-anchor="middle" x="149" y="-482.29" font-family="Times New Roman,serif" font-size="14.00">1u</text>
<polyline fill="none" stroke="black" points="191,-466.99 191,-519.99 "/>
<text text-anchor="middle" x="233" y="-504.79" font-family="Times New Roman,serif" font-size="14.00">Passagier:</text>
<text text-anchor="middle" x="233" y="-489.79" font-family="Times New Roman,serif" font-size="14.00">Lane_1gl9w</text>
<text text-anchor="middle" x="233" y="-474.79" font-family="Times New Roman,serif" font-size="14.00">5l</text>
<polyline fill="none" stroke="black" points="275,-466.99 275,-519.99 "/>
<text text-anchor="middle" x="387" y="-489.79" font-family="Times New Roman,serif" font-size="14.00">Zum_Gepäckannahmeschalter_gehen</text>
</g>
<!-- Task_1eqrd\n1u&#45;&gt;Task_11jq6\nxe -->
<g id="edge12" class="edge">
<title>Task_1eqrd\n1u&#45;&gt;Task_11jq6\nxe</title>
<path fill="none" stroke="black" d="M299.78,-466.9C298.76,-458.71 297.59,-449.41 296.44,-440.32"/>
<polygon fill="black" stroke="black" points="299.89,-439.7 295.17,-430.22 292.95,-440.57 299.89,-439.7"/>
</g>
<!-- ExclusiveG\nateway_0w2\n89jq&#45;&gt;ExclusiveG\nateway_05t\ng0br -->
<g id="edge13" class="edge">
<title>ExclusiveG\nateway_0w2\n89jq&#45;&gt;ExclusiveG\nateway_05t\ng0br</title>
<path fill="none" stroke="black" d="M149.15,-560.63C129.99,-552.41 109.11,-539.62 98,-520.49 82.6,-493.99 101.1,-378.94 111,-361.49 118.62,-348.06 131.15,-336.85 143.38,-328.24"/>
<polygon fill="black" stroke="black" points="145.34,-331.15 151.75,-322.71 141.47,-325.31 145.34,-331.15"/>
</g>
<!-- ExclusiveG\nateway_0w2\n89jq&#45;&gt;Task_1eqrd\n1u -->
<g id="edge14" class="edge">
<title>ExclusiveG\nateway_0w2\n89jq&#45;&gt;Task_1eqrd\n1u</title>
<path fill="none" stroke="black" d="M212.07,-558.64C225.12,-549.42 242.4,-537.24 258.39,-525.96"/>
<polygon fill="black" stroke="black" points="260.45,-528.79 266.6,-520.17 256.41,-523.07 260.45,-528.79"/>
</g>
</g>
</svg>
