<svg width="842px" height="1000px"
 viewBox="0.00 0.00 373.00 443.39" xmlns="http://www.w3.org/2000/svg" xmlns:xlink="http://www.w3.org/1999/xlink">
<g id="graph0" class="graph" transform="scale(1.0 1.0) rotate(0) translate(4 439.39)">
<title>04_Passagierabfertigung_Check&#45;In_am_Vorabend</title>
<polygon fill="white" stroke="transparent" points="-4,4 -4,-439.39 369,-439.39 369,4 -4,4"/>
<!-- Task_1maku\nr1 -->
<g id="node1" class="node">
<title>Task_1maku\nr1</title>
<polygon fill="lightgrey" stroke="black" points="0,-199.99 0,-252.99 365,-252.99 365,-199.99 0,-199.99"/>
<text text-anchor="middle" x="44.5" y="-230.29" font-family="Times New Roman,serif" font-size="14.00">Task_1maku</text>
<text text-anchor="middle" x="44.5" y="-215.29" font-family="Times New Roman,serif" font-size="14.00">r1</text>
<polyline fill="none" stroke="black" points="89,-199.99 89,-252.99 "/>
<text text-anchor="middle" x="131.5" y="-237.79" font-family="Times New Roman,serif" font-size="14.00">Passagier:</text>
<text text-anchor="middle" x="131.5" y="-222.79" font-family="Times New Roman,serif" font-size="14.00">Lane_0ylwo</text>
<text text-anchor="middle" x="131.5" y="-207.79" font-family="Times New Roman,serif" font-size="14.00">ow</text>
<polyline fill="none" stroke="black" points="174,-199.99 174,-252.99 "/>
<text text-anchor="middle" x="269.5" y="-222.79" font-family="Times New Roman,serif" font-size="14.00">Zum_Sicherheitsbereich_gehen</text>
</g>
<!-- Task_0c1t4\n9t -->
<g id="node5" class="node">
<title>Task_0c1t4\n9t</title>
<polygon fill="lightgrey" stroke="black" points="14.5,-94.99 14.5,-162.99 350.5,-162.99 350.5,-94.99 14.5,-94.99"/>
<text text-anchor="middle" x="56" y="-132.79" font-family="Times New Roman,serif" font-size="14.00">Task_0c1t4</text>
<text text-anchor="middle" x="56" y="-117.79" font-family="Times New Roman,serif" font-size="14.00">9t</text>
<polyline fill="none" stroke="black" points="97.5,-94.99 97.5,-162.99 "/>
<text text-anchor="middle" x="139" y="-147.79" font-family="Times New Roman,serif" font-size="14.00">Sicherheit</text>
<text text-anchor="middle" x="139" y="-132.79" font-family="Times New Roman,serif" font-size="14.00">sbereich:L</text>
<text text-anchor="middle" x="139" y="-117.79" font-family="Times New Roman,serif" font-size="14.00">ane_02kbgs</text>
<text text-anchor="middle" x="139" y="-102.79" font-family="Times New Roman,serif" font-size="14.00">x</text>
<polyline fill="none" stroke="black" points="180.5,-94.99 180.5,-162.99 "/>
<text text-anchor="middle" x="265.5" y="-125.29" font-family="Times New Roman,serif" font-size="14.00">Prozess_Sicherheitsbereich</text>
</g>
<!-- Task_1maku\nr1&#45;&gt;Task_0c1t4\n9t -->
<g id="edge1" class="edge">
<title>Task_1maku\nr1&#45;&gt;Task_0c1t4\n9t</title>
<path fill="none" stroke="black" d="M182.5,-199.9C182.5,-191.71 182.5,-182.41 182.5,-173.32"/>
<polygon fill="black" stroke="black" points="186,-173.22 182.5,-163.22 179,-173.22 186,-173.22"/>
</g>
<!-- Task_1376l\n88 -->
<g id="node2" class="node">
<title>Task_1376l\n88</title>
<polygon fill="lightgrey" stroke="black" points="40.5,-289.99 40.5,-342.99 324.5,-342.99 324.5,-289.99 40.5,-289.99"/>
<text text-anchor="middle" x="81.5" y="-320.29" font-family="Times New Roman,serif" font-size="14.00">Task_1376l</text>
<text text-anchor="middle" x="81.5" y="-305.29" font-family="Times New Roman,serif" font-size="14.00">88</text>
<polyline fill="none" stroke="black" points="122.5,-289.99 122.5,-342.99 "/>
<text text-anchor="middle" x="165" y="-327.79" font-family="Times New Roman,serif" font-size="14.00">Passagier:</text>
<text text-anchor="middle" x="165" y="-312.79" font-family="Times New Roman,serif" font-size="14.00">Lane_0ylwo</text>
<text text-anchor="middle" x="165" y="-297.79" font-family="Times New Roman,serif" font-size="14.00">ow</text>
<polyline fill="none" stroke="black" points="207.5,-289.99 207.5,-342.99 "/>
<text text-anchor="middle" x="266" y="-312.79" font-family="Times New Roman,serif" font-size="14.00">Terminal_betreten</text>
</g>
<!-- Task_1376l\n88&#45;&gt;Task_1maku\nr1 -->
<g id="edge2" class="edge">
<title>Task_1376l\n88&#45;&gt;Task_1maku\nr1</title>
<path fill="none" stroke="black" d="M182.5,-289.57C182.5,-281.33 182.5,-272.07 182.5,-263.27"/>
<polygon fill="black" stroke="black" points="186,-263.24 182.5,-253.24 179,-263.24 186,-263.24"/>
</g>
<!-- StartEvent\n_4 -->
<g id="node3" class="node">
<title>StartEvent\n_4</title>
<ellipse fill="lightgrey" stroke="black" cx="182.5" cy="-407.44" rx="27.9" ry="27.9"/>
<text text-anchor="middle" x="182.5" y="-403.74" font-family="Times New Roman,serif" font-size="14.00">Start</text>
</g>
<!-- StartEvent\n_4&#45;&gt;Task_1376l\n88 -->
<g id="edge3" class="edge">
<title>StartEvent\n_4&#45;&gt;Task_1376l\n88</title>
<path fill="none" stroke="black" d="M182.5,-379.27C182.5,-371.14 182.5,-362.08 182.5,-353.47"/>
<polygon fill="black" stroke="black" points="186,-353.28 182.5,-343.28 179,-353.28 186,-353.28"/>
</g>
<!-- EndEvent_1\nvwcw55 -->
<g id="node4" class="node">
<title>EndEvent_1\nvwcw55</title>
<ellipse fill="lightgrey" stroke="black" cx="182.5" cy="-29.25" rx="29.5" ry="29.5"/>
<text text-anchor="middle" x="182.5" y="-25.55" font-family="Times New Roman,serif" font-size="14.00">Ende</text>
</g>
<!-- Task_0c1t4\n9t&#45;&gt;EndEvent_1\nvwcw55 -->
<g id="edge4" class="edge">
<title>Task_0c1t4\n9t&#45;&gt;EndEvent_1\nvwcw55</title>
<path fill="none" stroke="black" d="M182.5,-94.9C182.5,-86.55 182.5,-77.52 182.5,-68.92"/>
<polygon fill="black" stroke="black" points="186,-68.73 182.5,-58.73 179,-68.73 186,-68.73"/>
</g>
</g>
</svg>
