<svg width="1109px" height="1000px"
 viewBox="0.00 0.00 375.00 338.39" xmlns="http://www.w3.org/2000/svg" xmlns:xlink="http://www.w3.org/1999/xlink">
<g id="graph0" class="graph" transform="scale(1.0 1.0) rotate(0) translate(4 334.39)">
<title>08_Gepäckabfertigung_Ankunft</title>
<polygon fill="white" stroke="transparent" points="-4,4 -4,-334.39 371,-334.39 371,4 -4,4"/>
<!-- Task_1libs\ndz -->
<g id="node1" class="node">
<title>Task_1libs\ndz</title>
<polygon fill="lightgrey" stroke="black" points="0,-184.99 0,-237.99 367,-237.99 367,-184.99 0,-184.99"/>
<text text-anchor="middle" x="39" y="-215.29" font-family="Times New Roman,serif" font-size="14.00">Task_1libs</text>
<text text-anchor="middle" x="39" y="-200.29" font-family="Times New Roman,serif" font-size="14.00">dz</text>
<polyline fill="none" stroke="black" points="78,-184.99 78,-237.99 "/>
<text text-anchor="middle" x="118" y="-222.79" font-family="Times New Roman,serif" font-size="14.00">Flughafenp</text>
<text text-anchor="middle" x="118" y="-207.79" font-family="Times New Roman,serif" font-size="14.00">ersonal:La</text>
<text text-anchor="middle" x="118" y="-192.79" font-family="Times New Roman,serif" font-size="14.00">ne_1nej1h4</text>
<polyline fill="none" stroke="black" points="158,-184.99 158,-237.99 "/>
<text text-anchor="middle" x="262.5" y="-207.79" font-family="Times New Roman,serif" font-size="14.00">Gepäckstück_auf_Rundlauf_legen</text>
</g>
<!-- Task_1hcrl\n8q -->
<g id="node2" class="node">
<title>Task_1hcrl\n8q</title>
<polygon fill="lightgrey" stroke="black" points="12,-94.99 12,-147.99 355,-147.99 355,-94.99 12,-94.99"/>
<text text-anchor="middle" x="52" y="-125.29" font-family="Times New Roman,serif" font-size="14.00">Task_1hcrl</text>
<text text-anchor="middle" x="52" y="-110.29" font-family="Times New Roman,serif" font-size="14.00">8q</text>
<polyline fill="none" stroke="black" points="92,-94.99 92,-147.99 "/>
<text text-anchor="middle" x="132" y="-132.79" font-family="Times New Roman,serif" font-size="14.00">Flughafenp</text>
<text text-anchor="middle" x="132" y="-117.79" font-family="Times New Roman,serif" font-size="14.00">ersonal:La</text>
<text text-anchor="middle" x="132" y="-102.79" font-family="Times New Roman,serif" font-size="14.00">ne_1nej1h4</text>
<polyline fill="none" stroke="black" points="172,-94.99 172,-147.99 "/>
<text text-anchor="middle" x="263.5" y="-117.79" font-family="Times New Roman,serif" font-size="14.00">Prozess_Passagierabfertigung</text>
</g>
<!-- Task_1libs\ndz&#45;&gt;Task_1hcrl\n8q -->
<g id="edge1" class="edge">
<title>Task_1libs\ndz&#45;&gt;Task_1hcrl\n8q</title>
<path fill="none" stroke="black" d="M183.5,-184.57C183.5,-176.33 183.5,-167.07 183.5,-158.27"/>
<polygon fill="black" stroke="black" points="187,-158.24 183.5,-148.24 180,-158.24 187,-158.24"/>
</g>
<!-- EndEvent_0\nrcq1yq -->
<g id="node3" class="node">
<title>EndEvent_0\nrcq1yq</title>
<ellipse fill="lightgrey" stroke="black" cx="183.5" cy="-29.25" rx="29.5" ry="29.5"/>
<text text-anchor="middle" x="183.5" y="-25.55" font-family="Times New Roman,serif" font-size="14.00">Ende</text>
</g>
<!-- Task_1hcrl\n8q&#45;&gt;EndEvent_0\nrcq1yq -->
<g id="edge2" class="edge">
<title>Task_1hcrl\n8q&#45;&gt;EndEvent_0\nrcq1yq</title>
<path fill="none" stroke="black" d="M183.5,-94.87C183.5,-86.78 183.5,-77.66 183.5,-68.87"/>
<polygon fill="black" stroke="black" points="187,-68.79 183.5,-58.79 180,-68.79 187,-68.79"/>
</g>
<!-- StartEvent\n_8 -->
<g id="node4" class="node">
<title>StartEvent\n_8</title>
<ellipse fill="lightgrey" stroke="black" cx="183.5" cy="-302.44" rx="27.9" ry="27.9"/>
<text text-anchor="middle" x="183.5" y="-298.74" font-family="Times New Roman,serif" font-size="14.00">Start</text>
</g>
<!-- StartEvent\n_8&#45;&gt;Task_1libs\ndz -->
<g id="edge3" class="edge">
<title>StartEvent\n_8&#45;&gt;Task_1libs\ndz</title>
<path fill="none" stroke="black" d="M183.5,-274.27C183.5,-266.14 183.5,-257.08 183.5,-248.47"/>
<polygon fill="black" stroke="black" points="187,-248.28 183.5,-238.28 180,-248.28 187,-248.28"/>
</g>
</g>
</svg>
