<svg width="487px" height="1000px"
 viewBox="0.00 0.00 483.00 992.39" xmlns="http://www.w3.org/2000/svg" xmlns:xlink="http://www.w3.org/1999/xlink">
<g id="graph0" class="graph" transform="scale(1.0 1.0) rotate(0) translate(4 988.39)">
<title>23_Passagierabfertigung_Transfer&#45;Check&#45;In</title>
<polygon fill="white" stroke="transparent" points="-4,4 -4,-988.39 479,-988.39 479,4 -4,4"/>
<!-- Task_1np13\nyr -->
<g id="node1" class="node">
<title>Task_1np13\nyr</title>
<polygon fill="lightgrey" stroke="black" points="63.5,-538.99 63.5,-606.99 355.5,-606.99 355.5,-538.99 63.5,-538.99"/>
<text text-anchor="middle" x="106.5" y="-576.79" font-family="Times New Roman,serif" font-size="14.00">Task_1np13</text>
<text text-anchor="middle" x="106.5" y="-561.79" font-family="Times New Roman,serif" font-size="14.00">yr</text>
<polyline fill="none" stroke="black" points="149.5,-538.99 149.5,-606.99 "/>
<text text-anchor="middle" x="188.5" y="-591.79" font-family="Times New Roman,serif" font-size="14.00">Transfer&#45;C</text>
<text text-anchor="middle" x="188.5" y="-576.79" font-family="Times New Roman,serif" font-size="14.00">heck&#45;In&#45;Sc</text>
<text text-anchor="middle" x="188.5" y="-561.79" font-family="Times New Roman,serif" font-size="14.00">halter:Lan</text>
<text text-anchor="middle" x="188.5" y="-546.79" font-family="Times New Roman,serif" font-size="14.00">e_11ksowl</text>
<polyline fill="none" stroke="black" points="227.5,-538.99 227.5,-606.99 "/>
<text text-anchor="middle" x="291.5" y="-569.29" font-family="Times New Roman,serif" font-size="14.00">Sitzplatz_ausw채hlen</text>
</g>
<!-- Task_14kqa\nq9 -->
<g id="node3" class="node">
<title>Task_14kqa\nq9</title>
<polygon fill="lightgrey" stroke="black" points="65,-433.99 65,-501.99 354,-501.99 354,-433.99 65,-433.99"/>
<text text-anchor="middle" x="108" y="-471.79" font-family="Times New Roman,serif" font-size="14.00">Task_14kqa</text>
<text text-anchor="middle" x="108" y="-456.79" font-family="Times New Roman,serif" font-size="14.00">q9</text>
<polyline fill="none" stroke="black" points="151,-433.99 151,-501.99 "/>
<text text-anchor="middle" x="190" y="-486.79" font-family="Times New Roman,serif" font-size="14.00">Transfer&#45;C</text>
<text text-anchor="middle" x="190" y="-471.79" font-family="Times New Roman,serif" font-size="14.00">heck&#45;In&#45;Sc</text>
<text text-anchor="middle" x="190" y="-456.79" font-family="Times New Roman,serif" font-size="14.00">halter:Lan</text>
<text text-anchor="middle" x="190" y="-441.79" font-family="Times New Roman,serif" font-size="14.00">e_11ksowl</text>
<polyline fill="none" stroke="black" points="229,-433.99 229,-501.99 "/>
<text text-anchor="middle" x="291.5" y="-464.29" font-family="Times New Roman,serif" font-size="14.00">Bordkarte_erstellen</text>
</g>
<!-- Task_1np13\nyr&#45;&gt;Task_14kqa\nq9 -->
<g id="edge1" class="edge">
<title>Task_1np13\nyr&#45;&gt;Task_14kqa\nq9</title>
<path fill="none" stroke="black" d="M209.5,-538.84C209.5,-530.38 209.5,-521.17 209.5,-512.29"/>
<polygon fill="black" stroke="black" points="213,-512.09 209.5,-502.09 206,-512.09 213,-512.09"/>
</g>
<!-- ExclusiveG\nateway_0fp\nk3dn -->
<g id="node2" class="node">
<title>ExclusiveG\nateway_0fp\nk3dn</title>
<polygon fill="lightgrey" stroke="black" points="209.5,-220.49 43.26,-202.49 209.5,-184.49 375.74,-202.49 209.5,-220.49"/>
<text text-anchor="middle" x="209.5" y="-198.79" font-family="Times New Roman,serif" font-size="14.00">Gep채ck_vorhanden?_/_JOIN</text>
</g>
<!-- Task_0azc7\n5j -->
<g id="node5" class="node">
<title>Task_0azc7\n5j</title>
<polygon fill="lightgrey" stroke="black" points="67,-94.99 67,-147.99 352,-147.99 352,-94.99 67,-94.99"/>
<text text-anchor="middle" x="109" y="-125.29" font-family="Times New Roman,serif" font-size="14.00">Task_0azc7</text>
<text text-anchor="middle" x="109" y="-110.29" font-family="Times New Roman,serif" font-size="14.00">5j</text>
<polyline fill="none" stroke="black" points="151,-94.99 151,-147.99 "/>
<text text-anchor="middle" x="193.5" y="-132.79" font-family="Times New Roman,serif" font-size="14.00">Passagier:</text>
<text text-anchor="middle" x="193.5" y="-117.79" font-family="Times New Roman,serif" font-size="14.00">Lane_106yy</text>
<text text-anchor="middle" x="193.5" y="-102.79" font-family="Times New Roman,serif" font-size="14.00">q1</text>
<polyline fill="none" stroke="black" points="236,-94.99 236,-147.99 "/>
<text text-anchor="middle" x="294" y="-117.79" font-family="Times New Roman,serif" font-size="14.00">Zum_Gate_gehen</text>
</g>
<!-- ExclusiveG\nateway_0fp\nk3dn&#45;&gt;Task_0azc7\n5j -->
<g id="edge2" class="edge">
<title>ExclusiveG\nateway_0fp\nk3dn&#45;&gt;Task_0azc7\n5j</title>
<path fill="none" stroke="black" d="M209.5,-184.35C209.5,-176.64 209.5,-167.23 209.5,-158.09"/>
<polygon fill="black" stroke="black" points="213,-158.01 209.5,-148.01 206,-158.01 213,-158.01"/>
</g>
<!-- ExclusiveG\nateway_1t1\noj2k -->
<g id="node8" class="node">
<title>ExclusiveG\nateway_1t1\noj2k</title>
<polygon fill="lightgrey" stroke="black" points="209.5,-397.49 35.56,-379.49 209.5,-361.49 383.44,-379.49 209.5,-397.49"/>
<text text-anchor="middle" x="209.5" y="-375.79" font-family="Times New Roman,serif" font-size="14.00">Gep채ck_vorhanden?_/_SPLIT</text>
</g>
<!-- Task_14kqa\nq9&#45;&gt;ExclusiveG\nateway_1t1\noj2k -->
<g id="edge3" class="edge">
<title>Task_14kqa\nq9&#45;&gt;ExclusiveG\nateway_1t1\noj2k</title>
<path fill="none" stroke="black" d="M209.5,-433.8C209.5,-425.19 209.5,-416.01 209.5,-407.74"/>
<polygon fill="black" stroke="black" points="213,-407.52 209.5,-397.52 206,-407.52 213,-407.52"/>
</g>
<!-- Task_1kkj8\n4m -->
<g id="node4" class="node">
<title>Task_1kkj8\n4m</title>
<polygon fill="lightgrey" stroke="black" points="45.5,-838.99 45.5,-891.99 373.5,-891.99 373.5,-838.99 45.5,-838.99"/>
<text text-anchor="middle" x="86.5" y="-869.29" font-family="Times New Roman,serif" font-size="14.00">Task_1kkj8</text>
<text text-anchor="middle" x="86.5" y="-854.29" font-family="Times New Roman,serif" font-size="14.00">4m</text>
<polyline fill="none" stroke="black" points="127.5,-838.99 127.5,-891.99 "/>
<text text-anchor="middle" x="170" y="-876.79" font-family="Times New Roman,serif" font-size="14.00">Passagier:</text>
<text text-anchor="middle" x="170" y="-861.79" font-family="Times New Roman,serif" font-size="14.00">Lane_106yy</text>
<text text-anchor="middle" x="170" y="-846.79" font-family="Times New Roman,serif" font-size="14.00">q1</text>
<polyline fill="none" stroke="black" points="212.5,-838.99 212.5,-891.99 "/>
<text text-anchor="middle" x="293" y="-861.79" font-family="Times New Roman,serif" font-size="14.00">Am_Terminal_ankommen</text>
</g>
<!-- Task_18cot\nkr -->
<g id="node9" class="node">
<title>Task_18cot\nkr</title>
<polygon fill="lightgrey" stroke="black" points="0,-748.99 0,-801.99 419,-801.99 419,-748.99 0,-748.99"/>
<text text-anchor="middle" x="41.5" y="-779.29" font-family="Times New Roman,serif" font-size="14.00">Task_18cot</text>
<text text-anchor="middle" x="41.5" y="-764.29" font-family="Times New Roman,serif" font-size="14.00">kr</text>
<polyline fill="none" stroke="black" points="83,-748.99 83,-801.99 "/>
<text text-anchor="middle" x="125.5" y="-786.79" font-family="Times New Roman,serif" font-size="14.00">Passagier:</text>
<text text-anchor="middle" x="125.5" y="-771.79" font-family="Times New Roman,serif" font-size="14.00">Lane_106yy</text>
<text text-anchor="middle" x="125.5" y="-756.79" font-family="Times New Roman,serif" font-size="14.00">q1</text>
<polyline fill="none" stroke="black" points="168,-748.99 168,-801.99 "/>
<text text-anchor="middle" x="293.5" y="-771.79" font-family="Times New Roman,serif" font-size="14.00">Zum_Transfer_Check_In_Schalter_gehen</text>
</g>
<!-- Task_1kkj8\n4m&#45;&gt;Task_18cot\nkr -->
<g id="edge4" class="edge">
<title>Task_1kkj8\n4m&#45;&gt;Task_18cot\nkr</title>
<path fill="none" stroke="black" d="M209.5,-838.57C209.5,-830.33 209.5,-821.07 209.5,-812.27"/>
<polygon fill="black" stroke="black" points="213,-812.24 209.5,-802.24 206,-812.24 213,-812.24"/>
</g>
<!-- EndEvent_0\n2iafj4 -->
<g id="node7" class="node">
<title>EndEvent_0\n2iafj4</title>
<ellipse fill="lightgrey" stroke="black" cx="209.5" cy="-29.25" rx="29.5" ry="29.5"/>
<text text-anchor="middle" x="209.5" y="-25.55" font-family="Times New Roman,serif" font-size="14.00">Ende</text>
</g>
<!-- Task_0azc7\n5j&#45;&gt;EndEvent_0\n2iafj4 -->
<g id="edge5" class="edge">
<title>Task_0azc7\n5j&#45;&gt;EndEvent_0\n2iafj4</title>
<path fill="none" stroke="black" d="M209.5,-94.87C209.5,-86.78 209.5,-77.66 209.5,-68.87"/>
<polygon fill="black" stroke="black" points="213,-68.79 209.5,-58.79 206,-68.79 213,-68.79"/>
</g>
<!-- Task_05myg\nbw -->
<g id="node6" class="node">
<title>Task_05myg\nbw</title>
<polygon fill="lightgrey" stroke="black" points="56,-643.99 56,-711.99 363,-711.99 363,-643.99 56,-643.99"/>
<text text-anchor="middle" x="100.5" y="-681.79" font-family="Times New Roman,serif" font-size="14.00">Task_05myg</text>
<text text-anchor="middle" x="100.5" y="-666.79" font-family="Times New Roman,serif" font-size="14.00">bw</text>
<polyline fill="none" stroke="black" points="145,-643.99 145,-711.99 "/>
<text text-anchor="middle" x="184" y="-696.79" font-family="Times New Roman,serif" font-size="14.00">Transfer&#45;C</text>
<text text-anchor="middle" x="184" y="-681.79" font-family="Times New Roman,serif" font-size="14.00">heck&#45;In&#45;Sc</text>
<text text-anchor="middle" x="184" y="-666.79" font-family="Times New Roman,serif" font-size="14.00">halter:Lan</text>
<text text-anchor="middle" x="184" y="-651.79" font-family="Times New Roman,serif" font-size="14.00">e_11ksowl</text>
<polyline fill="none" stroke="black" points="223,-643.99 223,-711.99 "/>
<text text-anchor="middle" x="293" y="-674.29" font-family="Times New Roman,serif" font-size="14.00">Ausweis_kontrollieren</text>
</g>
<!-- Task_05myg\nbw&#45;&gt;Task_1np13\nyr -->
<g id="edge6" class="edge">
<title>Task_05myg\nbw&#45;&gt;Task_1np13\nyr</title>
<path fill="none" stroke="black" d="M209.5,-643.84C209.5,-635.38 209.5,-626.17 209.5,-617.29"/>
<polygon fill="black" stroke="black" points="213,-617.09 209.5,-607.09 206,-617.09 213,-617.09"/>
</g>
<!-- ExclusiveG\nateway_1t1\noj2k&#45;&gt;ExclusiveG\nateway_0fp\nk3dn -->
<g id="edge8" class="edge">
<title>ExclusiveG\nateway_1t1\noj2k&#45;&gt;ExclusiveG\nateway_0fp\nk3dn</title>
<path fill="none" stroke="black" d="M175.43,-364.96C158.67,-356.35 140.06,-343.42 130.5,-325.49 116.07,-298.44 116.07,-283.55 130.5,-256.49 138.34,-241.79 152.27,-230.44 166.28,-222.09"/>
<polygon fill="black" stroke="black" points="168.37,-224.94 175.43,-217.03 164.98,-218.81 168.37,-224.94"/>
</g>
<!-- Task_0q17j\n2r -->
<g id="node10" class="node">
<title>Task_0q17j\n2r</title>
<polygon fill="lightgrey" stroke="black" points="140,-256.99 140,-324.99 475,-324.99 475,-256.99 140,-256.99"/>
<text text-anchor="middle" x="181.5" y="-294.79" font-family="Times New Roman,serif" font-size="14.00">Task_0q17j</text>
<text text-anchor="middle" x="181.5" y="-279.79" font-family="Times New Roman,serif" font-size="14.00">2r</text>
<polyline fill="none" stroke="black" points="223,-256.99 223,-324.99 "/>
<text text-anchor="middle" x="262" y="-309.79" font-family="Times New Roman,serif" font-size="14.00">Transfer&#45;C</text>
<text text-anchor="middle" x="262" y="-294.79" font-family="Times New Roman,serif" font-size="14.00">heck&#45;In&#45;Sc</text>
<text text-anchor="middle" x="262" y="-279.79" font-family="Times New Roman,serif" font-size="14.00">halter:Lan</text>
<text text-anchor="middle" x="262" y="-264.79" font-family="Times New Roman,serif" font-size="14.00">e_11ksowl</text>
<polyline fill="none" stroke="black" points="301,-256.99 301,-324.99 "/>
<text text-anchor="middle" x="388" y="-287.29" font-family="Times New Roman,serif" font-size="14.00">Prozess_Gep채ckabfertigung</text>
</g>
<!-- ExclusiveG\nateway_1t1\noj2k&#45;&gt;Task_0q17j\n2r -->
<g id="edge7" class="edge">
<title>ExclusiveG\nateway_1t1\noj2k&#45;&gt;Task_0q17j\n2r</title>
<path fill="none" stroke="black" d="M227.02,-363.03C236.87,-354.34 249.66,-343.05 262.13,-332.04"/>
<polygon fill="black" stroke="black" points="264.65,-334.49 269.83,-325.24 260.02,-329.24 264.65,-334.49"/>
</g>
<!-- Task_18cot\nkr&#45;&gt;Task_05myg\nbw -->
<g id="edge9" class="edge">
<title>Task_18cot\nkr&#45;&gt;Task_05myg\nbw</title>
<path fill="none" stroke="black" d="M209.5,-748.9C209.5,-740.71 209.5,-731.41 209.5,-722.32"/>
<polygon fill="black" stroke="black" points="213,-722.22 209.5,-712.22 206,-722.22 213,-722.22"/>
</g>
<!-- Task_0q17j\n2r&#45;&gt;ExclusiveG\nateway_0fp\nk3dn -->
<g id="edge10" class="edge">
<title>Task_0q17j\n2r&#45;&gt;ExclusiveG\nateway_0fp\nk3dn</title>
<path fill="none" stroke="black" d="M269.89,-256.8C258.02,-246.32 245.2,-235.01 234.44,-225.51"/>
<polygon fill="black" stroke="black" points="236.48,-222.64 226.67,-218.65 231.85,-227.89 236.48,-222.64"/>
</g>
<!-- StartEvent\n_23 -->
<g id="node11" class="node">
<title>StartEvent\n_23</title>
<ellipse fill="lightgrey" stroke="black" cx="209.5" cy="-956.44" rx="27.9" ry="27.9"/>
<text text-anchor="middle" x="209.5" y="-952.74" font-family="Times New Roman,serif" font-size="14.00">Start</text>
</g>
<!-- StartEvent\n_23&#45;&gt;Task_1kkj8\n4m -->
<g id="edge11" class="edge">
<title>StartEvent\n_23&#45;&gt;Task_1kkj8\n4m</title>
<path fill="none" stroke="black" d="M209.5,-928.27C209.5,-920.14 209.5,-911.08 209.5,-902.47"/>
<polygon fill="black" stroke="black" points="213,-902.28 209.5,-892.28 206,-902.28 213,-902.28"/>
</g>
</g>
</svg>
