<svg width="600px" height="1423px"
 viewBox="0.00 0.00 449.72 1067.39" xmlns="http://www.w3.org/2000/svg" xmlns:xlink="http://www.w3.org/1999/xlink">
<g id="graph0" class="graph" transform="scale(1.0 1.0) rotate(0) translate(4 1063.39)">
<title>02_Passagierabfertigung_am_Check&#45;In&#45;Automaten</title>
<polygon fill="white" stroke="transparent" points="-4,4 -4,-1063.39 445.72,-1063.39 445.72,4 -4,4"/>
<!-- StartEvent\n_2 -->
<g id="node1" class="node">
<title>StartEvent\n_2</title>
<ellipse fill="lightgrey" stroke="black" cx="173.72" cy="-1031.44" rx="27.9" ry="27.9"/>
<text text-anchor="middle" x="173.72" y="-1027.74" font-family="Times New Roman,serif" font-size="14.00">Start</text>
</g>
<!-- Task_0dhs6\nwg_Task_0q\nnugae -->
<g id="node10" class="node">
<title>Task_0dhs6\nwg_Task_0q\nnugae</title>
<polygon fill="none" stroke="black" stroke-dasharray="5,2" points="1.72,-898.99 1.72,-966.99 345.72,-966.99 345.72,-898.99 1.72,-898.99"/>
<text text-anchor="middle" x="46.72" y="-944.29" font-family="Times New Roman,serif" font-size="14.00">Task_0dhs6</text>
<text text-anchor="middle" x="46.72" y="-929.29" font-family="Times New Roman,serif" font-size="14.00">wg_Task_0q</text>
<text text-anchor="middle" x="46.72" y="-914.29" font-family="Times New Roman,serif" font-size="14.00">nugae</text>
<polyline fill="none" stroke="black" stroke-dasharray="5,2" points="91.72,-898.99 91.72,-966.99 "/>
<text text-anchor="middle" x="133.72" y="-944.29" font-family="Times New Roman,serif" font-size="14.00">Passagier:</text>
<text text-anchor="middle" x="133.72" y="-929.29" font-family="Times New Roman,serif" font-size="14.00">Lane_1gl9w</text>
<text text-anchor="middle" x="133.72" y="-914.29" font-family="Times New Roman,serif" font-size="14.00">5l</text>
<polyline fill="none" stroke="black" stroke-dasharray="5,2" points="175.72,-898.99 175.72,-966.99 "/>
<text text-anchor="middle" x="260.72" y="-951.79" font-family="Times New Roman,serif" font-size="14.00">Passagier DO</text>
<text text-anchor="middle" x="260.72" y="-936.79" font-family="Times New Roman,serif" font-size="14.00"> Person_bewegen</text>
<text text-anchor="middle" x="260.72" y="-921.79" font-family="Times New Roman,serif" font-size="14.00">Flughafenbereich_erreichen</text>
<text text-anchor="middle" x="260.72" y="-906.79" font-family="Times New Roman,serif" font-size="14.00">Warten</text>
</g>
<!-- StartEvent\n_2&#45;&gt;Task_0dhs6\nwg_Task_0q\nnugae -->
<g id="edge1" class="edge">
<title>StartEvent\n_2&#45;&gt;Task_0dhs6\nwg_Task_0q\nnugae</title>
<path fill="none" stroke="black" d="M173.72,-1003.32C173.72,-995.23 173.72,-986.15 173.72,-977.3"/>
<polygon fill="black" stroke="black" points="177.22,-977.08 173.72,-967.08 170.22,-977.08 177.22,-977.08"/>
</g>
<!-- Task_0xgty\nmq_Task_0x\ngtymq -->
<g id="node2" class="node">
<title>Task_0xgty\nmq_Task_0x\ngtymq</title>
<polygon fill="none" stroke="black" stroke-dasharray="5,2" points="14.22,-628.99 14.22,-681.99 333.22,-681.99 333.22,-628.99 14.22,-628.99"/>
<text text-anchor="middle" x="59.72" y="-666.79" font-family="Times New Roman,serif" font-size="14.00">Task_0xgty</text>
<text text-anchor="middle" x="59.72" y="-651.79" font-family="Times New Roman,serif" font-size="14.00">mq_Task_0x</text>
<text text-anchor="middle" x="59.72" y="-636.79" font-family="Times New Roman,serif" font-size="14.00">gtymq</text>
<polyline fill="none" stroke="black" stroke-dasharray="5,2" points="105.22,-628.99 105.22,-681.99 "/>
<text text-anchor="middle" x="146.72" y="-666.79" font-family="Times New Roman,serif" font-size="14.00">Check&#45;In&#45;A</text>
<text text-anchor="middle" x="146.72" y="-651.79" font-family="Times New Roman,serif" font-size="14.00">utomat:Lan</text>
<text text-anchor="middle" x="146.72" y="-636.79" font-family="Times New Roman,serif" font-size="14.00">e_140hr48</text>
<polyline fill="none" stroke="black" stroke-dasharray="5,2" points="188.22,-628.99 188.22,-681.99 "/>
<text text-anchor="middle" x="260.72" y="-659.29" font-family="Times New Roman,serif" font-size="14.00">Check&#45;In&#45;Automat DO</text>
<text text-anchor="middle" x="260.72" y="-644.29" font-family="Times New Roman,serif" font-size="14.00"> Dokument_bearbeiten</text>
</g>
<!-- ExclusiveG\nateway_0w2\n89jq -->
<g id="node12" class="node">
<title>ExclusiveG\nateway_0w2\n89jq</title>
<polygon fill="lightgrey" stroke="black" points="173.72,-592.49 -0.22,-574.49 173.72,-556.49 347.66,-574.49 173.72,-592.49"/>
<text text-anchor="middle" x="173.72" y="-570.79" font-family="Times New Roman,serif" font-size="14.00">Gepäck_vorhanden?_/_SPLIT</text>
</g>
<!-- Task_0xgty\nmq_Task_0x\ngtymq&#45;&gt;ExclusiveG\nateway_0w2\n89jq -->
<g id="edge2" class="edge">
<title>Task_0xgty\nmq_Task_0x\ngtymq&#45;&gt;ExclusiveG\nateway_0w2\n89jq</title>
<path fill="none" stroke="black" d="M173.72,-628.63C173.72,-620.4 173.72,-611.28 173.72,-602.94"/>
<polygon fill="black" stroke="black" points="177.22,-602.94 173.72,-592.94 170.22,-602.94 177.22,-602.94"/>
</g>
<!-- Task_11jq6\nxe -->
<g id="node3" class="node">
<title>Task_11jq6\nxe</title>
<polygon fill="lightgrey" stroke="black" points="110.72,-361.99 110.72,-429.99 418.72,-429.99 418.72,-361.99 110.72,-361.99"/>
<text text-anchor="middle" x="152.22" y="-399.79" font-family="Times New Roman,serif" font-size="14.00">Task_11jq6</text>
<text text-anchor="middle" x="152.22" y="-384.79" font-family="Times New Roman,serif" font-size="14.00">xe</text>
<polyline fill="none" stroke="black" points="193.72,-361.99 193.72,-429.99 "/>
<text text-anchor="middle" x="236.72" y="-414.79" font-family="Times New Roman,serif" font-size="14.00">Gepäckanna</text>
<text text-anchor="middle" x="236.72" y="-399.79" font-family="Times New Roman,serif" font-size="14.00">hmeschalte</text>
<text text-anchor="middle" x="236.72" y="-384.79" font-family="Times New Roman,serif" font-size="14.00">r:Lane_1jc</text>
<text text-anchor="middle" x="236.72" y="-369.79" font-family="Times New Roman,serif" font-size="14.00">jnxr</text>
<polyline fill="none" stroke="black" points="279.72,-361.99 279.72,-429.99 "/>
<text text-anchor="middle" x="349.22" y="-392.29" font-family="Times New Roman,serif" font-size="14.00">Gegenstand_bewegen</text>
</g>
<!-- ExclusiveG\nateway_05t\ng0br -->
<g id="node4" class="node">
<title>ExclusiveG\nateway_05t\ng0br</title>
<polygon fill="lightgrey" stroke="black" points="169.72,-325.49 3.49,-307.49 169.72,-289.49 335.96,-307.49 169.72,-325.49"/>
<text text-anchor="middle" x="169.72" y="-303.79" font-family="Times New Roman,serif" font-size="14.00">Gepäck_vorhanden?_/_JOIN</text>
</g>
<!-- Task_11jq6\nxe&#45;&gt;ExclusiveG\nateway_05t\ng0br -->
<g id="edge3" class="edge">
<title>Task_11jq6\nxe&#45;&gt;ExclusiveG\nateway_05t\ng0br</title>
<path fill="none" stroke="black" d="M228.26,-361.8C216.84,-351.4 204.51,-340.17 194.13,-330.72"/>
<polygon fill="black" stroke="black" points="196.37,-328.02 186.62,-323.88 191.65,-333.2 196.37,-328.02"/>
</g>
<!-- Task_1ydgj\n3r_Task_1y\ndgj3r -->
<g id="node11" class="node">
<title>Task_1ydgj\n3r_Task_1y\ndgj3r</title>
<polygon fill="none" stroke="black" stroke-dasharray="5,2" points="27.72,-199.99 27.72,-252.99 311.72,-252.99 311.72,-199.99 27.72,-199.99"/>
<text text-anchor="middle" x="69.72" y="-237.79" font-family="Times New Roman,serif" font-size="14.00">Task_1ydgj</text>
<text text-anchor="middle" x="69.72" y="-222.79" font-family="Times New Roman,serif" font-size="14.00">3r_Task_1y</text>
<text text-anchor="middle" x="69.72" y="-207.79" font-family="Times New Roman,serif" font-size="14.00">dgj3r</text>
<polyline fill="none" stroke="black" stroke-dasharray="5,2" points="111.72,-199.99 111.72,-252.99 "/>
<text text-anchor="middle" x="153.72" y="-237.79" font-family="Times New Roman,serif" font-size="14.00">Passagier:</text>
<text text-anchor="middle" x="153.72" y="-222.79" font-family="Times New Roman,serif" font-size="14.00">Lane_1gl9w</text>
<text text-anchor="middle" x="153.72" y="-207.79" font-family="Times New Roman,serif" font-size="14.00">5l</text>
<polyline fill="none" stroke="black" stroke-dasharray="5,2" points="195.72,-199.99 195.72,-252.99 "/>
<text text-anchor="middle" x="253.72" y="-230.29" font-family="Times New Roman,serif" font-size="14.00">Passagier DO</text>
<text text-anchor="middle" x="253.72" y="-215.29" font-family="Times New Roman,serif" font-size="14.00"> Person_bewegen</text>
</g>
<!-- ExclusiveG\nateway_05t\ng0br&#45;&gt;Task_1ydgj\n3r_Task_1y\ndgj3r -->
<g id="edge4" class="edge">
<title>ExclusiveG\nateway_05t\ng0br&#45;&gt;Task_1ydgj\n3r_Task_1y\ndgj3r</title>
<path fill="none" stroke="black" d="M169.72,-289.35C169.72,-281.64 169.72,-272.23 169.72,-263.09"/>
<polygon fill="black" stroke="black" points="173.22,-263.01 169.72,-253.01 166.22,-263.01 173.22,-263.01"/>
</g>
<!-- EndEvent_0\ncbepo9 -->
<g id="node5" class="node">
<title>EndEvent_0\ncbepo9</title>
<ellipse fill="lightgrey" stroke="black" cx="169.72" cy="-29.25" rx="29.5" ry="29.5"/>
<text text-anchor="middle" x="169.72" y="-25.55" font-family="Times New Roman,serif" font-size="14.00">Ende</text>
</g>
<!-- Task_166kh\nwz_Task_16\n6khwz -->
<g id="node6" class="node">
<title>Task_166kh\nwz_Task_16\n6khwz</title>
<polygon fill="none" stroke="black" stroke-dasharray="5,2" points="13.72,-94.99 13.72,-162.99 325.72,-162.99 325.72,-94.99 13.72,-94.99"/>
<text text-anchor="middle" x="58.22" y="-140.29" font-family="Times New Roman,serif" font-size="14.00">Task_166kh</text>
<text text-anchor="middle" x="58.22" y="-125.29" font-family="Times New Roman,serif" font-size="14.00">wz_Task_16</text>
<text text-anchor="middle" x="58.22" y="-110.29" font-family="Times New Roman,serif" font-size="14.00">6khwz</text>
<polyline fill="none" stroke="black" stroke-dasharray="5,2" points="102.72,-94.99 102.72,-162.99 "/>
<text text-anchor="middle" x="143.22" y="-147.79" font-family="Times New Roman,serif" font-size="14.00">Sicherheit</text>
<text text-anchor="middle" x="143.22" y="-132.79" font-family="Times New Roman,serif" font-size="14.00">sbereich:L</text>
<text text-anchor="middle" x="143.22" y="-117.79" font-family="Times New Roman,serif" font-size="14.00">ane_1cnf58</text>
<text text-anchor="middle" x="143.22" y="-102.79" font-family="Times New Roman,serif" font-size="14.00">w</text>
<polyline fill="none" stroke="black" stroke-dasharray="5,2" points="183.72,-94.99 183.72,-162.99 "/>
<text text-anchor="middle" x="254.72" y="-132.79" font-family="Times New Roman,serif" font-size="14.00">Sicherheitsbereich DO</text>
<text text-anchor="middle" x="254.72" y="-117.79" font-family="Times New Roman,serif" font-size="14.00"> Person_bewegen</text>
</g>
<!-- Task_166kh\nwz_Task_16\n6khwz&#45;&gt;EndEvent_0\ncbepo9 -->
<g id="edge5" class="edge">
<title>Task_166kh\nwz_Task_16\n6khwz&#45;&gt;EndEvent_0\ncbepo9</title>
<path fill="none" stroke="black" d="M169.72,-94.9C169.72,-86.55 169.72,-77.52 169.72,-68.92"/>
<polygon fill="black" stroke="black" points="173.22,-68.73 169.72,-58.73 166.22,-68.73 173.22,-68.73"/>
</g>
<!-- Task_18po4\n8l_Task_18\npo48l -->
<g id="node7" class="node">
<title>Task_18po4\n8l_Task_18\npo48l</title>
<polygon fill="none" stroke="black" stroke-dasharray="5,2" points="33.22,-718.99 33.22,-771.99 314.22,-771.99 314.22,-718.99 33.22,-718.99"/>
<text text-anchor="middle" x="76.72" y="-756.79" font-family="Times New Roman,serif" font-size="14.00">Task_18po4</text>
<text text-anchor="middle" x="76.72" y="-741.79" font-family="Times New Roman,serif" font-size="14.00">8l_Task_18</text>
<text text-anchor="middle" x="76.72" y="-726.79" font-family="Times New Roman,serif" font-size="14.00">po48l</text>
<polyline fill="none" stroke="black" stroke-dasharray="5,2" points="120.22,-718.99 120.22,-771.99 "/>
<text text-anchor="middle" x="162.22" y="-756.79" font-family="Times New Roman,serif" font-size="14.00">Passagier:</text>
<text text-anchor="middle" x="162.22" y="-741.79" font-family="Times New Roman,serif" font-size="14.00">Lane_1gl9w</text>
<text text-anchor="middle" x="162.22" y="-726.79" font-family="Times New Roman,serif" font-size="14.00">5l</text>
<polyline fill="none" stroke="black" stroke-dasharray="5,2" points="204.22,-718.99 204.22,-771.99 "/>
<text text-anchor="middle" x="259.22" y="-749.29" font-family="Times New Roman,serif" font-size="14.00">Passagier DO</text>
<text text-anchor="middle" x="259.22" y="-734.29" font-family="Times New Roman,serif" font-size="14.00"> Sonstige_Tasks</text>
</g>
<!-- Task_18po4\n8l_Task_18\npo48l&#45;&gt;Task_0xgty\nmq_Task_0x\ngtymq -->
<g id="edge6" class="edge">
<title>Task_18po4\n8l_Task_18\npo48l&#45;&gt;Task_0xgty\nmq_Task_0x\ngtymq</title>
<path fill="none" stroke="black" d="M173.72,-718.57C173.72,-710.33 173.72,-701.07 173.72,-692.27"/>
<polygon fill="black" stroke="black" points="177.22,-692.24 173.72,-682.24 170.22,-692.24 177.22,-692.24"/>
</g>
<!-- Task_16bnm\ncp_Task_16\nbnmcp -->
<g id="node8" class="node">
<title>Task_16bnm\ncp_Task_16\nbnmcp</title>
<polygon fill="none" stroke="black" stroke-dasharray="5,2" points="14.72,-808.99 14.72,-861.99 332.72,-861.99 332.72,-808.99 14.72,-808.99"/>
<text text-anchor="middle" x="59.72" y="-846.79" font-family="Times New Roman,serif" font-size="14.00">Task_16bnm</text>
<text text-anchor="middle" x="59.72" y="-831.79" font-family="Times New Roman,serif" font-size="14.00">cp_Task_16</text>
<text text-anchor="middle" x="59.72" y="-816.79" font-family="Times New Roman,serif" font-size="14.00">bnmcp</text>
<polyline fill="none" stroke="black" stroke-dasharray="5,2" points="104.72,-808.99 104.72,-861.99 "/>
<text text-anchor="middle" x="146.22" y="-846.79" font-family="Times New Roman,serif" font-size="14.00">Check&#45;In&#45;A</text>
<text text-anchor="middle" x="146.22" y="-831.79" font-family="Times New Roman,serif" font-size="14.00">utomat:Lan</text>
<text text-anchor="middle" x="146.22" y="-816.79" font-family="Times New Roman,serif" font-size="14.00">e_140hr48</text>
<polyline fill="none" stroke="black" stroke-dasharray="5,2" points="187.72,-808.99 187.72,-861.99 "/>
<text text-anchor="middle" x="260.22" y="-839.29" font-family="Times New Roman,serif" font-size="14.00">Check&#45;In&#45;Automat DO</text>
<text text-anchor="middle" x="260.22" y="-824.29" font-family="Times New Roman,serif" font-size="14.00"> Kontrollieren</text>
</g>
<!-- Task_16bnm\ncp_Task_16\nbnmcp&#45;&gt;Task_18po4\n8l_Task_18\npo48l -->
<g id="edge7" class="edge">
<title>Task_16bnm\ncp_Task_16\nbnmcp&#45;&gt;Task_18po4\n8l_Task_18\npo48l</title>
<path fill="none" stroke="black" d="M173.72,-808.57C173.72,-800.33 173.72,-791.07 173.72,-782.27"/>
<polygon fill="black" stroke="black" points="177.22,-782.24 173.72,-772.24 170.22,-782.24 177.22,-782.24"/>
</g>
<!-- Task_1eqrd\n1u -->
<g id="node9" class="node">
<title>Task_1eqrd\n1u</title>
<polygon fill="lightgrey" stroke="black" points="103.72,-466.99 103.72,-519.99 441.72,-519.99 441.72,-466.99 103.72,-466.99"/>
<text text-anchor="middle" x="145.72" y="-497.29" font-family="Times New Roman,serif" font-size="14.00">Task_1eqrd</text>
<text text-anchor="middle" x="145.72" y="-482.29" font-family="Times New Roman,serif" font-size="14.00">1u</text>
<polyline fill="none" stroke="black" points="187.72,-466.99 187.72,-519.99 "/>
<text text-anchor="middle" x="229.72" y="-504.79" font-family="Times New Roman,serif" font-size="14.00">Passagier:</text>
<text text-anchor="middle" x="229.72" y="-489.79" font-family="Times New Roman,serif" font-size="14.00">Lane_1gl9w</text>
<text text-anchor="middle" x="229.72" y="-474.79" font-family="Times New Roman,serif" font-size="14.00">5l</text>
<polyline fill="none" stroke="black" points="271.72,-466.99 271.72,-519.99 "/>
<text text-anchor="middle" x="356.72" y="-489.79" font-family="Times New Roman,serif" font-size="14.00">Flughafenbereich_erreichen</text>
</g>
<!-- Task_1eqrd\n1u&#45;&gt;Task_11jq6\nxe -->
<g id="edge8" class="edge">
<title>Task_1eqrd\n1u&#45;&gt;Task_11jq6\nxe</title>
<path fill="none" stroke="black" d="M270.58,-466.9C269.89,-458.71 269.11,-449.41 268.35,-440.32"/>
<polygon fill="black" stroke="black" points="271.83,-439.89 267.5,-430.22 264.85,-440.47 271.83,-439.89"/>
</g>
<!-- Task_0dhs6\nwg_Task_0q\nnugae&#45;&gt;Task_16bnm\ncp_Task_16\nbnmcp -->
<g id="edge9" class="edge">
<title>Task_0dhs6\nwg_Task_0q\nnugae&#45;&gt;Task_16bnm\ncp_Task_16\nbnmcp</title>
<path fill="none" stroke="black" d="M173.72,-898.86C173.72,-890.28 173.72,-881.01 173.72,-872.3"/>
<polygon fill="black" stroke="black" points="177.22,-872.04 173.72,-862.04 170.22,-872.04 177.22,-872.04"/>
</g>
<!-- Task_1ydgj\n3r_Task_1y\ndgj3r&#45;&gt;Task_166kh\nwz_Task_16\n6khwz -->
<g id="edge10" class="edge">
<title>Task_1ydgj\n3r_Task_1y\ndgj3r&#45;&gt;Task_166kh\nwz_Task_16\n6khwz</title>
<path fill="none" stroke="black" d="M169.72,-199.9C169.72,-191.71 169.72,-182.41 169.72,-173.32"/>
<polygon fill="black" stroke="black" points="173.22,-173.22 169.72,-163.22 166.22,-173.22 173.22,-173.22"/>
</g>
<!-- ExclusiveG\nateway_0w2\n89jq&#45;&gt;ExclusiveG\nateway_05t\ng0br -->
<g id="edge12" class="edge">
<title>ExclusiveG\nateway_0w2\n89jq&#45;&gt;ExclusiveG\nateway_05t\ng0br</title>
<path fill="none" stroke="black" d="M139.65,-559.96C122.89,-551.35 104.28,-538.42 94.72,-520.49 82.7,-497.95 89.22,-385.07 101.72,-361.49 108.96,-347.85 121.41,-336.59 133.69,-328.02"/>
<polygon fill="black" stroke="black" points="135.66,-330.92 142.11,-322.51 131.82,-325.06 135.66,-330.92"/>
</g>
<!-- ExclusiveG\nateway_0w2\n89jq&#45;&gt;Task_1eqrd\n1u -->
<g id="edge11" class="edge">
<title>ExclusiveG\nateway_0w2\n89jq&#45;&gt;Task_1eqrd\n1u</title>
<path fill="none" stroke="black" d="M192.81,-558.26C204.08,-549.27 218.79,-537.53 232.51,-526.58"/>
<polygon fill="black" stroke="black" points="234.81,-529.23 240.44,-520.25 230.44,-523.75 234.81,-529.23"/>
</g>
</g>
</svg>
