<svg width="600px" height="670px"
 viewBox="0.00 0.00 316.00 353.39" xmlns="http://www.w3.org/2000/svg" xmlns:xlink="http://www.w3.org/1999/xlink">
<g id="graph0" class="graph" transform="scale(1.0 1.0) rotate(0) translate(4 349.39)">
<title>04_Passagierabfertigung_Check&#45;In_am_Vorabend</title>
<polygon fill="white" stroke="transparent" points="-4,4 -4,-349.39 312,-349.39 312,4 -4,4"/>
<!-- StartEvent\n_4 -->
<g id="node1" class="node">
<title>StartEvent\n_4</title>
<ellipse fill="lightgrey" stroke="black" cx="154" cy="-317.44" rx="27.9" ry="27.9"/>
<text text-anchor="middle" x="154" y="-313.74" font-family="Times New Roman,serif" font-size="14.00">Start</text>
</g>
<!-- Task_1376l\n88_Task_1m\nakur1 -->
<g id="node4" class="node">
<title>Task_1376l\n88_Task_1m\nakur1</title>
<polygon fill="none" stroke="black" stroke-dasharray="5,2" points="8.5,-199.99 8.5,-252.99 299.5,-252.99 299.5,-199.99 8.5,-199.99"/>
<text text-anchor="middle" x="53.5" y="-237.79" font-family="Times New Roman,serif" font-size="14.00">Task_1376l</text>
<text text-anchor="middle" x="53.5" y="-222.79" font-family="Times New Roman,serif" font-size="14.00">88_Task_1m</text>
<text text-anchor="middle" x="53.5" y="-207.79" font-family="Times New Roman,serif" font-size="14.00">akur1</text>
<polyline fill="none" stroke="black" stroke-dasharray="5,2" points="98.5,-199.99 98.5,-252.99 "/>
<text text-anchor="middle" x="141" y="-237.79" font-family="Times New Roman,serif" font-size="14.00">Passagier:</text>
<text text-anchor="middle" x="141" y="-222.79" font-family="Times New Roman,serif" font-size="14.00">Lane_0ylwo</text>
<text text-anchor="middle" x="141" y="-207.79" font-family="Times New Roman,serif" font-size="14.00">ow</text>
<polyline fill="none" stroke="black" stroke-dasharray="5,2" points="183.5,-199.99 183.5,-252.99 "/>
<text text-anchor="middle" x="241.5" y="-237.79" font-family="Times New Roman,serif" font-size="14.00">Passagier DO</text>
<text text-anchor="middle" x="241.5" y="-222.79" font-family="Times New Roman,serif" font-size="14.00"> Person_bewegen</text>
<text text-anchor="middle" x="241.5" y="-207.79" font-family="Times New Roman,serif" font-size="14.00">Person_bewegen</text>
</g>
<!-- StartEvent\n_4&#45;&gt;Task_1376l\n88_Task_1m\nakur1 -->
<g id="edge1" class="edge">
<title>StartEvent\n_4&#45;&gt;Task_1376l\n88_Task_1m\nakur1</title>
<path fill="none" stroke="black" d="M154,-289.27C154,-281.14 154,-272.08 154,-263.47"/>
<polygon fill="black" stroke="black" points="157.5,-263.28 154,-253.28 150.5,-263.28 157.5,-263.28"/>
</g>
<!-- EndEvent_1\nvwcw55 -->
<g id="node2" class="node">
<title>EndEvent_1\nvwcw55</title>
<ellipse fill="lightgrey" stroke="black" cx="154" cy="-29.25" rx="29.5" ry="29.5"/>
<text text-anchor="middle" x="154" y="-25.55" font-family="Times New Roman,serif" font-size="14.00">Ende</text>
</g>
<!-- Task_0c1t4\n9t_Task_0c\n1t49t -->
<g id="node3" class="node">
<title>Task_0c1t4\n9t_Task_0c\n1t49t</title>
<polygon fill="none" stroke="black" stroke-dasharray="5,2" points="0,-94.99 0,-162.99 308,-162.99 308,-94.99 0,-94.99"/>
<text text-anchor="middle" x="41.5" y="-140.29" font-family="Times New Roman,serif" font-size="14.00">Task_0c1t4</text>
<text text-anchor="middle" x="41.5" y="-125.29" font-family="Times New Roman,serif" font-size="14.00">9t_Task_0c</text>
<text text-anchor="middle" x="41.5" y="-110.29" font-family="Times New Roman,serif" font-size="14.00">1t49t</text>
<polyline fill="none" stroke="black" stroke-dasharray="5,2" points="83,-94.99 83,-162.99 "/>
<text text-anchor="middle" x="124.5" y="-147.79" font-family="Times New Roman,serif" font-size="14.00">Sicherheit</text>
<text text-anchor="middle" x="124.5" y="-132.79" font-family="Times New Roman,serif" font-size="14.00">sbereich:L</text>
<text text-anchor="middle" x="124.5" y="-117.79" font-family="Times New Roman,serif" font-size="14.00">ane_02kbgs</text>
<text text-anchor="middle" x="124.5" y="-102.79" font-family="Times New Roman,serif" font-size="14.00">x</text>
<polyline fill="none" stroke="black" stroke-dasharray="5,2" points="166,-94.99 166,-162.99 "/>
<text text-anchor="middle" x="237" y="-132.79" font-family="Times New Roman,serif" font-size="14.00">Sicherheitsbereich DO</text>
<text text-anchor="middle" x="237" y="-117.79" font-family="Times New Roman,serif" font-size="14.00"> Person_bewegen</text>
</g>
<!-- Task_0c1t4\n9t_Task_0c\n1t49t&#45;&gt;EndEvent_1\nvwcw55 -->
<g id="edge2" class="edge">
<title>Task_0c1t4\n9t_Task_0c\n1t49t&#45;&gt;EndEvent_1\nvwcw55</title>
<path fill="none" stroke="black" d="M154,-94.9C154,-86.55 154,-77.52 154,-68.92"/>
<polygon fill="black" stroke="black" points="157.5,-68.73 154,-58.73 150.5,-68.73 157.5,-68.73"/>
</g>
<!-- Task_1376l\n88_Task_1m\nakur1&#45;&gt;Task_0c1t4\n9t_Task_0c\n1t49t -->
<g id="edge3" class="edge">
<title>Task_1376l\n88_Task_1m\nakur1&#45;&gt;Task_0c1t4\n9t_Task_0c\n1t49t</title>
<path fill="none" stroke="black" d="M154,-199.9C154,-191.71 154,-182.41 154,-173.32"/>
<polygon fill="black" stroke="black" points="157.5,-173.22 154,-163.22 150.5,-173.22 157.5,-173.22"/>
</g>
</g>
</svg>
