<svg width="600px" height="891px"
 viewBox="0.00 0.00 382.00 566.59" xmlns="http://www.w3.org/2000/svg" xmlns:xlink="http://www.w3.org/1999/xlink">
<g id="graph0" class="graph" transform="scale(1.0 1.0) rotate(0) translate(4 562.59)">
<title>05_Gepäckabfertigung_Abflug</title>
<polygon fill="white" stroke="transparent" points="-4,4 -4,-562.59 378,-562.59 378,4 -4,4"/>
<!-- EndEvent_1\nj97r4c -->
<g id="node1" class="node">
<title>EndEvent_1\nj97r4c</title>
<ellipse fill="lightgrey" stroke="black" cx="187" cy="-38.35" rx="38.19" ry="38.19"/>
<text text-anchor="middle" x="187" y="-34.65" font-family="Times New Roman,serif" font-size="14.00">Ende_2</text>
</g>
<!-- StartEvent\n_5 -->
<g id="node2" class="node">
<title>StartEvent\n_5</title>
<ellipse fill="lightgrey" stroke="black" cx="187" cy="-530.64" rx="27.9" ry="27.9"/>
<text text-anchor="middle" x="187" y="-526.94" font-family="Times New Roman,serif" font-size="14.00">Start</text>
</g>
<!-- Task_0ln0s\nhf_Task_0u\nhl64y -->
<g id="node4" class="node">
<title>Task_0ln0s\nhf_Task_0u\nhl64y</title>
<polygon fill="none" stroke="black" stroke-dasharray="5,2" points="14,-293.19 14,-466.19 360,-466.19 360,-293.19 14,-293.19"/>
<text text-anchor="middle" x="56" y="-390.99" font-family="Times New Roman,serif" font-size="14.00">Task_0ln0s</text>
<text text-anchor="middle" x="56" y="-375.99" font-family="Times New Roman,serif" font-size="14.00">hf_Task_0u</text>
<text text-anchor="middle" x="56" y="-360.99" font-family="Times New Roman,serif" font-size="14.00">hl64y</text>
<polyline fill="none" stroke="black" stroke-dasharray="5,2" points="98,-293.19 98,-466.19 "/>
<text text-anchor="middle" x="138" y="-390.99" font-family="Times New Roman,serif" font-size="14.00">Check&#45;In:L</text>
<text text-anchor="middle" x="138" y="-375.99" font-family="Times New Roman,serif" font-size="14.00">ane_0qxfur</text>
<text text-anchor="middle" x="138" y="-360.99" font-family="Times New Roman,serif" font-size="14.00">9</text>
<polyline fill="none" stroke="black" stroke-dasharray="5,2" points="178,-293.19 178,-466.19 "/>
<text text-anchor="middle" x="269" y="-450.99" font-family="Times New Roman,serif" font-size="14.00">Check&#45;In DO</text>
<text text-anchor="middle" x="269" y="-435.99" font-family="Times New Roman,serif" font-size="14.00"> Gepäck_bewegen</text>
<text text-anchor="middle" x="269" y="-420.99" font-family="Times New Roman,serif" font-size="14.00">Paralleles_Gateway_/_SPLIT</text>
<text text-anchor="middle" x="269" y="-405.99" font-family="Times New Roman,serif" font-size="14.00">Gepäck_kontrollieren</text>
<text text-anchor="middle" x="269" y="-390.99" font-family="Times New Roman,serif" font-size="14.00">Paralleles_Gateway_/_JOIN</text>
<text text-anchor="middle" x="269" y="-375.99" font-family="Times New Roman,serif" font-size="14.00">Gepäck_bewegen</text>
<text text-anchor="middle" x="269" y="-360.99" font-family="Times New Roman,serif" font-size="14.00">Dokument_bearbeiten</text>
<text text-anchor="middle" x="269" y="-345.99" font-family="Times New Roman,serif" font-size="14.00">Sperrgepäck?_/_SPLIT</text>
<text text-anchor="middle" x="269" y="-330.99" font-family="Times New Roman,serif" font-size="14.00">Gepäck_bewegen</text>
<text text-anchor="middle" x="269" y="-315.99" font-family="Times New Roman,serif" font-size="14.00">Warten</text>
<text text-anchor="middle" x="269" y="-300.99" font-family="Times New Roman,serif" font-size="14.00">Gepäck_bewegen</text>
</g>
<!-- StartEvent\n_5&#45;&gt;Task_0ln0s\nhf_Task_0u\nhl64y -->
<g id="edge1" class="edge">
<title>StartEvent\n_5&#45;&gt;Task_0ln0s\nhf_Task_0u\nhl64y</title>
<path fill="none" stroke="black" d="M187,-502.67C187,-494.89 187,-485.93 187,-476.46"/>
<polygon fill="black" stroke="black" points="190.5,-476.45 187,-466.45 183.5,-476.45 190.5,-476.45"/>
</g>
<!-- Task_0at6c\n14_Task_0z\nc9bjq -->
<g id="node3" class="node">
<title>Task_0at6c\n14_Task_0z\nc9bjq</title>
<polygon fill="none" stroke="black" stroke-dasharray="5,2" points="0,-113.19 0,-256.19 374,-256.19 374,-113.19 0,-113.19"/>
<text text-anchor="middle" x="43" y="-195.99" font-family="Times New Roman,serif" font-size="14.00">Task_0at6c</text>
<text text-anchor="middle" x="43" y="-180.99" font-family="Times New Roman,serif" font-size="14.00">14_Task_0z</text>
<text text-anchor="middle" x="43" y="-165.99" font-family="Times New Roman,serif" font-size="14.00">c9bjq</text>
<polyline fill="none" stroke="black" stroke-dasharray="5,2" points="86,-113.19 86,-256.19 "/>
<text text-anchor="middle" x="129.5" y="-203.49" font-family="Times New Roman,serif" font-size="14.00">Gepäck_Sic</text>
<text text-anchor="middle" x="129.5" y="-188.49" font-family="Times New Roman,serif" font-size="14.00">herheitsko</text>
<text text-anchor="middle" x="129.5" y="-173.49" font-family="Times New Roman,serif" font-size="14.00">ntrolle:La</text>
<text text-anchor="middle" x="129.5" y="-158.49" font-family="Times New Roman,serif" font-size="14.00">ne_0dxw77z</text>
<polyline fill="none" stroke="black" stroke-dasharray="5,2" points="173,-113.19 173,-256.19 "/>
<text text-anchor="middle" x="273.5" y="-240.99" font-family="Times New Roman,serif" font-size="14.00">Gepäck_Sicherheitskontrolle DO</text>
<text text-anchor="middle" x="273.5" y="-225.99" font-family="Times New Roman,serif" font-size="14.00"> Gepäck_kontrollieren</text>
<text text-anchor="middle" x="273.5" y="-210.99" font-family="Times New Roman,serif" font-size="14.00">Status_überprüfen_/_SPLITT</text>
<text text-anchor="middle" x="273.5" y="-195.99" font-family="Times New Roman,serif" font-size="14.00">Gepäck_kontrollieren</text>
<text text-anchor="middle" x="273.5" y="-180.99" font-family="Times New Roman,serif" font-size="14.00">Status_überprüfen_/_SPLIT</text>
<text text-anchor="middle" x="273.5" y="-165.99" font-family="Times New Roman,serif" font-size="14.00">Status_überprüfen_/_JOIN</text>
<text text-anchor="middle" x="273.5" y="-150.99" font-family="Times New Roman,serif" font-size="14.00">Status_überprüfen_/_JOIN</text>
<text text-anchor="middle" x="273.5" y="-135.99" font-family="Times New Roman,serif" font-size="14.00">Gepäck_bewegen</text>
<text text-anchor="middle" x="273.5" y="-120.99" font-family="Times New Roman,serif" font-size="14.00">Gegenstand_bewegen</text>
</g>
<!-- Task_0at6c\n14_Task_0z\nc9bjq&#45;&gt;EndEvent_1\nj97r4c -->
<g id="edge2" class="edge">
<title>Task_0at6c\n14_Task_0z\nc9bjq&#45;&gt;EndEvent_1\nj97r4c</title>
<path fill="none" stroke="black" d="M187,-112.79C187,-104.07 187,-95.32 187,-87.06"/>
<polygon fill="black" stroke="black" points="190.5,-86.89 187,-76.89 183.5,-86.89 190.5,-86.89"/>
</g>
<!-- Task_0ln0s\nhf_Task_0u\nhl64y&#45;&gt;Task_0at6c\n14_Task_0z\nc9bjq -->
<g id="edge3" class="edge">
<title>Task_0ln0s\nhf_Task_0u\nhl64y&#45;&gt;Task_0at6c\n14_Task_0z\nc9bjq</title>
<path fill="none" stroke="black" d="M187,-292.92C187,-284.16 187,-275.29 187,-266.59"/>
<polygon fill="black" stroke="black" points="190.5,-266.47 187,-256.47 183.5,-266.47 190.5,-266.47"/>
</g>
</g>
</svg>
