<svg width="600px" height="606px"
 viewBox="0.00 0.00 394.00 398.39" xmlns="http://www.w3.org/2000/svg" xmlns:xlink="http://www.w3.org/1999/xlink">
<g id="graph0" class="graph" transform="scale(1.0 1.0) rotate(0) translate(4 394.39)">
<title>09_Abfertigung_fehlgeleitetes_Transfergepäck</title>
<polygon fill="white" stroke="transparent" points="-4,4 -4,-394.39 390,-394.39 390,4 -4,4"/>
<!-- Task_0p8zs\nen_Task_0r\nzkvrd -->
<g id="node1" class="node">
<title>Task_0p8zs\nen_Task_0r\nzkvrd</title>
<polygon fill="none" stroke="black" stroke-dasharray="5,2" points="1,-94.99 1,-177.99 385,-177.99 385,-94.99 1,-94.99"/>
<text text-anchor="middle" x="43.5" y="-147.79" font-family="Times New Roman,serif" font-size="14.00">Task_0p8zs</text>
<text text-anchor="middle" x="43.5" y="-132.79" font-family="Times New Roman,serif" font-size="14.00">en_Task_0r</text>
<text text-anchor="middle" x="43.5" y="-117.79" font-family="Times New Roman,serif" font-size="14.00">zkvrd</text>
<polyline fill="none" stroke="black" stroke-dasharray="5,2" points="86,-94.99 86,-177.99 "/>
<text text-anchor="middle" x="128.5" y="-162.79" font-family="Times New Roman,serif" font-size="14.00">Eingabeste</text>
<text text-anchor="middle" x="128.5" y="-147.79" font-family="Times New Roman,serif" font-size="14.00">llen_Trans</text>
<text text-anchor="middle" x="128.5" y="-132.79" font-family="Times New Roman,serif" font-size="14.00">fergepäck:</text>
<text text-anchor="middle" x="128.5" y="-117.79" font-family="Times New Roman,serif" font-size="14.00">Lane_1g8c7</text>
<text text-anchor="middle" x="128.5" y="-102.79" font-family="Times New Roman,serif" font-size="14.00">wl</text>
<polyline fill="none" stroke="black" stroke-dasharray="5,2" points="171,-94.99 171,-177.99 "/>
<text text-anchor="middle" x="278" y="-147.79" font-family="Times New Roman,serif" font-size="14.00">Eingabestellen_Transfergepäck DO</text>
<text text-anchor="middle" x="278" y="-132.79" font-family="Times New Roman,serif" font-size="14.00"> Gepäck_bewegen</text>
<text text-anchor="middle" x="278" y="-117.79" font-family="Times New Roman,serif" font-size="14.00">Gepäck_bewegen</text>
</g>
<!-- EndEvent_0\nrx13h1 -->
<g id="node3" class="node">
<title>EndEvent_0\nrx13h1</title>
<ellipse fill="lightgrey" stroke="black" cx="193" cy="-29.25" rx="29.5" ry="29.5"/>
<text text-anchor="middle" x="193" y="-25.55" font-family="Times New Roman,serif" font-size="14.00">Ende</text>
</g>
<!-- Task_0p8zs\nen_Task_0r\nzkvrd&#45;&gt;EndEvent_0\nrx13h1 -->
<g id="edge1" class="edge">
<title>Task_0p8zs\nen_Task_0r\nzkvrd&#45;&gt;EndEvent_0\nrx13h1</title>
<path fill="none" stroke="black" d="M193,-94.8C193,-86.25 193,-77.25 193,-68.78"/>
<polygon fill="black" stroke="black" points="196.5,-68.77 193,-58.77 189.5,-68.77 196.5,-68.77"/>
</g>
<!-- Task_0ekil\nqz_Task_1y\nw1tg7 -->
<g id="node2" class="node">
<title>Task_0ekil\nqz_Task_1y\nw1tg7</title>
<polygon fill="none" stroke="black" stroke-dasharray="5,2" points="0,-214.99 0,-297.99 386,-297.99 386,-214.99 0,-214.99"/>
<text text-anchor="middle" x="43" y="-267.79" font-family="Times New Roman,serif" font-size="14.00">Task_0ekil</text>
<text text-anchor="middle" x="43" y="-252.79" font-family="Times New Roman,serif" font-size="14.00">qz_Task_1y</text>
<text text-anchor="middle" x="43" y="-237.79" font-family="Times New Roman,serif" font-size="14.00">w1tg7</text>
<polyline fill="none" stroke="black" stroke-dasharray="5,2" points="86,-214.99 86,-297.99 "/>
<text text-anchor="middle" x="129" y="-282.79" font-family="Times New Roman,serif" font-size="14.00">Mitarbeite</text>
<text text-anchor="middle" x="129" y="-267.79" font-family="Times New Roman,serif" font-size="14.00">r_Gepäckab</text>
<text text-anchor="middle" x="129" y="-252.79" font-family="Times New Roman,serif" font-size="14.00">fertigung:</text>
<text text-anchor="middle" x="129" y="-237.79" font-family="Times New Roman,serif" font-size="14.00">Lane_01ilm</text>
<text text-anchor="middle" x="129" y="-222.79" font-family="Times New Roman,serif" font-size="14.00">zw</text>
<polyline fill="none" stroke="black" stroke-dasharray="5,2" points="172,-214.99 172,-297.99 "/>
<text text-anchor="middle" x="279" y="-267.79" font-family="Times New Roman,serif" font-size="14.00">Mitarbeiter_Gepäckabfertigung DO</text>
<text text-anchor="middle" x="279" y="-252.79" font-family="Times New Roman,serif" font-size="14.00"> Gepäck_bewegen</text>
<text text-anchor="middle" x="279" y="-237.79" font-family="Times New Roman,serif" font-size="14.00">Gepäck_bewegen</text>
</g>
<!-- Task_0ekil\nqz_Task_1y\nw1tg7&#45;&gt;Task_0p8zs\nen_Task_0r\nzkvrd -->
<g id="edge2" class="edge">
<title>Task_0ekil\nqz_Task_1y\nw1tg7&#45;&gt;Task_0p8zs\nen_Task_0r\nzkvrd</title>
<path fill="none" stroke="black" d="M193,-214.89C193,-206.36 193,-197.26 193,-188.41"/>
<polygon fill="black" stroke="black" points="196.5,-188.18 193,-178.18 189.5,-188.18 196.5,-188.18"/>
</g>
<!-- StartEvent\n_9 -->
<g id="node4" class="node">
<title>StartEvent\n_9</title>
<ellipse fill="lightgrey" stroke="black" cx="193" cy="-362.44" rx="27.9" ry="27.9"/>
<text text-anchor="middle" x="193" y="-358.74" font-family="Times New Roman,serif" font-size="14.00">Start</text>
</g>
<!-- StartEvent\n_9&#45;&gt;Task_0ekil\nqz_Task_1y\nw1tg7 -->
<g id="edge3" class="edge">
<title>StartEvent\n_9&#45;&gt;Task_0ekil\nqz_Task_1y\nw1tg7</title>
<path fill="none" stroke="black" d="M193,-334.4C193,-326.36 193,-317.28 193,-308.24"/>
<polygon fill="black" stroke="black" points="196.5,-308.12 193,-298.12 189.5,-308.12 196.5,-308.12"/>
</g>
</g>
</svg>
