<svg width="600px" height="600px"
 viewBox="0.00 0.00 488.00 488.39" xmlns="http://www.w3.org/2000/svg" xmlns:xlink="http://www.w3.org/1999/xlink">
<g id="graph0" class="graph" transform="scale(1.0 1.0) rotate(0) translate(4 484.39)">
<title>11_Abfertigung_Sperrgepäck</title>
<polygon fill="white" stroke="transparent" points="-4,4 -4,-484.39 484,-484.39 484,4 -4,4"/>
<!-- Task_0maf9\nlr_Task_0m\naf9lr -->
<g id="node1" class="node">
<title>Task_0maf9\nlr_Task_0m\naf9lr</title>
<polygon fill="none" stroke="black" stroke-dasharray="5,2" points="66.5,-334.99 66.5,-387.99 413.5,-387.99 413.5,-334.99 66.5,-334.99"/>
<text text-anchor="middle" x="109.5" y="-372.79" font-family="Times New Roman,serif" font-size="14.00">Task_0maf9</text>
<text text-anchor="middle" x="109.5" y="-357.79" font-family="Times New Roman,serif" font-size="14.00">lr_Task_0m</text>
<text text-anchor="middle" x="109.5" y="-342.79" font-family="Times New Roman,serif" font-size="14.00">af9lr</text>
<polyline fill="none" stroke="black" stroke-dasharray="5,2" points="152.5,-334.99 152.5,-387.99 "/>
<text text-anchor="middle" x="196.5" y="-372.79" font-family="Times New Roman,serif" font-size="14.00">Passagier:</text>
<text text-anchor="middle" x="196.5" y="-357.79" font-family="Times New Roman,serif" font-size="14.00">Lane_0nwwt</text>
<text text-anchor="middle" x="196.5" y="-342.79" font-family="Times New Roman,serif" font-size="14.00">sy</text>
<polyline fill="none" stroke="black" stroke-dasharray="5,2" points="240.5,-334.99 240.5,-387.99 "/>
<text text-anchor="middle" x="327" y="-365.29" font-family="Times New Roman,serif" font-size="14.00">Passagier DO</text>
<text text-anchor="middle" x="327" y="-350.29" font-family="Times New Roman,serif" font-size="14.00"> Flughafenbereich_erreichen</text>
</g>
<!-- ExclusiveG\nateway_0kk\nos1g_Exclu\nsiveGatewa\ny_1br64kh -->
<g id="node5" class="node">
<title>ExclusiveG\nateway_0kk\nos1g_Exclu\nsiveGatewa\ny_1br64kh</title>
<polygon fill="none" stroke="black" stroke-dasharray="5,2" points="0,-199.99 0,-297.99 480,-297.99 480,-199.99 0,-199.99"/>
<text text-anchor="middle" x="41.5" y="-275.29" font-family="Times New Roman,serif" font-size="14.00">ExclusiveG</text>
<text text-anchor="middle" x="41.5" y="-260.29" font-family="Times New Roman,serif" font-size="14.00">ateway_0kk</text>
<text text-anchor="middle" x="41.5" y="-245.29" font-family="Times New Roman,serif" font-size="14.00">os1g_Exclu</text>
<text text-anchor="middle" x="41.5" y="-230.29" font-family="Times New Roman,serif" font-size="14.00">siveGatewa</text>
<text text-anchor="middle" x="41.5" y="-215.29" font-family="Times New Roman,serif" font-size="14.00">y_1br64kh</text>
<polyline fill="none" stroke="black" stroke-dasharray="5,2" points="83,-199.99 83,-297.99 "/>
<text text-anchor="middle" x="125" y="-267.79" font-family="Times New Roman,serif" font-size="14.00">Check&#45;In_S</text>
<text text-anchor="middle" x="125" y="-252.79" font-family="Times New Roman,serif" font-size="14.00">perrgepäck</text>
<text text-anchor="middle" x="125" y="-237.79" font-family="Times New Roman,serif" font-size="14.00">:Lane_08ap</text>
<text text-anchor="middle" x="125" y="-222.79" font-family="Times New Roman,serif" font-size="14.00">8ns</text>
<polyline fill="none" stroke="black" stroke-dasharray="5,2" points="167,-199.99 167,-297.99 "/>
<text text-anchor="middle" x="323.5" y="-282.79" font-family="Times New Roman,serif" font-size="14.00">Check&#45;In_Sperrgepäck DO</text>
<text text-anchor="middle" x="323.5" y="-267.79" font-family="Times New Roman,serif" font-size="14.00"> Gepäckanhänger_vorhanden?_/_SPLIT</text>
<text text-anchor="middle" x="323.5" y="-252.79" font-family="Times New Roman,serif" font-size="14.00">Gepäckanhänger_vorhanden?_/_JOIN</text>
<text text-anchor="middle" x="323.5" y="-237.79" font-family="Times New Roman,serif" font-size="14.00">Förderband_für_Sperrgepäck_vorhanden?_/_SPLIT</text>
<text text-anchor="middle" x="323.5" y="-222.79" font-family="Times New Roman,serif" font-size="14.00">Gepäck_bewegen</text>
<text text-anchor="middle" x="323.5" y="-207.79" font-family="Times New Roman,serif" font-size="14.00">Förderband_für_Sperrgepäck_vorhanden?_/_JOIN</text>
</g>
<!-- Task_0maf9\nlr_Task_0m\naf9lr&#45;&gt;ExclusiveG\nateway_0kk\nos1g_Exclu\nsiveGatewa\ny_1br64kh -->
<g id="edge1" class="edge">
<title>Task_0maf9\nlr_Task_0m\naf9lr&#45;&gt;ExclusiveG\nateway_0kk\nos1g_Exclu\nsiveGatewa\ny_1br64kh</title>
<path fill="none" stroke="black" d="M240,-334.87C240,-326.81 240,-317.57 240,-308.21"/>
<polygon fill="black" stroke="black" points="243.5,-308.06 240,-298.06 236.5,-308.06 243.5,-308.06"/>
</g>
<!-- EndEvent_0\nhbd04d -->
<g id="node2" class="node">
<title>EndEvent_0\nhbd04d</title>
<ellipse fill="lightgrey" stroke="black" cx="240" cy="-29.25" rx="29.5" ry="29.5"/>
<text text-anchor="middle" x="240" y="-25.55" font-family="Times New Roman,serif" font-size="14.00">Ende</text>
</g>
<!-- Task_1ei7t\ni0_Task_1e\ni7ti0 -->
<g id="node3" class="node">
<title>Task_1ei7t\ni0_Task_1e\ni7ti0</title>
<polygon fill="none" stroke="black" stroke-dasharray="5,2" points="55.5,-94.99 55.5,-162.99 424.5,-162.99 424.5,-94.99 55.5,-94.99"/>
<text text-anchor="middle" x="96.5" y="-140.29" font-family="Times New Roman,serif" font-size="14.00">Task_1ei7t</text>
<text text-anchor="middle" x="96.5" y="-125.29" font-family="Times New Roman,serif" font-size="14.00">i0_Task_1e</text>
<text text-anchor="middle" x="96.5" y="-110.29" font-family="Times New Roman,serif" font-size="14.00">i7ti0</text>
<polyline fill="none" stroke="black" stroke-dasharray="5,2" points="137.5,-94.99 137.5,-162.99 "/>
<text text-anchor="middle" x="180.5" y="-147.79" font-family="Times New Roman,serif" font-size="14.00">Gepäck_Sic</text>
<text text-anchor="middle" x="180.5" y="-132.79" font-family="Times New Roman,serif" font-size="14.00">herheitsko</text>
<text text-anchor="middle" x="180.5" y="-117.79" font-family="Times New Roman,serif" font-size="14.00">ntrolle:La</text>
<text text-anchor="middle" x="180.5" y="-102.79" font-family="Times New Roman,serif" font-size="14.00">ne_0e4r2ik</text>
<polyline fill="none" stroke="black" stroke-dasharray="5,2" points="223.5,-94.99 223.5,-162.99 "/>
<text text-anchor="middle" x="324" y="-132.79" font-family="Times New Roman,serif" font-size="14.00">Gepäck_Sicherheitskontrolle DO</text>
<text text-anchor="middle" x="324" y="-117.79" font-family="Times New Roman,serif" font-size="14.00"> Kontrollieren</text>
</g>
<!-- Task_1ei7t\ni0_Task_1e\ni7ti0&#45;&gt;EndEvent_0\nhbd04d -->
<g id="edge2" class="edge">
<title>Task_1ei7t\ni0_Task_1e\ni7ti0&#45;&gt;EndEvent_0\nhbd04d</title>
<path fill="none" stroke="black" d="M240,-94.9C240,-86.55 240,-77.52 240,-68.92"/>
<polygon fill="black" stroke="black" points="243.5,-68.73 240,-58.73 236.5,-68.73 243.5,-68.73"/>
</g>
<!-- StartEvent\n_111 -->
<g id="node4" class="node">
<title>StartEvent\n_111</title>
<ellipse fill="lightgrey" stroke="black" cx="240" cy="-452.44" rx="27.9" ry="27.9"/>
<text text-anchor="middle" x="240" y="-448.74" font-family="Times New Roman,serif" font-size="14.00">Start</text>
</g>
<!-- StartEvent\n_111&#45;&gt;Task_0maf9\nlr_Task_0m\naf9lr -->
<g id="edge3" class="edge">
<title>StartEvent\n_111&#45;&gt;Task_0maf9\nlr_Task_0m\naf9lr</title>
<path fill="none" stroke="black" d="M240,-424.27C240,-416.14 240,-407.08 240,-398.47"/>
<polygon fill="black" stroke="black" points="243.5,-398.28 240,-388.28 236.5,-398.28 243.5,-398.28"/>
</g>
<!-- ExclusiveG\nateway_0kk\nos1g_Exclu\nsiveGatewa\ny_1br64kh&#45;&gt;Task_1ei7t\ni0_Task_1e\ni7ti0 -->
<g id="edge4" class="edge">
<title>ExclusiveG\nateway_0kk\nos1g_Exclu\nsiveGatewa\ny_1br64kh&#45;&gt;Task_1ei7t\ni0_Task_1e\ni7ti0</title>
<path fill="none" stroke="black" d="M240,-199.66C240,-190.97 240,-181.96 240,-173.43"/>
<polygon fill="black" stroke="black" points="243.5,-173.3 240,-163.3 236.5,-173.3 243.5,-173.3"/>
</g>
</g>
</svg>
