<svg width="600px" height="971px"
 viewBox="0.00 0.00 474.18 767.39" xmlns="http://www.w3.org/2000/svg" xmlns:xlink="http://www.w3.org/1999/xlink">
<g id="graph0" class="graph" transform="scale(1.0 1.0) rotate(0) translate(4 763.39)">
<title>14_Gepäckabfertigung_Fast&#45;Bag&#45;Drop</title>
<polygon fill="white" stroke="transparent" points="-4,4 -4,-763.39 470.18,-763.39 470.18,4 -4,4"/>
<!-- ExclusiveG\nateway_1sw\nern1 -->
<g id="node1" class="node">
<title>ExclusiveG\nateway_1sw\nern1</title>
<polygon fill="lightgrey" stroke="black" points="217.68,-325.49 6.37,-307.49 217.68,-289.49 428.99,-307.49 217.68,-325.49"/>
<text text-anchor="middle" x="217.68" y="-303.79" font-family="Times New Roman,serif" font-size="14.00">Gepäckanhänger_vorhanden?_/_JOIN</text>
</g>
<!-- Task_1q755\nj5_Task_1q\n755j5 -->
<g id="node2" class="node">
<title>Task_1q755\nj5_Task_1q\n755j5</title>
<polygon fill="none" stroke="black" stroke-dasharray="5,2" points="45.68,-199.99 45.68,-252.99 389.68,-252.99 389.68,-199.99 45.68,-199.99"/>
<text text-anchor="middle" x="88.68" y="-237.79" font-family="Times New Roman,serif" font-size="14.00">Task_1q755</text>
<text text-anchor="middle" x="88.68" y="-222.79" font-family="Times New Roman,serif" font-size="14.00">j5_Task_1q</text>
<text text-anchor="middle" x="88.68" y="-207.79" font-family="Times New Roman,serif" font-size="14.00">755j5</text>
<polyline fill="none" stroke="black" stroke-dasharray="5,2" points="131.68,-199.99 131.68,-252.99 "/>
<text text-anchor="middle" x="174.18" y="-237.79" font-family="Times New Roman,serif" font-size="14.00">Passagier:</text>
<text text-anchor="middle" x="174.18" y="-222.79" font-family="Times New Roman,serif" font-size="14.00">Lane_1j54m</text>
<text text-anchor="middle" x="174.18" y="-207.79" font-family="Times New Roman,serif" font-size="14.00">2x</text>
<polyline fill="none" stroke="black" stroke-dasharray="5,2" points="216.68,-199.99 216.68,-252.99 "/>
<text text-anchor="middle" x="303.18" y="-230.29" font-family="Times New Roman,serif" font-size="14.00">Passagier DO</text>
<text text-anchor="middle" x="303.18" y="-215.29" font-family="Times New Roman,serif" font-size="14.00"> Flughafenbereich_erreichen</text>
</g>
<!-- ExclusiveG\nateway_1sw\nern1&#45;&gt;Task_1q755\nj5_Task_1q\n755j5 -->
<g id="edge1" class="edge">
<title>ExclusiveG\nateway_1sw\nern1&#45;&gt;Task_1q755\nj5_Task_1q\n755j5</title>
<path fill="none" stroke="black" d="M217.68,-289.35C217.68,-281.64 217.68,-272.23 217.68,-263.09"/>
<polygon fill="black" stroke="black" points="221.18,-263.01 217.68,-253.01 214.18,-263.01 221.18,-263.01"/>
</g>
<!-- Task_0k5vt\nh2_Task_0a\n5lw4s -->
<g id="node3" class="node">
<title>Task_0k5vt\nh2_Task_0a\n5lw4s</title>
<polygon fill="none" stroke="black" stroke-dasharray="5,2" points="43.68,-94.99 43.68,-162.99 391.68,-162.99 391.68,-94.99 43.68,-94.99"/>
<text text-anchor="middle" x="86.68" y="-140.29" font-family="Times New Roman,serif" font-size="14.00">Task_0k5vt</text>
<text text-anchor="middle" x="86.68" y="-125.29" font-family="Times New Roman,serif" font-size="14.00">h2_Task_0a</text>
<text text-anchor="middle" x="86.68" y="-110.29" font-family="Times New Roman,serif" font-size="14.00">5lw4s</text>
<polyline fill="none" stroke="black" stroke-dasharray="5,2" points="129.68,-94.99 129.68,-162.99 "/>
<text text-anchor="middle" x="172.18" y="-147.79" font-family="Times New Roman,serif" font-size="14.00">Fast&#45;Bag&#45;D</text>
<text text-anchor="middle" x="172.18" y="-132.79" font-family="Times New Roman,serif" font-size="14.00">rop&#45;Automa</text>
<text text-anchor="middle" x="172.18" y="-117.79" font-family="Times New Roman,serif" font-size="14.00">t:Lane_10w</text>
<text text-anchor="middle" x="172.18" y="-102.79" font-family="Times New Roman,serif" font-size="14.00">e8ej</text>
<polyline fill="none" stroke="black" stroke-dasharray="5,2" points="214.68,-94.99 214.68,-162.99 "/>
<text text-anchor="middle" x="303.18" y="-140.29" font-family="Times New Roman,serif" font-size="14.00">Fast&#45;Bag&#45;Drop&#45;Automat DO</text>
<text text-anchor="middle" x="303.18" y="-125.29" font-family="Times New Roman,serif" font-size="14.00"> Gepäck_bewegen</text>
<text text-anchor="middle" x="303.18" y="-110.29" font-family="Times New Roman,serif" font-size="14.00">Gepäck_bewegen</text>
</g>
<!-- Task_1q755\nj5_Task_1q\n755j5&#45;&gt;Task_0k5vt\nh2_Task_0a\n5lw4s -->
<g id="edge2" class="edge">
<title>Task_1q755\nj5_Task_1q\n755j5&#45;&gt;Task_0k5vt\nh2_Task_0a\n5lw4s</title>
<path fill="none" stroke="black" d="M217.68,-199.9C217.68,-191.71 217.68,-182.41 217.68,-173.32"/>
<polygon fill="black" stroke="black" points="221.18,-173.22 217.68,-163.22 214.18,-173.22 221.18,-173.22"/>
</g>
<!-- EndEvent_0\nct2jox -->
<g id="node4" class="node">
<title>EndEvent_0\nct2jox</title>
<ellipse fill="lightgrey" stroke="black" cx="217.68" cy="-29.25" rx="29.5" ry="29.5"/>
<text text-anchor="middle" x="217.68" y="-25.55" font-family="Times New Roman,serif" font-size="14.00">Ende</text>
</g>
<!-- Task_0k5vt\nh2_Task_0a\n5lw4s&#45;&gt;EndEvent_0\nct2jox -->
<g id="edge3" class="edge">
<title>Task_0k5vt\nh2_Task_0a\n5lw4s&#45;&gt;EndEvent_0\nct2jox</title>
<path fill="none" stroke="black" d="M217.68,-94.9C217.68,-86.55 217.68,-77.52 217.68,-68.92"/>
<polygon fill="black" stroke="black" points="221.18,-68.73 217.68,-58.73 214.18,-68.73 221.18,-68.73"/>
</g>
<!-- Task_1u740\na4_Task_1u\n740a4 -->
<g id="node5" class="node">
<title>Task_1u740\na4_Task_1u\n740a4</title>
<polygon fill="none" stroke="black" stroke-dasharray="5,2" points="76.18,-613.99 76.18,-666.99 363.18,-666.99 363.18,-613.99 76.18,-613.99"/>
<text text-anchor="middle" x="119.18" y="-651.79" font-family="Times New Roman,serif" font-size="14.00">Task_1u740</text>
<text text-anchor="middle" x="119.18" y="-636.79" font-family="Times New Roman,serif" font-size="14.00">a4_Task_1u</text>
<text text-anchor="middle" x="119.18" y="-621.79" font-family="Times New Roman,serif" font-size="14.00">740a4</text>
<polyline fill="none" stroke="black" stroke-dasharray="5,2" points="162.18,-613.99 162.18,-666.99 "/>
<text text-anchor="middle" x="204.68" y="-651.79" font-family="Times New Roman,serif" font-size="14.00">Passagier:</text>
<text text-anchor="middle" x="204.68" y="-636.79" font-family="Times New Roman,serif" font-size="14.00">Lane_1j54m</text>
<text text-anchor="middle" x="204.68" y="-621.79" font-family="Times New Roman,serif" font-size="14.00">2x</text>
<polyline fill="none" stroke="black" stroke-dasharray="5,2" points="247.18,-613.99 247.18,-666.99 "/>
<text text-anchor="middle" x="305.18" y="-644.29" font-family="Times New Roman,serif" font-size="14.00">Passagier DO</text>
<text text-anchor="middle" x="305.18" y="-629.29" font-family="Times New Roman,serif" font-size="14.00"> Person_bewegen</text>
</g>
<!-- ExclusiveG\nateway_0ww\nlbnt -->
<g id="node8" class="node">
<title>ExclusiveG\nateway_0ww\nlbnt</title>
<polygon fill="lightgrey" stroke="black" points="219.68,-577.49 -0.18,-559.49 219.68,-541.49 439.54,-559.49 219.68,-577.49"/>
<text text-anchor="middle" x="219.68" y="-555.79" font-family="Times New Roman,serif" font-size="14.00">Gepäckanhänger_vorhanden?_/_SPLIT</text>
</g>
<!-- Task_1u740\na4_Task_1u\n740a4&#45;&gt;ExclusiveG\nateway_0ww\nlbnt -->
<g id="edge4" class="edge">
<title>Task_1u740\na4_Task_1u\n740a4&#45;&gt;ExclusiveG\nateway_0ww\nlbnt</title>
<path fill="none" stroke="black" d="M219.68,-613.63C219.68,-605.4 219.68,-596.28 219.68,-587.94"/>
<polygon fill="black" stroke="black" points="223.18,-587.94 219.68,-577.94 216.18,-587.94 223.18,-587.94"/>
</g>
<!-- Task_00mf8\n50 -->
<g id="node6" class="node">
<title>Task_00mf8\n50</title>
<polygon fill="lightgrey" stroke="black" points="157.18,-451.99 157.18,-504.99 466.18,-504.99 466.18,-451.99 157.18,-451.99"/>
<text text-anchor="middle" x="200.68" y="-482.29" font-family="Times New Roman,serif" font-size="14.00">Task_00mf8</text>
<text text-anchor="middle" x="200.68" y="-467.29" font-family="Times New Roman,serif" font-size="14.00">50</text>
<polyline fill="none" stroke="black" points="244.18,-451.99 244.18,-504.99 "/>
<text text-anchor="middle" x="285.68" y="-489.79" font-family="Times New Roman,serif" font-size="14.00">Bag&#45;Tag&#45;Dr</text>
<text text-anchor="middle" x="285.68" y="-474.79" font-family="Times New Roman,serif" font-size="14.00">ucker:Lane</text>
<text text-anchor="middle" x="285.68" y="-459.79" font-family="Times New Roman,serif" font-size="14.00">_07atj0y</text>
<polyline fill="none" stroke="black" points="327.18,-451.99 327.18,-504.99 "/>
<text text-anchor="middle" x="396.68" y="-474.79" font-family="Times New Roman,serif" font-size="14.00">Dokument_bearbeiten</text>
</g>
<!-- Task_0djrf\nk5 -->
<g id="node9" class="node">
<title>Task_0djrf\nk5</title>
<polygon fill="lightgrey" stroke="black" points="158.68,-361.99 158.68,-414.99 460.68,-414.99 460.68,-361.99 158.68,-361.99"/>
<text text-anchor="middle" x="197.68" y="-392.29" font-family="Times New Roman,serif" font-size="14.00">Task_0djrf</text>
<text text-anchor="middle" x="197.68" y="-377.29" font-family="Times New Roman,serif" font-size="14.00">k5</text>
<polyline fill="none" stroke="black" points="236.68,-361.99 236.68,-414.99 "/>
<text text-anchor="middle" x="279.18" y="-399.79" font-family="Times New Roman,serif" font-size="14.00">Passagier:</text>
<text text-anchor="middle" x="279.18" y="-384.79" font-family="Times New Roman,serif" font-size="14.00">Lane_1j54m</text>
<text text-anchor="middle" x="279.18" y="-369.79" font-family="Times New Roman,serif" font-size="14.00">2x</text>
<polyline fill="none" stroke="black" points="321.68,-361.99 321.68,-414.99 "/>
<text text-anchor="middle" x="391.18" y="-384.79" font-family="Times New Roman,serif" font-size="14.00">Dokument_bearbeiten</text>
</g>
<!-- Task_00mf8\n50&#45;&gt;Task_0djrf\nk5 -->
<g id="edge5" class="edge">
<title>Task_00mf8\n50&#45;&gt;Task_0djrf\nk5</title>
<path fill="none" stroke="black" d="M311.09,-451.57C310.9,-443.33 310.69,-434.07 310.49,-425.27"/>
<polygon fill="black" stroke="black" points="313.99,-425.15 310.26,-415.24 306.99,-425.31 313.99,-425.15"/>
</g>
<!-- StartEvent\n_14 -->
<g id="node7" class="node">
<title>StartEvent\n_14</title>
<ellipse fill="lightgrey" stroke="black" cx="219.68" cy="-731.44" rx="27.9" ry="27.9"/>
<text text-anchor="middle" x="219.68" y="-727.74" font-family="Times New Roman,serif" font-size="14.00">Start</text>
</g>
<!-- StartEvent\n_14&#45;&gt;Task_1u740\na4_Task_1u\n740a4 -->
<g id="edge6" class="edge">
<title>StartEvent\n_14&#45;&gt;Task_1u740\na4_Task_1u\n740a4</title>
<path fill="none" stroke="black" d="M219.68,-703.27C219.68,-695.14 219.68,-686.08 219.68,-677.47"/>
<polygon fill="black" stroke="black" points="223.18,-677.28 219.68,-667.28 216.18,-677.28 223.18,-677.28"/>
</g>
<!-- ExclusiveG\nateway_0ww\nlbnt&#45;&gt;ExclusiveG\nateway_1sw\nern1 -->
<g id="edge8" class="edge">
<title>ExclusiveG\nateway_0ww\nlbnt&#45;&gt;ExclusiveG\nateway_1sw\nern1</title>
<path fill="none" stroke="black" d="M188.17,-544.02C172.98,-535.22 156.22,-522.39 147.68,-505.49 140.26,-490.82 140.51,-379.76 149.68,-361.49 156.33,-348.26 168,-337.33 179.82,-328.91"/>
<polygon fill="black" stroke="black" points="181.99,-331.67 188.38,-323.23 178.11,-325.84 181.99,-331.67"/>
</g>
<!-- ExclusiveG\nateway_0ww\nlbnt&#45;&gt;Task_00mf8\n50 -->
<g id="edge7" class="edge">
<title>ExclusiveG\nateway_0ww\nlbnt&#45;&gt;Task_00mf8\n50</title>
<path fill="none" stroke="black" d="M237.85,-542.89C248.26,-533.95 261.71,-522.4 274.28,-511.61"/>
<polygon fill="black" stroke="black" points="276.65,-514.19 281.95,-505.02 272.08,-508.88 276.65,-514.19"/>
</g>
<!-- Task_0djrf\nk5&#45;&gt;ExclusiveG\nateway_1sw\nern1 -->
<g id="edge9" class="edge">
<title>Task_0djrf\nk5&#45;&gt;ExclusiveG\nateway_1sw\nern1</title>
<path fill="none" stroke="black" d="M279.81,-361.85C268.16,-351.84 254.92,-340.48 243.67,-330.81"/>
<polygon fill="black" stroke="black" points="245.75,-327.98 235.88,-324.12 241.19,-333.29 245.75,-327.98"/>
</g>
</g>
</svg>
