<svg width="600px" height="965px"
 viewBox="0.00 0.00 378.00 608.39" xmlns="http://www.w3.org/2000/svg" xmlns:xlink="http://www.w3.org/1999/xlink">
<g id="graph0" class="graph" transform="scale(1.0 1.0) rotate(0) translate(4 604.39)">
<title>17_Passagierabfertigung_am_Checketing&#45;Schalter</title>
<polygon fill="white" stroke="transparent" points="-4,4 -4,-604.39 374,-604.39 374,4 -4,4"/>
<!-- EndEvent_0\ng7wvlq -->
<g id="node1" class="node">
<title>EndEvent_0\ng7wvlq</title>
<ellipse fill="lightgrey" stroke="black" cx="185" cy="-29.25" rx="29.5" ry="29.5"/>
<text text-anchor="middle" x="185" y="-25.55" font-family="Times New Roman,serif" font-size="14.00">Ende</text>
</g>
<!-- Task_1mpam\ncn_Task_1m\npamcn -->
<g id="node2" class="node">
<title>Task_1mpam\ncn_Task_1m\npamcn</title>
<polygon fill="none" stroke="black" stroke-dasharray="5,2" points="29,-94.99 29,-162.99 341,-162.99 341,-94.99 29,-94.99"/>
<text text-anchor="middle" x="75.5" y="-140.29" font-family="Times New Roman,serif" font-size="14.00">Task_1mpam</text>
<text text-anchor="middle" x="75.5" y="-125.29" font-family="Times New Roman,serif" font-size="14.00">cn_Task_1m</text>
<text text-anchor="middle" x="75.5" y="-110.29" font-family="Times New Roman,serif" font-size="14.00">pamcn</text>
<polyline fill="none" stroke="black" stroke-dasharray="5,2" points="122,-94.99 122,-162.99 "/>
<text text-anchor="middle" x="160.5" y="-147.79" font-family="Times New Roman,serif" font-size="14.00">Sicherheit</text>
<text text-anchor="middle" x="160.5" y="-132.79" font-family="Times New Roman,serif" font-size="14.00">sbereich:L</text>
<text text-anchor="middle" x="160.5" y="-117.79" font-family="Times New Roman,serif" font-size="14.00">ane_0f1jvc</text>
<text text-anchor="middle" x="160.5" y="-102.79" font-family="Times New Roman,serif" font-size="14.00">4</text>
<polyline fill="none" stroke="black" stroke-dasharray="5,2" points="199,-94.99 199,-162.99 "/>
<text text-anchor="middle" x="270" y="-132.79" font-family="Times New Roman,serif" font-size="14.00">Sicherheitsbereich DO</text>
<text text-anchor="middle" x="270" y="-117.79" font-family="Times New Roman,serif" font-size="14.00"> Person_bewegen</text>
</g>
<!-- Task_1mpam\ncn_Task_1m\npamcn&#45;&gt;EndEvent_0\ng7wvlq -->
<g id="edge1" class="edge">
<title>Task_1mpam\ncn_Task_1m\npamcn&#45;&gt;EndEvent_0\ng7wvlq</title>
<path fill="none" stroke="black" d="M185,-94.9C185,-86.55 185,-77.52 185,-68.92"/>
<polygon fill="black" stroke="black" points="188.5,-68.73 185,-58.73 181.5,-68.73 188.5,-68.73"/>
</g>
<!-- Task_1caa8\nmw_Task_03\n2a779 -->
<g id="node3" class="node">
<title>Task_1caa8\nmw_Task_03\n2a779</title>
<polygon fill="none" stroke="black" stroke-dasharray="5,2" points="0,-289.99 0,-402.99 370,-402.99 370,-289.99 0,-289.99"/>
<text text-anchor="middle" x="46.5" y="-357.79" font-family="Times New Roman,serif" font-size="14.00">Task_1caa8</text>
<text text-anchor="middle" x="46.5" y="-342.79" font-family="Times New Roman,serif" font-size="14.00">mw_Task_03</text>
<text text-anchor="middle" x="46.5" y="-327.79" font-family="Times New Roman,serif" font-size="14.00">2a779</text>
<polyline fill="none" stroke="black" stroke-dasharray="5,2" points="93,-289.99 93,-402.99 "/>
<text text-anchor="middle" x="137" y="-365.29" font-family="Times New Roman,serif" font-size="14.00">Checketing</text>
<text text-anchor="middle" x="137" y="-350.29" font-family="Times New Roman,serif" font-size="14.00">&#45;Schalter:</text>
<text text-anchor="middle" x="137" y="-335.29" font-family="Times New Roman,serif" font-size="14.00">Lane_0wh9g</text>
<text text-anchor="middle" x="137" y="-320.29" font-family="Times New Roman,serif" font-size="14.00">o4</text>
<polyline fill="none" stroke="black" stroke-dasharray="5,2" points="181,-289.99 181,-402.99 "/>
<text text-anchor="middle" x="275.5" y="-387.79" font-family="Times New Roman,serif" font-size="14.00">Checketing&#45;Schalter DO</text>
<text text-anchor="middle" x="275.5" y="-372.79" font-family="Times New Roman,serif" font-size="14.00"> Kontrollieren</text>
<text text-anchor="middle" x="275.5" y="-357.79" font-family="Times New Roman,serif" font-size="14.00">Sonstige_Tasks</text>
<text text-anchor="middle" x="275.5" y="-342.79" font-family="Times New Roman,serif" font-size="14.00">Gepäck_vorhanden?_/_SPLIT</text>
<text text-anchor="middle" x="275.5" y="-327.79" font-family="Times New Roman,serif" font-size="14.00">Gegenstand_bewegen</text>
<text text-anchor="middle" x="275.5" y="-312.79" font-family="Times New Roman,serif" font-size="14.00">Gepäck_vorhanden?_/_JOIN</text>
<text text-anchor="middle" x="275.5" y="-297.79" font-family="Times New Roman,serif" font-size="14.00">Dokument_bearbeiten</text>
</g>
<!-- Task_08t5p\nka_Task_08\nt5pka -->
<g id="node4" class="node">
<title>Task_08t5p\nka_Task_08\nt5pka</title>
<polygon fill="none" stroke="black" stroke-dasharray="5,2" points="39.5,-199.99 39.5,-252.99 330.5,-252.99 330.5,-199.99 39.5,-199.99"/>
<text text-anchor="middle" x="82.5" y="-237.79" font-family="Times New Roman,serif" font-size="14.00">Task_08t5p</text>
<text text-anchor="middle" x="82.5" y="-222.79" font-family="Times New Roman,serif" font-size="14.00">ka_Task_08</text>
<text text-anchor="middle" x="82.5" y="-207.79" font-family="Times New Roman,serif" font-size="14.00">t5pka</text>
<polyline fill="none" stroke="black" stroke-dasharray="5,2" points="125.5,-199.99 125.5,-252.99 "/>
<text text-anchor="middle" x="170" y="-237.79" font-family="Times New Roman,serif" font-size="14.00">Passagier:</text>
<text text-anchor="middle" x="170" y="-222.79" font-family="Times New Roman,serif" font-size="14.00">Lane_0n4nm</text>
<text text-anchor="middle" x="170" y="-207.79" font-family="Times New Roman,serif" font-size="14.00">g3</text>
<polyline fill="none" stroke="black" stroke-dasharray="5,2" points="214.5,-199.99 214.5,-252.99 "/>
<text text-anchor="middle" x="272.5" y="-230.29" font-family="Times New Roman,serif" font-size="14.00">Passagier DO</text>
<text text-anchor="middle" x="272.5" y="-215.29" font-family="Times New Roman,serif" font-size="14.00"> Person_bewegen</text>
</g>
<!-- Task_1caa8\nmw_Task_03\n2a779&#45;&gt;Task_08t5p\nka_Task_08\nt5pka -->
<g id="edge2" class="edge">
<title>Task_1caa8\nmw_Task_03\n2a779&#45;&gt;Task_08t5p\nka_Task_08\nt5pka</title>
<path fill="none" stroke="black" d="M185,-289.95C185,-280.87 185,-271.68 185,-263.25"/>
<polygon fill="black" stroke="black" points="188.5,-263.04 185,-253.04 181.5,-263.04 188.5,-263.04"/>
</g>
<!-- Task_08t5p\nka_Task_08\nt5pka&#45;&gt;Task_1mpam\ncn_Task_1m\npamcn -->
<g id="edge3" class="edge">
<title>Task_08t5p\nka_Task_08\nt5pka&#45;&gt;Task_1mpam\ncn_Task_1m\npamcn</title>
<path fill="none" stroke="black" d="M185,-199.9C185,-191.71 185,-182.41 185,-173.32"/>
<polygon fill="black" stroke="black" points="188.5,-173.22 185,-163.22 181.5,-173.22 188.5,-173.22"/>
</g>
<!-- StartEvent\n_17 -->
<g id="node5" class="node">
<title>StartEvent\n_17</title>
<ellipse fill="lightgrey" stroke="black" cx="185" cy="-572.44" rx="27.9" ry="27.9"/>
<text text-anchor="middle" x="185" y="-568.74" font-family="Times New Roman,serif" font-size="14.00">Start</text>
</g>
<!-- Task_1ihvy\nd9_Task_1a\n1182l -->
<g id="node6" class="node">
<title>Task_1ihvy\nd9_Task_1a\n1182l</title>
<polygon fill="none" stroke="black" stroke-dasharray="5,2" points="12.5,-439.99 12.5,-507.99 357.5,-507.99 357.5,-439.99 12.5,-439.99"/>
<text text-anchor="middle" x="55.5" y="-485.29" font-family="Times New Roman,serif" font-size="14.00">Task_1ihvy</text>
<text text-anchor="middle" x="55.5" y="-470.29" font-family="Times New Roman,serif" font-size="14.00">d9_Task_1a</text>
<text text-anchor="middle" x="55.5" y="-455.29" font-family="Times New Roman,serif" font-size="14.00">1182l</text>
<polyline fill="none" stroke="black" stroke-dasharray="5,2" points="98.5,-439.99 98.5,-507.99 "/>
<text text-anchor="middle" x="143" y="-485.29" font-family="Times New Roman,serif" font-size="14.00">Passagier:</text>
<text text-anchor="middle" x="143" y="-470.29" font-family="Times New Roman,serif" font-size="14.00">Lane_0n4nm</text>
<text text-anchor="middle" x="143" y="-455.29" font-family="Times New Roman,serif" font-size="14.00">g3</text>
<polyline fill="none" stroke="black" stroke-dasharray="5,2" points="187.5,-439.99 187.5,-507.99 "/>
<text text-anchor="middle" x="272.5" y="-492.79" font-family="Times New Roman,serif" font-size="14.00">Passagier DO</text>
<text text-anchor="middle" x="272.5" y="-477.79" font-family="Times New Roman,serif" font-size="14.00"> Person_bewegen</text>
<text text-anchor="middle" x="272.5" y="-462.79" font-family="Times New Roman,serif" font-size="14.00">Flughafenbereich_erreichen</text>
<text text-anchor="middle" x="272.5" y="-447.79" font-family="Times New Roman,serif" font-size="14.00">Sonstige_Tasks</text>
</g>
<!-- StartEvent\n_17&#45;&gt;Task_1ihvy\nd9_Task_1a\n1182l -->
<g id="edge4" class="edge">
<title>StartEvent\n_17&#45;&gt;Task_1ihvy\nd9_Task_1a\n1182l</title>
<path fill="none" stroke="black" d="M185,-544.32C185,-536.23 185,-527.15 185,-518.3"/>
<polygon fill="black" stroke="black" points="188.5,-518.08 185,-508.08 181.5,-518.08 188.5,-518.08"/>
</g>
<!-- Task_1ihvy\nd9_Task_1a\n1182l&#45;&gt;Task_1caa8\nmw_Task_03\n2a779 -->
<g id="edge5" class="edge">
<title>Task_1ihvy\nd9_Task_1a\n1182l&#45;&gt;Task_1caa8\nmw_Task_03\n2a779</title>
<path fill="none" stroke="black" d="M185,-439.69C185,-431.57 185,-422.59 185,-413.52"/>
<polygon fill="black" stroke="black" points="188.5,-413.28 185,-403.28 181.5,-413.28 188.5,-413.28"/>
</g>
</g>
</svg>
