<svg width="600px" height="683px"
 viewBox="0.00 0.00 363.00 413.39" xmlns="http://www.w3.org/2000/svg" xmlns:xlink="http://www.w3.org/1999/xlink">
<g id="graph0" class="graph" transform="scale(1.0 1.0) rotate(0) translate(4 409.39)">
<title>18_Passagierabfertigung_Check&#45;In_am_Gate</title>
<polygon fill="white" stroke="transparent" points="-4,4 -4,-409.39 359,-409.39 359,4 -4,4"/>
<!-- Task_06n66\n1b_Task_1o\nrkpcx -->
<g id="node1" class="node">
<title>Task_06n66\n1b_Task_1o\nrkpcx</title>
<polygon fill="none" stroke="black" stroke-dasharray="5,2" points="0,-94.99 0,-222.99 355,-222.99 355,-94.99 0,-94.99"/>
<text text-anchor="middle" x="44" y="-170.29" font-family="Times New Roman,serif" font-size="14.00">Task_06n66</text>
<text text-anchor="middle" x="44" y="-155.29" font-family="Times New Roman,serif" font-size="14.00">1b_Task_1o</text>
<text text-anchor="middle" x="44" y="-140.29" font-family="Times New Roman,serif" font-size="14.00">rkpcx</text>
<polyline fill="none" stroke="black" stroke-dasharray="5,2" points="88,-94.99 88,-222.99 "/>
<text text-anchor="middle" x="127" y="-170.29" font-family="Times New Roman,serif" font-size="14.00">Gate&#45;Schal</text>
<text text-anchor="middle" x="127" y="-155.29" font-family="Times New Roman,serif" font-size="14.00">ter:Lane_0</text>
<text text-anchor="middle" x="127" y="-140.29" font-family="Times New Roman,serif" font-size="14.00">hrm4ci</text>
<polyline fill="none" stroke="black" stroke-dasharray="5,2" points="166,-94.99 166,-222.99 "/>
<text text-anchor="middle" x="260.5" y="-207.79" font-family="Times New Roman,serif" font-size="14.00">Gate&#45;Schalter DO</text>
<text text-anchor="middle" x="260.5" y="-192.79" font-family="Times New Roman,serif" font-size="14.00"> Kontrollieren</text>
<text text-anchor="middle" x="260.5" y="-177.79" font-family="Times New Roman,serif" font-size="14.00">Sonstige_Tasks</text>
<text text-anchor="middle" x="260.5" y="-162.79" font-family="Times New Roman,serif" font-size="14.00">Dokument_bearbeiten</text>
<text text-anchor="middle" x="260.5" y="-147.79" font-family="Times New Roman,serif" font-size="14.00">Gepäck_vorhanden?_/_SPLIT</text>
<text text-anchor="middle" x="260.5" y="-132.79" font-family="Times New Roman,serif" font-size="14.00">Gegenstand_bewegen</text>
<text text-anchor="middle" x="260.5" y="-117.79" font-family="Times New Roman,serif" font-size="14.00">Gepäck_vorhanden?_/_JOIN</text>
<text text-anchor="middle" x="260.5" y="-102.79" font-family="Times New Roman,serif" font-size="14.00">Person_bewegen</text>
</g>
<!-- EndEvent_0\n9ps9w4 -->
<g id="node2" class="node">
<title>EndEvent_0\n9ps9w4</title>
<ellipse fill="lightgrey" stroke="black" cx="177.5" cy="-29.25" rx="29.5" ry="29.5"/>
<text text-anchor="middle" x="177.5" y="-25.55" font-family="Times New Roman,serif" font-size="14.00">Ende</text>
</g>
<!-- Task_06n66\n1b_Task_1o\nrkpcx&#45;&gt;EndEvent_0\n9ps9w4 -->
<g id="edge1" class="edge">
<title>Task_06n66\n1b_Task_1o\nrkpcx&#45;&gt;EndEvent_0\n9ps9w4</title>
<path fill="none" stroke="black" d="M177.5,-94.87C177.5,-85.94 177.5,-76.99 177.5,-68.72"/>
<polygon fill="black" stroke="black" points="181,-68.67 177.5,-58.67 174,-68.67 181,-68.67"/>
</g>
<!-- StartEvent\n_18 -->
<g id="node3" class="node">
<title>StartEvent\n_18</title>
<ellipse fill="lightgrey" stroke="black" cx="177.5" cy="-377.44" rx="27.9" ry="27.9"/>
<text text-anchor="middle" x="177.5" y="-373.74" font-family="Times New Roman,serif" font-size="14.00">Start</text>
</g>
<!-- Task_17fw5\nj1_Task_00\nem34n -->
<g id="node4" class="node">
<title>Task_17fw5\nj1_Task_00\nem34n</title>
<polygon fill="none" stroke="black" stroke-dasharray="5,2" points="35.5,-259.99 35.5,-312.99 319.5,-312.99 319.5,-259.99 35.5,-259.99"/>
<text text-anchor="middle" x="78.5" y="-297.79" font-family="Times New Roman,serif" font-size="14.00">Task_17fw5</text>
<text text-anchor="middle" x="78.5" y="-282.79" font-family="Times New Roman,serif" font-size="14.00">j1_Task_00</text>
<text text-anchor="middle" x="78.5" y="-267.79" font-family="Times New Roman,serif" font-size="14.00">em34n</text>
<polyline fill="none" stroke="black" stroke-dasharray="5,2" points="121.5,-259.99 121.5,-312.99 "/>
<text text-anchor="middle" x="162.5" y="-297.79" font-family="Times New Roman,serif" font-size="14.00">Passagier:</text>
<text text-anchor="middle" x="162.5" y="-282.79" font-family="Times New Roman,serif" font-size="14.00">Lane_0qcj7</text>
<text text-anchor="middle" x="162.5" y="-267.79" font-family="Times New Roman,serif" font-size="14.00">a4</text>
<polyline fill="none" stroke="black" stroke-dasharray="5,2" points="203.5,-259.99 203.5,-312.99 "/>
<text text-anchor="middle" x="261.5" y="-297.79" font-family="Times New Roman,serif" font-size="14.00">Passagier DO</text>
<text text-anchor="middle" x="261.5" y="-282.79" font-family="Times New Roman,serif" font-size="14.00"> Person_bewegen</text>
<text text-anchor="middle" x="261.5" y="-267.79" font-family="Times New Roman,serif" font-size="14.00">Person_bewegen</text>
</g>
<!-- StartEvent\n_18&#45;&gt;Task_17fw5\nj1_Task_00\nem34n -->
<g id="edge2" class="edge">
<title>StartEvent\n_18&#45;&gt;Task_17fw5\nj1_Task_00\nem34n</title>
<path fill="none" stroke="black" d="M177.5,-349.27C177.5,-341.14 177.5,-332.08 177.5,-323.47"/>
<polygon fill="black" stroke="black" points="181,-323.28 177.5,-313.28 174,-323.28 181,-323.28"/>
</g>
<!-- Task_17fw5\nj1_Task_00\nem34n&#45;&gt;Task_06n66\n1b_Task_1o\nrkpcx -->
<g id="edge3" class="edge">
<title>Task_17fw5\nj1_Task_00\nem34n&#45;&gt;Task_06n66\n1b_Task_1o\nrkpcx</title>
<path fill="none" stroke="black" d="M177.5,-259.8C177.5,-251.95 177.5,-242.9 177.5,-233.51"/>
<polygon fill="black" stroke="black" points="181,-233.25 177.5,-223.25 174,-233.25 181,-233.25"/>
</g>
</g>
</svg>
