<svg width="600px" height="972px"
 viewBox="0.00 0.00 491.77 797.39" xmlns="http://www.w3.org/2000/svg" xmlns:xlink="http://www.w3.org/1999/xlink">
<g id="graph0" class="graph" transform="scale(1.0 1.0) rotate(0) translate(4 793.39)">
<title>20_Passagierabfertigung_Hotel&#45;Check&#45;In</title>
<polygon fill="white" stroke="transparent" points="-4,4 -4,-793.39 487.77,-793.39 487.77,4 -4,4"/>
<!-- StartEvent\n_20 -->
<g id="node1" class="node">
<title>StartEvent\n_20</title>
<ellipse fill="lightgrey" stroke="black" cx="224.27" cy="-761.44" rx="27.9" ry="27.9"/>
<text text-anchor="middle" x="224.27" y="-757.74" font-family="Times New Roman,serif" font-size="14.00">Start</text>
</g>
<!-- Task_0os64\nne_Task_0o\ns64ne -->
<g id="node8" class="node">
<title>Task_0os64\nne_Task_0o\ns64ne</title>
<polygon fill="none" stroke="black" stroke-dasharray="5,2" points="82.77,-643.99 82.77,-696.99 365.77,-696.99 365.77,-643.99 82.77,-643.99"/>
<text text-anchor="middle" x="125.77" y="-681.79" font-family="Times New Roman,serif" font-size="14.00">Task_0os64</text>
<text text-anchor="middle" x="125.77" y="-666.79" font-family="Times New Roman,serif" font-size="14.00">ne_Task_0o</text>
<text text-anchor="middle" x="125.77" y="-651.79" font-family="Times New Roman,serif" font-size="14.00">s64ne</text>
<polyline fill="none" stroke="black" stroke-dasharray="5,2" points="168.77,-643.99 168.77,-696.99 "/>
<text text-anchor="middle" x="209.27" y="-681.79" font-family="Times New Roman,serif" font-size="14.00">Passagier:</text>
<text text-anchor="middle" x="209.27" y="-666.79" font-family="Times New Roman,serif" font-size="14.00">Lane_1feev</text>
<text text-anchor="middle" x="209.27" y="-651.79" font-family="Times New Roman,serif" font-size="14.00">ld</text>
<polyline fill="none" stroke="black" stroke-dasharray="5,2" points="249.77,-643.99 249.77,-696.99 "/>
<text text-anchor="middle" x="307.77" y="-674.29" font-family="Times New Roman,serif" font-size="14.00">Passagier DO</text>
<text text-anchor="middle" x="307.77" y="-659.29" font-family="Times New Roman,serif" font-size="14.00"> Person_bewegen</text>
</g>
<!-- StartEvent\n_20&#45;&gt;Task_0os64\nne_Task_0o\ns64ne -->
<g id="edge1" class="edge">
<title>StartEvent\n_20&#45;&gt;Task_0os64\nne_Task_0o\ns64ne</title>
<path fill="none" stroke="black" d="M224.27,-733.27C224.27,-725.14 224.27,-716.08 224.27,-707.47"/>
<polygon fill="black" stroke="black" points="227.77,-707.28 224.27,-697.28 220.77,-707.28 227.77,-707.28"/>
</g>
<!-- Task_00msa\nba -->
<g id="node2" class="node">
<title>Task_00msa\nba</title>
<polygon fill="lightgrey" stroke="black" points="176.77,-256.99 176.77,-324.99 483.77,-324.99 483.77,-256.99 176.77,-256.99"/>
<text text-anchor="middle" x="220.77" y="-294.79" font-family="Times New Roman,serif" font-size="14.00">Task_00msa</text>
<text text-anchor="middle" x="220.77" y="-279.79" font-family="Times New Roman,serif" font-size="14.00">ba</text>
<polyline fill="none" stroke="black" points="264.77,-256.99 264.77,-324.99 "/>
<text text-anchor="middle" x="304.77" y="-309.79" font-family="Times New Roman,serif" font-size="14.00">Hotel&#45;Chec</text>
<text text-anchor="middle" x="304.77" y="-294.79" font-family="Times New Roman,serif" font-size="14.00">k&#45;In&#45;Schal</text>
<text text-anchor="middle" x="304.77" y="-279.79" font-family="Times New Roman,serif" font-size="14.00">ter:Lane_1</text>
<text text-anchor="middle" x="304.77" y="-264.79" font-family="Times New Roman,serif" font-size="14.00">3al6zy</text>
<polyline fill="none" stroke="black" points="344.77,-256.99 344.77,-324.99 "/>
<text text-anchor="middle" x="414.27" y="-287.29" font-family="Times New Roman,serif" font-size="14.00">Dokument_bearbeiten</text>
</g>
<!-- ExclusiveG\nateway_0j2\nzelm -->
<g id="node6" class="node">
<title>ExclusiveG\nateway_0j2\nzelm</title>
<polygon fill="lightgrey" stroke="black" points="239.27,-220.49 22.43,-202.49 239.27,-184.49 456.12,-202.49 239.27,-220.49"/>
<text text-anchor="middle" x="239.27" y="-198.79" font-family="Times New Roman,serif" font-size="14.00">Nur_Handgepäck_vorhanden?_/_JOIN</text>
</g>
<!-- Task_00msa\nba&#45;&gt;ExclusiveG\nateway_0j2\nzelm -->
<g id="edge2" class="edge">
<title>Task_00msa\nba&#45;&gt;ExclusiveG\nateway_0j2\nzelm</title>
<path fill="none" stroke="black" d="M295.35,-256.8C284.75,-246.72 273.34,-235.88 263.6,-226.62"/>
<polygon fill="black" stroke="black" points="265.85,-223.93 256.19,-219.57 261.03,-229 265.85,-223.93"/>
</g>
<!-- EndEvent_0\n3w97vs -->
<g id="node3" class="node">
<title>EndEvent_0\n3w97vs</title>
<ellipse fill="lightgrey" stroke="black" cx="239.27" cy="-29.25" rx="29.5" ry="29.5"/>
<text text-anchor="middle" x="239.27" y="-25.55" font-family="Times New Roman,serif" font-size="14.00">Ende</text>
</g>
<!-- Task_0vjty\ntw_Task_0v\njtytw -->
<g id="node4" class="node">
<title>Task_0vjty\ntw_Task_0v\njtytw</title>
<polygon fill="none" stroke="black" stroke-dasharray="5,2" points="97.77,-94.99 97.77,-147.99 380.77,-147.99 380.77,-94.99 97.77,-94.99"/>
<text text-anchor="middle" x="140.77" y="-132.79" font-family="Times New Roman,serif" font-size="14.00">Task_0vjty</text>
<text text-anchor="middle" x="140.77" y="-117.79" font-family="Times New Roman,serif" font-size="14.00">tw_Task_0v</text>
<text text-anchor="middle" x="140.77" y="-102.79" font-family="Times New Roman,serif" font-size="14.00">jtytw</text>
<polyline fill="none" stroke="black" stroke-dasharray="5,2" points="183.77,-94.99 183.77,-147.99 "/>
<text text-anchor="middle" x="224.27" y="-132.79" font-family="Times New Roman,serif" font-size="14.00">Passagier:</text>
<text text-anchor="middle" x="224.27" y="-117.79" font-family="Times New Roman,serif" font-size="14.00">Lane_1feev</text>
<text text-anchor="middle" x="224.27" y="-102.79" font-family="Times New Roman,serif" font-size="14.00">ld</text>
<polyline fill="none" stroke="black" stroke-dasharray="5,2" points="264.77,-94.99 264.77,-147.99 "/>
<text text-anchor="middle" x="322.77" y="-125.29" font-family="Times New Roman,serif" font-size="14.00">Passagier DO</text>
<text text-anchor="middle" x="322.77" y="-110.29" font-family="Times New Roman,serif" font-size="14.00"> Person_bewegen</text>
</g>
<!-- Task_0vjty\ntw_Task_0v\njtytw&#45;&gt;EndEvent_0\n3w97vs -->
<g id="edge3" class="edge">
<title>Task_0vjty\ntw_Task_0v\njtytw&#45;&gt;EndEvent_0\n3w97vs</title>
<path fill="none" stroke="black" d="M239.27,-94.87C239.27,-86.78 239.27,-77.66 239.27,-68.87"/>
<polygon fill="black" stroke="black" points="242.77,-68.79 239.27,-58.79 235.77,-68.79 242.77,-68.79"/>
</g>
<!-- Task_07d38\n1f -->
<g id="node5" class="node">
<title>Task_07d38\n1f</title>
<polygon fill="lightgrey" stroke="black" points="185.27,-361.99 185.27,-429.99 457.27,-429.99 457.27,-361.99 185.27,-361.99"/>
<text text-anchor="middle" x="228.27" y="-399.79" font-family="Times New Roman,serif" font-size="14.00">Task_07d38</text>
<text text-anchor="middle" x="228.27" y="-384.79" font-family="Times New Roman,serif" font-size="14.00">1f</text>
<polyline fill="none" stroke="black" points="271.27,-361.99 271.27,-429.99 "/>
<text text-anchor="middle" x="311.27" y="-414.79" font-family="Times New Roman,serif" font-size="14.00">Hotel&#45;Chec</text>
<text text-anchor="middle" x="311.27" y="-399.79" font-family="Times New Roman,serif" font-size="14.00">k&#45;In&#45;Schal</text>
<text text-anchor="middle" x="311.27" y="-384.79" font-family="Times New Roman,serif" font-size="14.00">ter:Lane_1</text>
<text text-anchor="middle" x="311.27" y="-369.79" font-family="Times New Roman,serif" font-size="14.00">3al6zy</text>
<polyline fill="none" stroke="black" points="351.27,-361.99 351.27,-429.99 "/>
<text text-anchor="middle" x="404.27" y="-392.29" font-family="Times New Roman,serif" font-size="14.00">Sonstige_Tasks</text>
</g>
<!-- Task_07d38\n1f&#45;&gt;Task_00msa\nba -->
<g id="edge4" class="edge">
<title>Task_07d38\n1f&#45;&gt;Task_00msa\nba</title>
<path fill="none" stroke="black" d="M324.17,-361.84C324.91,-353.38 325.72,-344.17 326.49,-335.29"/>
<polygon fill="black" stroke="black" points="330,-335.36 327.38,-325.09 323.03,-334.75 330,-335.36"/>
</g>
<!-- ExclusiveG\nateway_0j2\nzelm&#45;&gt;Task_0vjty\ntw_Task_0v\njtytw -->
<g id="edge5" class="edge">
<title>ExclusiveG\nateway_0j2\nzelm&#45;&gt;Task_0vjty\ntw_Task_0v\njtytw</title>
<path fill="none" stroke="black" d="M239.27,-184.35C239.27,-176.64 239.27,-167.23 239.27,-158.09"/>
<polygon fill="black" stroke="black" points="242.77,-158.01 239.27,-148.01 235.77,-158.01 242.77,-158.01"/>
</g>
<!-- ExclusiveG\nateway_18o\noe5c -->
<g id="node7" class="node">
<title>ExclusiveG\nateway_18o\noe5c</title>
<polygon fill="lightgrey" stroke="black" points="224.27,-607.49 0.23,-589.49 224.27,-571.49 448.32,-589.49 224.27,-607.49"/>
<text text-anchor="middle" x="224.27" y="-585.79" font-family="Times New Roman,serif" font-size="14.00">Nur_Handgepäck_vorhanden?_/_SPLIT</text>
</g>
<!-- ExclusiveG\nateway_18o\noe5c&#45;&gt;ExclusiveG\nateway_0j2\nzelm -->
<g id="edge7" class="edge">
<title>ExclusiveG\nateway_18o\noe5c&#45;&gt;ExclusiveG\nateway_0j2\nzelm</title>
<path fill="none" stroke="black" d="M202.82,-573.17C191.49,-563.74 178.65,-550.57 172.27,-535.49 124,-421.26 111.32,-367.17 167.27,-256.49 174.22,-242.76 186.58,-231.72 199.12,-223.34"/>
<polygon fill="black" stroke="black" points="201.12,-226.22 207.77,-217.97 197.43,-220.27 201.12,-226.22"/>
</g>
<!-- Task_1rgoi\ntk -->
<g id="node9" class="node">
<title>Task_1rgoi\ntk</title>
<polygon fill="lightgrey" stroke="black" points="181.77,-466.99 181.77,-534.99 430.77,-534.99 430.77,-466.99 181.77,-466.99"/>
<text text-anchor="middle" x="221.77" y="-504.79" font-family="Times New Roman,serif" font-size="14.00">Task_1rgoi</text>
<text text-anchor="middle" x="221.77" y="-489.79" font-family="Times New Roman,serif" font-size="14.00">tk</text>
<polyline fill="none" stroke="black" points="261.77,-466.99 261.77,-534.99 "/>
<text text-anchor="middle" x="301.77" y="-519.79" font-family="Times New Roman,serif" font-size="14.00">Hotel&#45;Chec</text>
<text text-anchor="middle" x="301.77" y="-504.79" font-family="Times New Roman,serif" font-size="14.00">k&#45;In&#45;Schal</text>
<text text-anchor="middle" x="301.77" y="-489.79" font-family="Times New Roman,serif" font-size="14.00">ter:Lane_1</text>
<text text-anchor="middle" x="301.77" y="-474.79" font-family="Times New Roman,serif" font-size="14.00">3al6zy</text>
<polyline fill="none" stroke="black" points="341.77,-466.99 341.77,-534.99 "/>
<text text-anchor="middle" x="386.27" y="-497.29" font-family="Times New Roman,serif" font-size="14.00">Kontrollieren</text>
</g>
<!-- ExclusiveG\nateway_18o\noe5c&#45;&gt;Task_1rgoi\ntk -->
<g id="edge6" class="edge">
<title>ExclusiveG\nateway_18o\noe5c&#45;&gt;Task_1rgoi\ntk</title>
<path fill="none" stroke="black" d="M239.31,-572.63C247.35,-564.15 257.66,-553.28 267.75,-542.63"/>
<polygon fill="black" stroke="black" points="270.34,-544.98 274.68,-535.32 265.26,-540.17 270.34,-544.98"/>
</g>
<!-- Task_0os64\nne_Task_0o\ns64ne&#45;&gt;ExclusiveG\nateway_18o\noe5c -->
<g id="edge8" class="edge">
<title>Task_0os64\nne_Task_0o\ns64ne&#45;&gt;ExclusiveG\nateway_18o\noe5c</title>
<path fill="none" stroke="black" d="M224.27,-643.63C224.27,-635.4 224.27,-626.28 224.27,-617.94"/>
<polygon fill="black" stroke="black" points="227.77,-617.94 224.27,-607.94 220.77,-617.94 227.77,-617.94"/>
</g>
<!-- Task_1rgoi\ntk&#45;&gt;Task_07d38\n1f -->
<g id="edge9" class="edge">
<title>Task_1rgoi\ntk&#45;&gt;Task_07d38\n1f</title>
<path fill="none" stroke="black" d="M311.1,-466.84C312.35,-458.29 313.7,-448.97 315.01,-440"/>
<polygon fill="black" stroke="black" points="318.48,-440.49 316.45,-430.09 311.55,-439.48 318.48,-440.49"/>
</g>
</g>
</svg>
