<svg width="600px" height="680px"
 viewBox="0.00 0.00 391.00 443.39" xmlns="http://www.w3.org/2000/svg" xmlns:xlink="http://www.w3.org/1999/xlink">
<g id="graph0" class="graph" transform="scale(1.0 1.0) rotate(0) translate(4 439.39)">
<title>22_Passagierabfertigung_Mietwagen_Check&#45;In</title>
<polygon fill="white" stroke="transparent" points="-4,4 -4,-439.39 387,-439.39 387,4 -4,4"/>
<!-- Task_1bfgx\n4k_Task_18\nt4qxp -->
<g id="node1" class="node">
<title>Task_1bfgx\n4k_Task_18\nt4qxp</title>
<polygon fill="none" stroke="black" stroke-dasharray="5,2" points="47.5,-289.99 47.5,-342.99 335.5,-342.99 335.5,-289.99 47.5,-289.99"/>
<text text-anchor="middle" x="90.5" y="-327.79" font-family="Times New Roman,serif" font-size="14.00">Task_1bfgx</text>
<text text-anchor="middle" x="90.5" y="-312.79" font-family="Times New Roman,serif" font-size="14.00">4k_Task_18</text>
<text text-anchor="middle" x="90.5" y="-297.79" font-family="Times New Roman,serif" font-size="14.00">t4qxp</text>
<polyline fill="none" stroke="black" stroke-dasharray="5,2" points="133.5,-289.99 133.5,-342.99 "/>
<text text-anchor="middle" x="176.5" y="-327.79" font-family="Times New Roman,serif" font-size="14.00">Passagier:</text>
<text text-anchor="middle" x="176.5" y="-312.79" font-family="Times New Roman,serif" font-size="14.00">Lane_13qn0</text>
<text text-anchor="middle" x="176.5" y="-297.79" font-family="Times New Roman,serif" font-size="14.00">fi</text>
<polyline fill="none" stroke="black" stroke-dasharray="5,2" points="219.5,-289.99 219.5,-342.99 "/>
<text text-anchor="middle" x="277.5" y="-327.79" font-family="Times New Roman,serif" font-size="14.00">Passagier DO</text>
<text text-anchor="middle" x="277.5" y="-312.79" font-family="Times New Roman,serif" font-size="14.00"> Person_bewegen</text>
<text text-anchor="middle" x="277.5" y="-297.79" font-family="Times New Roman,serif" font-size="14.00">Sonstige_Tasks</text>
</g>
<!-- Task_0br80\ny4_Task_12\nvdl2u -->
<g id="node2" class="node">
<title>Task_0br80\ny4_Task_12\nvdl2u</title>
<polygon fill="none" stroke="black" stroke-dasharray="5,2" points="0,-184.99 0,-252.99 383,-252.99 383,-184.99 0,-184.99"/>
<text text-anchor="middle" x="43" y="-230.29" font-family="Times New Roman,serif" font-size="14.00">Task_0br80</text>
<text text-anchor="middle" x="43" y="-215.29" font-family="Times New Roman,serif" font-size="14.00">y4_Task_12</text>
<text text-anchor="middle" x="43" y="-200.29" font-family="Times New Roman,serif" font-size="14.00">vdl2u</text>
<polyline fill="none" stroke="black" stroke-dasharray="5,2" points="86,-184.99 86,-252.99 "/>
<text text-anchor="middle" x="129" y="-237.79" font-family="Times New Roman,serif" font-size="14.00">Mietwagen&#45;</text>
<text text-anchor="middle" x="129" y="-222.79" font-family="Times New Roman,serif" font-size="14.00">Rückgabe&#45;S</text>
<text text-anchor="middle" x="129" y="-207.79" font-family="Times New Roman,serif" font-size="14.00">chalter:La</text>
<text text-anchor="middle" x="129" y="-192.79" font-family="Times New Roman,serif" font-size="14.00">ne_0nej8n1</text>
<polyline fill="none" stroke="black" stroke-dasharray="5,2" points="172,-184.99 172,-252.99 "/>
<text text-anchor="middle" x="277.5" y="-237.79" font-family="Times New Roman,serif" font-size="14.00">Mietwagen&#45;Rückgabe&#45;Schalter DO</text>
<text text-anchor="middle" x="277.5" y="-222.79" font-family="Times New Roman,serif" font-size="14.00"> Kontrollieren</text>
<text text-anchor="middle" x="277.5" y="-207.79" font-family="Times New Roman,serif" font-size="14.00">Sonstige_Tasks</text>
<text text-anchor="middle" x="277.5" y="-192.79" font-family="Times New Roman,serif" font-size="14.00">Dokument_bearbeiten</text>
</g>
<!-- Task_1bfgx\n4k_Task_18\nt4qxp&#45;&gt;Task_0br80\ny4_Task_12\nvdl2u -->
<g id="edge1" class="edge">
<title>Task_1bfgx\n4k_Task_18\nt4qxp&#45;&gt;Task_0br80\ny4_Task_12\nvdl2u</title>
<path fill="none" stroke="black" d="M191.5,-289.9C191.5,-281.71 191.5,-272.41 191.5,-263.32"/>
<polygon fill="black" stroke="black" points="195,-263.22 191.5,-253.22 188,-263.22 195,-263.22"/>
</g>
<!-- Task_144sf\nfe_Task_14\n4sffe -->
<g id="node3" class="node">
<title>Task_144sf\nfe_Task_14\n4sffe</title>
<polygon fill="none" stroke="black" stroke-dasharray="5,2" points="49,-94.99 49,-147.99 334,-147.99 334,-94.99 49,-94.99"/>
<text text-anchor="middle" x="90.5" y="-132.79" font-family="Times New Roman,serif" font-size="14.00">Task_144sf</text>
<text text-anchor="middle" x="90.5" y="-117.79" font-family="Times New Roman,serif" font-size="14.00">fe_Task_14</text>
<text text-anchor="middle" x="90.5" y="-102.79" font-family="Times New Roman,serif" font-size="14.00">4sffe</text>
<polyline fill="none" stroke="black" stroke-dasharray="5,2" points="132,-94.99 132,-147.99 "/>
<text text-anchor="middle" x="175" y="-132.79" font-family="Times New Roman,serif" font-size="14.00">Passagier:</text>
<text text-anchor="middle" x="175" y="-117.79" font-family="Times New Roman,serif" font-size="14.00">Lane_13qn0</text>
<text text-anchor="middle" x="175" y="-102.79" font-family="Times New Roman,serif" font-size="14.00">fi</text>
<polyline fill="none" stroke="black" stroke-dasharray="5,2" points="218,-94.99 218,-147.99 "/>
<text text-anchor="middle" x="276" y="-125.29" font-family="Times New Roman,serif" font-size="14.00">Passagier DO</text>
<text text-anchor="middle" x="276" y="-110.29" font-family="Times New Roman,serif" font-size="14.00"> Person_bewegen</text>
</g>
<!-- Task_0br80\ny4_Task_12\nvdl2u&#45;&gt;Task_144sf\nfe_Task_14\n4sffe -->
<g id="edge2" class="edge">
<title>Task_0br80\ny4_Task_12\nvdl2u&#45;&gt;Task_144sf\nfe_Task_14\n4sffe</title>
<path fill="none" stroke="black" d="M191.5,-184.86C191.5,-176.28 191.5,-167.01 191.5,-158.3"/>
<polygon fill="black" stroke="black" points="195,-158.04 191.5,-148.04 188,-158.04 195,-158.04"/>
</g>
<!-- EndEvent_0\npjexo5 -->
<g id="node4" class="node">
<title>EndEvent_0\npjexo5</title>
<ellipse fill="lightgrey" stroke="black" cx="191.5" cy="-29.25" rx="29.5" ry="29.5"/>
<text text-anchor="middle" x="191.5" y="-25.55" font-family="Times New Roman,serif" font-size="14.00">Ende</text>
</g>
<!-- Task_144sf\nfe_Task_14\n4sffe&#45;&gt;EndEvent_0\npjexo5 -->
<g id="edge3" class="edge">
<title>Task_144sf\nfe_Task_14\n4sffe&#45;&gt;EndEvent_0\npjexo5</title>
<path fill="none" stroke="black" d="M191.5,-94.87C191.5,-86.78 191.5,-77.66 191.5,-68.87"/>
<polygon fill="black" stroke="black" points="195,-68.79 191.5,-58.79 188,-68.79 195,-68.79"/>
</g>
<!-- StartEvent\n_22 -->
<g id="node5" class="node">
<title>StartEvent\n_22</title>
<ellipse fill="lightgrey" stroke="black" cx="191.5" cy="-407.44" rx="27.9" ry="27.9"/>
<text text-anchor="middle" x="191.5" y="-403.74" font-family="Times New Roman,serif" font-size="14.00">Start</text>
</g>
<!-- StartEvent\n_22&#45;&gt;Task_1bfgx\n4k_Task_18\nt4qxp -->
<g id="edge4" class="edge">
<title>StartEvent\n_22&#45;&gt;Task_1bfgx\n4k_Task_18\nt4qxp</title>
<path fill="none" stroke="black" d="M191.5,-379.27C191.5,-371.14 191.5,-362.08 191.5,-353.47"/>
<polygon fill="black" stroke="black" points="195,-353.28 191.5,-343.28 188,-353.28 195,-353.28"/>
</g>
</g>
</svg>
