<svg width="1499px" height="1000px"
 viewBox="0.00 0.00 745.16 497.39" xmlns="http://www.w3.org/2000/svg" xmlns:xlink="http://www.w3.org/1999/xlink">
<g id="graph0" class="graph" transform="scale(1.0 1.0) rotate(0) translate(4 493.39)">
<title>19_Passagierabfertigung_Gruppen&#45;Check&#45;In</title>
<polygon fill="white" stroke="transparent" points="-4,4 -4,-493.39 741.16,-493.39 741.16,4 -4,4"/>
<!-- ExclusiveG\nateway_1iy\nx6qg -->
<g id="node1" class="node">
<title>ExclusiveG\nateway_1iy\nx6qg</title>
<polygon fill="lightgrey" stroke="black" points="368.58,-130.49 7.12,-112.49 368.58,-94.49 730.04,-112.49 368.58,-130.49"/>
<text text-anchor="middle" x="368.58" y="-108.79" font-family="Times New Roman,serif" font-size="14.00">Passagier&#45;Mindestanzahl_für_Gruppen&#45;Check&#45;In_erreicht?_/_JOIN</text>
</g>
<!-- EndEvent_0\nyke6pn -->
<g id="node2" class="node">
<title>EndEvent_0\nyke6pn</title>
<ellipse fill="lightgrey" stroke="black" cx="368.58" cy="-29.25" rx="29.5" ry="29.5"/>
<text text-anchor="middle" x="368.58" y="-25.55" font-family="Times New Roman,serif" font-size="14.00">Ende</text>
</g>
<!-- ExclusiveG\nateway_1iy\nx6qg&#45;&gt;EndEvent_0\nyke6pn -->
<g id="edge1" class="edge">
<title>ExclusiveG\nateway_1iy\nx6qg&#45;&gt;EndEvent_0\nyke6pn</title>
<path fill="none" stroke="black" d="M368.58,-94.26C368.58,-86.83 368.58,-77.81 368.58,-68.92"/>
<polygon fill="black" stroke="black" points="372.08,-68.64 368.58,-58.64 365.08,-68.64 372.08,-68.64"/>
</g>
<!-- StartEvent\n_19 -->
<g id="node3" class="node">
<title>StartEvent\n_19</title>
<ellipse fill="lightgrey" stroke="black" cx="368.58" cy="-461.44" rx="27.9" ry="27.9"/>
<text text-anchor="middle" x="368.58" y="-457.74" font-family="Times New Roman,serif" font-size="14.00">Start</text>
</g>
<!-- Task_08o4s\ni0 -->
<g id="node6" class="node">
<title>Task_08o4s\ni0</title>
<polygon fill="lightgrey" stroke="black" points="230.08,-343.99 230.08,-396.99 507.08,-396.99 507.08,-343.99 230.08,-343.99"/>
<text text-anchor="middle" x="273.08" y="-374.29" font-family="Times New Roman,serif" font-size="14.00">Task_08o4s</text>
<text text-anchor="middle" x="273.08" y="-359.29" font-family="Times New Roman,serif" font-size="14.00">i0</text>
<polyline fill="none" stroke="black" points="316.08,-343.99 316.08,-396.99 "/>
<text text-anchor="middle" x="355.58" y="-381.79" font-family="Times New Roman,serif" font-size="14.00">Passagierg</text>
<text text-anchor="middle" x="355.58" y="-366.79" font-family="Times New Roman,serif" font-size="14.00">ruppe:Lane</text>
<text text-anchor="middle" x="355.58" y="-351.79" font-family="Times New Roman,serif" font-size="14.00">_15ybdtg</text>
<polyline fill="none" stroke="black" points="395.08,-343.99 395.08,-396.99 "/>
<text text-anchor="middle" x="451.08" y="-366.79" font-family="Times New Roman,serif" font-size="14.00">Person_bewegen</text>
</g>
<!-- StartEvent\n_19&#45;&gt;Task_08o4s\ni0 -->
<g id="edge2" class="edge">
<title>StartEvent\n_19&#45;&gt;Task_08o4s\ni0</title>
<path fill="none" stroke="black" d="M368.58,-433.27C368.58,-425.14 368.58,-416.08 368.58,-407.47"/>
<polygon fill="black" stroke="black" points="372.08,-407.28 368.58,-397.28 365.08,-407.28 372.08,-407.28"/>
</g>
<!-- ExclusiveG\nateway_0tk\nlcuw -->
<g id="node4" class="node">
<title>ExclusiveG\nateway_0tk\nlcuw</title>
<polygon fill="lightgrey" stroke="black" points="368.58,-307.49 -0.08,-289.49 368.58,-271.49 737.25,-289.49 368.58,-307.49"/>
<text text-anchor="middle" x="368.58" y="-285.79" font-family="Times New Roman,serif" font-size="14.00">Passagier&#45;Mindestanzahl_für_Gruppen&#45;Check&#45;In_erreicht?_/_SPLIT</text>
</g>
<!-- Task_1w37v\n9u -->
<g id="node5" class="node">
<title>Task_1w37v\n9u</title>
<polygon fill="lightgrey" stroke="black" points="15.58,-174.49 15.58,-227.49 361.58,-227.49 361.58,-174.49 15.58,-174.49"/>
<text text-anchor="middle" x="60.08" y="-204.79" font-family="Times New Roman,serif" font-size="14.00">Task_1w37v</text>
<text text-anchor="middle" x="60.08" y="-189.79" font-family="Times New Roman,serif" font-size="14.00">9u</text>
<polyline fill="none" stroke="black" points="104.58,-174.49 104.58,-227.49 "/>
<text text-anchor="middle" x="148.08" y="-212.29" font-family="Times New Roman,serif" font-size="14.00">Check&#45;In&#45;S</text>
<text text-anchor="middle" x="148.08" y="-197.29" font-family="Times New Roman,serif" font-size="14.00">chalter:La</text>
<text text-anchor="middle" x="148.08" y="-182.29" font-family="Times New Roman,serif" font-size="14.00">ne_031am9n</text>
<polyline fill="none" stroke="black" points="191.58,-174.49 191.58,-227.49 "/>
<text text-anchor="middle" x="276.58" y="-197.29" font-family="Times New Roman,serif" font-size="14.00">Flughafenbereich_erreichen</text>
</g>
<!-- ExclusiveG\nateway_0tk\nlcuw&#45;&gt;Task_1w37v\n9u -->
<g id="edge4" class="edge">
<title>ExclusiveG\nateway_0tk\nlcuw&#45;&gt;Task_1w37v\n9u</title>
<path fill="none" stroke="black" d="M336.4,-273.03C312.68,-261.63 279.66,-245.76 250.84,-231.91"/>
<polygon fill="black" stroke="black" points="252.18,-228.67 241.65,-227.5 249.15,-234.98 252.18,-228.67"/>
</g>
<!-- Task_1tnxo\nd8 -->
<g id="node7" class="node">
<title>Task_1tnxo\nd8</title>
<polygon fill="lightgrey" stroke="black" points="379.58,-166.99 379.58,-234.99 719.58,-234.99 719.58,-166.99 379.58,-166.99"/>
<text text-anchor="middle" x="421.08" y="-204.79" font-family="Times New Roman,serif" font-size="14.00">Task_1tnxo</text>
<text text-anchor="middle" x="421.08" y="-189.79" font-family="Times New Roman,serif" font-size="14.00">d8</text>
<polyline fill="none" stroke="black" points="462.58,-166.99 462.58,-234.99 "/>
<text text-anchor="middle" x="506.08" y="-219.79" font-family="Times New Roman,serif" font-size="14.00">Gruppen&#45;Ch</text>
<text text-anchor="middle" x="506.08" y="-204.79" font-family="Times New Roman,serif" font-size="14.00">eck&#45;In&#45;Sch</text>
<text text-anchor="middle" x="506.08" y="-189.79" font-family="Times New Roman,serif" font-size="14.00">alter:Lane</text>
<text text-anchor="middle" x="506.08" y="-174.79" font-family="Times New Roman,serif" font-size="14.00">_1cvaw0v</text>
<polyline fill="none" stroke="black" points="549.58,-166.99 549.58,-234.99 "/>
<text text-anchor="middle" x="634.58" y="-197.29" font-family="Times New Roman,serif" font-size="14.00">Flughafenbereich_erreichen</text>
</g>
<!-- ExclusiveG\nateway_0tk\nlcuw&#45;&gt;Task_1tnxo\nd8 -->
<g id="edge3" class="edge">
<title>ExclusiveG\nateway_0tk\nlcuw&#45;&gt;Task_1tnxo\nd8</title>
<path fill="none" stroke="black" d="M400.94,-273.03C420.59,-263.64 446.59,-251.22 471.34,-239.39"/>
<polygon fill="black" stroke="black" points="472.87,-242.53 480.39,-235.06 469.85,-236.22 472.87,-242.53"/>
</g>
<!-- Task_1w37v\n9u&#45;&gt;ExclusiveG\nateway_1iy\nx6qg -->
<g id="edge5" class="edge">
<title>Task_1w37v\n9u&#45;&gt;ExclusiveG\nateway_1iy\nx6qg</title>
<path fill="none" stroke="black" d="M242.1,-174.28C269.3,-161.21 301.85,-145.56 327.12,-133.42"/>
<polygon fill="black" stroke="black" points="328.92,-136.44 336.42,-128.95 325.89,-130.13 328.92,-136.44"/>
</g>
<!-- Task_08o4s\ni0&#45;&gt;ExclusiveG\nateway_0tk\nlcuw -->
<g id="edge6" class="edge">
<title>Task_08o4s\ni0&#45;&gt;ExclusiveG\nateway_0tk\nlcuw</title>
<path fill="none" stroke="black" d="M368.58,-343.63C368.58,-335.4 368.58,-326.28 368.58,-317.94"/>
<polygon fill="black" stroke="black" points="372.08,-317.94 368.58,-307.94 365.08,-317.94 372.08,-317.94"/>
</g>
<!-- Task_1tnxo\nd8&#45;&gt;ExclusiveG\nateway_1iy\nx6qg -->
<g id="edge7" class="edge">
<title>Task_1tnxo\nd8&#45;&gt;ExclusiveG\nateway_1iy\nx6qg</title>
<path fill="none" stroke="black" d="M480.38,-166.92C456.67,-155.59 430.88,-143.27 410.06,-133.32"/>
<polygon fill="black" stroke="black" points="411.4,-130.08 400.87,-128.92 408.38,-136.39 411.4,-130.08"/>
</g>
</g>
</svg>
