<svg width="425px" height="1000px"
 viewBox="0.00 0.00 316.00 743.39" xmlns="http://www.w3.org/2000/svg" xmlns:xlink="http://www.w3.org/1999/xlink">
<g id="graph0" class="graph" transform="scale(1.0 1.0) rotate(0) translate(4 739.39)">
<title>22_Passagierabfertigung_Mietwagen_Check&#45;In</title>
<polygon fill="white" stroke="transparent" points="-4,4 -4,-739.39 312,-739.39 312,4 -4,4"/>
<!-- Task_1bfgx\n4k -->
<g id="node1" class="node">
<title>Task_1bfgx\n4k</title>
<polygon fill="lightgrey" stroke="black" points="13,-589.99 13,-642.99 295,-642.99 295,-589.99 13,-589.99"/>
<text text-anchor="middle" x="55" y="-620.29" font-family="Times New Roman,serif" font-size="14.00">Task_1bfgx</text>
<text text-anchor="middle" x="55" y="-605.29" font-family="Times New Roman,serif" font-size="14.00">4k</text>
<polyline fill="none" stroke="black" points="97,-589.99 97,-642.99 "/>
<text text-anchor="middle" x="140" y="-627.79" font-family="Times New Roman,serif" font-size="14.00">Passagier:</text>
<text text-anchor="middle" x="140" y="-612.79" font-family="Times New Roman,serif" font-size="14.00">Lane_13qn0</text>
<text text-anchor="middle" x="140" y="-597.79" font-family="Times New Roman,serif" font-size="14.00">fi</text>
<polyline fill="none" stroke="black" points="183,-589.99 183,-642.99 "/>
<text text-anchor="middle" x="239" y="-612.79" font-family="Times New Roman,serif" font-size="14.00">Person_bewegen</text>
</g>
<!-- Task_18t4q\nxp -->
<g id="node8" class="node">
<title>Task_18t4q\nxp</title>
<polygon fill="lightgrey" stroke="black" points="16.5,-499.99 16.5,-552.99 291.5,-552.99 291.5,-499.99 16.5,-499.99"/>
<text text-anchor="middle" x="58" y="-530.29" font-family="Times New Roman,serif" font-size="14.00">Task_18t4q</text>
<text text-anchor="middle" x="58" y="-515.29" font-family="Times New Roman,serif" font-size="14.00">xp</text>
<polyline fill="none" stroke="black" points="99.5,-499.99 99.5,-552.99 "/>
<text text-anchor="middle" x="142.5" y="-537.79" font-family="Times New Roman,serif" font-size="14.00">Passagier:</text>
<text text-anchor="middle" x="142.5" y="-522.79" font-family="Times New Roman,serif" font-size="14.00">Lane_13qn0</text>
<text text-anchor="middle" x="142.5" y="-507.79" font-family="Times New Roman,serif" font-size="14.00">fi</text>
<polyline fill="none" stroke="black" points="185.5,-499.99 185.5,-552.99 "/>
<text text-anchor="middle" x="238.5" y="-522.79" font-family="Times New Roman,serif" font-size="14.00">Sonstige_Tasks</text>
</g>
<!-- Task_1bfgx\n4k&#45;&gt;Task_18t4q\nxp -->
<g id="edge1" class="edge">
<title>Task_1bfgx\n4k&#45;&gt;Task_18t4q\nxp</title>
<path fill="none" stroke="black" d="M154,-589.57C154,-581.33 154,-572.07 154,-563.27"/>
<polygon fill="black" stroke="black" points="157.5,-563.24 154,-553.24 150.5,-563.24 157.5,-563.24"/>
</g>
<!-- Task_144sf\nfe -->
<g id="node2" class="node">
<title>Task_144sf\nfe</title>
<polygon fill="lightgrey" stroke="black" points="13.5,-94.99 13.5,-147.99 294.5,-147.99 294.5,-94.99 13.5,-94.99"/>
<text text-anchor="middle" x="55" y="-125.29" font-family="Times New Roman,serif" font-size="14.00">Task_144sf</text>
<text text-anchor="middle" x="55" y="-110.29" font-family="Times New Roman,serif" font-size="14.00">fe</text>
<polyline fill="none" stroke="black" points="96.5,-94.99 96.5,-147.99 "/>
<text text-anchor="middle" x="139.5" y="-132.79" font-family="Times New Roman,serif" font-size="14.00">Passagier:</text>
<text text-anchor="middle" x="139.5" y="-117.79" font-family="Times New Roman,serif" font-size="14.00">Lane_13qn0</text>
<text text-anchor="middle" x="139.5" y="-102.79" font-family="Times New Roman,serif" font-size="14.00">fi</text>
<polyline fill="none" stroke="black" points="182.5,-94.99 182.5,-147.99 "/>
<text text-anchor="middle" x="238.5" y="-117.79" font-family="Times New Roman,serif" font-size="14.00">Person_bewegen</text>
</g>
<!-- EndEvent_0\npjexo5 -->
<g id="node4" class="node">
<title>EndEvent_0\npjexo5</title>
<ellipse fill="lightgrey" stroke="black" cx="154" cy="-29.25" rx="29.5" ry="29.5"/>
<text text-anchor="middle" x="154" y="-25.55" font-family="Times New Roman,serif" font-size="14.00">Ende</text>
</g>
<!-- Task_144sf\nfe&#45;&gt;EndEvent_0\npjexo5 -->
<g id="edge2" class="edge">
<title>Task_144sf\nfe&#45;&gt;EndEvent_0\npjexo5</title>
<path fill="none" stroke="black" d="M154,-94.87C154,-86.78 154,-77.66 154,-68.87"/>
<polygon fill="black" stroke="black" points="157.5,-68.79 154,-58.79 150.5,-68.79 157.5,-68.79"/>
</g>
<!-- Task_0br80\ny4 -->
<g id="node3" class="node">
<title>Task_0br80\ny4</title>
<polygon fill="lightgrey" stroke="black" points="24.5,-394.99 24.5,-462.99 283.5,-462.99 283.5,-394.99 24.5,-394.99"/>
<text text-anchor="middle" x="66.5" y="-432.79" font-family="Times New Roman,serif" font-size="14.00">Task_0br80</text>
<text text-anchor="middle" x="66.5" y="-417.79" font-family="Times New Roman,serif" font-size="14.00">y4</text>
<polyline fill="none" stroke="black" points="108.5,-394.99 108.5,-462.99 "/>
<text text-anchor="middle" x="151.5" y="-447.79" font-family="Times New Roman,serif" font-size="14.00">Mietwagen&#45;</text>
<text text-anchor="middle" x="151.5" y="-432.79" font-family="Times New Roman,serif" font-size="14.00">Rückgabe&#45;S</text>
<text text-anchor="middle" x="151.5" y="-417.79" font-family="Times New Roman,serif" font-size="14.00">chalter:La</text>
<text text-anchor="middle" x="151.5" y="-402.79" font-family="Times New Roman,serif" font-size="14.00">ne_0nej8n1</text>
<polyline fill="none" stroke="black" points="194.5,-394.99 194.5,-462.99 "/>
<text text-anchor="middle" x="239" y="-425.29" font-family="Times New Roman,serif" font-size="14.00">Kontrollieren</text>
</g>
<!-- Task_155lw\noc -->
<g id="node6" class="node">
<title>Task_155lw\noc</title>
<polygon fill="lightgrey" stroke="black" points="15.5,-289.99 15.5,-357.99 292.5,-357.99 292.5,-289.99 15.5,-289.99"/>
<text text-anchor="middle" x="58" y="-327.79" font-family="Times New Roman,serif" font-size="14.00">Task_155lw</text>
<text text-anchor="middle" x="58" y="-312.79" font-family="Times New Roman,serif" font-size="14.00">oc</text>
<polyline fill="none" stroke="black" points="100.5,-289.99 100.5,-357.99 "/>
<text text-anchor="middle" x="143.5" y="-342.79" font-family="Times New Roman,serif" font-size="14.00">Mietwagen&#45;</text>
<text text-anchor="middle" x="143.5" y="-327.79" font-family="Times New Roman,serif" font-size="14.00">Rückgabe&#45;S</text>
<text text-anchor="middle" x="143.5" y="-312.79" font-family="Times New Roman,serif" font-size="14.00">chalter:La</text>
<text text-anchor="middle" x="143.5" y="-297.79" font-family="Times New Roman,serif" font-size="14.00">ne_0nej8n1</text>
<polyline fill="none" stroke="black" points="186.5,-289.99 186.5,-357.99 "/>
<text text-anchor="middle" x="239.5" y="-320.29" font-family="Times New Roman,serif" font-size="14.00">Sonstige_Tasks</text>
</g>
<!-- Task_0br80\ny4&#45;&gt;Task_155lw\noc -->
<g id="edge3" class="edge">
<title>Task_0br80\ny4&#45;&gt;Task_155lw\noc</title>
<path fill="none" stroke="black" d="M154,-394.84C154,-386.38 154,-377.17 154,-368.29"/>
<polygon fill="black" stroke="black" points="157.5,-368.09 154,-358.09 150.5,-368.09 157.5,-368.09"/>
</g>
<!-- Task_12vdl\n2u -->
<g id="node5" class="node">
<title>Task_12vdl\n2u</title>
<polygon fill="lightgrey" stroke="black" points="0,-184.99 0,-252.99 308,-252.99 308,-184.99 0,-184.99"/>
<text text-anchor="middle" x="41.5" y="-222.79" font-family="Times New Roman,serif" font-size="14.00">Task_12vdl</text>
<text text-anchor="middle" x="41.5" y="-207.79" font-family="Times New Roman,serif" font-size="14.00">2u</text>
<polyline fill="none" stroke="black" points="83,-184.99 83,-252.99 "/>
<text text-anchor="middle" x="126" y="-237.79" font-family="Times New Roman,serif" font-size="14.00">Mietwagen&#45;</text>
<text text-anchor="middle" x="126" y="-222.79" font-family="Times New Roman,serif" font-size="14.00">Rückgabe&#45;S</text>
<text text-anchor="middle" x="126" y="-207.79" font-family="Times New Roman,serif" font-size="14.00">chalter:La</text>
<text text-anchor="middle" x="126" y="-192.79" font-family="Times New Roman,serif" font-size="14.00">ne_0nej8n1</text>
<polyline fill="none" stroke="black" points="169,-184.99 169,-252.99 "/>
<text text-anchor="middle" x="238.5" y="-215.29" font-family="Times New Roman,serif" font-size="14.00">Dokument_bearbeiten</text>
</g>
<!-- Task_12vdl\n2u&#45;&gt;Task_144sf\nfe -->
<g id="edge4" class="edge">
<title>Task_12vdl\n2u&#45;&gt;Task_144sf\nfe</title>
<path fill="none" stroke="black" d="M154,-184.86C154,-176.28 154,-167.01 154,-158.3"/>
<polygon fill="black" stroke="black" points="157.5,-158.04 154,-148.04 150.5,-158.04 157.5,-158.04"/>
</g>
<!-- Task_155lw\noc&#45;&gt;Task_12vdl\n2u -->
<g id="edge5" class="edge">
<title>Task_155lw\noc&#45;&gt;Task_12vdl\n2u</title>
<path fill="none" stroke="black" d="M154,-289.84C154,-281.38 154,-272.17 154,-263.29"/>
<polygon fill="black" stroke="black" points="157.5,-263.09 154,-253.09 150.5,-263.09 157.5,-263.09"/>
</g>
<!-- StartEvent\n_22 -->
<g id="node7" class="node">
<title>StartEvent\n_22</title>
<ellipse fill="lightgrey" stroke="black" cx="154" cy="-707.44" rx="27.9" ry="27.9"/>
<text text-anchor="middle" x="154" y="-703.74" font-family="Times New Roman,serif" font-size="14.00">Start</text>
</g>
<!-- StartEvent\n_22&#45;&gt;Task_1bfgx\n4k -->
<g id="edge6" class="edge">
<title>StartEvent\n_22&#45;&gt;Task_1bfgx\n4k</title>
<path fill="none" stroke="black" d="M154,-679.27C154,-671.14 154,-662.08 154,-653.47"/>
<polygon fill="black" stroke="black" points="157.5,-653.28 154,-643.28 150.5,-653.28 157.5,-653.28"/>
</g>
<!-- Task_18t4q\nxp&#45;&gt;Task_0br80\ny4 -->
<g id="edge7" class="edge">
<title>Task_18t4q\nxp&#45;&gt;Task_0br80\ny4</title>
<path fill="none" stroke="black" d="M154,-499.9C154,-491.71 154,-482.41 154,-473.32"/>
<polygon fill="black" stroke="black" points="157.5,-473.22 154,-463.22 150.5,-473.22 157.5,-473.22"/>
</g>
</g>
</svg>
