<svg width="417px" height="1000px"
 viewBox="0.00 0.00 426.22 1022.39" xmlns="http://www.w3.org/2000/svg" xmlns:xlink="http://www.w3.org/1999/xlink">
<g id="graph0" class="graph" transform="scale(1.0 1.0) rotate(0) translate(4 1018.39)">
<title>27_Vorabend&#45;Check&#45;In</title>
<polygon fill="white" stroke="transparent" points="-4,4 -4,-1018.39 422.22,-1018.39 422.22,4 -4,4"/>
<!-- Task_1895c\n2a -->
<g id="node1" class="node">
<title>Task_1895c\n2a</title>
<polygon fill="lightgrey" stroke="black" points="24,-166.99 24,-219.99 299,-219.99 299,-166.99 24,-166.99"/>
<text text-anchor="middle" x="67" y="-197.29" font-family="Times New Roman,serif" font-size="14.00">Task_1895c</text>
<text text-anchor="middle" x="67" y="-182.29" font-family="Times New Roman,serif" font-size="14.00">2a</text>
<polyline fill="none" stroke="black" points="110,-166.99 110,-219.99 "/>
<text text-anchor="middle" x="151.5" y="-204.79" font-family="Times New Roman,serif" font-size="14.00">Gepäckspei</text>
<text text-anchor="middle" x="151.5" y="-189.79" font-family="Times New Roman,serif" font-size="14.00">cher:Lane_</text>
<text text-anchor="middle" x="151.5" y="-174.79" font-family="Times New Roman,serif" font-size="14.00">0a2xs1r</text>
<polyline fill="none" stroke="black" points="193,-166.99 193,-219.99 "/>
<text text-anchor="middle" x="246" y="-189.79" font-family="Times New Roman,serif" font-size="14.00">Sonstige_Tasks</text>
</g>
<!-- ExclusiveG\nateway_0us\n06k6 -->
<g id="node10" class="node">
<title>ExclusiveG\nateway_0us\n06k6</title>
<polygon fill="lightgrey" stroke="black" points="244.5,-130.49 78.26,-112.49 244.5,-94.49 410.74,-112.49 244.5,-130.49"/>
<text text-anchor="middle" x="244.5" y="-108.79" font-family="Times New Roman,serif" font-size="14.00">Gepäck_vorhanden?_/_JOIN</text>
</g>
<!-- Task_1895c\n2a&#45;&gt;ExclusiveG\nateway_0us\n06k6 -->
<g id="edge1" class="edge">
<title>Task_1895c\n2a&#45;&gt;ExclusiveG\nateway_0us\n06k6</title>
<path fill="none" stroke="black" d="M188.68,-166.63C199.08,-156.73 210.84,-145.53 220.88,-135.98"/>
<polygon fill="black" stroke="black" points="223.34,-138.47 228.17,-129.04 218.51,-133.4 223.34,-138.47"/>
</g>
<!-- Task_0gjmu\n1b -->
<g id="node2" class="node">
<title>Task_0gjmu\n1b</title>
<polygon fill="lightgrey" stroke="black" points="116,-598.99 116,-651.99 373,-651.99 373,-598.99 116,-598.99"/>
<text text-anchor="middle" x="159" y="-629.29" font-family="Times New Roman,serif" font-size="14.00">Task_0gjmu</text>
<text text-anchor="middle" x="159" y="-614.29" font-family="Times New Roman,serif" font-size="14.00">1b</text>
<polyline fill="none" stroke="black" points="202,-598.99 202,-651.99 "/>
<text text-anchor="middle" x="243" y="-636.79" font-family="Times New Roman,serif" font-size="14.00">Check&#45;In&#45;S</text>
<text text-anchor="middle" x="243" y="-621.79" font-family="Times New Roman,serif" font-size="14.00">chalter:La</text>
<text text-anchor="middle" x="243" y="-606.79" font-family="Times New Roman,serif" font-size="14.00">ne_10utog2</text>
<polyline fill="none" stroke="black" points="284,-598.99 284,-651.99 "/>
<text text-anchor="middle" x="328.5" y="-621.79" font-family="Times New Roman,serif" font-size="14.00">Kontrollieren</text>
</g>
<!-- Task_0m52f\n74 -->
<g id="node7" class="node">
<title>Task_0m52f\n74</title>
<polygon fill="lightgrey" stroke="black" points="107,-508.99 107,-561.99 382,-561.99 382,-508.99 107,-508.99"/>
<text text-anchor="middle" x="150.5" y="-539.29" font-family="Times New Roman,serif" font-size="14.00">Task_0m52f</text>
<text text-anchor="middle" x="150.5" y="-524.29" font-family="Times New Roman,serif" font-size="14.00">74</text>
<polyline fill="none" stroke="black" points="194,-508.99 194,-561.99 "/>
<text text-anchor="middle" x="235" y="-546.79" font-family="Times New Roman,serif" font-size="14.00">Check&#45;In&#45;S</text>
<text text-anchor="middle" x="235" y="-531.79" font-family="Times New Roman,serif" font-size="14.00">chalter:La</text>
<text text-anchor="middle" x="235" y="-516.79" font-family="Times New Roman,serif" font-size="14.00">ne_10utog2</text>
<polyline fill="none" stroke="black" points="276,-508.99 276,-561.99 "/>
<text text-anchor="middle" x="329" y="-531.79" font-family="Times New Roman,serif" font-size="14.00">Sonstige_Tasks</text>
</g>
<!-- Task_0gjmu\n1b&#45;&gt;Task_0m52f\n74 -->
<g id="edge2" class="edge">
<title>Task_0gjmu\n1b&#45;&gt;Task_0m52f\n74</title>
<path fill="none" stroke="black" d="M244.5,-598.57C244.5,-590.33 244.5,-581.07 244.5,-572.27"/>
<polygon fill="black" stroke="black" points="248,-572.24 244.5,-562.24 241,-572.24 248,-572.24"/>
</g>
<!-- Task_18uib\n6w -->
<g id="node3" class="node">
<title>Task_18uib\n6w</title>
<polygon fill="lightgrey" stroke="black" points="92.5,-418.99 92.5,-471.99 396.5,-471.99 396.5,-418.99 92.5,-418.99"/>
<text text-anchor="middle" x="134" y="-449.29" font-family="Times New Roman,serif" font-size="14.00">Task_18uib</text>
<text text-anchor="middle" x="134" y="-434.29" font-family="Times New Roman,serif" font-size="14.00">6w</text>
<polyline fill="none" stroke="black" points="175.5,-418.99 175.5,-471.99 "/>
<text text-anchor="middle" x="216.5" y="-456.79" font-family="Times New Roman,serif" font-size="14.00">Check&#45;In&#45;S</text>
<text text-anchor="middle" x="216.5" y="-441.79" font-family="Times New Roman,serif" font-size="14.00">chalter:La</text>
<text text-anchor="middle" x="216.5" y="-426.79" font-family="Times New Roman,serif" font-size="14.00">ne_10utog2</text>
<polyline fill="none" stroke="black" points="257.5,-418.99 257.5,-471.99 "/>
<text text-anchor="middle" x="327" y="-441.79" font-family="Times New Roman,serif" font-size="14.00">Dokument_bearbeiten</text>
</g>
<!-- ExclusiveG\nateway_0ps\n1oy1 -->
<g id="node4" class="node">
<title>ExclusiveG\nateway_0ps\n1oy1</title>
<polygon fill="lightgrey" stroke="black" points="244.5,-382.49 70.56,-364.49 244.5,-346.49 418.44,-364.49 244.5,-382.49"/>
<text text-anchor="middle" x="244.5" y="-360.79" font-family="Times New Roman,serif" font-size="14.00">Gepäck_vorhanden?_/_SPLIT</text>
</g>
<!-- Task_18uib\n6w&#45;&gt;ExclusiveG\nateway_0ps\n1oy1 -->
<g id="edge3" class="edge">
<title>Task_18uib\n6w&#45;&gt;ExclusiveG\nateway_0ps\n1oy1</title>
<path fill="none" stroke="black" d="M244.5,-418.63C244.5,-410.4 244.5,-401.28 244.5,-392.94"/>
<polygon fill="black" stroke="black" points="248,-392.94 244.5,-382.94 241,-392.94 248,-392.94"/>
</g>
<!-- Task_1633h\n8l -->
<g id="node5" class="node">
<title>Task_1633h\n8l</title>
<polygon fill="lightgrey" stroke="black" points="0,-256.99 0,-309.99 307,-309.99 307,-256.99 0,-256.99"/>
<text text-anchor="middle" x="43" y="-287.29" font-family="Times New Roman,serif" font-size="14.00">Task_1633h</text>
<text text-anchor="middle" x="43" y="-272.29" font-family="Times New Roman,serif" font-size="14.00">8l</text>
<polyline fill="none" stroke="black" points="86,-256.99 86,-309.99 "/>
<text text-anchor="middle" x="127" y="-294.79" font-family="Times New Roman,serif" font-size="14.00">Check&#45;In&#45;S</text>
<text text-anchor="middle" x="127" y="-279.79" font-family="Times New Roman,serif" font-size="14.00">chalter:La</text>
<text text-anchor="middle" x="127" y="-264.79" font-family="Times New Roman,serif" font-size="14.00">ne_10utog2</text>
<polyline fill="none" stroke="black" points="168,-256.99 168,-309.99 "/>
<text text-anchor="middle" x="237.5" y="-279.79" font-family="Times New Roman,serif" font-size="14.00">Gegenstand_bewegen</text>
</g>
<!-- ExclusiveG\nateway_0ps\n1oy1&#45;&gt;Task_1633h\n8l -->
<g id="edge5" class="edge">
<title>ExclusiveG\nateway_0ps\n1oy1&#45;&gt;Task_1633h\n8l</title>
<path fill="none" stroke="black" d="M226.95,-348.26C216.69,-339.35 203.33,-327.75 190.81,-316.89"/>
<polygon fill="black" stroke="black" points="193.02,-314.17 183.17,-310.25 188.43,-319.45 193.02,-314.17"/>
</g>
<!-- ExclusiveG\nateway_0ps\n1oy1&#45;&gt;ExclusiveG\nateway_0us\n06k6 -->
<g id="edge4" class="edge">
<title>ExclusiveG\nateway_0ps\n1oy1&#45;&gt;ExclusiveG\nateway_0us\n06k6</title>
<path fill="none" stroke="black" d="M274.48,-349.57C289.75,-340.72 306.88,-327.68 315.5,-310.49 325.93,-289.69 312.16,-175.45 307.5,-166.49 300.7,-153.44 289.18,-142.31 277.83,-133.67"/>
<polygon fill="black" stroke="black" points="279.83,-130.8 269.66,-127.82 275.76,-136.49 279.83,-130.8"/>
</g>
<!-- Task_1633h\n8l&#45;&gt;Task_1895c\n2a -->
<g id="edge6" class="edge">
<title>Task_1633h\n8l&#45;&gt;Task_1895c\n2a</title>
<path fill="none" stroke="black" d="M155.86,-256.57C156.61,-248.33 157.45,-239.07 158.25,-230.27"/>
<polygon fill="black" stroke="black" points="161.74,-230.51 159.16,-220.24 154.77,-229.88 161.74,-230.51"/>
</g>
<!-- Task_1goq0\nmv -->
<g id="node6" class="node">
<title>Task_1goq0\nmv</title>
<polygon fill="lightgrey" stroke="black" points="76,-778.99 76,-831.99 413,-831.99 413,-778.99 76,-778.99"/>
<text text-anchor="middle" x="119.5" y="-809.29" font-family="Times New Roman,serif" font-size="14.00">Task_1goq0</text>
<text text-anchor="middle" x="119.5" y="-794.29" font-family="Times New Roman,serif" font-size="14.00">mv</text>
<polyline fill="none" stroke="black" points="163,-778.99 163,-831.99 "/>
<text text-anchor="middle" x="203" y="-816.79" font-family="Times New Roman,serif" font-size="14.00">Passagier:</text>
<text text-anchor="middle" x="203" y="-801.79" font-family="Times New Roman,serif" font-size="14.00">Lane_1sly0</text>
<text text-anchor="middle" x="203" y="-786.79" font-family="Times New Roman,serif" font-size="14.00">y9</text>
<polyline fill="none" stroke="black" points="243,-778.99 243,-831.99 "/>
<text text-anchor="middle" x="328" y="-801.79" font-family="Times New Roman,serif" font-size="14.00">Flughafenbereich_erreichen</text>
</g>
<!-- Task_0vqyy\nsy -->
<g id="node8" class="node">
<title>Task_0vqyy\nsy</title>
<polygon fill="lightgrey" stroke="black" points="133,-688.99 133,-741.99 356,-741.99 356,-688.99 133,-688.99"/>
<text text-anchor="middle" x="176" y="-719.29" font-family="Times New Roman,serif" font-size="14.00">Task_0vqyy</text>
<text text-anchor="middle" x="176" y="-704.29" font-family="Times New Roman,serif" font-size="14.00">sy</text>
<polyline fill="none" stroke="black" points="219,-688.99 219,-741.99 "/>
<text text-anchor="middle" x="259" y="-726.79" font-family="Times New Roman,serif" font-size="14.00">Passagier:</text>
<text text-anchor="middle" x="259" y="-711.79" font-family="Times New Roman,serif" font-size="14.00">Lane_1sly0</text>
<text text-anchor="middle" x="259" y="-696.79" font-family="Times New Roman,serif" font-size="14.00">y9</text>
<polyline fill="none" stroke="black" points="299,-688.99 299,-741.99 "/>
<text text-anchor="middle" x="327.5" y="-711.79" font-family="Times New Roman,serif" font-size="14.00">Warten</text>
</g>
<!-- Task_1goq0\nmv&#45;&gt;Task_0vqyy\nsy -->
<g id="edge7" class="edge">
<title>Task_1goq0\nmv&#45;&gt;Task_0vqyy\nsy</title>
<path fill="none" stroke="black" d="M244.5,-778.57C244.5,-770.33 244.5,-761.07 244.5,-752.27"/>
<polygon fill="black" stroke="black" points="248,-752.24 244.5,-742.24 241,-752.24 248,-752.24"/>
</g>
<!-- Task_0m52f\n74&#45;&gt;Task_18uib\n6w -->
<g id="edge8" class="edge">
<title>Task_0m52f\n74&#45;&gt;Task_18uib\n6w</title>
<path fill="none" stroke="black" d="M244.5,-508.57C244.5,-500.33 244.5,-491.07 244.5,-482.27"/>
<polygon fill="black" stroke="black" points="248,-482.24 244.5,-472.24 241,-482.24 248,-482.24"/>
</g>
<!-- Task_0vqyy\nsy&#45;&gt;Task_0gjmu\n1b -->
<g id="edge9" class="edge">
<title>Task_0vqyy\nsy&#45;&gt;Task_0gjmu\n1b</title>
<path fill="none" stroke="black" d="M244.5,-688.57C244.5,-680.33 244.5,-671.07 244.5,-662.27"/>
<polygon fill="black" stroke="black" points="248,-662.24 244.5,-652.24 241,-662.24 248,-662.24"/>
</g>
<!-- StartEvent\n_27 -->
<g id="node9" class="node">
<title>StartEvent\n_27</title>
<ellipse fill="lightgrey" stroke="black" cx="244.5" cy="-986.44" rx="27.9" ry="27.9"/>
<text text-anchor="middle" x="244.5" y="-982.74" font-family="Times New Roman,serif" font-size="14.00">Start</text>
</g>
<!-- Task_16opf\nmb -->
<g id="node12" class="node">
<title>Task_16opf\nmb</title>
<polygon fill="lightgrey" stroke="black" points="106,-868.99 106,-921.99 383,-921.99 383,-868.99 106,-868.99"/>
<text text-anchor="middle" x="148.5" y="-899.29" font-family="Times New Roman,serif" font-size="14.00">Task_16opf</text>
<text text-anchor="middle" x="148.5" y="-884.29" font-family="Times New Roman,serif" font-size="14.00">mb</text>
<polyline fill="none" stroke="black" points="191,-868.99 191,-921.99 "/>
<text text-anchor="middle" x="231" y="-906.79" font-family="Times New Roman,serif" font-size="14.00">Passagier:</text>
<text text-anchor="middle" x="231" y="-891.79" font-family="Times New Roman,serif" font-size="14.00">Lane_1sly0</text>
<text text-anchor="middle" x="231" y="-876.79" font-family="Times New Roman,serif" font-size="14.00">y9</text>
<polyline fill="none" stroke="black" points="271,-868.99 271,-921.99 "/>
<text text-anchor="middle" x="327" y="-891.79" font-family="Times New Roman,serif" font-size="14.00">Person_bewegen</text>
</g>
<!-- StartEvent\n_27&#45;&gt;Task_16opf\nmb -->
<g id="edge10" class="edge">
<title>StartEvent\n_27&#45;&gt;Task_16opf\nmb</title>
<path fill="none" stroke="black" d="M244.5,-958.27C244.5,-950.14 244.5,-941.08 244.5,-932.47"/>
<polygon fill="black" stroke="black" points="248,-932.28 244.5,-922.28 241,-932.28 248,-932.28"/>
</g>
<!-- EndEvent_0\n2faebv -->
<g id="node11" class="node">
<title>EndEvent_0\n2faebv</title>
<ellipse fill="lightgrey" stroke="black" cx="244.5" cy="-29.25" rx="29.5" ry="29.5"/>
<text text-anchor="middle" x="244.5" y="-25.55" font-family="Times New Roman,serif" font-size="14.00">Ende</text>
</g>
<!-- ExclusiveG\nateway_0us\n06k6&#45;&gt;EndEvent_0\n2faebv -->
<g id="edge11" class="edge">
<title>ExclusiveG\nateway_0us\n06k6&#45;&gt;EndEvent_0\n2faebv</title>
<path fill="none" stroke="black" d="M244.5,-94.26C244.5,-86.83 244.5,-77.81 244.5,-68.92"/>
<polygon fill="black" stroke="black" points="248,-68.64 244.5,-58.64 241,-68.64 248,-68.64"/>
</g>
<!-- Task_16opf\nmb&#45;&gt;Task_1goq0\nmv -->
<g id="edge12" class="edge">
<title>Task_16opf\nmb&#45;&gt;Task_1goq0\nmv</title>
<path fill="none" stroke="black" d="M244.5,-868.57C244.5,-860.33 244.5,-851.07 244.5,-842.27"/>
<polygon fill="black" stroke="black" points="248,-842.24 244.5,-832.24 241,-842.24 248,-842.24"/>
</g>
</g>
</svg>
