<svg width="939px" height="1000px"
 viewBox="0.00 0.00 967.50 1031.39" xmlns="http://www.w3.org/2000/svg" xmlns:xlink="http://www.w3.org/1999/xlink">
<g id="graph0" class="graph" transform="scale(1.0 1.0) rotate(0) translate(4 1027.39)">
<title>11_Abfertigung_Sperrgepäck</title>
<polygon fill="white" stroke="transparent" points="-4,4 -4,-1027.39 963.5,-1027.39 963.5,4 -4,4"/>
<!-- Task_02qnn\njf -->
<g id="node1" class="node">
<title>Task_02qnn\njf</title>
<polygon fill="lightgrey" stroke="black" points="398.5,-271.99 398.5,-324.99 959.5,-324.99 959.5,-271.99 398.5,-271.99"/>
<text text-anchor="middle" x="441.5" y="-302.29" font-family="Times New Roman,serif" font-size="14.00">Task_02qnn</text>
<text text-anchor="middle" x="441.5" y="-287.29" font-family="Times New Roman,serif" font-size="14.00">jf</text>
<polyline fill="none" stroke="black" points="484.5,-271.99 484.5,-324.99 "/>
<text text-anchor="middle" x="527.5" y="-309.79" font-family="Times New Roman,serif" font-size="14.00">Käufer:1CP</text>
<text text-anchor="middle" x="527.5" y="-294.79" font-family="Times New Roman,serif" font-size="14.00">__Lane_1a6</text>
<text text-anchor="middle" x="527.5" y="-279.79" font-family="Times New Roman,serif" font-size="14.00">bz8p</text>
<polyline fill="none" stroke="black" points="570.5,-271.99 570.5,-324.99 "/>
<text text-anchor="middle" x="765" y="-294.79" font-family="Times New Roman,serif" font-size="14.00">Bestand_vom_Lagerplatz_ROD_in_den_Lagerplatz_AFS_buchen</text>
</g>
<!-- ExclusiveG\nateway_1br\n64kh -->
<g id="node11" class="node">
<title>ExclusiveG\nateway_1br\n64kh</title>
<polygon fill="lightgrey" stroke="black" points="447,-235.49 166.81,-217.49 447,-199.49 727.19,-217.49 447,-235.49"/>
<text text-anchor="middle" x="447" y="-213.79" font-family="Times New Roman,serif" font-size="14.00">Förderband_für_Sperrgepäck_vorhanden?_/_JOIN</text>
</g>
<!-- Task_02qnn\njf&#45;&gt;ExclusiveG\nateway_1br\n64kh -->
<g id="edge1" class="edge">
<title>Task_02qnn\njf&#45;&gt;ExclusiveG\nateway_1br\n64kh</title>
<path fill="none" stroke="black" d="M604,-271.95C569.71,-260.28 529.94,-246.74 499.01,-236.21"/>
<polygon fill="black" stroke="black" points="499.89,-232.81 489.3,-232.9 497.63,-239.43 499.89,-232.81"/>
</g>
<!-- EndEvent_0\nhbd04d -->
<g id="node2" class="node">
<title>EndEvent_0\nhbd04d</title>
<ellipse fill="lightgrey" stroke="black" cx="447" cy="-29.25" rx="29.5" ry="29.5"/>
<text text-anchor="middle" x="447" y="-25.55" font-family="Times New Roman,serif" font-size="14.00">Ende</text>
</g>
<!-- Task_1rykt\npx -->
<g id="node3" class="node">
<title>Task_1rykt\npx</title>
<polygon fill="lightgrey" stroke="black" points="104.5,-700.99 104.5,-753.99 543.5,-753.99 543.5,-700.99 104.5,-700.99"/>
<text text-anchor="middle" x="144.5" y="-731.29" font-family="Times New Roman,serif" font-size="14.00">Task_1rykt</text>
<text text-anchor="middle" x="144.5" y="-716.29" font-family="Times New Roman,serif" font-size="14.00">px</text>
<polyline fill="none" stroke="black" points="184.5,-700.99 184.5,-753.99 "/>
<text text-anchor="middle" x="228" y="-738.79" font-family="Times New Roman,serif" font-size="14.00">Lagerleitu</text>
<text text-anchor="middle" x="228" y="-723.79" font-family="Times New Roman,serif" font-size="14.00">ng:1CZ__La</text>
<text text-anchor="middle" x="228" y="-708.79" font-family="Times New Roman,serif" font-size="14.00">ne_1tzanw4</text>
<polyline fill="none" stroke="black" points="271.5,-700.99 271.5,-753.99 "/>
<text text-anchor="middle" x="407.5" y="-723.79" font-family="Times New Roman,serif" font-size="14.00">Dokumente_für_physische_Inventur_drucken</text>
</g>
<!-- Task_0rq62\ni2 -->
<g id="node6" class="node">
<title>Task_0rq62\ni2</title>
<polygon fill="lightgrey" stroke="black" points="0,-595.99 0,-663.99 578,-663.99 578,-595.99 0,-595.99"/>
<text text-anchor="middle" x="42" y="-633.79" font-family="Times New Roman,serif" font-size="14.00">Task_0rq62</text>
<text text-anchor="middle" x="42" y="-618.79" font-family="Times New Roman,serif" font-size="14.00">i2</text>
<polyline fill="none" stroke="black" points="84,-595.99 84,-663.99 "/>
<text text-anchor="middle" x="127" y="-648.79" font-family="Times New Roman,serif" font-size="14.00">Lagerfachk</text>
<text text-anchor="middle" x="127" y="-633.79" font-family="Times New Roman,serif" font-size="14.00">raft:1BQ__</text>
<text text-anchor="middle" x="127" y="-618.79" font-family="Times New Roman,serif" font-size="14.00">Lane_11q77</text>
<text text-anchor="middle" x="127" y="-603.79" font-family="Times New Roman,serif" font-size="14.00">qc</text>
<polyline fill="none" stroke="black" points="170,-595.99 170,-663.99 "/>
<text text-anchor="middle" x="374" y="-626.29" font-family="Times New Roman,serif" font-size="14.00">Paletten_von_der_Bereitstellungszone_zum_Übergabepunkt_bewegen</text>
</g>
<!-- Task_1rykt\npx&#45;&gt;Task_0rq62\ni2 -->
<g id="edge2" class="edge">
<title>Task_1rykt\npx&#45;&gt;Task_0rq62\ni2</title>
<path fill="none" stroke="black" d="M314.62,-700.9C311.55,-692.54 308.06,-683.01 304.66,-673.73"/>
<polygon fill="black" stroke="black" points="307.9,-672.4 301.18,-664.22 301.33,-674.81 307.9,-672.4"/>
</g>
<!-- StartEvent\n_111 -->
<g id="node4" class="node">
<title>StartEvent\n_111</title>
<ellipse fill="lightgrey" stroke="black" cx="448" cy="-995.44" rx="27.9" ry="27.9"/>
<text text-anchor="middle" x="448" y="-991.74" font-family="Times New Roman,serif" font-size="14.00">Start</text>
</g>
<!-- Task_0maf9\nlr -->
<g id="node13" class="node">
<title>Task_0maf9\nlr</title>
<polygon fill="lightgrey" stroke="black" points="308.5,-862.99 308.5,-930.99 587.5,-930.99 587.5,-862.99 308.5,-862.99"/>
<text text-anchor="middle" x="351.5" y="-900.79" font-family="Times New Roman,serif" font-size="14.00">Task_0maf9</text>
<text text-anchor="middle" x="351.5" y="-885.79" font-family="Times New Roman,serif" font-size="14.00">lr</text>
<polyline fill="none" stroke="black" points="394.5,-862.99 394.5,-930.99 "/>
<text text-anchor="middle" x="438.5" y="-915.79" font-family="Times New Roman,serif" font-size="14.00">Lagerfachk</text>
<text text-anchor="middle" x="438.5" y="-900.79" font-family="Times New Roman,serif" font-size="14.00">raft:1CR__</text>
<text text-anchor="middle" x="438.5" y="-885.79" font-family="Times New Roman,serif" font-size="14.00">Lane_1v76w</text>
<text text-anchor="middle" x="438.5" y="-870.79" font-family="Times New Roman,serif" font-size="14.00">t5</text>
<polyline fill="none" stroke="black" points="482.5,-862.99 482.5,-930.99 "/>
<text text-anchor="middle" x="535" y="-893.29" font-family="Times New Roman,serif" font-size="14.00">Laden_beenden</text>
</g>
<!-- StartEvent\n_111&#45;&gt;Task_0maf9\nlr -->
<g id="edge3" class="edge">
<title>StartEvent\n_111&#45;&gt;Task_0maf9\nlr</title>
<path fill="none" stroke="black" d="M448,-967.32C448,-959.23 448,-950.15 448,-941.3"/>
<polygon fill="black" stroke="black" points="451.5,-941.08 448,-931.08 444.5,-941.08 451.5,-941.08"/>
</g>
<!-- Task_1qwpq\n3v -->
<g id="node5" class="node">
<title>Task_1qwpq\n3v</title>
<polygon fill="lightgrey" stroke="black" points="52,-271.99 52,-324.99 380,-324.99 380,-271.99 52,-271.99"/>
<text text-anchor="middle" x="97.5" y="-302.29" font-family="Times New Roman,serif" font-size="14.00">Task_1qwpq</text>
<text text-anchor="middle" x="97.5" y="-287.29" font-family="Times New Roman,serif" font-size="14.00">3v</text>
<polyline fill="none" stroke="black" points="143,-271.99 143,-324.99 "/>
<text text-anchor="middle" x="187.5" y="-309.79" font-family="Times New Roman,serif" font-size="14.00">Versandbür</text>
<text text-anchor="middle" x="187.5" y="-294.79" font-family="Times New Roman,serif" font-size="14.00">o:1CN__Lan</text>
<text text-anchor="middle" x="187.5" y="-279.79" font-family="Times New Roman,serif" font-size="14.00">e_1n6g0py</text>
<polyline fill="none" stroke="black" points="232,-271.99 232,-324.99 "/>
<text text-anchor="middle" x="306" y="-294.79" font-family="Times New Roman,serif" font-size="14.00">Versandeinheiten_laden</text>
</g>
<!-- Task_1qwpq\n3v&#45;&gt;ExclusiveG\nateway_1br\n64kh -->
<g id="edge4" class="edge">
<title>Task_1qwpq\n3v&#45;&gt;ExclusiveG\nateway_1br\n64kh</title>
<path fill="none" stroke="black" d="M290.68,-271.95C324.82,-260.28 364.41,-246.74 395.21,-236.21"/>
<polygon fill="black" stroke="black" points="396.56,-239.45 404.89,-232.9 394.29,-232.82 396.56,-239.45"/>
</g>
<!-- ExclusiveG\nateway_047\n9owq -->
<g id="node10" class="node">
<title>ExclusiveG\nateway_047\n9owq</title>
<polygon fill="lightgrey" stroke="black" points="447,-559.49 235.69,-541.49 447,-523.49 658.31,-541.49 447,-559.49"/>
<text text-anchor="middle" x="447" y="-537.79" font-family="Times New Roman,serif" font-size="14.00">Gepäckanhänger_vorhanden?_/_JOIN</text>
</g>
<!-- Task_0rq62\ni2&#45;&gt;ExclusiveG\nateway_047\n9owq -->
<g id="edge5" class="edge">
<title>Task_0rq62\ni2&#45;&gt;ExclusiveG\nateway_047\n9owq</title>
<path fill="none" stroke="black" d="M349.64,-595.8C370.24,-584.52 392.6,-572.28 410.7,-562.37"/>
<polygon fill="black" stroke="black" points="412.65,-565.29 419.74,-557.42 409.29,-559.15 412.65,-565.29"/>
</g>
<!-- ExclusiveG\nateway_0kk\nos1g -->
<g id="node7" class="node">
<title>ExclusiveG\nateway_0kk\nos1g</title>
<polygon fill="lightgrey" stroke="black" points="448,-826.49 228.14,-808.49 448,-790.49 667.86,-808.49 448,-826.49"/>
<text text-anchor="middle" x="448" y="-804.79" font-family="Times New Roman,serif" font-size="14.00">Gepäckanhänger_vorhanden?_/_SPLIT</text>
</g>
<!-- ExclusiveG\nateway_0kk\nos1g&#45;&gt;Task_1rykt\npx -->
<g id="edge6" class="edge">
<title>ExclusiveG\nateway_0kk\nos1g&#45;&gt;Task_1rykt\npx</title>
<path fill="none" stroke="black" d="M424.09,-792.26C409.58,-783.02 390.51,-770.87 372.92,-759.66"/>
<polygon fill="black" stroke="black" points="374.75,-756.67 364.43,-754.25 370.98,-762.58 374.75,-756.67"/>
</g>
<!-- ExclusiveG\nateway_0kk\nos1g&#45;&gt;ExclusiveG\nateway_047\n9owq -->
<g id="edge7" class="edge">
<title>ExclusiveG\nateway_0kk\nos1g&#45;&gt;ExclusiveG\nateway_047\n9owq</title>
<path fill="none" stroke="black" d="M490.8,-793.89C511.62,-785.41 535.62,-772.61 552,-754.49 600.53,-700.83 628.12,-655.03 587,-595.49 573.81,-576.4 552.79,-564.18 531.01,-556.36"/>
<polygon fill="black" stroke="black" points="531.91,-552.97 521.31,-553.17 529.72,-559.62 531.91,-552.97"/>
</g>
<!-- ExclusiveG\nateway_1v5\ntary -->
<g id="node8" class="node">
<title>ExclusiveG\nateway_1v5\ntary</title>
<polygon fill="lightgrey" stroke="black" points="447,-487.49 159.11,-469.49 447,-451.49 734.89,-469.49 447,-487.49"/>
<text text-anchor="middle" x="447" y="-465.79" font-family="Times New Roman,serif" font-size="14.00">Förderband_für_Sperrgepäck_vorhanden?_/_SPLIT</text>
</g>
<!-- ExclusiveG\nateway_1v5\ntary&#45;&gt;Task_1qwpq\n3v -->
<g id="edge9" class="edge">
<title>ExclusiveG\nateway_1v5\ntary&#45;&gt;Task_1qwpq\n3v</title>
<path fill="none" stroke="black" d="M425.27,-452.6C387.37,-424.87 308.51,-367.18 259.16,-331.07"/>
<polygon fill="black" stroke="black" points="261.04,-328.11 250.9,-325.03 256.9,-333.76 261.04,-328.11"/>
</g>
<!-- Task_17dc3\nnr -->
<g id="node12" class="node">
<title>Task_17dc3\nnr</title>
<polygon fill="lightgrey" stroke="black" points="448.5,-361.99 448.5,-414.99 771.5,-414.99 771.5,-361.99 448.5,-361.99"/>
<text text-anchor="middle" x="491.5" y="-392.29" font-family="Times New Roman,serif" font-size="14.00">Task_17dc3</text>
<text text-anchor="middle" x="491.5" y="-377.29" font-family="Times New Roman,serif" font-size="14.00">nr</text>
<polyline fill="none" stroke="black" points="534.5,-361.99 534.5,-414.99 "/>
<text text-anchor="middle" x="579" y="-399.79" font-family="Times New Roman,serif" font-size="14.00">Versandbür</text>
<text text-anchor="middle" x="579" y="-384.79" font-family="Times New Roman,serif" font-size="14.00">o:1CN__Lan</text>
<text text-anchor="middle" x="579" y="-369.79" font-family="Times New Roman,serif" font-size="14.00">e_1n6g0py</text>
<polyline fill="none" stroke="black" points="623.5,-361.99 623.5,-414.99 "/>
<text text-anchor="middle" x="697.5" y="-384.79" font-family="Times New Roman,serif" font-size="14.00">Versandeinheiten_laden</text>
</g>
<!-- ExclusiveG\nateway_1v5\ntary&#45;&gt;Task_17dc3\nnr -->
<g id="edge8" class="edge">
<title>ExclusiveG\nateway_1v5\ntary&#45;&gt;Task_17dc3\nnr</title>
<path fill="none" stroke="black" d="M478.43,-453.26C498.11,-443.72 524.15,-431.1 547.87,-419.6"/>
<polygon fill="black" stroke="black" points="549.7,-422.61 557.18,-415.1 546.65,-416.31 549.7,-422.61"/>
</g>
<!-- Task_1ei7t\ni0 -->
<g id="node9" class="node">
<title>Task_1ei7t\ni0</title>
<polygon fill="lightgrey" stroke="black" points="315,-94.99 315,-162.99 579,-162.99 579,-94.99 315,-94.99"/>
<text text-anchor="middle" x="354" y="-132.79" font-family="Times New Roman,serif" font-size="14.00">Task_1ei7t</text>
<text text-anchor="middle" x="354" y="-117.79" font-family="Times New Roman,serif" font-size="14.00">i0</text>
<polyline fill="none" stroke="black" points="393,-94.99 393,-162.99 "/>
<text text-anchor="middle" x="437" y="-147.79" font-family="Times New Roman,serif" font-size="14.00">Lagerfachk</text>
<text text-anchor="middle" x="437" y="-132.79" font-family="Times New Roman,serif" font-size="14.00">raft:1CR__</text>
<text text-anchor="middle" x="437" y="-117.79" font-family="Times New Roman,serif" font-size="14.00">Lane_1v76w</text>
<text text-anchor="middle" x="437" y="-102.79" font-family="Times New Roman,serif" font-size="14.00">t5</text>
<polyline fill="none" stroke="black" points="481,-94.99 481,-162.99 "/>
<text text-anchor="middle" x="530" y="-125.29" font-family="Times New Roman,serif" font-size="14.00">LKW_beladen</text>
</g>
<!-- Task_1ei7t\ni0&#45;&gt;EndEvent_0\nhbd04d -->
<g id="edge10" class="edge">
<title>Task_1ei7t\ni0&#45;&gt;EndEvent_0\nhbd04d</title>
<path fill="none" stroke="black" d="M447,-94.9C447,-86.55 447,-77.52 447,-68.92"/>
<polygon fill="black" stroke="black" points="450.5,-68.73 447,-58.73 443.5,-68.73 450.5,-68.73"/>
</g>
<!-- ExclusiveG\nateway_047\n9owq&#45;&gt;ExclusiveG\nateway_1v5\ntary -->
<g id="edge11" class="edge">
<title>ExclusiveG\nateway_047\n9owq&#45;&gt;ExclusiveG\nateway_1v5\ntary</title>
<path fill="none" stroke="black" d="M447,-523.19C447,-515.48 447,-506.21 447,-497.61"/>
<polygon fill="black" stroke="black" points="450.5,-497.6 447,-487.6 443.5,-497.6 450.5,-497.6"/>
</g>
<!-- ExclusiveG\nateway_1br\n64kh&#45;&gt;Task_1ei7t\ni0 -->
<g id="edge12" class="edge">
<title>ExclusiveG\nateway_1br\n64kh&#45;&gt;Task_1ei7t\ni0</title>
<path fill="none" stroke="black" d="M447,-199.41C447,-191.81 447,-182.5 447,-173.18"/>
<polygon fill="black" stroke="black" points="450.5,-173.16 447,-163.16 443.5,-173.16 450.5,-173.16"/>
</g>
<!-- Task_17dc3\nnr&#45;&gt;Task_02qnn\njf -->
<g id="edge13" class="edge">
<title>Task_17dc3\nnr&#45;&gt;Task_02qnn\njf</title>
<path fill="none" stroke="black" d="M630.33,-361.57C637.28,-352.71 645.15,-342.66 652.52,-333.27"/>
<polygon fill="black" stroke="black" points="655.4,-335.27 658.82,-325.24 649.89,-330.95 655.4,-335.27"/>
</g>
<!-- Task_0maf9\nlr&#45;&gt;ExclusiveG\nateway_0kk\nos1g -->
<g id="edge14" class="edge">
<title>Task_0maf9\nlr&#45;&gt;ExclusiveG\nateway_0kk\nos1g</title>
<path fill="none" stroke="black" d="M448,-862.8C448,-854.19 448,-845.01 448,-836.74"/>
<polygon fill="black" stroke="black" points="451.5,-836.52 448,-826.52 444.5,-836.52 451.5,-836.52"/>
</g>
</g>
</svg>
