<svg width="847px" height="1000px"
 viewBox="0.00 0.00 604.00 713.39" xmlns="http://www.w3.org/2000/svg" xmlns:xlink="http://www.w3.org/1999/xlink">
<g id="graph0" class="graph" transform="scale(1.0 1.0) rotate(0) translate(4 709.39)">
<title>22_Passagierabfertigung_Mietwagen_Check&#45;In</title>
<polygon fill="white" stroke="transparent" points="-4,4 -4,-709.39 600,-709.39 600,4 -4,4"/>
<!-- Task_1bfgx\n4k -->
<g id="node1" class="node">
<title>Task_1bfgx\n4k</title>
<polygon fill="lightgrey" stroke="black" points="107.5,-559.99 107.5,-612.99 488.5,-612.99 488.5,-559.99 107.5,-559.99"/>
<text text-anchor="middle" x="149.5" y="-590.29" font-family="Times New Roman,serif" font-size="14.00">Task_1bfgx</text>
<text text-anchor="middle" x="149.5" y="-575.29" font-family="Times New Roman,serif" font-size="14.00">4k</text>
<polyline fill="none" stroke="black" points="191.5,-559.99 191.5,-612.99 "/>
<text text-anchor="middle" x="246.5" y="-597.79" font-family="Times New Roman,serif" font-size="14.00">SAP_SCM_EW</text>
<text text-anchor="middle" x="246.5" y="-582.79" font-family="Times New Roman,serif" font-size="14.00">M:1CL__Lan</text>
<text text-anchor="middle" x="246.5" y="-567.79" font-family="Times New Roman,serif" font-size="14.00">e_1wzmt03</text>
<polyline fill="none" stroke="black" points="301.5,-559.99 301.5,-612.99 "/>
<text text-anchor="middle" x="395" y="-582.79" font-family="Times New Roman,serif" font-size="14.00">Wiederauffüllung_durchführen</text>
</g>
<!-- Task_18t4q\nxp -->
<g id="node8" class="node">
<title>Task_18t4q\nxp</title>
<polygon fill="lightgrey" stroke="black" points="108,-469.99 108,-522.99 488,-522.99 488,-469.99 108,-469.99"/>
<text text-anchor="middle" x="149.5" y="-500.29" font-family="Times New Roman,serif" font-size="14.00">Task_18t4q</text>
<text text-anchor="middle" x="149.5" y="-485.29" font-family="Times New Roman,serif" font-size="14.00">xp</text>
<polyline fill="none" stroke="black" points="191,-469.99 191,-522.99 "/>
<text text-anchor="middle" x="246" y="-507.79" font-family="Times New Roman,serif" font-size="14.00">SAP_SCM_EW</text>
<text text-anchor="middle" x="246" y="-492.79" font-family="Times New Roman,serif" font-size="14.00">M:1CL__Lan</text>
<text text-anchor="middle" x="246" y="-477.79" font-family="Times New Roman,serif" font-size="14.00">e_1wzmt03</text>
<polyline fill="none" stroke="black" points="301,-469.99 301,-522.99 "/>
<text text-anchor="middle" x="394.5" y="-492.79" font-family="Times New Roman,serif" font-size="14.00">Wiederauffüllung_durchführen</text>
</g>
<!-- Task_1bfgx\n4k&#45;&gt;Task_18t4q\nxp -->
<g id="edge1" class="edge">
<title>Task_1bfgx\n4k&#45;&gt;Task_18t4q\nxp</title>
<path fill="none" stroke="black" d="M298,-559.57C298,-551.33 298,-542.07 298,-533.27"/>
<polygon fill="black" stroke="black" points="301.5,-533.24 298,-523.24 294.5,-533.24 301.5,-533.24"/>
</g>
<!-- Task_144sf\nfe -->
<g id="node2" class="node">
<title>Task_144sf\nfe</title>
<polygon fill="lightgrey" stroke="black" points="138,-94.99 138,-147.99 458,-147.99 458,-94.99 138,-94.99"/>
<text text-anchor="middle" x="179.5" y="-125.29" font-family="Times New Roman,serif" font-size="14.00">Task_144sf</text>
<text text-anchor="middle" x="179.5" y="-110.29" font-family="Times New Roman,serif" font-size="14.00">fe</text>
<polyline fill="none" stroke="black" points="221,-94.99 221,-147.99 "/>
<text text-anchor="middle" x="265.5" y="-132.79" font-family="Times New Roman,serif" font-size="14.00">Versandbür</text>
<text text-anchor="middle" x="265.5" y="-117.79" font-family="Times New Roman,serif" font-size="14.00">o:1CN__Lan</text>
<text text-anchor="middle" x="265.5" y="-102.79" font-family="Times New Roman,serif" font-size="14.00">e_1n6g0py</text>
<polyline fill="none" stroke="black" points="310,-94.99 310,-147.99 "/>
<text text-anchor="middle" x="384" y="-117.79" font-family="Times New Roman,serif" font-size="14.00">Versandeinheiten_laden</text>
</g>
<!-- EndEvent_0\npjexo5 -->
<g id="node4" class="node">
<title>EndEvent_0\npjexo5</title>
<ellipse fill="lightgrey" stroke="black" cx="298" cy="-29.25" rx="29.5" ry="29.5"/>
<text text-anchor="middle" x="298" y="-25.55" font-family="Times New Roman,serif" font-size="14.00">Ende</text>
</g>
<!-- Task_144sf\nfe&#45;&gt;EndEvent_0\npjexo5 -->
<g id="edge2" class="edge">
<title>Task_144sf\nfe&#45;&gt;EndEvent_0\npjexo5</title>
<path fill="none" stroke="black" d="M298,-94.87C298,-86.78 298,-77.66 298,-68.87"/>
<polygon fill="black" stroke="black" points="301.5,-68.79 298,-58.79 294.5,-68.79 301.5,-68.79"/>
</g>
<!-- Task_0br80\ny4 -->
<g id="node3" class="node">
<title>Task_0br80\ny4</title>
<polygon fill="lightgrey" stroke="black" points="137.5,-379.99 137.5,-432.99 458.5,-432.99 458.5,-379.99 137.5,-379.99"/>
<text text-anchor="middle" x="179.5" y="-410.29" font-family="Times New Roman,serif" font-size="14.00">Task_0br80</text>
<text text-anchor="middle" x="179.5" y="-395.29" font-family="Times New Roman,serif" font-size="14.00">y4</text>
<polyline fill="none" stroke="black" points="221.5,-379.99 221.5,-432.99 "/>
<text text-anchor="middle" x="266" y="-417.79" font-family="Times New Roman,serif" font-size="14.00">Versandbür</text>
<text text-anchor="middle" x="266" y="-402.79" font-family="Times New Roman,serif" font-size="14.00">o:1CN__Lan</text>
<text text-anchor="middle" x="266" y="-387.79" font-family="Times New Roman,serif" font-size="14.00">e_1n6g0py</text>
<polyline fill="none" stroke="black" points="310.5,-379.99 310.5,-432.99 "/>
<text text-anchor="middle" x="384.5" y="-402.79" font-family="Times New Roman,serif" font-size="14.00">Versandeinheiten_laden</text>
</g>
<!-- Task_155lw\noc -->
<g id="node6" class="node">
<title>Task_155lw\noc</title>
<polygon fill="lightgrey" stroke="black" points="0,-274.99 0,-342.99 596,-342.99 596,-274.99 0,-274.99"/>
<text text-anchor="middle" x="42.5" y="-312.79" font-family="Times New Roman,serif" font-size="14.00">Task_155lw</text>
<text text-anchor="middle" x="42.5" y="-297.79" font-family="Times New Roman,serif" font-size="14.00">oc</text>
<polyline fill="none" stroke="black" points="85,-274.99 85,-342.99 "/>
<text text-anchor="middle" x="129.5" y="-327.79" font-family="Times New Roman,serif" font-size="14.00">Produktion</text>
<text text-anchor="middle" x="129.5" y="-312.79" font-family="Times New Roman,serif" font-size="14.00">splanung:1</text>
<text text-anchor="middle" x="129.5" y="-297.79" font-family="Times New Roman,serif" font-size="14.00">D7b_Lane_0</text>
<text text-anchor="middle" x="129.5" y="-282.79" font-family="Times New Roman,serif" font-size="14.00">jl5f91</text>
<polyline fill="none" stroke="black" points="174,-274.99 174,-342.99 "/>
<text text-anchor="middle" x="385" y="-305.29" font-family="Times New Roman,serif" font-size="14.00">Warenbestand_von_Lagerplatz_&#39;ROD&#39;_in_Lagerplatz_&#39;AFS&#39;_umbuchen</text>
</g>
<!-- Task_0br80\ny4&#45;&gt;Task_155lw\noc -->
<g id="edge3" class="edge">
<title>Task_0br80\ny4&#45;&gt;Task_155lw\noc</title>
<path fill="none" stroke="black" d="M298,-379.9C298,-371.71 298,-362.41 298,-353.32"/>
<polygon fill="black" stroke="black" points="301.5,-353.22 298,-343.22 294.5,-353.22 301.5,-353.22"/>
</g>
<!-- Task_12vdl\n2u -->
<g id="node5" class="node">
<title>Task_12vdl\n2u</title>
<polygon fill="lightgrey" stroke="black" points="134.5,-184.99 134.5,-237.99 461.5,-237.99 461.5,-184.99 134.5,-184.99"/>
<text text-anchor="middle" x="176" y="-215.29" font-family="Times New Roman,serif" font-size="14.00">Task_12vdl</text>
<text text-anchor="middle" x="176" y="-200.29" font-family="Times New Roman,serif" font-size="14.00">2u</text>
<polyline fill="none" stroke="black" points="217.5,-184.99 217.5,-237.99 "/>
<text text-anchor="middle" x="263.5" y="-222.79" font-family="Times New Roman,serif" font-size="14.00">Verkäufer:</text>
<text text-anchor="middle" x="263.5" y="-207.79" font-family="Times New Roman,serif" font-size="14.00">1CV__Lane_</text>
<text text-anchor="middle" x="263.5" y="-192.79" font-family="Times New Roman,serif" font-size="14.00">131x34o</text>
<polyline fill="none" stroke="black" points="309.5,-184.99 309.5,-237.99 "/>
<text text-anchor="middle" x="385.5" y="-207.79" font-family="Times New Roman,serif" font-size="14.00">Kundenretoure_erstellen</text>
</g>
<!-- Task_12vdl\n2u&#45;&gt;Task_144sf\nfe -->
<g id="edge4" class="edge">
<title>Task_12vdl\n2u&#45;&gt;Task_144sf\nfe</title>
<path fill="none" stroke="black" d="M298,-184.57C298,-176.33 298,-167.07 298,-158.27"/>
<polygon fill="black" stroke="black" points="301.5,-158.24 298,-148.24 294.5,-158.24 301.5,-158.24"/>
</g>
<!-- Task_155lw\noc&#45;&gt;Task_12vdl\n2u -->
<g id="edge5" class="edge">
<title>Task_155lw\noc&#45;&gt;Task_12vdl\n2u</title>
<path fill="none" stroke="black" d="M298,-274.86C298,-266.28 298,-257.01 298,-248.3"/>
<polygon fill="black" stroke="black" points="301.5,-248.04 298,-238.04 294.5,-248.04 301.5,-248.04"/>
</g>
<!-- StartEvent\n_22 -->
<g id="node7" class="node">
<title>StartEvent\n_22</title>
<ellipse fill="lightgrey" stroke="black" cx="298" cy="-677.44" rx="27.9" ry="27.9"/>
<text text-anchor="middle" x="298" y="-673.74" font-family="Times New Roman,serif" font-size="14.00">Start</text>
</g>
<!-- StartEvent\n_22&#45;&gt;Task_1bfgx\n4k -->
<g id="edge6" class="edge">
<title>StartEvent\n_22&#45;&gt;Task_1bfgx\n4k</title>
<path fill="none" stroke="black" d="M298,-649.27C298,-641.14 298,-632.08 298,-623.47"/>
<polygon fill="black" stroke="black" points="301.5,-623.28 298,-613.28 294.5,-623.28 301.5,-623.28"/>
</g>
<!-- Task_18t4q\nxp&#45;&gt;Task_0br80\ny4 -->
<g id="edge7" class="edge">
<title>Task_18t4q\nxp&#45;&gt;Task_0br80\ny4</title>
<path fill="none" stroke="black" d="M298,-469.57C298,-461.33 298,-452.07 298,-443.27"/>
<polygon fill="black" stroke="black" points="301.5,-443.24 298,-433.24 294.5,-443.24 301.5,-443.24"/>
</g>
</g>
</svg>
