<svg width="741px" height="1000px"
 viewBox="0.00 0.00 801.50 1082.39" xmlns="http://www.w3.org/2000/svg" xmlns:xlink="http://www.w3.org/1999/xlink">
<g id="graph0" class="graph" transform="scale(1.0 1.0) rotate(0) translate(4 1078.39)">
<title>28_Passagierabfertigung_Vorfahrt&#45;Check&#45;In</title>
<polygon fill="white" stroke="transparent" points="-4,4 -4,-1078.39 797.5,-1078.39 797.5,4 -4,4"/>
<!-- Task_1o58n\nbi -->
<g id="node1" class="node">
<title>Task_1o58n\nbi</title>
<polygon fill="lightgrey" stroke="black" points="0,-451.99 0,-519.99 643,-519.99 643,-451.99 0,-451.99"/>
<text text-anchor="middle" x="43" y="-489.79" font-family="Times New Roman,serif" font-size="14.00">Task_1o58n</text>
<text text-anchor="middle" x="43" y="-474.79" font-family="Times New Roman,serif" font-size="14.00">bi</text>
<polyline fill="none" stroke="black" points="86,-451.99 86,-519.99 "/>
<text text-anchor="middle" x="129" y="-504.79" font-family="Times New Roman,serif" font-size="14.00">Lagerfachk</text>
<text text-anchor="middle" x="129" y="-489.79" font-family="Times New Roman,serif" font-size="14.00">raft:1BQ__</text>
<text text-anchor="middle" x="129" y="-474.79" font-family="Times New Roman,serif" font-size="14.00">Lane_11q77</text>
<text text-anchor="middle" x="129" y="-459.79" font-family="Times New Roman,serif" font-size="14.00">qc</text>
<polyline fill="none" stroke="black" points="172,-451.99 172,-519.99 "/>
<text text-anchor="middle" x="407.5" y="-482.29" font-family="Times New Roman,serif" font-size="14.00">Produkte_vom_Übergabepunkt_in_den_Puffer_für_Hochregal&#45;paletten_einlagern</text>
</g>
<!-- Task_1tu4h\nnw -->
<g id="node4" class="node">
<title>Task_1tu4h\nnw</title>
<polygon fill="lightgrey" stroke="black" points="242.5,-361.99 242.5,-414.99 562.5,-414.99 562.5,-361.99 242.5,-361.99"/>
<text text-anchor="middle" x="284" y="-392.29" font-family="Times New Roman,serif" font-size="14.00">Task_1tu4h</text>
<text text-anchor="middle" x="284" y="-377.29" font-family="Times New Roman,serif" font-size="14.00">nw</text>
<polyline fill="none" stroke="black" points="325.5,-361.99 325.5,-414.99 "/>
<text text-anchor="middle" x="370" y="-399.79" font-family="Times New Roman,serif" font-size="14.00">Versandbür</text>
<text text-anchor="middle" x="370" y="-384.79" font-family="Times New Roman,serif" font-size="14.00">o:1CN__Lan</text>
<text text-anchor="middle" x="370" y="-369.79" font-family="Times New Roman,serif" font-size="14.00">e_1n6g0py</text>
<polyline fill="none" stroke="black" points="414.5,-361.99 414.5,-414.99 "/>
<text text-anchor="middle" x="488.5" y="-384.79" font-family="Times New Roman,serif" font-size="14.00">Versandeinheiten_laden</text>
</g>
<!-- Task_1o58n\nbi&#45;&gt;Task_1tu4h\nnw -->
<g id="edge1" class="edge">
<title>Task_1o58n\nbi&#45;&gt;Task_1tu4h\nnw</title>
<path fill="none" stroke="black" d="M349.6,-451.86C357.6,-442.43 366.31,-432.16 374.31,-422.73"/>
<polygon fill="black" stroke="black" points="377.03,-424.93 380.83,-415.04 371.7,-420.4 377.03,-424.93"/>
</g>
<!-- ExclusiveG\nateway_1mv\n1czk -->
<g id="node2" class="node">
<title>ExclusiveG\nateway_1mv\n1czk</title>
<polygon fill="lightgrey" stroke="black" points="496.5,-592.49 322.56,-574.49 496.5,-556.49 670.44,-574.49 496.5,-592.49"/>
<text text-anchor="middle" x="496.5" y="-570.79" font-family="Times New Roman,serif" font-size="14.00">Gepäck_vorhanden?_/_SPLIT</text>
</g>
<!-- ExclusiveG\nateway_1mv\n1czk&#45;&gt;Task_1o58n\nbi -->
<g id="edge3" class="edge">
<title>ExclusiveG\nateway_1mv\n1czk&#45;&gt;Task_1o58n\nbi</title>
<path fill="none" stroke="black" d="M467.99,-559.4C448.84,-549.94 422.64,-536.99 397.68,-524.65"/>
<polygon fill="black" stroke="black" points="399.08,-521.43 388.56,-520.14 395.97,-527.71 399.08,-521.43"/>
</g>
<!-- ExclusiveG\nateway_190\ng6r4 -->
<g id="node5" class="node">
<title>ExclusiveG\nateway_190\ng6r4</title>
<polygon fill="lightgrey" stroke="black" points="577.5,-220.49 411.26,-202.49 577.5,-184.49 743.74,-202.49 577.5,-220.49"/>
<text text-anchor="middle" x="577.5" y="-198.79" font-family="Times New Roman,serif" font-size="14.00">Gepäck_vorhanden?_/_JOIN</text>
</g>
<!-- ExclusiveG\nateway_1mv\n1czk&#45;&gt;ExclusiveG\nateway_190\ng6r4 -->
<g id="edge2" class="edge">
<title>ExclusiveG\nateway_1mv\n1czk&#45;&gt;ExclusiveG\nateway_190\ng6r4</title>
<path fill="none" stroke="black" d="M578.16,-564.86C606.05,-557.56 634.46,-544.32 651.5,-520.49 677.03,-484.79 698.84,-370.73 641.5,-256.49 634.89,-243.32 623.35,-232.22 611.88,-223.63"/>
<polygon fill="black" stroke="black" points="613.81,-220.71 603.61,-217.83 609.79,-226.44 613.81,-220.71"/>
</g>
<!-- Task_19knt\n6m -->
<g id="node3" class="node">
<title>Task_19knt\n6m</title>
<polygon fill="lightgrey" stroke="black" points="333,-628.99 333,-681.99 660,-681.99 660,-628.99 333,-628.99"/>
<text text-anchor="middle" x="374.5" y="-659.29" font-family="Times New Roman,serif" font-size="14.00">Task_19knt</text>
<text text-anchor="middle" x="374.5" y="-644.29" font-family="Times New Roman,serif" font-size="14.00">6m</text>
<polyline fill="none" stroke="black" points="416,-628.99 416,-681.99 "/>
<text text-anchor="middle" x="462" y="-666.79" font-family="Times New Roman,serif" font-size="14.00">Verkäufer:</text>
<text text-anchor="middle" x="462" y="-651.79" font-family="Times New Roman,serif" font-size="14.00">1CV__Lane_</text>
<text text-anchor="middle" x="462" y="-636.79" font-family="Times New Roman,serif" font-size="14.00">131x34o</text>
<polyline fill="none" stroke="black" points="508,-628.99 508,-681.99 "/>
<text text-anchor="middle" x="584" y="-651.79" font-family="Times New Roman,serif" font-size="14.00">Kundenretoure_erstellen</text>
</g>
<!-- Task_19knt\n6m&#45;&gt;ExclusiveG\nateway_1mv\n1czk -->
<g id="edge4" class="edge">
<title>Task_19knt\n6m&#45;&gt;ExclusiveG\nateway_1mv\n1czk</title>
<path fill="none" stroke="black" d="M496.5,-628.63C496.5,-620.4 496.5,-611.28 496.5,-602.94"/>
<polygon fill="black" stroke="black" points="500,-602.94 496.5,-592.94 493,-602.94 500,-602.94"/>
</g>
<!-- Task_05vn3\nq3 -->
<g id="node6" class="node">
<title>Task_05vn3\nq3</title>
<polygon fill="lightgrey" stroke="black" points="354,-256.99 354,-324.99 633,-324.99 633,-256.99 354,-256.99"/>
<text text-anchor="middle" x="397" y="-294.79" font-family="Times New Roman,serif" font-size="14.00">Task_05vn3</text>
<text text-anchor="middle" x="397" y="-279.79" font-family="Times New Roman,serif" font-size="14.00">q3</text>
<polyline fill="none" stroke="black" points="440,-256.99 440,-324.99 "/>
<text text-anchor="middle" x="484" y="-309.79" font-family="Times New Roman,serif" font-size="14.00">Lagerfachk</text>
<text text-anchor="middle" x="484" y="-294.79" font-family="Times New Roman,serif" font-size="14.00">raft:1CR__</text>
<text text-anchor="middle" x="484" y="-279.79" font-family="Times New Roman,serif" font-size="14.00">Lane_1v76w</text>
<text text-anchor="middle" x="484" y="-264.79" font-family="Times New Roman,serif" font-size="14.00">t5</text>
<polyline fill="none" stroke="black" points="528,-256.99 528,-324.99 "/>
<text text-anchor="middle" x="580.5" y="-287.29" font-family="Times New Roman,serif" font-size="14.00">Laden_beenden</text>
</g>
<!-- Task_1tu4h\nnw&#45;&gt;Task_05vn3\nq3 -->
<g id="edge5" class="edge">
<title>Task_1tu4h\nnw&#45;&gt;Task_05vn3\nq3</title>
<path fill="none" stroke="black" d="M426.89,-361.9C435.44,-352.92 445.28,-342.6 454.73,-332.68"/>
<polygon fill="black" stroke="black" points="457.48,-334.87 461.84,-325.22 452.41,-330.04 457.48,-334.87"/>
</g>
<!-- Task_0irqb\ncr -->
<g id="node12" class="node">
<title>Task_0irqb\ncr</title>
<polygon fill="lightgrey" stroke="black" points="418.5,-94.99 418.5,-147.99 736.5,-147.99 736.5,-94.99 418.5,-94.99"/>
<text text-anchor="middle" x="459" y="-125.29" font-family="Times New Roman,serif" font-size="14.00">Task_0irqb</text>
<text text-anchor="middle" x="459" y="-110.29" font-family="Times New Roman,serif" font-size="14.00">cr</text>
<polyline fill="none" stroke="black" points="499.5,-94.99 499.5,-147.99 "/>
<text text-anchor="middle" x="544" y="-132.79" font-family="Times New Roman,serif" font-size="14.00">Versandbür</text>
<text text-anchor="middle" x="544" y="-117.79" font-family="Times New Roman,serif" font-size="14.00">o:1CN__Lan</text>
<text text-anchor="middle" x="544" y="-102.79" font-family="Times New Roman,serif" font-size="14.00">e_1n6g0py</text>
<polyline fill="none" stroke="black" points="588.5,-94.99 588.5,-147.99 "/>
<text text-anchor="middle" x="662.5" y="-117.79" font-family="Times New Roman,serif" font-size="14.00">Versandeinheiten_laden</text>
</g>
<!-- ExclusiveG\nateway_190\ng6r4&#45;&gt;Task_0irqb\ncr -->
<g id="edge6" class="edge">
<title>ExclusiveG\nateway_190\ng6r4&#45;&gt;Task_0irqb\ncr</title>
<path fill="none" stroke="black" d="M577.5,-184.35C577.5,-176.64 577.5,-167.23 577.5,-158.09"/>
<polygon fill="black" stroke="black" points="581,-158.01 577.5,-148.01 574,-158.01 581,-158.01"/>
</g>
<!-- Task_05vn3\nq3&#45;&gt;ExclusiveG\nateway_190\ng6r4 -->
<g id="edge7" class="edge">
<title>Task_05vn3\nq3&#45;&gt;ExclusiveG\nateway_190\ng6r4</title>
<path fill="none" stroke="black" d="M525.74,-256.8C535.57,-246.67 546.16,-235.77 555.18,-226.48"/>
<polygon fill="black" stroke="black" points="557.88,-228.72 562.34,-219.11 552.86,-223.84 557.88,-228.72"/>
</g>
<!-- Task_04ino\nqh -->
<g id="node7" class="node">
<title>Task_04ino\nqh</title>
<polygon fill="lightgrey" stroke="black" points="199.5,-718.99 199.5,-786.99 793.5,-786.99 793.5,-718.99 199.5,-718.99"/>
<text text-anchor="middle" x="241" y="-756.79" font-family="Times New Roman,serif" font-size="14.00">Task_04ino</text>
<text text-anchor="middle" x="241" y="-741.79" font-family="Times New Roman,serif" font-size="14.00">qh</text>
<polyline fill="none" stroke="black" points="282.5,-718.99 282.5,-786.99 "/>
<text text-anchor="middle" x="327" y="-771.79" font-family="Times New Roman,serif" font-size="14.00">Produktion</text>
<text text-anchor="middle" x="327" y="-756.79" font-family="Times New Roman,serif" font-size="14.00">splanung:1</text>
<text text-anchor="middle" x="327" y="-741.79" font-family="Times New Roman,serif" font-size="14.00">D7b_Lane_0</text>
<text text-anchor="middle" x="327" y="-726.79" font-family="Times New Roman,serif" font-size="14.00">jl5f91</text>
<polyline fill="none" stroke="black" points="371.5,-718.99 371.5,-786.99 "/>
<text text-anchor="middle" x="582.5" y="-749.29" font-family="Times New Roman,serif" font-size="14.00">Warenbestand_von_Lagerplatz_&#39;ROD&#39;_in_Lagerplatz_&#39;AFS&#39;_umbuchen</text>
</g>
<!-- Task_04ino\nqh&#45;&gt;Task_19knt\n6m -->
<g id="edge8" class="edge">
<title>Task_04ino\nqh&#45;&gt;Task_19knt\n6m</title>
<path fill="none" stroke="black" d="M496.5,-718.86C496.5,-710.28 496.5,-701.01 496.5,-692.3"/>
<polygon fill="black" stroke="black" points="500,-692.04 496.5,-682.04 493,-692.04 500,-692.04"/>
</g>
<!-- StartEvent\n_28 -->
<g id="node8" class="node">
<title>StartEvent\n_28</title>
<ellipse fill="lightgrey" stroke="black" cx="496.5" cy="-1046.44" rx="27.9" ry="27.9"/>
<text text-anchor="middle" x="496.5" y="-1042.74" font-family="Times New Roman,serif" font-size="14.00">Start</text>
</g>
<!-- Task_0dw24\n18 -->
<g id="node11" class="node">
<title>Task_0dw24\n18</title>
<polygon fill="lightgrey" stroke="black" points="355.5,-913.99 355.5,-981.99 637.5,-981.99 637.5,-913.99 355.5,-913.99"/>
<text text-anchor="middle" x="400" y="-951.79" font-family="Times New Roman,serif" font-size="14.00">Task_0dw24</text>
<text text-anchor="middle" x="400" y="-936.79" font-family="Times New Roman,serif" font-size="14.00">18</text>
<polyline fill="none" stroke="black" points="444.5,-913.99 444.5,-981.99 "/>
<text text-anchor="middle" x="488.5" y="-966.79" font-family="Times New Roman,serif" font-size="14.00">Lagerfachk</text>
<text text-anchor="middle" x="488.5" y="-951.79" font-family="Times New Roman,serif" font-size="14.00">raft:1CR__</text>
<text text-anchor="middle" x="488.5" y="-936.79" font-family="Times New Roman,serif" font-size="14.00">Lane_1v76w</text>
<text text-anchor="middle" x="488.5" y="-921.79" font-family="Times New Roman,serif" font-size="14.00">t5</text>
<polyline fill="none" stroke="black" points="532.5,-913.99 532.5,-981.99 "/>
<text text-anchor="middle" x="585" y="-944.29" font-family="Times New Roman,serif" font-size="14.00">Laden_beenden</text>
</g>
<!-- StartEvent\n_28&#45;&gt;Task_0dw24\n18 -->
<g id="edge9" class="edge">
<title>StartEvent\n_28&#45;&gt;Task_0dw24\n18</title>
<path fill="none" stroke="black" d="M496.5,-1018.32C496.5,-1010.23 496.5,-1001.15 496.5,-992.3"/>
<polygon fill="black" stroke="black" points="500,-992.08 496.5,-982.08 493,-992.08 500,-992.08"/>
</g>
<!-- Task_0fdtq\nmn -->
<g id="node9" class="node">
<title>Task_0fdtq\nmn</title>
<polygon fill="lightgrey" stroke="black" points="337,-823.99 337,-876.99 656,-876.99 656,-823.99 337,-823.99"/>
<text text-anchor="middle" x="378" y="-854.29" font-family="Times New Roman,serif" font-size="14.00">Task_0fdtq</text>
<text text-anchor="middle" x="378" y="-839.29" font-family="Times New Roman,serif" font-size="14.00">mn</text>
<polyline fill="none" stroke="black" points="419,-823.99 419,-876.99 "/>
<text text-anchor="middle" x="463.5" y="-861.79" font-family="Times New Roman,serif" font-size="14.00">Versandbür</text>
<text text-anchor="middle" x="463.5" y="-846.79" font-family="Times New Roman,serif" font-size="14.00">o:1CN__Lan</text>
<text text-anchor="middle" x="463.5" y="-831.79" font-family="Times New Roman,serif" font-size="14.00">e_1n6g0py</text>
<polyline fill="none" stroke="black" points="508,-823.99 508,-876.99 "/>
<text text-anchor="middle" x="582" y="-846.79" font-family="Times New Roman,serif" font-size="14.00">Versandeinheiten_laden</text>
</g>
<!-- Task_0fdtq\nmn&#45;&gt;Task_04ino\nqh -->
<g id="edge10" class="edge">
<title>Task_0fdtq\nmn&#45;&gt;Task_04ino\nqh</title>
<path fill="none" stroke="black" d="M496.5,-823.9C496.5,-815.71 496.5,-806.41 496.5,-797.32"/>
<polygon fill="black" stroke="black" points="500,-797.22 496.5,-787.22 493,-797.22 500,-797.22"/>
</g>
<!-- EndEvent_1\n2qf28i -->
<g id="node10" class="node">
<title>EndEvent_1\n2qf28i</title>
<ellipse fill="lightgrey" stroke="black" cx="577.5" cy="-29.25" rx="29.5" ry="29.5"/>
<text text-anchor="middle" x="577.5" y="-25.55" font-family="Times New Roman,serif" font-size="14.00">Ende</text>
</g>
<!-- Task_0dw24\n18&#45;&gt;Task_0fdtq\nmn -->
<g id="edge11" class="edge">
<title>Task_0dw24\n18&#45;&gt;Task_0fdtq\nmn</title>
<path fill="none" stroke="black" d="M496.5,-913.86C496.5,-905.28 496.5,-896.01 496.5,-887.3"/>
<polygon fill="black" stroke="black" points="500,-887.04 496.5,-877.04 493,-887.04 500,-887.04"/>
</g>
<!-- Task_0irqb\ncr&#45;&gt;EndEvent_1\n2qf28i -->
<g id="edge12" class="edge">
<title>Task_0irqb\ncr&#45;&gt;EndEvent_1\n2qf28i</title>
<path fill="none" stroke="black" d="M577.5,-94.87C577.5,-86.78 577.5,-77.66 577.5,-68.87"/>
<polygon fill="black" stroke="black" points="581,-68.79 577.5,-58.79 574,-68.79 581,-68.79"/>
</g>
</g>
</svg>
